<svg id="Layer_1" data-name="Layer 1" xmlns="http://www.w3.org/2000/svg" viewBox="0 0 217 239"><path d="M213.42,29.82v181.5a23.44,23.44,0,0,1-6.5,16.5,24.83,24.83,0,0,1-33.5,0,15.5,15.5,0,0,1-2-2.5,2.93,2.93,0,0,0-2-1h-1q-41.5,15.51-86-1-36.51-13-56.5-42-19-26.49-19-61,0-33,14-57a89.73,89.73,0,0,1,32.5-34.5q26-15.5,61-17a185,185,0,0,1,53.5,6,2,2,0,0,0,2.5-1l3-4a24.83,24.83,0,0,1,33.5,0A24.11,24.11,0,0,1,213.42,29.82Zm-23.5,191.5,9-17.5h-7v-4a2,2,0,0,0-2-1.5c-1,0-1.5.67-1.5,2v3.5h-7Zm5.5-190a8.63,8.63,0,0,0-.25-2,3.77,3.77,0,0,0-1-1.75,7,7,0,0,0-1.75-1.25,5.79,5.79,0,0,0-6.25,1,5,5,0,0,0-1.75,4,4.72,4.72,0,0,0,4,5v2c0,1.34.58,2,1.75,2s1.75-.66,1.75-2v-2Q195.42,35.33,195.42,31.32Zm-3.5,154v-15a2,2,0,0,0-2-1.5c-1,0-1.5.67-1.5,2v14.5c0,1.34.58,2,1.75,2S191.92,186.66,191.92,185.32Zm0-29.5v-14.5c-.34-1.33-1-2-2-2s-1.5.67-1.5,2v14.5c0,1.34.58,2,1.75,2S191.92,157.16,191.92,155.82Zm0-29v-15.5a2,2,0,0,0-2-1.5c-1,0-1.5.67-1.5,2v15c0,1,.58,1.5,1.75,1.5S191.92,127.82,191.92,126.82Zm0-29.5v-15c-.34-1.33-1-2-2-2s-1.5.67-1.5,2v15c0,1,.58,1.5,1.75,1.5S191.92,98.32,191.92,97.32Zm0-29.5v-15a2,2,0,0,0-2-1.5,1.33,1.33,0,0,0-1.5,1.5v15c0,1,.58,1.5,1.75,1.5S191.92,68.82,191.92,67.82Zm-16,136,8-18-19.5,4.5,4.5,5-5,2.5a1.61,1.61,0,0,0-1,1.5v1a2.85,2.85,0,0,0,2,1h.5a54.8,54.8,0,0,0,6-3.5Zm7.75-154.5q2.25-5-2.75-7a4.72,4.72,0,0,0-6,1.5q-6-2.49-12.5-4.5c-1-.33-1.84.17-2.5,1.5a2,2,0,0,0,1.5,2q4,1.5,12,4-.51,4,3,5.5Q181.42,54.33,183.67,49.32Zm-16.75,121.5V68.32a2.37,2.37,0,0,0-2-2.5,137.18,137.18,0,0,0-48.5-7q-23,1-38.5,10a47.46,47.46,0,0,0-16.5,17q-7.5,13.5-7.5,34.5a57.85,57.85,0,0,0,10.5,34q12,17,34,25a81.15,81.15,0,0,0,29,5.5,70.59,70.59,0,0,0,19-2.5,55.92,55.92,0,0,0,19.5-9.5A2,2,0,0,0,166.92,170.82Zm-14.25,34.75a4.29,4.29,0,0,0,.25-1.25,1.83,1.83,0,0,0-2.5-1.5,103.21,103.21,0,0,1-14,3,1.33,1.33,0,0,0-1.5,1.5v.5a1.33,1.33,0,0,0,1.5,1.5h.5q6.5-1,14.5-3A1.16,1.16,0,0,0,152.67,205.57ZM149.42,38.32v-.5a2,2,0,0,0-1.5-2,117.64,117.64,0,0,0-14.5-2,1.77,1.77,0,0,0-2,2,.62.62,0,0,0,0,1,3.67,3.67,0,0,0,1.5.5,138.12,138.12,0,0,1,14.5,2A2,2,0,0,0,149.42,38.32Zm-25.5,169.5a1.47,1.47,0,0,0-.5-1,2.07,2.07,0,0,0-1.5-.5q-5-.49-14.5-2a2,2,0,0,0-2,1.5v.5a2,2,0,0,0,1.5,2h.5q7.5,1,14.5,1.5A1.77,1.77,0,0,0,123.92,207.82Zm-4.5-171.5a2,2,0,0,0,.5-1.5,1.33,1.33,0,0,0-1.5-1.5q-10.5.51-15,1c-1.34,0-1.84.67-1.5,2,0,1,.66,1.5,2,1.5a90.57,90.57,0,0,1,14.5-1A1.43,1.43,0,0,0,119.42,36.32Zm-24.5,167c.33-1.33,0-2.16-1-2.5a66.79,66.79,0,0,1-13.5-5.5c-1.34-.33-2.17,0-2.5,1v1a2,2,0,0,0,.5,1.5q9.49,4,14,5.5h.5A2,2,0,0,0,94.92,203.32Zm-4-164.5v-.5c-.34-1.33-1-1.83-2-1.5a82.34,82.34,0,0,0-14.5,5,3.78,3.78,0,0,0-.75,1,3.47,3.47,0,0,0-.25,1.5,2,2,0,0,0,2,1h.5a96,96,0,0,1,14-4.5A2.89,2.89,0,0,0,90.92,38.82Zm-22.5,152a1.6,1.6,0,0,0-.5-2.5q-6.51-5-11-9c-1-1-1.84-1-2.5,0-.67.34-1,.75-1,1.25s.33.92,1,1.25a82,82,0,0,0,11.5,9.5h1A2,2,0,0,0,68.42,190.82Zm-4-140a1.47,1.47,0,0,0-.5-1,1.6,1.6,0,0,0-2.5-.5,75.85,75.85,0,0,0-11.5,9.5c-1,1-.84,1.84.5,2.5,0,.34.33.5,1,.5a3.76,3.76,0,0,0,1.5-.5,55.54,55.54,0,0,1,10.5-9C64.08,51.66,64.42,51.16,64.42,50.82Zm-16.5,118.5a1.47,1.47,0,0,0-.5-1,63.61,63.61,0,0,1-7-12.5,2.54,2.54,0,0,0-3-1,2.89,2.89,0,0,0-1,2l.5.5a62.74,62.74,0,0,0,7.5,13,1.59,1.59,0,0,0,1.5,1,1.43,1.43,0,0,0,1-.5A6,6,0,0,0,47.92,169.32Zm-4-96.5.5-1a6.35,6.35,0,0,0-1-1.5,1.6,1.6,0,0,0-2.5.5,72.77,72.77,0,0,0-6.5,13.5,2,2,0,0,0,1,2.5h1a1.61,1.61,0,0,0,1.5-1A56.54,56.54,0,0,1,43.92,72.82Zm-10,72a2.3,2.3,0,0,0,1.5-2.5,67.87,67.87,0,0,1-2.5-14,2,2,0,0,0-2-1.5c-1.34,0-2,.5-2,1.5v.5a58.87,58.87,0,0,0,3,14.5,1.33,1.33,0,0,0,1.5,1.5Zm0-45a.44.44,0,0,0,.5-.5,2,2,0,0,0-1.5-2,2.3,2.3,0,0,0-2.5,1.5q-1,7-1.5,15c-.34,1,.16,1.67,1.5,2h.5c1,0,1.5-.66,1.5-2Q32.92,107.32,33.92,99.82Z" transform="translate(-1.92 -0.82)" fill="#fbea23"/><path d="M218.92,29.32v182a27.15,27.15,0,0,1-8.5,20.25,28.08,28.08,0,0,1-20.25,8.25,28.48,28.48,0,0,1-20.25-8,7.52,7.52,0,0,1-1.5-2q-42.51,15-88-1.5-37.5-13.5-58.5-43.5-20-28.5-20-64.5,0-34.5,14-60a100.55,100.55,0,0,1,35-36q26.49-16.5,63.5-18a182.91,182.91,0,0,1,53,6,19.48,19.48,0,0,1,2.5-3,28.37,28.37,0,0,1,40.5,0A27.41,27.41,0,0,1,218.92,29.32Zm-5.5,182V29.82a24.11,24.11,0,0,0-6.5-17,24.83,24.83,0,0,0-33.5,0l-3,4a2,2,0,0,1-2.5,1,185,185,0,0,0-53.5-6q-35,1.5-61,17a89.73,89.73,0,0,0-32.5,34.5q-14,24-14,57,0,34.5,19,61,20,29,56.5,42,44.49,16.5,86,1h1a2.93,2.93,0,0,1,2,1,15.5,15.5,0,0,0,2,2.5,24.83,24.83,0,0,0,33.5,0A23.44,23.44,0,0,0,213.42,211.32Z" transform="translate(-1.92 -0.82)" fill="#1d1d1b"/><path d="M198.92,203.82l-9,17.5-8.5-17.5h7v-3.5c0-1.33.5-2,1.5-2a2,2,0,0,1,2,1.5v4Z" transform="translate(-1.92 -0.82)" fill="#5a5a5a"/><path d="M195.17,29.32a8.63,8.63,0,0,1,.25,2q0,4-3.5,5v2c0,1.34-.59,2-1.75,2s-1.75-.66-1.75-2v-2a4.72,4.72,0,0,1-4-5,5,5,0,0,1,1.75-4,5.79,5.79,0,0,1,6.25-1,7,7,0,0,1,1.75,1.25A3.77,3.77,0,0,1,195.17,29.32Z" transform="translate(-1.92 -0.82)" fill="#5a5a5a"/><path d="M191.92,170.82v14.5c0,1.34-.59,2-1.75,2s-1.75-.66-1.75-2v-14.5c0-1.33.5-2,1.5-2a2,2,0,0,1,2,1.5Z" transform="translate(-1.92 -0.82)" fill="#5a5a5a"/><path d="M191.92,141.82v14c0,1.34-.59,2-1.75,2s-1.75-.66-1.75-2v-14.5c0-1.33.5-2,1.5-2s1.66.67,2,2Z" transform="translate(-1.92 -0.82)" fill="#5a5a5a"/><path d="M191.92,112.32v14.5c0,1-.59,1.5-1.75,1.5s-1.75-.5-1.75-1.5v-15c0-1.33.5-2,1.5-2a2,2,0,0,1,2,1.5v1Z" transform="translate(-1.92 -0.82)" fill="#5a5a5a"/><path d="M191.92,82.82v14.5c0,1-.59,1.5-1.75,1.5s-1.75-.5-1.75-1.5v-15c0-1.33.5-2,1.5-2s1.66.67,2,2Z" transform="translate(-1.92 -0.82)" fill="#5a5a5a"/><path d="M191.92,53.32v14.5c0,1-.59,1.5-1.75,1.5s-1.75-.5-1.75-1.5v-15a1.33,1.33,0,0,1,1.5-1.5,2,2,0,0,1,2,1.5Z" transform="translate(-1.92 -0.82)" fill="#5a5a5a"/><path d="M183.92,185.82l-8,18-4.5-6a54.8,54.8,0,0,1-6,3.5h-.5a2.85,2.85,0,0,1-2-1v-1a1.61,1.61,0,0,1,1-1.5l5-2.5-4.5-5Z" transform="translate(-1.92 -0.82)" fill="#5a5a5a"/><path d="M180.92,42.32q5,2,2.75,7t-7.25,3q-3.51-1.5-3-5.5-8-2.49-12-4a2,2,0,0,1-1.5-2c.66-1.33,1.5-1.83,2.5-1.5q6.5,2,12.5,4.5A4.72,4.72,0,0,1,180.92,42.32Z" transform="translate(-1.92 -0.82)" fill="#5a5a5a"/><path d="M166.92,68.32v102.5a2,2,0,0,1-1,2,55.92,55.92,0,0,1-19.5,9.5,70.59,70.59,0,0,1-19,2.5,81.15,81.15,0,0,1-29-5.5q-22-8-34-25a57.85,57.85,0,0,1-10.5-34q0-21,7.5-34.5a47.46,47.46,0,0,1,16.5-17q15.49-9,38.5-10a137.18,137.18,0,0,1,48.5,7A2.37,2.37,0,0,1,166.92,68.32Zm-5.5,101v-99a130.45,130.45,0,0,0-40.5-6.5h-4.5q-21.51,1-35.5,9.5a41.46,41.46,0,0,0-14.5,15q-7,12.51-7,32a52.47,52.47,0,0,0,9.5,31q11,15.51,31.5,23,23,8.51,44.5,3A44.7,44.7,0,0,0,161.42,169.32Z" transform="translate(-1.92 -0.82)" fill="#1d1d1b"/><path d="M152.92,204.32a4.29,4.29,0,0,1-.25,1.25,1.16,1.16,0,0,1-1.25.75q-8,2-14.5,3h-.5a1.33,1.33,0,0,1-1.5-1.5v-.5a1.33,1.33,0,0,1,1.5-1.5,103.21,103.21,0,0,0,14-3A1.83,1.83,0,0,1,152.92,204.32Z" transform="translate(-1.92 -0.82)" fill="#5a5a5a"/><path d="M149.42,37.82v.5a2,2,0,0,1-2,1,138.12,138.12,0,0,0-14.5-2,3.67,3.67,0,0,1-1.5-.5.62.62,0,0,1,0-1,1.77,1.77,0,0,1,2-2,117.64,117.64,0,0,1,14.5,2A2,2,0,0,1,149.42,37.82Z" transform="translate(-1.92 -0.82)" fill="#5a5a5a"/><path d="M123.42,206.82a1.47,1.47,0,0,1,.5,1,1.77,1.77,0,0,1-2,2q-7-.49-14.5-1.5h-.5a2,2,0,0,1-1.5-2v-.5a2,2,0,0,1,2-1.5q9.49,1.5,14.5,2A2.07,2.07,0,0,1,123.42,206.82Z" transform="translate(-1.92 -0.82)" fill="#5a5a5a"/><path d="M119.92,34.82a2,2,0,0,1-.5,1.5,1.43,1.43,0,0,1-1,.5,90.57,90.57,0,0,0-14.5,1c-1.34,0-2-.5-2-1.5-.34-1.33.16-2,1.5-2q4.5-.49,15-1A1.33,1.33,0,0,1,119.92,34.82Z" transform="translate(-1.92 -0.82)" fill="#5a5a5a"/><path d="M93.92,200.82c1,.34,1.33,1.17,1,2.5a2,2,0,0,1-2,1h-.5q-4.5-1.5-14-5.5a2,2,0,0,1-.5-1.5v-1c.33-1,1.16-1.33,2.5-1A66.79,66.79,0,0,0,93.92,200.82Z" transform="translate(-1.92 -0.82)" fill="#5a5a5a"/><path d="M90.92,38.32v.5a2.89,2.89,0,0,1-1,2,96,96,0,0,0-14,4.5h-.5a2,2,0,0,1-2-1,3.47,3.47,0,0,1,.25-1.5,3.78,3.78,0,0,1,.75-1,82.34,82.34,0,0,1,14.5-5C89.92,36.49,90.58,37,90.92,38.32Z" transform="translate(-1.92 -0.82)" fill="#5a5a5a"/><path d="M63.92,49.82a1.47,1.47,0,0,1,.5,1c0,.34-.34.84-1,1.5a55.54,55.54,0,0,0-10.5,9,3.76,3.76,0,0,1-1.5.5c-.67,0-1-.16-1-.5-1.34-.66-1.5-1.5-.5-2.5a75.85,75.85,0,0,1,11.5-9.5A1.6,1.6,0,0,1,63.92,49.82Z" transform="translate(-1.92 -0.82)" fill="#5a5a5a"/><path d="M56.92,179.32q4.5,4,11,9a1.6,1.6,0,0,1,.5,2.5,2,2,0,0,1-1.5.5h-1a82,82,0,0,1-11.5-9.5c-.67-.33-1-.75-1-1.25s.33-.91,1-1.25C55.08,178.32,55.92,178.32,56.92,179.32Z" transform="translate(-1.92 -0.82)" fill="#5a5a5a"/><path d="M47.42,168.32a1.47,1.47,0,0,1,.5,1,6,6,0,0,1-1,1.5,1.43,1.43,0,0,1-1,.5,1.59,1.59,0,0,1-1.5-1,62.74,62.74,0,0,1-7.5-13l-.5-.5a2.89,2.89,0,0,1,1-2,2.54,2.54,0,0,1,3,1A63.61,63.61,0,0,0,47.42,168.32Z" transform="translate(-1.92 -0.82)" fill="#5a5a5a"/><path d="M44.42,71.82l-.5,1a56.54,56.54,0,0,0-6,13,1.61,1.61,0,0,1-1.5,1h-1a2,2,0,0,1-1-2.5,72.77,72.77,0,0,1,6.5-13.5,1.6,1.6,0,0,1,2.5-.5A6.35,6.35,0,0,1,44.42,71.82Z" transform="translate(-1.92 -0.82)" fill="#5a5a5a"/><path d="M35.42,142.32a2.3,2.3,0,0,1-1.5,2.5h-.5a1.33,1.33,0,0,1-1.5-1.5,58.87,58.87,0,0,1-3-14.5v-.5c0-1,.66-1.5,2-1.5a2,2,0,0,1,2,1.5A67.87,67.87,0,0,0,35.42,142.32Z" transform="translate(-1.92 -0.82)" fill="#5a5a5a"/><path d="M34.42,99.32a.44.44,0,0,1-.5.5q-1,7.5-1.5,14c0,1.34-.5,2-1.5,2h-.5c-1.34-.33-1.84-1-1.5-2q.49-8,1.5-15a2.3,2.3,0,0,1,2.5-1.5A2,2,0,0,1,34.42,99.32Z" transform="translate(-1.92 -0.82)" fill="#5a5a5a"/></svg>