<svg id="Layer_1" data-name="Layer 1" xmlns="http://www.w3.org/2000/svg" viewBox="0 0 217 361.5"><path d="M199.19,185q14,24.51,14,57.5-.51,34.5-19,61.5-20.52,28.5-56.5,42-44.52,16-86,1c-1.34-.66-2.34-.5-3,.5a17.33,17.33,0,0,1-2,2.5,23.75,23.75,0,0,1-16.75,6.5A23.72,23.72,0,0,1,13.19,350a23.4,23.4,0,0,1-6.5-16.5V29a23,23,0,0,1,6.75-16.5,22.07,22.07,0,0,1,16.5-7,22.07,22.07,0,0,1,16.5,7A23,23,0,0,1,53.19,29V136a2.44,2.44,0,0,0,1.25,2.25,4.4,4.4,0,0,0,2.25.75,173,173,0,0,1,48.5-5q35.49,1,61,17A94.84,94.84,0,0,1,199.19,185Zm-8,52q-.51-7-1.5-14.5a1.83,1.83,0,0,0-2.5-1.5,1.33,1.33,0,0,0-1.5,1.5v.5a85.53,85.53,0,0,1,1.5,14.5c0,1,.66,1.5,2,1.5A1.77,1.77,0,0,0,191.19,237Zm-.5,15c0-1.33-.5-2-1.5-2a1.77,1.77,0,0,0-2,2,108.94,108.94,0,0,1-3,14,2,2,0,0,0,1.5,2h.5a1.61,1.61,0,0,0,1.5-1A102.58,102.58,0,0,0,190.69,252Zm-4.75-42.75a1.17,1.17,0,0,0-.25-1.25,68.28,68.28,0,0,0-6.5-14c-.34-1-1-1.16-2-.5a2,2,0,0,0-1,2v.5a79.81,79.81,0,0,1,6,13,2,2,0,0,0,2,1.5h.5A2.33,2.33,0,0,0,185.94,209.2ZM182.19,281l.5-1a1.62,1.62,0,0,0-1-1.5,1.6,1.6,0,0,0-2.5.5,89.24,89.24,0,0,1-7.5,12.5,1.43,1.43,0,0,0-.5,1,1.58,1.58,0,0,0,1,1.5c0,.34.32.5,1,.5a1.61,1.61,0,0,0,1.5-1A78.54,78.54,0,0,0,182.19,281Zm-12-96a2.18,2.18,0,0,0,.5-3,84.52,84.52,0,0,0-11.5-9.5c-1-.66-1.84-.66-2.5,0a1.43,1.43,0,0,0-.5,1,2,2,0,0,0,1,2,55.54,55.54,0,0,1,10.5,9,2.71,2.71,0,0,0,1.75,1C169.94,185.45,170.19,185.29,170.19,185Zm-5,118.5a2.12,2.12,0,0,0-.5-1.5c-1-.66-1.84-.66-2.5,0a129.57,129.57,0,0,1-11.5,9,5.55,5.55,0,0,0-1,1.5,1.4,1.4,0,0,0,.5,1,1.57,1.57,0,0,0,1.5,1,1.45,1.45,0,0,0,1-.5,112.56,112.56,0,0,0,12-9A2.08,2.08,0,0,0,165.19,303.45Zm1-61q0-21-8-34.5a42.72,42.72,0,0,0-16.5-17q-15-9.49-38-10a135,135,0,0,0-48.5,7,2.36,2.36,0,0,0-2,2.5v103c0,.67.5,1.34,1.5,2a45.42,45.42,0,0,0,19,9,68.63,68.63,0,0,0,18.5,2.5,89.8,89.8,0,0,0,29.5-5q22-8.49,34-25Q166.19,262,166.19,242.45Zm-19-75.5v-1c-.34-.66-.68-1-1-1a71.58,71.58,0,0,0-13.5-5l-.5-.5h-.5c-1-.33-1.68.17-2,1.5v.5q0,1,1.5,1.5a71.58,71.58,0,0,1,13.5,5,1.38,1.38,0,0,0,1,.5Q146.68,168.45,147.19,167Zm-6.5,152.5V319c-.34-1-1.18-1.33-2.5-1a126.46,126.46,0,0,1-13.5,5.5c-.34,0-.68.34-1,1q-.51.51,0,1.5a1.57,1.57,0,0,0,1.5,1h.5a135.23,135.23,0,0,0,14-5.5A2,2,0,0,0,140.69,319.45Zm-21.5-161a2,2,0,0,0-1.5-2,100.67,100.67,0,0,0-15-1,2,2,0,0,0-2,1.5,1.76,1.76,0,0,0,2,2q8,.51,14.5,1.5A1.77,1.77,0,0,0,119.19,158.45ZM112.69,329v-.5c0-1.33-.68-1.83-2-1.5a85.63,85.63,0,0,1-14.5,1.5c-.34,0-.68.34-1,1a1.43,1.43,0,0,0-.5,1,1.33,1.33,0,0,0,1.5,1.5h.5a74,74,0,0,0,14.5-1.5A1.33,1.33,0,0,0,112.69,329Zm-24.5-169.5c1,0,1.5-.66,1.5-2,0-1-.68-1.5-2-1.5q-8,.51-14,1.5h-1a1.59,1.59,0,0,0-1,1.5v1c0,.67.5,1,1.5,1h.5C76.69,160.62,81.51,160.12,88.19,159.45ZM83.69,330a2,2,0,0,0-1.5-2h-.5a88.05,88.05,0,0,1-14-2.5c-1.34,0-2,.5-2,1.5q-.51.51,0,1.5a1.38,1.38,0,0,0,1,.5,99.59,99.59,0,0,0,14.5,3h.5C82.69,332,83.35,331.29,83.69,330Zm-24.5-165.5c1.32-.66,1.82-1.5,1.5-2.5a2,2,0,0,0-2-1.5q-7,2-12.5,4c-2-2-4.18-2.5-6.5-1.5q-5,2-3,7t7,3c2.66-.66,3.82-2.33,3.5-5A89,89,0,0,1,59.19,164.45Zm-4,158.5v-.5a1.62,1.62,0,0,0-1-1.5q-1-.49-4.5-2.5l4-5-19.5-4,8.5,17.5,5-5.5c2,1,3.66,1.84,5,2.5h1A1.61,1.61,0,0,0,55.19,323Zm-25,21,8.5-17.5h-7V320c0-1-.59-1.5-1.75-1.5s-1.75.5-1.75,1.5v6.5h-7Zm5.5-310a4.65,4.65,0,0,0-.5-2,6.54,6.54,0,0,0-3-3,4.55,4.55,0,0,0-2-.5,5,5,0,0,0-4,1.75A5.68,5.68,0,0,0,24.69,34a5.47,5.47,0,0,0,3.5,5.5V41c0,1.34.57,2,1.75,2s1.75-.66,1.75-2V39A4.73,4.73,0,0,0,35.69,34Zm-4,271.5V291c0-1.33-.59-2-1.75-2s-1.75.67-1.75,2v14.5c0,1.34.57,2,1.75,2S31.69,306.79,31.69,305.45Zm0-29.5v-14.5c0-1.33-.59-2-1.75-2s-1.75.67-1.75,2V276c0,1.34.57,2,1.75,2S31.69,277.29,31.69,276Zm0-29V232c0-1-.59-1.5-1.75-1.5s-1.75.5-1.75,1.5v15c0,1,.57,1.5,1.75,1.5S31.69,248,31.69,247Zm0-29.5v-15c0-1-.59-1.5-1.75-1.5s-1.75.5-1.75,1.5v15c0,1,.57,1.5,1.75,1.5S31.69,218.45,31.69,217.45Zm0-29.5v-14.5c0-1.33-.59-2-1.75-2s-1.75.67-1.75,2V188c0,1.34.57,2,1.75,2S31.69,189.29,31.69,188Zm0-29.5V144c0-1.33-.59-2-1.75-2s-1.75.67-1.75,2v14.5c0,1.34.57,2,1.75,2S31.69,159.79,31.69,158.45Zm0-29v-15c0-1-.59-1.5-1.75-1.5s-1.75.5-1.75,1.5v15c0,1,.57,1.5,1.75,1.5S31.69,130.45,31.69,129.45Zm0-29.5V85c0-1-.59-1.5-1.75-1.5s-1.75.5-1.75,1.5v15c0,1,.57,1.5,1.75,1.5S31.69,101,31.69,100Zm0-29.5v-15c0-1-.59-1.5-1.75-1.5s-1.75.5-1.75,1.5v15c0,1.34.57,2,1.75,2S31.69,71.79,31.69,70.45Z" transform="translate(-1.19 -0.45)" fill="#fbea23"/><path d="M203.69,182.45q14.49,25.5,14.5,60,0,36-20,64.5-21,30-59,44-45,16.5-87.5,1.5l-1.5,1.5a28.55,28.55,0,0,1-20.25,8A28,28,0,0,1,9.69,353.7a27.07,27.07,0,0,1-8.5-20.25V29A27.33,27.33,0,0,1,9.69,9,27.65,27.65,0,0,1,29.94.45,27.72,27.72,0,0,1,50.19,9a27.41,27.41,0,0,1,8.5,20V133a176.11,176.11,0,0,1,47-4.5q36.48,1.5,63.5,18A96.74,96.74,0,0,1,203.69,182.45Zm9.5,60q0-33-14-57.5a94.84,94.84,0,0,0-33-34q-25.5-16-61-17a173,173,0,0,0-48.5,5,4.4,4.4,0,0,1-2.25-.75A2.44,2.44,0,0,1,53.19,136V29a23,23,0,0,0-6.75-16.5,22.07,22.07,0,0,0-16.5-7,22.07,22.07,0,0,0-16.5,7A23,23,0,0,0,6.69,29v304.5a23.4,23.4,0,0,0,6.5,16.5,23.72,23.72,0,0,0,16.75,6.5A23.75,23.75,0,0,0,46.69,350a17.33,17.33,0,0,0,2-2.5c.66-1,1.66-1.16,3-.5q41.49,15,86-1,36-13.5,56.5-42Q212.67,277,213.19,242.45Z" transform="translate(-1.19 -0.45)" fill="#1d1d1b"/><path d="M189.69,222.45q1,7.5,1.5,14.5a1.77,1.77,0,0,1-2,2c-1.34,0-2-.5-2-1.5a85.53,85.53,0,0,0-1.5-14.5v-.5a1.33,1.33,0,0,1,1.5-1.5A1.83,1.83,0,0,1,189.69,222.45Z" transform="translate(-1.19 -0.45)" fill="#5a5a5a"/><path d="M189.19,250c1,0,1.5.67,1.5,2a102.58,102.58,0,0,1-3,15,1.61,1.61,0,0,1-1.5,1h-.5a2,2,0,0,1-1.5-2,108.94,108.94,0,0,0,3-14A1.77,1.77,0,0,1,189.19,250Z" transform="translate(-1.19 -0.45)" fill="#5a5a5a"/><path d="M185.69,208a1.17,1.17,0,0,1,.25,1.25,2.33,2.33,0,0,1-1.25,1.25h-.5a2,2,0,0,1-2-1.5,79.81,79.81,0,0,0-6-13v-.5a2,2,0,0,1,1-2c1-.66,1.66-.5,2,.5A68.28,68.28,0,0,1,185.69,208Z" transform="translate(-1.19 -0.45)" fill="#5a5a5a"/><path d="M182.69,280l-.5,1a78.54,78.54,0,0,1-7.5,12.5,1.61,1.61,0,0,1-1.5,1c-.68,0-1-.16-1-.5a1.58,1.58,0,0,1-1-1.5,1.43,1.43,0,0,1,.5-1,89.24,89.24,0,0,0,7.5-12.5,1.6,1.6,0,0,1,2.5-.5A1.62,1.62,0,0,1,182.69,280Z" transform="translate(-1.19 -0.45)" fill="#5a5a5a"/><path d="M164.69,302a2.12,2.12,0,0,1,.5,1.5,2.08,2.08,0,0,1-.5,1.5,112.56,112.56,0,0,1-12,9,1.45,1.45,0,0,1-1,.5,1.57,1.57,0,0,1-1.5-1,1.4,1.4,0,0,1-.5-1,5.55,5.55,0,0,1,1-1.5,129.57,129.57,0,0,0,11.5-9C162.85,301.29,163.69,301.29,164.69,302Z" transform="translate(-1.19 -0.45)" fill="#5a5a5a"/><path d="M158.19,208q8,13.5,8,34.5,0,19.5-10.5,34.5-12,16.5-34,25a89.8,89.8,0,0,1-29.5,5,68.63,68.63,0,0,1-18.5-2.5,45.42,45.42,0,0,1-19-9c-1-.66-1.5-1.33-1.5-2v-103a2.36,2.36,0,0,1,2-2.5,135,135,0,0,1,48.5-7q23,.51,38,10A42.72,42.72,0,0,1,158.19,208Zm2.5,34.5q0-19.5-7-32a41.71,41.71,0,0,0-14.5-15q-14-8.49-36-9.5a122.38,122.38,0,0,0-44.5,6.5V292a50.17,50.17,0,0,0,16,7.5q21.48,6,45-2.5,20.49-7.5,31.5-23A54.9,54.9,0,0,0,160.69,242.45Z" transform="translate(-1.19 -0.45)" fill="#1d1d1b"/><path d="M159.19,172.45a84.52,84.52,0,0,1,11.5,9.5,2.18,2.18,0,0,1-.5,3c0,.34-.25.5-.75.5a2.71,2.71,0,0,1-1.75-1,55.54,55.54,0,0,0-10.5-9,2,2,0,0,1-1-2,1.43,1.43,0,0,1,.5-1C157.35,171.79,158.19,171.79,159.19,172.45Z" transform="translate(-1.19 -0.45)" fill="#5a5a5a"/><path d="M140.69,319v.5a2,2,0,0,1-1,2,135.23,135.23,0,0,1-14,5.5h-.5a1.57,1.57,0,0,1-1.5-1q-.51-1,0-1.5c.32-.66.66-1,1-1a126.46,126.46,0,0,0,13.5-5.5C139.51,317.62,140.35,318,140.69,319Z" transform="translate(-1.19 -0.45)" fill="#5a5a5a"/><path d="M132.69,160a71.58,71.58,0,0,1,13.5,5c.32,0,.66.34,1,1v1q-.51,1.5-1.5,1.5a1.38,1.38,0,0,1-1-.5,71.58,71.58,0,0,0-13.5-5q-1.5-.49-1.5-1.5V161c.32-1.33,1-1.83,2-1.5h.5Z" transform="translate(-1.19 -0.45)" fill="#5a5a5a"/><path d="M117.69,156.45a2,2,0,0,1,1.5,2,1.77,1.77,0,0,1-2,2q-6.51-1-14.5-1.5a1.76,1.76,0,0,1-2-2,2,2,0,0,1,2-1.5A100.67,100.67,0,0,1,117.69,156.45Z" transform="translate(-1.19 -0.45)" fill="#5a5a5a"/><path d="M112.69,328.45v.5a1.33,1.33,0,0,1-1.5,1.5,74,74,0,0,1-14.5,1.5h-.5a1.33,1.33,0,0,1-1.5-1.5,1.43,1.43,0,0,1,.5-1c.32-.66.66-1,1-1a85.63,85.63,0,0,0,14.5-1.5C112,326.62,112.69,327.12,112.69,328.45Z" transform="translate(-1.19 -0.45)" fill="#5a5a5a"/><path d="M89.69,157.45c0,1.34-.5,2-1.5,2-6.68.67-11.5,1.17-14.5,1.5h-.5c-1,0-1.5-.33-1.5-1v-1a1.59,1.59,0,0,1,1-1.5h1q6-1,14-1.5C89,156,89.69,156.45,89.69,157.45Z" transform="translate(-1.19 -0.45)" fill="#5a5a5a"/><path d="M82.19,328a2,2,0,0,1,1.5,2c-.34,1.34-1,2-2,2h-.5a99.59,99.59,0,0,1-14.5-3,1.38,1.38,0,0,1-1-.5q-.51-1,0-1.5c0-1,.66-1.5,2-1.5a88.05,88.05,0,0,0,14,2.5Z" transform="translate(-1.19 -0.45)" fill="#5a5a5a"/><path d="M60.69,162c.32,1-.18,1.84-1.5,2.5a89,89,0,0,0-12,3.5c.32,2.67-.84,4.34-3.5,5q-5,2-7-3t3-7c2.32-1,4.5-.5,6.5,1.5q5.49-2,12.5-4A2,2,0,0,1,60.69,162Z" transform="translate(-1.19 -0.45)" fill="#5a5a5a"/><path d="M55.19,322.45v.5a1.61,1.61,0,0,1-1.5,1h-1c-1.34-.66-3-1.5-5-2.5l-5,5.5-8.5-17.5,19.5,4-4,5q3.48,2,4.5,2.5A1.62,1.62,0,0,1,55.19,322.45Z" transform="translate(-1.19 -0.45)" fill="#5a5a5a"/><path d="M38.69,326.45,30.19,344l-9-17.5h7V320c0-1,.57-1.5,1.75-1.5s1.75.5,1.75,1.5v6.5Z" transform="translate(-1.19 -0.45)" fill="#5a5a5a"/><path d="M35.19,32a4.65,4.65,0,0,1,.5,2,4.73,4.73,0,0,1-4,5v2c0,1.34-.59,2-1.75,2s-1.75-.66-1.75-2v-1.5a5.47,5.47,0,0,1-3.5-5.5,5.68,5.68,0,0,1,1.5-3.75,5,5,0,0,1,4-1.75,4.55,4.55,0,0,1,2,.5,6.54,6.54,0,0,1,3,3Z" transform="translate(-1.19 -0.45)" fill="#5a5a5a"/><path d="M31.69,291v14.5c0,1.34-.59,2-1.75,2s-1.75-.66-1.75-2V291c0-1.33.57-2,1.75-2S31.69,289.62,31.69,291Z" transform="translate(-1.19 -0.45)" fill="#5a5a5a"/><path d="M31.69,261.45V276c0,1.34-.59,2-1.75,2s-1.75-.66-1.75-2v-14.5c0-1.33.57-2,1.75-2S31.69,260.12,31.69,261.45Z" transform="translate(-1.19 -0.45)" fill="#5a5a5a"/><path d="M31.69,232v15c0,1-.59,1.5-1.75,1.5s-1.75-.5-1.75-1.5V232c0-1,.57-1.5,1.75-1.5S31.69,231,31.69,232Z" transform="translate(-1.19 -0.45)" fill="#5a5a5a"/><path d="M31.69,202.45v15c0,1-.59,1.5-1.75,1.5s-1.75-.5-1.75-1.5v-15c0-1,.57-1.5,1.75-1.5S31.69,201.45,31.69,202.45Z" transform="translate(-1.19 -0.45)" fill="#5a5a5a"/><path d="M31.69,173.45V188c0,1.34-.59,2-1.75,2s-1.75-.66-1.75-2v-14.5c0-1.33.57-2,1.75-2S31.69,172.12,31.69,173.45Z" transform="translate(-1.19 -0.45)" fill="#5a5a5a"/><path d="M31.69,144v14.5c0,1.34-.59,2-1.75,2s-1.75-.66-1.75-2V144c0-1.33.57-2,1.75-2S31.69,142.62,31.69,144Z" transform="translate(-1.19 -0.45)" fill="#5a5a5a"/><path d="M31.69,114.45v15c0,1-.59,1.5-1.75,1.5s-1.75-.5-1.75-1.5v-15c0-1,.57-1.5,1.75-1.5S31.69,113.45,31.69,114.45Z" transform="translate(-1.19 -0.45)" fill="#5a5a5a"/><path d="M31.69,85v15c0,1-.59,1.5-1.75,1.5s-1.75-.5-1.75-1.5V85c0-1,.57-1.5,1.75-1.5S31.69,84,31.69,85Z" transform="translate(-1.19 -0.45)" fill="#5a5a5a"/><path d="M31.69,55.45v15c0,1.34-.59,2-1.75,2s-1.75-.66-1.75-2v-15c0-1,.57-1.5,1.75-1.5S31.69,54.45,31.69,55.45Z" transform="translate(-1.19 -0.45)" fill="#5a5a5a"/></svg>