<svg id="Layer_1" data-name="Layer 1" xmlns="http://www.w3.org/2000/svg" viewBox="0 0 212.32 233.84"><path d="M202.12,164.57a23.82,23.82,0,0,1,5.75,17,22,22,0,0,1-8,16q-37,32.51-84,32.5a111,111,0,0,1-46.5-10,103.48,103.48,0,0,1-45-38.5q-18-28-18-66,0-37.5,16.5-63.5a91.91,91.91,0,0,1,38.5-34.5q23-11,51-11a130.3,130.3,0,0,1,16,1q39,4.5,65,25.5a22.11,22.11,0,0,1,8.5,15.5,23.28,23.28,0,0,1-5,17.25,22.16,22.16,0,0,1-16,8.75,22.45,22.45,0,0,1-17-5q-15.51-12.49-41-15.5-23.5-2.49-41,6a46.18,46.18,0,0,0-19.5,17q-9,15-9,38.5,0,24,10.5,40.5a55.17,55.17,0,0,0,25,21q17.49,8.51,38,5,23.49-3,42-19.5a23.29,23.29,0,0,1,17-6A21.7,21.7,0,0,1,202.12,164.57Zm-26.25,33,8.5-17.5-19,3.5,4,5.5a63.54,63.54,0,0,1-10.5,5.5,2,2,0,0,0-1,2v.5q1,1.5,1.5,1.5a1.43,1.43,0,0,0,1-.5q5-2.49,11-6Zm2.75-146.5q3.24-4.5-1.25-7.5c-2.34-1.66-4.5-1.66-6.5,0q-6.51-3.49-12-6c-.67-.66-1.5-.33-2.5,1v1.5c.33.34.66.67,1,1a117.79,117.79,0,0,1,11.5,5.5q-1,4,2,6Q175.37,55.57,178.62,51.07Zm-32.25,152.5a1.82,1.82,0,0,0,1.5-2.5c-.34-1.33-1.17-1.66-2.5-1q-6.51,2-13.5,3.5h-.5a1.33,1.33,0,0,0-1.5,1.5v.5a2,2,0,0,0,2,1.5A124.73,124.73,0,0,0,146.37,203.57Zm0-168.5v-.5a2,2,0,0,0-1.5-2,118.11,118.11,0,0,0-14.5-3c-1.34-.33-2,.17-2,1.5a1.81,1.81,0,0,0,1.5,2.5,107.24,107.24,0,0,1,14,2.5l1,.5-.5-.5A2,2,0,0,0,146.37,35.07Zm-27.5,171.5a1.77,1.77,0,0,0-2-2h-.5a88.21,88.21,0,0,1-13.5-1,1.82,1.82,0,0,0-2.5,1.5v.5c0,1,.66,1.5,2,1.5a62.16,62.16,0,0,0,14,1.5h.5A1.77,1.77,0,0,0,118.87,206.57Zm-1.5-176.5a1.77,1.77,0,0,0-2-2h-.5a128.5,128.5,0,0,0-14.5,1,1.44,1.44,0,0,0-1,.5,2,2,0,0,0-.5,1.5,2,2,0,0,0,2,1.5q5-.49,12-.5h2.5A1.77,1.77,0,0,0,117.37,30.07Zm-27.5,172.5a1.4,1.4,0,0,0-1-2,55.82,55.82,0,0,1-13.5-6c-1.34-.33-2.17,0-2.5,1v1a1.59,1.59,0,0,0,1,1.5,87,87,0,0,0,13.5,5.5,1.4,1.4,0,0,0,1,.5Q89.36,204.07,89.87,202.57Zm-1.5-169a.44.44,0,0,0-.5-.5c0-1-.67-1.5-2-1.5a81.67,81.67,0,0,0-14,5.5c-.67,0-1,.17-1,.5q-.51,1,0,1.5a1.59,1.59,0,0,0,1.5,1h1q6-2.49,13.5-5A1.33,1.33,0,0,0,88.37,33.57Zm-24.5,156a1.6,1.6,0,0,0-.5-2.5,97.51,97.51,0,0,1-10.5-10c-.67-.66-1.5-.66-2.5,0a1.81,1.81,0,0,0,0,2.5,108.91,108.91,0,0,0,11,10.5h1A2,2,0,0,0,63.87,189.57Zm-2-143.5a3.93,3.93,0,0,0-.5-1.5c-.67-.66-1.5-.66-2.5,0a53.23,53.23,0,0,0-11,10,2,2,0,0,0-.5,1.5,1.4,1.4,0,0,0,.5,1l1,.5a2,2,0,0,0,1.5-.5,69.6,69.6,0,0,1,10.5-9.5A1.61,1.61,0,0,0,61.87,46.07Zm-18,122a1.6,1.6,0,0,0,.5-2.5,110,110,0,0,1-6-13,1.83,1.83,0,0,0-3.5,1h-.5l.5.5a94.36,94.36,0,0,0,6.5,13.5,1.59,1.59,0,0,0,1.5,1A1.43,1.43,0,0,0,43.87,168.07Zm-1.5-99.5v-.5a1.83,1.83,0,0,0-3.5-1q-3.51,7-6,13.5a1.81,1.81,0,0,0,1.5,2.5h.5a1.33,1.33,0,0,0,1.5-1.5A81.37,81.37,0,0,1,42.37,68.57Zm-9.5,72.5a1.4,1.4,0,0,0,1-2,100.68,100.68,0,0,1-2-14.5c0-1-.67-1.5-2-1.5a1.33,1.33,0,0,0-1.5,1.5v.5a100.68,100.68,0,0,0,2,14.5,2,2,0,0,0,2,1.5Zm0-45.5h.5a3,3,0,0,0-2-2,2,2,0,0,0-2,1.5q-1,8-1.5,15a2.35,2.35,0,0,0,.5,1.25,1.68,1.68,0,0,0,1.5.75c1,0,1.5-.66,1.5-2Q32.36,100.57,32.87,95.57Z" transform="translate(-0.87 -1.23)" fill="#fbea23"/><path d="M206.12,161.07a28.75,28.75,0,0,1-2.75,40.5q-38.51,33.51-87.5,33.5a123.82,123.82,0,0,1-49-10,108.77,108.77,0,0,1-47-40.5q-19-29.49-19-69,0-39,17.5-66.5,14.49-23.49,41-36,31-15,69.5-11,40.5,5,67.5,26.5a27.59,27.59,0,0,1,10.75,19.5,27.9,27.9,0,0,1-6.25,21.25,27.65,27.65,0,0,1-19.25,10.5,28.26,28.26,0,0,1-21.25-6.25q-14-11.49-38-14-22-2.49-38,5a43.82,43.82,0,0,0-17.5,15.5q-8.51,13.5-8.5,35.5t10,37.5a53,53,0,0,0,22.5,19.5q16,7,35,4.5a78.74,78.74,0,0,0,39.5-18.5,28.74,28.74,0,0,1,21-7.5A28.21,28.21,0,0,1,206.12,161.07Zm1.75,20.5a23.82,23.82,0,0,0-5.75-17,21.7,21.7,0,0,0-16.25-8,23.29,23.29,0,0,0-17,6q-18.51,16.5-42,19.5-20.5,3.51-38-5a55.17,55.17,0,0,1-25-21q-10.5-16.5-10.5-40.5,0-23.49,9-38.5a46.18,46.18,0,0,1,19.5-17q17.49-8.49,41-6,25.5,3,41,15.5a22.45,22.45,0,0,0,17,5,22.16,22.16,0,0,0,16-8.75,23.28,23.28,0,0,0,5-17.25,22.11,22.11,0,0,0-8.5-15.5q-26-21-65-25.5a130.3,130.3,0,0,0-16-1q-28,0-51,11a91.91,91.91,0,0,0-38.5,34.5q-16.5,26-16.5,63.5,0,38,18,66a103.48,103.48,0,0,0,45,38.5,111,111,0,0,0,46.5,10q47,0,84-32.5A22,22,0,0,0,207.87,181.57Z" transform="translate(-0.87 -1.23)" fill="#1d1d1b"/><path d="M184.37,180.07l-8.5,17.5-4.5-5.5q-6,3.51-11,6a1.43,1.43,0,0,1-1,.5q-.51,0-1.5-1.5v-.5a2,2,0,0,1,1-2,63.54,63.54,0,0,0,10.5-5.5l-4-5.5Z" transform="translate(-0.87 -1.23)" fill="#5a5a5a"/><path d="M177.37,43.57q4.5,3,1.25,7.5t-7.75,1.5q-3-2-2-6a117.79,117.79,0,0,0-11.5-5.5c-.34-.33-.67-.66-1-1v-1.5c1-1.33,1.83-1.66,2.5-1q5.49,2.51,12,6C172.87,41.91,175,41.91,177.37,43.57Z" transform="translate(-0.87 -1.23)" fill="#5a5a5a"/><path d="M147.87,201.07a1.82,1.82,0,0,1-1.5,2.5,124.73,124.73,0,0,1-14.5,3.5,2,2,0,0,1-2-1.5v-.5a1.33,1.33,0,0,1,1.5-1.5h.5q7-1.5,13.5-3.5C146.7,199.41,147.53,199.74,147.87,201.07Z" transform="translate(-0.87 -1.23)" fill="#5a5a5a"/><path d="M146.37,34.57v.5a2,2,0,0,1-2,1l.5.5-1-.5a107.24,107.24,0,0,0-14-2.5,1.81,1.81,0,0,1-1.5-2.5c0-1.33.66-1.83,2-1.5a118.11,118.11,0,0,1,14.5,3A2,2,0,0,1,146.37,34.57Z" transform="translate(-0.87 -1.23)" fill="#5a5a5a"/><path d="M116.87,204.57a2,2,0,0,1,0,4h-.5a62.16,62.16,0,0,1-14-1.5c-1.34,0-2-.5-2-1.5v-.5a1.82,1.82,0,0,1,2.5-1.5,88.21,88.21,0,0,0,13.5,1Z" transform="translate(-0.87 -1.23)" fill="#5a5a5a"/><path d="M115.37,28.07a1.77,1.77,0,0,1,2,2,1.77,1.77,0,0,1-2,2h-2.5q-7,0-12,.5a2,2,0,0,1-2-1.5,2,2,0,0,1,.5-1.5,1.44,1.44,0,0,1,1-.5,128.5,128.5,0,0,1,14.5-1Z" transform="translate(-0.87 -1.23)" fill="#5a5a5a"/><path d="M88.87,200.57a1.4,1.4,0,0,1,1,2q-.51,1.5-1.5,1.5a1.4,1.4,0,0,1-1-.5,87,87,0,0,1-13.5-5.5,1.59,1.59,0,0,1-1-1.5v-1c.33-1,1.16-1.33,2.5-1A55.82,55.82,0,0,0,88.87,200.57Z" transform="translate(-0.87 -1.23)" fill="#5a5a5a"/><path d="M87.87,33.07a.44.44,0,0,1,.5.5,1.33,1.33,0,0,1-1.5,1.5q-7.5,2.51-13.5,5h-1a1.59,1.59,0,0,1-1.5-1q-.51-.49,0-1.5c0-.33.33-.5,1-.5a81.67,81.67,0,0,1,14-5.5C87.2,31.57,87.87,32.07,87.87,33.07Z" transform="translate(-0.87 -1.23)" fill="#5a5a5a"/><path d="M61.37,44.57a3.93,3.93,0,0,1,.5,1.5,1.61,1.61,0,0,1-1,1.5,69.6,69.6,0,0,0-10.5,9.5,2,2,0,0,1-1.5.5l-1-.5a1.4,1.4,0,0,1-.5-1,2,2,0,0,1,.5-1.5,53.23,53.23,0,0,1,11-10C59.87,43.91,60.7,43.91,61.37,44.57Z" transform="translate(-0.87 -1.23)" fill="#5a5a5a"/><path d="M50.37,177.07c1-.66,1.83-.66,2.5,0a97.51,97.51,0,0,0,10.5,10,1.6,1.6,0,0,1,.5,2.5,2,2,0,0,1-1.5.5h-1a108.91,108.91,0,0,1-11-10.5,1.81,1.81,0,0,1,0-2.5Z" transform="translate(-0.87 -1.23)" fill="#5a5a5a"/><path d="M44.37,165.57a1.6,1.6,0,0,1-.5,2.5,1.43,1.43,0,0,1-1,.5,1.59,1.59,0,0,1-1.5-1,94.36,94.36,0,0,1-6.5-13.5l-.5-.5h.5a1.83,1.83,0,0,1,3.5-1A110,110,0,0,0,44.37,165.57Z" transform="translate(-0.87 -1.23)" fill="#5a5a5a"/><path d="M42.37,68.07v.5a81.37,81.37,0,0,0-6,13,1.33,1.33,0,0,1-1.5,1.5h-.5a1.81,1.81,0,0,1-1.5-2.5q2.49-6.5,6-13.5a1.83,1.83,0,0,1,3.5,1Z" transform="translate(-0.87 -1.23)" fill="#5a5a5a"/><path d="M33.87,139.07a1.4,1.4,0,0,1-1,2h-.5a2,2,0,0,1-2-1.5,100.68,100.68,0,0,1-2-14.5v-.5a1.33,1.33,0,0,1,1.5-1.5c1.33,0,2,.5,2,1.5A100.68,100.68,0,0,0,33.87,139.07Z" transform="translate(-0.87 -1.23)" fill="#5a5a5a"/><path d="M33.37,95.57h-.5q-.51,5-1.5,14.5c0,1.34-.5,2-1.5,2a1.68,1.68,0,0,1-1.5-.75,2.35,2.35,0,0,1-.5-1.25q.49-7,1.5-15a2,2,0,0,1,2-1.5A3,3,0,0,1,33.37,95.57Z" transform="translate(-0.87 -1.23)" fill="#5a5a5a"/></svg>