<svg id="Layer_1" data-name="Layer 1" xmlns="http://www.w3.org/2000/svg" viewBox="0 0 217 361.5"><path d="M212.85,29.63v304.5a23.44,23.44,0,0,1-6.5,16.5,24.83,24.83,0,0,1-33.5,0,15.5,15.5,0,0,1-2-2.5,2,2,0,0,0-2-1,1.44,1.44,0,0,0-1,.5q-41.5,15-85.5-1-36.51-13.5-56.5-42-19-27-19-61.5,0-33,13.5-57.5a94.84,94.84,0,0,1,33-34q25.5-16,61-17a170.58,170.58,0,0,1,48.5,5,4.06,4.06,0,0,0,2.5-.75,2.18,2.18,0,0,0,1-1.75V29.63a23.43,23.43,0,0,1,6.5-16.5,24.83,24.83,0,0,1,33.5,0A23.48,23.48,0,0,1,212.85,29.63Zm-23,315,8.5-17.5h-7v-5.5a1.77,1.77,0,0,0-2-2c-1,0-1.5.67-1.5,2v5.5h-7Zm1.5-305a4.73,4.73,0,0,0,4-5,5.29,5.29,0,0,0-1.75-3.75,5.54,5.54,0,0,0-4-1.75,4.76,4.76,0,0,0-3.75,1.75,5.68,5.68,0,0,0-1.5,3.75c0,2.67,1.16,4.34,3.5,5v2c0,1.34.5,2,1.5,2a1.77,1.77,0,0,0,2-2Zm0,267v-14.5a1.77,1.77,0,0,0-2-2c-1,0-1.5.67-1.5,2v14.5c0,1.34.5,2,1.5,2A1.77,1.77,0,0,0,191.35,306.63Zm0-29.5v-14.5a1.77,1.77,0,0,0-2-2c-1,0-1.5.67-1.5,2v14.5c0,1.34.5,2,1.5,2A1.77,1.77,0,0,0,191.35,277.13Zm0-29.5v-14.5a1.77,1.77,0,0,0-2-2c-1,0-1.5.67-1.5,2v14.5c0,1.34.5,2,1.5,2A1.77,1.77,0,0,0,191.35,247.63Zm0-29v-15a1.77,1.77,0,0,0-2-2c-1,0-1.5.67-1.5,2v15a1.33,1.33,0,0,0,1.5,1.5C190.68,220.13,191.35,219.63,191.35,218.63Zm0-29.5v-15c0-1-.67-1.5-2-1.5a1.33,1.33,0,0,0-1.5,1.5v15a1.33,1.33,0,0,0,1.5,1.5C190.68,190.63,191.35,190.13,191.35,189.13Zm0-29.5v-14.5a1.77,1.77,0,0,0-2-2c-1,0-1.5.67-1.5,2v14.5a1.33,1.33,0,0,0,1.5,1.5C190.68,161.13,191.35,160.63,191.35,159.63Zm0-29.5v-15c0-1-.67-1.5-2-1.5a1.33,1.33,0,0,0-1.5,1.5v15a1.33,1.33,0,0,0,1.5,1.5C190.68,131.63,191.35,131.13,191.35,130.13Zm0-29.5V86.13a1.77,1.77,0,0,0-2-2c-1,0-1.5.67-1.5,2v14.5c0,1.34.5,2,1.5,2A1.77,1.77,0,0,0,191.35,100.63Zm0-29.5V56.63a1.77,1.77,0,0,0-2-2c-1,0-1.5.67-1.5,2v14.5c0,1.34.5,2,1.5,2A1.77,1.77,0,0,0,191.35,71.13Zm-14.5,256.5,8.5-17.5-19.5,4,4,5a17,17,0,0,1-4.5,2,2,2,0,0,0-1,2v.5q1,1.5,1.5,1.5a1.43,1.43,0,0,0,1-.5q1-.5,5-3Zm6-157q2-5-3-7c-2.34-1-4.5-.5-6.5,1.5q-6-2-12.5-4c-1-.33-1.67.17-2,1.5-.34,1,.16,1.67,1.5,2q5.49,1.5,12,4c0,2.67,1.16,4.34,3.5,5Q180.85,175.64,182.85,170.63Zm-16.5,123.5v-103a2.37,2.37,0,0,0-2-2.5,135.06,135.06,0,0,0-48.5-7q-23,.51-38,10a47.46,47.46,0,0,0-16.5,17q-8,13.5-8,34.5a56.77,56.77,0,0,0,11,34.5q11.49,16.5,34,25a85.41,85.41,0,0,0,29,5,65.26,65.26,0,0,0,18.5-2.5,45.73,45.73,0,0,0,19.5-9A2,2,0,0,0,166.35,294.13Zm-12.5,35q.5-1,0-1.5c0-1.33-.67-1.83-2-1.5a77.1,77.1,0,0,1-14.5,2.5,2,2,0,0,0-1.5,2v.5a2,2,0,0,0,2,1.5l.5-.5a56.42,56.42,0,0,0,14.5-2.5C153.51,329.63,153.85,329.47,153.85,329.13Zm-6-169a2,2,0,0,0-1.5-2q-7-1-14.5-1.5c-1.34-.33-2,.17-2,1.5-.34,1,.16,1.67,1.5,2q7.5.51,14.5,1.5a.44.44,0,0,0,.5.5C147.35,162.13,147.85,161.47,147.85,160.13Zm-23,171a2,2,0,0,0-1.5-2,138,138,0,0,1-14.5-1.5c-1.34-.33-2,.17-2,1.5v.5a1.59,1.59,0,0,0,1,1.5h.5a100.68,100.68,0,0,0,14.5,2A1.77,1.77,0,0,0,124.85,331.13Zm-6-173.5c0-1-.67-1.5-2-1.5q-8,.51-15,1l-1,1a2,2,0,0,0-.5,1.5c0,.67.66,1,2,1q10-1,14.5-1A1.77,1.77,0,0,0,118.85,157.63Zm-23,169c.66-1.33.33-2.16-1-2.5a66.79,66.79,0,0,1-13.5-5.5,2,2,0,0,0-2.5,1v1a1.59,1.59,0,0,0,1,1.5q6,2.5,14,5.5h.5C95.35,327.63,95.85,327.3,95.85,326.63Zm-6-164.5v-.5a1.83,1.83,0,0,0-2.5-1.5q-8,2.51-14,5a5.8,5.8,0,0,0-1,1.5v1.5a2.85,2.85,0,0,0,2,.5h.5a119.63,119.63,0,0,1,13.5-5Q89.34,163.63,89.85,162.13Zm-20.5,152a1.6,1.6,0,0,0-.5-2.5,95.54,95.54,0,0,1-11.5-9c-.67-.66-1.5-.66-2.5,0a1.81,1.81,0,0,0,0,2.5q6.49,5.5,12,9.5a1.4,1.4,0,0,0,1,.5A1.61,1.61,0,0,0,69.35,314.13Zm-6-140a1.47,1.47,0,0,0-.5-1,1.6,1.6,0,0,0-2.5-.5,66.89,66.89,0,0,0-11.5,10,2,2,0,0,0-.5,1.5c0,.34.33.67,1,1,0,.34.33.5,1,.5a2,2,0,0,0,1.5-.5,52.28,52.28,0,0,1,10.5-9A2,2,0,0,0,63.35,174.13Zm-15,119a1.47,1.47,0,0,0-.5-1,103,103,0,0,1-7.5-12.5,1.6,1.6,0,0,0-2.5-.5c-.34,0-.67.5-1,1.5a1.4,1.4,0,0,0,.5,1,55.78,55.78,0,0,0,7.5,12.5c.66.67,1.16,1,1.5,1a1.43,1.43,0,0,0,1-.5A1.61,1.61,0,0,0,48.35,293.13Zm-5-97.5a1,1,0,0,0-.5-1.5,1.6,1.6,0,0,0-2.5.5v.5a71.54,71.54,0,0,0-6.5,13.5,1.12,1.12,0,0,0-.25,1.25,1.15,1.15,0,0,0,1.25.75.44.44,0,0,1,.5.5h.5q1,0,1.5-1.5a111.52,111.52,0,0,1,6-13Zm-9.5,73c1.33-.33,1.83-1,1.5-2a102.57,102.57,0,0,1-3-14,1.77,1.77,0,0,0-2-2,3.3,3.3,0,0,0-1.5,1.5v.5a97.56,97.56,0,0,0,3,15c0,.67.5,1,1.5,1Zm0-45v-.5q-.51-1.5-1.5-1.5c-1.34-.66-2.17-.16-2.5,1.5q-1,7.5-1.5,15a1.4,1.4,0,0,0,.5,1,2,2,0,0,0,1.5.5c1.33,0,2-.5,2-1.5A69,69,0,0,1,33.85,223.63Z" transform="translate(-1.35 -1.13)" fill="#fbea23"/><path d="M218.35,29.63v304.5a27.15,27.15,0,0,1-8.5,20.25,28.08,28.08,0,0,1-20.25,8.25,28.48,28.48,0,0,1-20.25-8q-.51-.5-1.5-1.5-42.51,15-87.5-1.5-38-14-59-44-20-28.5-20-64.5,0-34.5,14.5-60a96.58,96.58,0,0,1,34.5-36q27-16.5,64-18a173.77,173.77,0,0,1,46.5,4.5v-104a27.37,27.37,0,0,1,8.5-20,28.37,28.37,0,0,1,40.5,0A27.41,27.41,0,0,1,218.35,29.63Zm-5.5,304.5V29.63a23.48,23.48,0,0,0-6.5-16.5,24.83,24.83,0,0,0-33.5,0,23.43,23.43,0,0,0-6.5,16.5v107.5a2.18,2.18,0,0,1-1,1.75,4.06,4.06,0,0,1-2.5.75,170.58,170.58,0,0,0-48.5-5q-35.5,1-61,17a94.84,94.84,0,0,0-33,34q-13.5,24.51-13.5,57.5,0,34.5,19,61.5,20,28.5,56.5,42,44,16,85.5,1a1.44,1.44,0,0,1,1-.5,2,2,0,0,1,2,1,15.5,15.5,0,0,0,2,2.5,24.83,24.83,0,0,0,33.5,0A23.44,23.44,0,0,0,212.85,334.13Z" transform="translate(-1.35 -1.13)" fill="#1d1d1b"/><path d="M198.35,327.13l-8.5,17.5-9-17.5h7v-5.5c0-1.33.5-2,1.5-2a1.77,1.77,0,0,1,2,2v5.5Z" transform="translate(-1.35 -1.13)" fill="#5a5a5a"/><path d="M195.35,34.63a4.73,4.73,0,0,1-4,5v2a1.77,1.77,0,0,1-2,2c-1,0-1.5-.66-1.5-2v-2c-2.34-.66-3.5-2.33-3.5-5a5.68,5.68,0,0,1,1.5-3.75,4.76,4.76,0,0,1,3.75-1.75,5.54,5.54,0,0,1,4,1.75A5.29,5.29,0,0,1,195.35,34.63Z" transform="translate(-1.35 -1.13)" fill="#5a5a5a"/><path d="M191.35,292.13v14.5a1.77,1.77,0,0,1-2,2c-1,0-1.5-.66-1.5-2v-14.5c0-1.33.5-2,1.5-2A1.77,1.77,0,0,1,191.35,292.13Z" transform="translate(-1.35 -1.13)" fill="#5a5a5a"/><path d="M191.35,262.63v14.5a1.77,1.77,0,0,1-2,2c-1,0-1.5-.66-1.5-2v-14.5c0-1.33.5-2,1.5-2A1.77,1.77,0,0,1,191.35,262.63Z" transform="translate(-1.35 -1.13)" fill="#5a5a5a"/><path d="M191.35,233.13v14.5a1.77,1.77,0,0,1-2,2c-1,0-1.5-.66-1.5-2v-14.5c0-1.33.5-2,1.5-2A1.77,1.77,0,0,1,191.35,233.13Z" transform="translate(-1.35 -1.13)" fill="#5a5a5a"/><path d="M191.35,203.63v15c0,1-.67,1.5-2,1.5a1.33,1.33,0,0,1-1.5-1.5v-15c0-1.33.5-2,1.5-2A1.77,1.77,0,0,1,191.35,203.63Z" transform="translate(-1.35 -1.13)" fill="#5a5a5a"/><path d="M191.35,174.13v15c0,1-.67,1.5-2,1.5a1.33,1.33,0,0,1-1.5-1.5v-15a1.33,1.33,0,0,1,1.5-1.5C190.68,172.63,191.35,173.13,191.35,174.13Z" transform="translate(-1.35 -1.13)" fill="#5a5a5a"/><path d="M191.35,145.13v14.5c0,1-.67,1.5-2,1.5a1.33,1.33,0,0,1-1.5-1.5v-14.5c0-1.33.5-2,1.5-2A1.77,1.77,0,0,1,191.35,145.13Z" transform="translate(-1.35 -1.13)" fill="#5a5a5a"/><path d="M191.35,115.13v15c0,1-.67,1.5-2,1.5a1.33,1.33,0,0,1-1.5-1.5v-15a1.33,1.33,0,0,1,1.5-1.5C190.68,113.63,191.35,114.13,191.35,115.13Z" transform="translate(-1.35 -1.13)" fill="#5a5a5a"/><path d="M191.35,86.13v14.5a1.77,1.77,0,0,1-2,2c-1,0-1.5-.66-1.5-2V86.13c0-1.33.5-2,1.5-2A1.77,1.77,0,0,1,191.35,86.13Z" transform="translate(-1.35 -1.13)" fill="#5a5a5a"/><path d="M191.35,56.63v14.5a1.77,1.77,0,0,1-2,2c-1,0-1.5-.66-1.5-2V56.63c0-1.33.5-2,1.5-2A1.77,1.77,0,0,1,191.35,56.63Z" transform="translate(-1.35 -1.13)" fill="#5a5a5a"/><path d="M185.35,310.13l-8.5,17.5-5-6q-4,2.5-5,3a1.43,1.43,0,0,1-1,.5q-.51,0-1.5-1.5v-.5a2,2,0,0,1,1-2,17,17,0,0,0,4.5-2l-4-5Z" transform="translate(-1.35 -1.13)" fill="#5a5a5a"/><path d="M179.85,163.63q5,2,3,7t-7,3c-2.34-.66-3.5-2.33-3.5-5q-6.51-2.49-12-4c-1.34-.33-1.84-1-1.5-2,.33-1.33,1-1.83,2-1.5q6.5,2,12.5,4C175.35,163.13,177.51,162.63,179.85,163.63Z" transform="translate(-1.35 -1.13)" fill="#5a5a5a"/><path d="M166.35,191.13v103a2,2,0,0,1-1,2,45.73,45.73,0,0,1-19.5,9,65.26,65.26,0,0,1-18.5,2.5,85.41,85.41,0,0,1-29-5q-22.5-8.49-34-25a56.77,56.77,0,0,1-11-34.5q0-21,8-34.5a47.46,47.46,0,0,1,16.5-17q15-9.49,38-10a135.06,135.06,0,0,1,48.5,7A2.37,2.37,0,0,1,166.35,191.13Zm-5.5,101.5v-99.5a130.45,130.45,0,0,0-40.5-6.5h-4q-22,1-36,9.5a47.79,47.79,0,0,0-14.5,15q-7,12.51-7,32a54.75,54.75,0,0,0,9.5,31.5q11,15.51,31.5,23,23.49,8.5,45,2.5A50.27,50.27,0,0,0,160.85,292.63Z" transform="translate(-1.35 -1.13)" fill="#1d1d1b"/><path d="M153.85,327.63q.5.51,0,1.5c0,.34-.34.5-1,.5a56.42,56.42,0,0,1-14.5,2.5l-.5.5a2,2,0,0,1-2-1.5v-.5a2,2,0,0,1,1.5-2,77.1,77.1,0,0,0,14.5-2.5C153.18,325.8,153.85,326.3,153.85,327.63Z" transform="translate(-1.35 -1.13)" fill="#5a5a5a"/><path d="M146.35,158.13a2,2,0,0,1,1.5,2c0,1.34-.5,2-1.5,2a.44.44,0,0,1-.5-.5q-7-1-14.5-1.5c-1.34-.33-1.84-1-1.5-2,0-1.33.66-1.83,2-1.5Q139.35,157.14,146.35,158.13Z" transform="translate(-1.35 -1.13)" fill="#5a5a5a"/><path d="M123.35,329.13a2,2,0,0,1,1.5,2,1.77,1.77,0,0,1-2,2,100.68,100.68,0,0,1-14.5-2h-.5a1.59,1.59,0,0,1-1-1.5v-.5c0-1.33.66-1.83,2-1.5A138,138,0,0,0,123.35,329.13Z" transform="translate(-1.35 -1.13)" fill="#5a5a5a"/><path d="M116.85,156.13c1.33,0,2,.5,2,1.5a1.77,1.77,0,0,1-2,2q-4.5,0-14.5,1c-1.34,0-2-.33-2-1a2,2,0,0,1,.5-1.5l1-1Q108.84,156.64,116.85,156.13Z" transform="translate(-1.35 -1.13)" fill="#5a5a5a"/><path d="M94.85,324.13c1.33.34,1.66,1.17,1,2.5,0,.67-.5,1-1.5,1h-.5q-8-3-14-5.5a1.59,1.59,0,0,1-1-1.5v-1a2,2,0,0,1,2.5-1A66.79,66.79,0,0,0,94.85,324.13Z" transform="translate(-1.35 -1.13)" fill="#5a5a5a"/><path d="M89.85,161.63v.5q-.51,1.5-1.5,1.5a119.63,119.63,0,0,0-13.5,5h-.5a2.85,2.85,0,0,1-2-.5v-1.5a5.8,5.8,0,0,1,1-1.5q6-2.49,14-5A1.83,1.83,0,0,1,89.85,161.63Z" transform="translate(-1.35 -1.13)" fill="#5a5a5a"/><path d="M62.85,173.13a1.47,1.47,0,0,1,.5,1,2,2,0,0,1-1,2,52.28,52.28,0,0,0-10.5,9,2,2,0,0,1-1.5.5c-.67,0-1-.16-1-.5-.67-.33-1-.66-1-1a2,2,0,0,1,.5-1.5,66.89,66.89,0,0,1,11.5-10A1.6,1.6,0,0,1,62.85,173.13Z" transform="translate(-1.35 -1.13)" fill="#5a5a5a"/><path d="M57.35,302.63a95.54,95.54,0,0,0,11.5,9,2,2,0,0,1-1,3.5,1.4,1.4,0,0,1-1-.5q-5.5-4-12-9.5a1.81,1.81,0,0,1,0-2.5C55.85,302,56.68,302,57.35,302.63Z" transform="translate(-1.35 -1.13)" fill="#5a5a5a"/><path d="M47.85,292.13a1.47,1.47,0,0,1,.5,1,1.61,1.61,0,0,1-1,1.5,1.43,1.43,0,0,1-1,.5c-.34,0-.84-.33-1.5-1a55.78,55.78,0,0,1-7.5-12.5,1.4,1.4,0,0,1-.5-1c.33-1,.66-1.5,1-1.5a1.6,1.6,0,0,1,2.5.5A103,103,0,0,0,47.85,292.13Z" transform="translate(-1.35 -1.13)" fill="#5a5a5a"/><path d="M42.85,194.13a1,1,0,0,1,.5,1.5v1a111.52,111.52,0,0,0-6,13q-.51,1.5-1.5,1.5h-.5a.44.44,0,0,0-.5-.5,1.15,1.15,0,0,1-1.25-.75,1.12,1.12,0,0,1,.25-1.25,71.54,71.54,0,0,1,6.5-13.5v-.5A1.6,1.6,0,0,1,42.85,194.13Z" transform="translate(-1.35 -1.13)" fill="#5a5a5a"/><path d="M35.35,266.63c.33,1-.17,1.67-1.5,2h-.5c-1,0-1.5-.33-1.5-1a97.56,97.56,0,0,1-3-15v-.5a3.3,3.3,0,0,1,1.5-1.5,1.77,1.77,0,0,1,2,2A102.57,102.57,0,0,0,35.35,266.63Z" transform="translate(-1.35 -1.13)" fill="#5a5a5a"/><path d="M33.85,223.13v.5a69,69,0,0,0-1.5,14.5c0,1-.67,1.5-2,1.5a2,2,0,0,1-1.5-.5,1.4,1.4,0,0,1-.5-1q.49-7.5,1.5-15c.33-1.66,1.16-2.16,2.5-1.5Q33.34,221.63,33.85,223.13Z" transform="translate(-1.35 -1.13)" fill="#5a5a5a"/></svg>