<svg id="Layer_1" data-name="Layer 1" xmlns="http://www.w3.org/2000/svg" viewBox="0 0 225.5 233.5"><path d="M188.65,106.36l-17.5-8.5v7h-10c-1.34,0-2,.58-2,1.75s.66,1.75,2,1.75h10v7Zm8.5-4.75q-5.51-.75-6,4.75t4.75,6.25q5.25.75,6-4.75T197.15,101.61Zm-166,14.25a105.2,105.2,0,0,1,1-12v-.5c0-1-.67-1.67-2-2a3,3,0,0,0-2,2q-.51,8-.5,12.5v2.5a2,2,0,0,0,2,1.5c1,0,1.5-.67,1.5-2Zm5.25-13.25a5.5,5.5,0,0,0-1.75,4,4.73,4.73,0,0,0,1.75,3.75,5.64,5.64,0,0,0,3.75,1.5,5.49,5.49,0,0,0,5.5-3.5h12.5c1.33,0,2-.58,2-1.75s-.67-1.75-2-1.75H45.65a5.5,5.5,0,0,0-5.5-4A5.22,5.22,0,0,0,36.4,102.61Zm184.75-5.25a64.85,64.85,0,0,1-1,11.5,17.79,17.79,0,0,1-2,8,3.76,3.76,0,0,0-.5,1.5q-2,2.51-4.5,5.5h-.5v.5l-1,.5a29.89,29.89,0,0,1-8.5,4.5,43.51,43.51,0,0,1-7,.5h-139a2.85,2.85,0,0,0-2,1,2.25,2.25,0,0,0-.5,2.5,59.09,59.09,0,0,0,8.5,21,54.73,54.73,0,0,0,24.5,21.5q19,9,41.5,6a84.88,84.88,0,0,0,43.5-19.5,23.63,23.63,0,0,1,8-4.5,20.92,20.92,0,0,1,9-1,22.74,22.74,0,0,1,9,2.75,26,26,0,0,1,7,5.75,21.6,21.6,0,0,1,5.5,17,23.87,23.87,0,0,1-8.5,16q-36.51,31-84.5,31a114.41,114.41,0,0,1-50-11q-28.5-13-44.5-38.5-17.5-27.5-17.5-64,0-27.49,10-49.5a104.59,104.59,0,0,1,25-34q30.49-26.51,75-26.5a121.24,121.24,0,0,1,44.25,8.25,98.57,98.57,0,0,1,35.75,23.25Q221.14,61.86,221.15,97.36Zm-24-6.5a2,2,0,0,0,1.5-2,62.1,62.1,0,0,0-3.5-14.5c-.67-1.33-1.5-1.83-2.5-1.5a5.47,5.47,0,0,0-1,1.5.62.62,0,0,0,0,1,54.19,54.19,0,0,1,3.5,14A2,2,0,0,0,197.15,90.86Zm-9-29v-1h-.5a51.59,51.59,0,0,0-10-11c-.67-1-1.5-1-2.5,0a.62.62,0,0,0,0,1,2,2,0,0,0,.5,1.5,66.49,66.49,0,0,1,9.5,10.5,1.59,1.59,0,0,0,1.5,1,1.47,1.47,0,0,0,1-.5A2,2,0,0,0,188.15,61.86Zm-9.5,136,9-17.5-19.5,3.5,4,5c-2.67,1.67-4.5,2.83-5.5,3.5a2,2,0,0,0-.5,1.5v1a2,2,0,0,0,1.5.5h1a31.31,31.31,0,0,0,5.5-3Zm-9-116c.66-1,.66-1.83,0-2.5a36.85,36.85,0,0,0-7-9.5q-17-17-46.5-17-27,0-44,15a58.79,58.79,0,0,0-9.5,11,2.81,2.81,0,0,0-.25,3,2.4,2.4,0,0,0,2.25,1.5h102.5A2.94,2.94,0,0,0,169.65,81.86Zm-3-38.5v-1a1.61,1.61,0,0,0-1-1.5,72.16,72.16,0,0,0-13.5-6.5c-1-.67-1.67-.33-2,1-.67,1-.34,1.83,1,2.5a60.46,60.46,0,0,1,12.5,6l1,.5A2.89,2.89,0,0,0,166.65,43.36Zm-12,158a1.83,1.83,0,0,0,1.5-2.5,2,2,0,0,0-2.5-1,126.74,126.74,0,0,1-14,4,1.33,1.33,0,0,0-1.5,1.5v.5a2,2,0,0,0,2,1.5h.5Q148.64,203.37,154.65,201.36Zm-6.5-94.75c0-1.17-.5-1.75-1.5-1.75h-15c-1,0-1.5.58-1.5,1.75s.5,1.75,1.5,1.75h15C147.65,108.36,148.15,107.78,148.15,106.61Zm-8.5-74.75a2,2,0,0,0-1.5-2,132.84,132.84,0,0,0-15-2c-1.34-.33-2,.17-2,1.5a2,2,0,0,0,.5,1.5,2,2,0,0,0,1.5.5,117.18,117.18,0,0,1,14,2h.5A2,2,0,0,0,139.65,31.86Zm-12.5,175q.5-1,0-1.5a1.33,1.33,0,0,0-1.5-1.5,103.74,103.74,0,0,1-14.5,0c-1.34,0-2,.5-2,1.5,0,1.33.5,2,1.5,2h15A3.93,3.93,0,0,0,127.15,206.86Zm-8-100.25c0-1.17-.67-1.75-2-1.75h-14.5c-1.34,0-2,.58-2,1.75s.66,1.75,2,1.75h14.5C118.48,108.36,119.15,107.78,119.15,106.61Zm-9-76.75v-.5c0-1-.67-1.5-2-1.5a101.3,101.3,0,0,0-15,2c-.34.33-.67.67-1,1s-.34.83,0,1.5q.5,1.5,1.5,1.5h.5a69.37,69.37,0,0,1,14.5-2.5A1.33,1.33,0,0,0,110.15,29.86Zm-12,174v-1.5a1.61,1.61,0,0,0-1.5-1,89.56,89.56,0,0,1-13.5-4c-1.34-.67-2.17-.33-2.5,1v.5a2,2,0,0,0,1,2q8.49,3,14.5,4.5A2,2,0,0,0,98.15,203.86Zm-8.5-97.25c0-1.17-.67-1.75-2-1.75H73.15c-1.34,0-2,.58-2,1.75s.66,1.75,2,1.75h14.5C89,108.36,89.65,107.78,89.65,106.61Zm-8-70.25v-1a1.4,1.4,0,0,0-2-1h-.5q-5.5,2.51-13.5,7a1.59,1.59,0,0,0-.5,2.5,2,2,0,0,0,1.5.5h1a78.47,78.47,0,0,1,13-6.5A1.61,1.61,0,0,0,81.65,36.36Zm-11,157a1.6,1.6,0,0,0-.5-2.5,67.91,67.91,0,0,1-11.5-8.5c-1-.67-1.84-.67-2.5,0a2,2,0,0,0-.5,1.5,1.41,1.41,0,0,0,.5,1,110.58,110.58,0,0,0,12,9l1,.5C70.15,194.36,70.65,194,70.65,193.36ZM57.15,51.86a1.61,1.61,0,0,0-1-1.5,1.64,1.64,0,0,0-2-.5l-.5.5a81.64,81.64,0,0,0-10,11q-.51,1,0,1.5a2,2,0,0,0,.5,1.5h1a2.07,2.07,0,0,0,1.5-.5,92.16,92.16,0,0,1,9.5-11C56.48,52.86,56.81,52.53,57.15,51.86Zm-8.5,122.5a2.51,2.51,0,0,0,.5-2.5,92.31,92.31,0,0,1-8-12c-.67-1.33-1.5-1.67-2.5-1a1.59,1.59,0,0,0-1,1.5c0,.67.16,1,.5,1a66.71,66.71,0,0,0,8,12.5,1.59,1.59,0,0,0,1.5,1Zm-9-98.5v-.5a2.91,2.91,0,0,0-1-2,1.63,1.63,0,0,0-2,.5v-.5l-.5,1a58.58,58.58,0,0,0-5,14c-.34,1.33,0,2.17,1,2.5h.5a2,2,0,0,0,2-1.5A92.7,92.7,0,0,1,39.65,75.86Zm-5,73c1.33-.33,1.66-1.17,1-2.5q-1.5-5.51-3-13.5v-.5a2,2,0,0,0-2-1.5c-1.34.33-2,1-2,2a99,99,0,0,0,3.5,14.5,2,2,0,0,0,2,1.5Z" transform="translate(-0.65 -0.86)" fill="#fbea23"/><path d="M226.15,97.36q0,6-.5,12a29,29,0,0,1-3,10,2,2,0,0,0-.5,1.5,31.08,31.08,0,0,1-5,6.5h-.5v.5h-.5v.5a5.7,5.7,0,0,0-1.5,1,28.34,28.34,0,0,1-10,5,31.21,31.21,0,0,1-8.5,1H60.65a66.22,66.22,0,0,0,7,16.5,50.45,50.45,0,0,0,22.5,19q17.49,8.5,38,5.5a76.52,76.52,0,0,0,41-18,32,32,0,0,1,10-5.25,27.67,27.67,0,0,1,11-1.25,31.38,31.38,0,0,1,10.75,3,24.07,24.07,0,0,1,8.75,7,27,27,0,0,1,7,21,26.72,26.72,0,0,1-10.5,19.5q-38,32-88,32a126.72,126.72,0,0,1-52.5-11q-29.51-14-46.5-40.5-18.51-29-18.5-67,0-28.5,10.5-52a106.5,106.5,0,0,1,26.5-35.5Q69.65.87,116.15.86a128.47,128.47,0,0,1,46.25,8.5q22.24,8.5,37.25,24Q226.14,59.87,226.15,97.36Zm-6,11.5a64.85,64.85,0,0,0,1-11.5q0-35.51-25-60A98.57,98.57,0,0,0,160.4,14.11a121.24,121.24,0,0,0-44.25-8.25q-44.5,0-75,26.5a104.59,104.59,0,0,0-25,34q-10,22-10,49.5,0,36.49,17.5,64,16,25.5,44.5,38.5a114.41,114.41,0,0,0,50,11q48,0,84.5-31a23.87,23.87,0,0,0,8.5-16,21.6,21.6,0,0,0-5.5-17,26,26,0,0,0-7-5.75,22.74,22.74,0,0,0-9-2.75,20.92,20.92,0,0,0-9,1,23.63,23.63,0,0,0-8,4.5,84.88,84.88,0,0,1-43.5,19.5q-22.5,3-41.5-6a54.73,54.73,0,0,1-24.5-21.5,59.09,59.09,0,0,1-8.5-21,2.25,2.25,0,0,1,.5-2.5,2.85,2.85,0,0,1,2-1h139a43.51,43.51,0,0,0,7-.5,29.89,29.89,0,0,0,8.5-4.5l1-.5v-.5h.5q2.49-3,4.5-5.5a3.76,3.76,0,0,1,.5-1.5A17.79,17.79,0,0,0,220.15,108.86Z" transform="translate(-0.65 -0.86)" fill="#1d1d1b"/><path d="M197.15,101.61q5.49.75,4.75,6.25t-6,4.75q-5.25-.75-4.75-6.25T197.15,101.61Z" transform="translate(-0.65 -0.86)" fill="#5a5a5a"/><path d="M198.65,88.86a1.77,1.77,0,1,1-3.5.5,54.19,54.19,0,0,0-3.5-14,.62.62,0,0,1,0-1,5.47,5.47,0,0,1,1-1.5c1-.33,1.83.17,2.5,1.5A62.1,62.1,0,0,1,198.65,88.86Z" transform="translate(-0.65 -0.86)" fill="#5a5a5a"/><path d="M188.65,106.36l-17.5,9v-7h-10c-1.34,0-2-.58-2-1.75s.66-1.75,2-1.75h10v-7Z" transform="translate(-0.65 -0.86)" fill="#5a5a5a"/><path d="M188.15,60.86v1a2,2,0,0,1-.5,1.5,1.47,1.47,0,0,1-1,.5,1.59,1.59,0,0,1-1.5-1,66.49,66.49,0,0,0-9.5-10.5,2,2,0,0,1-.5-1.5.62.62,0,0,1,0-1c1-1,1.83-1,2.5,0a51.59,51.59,0,0,1,10,11Z" transform="translate(-0.65 -0.86)" fill="#5a5a5a"/><path d="M187.65,180.36l-9,17.5-4.5-5.5a31.31,31.31,0,0,1-5.5,3h-1a2,2,0,0,1-1.5-.5v-1a2,2,0,0,1,.5-1.5c1-.67,2.83-1.83,5.5-3.5l-4-5Z" transform="translate(-0.65 -0.86)" fill="#5a5a5a"/><path d="M169.65,79.36c.66.67.66,1.5,0,2.5a2.94,2.94,0,0,1-2.5,1.5H64.65a2.4,2.4,0,0,1-2.25-1.5,2.81,2.81,0,0,1,.25-3,58.79,58.79,0,0,1,9.5-11q17-15,44-15,29.49,0,46.5,17A36.85,36.85,0,0,1,169.65,79.36Zm-99.5-1.5h92.5a37.93,37.93,0,0,0-3.5-4q-15.51-15.49-43-15.5-25,0-40.5,13.5C73.65,73.86,71.81,75.86,70.15,77.86Z" transform="translate(-0.65 -0.86)" fill="#1d1d1b"/><path d="M166.65,42.36v1a2.89,2.89,0,0,1-2,1l-1-.5a60.46,60.46,0,0,0-12.5-6c-1.34-.67-1.67-1.5-1-2.5.33-1.33,1-1.67,2-1a72.16,72.16,0,0,1,13.5,6.5A1.61,1.61,0,0,1,166.65,42.36Z" transform="translate(-0.65 -0.86)" fill="#5a5a5a"/><path d="M156.15,198.86a1.83,1.83,0,0,1-1.5,2.5q-6,2-14,4h-.5a2,2,0,0,1-2-1.5v-.5a1.33,1.33,0,0,1,1.5-1.5,126.74,126.74,0,0,0,14-4A2,2,0,0,1,156.15,198.86Z" transform="translate(-0.65 -0.86)" fill="#5a5a5a"/><path d="M146.65,104.86c1,0,1.5.58,1.5,1.75s-.5,1.75-1.5,1.75h-15c-1,0-1.5-.58-1.5-1.75s.5-1.75,1.5-1.75Z" transform="translate(-0.65 -0.86)" fill="#5a5a5a"/><path d="M138.15,29.86a2,2,0,0,1,1.5,2,2,2,0,0,1-2,1.5h-.5a117.18,117.18,0,0,0-14-2,2,2,0,0,1-1.5-.5,2,2,0,0,1-.5-1.5c0-1.33.66-1.83,2-1.5A132.84,132.84,0,0,1,138.15,29.86Z" transform="translate(-0.65 -0.86)" fill="#5a5a5a"/><path d="M127.15,205.36q.5.49,0,1.5a3.93,3.93,0,0,1-1.5.5h-15c-1,0-1.5-.67-1.5-2,0-1,.66-1.5,2-1.5a103.74,103.74,0,0,0,14.5,0A1.33,1.33,0,0,1,127.15,205.36Z" transform="translate(-0.65 -0.86)" fill="#5a5a5a"/><path d="M117.15,104.86c1.33,0,2,.58,2,1.75s-.67,1.75-2,1.75h-14.5c-1.34,0-2-.58-2-1.75s.66-1.75,2-1.75Z" transform="translate(-0.65 -0.86)" fill="#5a5a5a"/><path d="M110.15,29.36v.5a1.33,1.33,0,0,1-1.5,1.5,69.37,69.37,0,0,0-14.5,2.5h-.5q-1,0-1.5-1.5-.51-1,0-1.5c.33-.33.66-.67,1-1a101.3,101.3,0,0,1,15-2C109.48,27.86,110.15,28.36,110.15,29.36Z" transform="translate(-0.65 -0.86)" fill="#5a5a5a"/><path d="M98.15,202.36v1.5a2,2,0,0,1-2,1.5q-6-1.5-14.5-4.5a2,2,0,0,1-1-2v-.5c.33-1.33,1.16-1.67,2.5-1a89.56,89.56,0,0,0,13.5,4A1.61,1.61,0,0,1,98.15,202.36Z" transform="translate(-0.65 -0.86)" fill="#5a5a5a"/><path d="M87.65,104.86c1.33,0,2,.58,2,1.75s-.67,1.75-2,1.75H73.15c-1.34,0-2-.58-2-1.75s.66-1.75,2-1.75Z" transform="translate(-0.65 -0.86)" fill="#5a5a5a"/><path d="M81.65,35.36v1a1.61,1.61,0,0,1-1,1.5,78.47,78.47,0,0,0-13,6.5h-1a2,2,0,0,1-1.5-.5,1.59,1.59,0,0,1,.5-2.5q8-4.5,13.5-7h.5A1.4,1.4,0,0,1,81.65,35.36Z" transform="translate(-0.65 -0.86)" fill="#5a5a5a"/><path d="M70.15,190.86a1.6,1.6,0,0,1,.5,2.5c0,.67-.5,1-1.5,1l-1-.5a110.58,110.58,0,0,1-12-9,1.41,1.41,0,0,1-.5-1,2,2,0,0,1,.5-1.5c.66-.67,1.5-.67,2.5,0A67.91,67.91,0,0,0,70.15,190.86Z" transform="translate(-0.65 -0.86)" fill="#5a5a5a"/><path d="M58.15,104.86c1.33,0,2,.58,2,1.75s-.67,1.75-2,1.75H45.65a5.49,5.49,0,0,1-5.5,3.5,5.64,5.64,0,0,1-3.75-1.5,4.73,4.73,0,0,1-1.75-3.75,5.5,5.5,0,0,1,1.75-4,5.22,5.22,0,0,1,3.75-1.75,5.5,5.5,0,0,1,5.5,4Z" transform="translate(-0.65 -0.86)" fill="#5a5a5a"/><path d="M56.15,50.36a1.61,1.61,0,0,1,1,1.5c-.34.67-.67,1-1,1a92.16,92.16,0,0,0-9.5,11,2.07,2.07,0,0,1-1.5.5h-1a2,2,0,0,1-.5-1.5q-.51-.49,0-1.5a81.64,81.64,0,0,1,10-11l.5-.5A1.64,1.64,0,0,1,56.15,50.36Z" transform="translate(-0.65 -0.86)" fill="#5a5a5a"/><path d="M49.15,171.86a2.51,2.51,0,0,1-.5,2.5l-1,.5a1.59,1.59,0,0,1-1.5-1,66.71,66.71,0,0,1-8-12.5c-.34,0-.5-.33-.5-1a1.59,1.59,0,0,1,1-1.5c1-.67,1.83-.33,2.5,1A92.31,92.31,0,0,0,49.15,171.86Z" transform="translate(-0.65 -0.86)" fill="#5a5a5a"/><path d="M36.15,74.36l.5-1v.5a1.63,1.63,0,0,1,2-.5,2.91,2.91,0,0,1,1,2v.5a92.7,92.7,0,0,0-5,13.5,2,2,0,0,1-2,1.5h-.5c-1-.33-1.34-1.17-1-2.5A58.58,58.58,0,0,1,36.15,74.36Z" transform="translate(-0.65 -0.86)" fill="#5a5a5a"/><path d="M35.65,146.36c.66,1.33.33,2.17-1,2.5h-.5a2,2,0,0,1-2-1.5,99,99,0,0,1-3.5-14.5c0-1,.66-1.67,2-2a2,2,0,0,1,2,1.5v.5Q34.15,140.85,35.65,146.36Z" transform="translate(-0.65 -0.86)" fill="#5a5a5a"/><path d="M32.15,103.36v.5a105.2,105.2,0,0,0-1,12v2c0,1.33-.5,2-1.5,2a2,2,0,0,1-2-1.5v-2.5q0-4.5.5-12.5a3,3,0,0,1,2-2C31.48,101.69,32.15,102.36,32.15,103.36Z" transform="translate(-0.65 -0.86)" fill="#5a5a5a"/></svg>