<svg id="Layer_1" data-name="Layer 1" xmlns="http://www.w3.org/2000/svg" viewBox="0 0 223.3 362"><path d="M200.19,76.49a4.73,4.73,0,0,0-3.75-1.75,6,6,0,0,0-4,1.5A4.73,4.73,0,0,0,190.69,80a6,6,0,0,0,1.5,4,5,5,0,0,0,4,1.75,5.4,5.4,0,0,0,4-1.5,5.09,5.09,0,0,0,1.5-3.75A6,6,0,0,0,200.19,76.49Zm-4-3.25c1.33-.33,1.83-1,1.5-2a55.31,55.31,0,0,0-4-14.5c-.33-1.33-1-1.83-2-1.5-1,.67-1.5,1.33-1.5,2a1.45,1.45,0,0,0,.5,1,61.75,61.75,0,0,1,3.5,13.5,1.33,1.33,0,0,0,1.5,1.5Zm18.5-21.5a81,81,0,0,1,4,34,18.47,18.47,0,0,1-2.25,8.75,24.69,24.69,0,0,1-5.75,7.25,23.63,23.63,0,0,1-8,4.5,20.92,20.92,0,0,1-9,1,24.28,24.28,0,0,1-16-8.25,21.53,21.53,0,0,1-5.5-17.25,39,39,0,0,0-1.5-14.5,17.9,17.9,0,0,0-4-6.5,15.23,15.23,0,0,0-6.5-4.5,24.2,24.2,0,0,0-11-2.5,27.77,27.77,0,0,0-12.5,2.5,15.23,15.23,0,0,0-6.5,4.5q-4.5,4.5-8,13-7.5,19-9.5,58.5a1.28,1.28,0,0,0,.5,1.75,3.32,3.32,0,0,0,2,.75h66a22.31,22.31,0,0,1,16.75,7,23.29,23.29,0,0,1,6.75,16.75,22.44,22.44,0,0,1-6.75,16.5,22.74,22.74,0,0,1-16.75,6.75h-67a2.39,2.39,0,0,0-1.75.75,3.06,3.06,0,0,0-.75,2.25q0,20,.5,58.5,1.5,58,1.5,91.5a22.57,22.57,0,0,1-7,16.5q-6.5,6.5-16.5,6.5t-16.5-6.5a22.57,22.57,0,0,1-7-16.5q0-33-1-91l-.5-5.5q-.5-37-.5-53.5a2.65,2.65,0,0,0-3-3h-32A23,23,0,0,1,13.19,175a22,22,0,0,1-7-16.5,22.85,22.85,0,0,1,7-16.75,22.57,22.57,0,0,1,16.5-7h33a2.78,2.78,0,0,0,3-2.5q2-49,13-75.5,6.5-17.51,18-29a73.61,73.61,0,0,1,21.5-15,84,84,0,0,1,31-5.5,71.8,71.8,0,0,1,29.5,6,66.23,66.23,0,0,1,22.5,15.5A66.54,66.54,0,0,1,214.69,51.74Zm-38.5,115.5,18-9-18-8.5v7h-8c-1,0-1.5.58-1.5,1.75s.5,1.75,1.5,1.75h8Zm10-122.5a1.45,1.45,0,0,0-.5-1,45.72,45.72,0,0,0-12-9.5,2,2,0,0,0-2.5,1,1.45,1.45,0,0,0-.5,1,1.59,1.59,0,0,0,1,1.5,44.51,44.51,0,0,1,11.5,8.5,1.81,1.81,0,0,0,2.5,0A2,2,0,0,0,186.19,44.74Zm-25.5-13c.33-1.33-.17-2-1.5-2a56.06,56.06,0,0,0-10-1h-5.5a2,2,0,0,0-1.5,2c0,1,.67,1.5,2,1.5a56,56,0,0,1,14.5,1A2,2,0,0,0,160.69,31.74Zm-5.5,126.75c0-1.17-.5-1.75-1.5-1.75h-15c-1,0-1.5.58-1.5,1.75s.5,1.75,1.5,1.75h15C154.69,160.24,155.19,159.66,155.19,158.49ZM131.44,34.24a3.41,3.41,0,0,0,.25-1.5c-.33-1-1.17-1.33-2.5-1a62.21,62.21,0,0,0-13,7l-1,1h.5a.44.44,0,0,0-.5.5,1.77,1.77,0,0,0,2,2,1.45,1.45,0,0,0,1-.5,52.23,52.23,0,0,1,12-6.5A2.71,2.71,0,0,0,131.44,34.24Zm-5.25,124.25c0-1.17-.67-1.75-2-1.75h-14.5c-1.33,0-2,.58-2,1.75s.67,1.75,2,1.75h14.5C125.52,160.24,126.19,159.66,126.19,158.49ZM108.69,52.24a2,2,0,0,0,.5-1.5c0-.33-.33-.67-1-1a1.59,1.59,0,0,0-2.5.5,71,71,0,0,0-7,13.5v.5a2,2,0,0,0,1,2h1a1.59,1.59,0,0,0,1.5-1A79.06,79.06,0,0,1,108.69,52.24Zm-18.5,289.5,8.5-17.5h-7v-11.5c0-1.33-.58-2-1.75-2s-1.75.67-1.75,2v11.5h-7Zm7.5-263c.33-1.33-.08-2.08-1.25-2.25a1.81,1.81,0,0,0-2.25,1.25q-2,8-3,14.5v.5a1.33,1.33,0,0,0,1.5,1.5,2,2,0,0,0,2-1Q95.7,86.75,97.69,78.74Zm-1,79.75c0-1.17-.67-1.75-2-1.75H80.19c-1.33,0-2,.58-2,1.75s.67,1.75,2,1.75h14.5C96,160.24,96.69,159.66,96.69,158.49Zm-4-51.25c.33-.33.17-.67-.5-1,0-.33-.33-.67-1-1-1.33,0-2,.5-2,1.5q-1.5,14.51-1.5,15c0,1.33.5,2,1.5,2h.5a1.33,1.33,0,0,0,1.5-1.5q.5-3,.75-5.5c.17-1.67.33-3.42.5-5.25S92.69,108.24,92.69,107.24Zm-1,191-.5-7v-8c0-1-.67-1.5-2-1.5a1.33,1.33,0,0,0-1.5,1.5q0,10,.5,15c0,1.33.58,2,1.75,2S91.69,299.57,91.69,298.24Zm-.5-29.5v-2a112.39,112.39,0,0,0-.5-12.5c0-1.33-.58-2-1.75-2s-1.75.67-1.75,2v14.5a1.77,1.77,0,0,0,2,2,1.59,1.59,0,0,0,1.5-1C91,269.74,91.19,269.41,91.19,268.74Zm-.5-29.5v-7.5a34.2,34.2,0,0,0-.25-3.75,32.23,32.23,0,0,1-.25-3.25c0-1.33-.5-2-1.5-2a1.77,1.77,0,0,0-2,2v14.5c.33,1.33,1,2,2,2A1.77,1.77,0,0,0,90.69,239.24Zm-.5-88q0-7.5.5-14.5a1.77,1.77,0,0,0-2-2c-1.33,0-2,.5-2,1.5v15c-.33,1.33.17,2,1.5,2A1.77,1.77,0,0,0,90.19,151.24Zm0,58.5v-14.5a2,2,0,0,0-4,0v7.5a33.36,33.36,0,0,0,.5,7c0,1.33.58,2,1.75,2S90.19,211.07,90.19,209.74Zm-.5-38a26.81,26.81,0,0,0,.5-6c0-1-.67-1.5-2-1.5a2,2,0,0,0-2,1.5v15c0,1,.58,1.5,1.75,1.5s1.75-.5,1.75-1.5Zm-22.5-13.25c0-1.17-.5-1.75-1.5-1.75h-15c-1,0-1.5.58-1.5,1.75s.5,1.75,1.5,1.75h15C66.69,160.24,67.19,159.66,67.19,158.49Zm-29.5,0c0-1.17-.5-1.75-1.5-1.75h-2a4.72,4.72,0,0,0-5-4,5,5,0,0,0-4,1.75,6,6,0,0,0-1.5,4,5.09,5.09,0,0,0,1.5,3.75,5.4,5.4,0,0,0,4,1.5,5.15,5.15,0,0,0,5-3.5h2C37.19,160.24,37.69,159.66,37.69,158.49Z" transform="translate(-1.19 -1.74)" fill="#fbea23"/><path d="M219.69,50.24a83.49,83.49,0,0,1,4.5,35.5A29.23,29.23,0,0,1,220.94,97a28,28,0,0,1-7,8.75,29.06,29.06,0,0,1-9.75,5.25,27.69,27.69,0,0,1-11,1.25,26.14,26.14,0,0,1-19.75-9.75,27.5,27.5,0,0,1-6.75-20.75q.5-8-1-12.5a12.6,12.6,0,0,0-3-5,23.17,23.17,0,0,0-4.5-3.5,25.51,25.51,0,0,0-9-1.5,23.64,23.64,0,0,0-10.5,2,12.6,12.6,0,0,0-5,3,40.39,40.39,0,0,0-6.5,11.5q-7,17.51-9.5,54h63.5a27.93,27.93,0,0,1,20.5,8.5,28.37,28.37,0,0,1,0,40.5,27.93,27.93,0,0,1-20.5,8.5h-64.5q.5,19,1,55.5,1,59,1,92a28.37,28.37,0,0,1-8.25,20.5,27.11,27.11,0,0,1-20.25,8.5,29,29,0,0,1-29-29q0-33-1-90.5v-6q-1-36-1-51H29.69a27.11,27.11,0,0,1-20.25-8.5,28.37,28.37,0,0,1-8.25-20.5A27.53,27.53,0,0,1,9.44,138a27.53,27.53,0,0,1,20.25-8.25h30.5q2.51-48.5,13.5-75,7-18.5,19-31a86.2,86.2,0,0,1,23.5-16,88.08,88.08,0,0,1,33-6,79.68,79.68,0,0,1,32,6.5,68.56,68.56,0,0,1,24,17A62.51,62.51,0,0,1,219.69,50.24Zm-1,35.5a81,81,0,0,0-4-34,66.54,66.54,0,0,0-13.5-23,66.23,66.23,0,0,0-22.5-15.5,71.8,71.8,0,0,0-29.5-6,84,84,0,0,0-31,5.5,73.61,73.61,0,0,0-21.5,15q-11.5,11.51-18,29-11,26.5-13,75.5a2.78,2.78,0,0,1-3,2.5h-33a22.57,22.57,0,0,0-16.5,7,22.85,22.85,0,0,0-7,16.75,22,22,0,0,0,7,16.5,23,23,0,0,0,16.5,6.75h32a2.65,2.65,0,0,1,3,3q0,16.5.5,53.5l.5,5.5q1,58,1,91a22.57,22.57,0,0,0,7,16.5q6.5,6.5,16.5,6.5t16.5-6.5a22.57,22.57,0,0,0,7-16.5q0-33.5-1.5-91.5-.5-38.51-.5-58.5a3.06,3.06,0,0,1,.75-2.25,2.39,2.39,0,0,1,1.75-.75h67A22.74,22.74,0,0,0,197.94,175a22.44,22.44,0,0,0,6.75-16.5,23.29,23.29,0,0,0-6.75-16.75,22.31,22.31,0,0,0-16.75-7h-66a3.32,3.32,0,0,1-2-.75,1.28,1.28,0,0,1-.5-1.75q2-39.5,9.5-58.5,3.5-8.51,8-13a15.23,15.23,0,0,1,6.5-4.5,27.77,27.77,0,0,1,12.5-2.5,24.2,24.2,0,0,1,11,2.5,15.23,15.23,0,0,1,6.5,4.5,17.9,17.9,0,0,1,4,6.5,39,39,0,0,1,1.5,14.5A21.53,21.53,0,0,0,177.69,99a24.28,24.28,0,0,0,16,8.25,20.92,20.92,0,0,0,9-1,23.63,23.63,0,0,0,8-4.5,24.69,24.69,0,0,0,5.75-7.25A18.47,18.47,0,0,0,218.69,85.74Z" transform="translate(-1.19 -1.74)" fill="#1d1d1b"/><path d="M200.19,76.49a6,6,0,0,1,1.5,4,5.09,5.09,0,0,1-1.5,3.75,5.4,5.4,0,0,1-4,1.5,5,5,0,0,1-4-1.75,6,6,0,0,1-1.5-4,4.73,4.73,0,0,1,1.75-3.75,6,6,0,0,1,4-1.5A4.73,4.73,0,0,1,200.19,76.49Z" transform="translate(-1.19 -1.74)" fill="#5a5a5a"/><path d="M197.69,71.24c.33,1-.17,1.67-1.5,2h-.5a1.33,1.33,0,0,1-1.5-1.5,61.75,61.75,0,0,0-3.5-13.5,1.45,1.45,0,0,1-.5-1c0-.67.5-1.33,1.5-2,1-.33,1.67.17,2,1.5A55.31,55.31,0,0,1,197.69,71.24Z" transform="translate(-1.19 -1.74)" fill="#5a5a5a"/><path d="M194.19,158.24l-18,9v-7h-8c-1,0-1.5-.58-1.5-1.75s.5-1.75,1.5-1.75h8v-7Z" transform="translate(-1.19 -1.74)" fill="#5a5a5a"/><path d="M185.69,43.74a1.45,1.45,0,0,1,.5,1,2,2,0,0,1-.5,1.5,1.81,1.81,0,0,1-2.5,0,44.51,44.51,0,0,0-11.5-8.5,1.59,1.59,0,0,1-1-1.5,1.45,1.45,0,0,1,.5-1,2,2,0,0,1,2.5-1A45.72,45.72,0,0,1,185.69,43.74Z" transform="translate(-1.19 -1.74)" fill="#5a5a5a"/><path d="M159.19,29.74c1.33,0,1.83.67,1.5,2a2,2,0,0,1-2,1.5,56,56,0,0,0-14.5-1c-1.33,0-2-.5-2-1.5a2,2,0,0,1,1.5-2h5.5A56.06,56.06,0,0,1,159.19,29.74Z" transform="translate(-1.19 -1.74)" fill="#5a5a5a"/><path d="M153.69,156.74c1,0,1.5.58,1.5,1.75s-.5,1.75-1.5,1.75h-15c-1,0-1.5-.58-1.5-1.75s.5-1.75,1.5-1.75Z" transform="translate(-1.19 -1.74)" fill="#5a5a5a"/><path d="M131.69,32.74a3.41,3.41,0,0,1-.25,1.5,2.71,2.71,0,0,1-1.25,1,52.23,52.23,0,0,0-12,6.5,1.45,1.45,0,0,1-1,.5,1.77,1.77,0,0,1-2-2,.44.44,0,0,1,.5-.5h-.5l1-1a62.21,62.21,0,0,1,13-7C130.52,31.41,131.36,31.74,131.69,32.74Z" transform="translate(-1.19 -1.74)" fill="#5a5a5a"/><path d="M124.19,156.74c1.33,0,2,.58,2,1.75s-.67,1.75-2,1.75h-14.5c-1.33,0-2-.58-2-1.75s.67-1.75,2-1.75Z" transform="translate(-1.19 -1.74)" fill="#5a5a5a"/><path d="M109.19,50.74a2,2,0,0,1-.5,1.5,79.06,79.06,0,0,0-6.5,13,1.59,1.59,0,0,1-1.5,1h-1a2,2,0,0,1-1-2v-.5a71,71,0,0,1,7-13.5,1.59,1.59,0,0,1,2.5-.5C108.86,50.07,109.19,50.41,109.19,50.74Z" transform="translate(-1.19 -1.74)" fill="#5a5a5a"/><path d="M98.69,324.24l-8.5,17.5-9-17.5h7v-11.5c0-1.33.58-2,1.75-2s1.75.67,1.75,2v11.5Z" transform="translate(-1.19 -1.74)" fill="#5a5a5a"/><path d="M96.44,76.49c1.17.17,1.58.92,1.25,2.25q-2,8-3,14.5a2,2,0,0,1-2,1,1.33,1.33,0,0,1-1.5-1.5v-.5q1-6.49,3-14.5A1.81,1.81,0,0,1,96.44,76.49Z" transform="translate(-1.19 -1.74)" fill="#5a5a5a"/><path d="M94.69,156.74c1.33,0,2,.58,2,1.75s-.67,1.75-2,1.75H80.19c-1.33,0-2-.58-2-1.75s.67-1.75,2-1.75Z" transform="translate(-1.19 -1.74)" fill="#5a5a5a"/><path d="M92.19,106.24c.67.33.83.67.5,1,0,1-.08,2.42-.25,4.25s-.33,3.58-.5,5.25-.42,3.5-.75,5.5a1.33,1.33,0,0,1-1.5,1.5h-.5c-1,0-1.5-.67-1.5-2q0-.49,1.5-15c0-1,.67-1.5,2-1.5C91.86,105.57,92.19,105.91,92.19,106.24Z" transform="translate(-1.19 -1.74)" fill="#5a5a5a"/><path d="M91.19,291.24l.5,7c0,1.33-.58,2-1.75,2s-1.75-.67-1.75-2q-.5-5-.5-15a1.33,1.33,0,0,1,1.5-1.5c1.33,0,2,.5,2,1.5Z" transform="translate(-1.19 -1.74)" fill="#5a5a5a"/><path d="M91.19,266.74v2c0,.67-.17,1-.5,1a1.59,1.59,0,0,1-1.5,1,1.77,1.77,0,0,1-2-2v-14.5c0-1.33.58-2,1.75-2s1.75.67,1.75,2A112.39,112.39,0,0,1,91.19,266.74Z" transform="translate(-1.19 -1.74)" fill="#5a5a5a"/><path d="M90.69,231.74v7.5a1.77,1.77,0,0,1-2,2c-1,0-1.67-.67-2-2v-14.5a1.77,1.77,0,0,1,2-2c1,0,1.5.67,1.5,2a32.23,32.23,0,0,0,.25,3.25A34.2,34.2,0,0,1,90.69,231.74Z" transform="translate(-1.19 -1.74)" fill="#5a5a5a"/><path d="M90.69,136.74q-.5,7-.5,14.5a1.77,1.77,0,0,1-2,2c-1.33,0-1.83-.67-1.5-2v-15c0-1,.67-1.5,2-1.5A1.77,1.77,0,0,1,90.69,136.74Z" transform="translate(-1.19 -1.74)" fill="#5a5a5a"/><path d="M90.19,203.74v6c0,1.33-.58,2-1.75,2s-1.75-.67-1.75-2a33.36,33.36,0,0,1-.5-7v-7.5a2,2,0,0,1,4,0v8.5Z" transform="translate(-1.19 -1.74)" fill="#5a5a5a"/><path d="M90.19,165.74a26.81,26.81,0,0,1-.5,6v9c0,1-.58,1.5-1.75,1.5s-1.75-.5-1.75-1.5v-15a2,2,0,0,1,2-1.5C89.52,164.24,90.19,164.74,90.19,165.74Z" transform="translate(-1.19 -1.74)" fill="#5a5a5a"/><path d="M65.69,156.74c1,0,1.5.58,1.5,1.75s-.5,1.75-1.5,1.75h-15c-1,0-1.5-.58-1.5-1.75s.5-1.75,1.5-1.75Z" transform="translate(-1.19 -1.74)" fill="#5a5a5a"/><path d="M36.19,156.74c1,0,1.5.58,1.5,1.75s-.5,1.75-1.5,1.75h-2a5.15,5.15,0,0,1-5,3.5,5.4,5.4,0,0,1-4-1.5,5.09,5.09,0,0,1-1.5-3.75,6,6,0,0,1,1.5-4,5,5,0,0,1,4-1.75,4.72,4.72,0,0,1,5,4Z" transform="translate(-1.19 -1.74)" fill="#5a5a5a"/></svg>