<svg id="Layer_1" data-name="Layer 1" xmlns="http://www.w3.org/2000/svg" viewBox="0 0 217 345.83"><path d="M212.76,29.69q-.51,82-.5,92v97.5q-1,38.51-6.25,62.5t-20.75,39.5q-21,20.49-60.5,20.5-27.51,0-54-15.5-31-17.52-50.5-50a25,25,0,0,1-2.25-18,22.11,22.11,0,0,1,10.75-14.5,37,37,0,0,1,8.5-3h3.5a36.8,36.8,0,0,1,6,.5A29.87,29.87,0,0,1,55,245.44a18.62,18.62,0,0,1,5.75,6.75,94.87,94.87,0,0,0,33.5,33.5q15.49,9,30.5,9,21,0,28-7,4.5-4.5,7.25-14.5t4.25-28.5a2.46,2.46,0,0,0-1.25-2.25,4.52,4.52,0,0,0-2.25-.75q-38.5,11.51-78.5-3-36.51-13.5-56.5-42-19-27-19-61.5,0-33,13.5-57.5a94.84,94.84,0,0,1,33-34q25.5-16,61-17a170.22,170.22,0,0,1,48.5,5,3.35,3.35,0,0,0,2-.75,2.18,2.18,0,0,0,1-1.75,23.51,23.51,0,0,1,7-16q11-11,25.5-5a18.44,18.44,0,0,1,7.75,5,26.11,26.11,0,0,1,5,7.75A22.89,22.89,0,0,1,212.76,29.69Zm-22.5,8.5a5.51,5.51,0,0,0,4-5.5,5.29,5.29,0,0,0-1.75-3.75,5.52,5.52,0,0,0-4-1.75,4.73,4.73,0,0,0-3.75,1.75,5.68,5.68,0,0,0-1.5,3.75,5.47,5.47,0,0,0,3.5,5.5v5c0,1.33.57,2,1.75,2s1.75-.67,1.75-2Zm.5,152v-15c0-1-.59-1.5-1.75-1.5s-1.75.5-1.75,1.5c0,6.33-.18,11.33-.5,15a2,2,0,0,0,4,0Zm0-29.5v-14.5c0-1.33-.59-2-1.75-2s-1.75.67-1.75,2v14.5c0,1.33.57,2,1.75,2S190.76,162,190.76,160.69Zm0-29c0-2.33-.09-4.67-.25-7s-.25-3.67-.25-4v-4a1.33,1.33,0,0,0-1.5-1.5h-.5a1.77,1.77,0,0,0-1.5,1.5v3.5q0,5,.5,11.5c0,1,.57,1.5,1.75,1.5S190.76,132.69,190.76,131.69Zm-.5,88v-14.5c0-1.33-.59-2-1.75-2s-1.75.67-1.75,2v14.5c0,1.33.57,2,1.75,2S190.26,221,190.26,219.69Zm0-117.5V87.69c0-1.33-.59-2-1.75-2s-1.75.67-1.75,2v14.5c0,1.33.57,2,1.75,2S190.26,103.52,190.26,102.19Zm0-29.5V58.19c0-1.33-.5-2-1.5-2h-.5c-.68,0-1.18.67-1.5,2v14.5c0,1.33.57,2,1.75,2S190.26,74,190.26,72.69Zm-.75,169a53.62,53.62,0,0,1,.75-7.5c0-1-.68-1.67-2-2a1.77,1.77,0,0,0-2,2,119.19,119.19,0,0,1-1,14.5,1.77,1.77,0,0,0,2,2,2,2,0,0,0,2-1.5C189.26,247.52,189.33,245,189.51,241.69Zm-4.75,36.5c1-3.68,2-8.5,3-14.5,0-1-.68-1.68-2-2s-2,.16-2,1.5c-.68,5.32-1.5,10.16-2.5,14.5a1.4,1.4,0,0,0,1,2h.5A2,2,0,0,0,184.76,278.19Zm-2.5-215.5q2-5-3-7a4.72,4.72,0,0,0-6,1.5q-7-2.5-12.5-4a1.82,1.82,0,0,0-2.5,1.5c-.34,1,.16,1.67,1.5,2q5.49,1.5,12,3.5a5.47,5.47,0,0,0,3.5,5.5Q180.24,67.69,182.26,62.69Zm-9.5,159,9.5-17.5-19.5,3,4,5.5a1.42,1.42,0,0,0-1,.5h-.5a2,2,0,0,0-1,2v.5a2,2,0,0,0,2,1h.5l2-1Zm7,71v-1a2,2,0,0,0-3.5-1,43.38,43.38,0,0,1-7.5,12c-.68.32-1,.75-1,1.25a1.48,1.48,0,0,0,.75,1.25,2.8,2.8,0,0,0,1.5.5,1.76,1.76,0,0,0,1.25-.5A56.19,56.19,0,0,0,179.76,292.69Zm-14-171V83.19a2.37,2.37,0,0,0-2-2.5,133.19,133.19,0,0,0-48-7q-23,.5-38,10a47.38,47.38,0,0,0-16.5,17q-8,13.5-8,34.5a56.77,56.77,0,0,0,11,34.5q11.49,16.5,34,25a88.52,88.52,0,0,0,29,5,65.26,65.26,0,0,0,18.5-2.5,49.67,49.67,0,0,0,18.5-8.5,2,2,0,0,0,1-2Q165.76,131.19,165.76,121.69Zm-6,190.5a1.42,1.42,0,0,0-.5-1c-.34-1-1-1.18-2-.5h-.5a74.87,74.87,0,0,1-13,4,2,2,0,0,0-1.5.5v1.5a1.33,1.33,0,0,0,1.5,1.5h.5a53.15,53.15,0,0,0,14.5-4.5C159.42,313.69,159.76,313.19,159.76,312.19Zm-7-90.5c1.33-.33,1.83-1,1.5-2a1.83,1.83,0,0,0-2.5-1.5,77.8,77.8,0,0,1-14,2.5,2,2,0,0,0-1.5,2,1.33,1.33,0,0,0,1.5,1.5h.5A69.48,69.48,0,0,0,152.76,221.69Zm-5.5-169.5v-.5c0-1-.34-1.5-1-1.5h-.5a79.43,79.43,0,0,0-14.5-1.5c-1.34,0-2,.5-2,1.5,0,.67.16,1,.5,1,.33.67.66,1,1,1q7.5.5,15,1.5A1.33,1.33,0,0,0,147.26,52.19Zm-16.5,267q.5-.51,0-1.5a1.33,1.33,0,0,0-1.5-1.5,84.89,84.89,0,0,1-14.5-1c-1.34,0-2,.5-2,1.5a2.32,2.32,0,0,0,1.5,2.5c3.33.32,6.83.5,10.5.5h4.5A2.12,2.12,0,0,0,130.76,319.19Zm-5.5-96.25c0-1.17-.67-1.75-2-1.75a71.57,71.57,0,0,1-14-1.5h-.5c-1-.33-1.67.17-2,1.5v.5q0,1,1.5,1.5a71.42,71.42,0,0,0,15,1.5C124.59,224.69,125.26,224.11,125.26,222.94Zm-7.5-171.75a2,2,0,0,0,.5-1.5c0-1-.67-1.5-2-1.5a95.33,95.33,0,0,0-14.5,1,1.59,1.59,0,0,0-1.5,1,1.41,1.41,0,0,0-.5,1c.33,1.33,1,2,2,2h.5q6.49-1,14-1.5A2.07,2.07,0,0,0,117.76,51.19Zm-15.5,263v-.5a2,2,0,0,0-1-2h-.5a80.55,80.55,0,0,1-13-6c-1.34-.34-2.17,0-2.5,1-.67,1.32-.34,2.16,1,2.5a100.77,100.77,0,0,0,13.5,6h.5A2,2,0,0,0,102.26,314.19Zm-6-95.5a1.83,1.83,0,0,0-1.5-2.5,88.85,88.85,0,0,1-13-5h-.5a1.59,1.59,0,0,0-2.5.5v1a1.59,1.59,0,0,0,1,1.5,80.86,80.86,0,0,0,14,5.5h.5A2,2,0,0,0,96.26,218.69Zm-7-164.5v-.5c-.34-1.33-1.17-1.67-2.5-1a71.47,71.47,0,0,0-14,5q-.51,0-.75.75a1.11,1.11,0,0,0,.25,1.25,1.33,1.33,0,0,0,1.5,1.5.44.44,0,0,0,.5-.5,92.7,92.7,0,0,1,13.5-5A1.33,1.33,0,0,0,89.26,54.19Zm-13.5,247a1.49,1.49,0,0,0,.5-1,1.59,1.59,0,0,0-1-1.5,114.12,114.12,0,0,1-11.5-9,1.59,1.59,0,0,0-2.5.5,1.65,1.65,0,0,0-.5,1.25,1.68,1.68,0,0,0,.5,1.25,146.53,146.53,0,0,0,12,9,1.48,1.48,0,0,0,1,.5A1.62,1.62,0,0,0,75.76,301.19Zm-6.5-95a1.45,1.45,0,0,0,.5-1,6,6,0,0,0-1-1.5,72.18,72.18,0,0,1-11-9,1.59,1.59,0,0,0-2.5.5c-.67.33-1,.75-1,1.25s.33.92,1,1.25a91.29,91.29,0,0,0,11.5,9.5H68C68.51,207.19,68.92,206.86,69.26,206.19Zm-7-138a4.48,4.48,0,0,0,.5-2,.44.44,0,0,0-.5-.5c-.67-1.33-1.5-1.5-2.5-.5a81.69,81.69,0,0,0-11,10c-1,.67-1,1.5,0,2.5a1.44,1.44,0,0,0,1,.5,2.07,2.07,0,0,0,1.5-.5A59.16,59.16,0,0,1,62.26,68.19Zm-8.5,212.5v-1a52.18,52.18,0,0,1-6.5-8l5.5-3.5-16.5-11,1,20,6.5-4a108.07,108.07,0,0,0,7,9,4,4,0,0,0,1.5.5,1.52,1.52,0,0,0,1-.5A2.07,2.07,0,0,0,53.76,280.69Zm-5.5-95a3.93,3.93,0,0,0-.5-1.5,104.68,104.68,0,0,1-7.5-12c-.34-1-1.17-1.33-2.5-1a1.59,1.59,0,0,0-1,1.5,1.41,1.41,0,0,0,.5,1v.5a99.05,99.05,0,0,0,8,12.5,2,2,0,0,0,1.5.5l1-.5A1.45,1.45,0,0,0,48.26,185.69Zm-5.5-97a.44.44,0,0,0,.5-.5,1.83,1.83,0,0,0-3.5-1,72.77,72.77,0,0,0-6.5,13.5v1.5c.66.67,1.16,1,1.5,1h.5c1,0,1.5-.33,1.5-1A95.93,95.93,0,0,1,42.76,88.69Zm-9,72.5c1.33-.67,1.83-1.5,1.5-2.5a85,85,0,0,1-3-14c-.34-1.33-1-1.83-2-1.5-1,0-1.5.67-1.5,2v.5a72.33,72.33,0,0,0,3,14,1.33,1.33,0,0,0,1.5,1.5Zm-.5-45v-.5a2,2,0,0,0-1.5-2c-1.34-.33-2,.17-2,1.5a76.31,76.31,0,0,0-1.5,15,1.41,1.41,0,0,0,.5,1,1.59,1.59,0,0,0,1.5,1c1,0,1.66-.67,2-2A75.16,75.16,0,0,1,33.26,116.19Z" transform="translate(-1.26 -0.86)" fill="#fbea23"/><path d="M218.26,29.69q-.51,82.5-.5,92,0,11-.5,97.5-1,40-6.25,64.75t-22.25,41.25q-22,21.48-64,21.5-29,0-56.5-15.5-32.51-19-52.5-52.5a28.36,28.36,0,0,1-3-22,27.42,27.42,0,0,1,13.5-17.5,21.82,21.82,0,0,1,10.5-3.5,24.08,24.08,0,0,1,11,.5,31,31,0,0,1,10.25,5,23.67,23.67,0,0,1,7.25,8.5,89.33,89.33,0,0,0,31.5,31.5q14.49,8,28,8,18.49,0,24-5.5,7-6.51,9.5-35.5-38.5,10-78-4.5-38-14-59-44-20-28.5-20-64.5,0-34.5,14.5-60a96.58,96.58,0,0,1,34.5-36q27-16.5,64-18a173,173,0,0,1,46.5,4.5,30.75,30.75,0,0,1,8-16.5A31,31,0,0,1,184,1.44a25.62,25.62,0,0,1,16.25,1.75,24.39,24.39,0,0,1,9.5,6.25,32.48,32.48,0,0,1,6.25,9.5A27,27,0,0,1,218.26,29.69Zm-6,92q0-10,.5-92A22.89,22.89,0,0,0,211,20.94a26.11,26.11,0,0,0-5-7.75,18.44,18.44,0,0,0-7.75-5q-14.52-6-25.5,5a23.51,23.51,0,0,0-7,16,2.18,2.18,0,0,1-1,1.75,3.35,3.35,0,0,1-2,.75,170.22,170.22,0,0,0-48.5-5q-35.51,1-61,17a94.84,94.84,0,0,0-33,34q-13.5,24.5-13.5,57.5,0,34.5,19,61.5,20,28.5,56.5,42,40,14.51,78.5,3a4.52,4.52,0,0,1,2.25.75,2.46,2.46,0,0,1,1.25,2.25q-1.5,18.48-4.25,28.5t-7.25,14.5q-7,7-28,7-15,0-30.5-9a94.87,94.87,0,0,1-33.5-33.5A18.62,18.62,0,0,0,55,245.44a29.87,29.87,0,0,0-8.25-4.25,36.8,36.8,0,0,0-6-.5h-3.5a37,37,0,0,0-8.5,3A22.11,22.11,0,0,0,18,258.19a25,25,0,0,0,2.25,18q19.5,32.49,50.5,50,26.49,15.48,54,15.5,39.49,0,60.5-20.5,15.48-15.51,20.75-39.5t6.25-62.5Z" transform="translate(-1.26 -0.86)" fill="#1d1d1b"/><path d="M194.26,32.69a5.51,5.51,0,0,1-4,5.5v5c0,1.33-.59,2-1.75,2s-1.75-.67-1.75-2v-5a5.47,5.47,0,0,1-3.5-5.5,5.68,5.68,0,0,1,1.5-3.75,4.73,4.73,0,0,1,3.75-1.75,5.52,5.52,0,0,1,4,1.75A5.29,5.29,0,0,1,194.26,32.69Z" transform="translate(-1.26 -0.86)" fill="#5a5a5a"/><path d="M190.76,175.19v15a2,2,0,0,1-4,0c.32-3.67.5-8.67.5-15,0-1,.57-1.5,1.75-1.5S190.76,174.19,190.76,175.19Z" transform="translate(-1.26 -0.86)" fill="#5a5a5a"/><path d="M190.76,146.19v14.5c0,1.33-.59,2-1.75,2s-1.75-.67-1.75-2v-14.5c0-1.33.57-2,1.75-2S190.76,144.86,190.76,146.19Z" transform="translate(-1.26 -0.86)" fill="#5a5a5a"/><path d="M190.51,124.69c.16,2.33.25,4.67.25,7,0,1-.59,1.5-1.75,1.5s-1.75-.5-1.75-1.5q-.51-6.5-.5-11.5v-3.5a1.77,1.77,0,0,1,1.5-1.5h.5a1.33,1.33,0,0,1,1.5,1.5v4C190.26,121,190.33,122.36,190.51,124.69Z" transform="translate(-1.26 -0.86)" fill="#5a5a5a"/><path d="M190.26,205.19v14.5c0,1.33-.59,2-1.75,2s-1.75-.67-1.75-2v-14.5c0-1.33.57-2,1.75-2S190.26,203.86,190.26,205.19Z" transform="translate(-1.26 -0.86)" fill="#5a5a5a"/><path d="M190.26,87.69v14.5c0,1.33-.59,2-1.75,2s-1.75-.67-1.75-2V87.69c0-1.33.57-2,1.75-2S190.26,86.36,190.26,87.69Z" transform="translate(-1.26 -0.86)" fill="#5a5a5a"/><path d="M190.26,58.19v14.5c0,1.33-.59,2-1.75,2s-1.75-.67-1.75-2V58.19c.32-1.33.82-2,1.5-2h.5C189.76,56.19,190.26,56.86,190.26,58.19Z" transform="translate(-1.26 -0.86)" fill="#5a5a5a"/><path d="M190.26,234.19a53.62,53.62,0,0,0-.75,7.5c-.18,3.33-.25,5.83-.25,7.5a2,2,0,0,1-2,1.5,1.77,1.77,0,0,1-2-2,119.19,119.19,0,0,0,1-14.5,1.77,1.77,0,0,1,2-2C189.58,232.52,190.26,233.19,190.26,234.19Z" transform="translate(-1.26 -0.86)" fill="#5a5a5a"/><path d="M187.76,263.69c-1,6-2,10.82-3,14.5a2,2,0,0,1-2,1.5h-.5a1.4,1.4,0,0,1-1-2c1-4.34,1.82-9.18,2.5-14.5,0-1.34.66-1.84,2-1.5S187.76,262.69,187.76,263.69Z" transform="translate(-1.26 -0.86)" fill="#5a5a5a"/><path d="M179.26,55.69q5,2,3,7t-7,3a5.47,5.47,0,0,1-3.5-5.5q-6.51-2-12-3.5c-1.34-.33-1.84-1-1.5-2a1.82,1.82,0,0,1,2.5-1.5q5.49,1.5,12.5,4A4.72,4.72,0,0,1,179.26,55.69Z" transform="translate(-1.26 -0.86)" fill="#5a5a5a"/><path d="M182.26,204.19l-9.5,17.5-4-6-2,1h-.5a2,2,0,0,1-2-1v-.5a2,2,0,0,1,1-2h.5a1.42,1.42,0,0,1,1-.5l-4-5.5Z" transform="translate(-1.26 -0.86)" fill="#5a5a5a"/><path d="M179.76,291.69v1a56.19,56.19,0,0,1-8.5,12.5,1.76,1.76,0,0,1-1.25.5,2.8,2.8,0,0,1-1.5-.5,1.48,1.48,0,0,1-.75-1.25c0-.5.32-.93,1-1.25a43.38,43.38,0,0,0,7.5-12,2,2,0,0,1,3.5,1Z" transform="translate(-1.26 -0.86)" fill="#5a5a5a"/><path d="M165.76,83.19v38.5q0,9.5-.5,65a2,2,0,0,1-1,2,49.67,49.67,0,0,1-18.5,8.5,65.26,65.26,0,0,1-18.5,2.5,88.52,88.52,0,0,1-29-5q-22.5-8.5-34-25a56.77,56.77,0,0,1-11-34.5q0-21,8-34.5a47.38,47.38,0,0,1,16.5-17q15-9.5,38-10a133.19,133.19,0,0,1,48,7A2.37,2.37,0,0,1,165.76,83.19Zm-5.5,102v-100a125.81,125.81,0,0,0-40-6.5h-4q-22,1-36,9.5a41.46,41.46,0,0,0-14.5,15q-7,12.5-7,32a54.75,54.75,0,0,0,9.5,31.5q11,15.5,31.5,23,23.49,8.51,45,2.5A59.82,59.82,0,0,0,160.26,185.19Z" transform="translate(-1.26 -0.86)" fill="#1d1d1b"/><path d="M159.26,311.19a1.42,1.42,0,0,1,.5,1c0,1-.34,1.5-1,1.5a53.15,53.15,0,0,1-14.5,4.5h-.5a1.33,1.33,0,0,1-1.5-1.5v-1.5a2,2,0,0,1,1.5-.5,74.87,74.87,0,0,0,13-4h.5C158.26,310,158.92,310.19,159.26,311.19Z" transform="translate(-1.26 -0.86)" fill="#5a5a5a"/><path d="M154.26,219.69c.33,1-.17,1.67-1.5,2a69.48,69.48,0,0,1-14.5,2.5h-.5a1.33,1.33,0,0,1-1.5-1.5,2,2,0,0,1,1.5-2,77.8,77.8,0,0,0,14-2.5A1.83,1.83,0,0,1,154.26,219.69Z" transform="translate(-1.26 -0.86)" fill="#5a5a5a"/><path d="M147.26,51.69v.5a1.33,1.33,0,0,1-1.5,1.5q-7.5-1-15-1.5c-.34,0-.67-.33-1-1-.34,0-.5-.33-.5-1,0-1,.66-1.5,2-1.5a79.43,79.43,0,0,1,14.5,1.5h.5C146.92,50.19,147.26,50.69,147.26,51.69Z" transform="translate(-1.26 -0.86)" fill="#5a5a5a"/><path d="M130.76,317.69q.5,1,0,1.5a2.12,2.12,0,0,1-1.5.5h-4.5c-3.67,0-7.17-.18-10.5-.5a2.32,2.32,0,0,1-1.5-2.5c0-1,.66-1.5,2-1.5a84.89,84.89,0,0,0,14.5,1A1.33,1.33,0,0,1,130.76,317.69Z" transform="translate(-1.26 -0.86)" fill="#5a5a5a"/><path d="M123.26,221.19c1.33,0,2,.58,2,1.75s-.67,1.75-2,1.75a71.42,71.42,0,0,1-15-1.5q-1.5-.49-1.5-1.5v-.5c.33-1.33,1-1.83,2-1.5h.5A71.57,71.57,0,0,0,123.26,221.19Z" transform="translate(-1.26 -0.86)" fill="#5a5a5a"/><path d="M118.26,49.69a2,2,0,0,1-.5,1.5,2.07,2.07,0,0,1-1.5.5q-7.5.5-14,1.5h-.5c-1,0-1.67-.67-2-2a1.41,1.41,0,0,1,.5-1,1.59,1.59,0,0,1,1.5-1,95.33,95.33,0,0,1,14.5-1C117.59,48.19,118.26,48.69,118.26,49.69Z" transform="translate(-1.26 -0.86)" fill="#5a5a5a"/><path d="M102.26,313.69v.5a2,2,0,0,1-2,1h-.5a100.77,100.77,0,0,1-13.5-6c-1.34-.34-1.67-1.18-1-2.5.33-1,1.16-1.34,2.5-1a80.55,80.55,0,0,0,13,6h.5A2,2,0,0,1,102.26,313.69Z" transform="translate(-1.26 -0.86)" fill="#5a5a5a"/><path d="M94.76,216.19a1.83,1.83,0,0,1,1.5,2.5,2,2,0,0,1-2,1h-.5a80.86,80.86,0,0,1-14-5.5,1.59,1.59,0,0,1-1-1.5v-1a1.59,1.59,0,0,1,2.5-.5h.5A88.85,88.85,0,0,0,94.76,216.19Z" transform="translate(-1.26 -0.86)" fill="#5a5a5a"/><path d="M89.26,53.69v.5a1.33,1.33,0,0,1-1.5,1.5,92.7,92.7,0,0,0-13.5,5,.44.44,0,0,1-.5.5,1.33,1.33,0,0,1-1.5-1.5A1.11,1.11,0,0,1,72,58.44q.24-.75.75-.75a71.47,71.47,0,0,1,14-5C88.09,52,88.92,52.36,89.26,53.69Z" transform="translate(-1.26 -0.86)" fill="#5a5a5a"/><path d="M76.26,300.19a1.49,1.49,0,0,1-.5,1,1.62,1.62,0,0,1-1.5,1,1.48,1.48,0,0,1-1-.5,146.53,146.53,0,0,1-12-9,1.68,1.68,0,0,1-.5-1.25,1.65,1.65,0,0,1,.5-1.25,1.59,1.59,0,0,1,2.5-.5,114.12,114.12,0,0,0,11.5,9A1.59,1.59,0,0,1,76.26,300.19Z" transform="translate(-1.26 -0.86)" fill="#5a5a5a"/><path d="M69.26,206.19c-.34.67-.75,1-1.25,1H66.76a91.29,91.29,0,0,1-11.5-9.5c-.67-.33-1-.75-1-1.25s.33-.92,1-1.25a1.59,1.59,0,0,1,2.5-.5,72.18,72.18,0,0,0,11,9,6,6,0,0,1,1,1.5A1.45,1.45,0,0,1,69.26,206.19Z" transform="translate(-1.26 -0.86)" fill="#5a5a5a"/><path d="M62.76,66.19a4.48,4.48,0,0,1-.5,2,59.16,59.16,0,0,0-11,9.5,2.07,2.07,0,0,1-1.5.5,1.44,1.44,0,0,1-1-.5c-1-1-1-1.83,0-2.5a81.69,81.69,0,0,1,11-10c1-1,1.83-.83,2.5.5A.44.44,0,0,1,62.76,66.19Z" transform="translate(-1.26 -0.86)" fill="#5a5a5a"/><path d="M53.76,279.69v1a2.07,2.07,0,0,1-.5,1.5,1.52,1.52,0,0,1-1,.5,4,4,0,0,1-1.5-.5,108.07,108.07,0,0,1-7-9l-6.5,4-1-20,16.5,11-5.5,3.5A52.18,52.18,0,0,0,53.76,279.69Z" transform="translate(-1.26 -0.86)" fill="#5a5a5a"/><path d="M47.76,184.19a3.93,3.93,0,0,1,.5,1.5,1.45,1.45,0,0,1-.5,1l-1,.5a2,2,0,0,1-1.5-.5,99.05,99.05,0,0,1-8-12.5v-.5a1.41,1.41,0,0,1-.5-1,1.59,1.59,0,0,1,1-1.5c1.33-.33,2.16,0,2.5,1A104.68,104.68,0,0,0,47.76,184.19Z" transform="translate(-1.26 -0.86)" fill="#5a5a5a"/><path d="M43.26,88.19a.44.44,0,0,1-.5.5,95.93,95.93,0,0,0-6,13.5c0,.67-.5,1-1.5,1h-.5c-.34,0-.84-.33-1.5-1v-1.5a72.77,72.77,0,0,1,6.5-13.5,1.83,1.83,0,0,1,3.5,1Z" transform="translate(-1.26 -0.86)" fill="#5a5a5a"/><path d="M35.26,158.69c.33,1-.17,1.83-1.5,2.5h-.5a1.33,1.33,0,0,1-1.5-1.5,72.33,72.33,0,0,1-3-14v-.5c0-1.33.5-2,1.5-2,1-.33,1.66.17,2,1.5A85,85,0,0,0,35.26,158.69Z" transform="translate(-1.26 -0.86)" fill="#5a5a5a"/><path d="M33.26,115.69v.5a75.16,75.16,0,0,0-1,14c-.34,1.33-1,2-2,2a1.59,1.59,0,0,1-1.5-1,1.41,1.41,0,0,1-.5-1,76.31,76.31,0,0,1,1.5-15c0-1.33.66-1.83,2-1.5A2,2,0,0,1,33.26,115.69Z" transform="translate(-1.26 -0.86)" fill="#5a5a5a"/></svg>