<svg id="Layer_1" data-name="Layer 1" xmlns="http://www.w3.org/2000/svg" viewBox="0 0 199.5 361.5"><path d="M30.07,185.09a1.77,1.77,0,0,0,2-2v-14.5a1.77,1.77,0,0,0-2-2c-1,0-1.5.67-1.5,2v14.5C28.57,184.42,29.07,185.09,30.07,185.09Zm7-.5c-2.67-.33-4.5.83-5.5,3.5q-2,5,3,7t7-3a5,5,0,0,0-1-6,64.77,64.77,0,0,1,7.5-10.5,2,2,0,0,0,.5-1.5,1.45,1.45,0,0,0-.5-1,1.87,1.87,0,0,0-3,0A88.72,88.72,0,0,0,37.07,184.59Zm158.5,45.5v103a23.13,23.13,0,0,1-7,17q-6.49,6.5-16.5,6.5t-16.5-6.5a23.13,23.13,0,0,1-7-17v-103q0-17-13-30.5-18-18.5-44.5-19-17.5,0-27,9t-10,27v117a22.57,22.57,0,0,1-7,16.5,23.78,23.78,0,0,1-16.75,6.5,23.78,23.78,0,0,1-16.75-6.5,23.48,23.48,0,0,1-6.5-16.5V29.09a23,23,0,0,1,6.75-16.5,22,22,0,0,1,16.5-7,22,22,0,0,1,16.5,7,23,23,0,0,1,6.75,16.5v108a2.46,2.46,0,0,0,1.25,2.25,3.17,3.17,0,0,0,2.75.25q15.5-6,34.5-5.5a106.1,106.1,0,0,1,42,8.75,105.72,105.72,0,0,1,35,23.75Q195.58,193.59,195.57,230.09Zm-23.5,110,9-17.5h-7v-11a2,2,0,0,0-4,0v11h-7Zm2-43.5v-14.5a2,2,0,0,0-4,0v14.5a2,2,0,0,0,4,0Zm0-29.5v-14.5a2,2,0,1,0-4,0v14.5a2,2,0,0,0,4,0Zm0-29v-5a80.57,80.57,0,0,0-1-10c0-1-.67-1.5-2-1.5-1,0-1.5.67-1.5,2q.5,5,.5,9.5v5c0,1,.67,1.5,2,1.5S174.07,239.09,174.07,238.09Zm-4.5-29v-1a77.73,77.73,0,0,0-6.5-13,2,2,0,0,0-3-1,3,3,0,0,0-.5,3,62.12,62.12,0,0,1,6.5,12.5,2,2,0,0,0,2,1h.5A1.59,1.59,0,0,0,169.57,209.09Zm-15.5-25a1.45,1.45,0,0,0-.5-1,66.84,66.84,0,0,0-11.5-10q-1-1.5-2.5.5a1.59,1.59,0,0,0,.5,2.5,55.78,55.78,0,0,1,11,9.5,1.45,1.45,0,0,0,1,.5,1.77,1.77,0,0,0,2-2Zm-23.5-16.5v-1c0-.33-.33-.83-1-1.5a88.82,88.82,0,0,0-13.5-5.5c-1.33-.33-2.17,0-2.5,1-.67,1.33-.33,2.17,1,2.5a88.82,88.82,0,0,1,13.5,5.5h1A1.59,1.59,0,0,0,130.57,167.59Zm-28-9.5c0-1.33-.5-2-1.5-2a79.84,79.84,0,0,0-15-.5,1.45,1.45,0,0,0-1,.5,2,2,0,0,0-.5,1.5q0,2,1.5,1.5h4a53.15,53.15,0,0,1,10.5,1A1.77,1.77,0,0,0,102.57,158.09Zm-29,1.5v-.5c-.33-1-1.17-1.33-2.5-1a48.77,48.77,0,0,0-14,5.5,2.27,2.27,0,0,0-.5,2.5,1.59,1.59,0,0,0,1.5,1,1.45,1.45,0,0,0,1-.5,67.38,67.38,0,0,1,13.5-5.5C73.24,161.09,73.57,160.59,73.57,159.59Zm-43,180.5,8.5-17.5h-7v-7a1.77,1.77,0,0,0-2-2c-1,0-1.5.67-1.5,2v7h-7Zm5.5-307.5a5.24,5.24,0,0,0-.75-2.75,5.8,5.8,0,0,0-2-2,5.24,5.24,0,0,0-2.75-.75,5.62,5.62,0,0,0-2.5.5,6.54,6.54,0,0,0-1.75,1.25,3.72,3.72,0,0,0-1,1.75,8.06,8.06,0,0,0-.25,2,5.4,5.4,0,0,0,1.5,4,5.09,5.09,0,0,0,3.75,1.5,6,6,0,0,0,4-1.5A5,5,0,0,0,36.07,32.59Zm-4,268.5v-15c0-1-.67-1.5-2-1.5a1.33,1.33,0,0,0-1.5,1.5v15a1.33,1.33,0,0,0,1.5,1.5C31.4,302.59,32.07,302.09,32.07,301.09Zm0-29.5v-15c0-1-.67-1.5-2-1.5a1.33,1.33,0,0,0-1.5,1.5v15c0,1.33.5,2,1.5,2A1.77,1.77,0,0,0,32.07,271.59Zm0-29.5v-15c0-1-.67-1.5-2-1.5a1.33,1.33,0,0,0-1.5,1.5v15a1.33,1.33,0,0,0,1.5,1.5C31.4,243.59,32.07,243.09,32.07,242.09Zm0-29.5v-14.5a1.77,1.77,0,0,0-2-2c-1,0-1.5.67-1.5,2v14.5c0,1.33.5,2,1.5,2A1.77,1.77,0,0,0,32.07,212.59Zm0-59v-14.5a1.77,1.77,0,0,0-2-2c-1,0-1.5.67-1.5,2v14.5c0,1.33.5,2,1.5,2A1.77,1.77,0,0,0,32.07,153.59Zm0-29.5v-14.5a1.77,1.77,0,0,0-2-2c-1,0-1.5.67-1.5,2v14.5c0,1.33.5,2,1.5,2A1.77,1.77,0,0,0,32.07,124.09Zm0-29.5V80.09a1.77,1.77,0,0,0-2-2c-1,0-1.5.67-1.5,2v14.5c0,1.33.5,2,1.5,2A1.77,1.77,0,0,0,32.07,94.59Zm0-29v-15a1.77,1.77,0,0,0-2-2c-1,0-1.5.67-1.5,2v15a1.33,1.33,0,0,0,1.5,1.5C31.4,67.09,32.07,66.59,32.07,65.59Z" transform="translate(-1.57 -0.59)" fill="#fbea23"/><path d="M201.07,230.09v103a29,29,0,0,1-29,29,27.11,27.11,0,0,1-20.25-8.5,28.37,28.37,0,0,1-8.25-20.5v-103q0-14.51-12-26.5-16.5-17-40.5-17.5-15.5,0-23.5,7.5-7.5,7-8,23a9.53,9.53,0,0,1-.5,3v114a27.11,27.11,0,0,1-8.5,20.25,28.08,28.08,0,0,1-20.25,8.25,28.08,28.08,0,0,1-20.25-8.25,27.11,27.11,0,0,1-8.5-20.25V29.09a27.35,27.35,0,0,1,8.5-20A27.93,27.93,0,0,1,30.57.59a27.11,27.11,0,0,1,20.25,8.5,27.78,27.78,0,0,1,8.25,20v104.5a90.11,90.11,0,0,1,33-5,119.89,119.89,0,0,1,44,9.5,109.93,109.93,0,0,1,37,25Q201.08,191.59,201.07,230.09Zm-5.5,103v-103q0-36.5-26.5-63.5a105.72,105.72,0,0,0-35-23.75,106.1,106.1,0,0,0-42-8.75q-19-.5-34.5,5.5a3.17,3.17,0,0,1-2.75-.25,2.46,2.46,0,0,1-1.25-2.25v-108a23,23,0,0,0-6.75-16.5,22,22,0,0,0-16.5-7,22,22,0,0,0-16.5,7,23,23,0,0,0-6.75,16.5v304.5a23.48,23.48,0,0,0,6.5,16.5,23.78,23.78,0,0,0,16.75,6.5,23.78,23.78,0,0,0,16.75-6.5,22.57,22.57,0,0,0,7-16.5v-117q.49-18,10-27t27-9q26.5.49,44.5,19,13,13.5,13,30.5v103a23.13,23.13,0,0,0,7,17q6.5,6.5,16.5,6.5t16.5-6.5A23.13,23.13,0,0,0,195.57,333.09Z" transform="translate(-1.57 -0.59)" fill="#1d1d1b"/><path d="M181.07,322.59l-9,17.5-9-17.5h7v-11a2,2,0,0,1,4,0v11Z" transform="translate(-1.57 -0.59)" fill="#5a5a5a"/><path d="M174.07,282.09v14.5a2,2,0,0,1-4,0v-14.5a2,2,0,0,1,4,0Z" transform="translate(-1.57 -0.59)" fill="#5a5a5a"/><path d="M174.07,252.59v14.5a2,2,0,0,1-4,0v-14.5a2,2,0,1,1,4,0Z" transform="translate(-1.57 -0.59)" fill="#5a5a5a"/><path d="M174.07,233.09v5c0,1-.67,1.5-2,1.5s-2-.5-2-1.5v-5q0-4.5-.5-9.5c0-1.33.5-2,1.5-2,1.33,0,2,.5,2,1.5A80.57,80.57,0,0,1,174.07,233.09Z" transform="translate(-1.57 -0.59)" fill="#5a5a5a"/><path d="M169.57,208.09v1a1.59,1.59,0,0,1-1,1.5h-.5a2,2,0,0,1-2-1,62.12,62.12,0,0,0-6.5-12.5,3,3,0,0,1,.5-3,2,2,0,0,1,3,1A77.73,77.73,0,0,1,169.57,208.09Z" transform="translate(-1.57 -0.59)" fill="#5a5a5a"/><path d="M153.57,183.09a1.45,1.45,0,0,1,.5,1,1.77,1.77,0,0,1-2,2,1.45,1.45,0,0,1-1-.5,55.78,55.78,0,0,0-11-9.5,1.59,1.59,0,0,1-.5-2.5q1.5-2,2.5-.5A66.84,66.84,0,0,1,153.57,183.09Z" transform="translate(-1.57 -0.59)" fill="#5a5a5a"/><path d="M130.57,166.59v1a1.59,1.59,0,0,1-1.5,1h-1a88.82,88.82,0,0,0-13.5-5.5c-1.33-.33-1.67-1.17-1-2.5.33-1,1.17-1.33,2.5-1a88.82,88.82,0,0,1,13.5,5.5C130.24,165.76,130.57,166.26,130.57,166.59Z" transform="translate(-1.57 -0.59)" fill="#5a5a5a"/><path d="M101.07,156.09c1,0,1.5.67,1.5,2a1.77,1.77,0,0,1-2,2,53.15,53.15,0,0,0-10.5-1h-4q-1.5.49-1.5-1.5a2,2,0,0,1,.5-1.5,1.45,1.45,0,0,1,1-.5A79.84,79.84,0,0,1,101.07,156.09Z" transform="translate(-1.57 -0.59)" fill="#5a5a5a"/><path d="M73.57,159.09v.5c0,1-.33,1.5-1,1.5a67.38,67.38,0,0,0-13.5,5.5,1.45,1.45,0,0,1-1,.5,1.59,1.59,0,0,1-1.5-1,2.27,2.27,0,0,1,.5-2.5,48.77,48.77,0,0,1,14-5.5C72.4,157.76,73.24,158.09,73.57,159.09Z" transform="translate(-1.57 -0.59)" fill="#5a5a5a"/><path d="M48.07,173.09a1.45,1.45,0,0,1,.5,1,2,2,0,0,1-.5,1.5,64.77,64.77,0,0,0-7.5,10.5,5,5,0,0,1,1,6q-2,5-7,3t-3-7c1-2.67,2.83-3.83,5.5-3.5a88.72,88.72,0,0,1,8-11.5A1.88,1.88,0,0,1,48.07,173.09Z" transform="translate(-1.57 -0.59)" fill="#5a5a5a"/><path d="M39.07,322.59l-8.5,17.5-9-17.5h7v-7c0-1.33.5-2,1.5-2a1.77,1.77,0,0,1,2,2v7Z" transform="translate(-1.57 -0.59)" fill="#5a5a5a"/><path d="M35.32,29.84a5.24,5.24,0,0,1,.75,2.75,5,5,0,0,1-1.75,4,6,6,0,0,1-4,1.5,5.09,5.09,0,0,1-3.75-1.5,5.4,5.4,0,0,1-1.5-4,8.06,8.06,0,0,1,.25-2,3.72,3.72,0,0,1,1-1.75,6.54,6.54,0,0,1,1.75-1.25,5.62,5.62,0,0,1,2.5-.5,5.24,5.24,0,0,1,2.75.75A5.8,5.8,0,0,1,35.32,29.84Z" transform="translate(-1.57 -0.59)" fill="#5a5a5a"/><path d="M32.07,286.09v15c0,1-.67,1.5-2,1.5a1.33,1.33,0,0,1-1.5-1.5v-15a1.33,1.33,0,0,1,1.5-1.5C31.4,284.59,32.07,285.09,32.07,286.09Z" transform="translate(-1.57 -0.59)" fill="#5a5a5a"/><path d="M32.07,256.59v15a1.77,1.77,0,0,1-2,2c-1,0-1.5-.67-1.5-2v-15a1.33,1.33,0,0,1,1.5-1.5C31.4,255.09,32.07,255.59,32.07,256.59Z" transform="translate(-1.57 -0.59)" fill="#5a5a5a"/><path d="M32.07,227.09v15c0,1-.67,1.5-2,1.5a1.33,1.33,0,0,1-1.5-1.5v-15a1.33,1.33,0,0,1,1.5-1.5C31.4,225.59,32.07,226.09,32.07,227.09Z" transform="translate(-1.57 -0.59)" fill="#5a5a5a"/><path d="M32.07,198.09v14.5a1.77,1.77,0,0,1-2,2c-1,0-1.5-.67-1.5-2v-14.5c0-1.33.5-2,1.5-2A1.77,1.77,0,0,1,32.07,198.09Z" transform="translate(-1.57 -0.59)" fill="#5a5a5a"/><path d="M32.07,168.59v14.5a1.77,1.77,0,0,1-2,2c-1,0-1.5-.67-1.5-2v-14.5c0-1.33.5-2,1.5-2A1.77,1.77,0,0,1,32.07,168.59Z" transform="translate(-1.57 -0.59)" fill="#5a5a5a"/><path d="M32.07,139.09v14.5a1.77,1.77,0,0,1-2,2c-1,0-1.5-.67-1.5-2v-14.5c0-1.33.5-2,1.5-2A1.77,1.77,0,0,1,32.07,139.09Z" transform="translate(-1.57 -0.59)" fill="#5a5a5a"/><path d="M32.07,109.59v14.5a1.77,1.77,0,0,1-2,2c-1,0-1.5-.67-1.5-2v-14.5c0-1.33.5-2,1.5-2A1.77,1.77,0,0,1,32.07,109.59Z" transform="translate(-1.57 -0.59)" fill="#5a5a5a"/><path d="M32.07,80.09v14.5a1.77,1.77,0,0,1-2,2c-1,0-1.5-.67-1.5-2V80.09c0-1.33.5-2,1.5-2A1.77,1.77,0,0,1,32.07,80.09Z" transform="translate(-1.57 -0.59)" fill="#5a5a5a"/><path d="M32.07,50.59v15c0,1-.67,1.5-2,1.5a1.33,1.33,0,0,1-1.5-1.5v-15c0-1.33.5-2,1.5-2A1.77,1.77,0,0,1,32.07,50.59Z" transform="translate(-1.57 -0.59)" fill="#5a5a5a"/></svg>