<svg id="Layer_1" data-name="Layer 1" xmlns="http://www.w3.org/2000/svg" viewBox="0 0 75.5 322.5"><path d="M61.41,15.47a30.58,30.58,0,0,1,9.5,22.75,32.28,32.28,0,0,1-2.5,12.5,29.58,29.58,0,0,1-7,10.25,38.08,38.08,0,0,1-10.5,7,29.62,29.62,0,0,1-12.5,2.75,30.68,30.68,0,0,1-22.5-9.5,31.28,31.28,0,0,1-9.5-23,30.51,30.51,0,0,1,9.5-22.75A31.45,31.45,0,0,1,38.66,6.22,31.52,31.52,0,0,1,61.41,15.47Zm-17.5,23a6,6,0,0,0-1.5-4,4.76,4.76,0,0,0-3.75-1.75,6,6,0,0,0-5.75,5.75,4.7,4.7,0,0,0,1.75,3.75,6,6,0,0,0,4,1.5,5.13,5.13,0,0,0,5.25-5.25Z" transform="translate(-0.91 -0.72)" fill="#fbea23"/><path d="M61.91,118.72v176a22.58,22.58,0,0,1-7,16.5q-6.51,6.51-16.5,6.5t-16.5-6.5a22.5,22.5,0,0,1-7-16.5v-176A22.75,22.75,0,0,1,21.66,102a22.44,22.44,0,0,1,16.5-6.75A23.31,23.31,0,0,1,54.91,102,22.36,22.36,0,0,1,61.91,118.72Zm-23.5,189,8.5-18h-7v-5a1.33,1.33,0,0,0-1.5-1.5,2,2,0,0,0-2,1.5v5h-7Zm5.5-188a5,5,0,0,0-1.75-4,6,6,0,0,0-4-1.5,5.09,5.09,0,0,0-3.75,1.5,5.42,5.42,0,0,0-1.5,4,5.21,5.21,0,0,0,.75,2.75,5.64,5.64,0,0,0,2,2,5.21,5.21,0,0,0,2.75.75,5.72,5.72,0,0,0,3.75-1.5A5,5,0,0,0,43.91,119.72Zm-4,150.5v-15a1.33,1.33,0,0,0-1.5-1.5,2,2,0,0,0-2,1.5v15c0,1.34.57,2,1.75,2S39.91,271.56,39.91,270.22Zm0-29.5v-15a1.33,1.33,0,0,0-1.5-1.5,2,2,0,0,0-2,1.5v15c0,1.34.57,2,1.75,2S39.91,242.06,39.91,240.72Zm0-29.5v-15a1.33,1.33,0,0,0-1.5-1.5,2,2,0,0,0-2,1.5v15c0,1.34.57,2,1.75,2S39.91,212.56,39.91,211.22Zm0-29.5v-15a1.33,1.33,0,0,0-1.5-1.5,2,2,0,0,0-2,1.5v15c0,1.34.57,2,1.75,2S39.91,183.06,39.91,181.72Zm0-29.5v-14.5c0-1.32-.5-2-1.5-2s-1.68.68-2,2v14.5c0,1.34.57,2,1.75,2S39.91,153.56,39.91,152.22Z" transform="translate(-0.91 -0.72)" fill="#fbea23"/><path d="M73.41,23.72a36.5,36.5,0,0,1,3,14.5,35.69,35.69,0,0,1-11.25,26.5,37,37,0,0,1-26.75,11,36.06,36.06,0,0,1-26.5-11,36.06,36.06,0,0,1-11-26.5,36.13,36.13,0,0,1,11-26.5,36.14,36.14,0,0,1,26.5-11,36,36,0,0,1,14.75,3,42.25,42.25,0,0,1,12,8A36,36,0,0,1,73.41,23.72Zm-2.5,14.5a30.58,30.58,0,0,0-9.5-22.75A31.52,31.52,0,0,0,38.66,6.22a31.45,31.45,0,0,0-22.75,9.25,30.51,30.51,0,0,0-9.5,22.75,31.28,31.28,0,0,0,9.5,23,30.68,30.68,0,0,0,22.5,9.5A29.62,29.62,0,0,0,50.91,68a38.08,38.08,0,0,0,10.5-7,29.58,29.58,0,0,0,7-10.25A32.28,32.28,0,0,0,70.91,38.22Z" transform="translate(-0.91 -0.72)" fill="#1d1d1b"/><path d="M66.91,118.72v176a28.17,28.17,0,0,1-28.5,28.5A28.36,28.36,0,0,1,17.91,315a27.07,27.07,0,0,1-8.5-20.25v-176a27.91,27.91,0,0,1,8.5-20.5,28,28,0,0,1,20.5-8.5,27.15,27.15,0,0,1,20.25,8.5A28.39,28.39,0,0,1,66.91,118.72Zm-5,176v-176a22.36,22.36,0,0,0-7-16.75,23.31,23.31,0,0,0-16.75-6.75A22.44,22.44,0,0,0,21.66,102a22.75,22.75,0,0,0-6.75,16.75v176a22.5,22.5,0,0,0,7,16.5q6.48,6.51,16.5,6.5t16.5-6.5A22.58,22.58,0,0,0,61.91,294.72Z" transform="translate(-0.91 -0.72)" fill="#1d1d1b"/><path d="M46.91,289.72l-8.5,18-9-18h7v-5a2,2,0,0,1,2-1.5,1.33,1.33,0,0,1,1.5,1.5v5Z" transform="translate(-0.91 -0.72)" fill="#5a5a5a"/><path d="M42.41,34.47a6,6,0,0,1,1.5,4,5.13,5.13,0,0,1-5.25,5.25,6,6,0,0,1-4-1.5,4.7,4.7,0,0,1-1.75-3.75,6,6,0,0,1,5.75-5.75A4.76,4.76,0,0,1,42.41,34.47Z" transform="translate(-0.91 -0.72)" fill="#5a5a5a"/><path d="M42.16,115.72a5.45,5.45,0,0,1,0,8,5.72,5.72,0,0,1-3.75,1.5,5.21,5.21,0,0,1-2.75-.75,5.64,5.64,0,0,1-2-2,5.21,5.21,0,0,1-.75-2.75,5.42,5.42,0,0,1,1.5-4,5.09,5.09,0,0,1,3.75-1.5A6,6,0,0,1,42.16,115.72Z" transform="translate(-0.91 -0.72)" fill="#5a5a5a"/><path d="M39.91,255.72v14.5c0,1.34-.59,2-1.75,2s-1.75-.66-1.75-2v-15a2,2,0,0,1,2-1.5,1.33,1.33,0,0,1,1.5,1.5Z" transform="translate(-0.91 -0.72)" fill="#5a5a5a"/><path d="M39.91,226.22v14.5c0,1.34-.59,2-1.75,2s-1.75-.66-1.75-2v-15a2,2,0,0,1,2-1.5,1.33,1.33,0,0,1,1.5,1.5Z" transform="translate(-0.91 -0.72)" fill="#5a5a5a"/><path d="M39.91,197.22v14c0,1.34-.59,2-1.75,2s-1.75-.66-1.75-2v-15a2,2,0,0,1,2-1.5,1.33,1.33,0,0,1,1.5,1.5v1Z" transform="translate(-0.91 -0.72)" fill="#5a5a5a"/><path d="M39.91,174.47v7.25c0,1.34-.59,2-1.75,2s-1.75-.66-1.75-2v-15a2,2,0,0,1,2-1.5,1.33,1.33,0,0,1,1.5,1.5v7.75Z" transform="translate(-0.91 -0.72)" fill="#5a5a5a"/><path d="M39.91,138.22v14c0,1.34-.59,2-1.75,2s-1.75-.66-1.75-2v-14.5c.32-1.32,1-2,2-2s1.5.68,1.5,2Z" transform="translate(-0.91 -0.72)" fill="#5a5a5a"/></svg>