<svg id="Layer_1" data-name="Layer 1" xmlns="http://www.w3.org/2000/svg" viewBox="0 0 103.03 415"><path d="M90.19,15.91a30.53,30.53,0,0,1,9.5,22.75,31.33,31.33,0,0,1-9.5,23,31,31,0,0,1-22.75,9.5,31,31,0,0,1-22.75-9.5,31.33,31.33,0,0,1-9.5-23,30.53,30.53,0,0,1,9.5-22.75A31.49,31.49,0,0,1,67.44,6.66,31.49,31.49,0,0,1,90.19,15.91Zm-17,23a6,6,0,0,0-5.75-5.75,4.76,4.76,0,0,0-3.75,1.75,6,6,0,0,0-1.5,4,5.13,5.13,0,0,0,5.25,5.25,6,6,0,0,0,4-1.5A4.73,4.73,0,0,0,73.19,38.91Z" transform="translate(-2.16 -1.16)" fill="#fbea23"/><path d="M90.69,174.66l.5,14q0,57-.25,84t-3.5,57.75q-3.25,30.75-9.75,46.75a66.56,66.56,0,0,1-13.5,20.5,45.15,45.15,0,0,1-32.5,13h-1.5a23.56,23.56,0,0,1-16.25-7.5,24,24,0,0,1-4.25-25.75,24.48,24.48,0,0,1,5.5-7.5,21.66,21.66,0,0,1,8-4.75,18.81,18.81,0,0,1,7.5-1.5,2.87,2.87,0,0,0,2-1l2-4q6.5-16,8.25-54.25t1.25-122.75q-.49-40-.5-62.5a22.57,22.57,0,0,1,7-16.5,22.89,22.89,0,0,1,16.75-7,22.07,22.07,0,0,1,16.5,7,23,23,0,0,1,6.75,16.5Zm-18-50a5.42,5.42,0,0,0-1.5-4,5.09,5.09,0,0,0-3.75-1.5,6,6,0,0,0-4,1.5,5,5,0,0,0-1.75,4,5.24,5.24,0,0,0,.75,2.75,5.72,5.72,0,0,0,2,2,5.24,5.24,0,0,0,2.75.75,5.16,5.16,0,0,0,5.5-5.5Zm-3.5,146.5v-14.5a2.07,2.07,0,0,0-.5-1.5c-.33-.66-.92-.83-1.75-.5a2,2,0,0,0-1.25,2q0,10-.5,14.5a2,2,0,0,0,4,0Zm0-29.5v-14.5c0-1.33-.58-2-1.75-2s-1.75.67-1.75,2v14.5c0,1.34.58,2,1.75,2S69.19,243,69.19,241.66Zm0-29v-15c0-1-.58-1.5-1.75-1.5s-1.75.5-1.75,1.5v15c0,1,.58,1.5,1.75,1.5S69.19,213.66,69.19,212.66Zm0-29.5v-15c-.33-1-.92-1.5-1.75-1.5s-1.42.5-1.75,1.5v15c0,1.34.58,2,1.75,2S69.19,184.5,69.19,183.16Zm0-29.5v-15c0-1-.67-1.5-2-1.5a1.33,1.33,0,0,0-1.5,1.5v15c0,1.34.58,2,1.75,2S69.19,155,69.19,153.66Zm-1,146.5.5-14a2.07,2.07,0,0,0-.5-1.5,1.45,1.45,0,0,0-1-.5h-.5c-1,0-1.5.67-1.5,2q0,3-.5,14.5c-.33,1.34.17,2,1.5,2h.5c1,0,1.5-.66,1.5-2Zm-1,15.5v-.5a1.33,1.33,0,0,0-1.5-1.5c-1.33,0-2,.5-2,1.5q-.49,10.5-1,14.5-.49,1,0,1.5a2,2,0,0,0,1.5.5,2,2,0,0,0,2-1.5Q66.69,324.65,67.19,315.66Zm-3,29a2,2,0,0,0-1.5-2c-1.33-.33-2,.17-2,1.5l-3,14q-.49,1,0,1.5l1,1h.5a1.33,1.33,0,0,0,1.5-1.5Q62.19,355.67,64.19,344.66Zm-8.5,28.5v-.5c0-1-.33-1.5-1-1.5a1.59,1.59,0,0,0-2.5.5,26.56,26.56,0,0,1-5,7l-1.5-4.5-14.5,13,19,4-2-8A48.75,48.75,0,0,0,55.69,373.16Z" transform="translate(-2.16 -1.16)" fill="#fbea23"/><path d="M94.19,12.16a36.15,36.15,0,0,1,11,26.5,36.12,36.12,0,0,1-11,26.5,36.38,36.38,0,0,1-26.75,11,36.38,36.38,0,0,1-26.75-11,36.12,36.12,0,0,1-11-26.5,36.15,36.15,0,0,1,11-26.5,36.42,36.42,0,0,1,26.75-11A36.42,36.42,0,0,1,94.19,12.16Zm5.5,26.5a30.53,30.53,0,0,0-9.5-22.75A31.49,31.49,0,0,0,67.44,6.66a31.49,31.49,0,0,0-22.75,9.25,30.53,30.53,0,0,0-9.5,22.75,31.33,31.33,0,0,0,9.5,23,31,31,0,0,0,22.75,9.5,31,31,0,0,0,22.75-9.5A31.33,31.33,0,0,0,99.69,38.66Z" transform="translate(-2.16 -1.16)" fill="#1d1d1b"/><path d="M96.19,188.66q.5,57.51,0,84.5t-3.5,58.25q-3,31.24-10,47.75-6,13.5-14.5,22-15,15-36.5,15h-1.5a28.48,28.48,0,0,1-20.25-9.25,27.46,27.46,0,0,1-7.75-20.75,24.83,24.83,0,0,1,2.5-10.75,30.91,30.91,0,0,1,6.75-9.25,28,28,0,0,1,9.75-6,21.45,21.45,0,0,1,7.5-1.5l1-2q6.5-15.5,8-54t1-121v-62.5a28.37,28.37,0,0,1,8.25-20.5,27.15,27.15,0,0,1,20.25-8.5,29,29,0,0,1,29,29v69.5Zm-5,0-.5-14v-55.5a23,23,0,0,0-6.75-16.5,22.07,22.07,0,0,0-16.5-7,22.89,22.89,0,0,0-16.75,7,22.57,22.57,0,0,0-7,16.5q0,22.5.5,62.5.5,84.51-1.25,122.75t-8.25,54.25l-2,4a2.87,2.87,0,0,1-2,1,18.81,18.81,0,0,0-7.5,1.5,21.66,21.66,0,0,0-8,4.75,24.48,24.48,0,0,0-5.5,7.5,24,24,0,0,0,4.25,25.75,23.56,23.56,0,0,0,16.25,7.5h1.5a45.15,45.15,0,0,0,32.5-13,66.56,66.56,0,0,0,13.5-20.5q6.5-16,9.75-46.75t3.5-57.75Q91.2,245.66,91.19,188.66Z" transform="translate(-2.16 -1.16)" fill="#1d1d1b"/><path d="M71.44,34.91a5.5,5.5,0,0,1,1.75,4,4.73,4.73,0,0,1-1.75,3.75,6,6,0,0,1-4,1.5,5.13,5.13,0,0,1-5.25-5.25,6,6,0,0,1,1.5-4,4.76,4.76,0,0,1,3.75-1.75A5.54,5.54,0,0,1,71.44,34.91Z" transform="translate(-2.16 -1.16)" fill="#5a5a5a"/><path d="M71.19,120.66a5.5,5.5,0,0,1-4,9.5,5.24,5.24,0,0,1-2.75-.75,5.72,5.72,0,0,1-2-2,5.24,5.24,0,0,1-.75-2.75,5,5,0,0,1,1.75-4,6,6,0,0,1,4-1.5A5.09,5.09,0,0,1,71.19,120.66Z" transform="translate(-2.16 -1.16)" fill="#5a5a5a"/><path d="M69.19,263.41v7.75a2,2,0,0,1-4,0q.5-4.5.5-14.5a2,2,0,0,1,1.25-2c.83-.33,1.42-.16,1.75.5a2.07,2.07,0,0,1,.5,1.5Z" transform="translate(-2.16 -1.16)" fill="#5a5a5a"/><path d="M69.19,227.16v14.5c0,1.34-.58,2-1.75,2s-1.75-.66-1.75-2v-14.5c0-1.33.58-2,1.75-2S69.19,225.83,69.19,227.16Z" transform="translate(-2.16 -1.16)" fill="#5a5a5a"/><path d="M69.19,197.66v15c0,1-.58,1.5-1.75,1.5s-1.75-.5-1.75-1.5v-15c0-1,.58-1.5,1.75-1.5S69.19,196.66,69.19,197.66Z" transform="translate(-2.16 -1.16)" fill="#5a5a5a"/><path d="M69.19,168.66v14.5c0,1.34-.58,2-1.75,2s-1.75-.66-1.75-2v-15c.33-1,.92-1.5,1.75-1.5s1.42.5,1.75,1.5Z" transform="translate(-2.16 -1.16)" fill="#5a5a5a"/><path d="M69.19,146.41v7.25c0,1.34-.58,2-1.75,2s-1.75-.66-1.75-2v-15a1.33,1.33,0,0,1,1.5-1.5c1.33,0,2,.5,2,1.5Z" transform="translate(-2.16 -1.16)" fill="#5a5a5a"/><path d="M68.69,286.16l-.5,14v.5c0,1.34-.5,2-1.5,2h-.5c-1.33,0-1.83-.66-1.5-2q.5-11.49.5-14.5c0-1.33.5-2,1.5-2h.5a1.45,1.45,0,0,1,1,.5A2.07,2.07,0,0,1,68.69,286.16Z" transform="translate(-2.16 -1.16)" fill="#5a5a5a"/><path d="M67.19,315.16v.5q-.5,9-1,14.5a2,2,0,0,1-2,1.5,2,2,0,0,1-1.5-.5q-.49-.5,0-1.5.5-4,1-14.5c0-1,.67-1.5,2-1.5A1.33,1.33,0,0,1,67.19,315.16Z" transform="translate(-2.16 -1.16)" fill="#5a5a5a"/><path d="M62.69,342.66a2,2,0,0,1,1.5,2q-2,11-3.5,14.5a1.33,1.33,0,0,1-1.5,1.5h-.5l-1-1q-.49-.5,0-1.5l3-14C60.69,342.83,61.36,342.33,62.69,342.66Z" transform="translate(-2.16 -1.16)" fill="#5a5a5a"/><path d="M55.69,372.66v.5a48.75,48.75,0,0,1-7.5,10l2,8-19-4,14.5-13,1.5,4.5a26.56,26.56,0,0,0,5-7,1.59,1.59,0,0,1,2.5-.5C55.36,371.16,55.69,371.66,55.69,372.66Z" transform="translate(-2.16 -1.16)" fill="#5a5a5a"/></svg>