<svg id="Layer_1" data-name="Layer 1" xmlns="http://www.w3.org/2000/svg" viewBox="0 0 192.62 362.13"><path d="M187.65,332.07a20.92,20.92,0,0,1-1,9,11.87,11.87,0,0,1-2.5,5.5,14.81,14.81,0,0,1-4,5,26.25,26.25,0,0,1-6.5,4,35.05,35.05,0,0,1-8.5,2,22.05,22.05,0,0,1-7-1,14,14,0,0,1-8-4l-93-70a2.45,2.45,0,0,0-4,2v49.5a22.58,22.58,0,0,1-7,16.5,23.74,23.74,0,0,1-16.75,6.5,23.72,23.72,0,0,1-16.75-6.5,23.4,23.4,0,0,1-6.5-16.5V29.57a23,23,0,0,1,6.75-16.5,22.07,22.07,0,0,1,16.5-7,22.89,22.89,0,0,1,16.75,7,22.61,22.61,0,0,1,7,16.5v157.5a2.44,2.44,0,0,0,1.25,2.25,2.42,2.42,0,0,0,2.75-.25l58.5-34q27-16,30-18h.5a28.33,28.33,0,0,1,8.5-3,20.92,20.92,0,0,1,9,1,21.91,21.91,0,0,1,8.25,3.75,24.41,24.41,0,0,1,6.25,6.75,22.81,22.81,0,0,1,2.5,18,21.29,21.29,0,0,1-11,14l-94.5,55a3.11,3.11,0,0,0-1,2.25,3.07,3.07,0,0,0,1,2.25l103.5,78,3,3a19.22,19.22,0,0,1,3.5,5A25.91,25.91,0,0,1,187.65,332.07Zm-16.5,7-8.5-17.5-10.5,14Zm-15.5-170,11-16.5-20,1,3.5,6a9.71,9.71,0,0,1-1.75,1.25c-.84.5-1.59.92-2.25,1.25l-2,1v.5h-.5a3.76,3.76,0,0,0-.5,1.5v1a1.59,1.59,0,0,0,1.5,1,1.43,1.43,0,0,0,1-.5,22.75,22.75,0,0,1,4-2,6.38,6.38,0,0,1,2.5-1.5Zm-4,155a1.6,1.6,0,0,0-.5-2.5l-2.5-2q-2.51-1.5-9-6.5-2-1.5-3,0a1.43,1.43,0,0,0-.5,1,1.59,1.59,0,0,0,1,1.5c3,2.34,5.16,4,6.5,5a40.91,40.91,0,0,1,5,4,3.67,3.67,0,0,0,1.5.5C150.48,325.07,151,324.74,151.65,324.07Zm-18.5-150,1-1a2.07,2.07,0,0,0-.5-1.5c-.67-1.33-1.5-1.5-2.5-.5-.67.34-1.75.92-3.25,1.75s-2.75,1.59-3.75,2.25c-.67.34-1.59.84-2.75,1.5s-2.09,1.17-2.75,1.5a2,2,0,0,0-1,2v1a4.32,4.32,0,0,0,2,.5h1l2-1.5q.5,0,4.5-2.5T133.15,174.07Zm-5,132.5a1.6,1.6,0,0,0-.5-2.5c-.67-.66-1.42-1.33-2.25-2s-1.75-1.33-2.75-2a13.62,13.62,0,0,1-2-1.5,40.59,40.59,0,0,1-4.5-3.5h-.5a1.6,1.6,0,0,0-2.5.5v1a2,2,0,0,0,.5,1.5l6,4.5,6,4.5h1A2,2,0,0,0,128.15,306.57Zm-20.5-118c1-.33,1.16-1.16.5-2.5-.34-1-1.17-1.16-2.5-.5l-4,2.5a27.4,27.4,0,0,1-3,1.75,29.11,29.11,0,0,0-3,1.75,24,24,0,0,1-2.5,1.5,1.61,1.61,0,0,0-1,1.5,1.4,1.4,0,0,0,.5,1,1.59,1.59,0,0,0,1.5,1l1-.5q1.5-1,4.75-2.75c2.16-1.16,3.75-2.08,4.75-2.75Zm-3,100c1-1,.83-1.83-.5-2.5q-5.5-4-7-5a35.21,35.21,0,0,0-4.5-3.5v-.5h-.5a2.28,2.28,0,0,0-2.5.5v1a2,2,0,0,0,.5,1.5l6,4.5,6,4.5c0,.34.33.5,1,.5A1.61,1.61,0,0,0,104.65,288.57Zm-22.5-85a1.8,1.8,0,1,0-2-3q-4,2.51-5.5,3.5a50.28,50.28,0,0,0-7,4,1.61,1.61,0,0,0-1,1.5,1.4,1.4,0,0,0,.5,1,2,2,0,0,0,1.5.5h1l3.5-2q1.5-1,4.5-2.75T82.15,203.57Zm-.5,66-1-1-2.5-2c-1-.66-2.09-1.41-3.25-2.25s-2.25-1.66-3.25-2.5-1.84-1.58-2.5-2.25a2.18,2.18,0,0,0-3,.5v1a2,2,0,0,0,.5,1.5c1,.67,2.16,1.5,3.5,2.5s2.83,2.09,4.5,3.25,3,2.09,4,2.75c0,.34.33.5,1,.5a2,2,0,0,0,1.5-.5A3.83,3.83,0,0,0,81.65,269.57Zm-25-51c1.33-.66,1.66-1.5,1-2.5a2,2,0,0,0-2.5-1q-3,2-6.5,4a49.43,49.43,0,0,0-5,3c-2-1.66-4-2-6-1q-5,3-2.25,7.75t7.75,1.75q3.49-1.5,2.5-5.5l.5-.5Q54.15,220.07,56.65,218.57Zm1,35q.49-1,0-1.5c0-.66-.17-1-.5-1q-3.51-3-10.5-8,1.5-4-1.5-6-4.5-3.49-7.75,1t.75,7.5q3.49,2.51,6.5.5a5.47,5.47,0,0,0,1.5,1,7,7,0,0,1,1.75,1.25,16,16,0,0,0,1.75,1.5,12.43,12.43,0,0,0,2,1.25l3.5,2.5a1.4,1.4,0,0,0,1,.5A3.76,3.76,0,0,0,57.65,253.57Zm-28,88,8.5-18h-7v-6c0-1.33-.59-2-1.75-2s-1.75.67-1.75,2v6h-7Zm5.5-306.5a4.51,4.51,0,0,0-.5-2,6.54,6.54,0,0,0-3-3,4.51,4.51,0,0,0-2-.5,5.16,5.16,0,0,0-5.5,5.5,5.24,5.24,0,0,0,.75,2.75,5.64,5.64,0,0,0,2,2,5.24,5.24,0,0,0,2.75.75,4.38,4.38,0,0,0,2-.5,6.54,6.54,0,0,0,3-3A4.45,4.45,0,0,0,35.15,35.07Zm-4,268v-15c0-1-.59-1.5-1.75-1.5s-1.75.5-1.75,1.5v15c0,1,.58,1.5,1.75,1.5S31.15,304.07,31.15,303.07Zm0-29.5v-15c0-1-.59-1.5-1.75-1.5s-1.75.5-1.75,1.5v15c0,1,.58,1.5,1.75,1.5S31.15,274.57,31.15,273.57Zm0-29.5v-14.5c0-1.33-.59-2-1.75-2s-1.75.67-1.75,2v14.5c0,1.34.58,2,1.75,2S31.15,245.41,31.15,244.07Zm0-29.5v-14.5c0-1.33-.59-2-1.75-2s-1.75.67-1.75,2v14.5c0,1.34.58,2,1.75,2S31.15,215.91,31.15,214.57Zm0-29v-15c0-1-.59-1.5-1.75-1.5s-1.75.5-1.75,1.5v15c0,1,.58,1.5,1.75,1.5S31.15,186.57,31.15,185.57Zm0-29.5v-15c0-1-.59-1.5-1.75-1.5s-1.75.5-1.75,1.5v15c0,1,.58,1.5,1.75,1.5S31.15,157.07,31.15,156.07Zm0-29.5v-14.5c0-1.33-.59-2-1.75-2s-1.75.67-1.75,2v14.5c0,1.34.58,2,1.75,2S31.15,127.91,31.15,126.57Zm0-29.5V82.57c0-1.33-.59-2-1.75-2s-1.75.67-1.75,2v14.5c0,1.34.58,2,1.75,2S31.15,98.41,31.15,97.07Zm0-29.5V53.07c0-1.33-.59-2-1.75-2s-1.75.67-1.75,2v14.5c0,1.34.58,2,1.75,2S31.15,68.91,31.15,67.57Z" transform="translate(-0.65 -0.57)" fill="#fbea23"/><path d="M193.15,331.57a30.93,30.93,0,0,1-1,11,40.29,40.29,0,0,1-3.5,6.5,19.87,19.87,0,0,1-5,6.5,32.48,32.48,0,0,1-8,5,24.27,24.27,0,0,1-10,2,20.77,20.77,0,0,1-9-1,36.86,36.86,0,0,1-6.5-2.5l-3-2-89-67v44a27.15,27.15,0,0,1-8.5,20.25,28.08,28.08,0,0,1-20.25,8.25,28,28,0,0,1-20.25-8.25,27.11,27.11,0,0,1-8.5-20.25V29.57a27.93,27.93,0,0,1,8.5-20.5A27.65,27.65,0,0,1,29.4.57a27.69,27.69,0,0,1,20.25,8.5,28,28,0,0,1,8.5,20.5v152.5q81-47,85-49.5a39,39,0,0,1,10.75-3.5,25.69,25.69,0,0,1,11.25.5,28.34,28.34,0,0,1,10,5,30.75,30.75,0,0,1,7.5,8.5,28.36,28.36,0,0,1,3,22,27.42,27.42,0,0,1-13.5,17.5l-90.5,53,100,75.5a39,39,0,0,1,4,3.5,19.1,19.1,0,0,1,4,6A25.26,25.26,0,0,1,193.15,331.57Zm-6.5,9.5a20.92,20.92,0,0,0,1-9,25.91,25.91,0,0,0-2.5-9,19.22,19.22,0,0,0-3.5-5l-3-3-103.5-78a3.07,3.07,0,0,1-1-2.25,3.11,3.11,0,0,1,1-2.25l94.5-55a21.29,21.29,0,0,0,11-14,22.81,22.81,0,0,0-2.5-18,24.41,24.41,0,0,0-6.25-6.75,21.91,21.91,0,0,0-8.25-3.75,20.92,20.92,0,0,0-9-1,28.33,28.33,0,0,0-8.5,3h-.5q-3,2-30,18l-58.5,34a2.42,2.42,0,0,1-2.75.25,2.44,2.44,0,0,1-1.25-2.25V29.57a22.61,22.61,0,0,0-7-16.5,22.89,22.89,0,0,0-16.75-7,22.07,22.07,0,0,0-16.5,7,23,23,0,0,0-6.75,16.5v304.5a23.4,23.4,0,0,0,6.5,16.5,23.72,23.72,0,0,0,16.75,6.5,23.74,23.74,0,0,0,16.75-6.5,22.58,22.58,0,0,0,7-16.5v-49.5a2.45,2.45,0,0,1,4-2l93,70a14,14,0,0,0,8,4,22.05,22.05,0,0,0,7,1,35.05,35.05,0,0,0,8.5-2,26.25,26.25,0,0,0,6.5-4,14.81,14.81,0,0,0,4-5A11.87,11.87,0,0,0,186.65,341.07Z" transform="translate(-0.65 -0.57)" fill="#1d1d1b"/><polygon points="162 321 170.5 338.5 151.5 335 162 321" fill="#5a5a5a"/><path d="M166.65,152.57l-11,16.5-3.5-6a6.38,6.38,0,0,0-2.5,1.5,22.75,22.75,0,0,0-4,2,1.43,1.43,0,0,1-1,.5,1.59,1.59,0,0,1-1.5-1v-1a3.76,3.76,0,0,1,.5-1.5h.5v-.5l2-1c.66-.33,1.41-.75,2.25-1.25a9.71,9.71,0,0,0,1.75-1.25l-3.5-6Z" transform="translate(-0.65 -0.57)" fill="#5a5a5a"/><path d="M151.15,321.57a1.6,1.6,0,0,1,.5,2.5c-.67.67-1.17,1-1.5,1a3.67,3.67,0,0,1-1.5-.5,40.91,40.91,0,0,0-5-4c-1.34-1-3.5-2.66-6.5-5a1.59,1.59,0,0,1-1-1.5,1.43,1.43,0,0,1,.5-1q1-1.5,3,0,6.49,5,9,6.5Z" transform="translate(-0.65 -0.57)" fill="#5a5a5a"/><path d="M134.15,173.07l-1,1q-2,1-6,3.5t-4.5,2.5l-2,1.5h-1a4.32,4.32,0,0,1-2-.5v-1a2,2,0,0,1,1-2c.66-.33,1.58-.83,2.75-1.5s2.08-1.16,2.75-1.5q1.5-1,3.75-2.25c1.5-.83,2.58-1.41,3.25-1.75,1-1,1.83-.83,2.5.5A2.07,2.07,0,0,1,134.15,173.07Z" transform="translate(-0.65 -0.57)" fill="#5a5a5a"/><path d="M127.65,304.07a1.6,1.6,0,0,1,.5,2.5,2,2,0,0,1-1.5.5h-1l-6-4.5-6-4.5a2,2,0,0,1-.5-1.5v-1a1.6,1.6,0,0,1,2.5-.5h.5a40.59,40.59,0,0,0,4.5,3.5,13.62,13.62,0,0,0,2,1.5c1,.67,1.91,1.34,2.75,2S127,303.41,127.65,304.07Z" transform="translate(-0.65 -0.57)" fill="#5a5a5a"/><path d="M108.15,186.07c.66,1.34.5,2.17-.5,2.5l-3,2c-1,.67-2.59,1.59-4.75,2.75s-3.75,2.09-4.75,2.75l-1,.5a1.59,1.59,0,0,1-1.5-1,1.4,1.4,0,0,1-.5-1,1.61,1.61,0,0,1,1-1.5,24,24,0,0,0,2.5-1.5,29.11,29.11,0,0,1,3-1.75,27.4,27.4,0,0,0,3-1.75l4-2.5C107,184.91,107.81,185.07,108.15,186.07Z" transform="translate(-0.65 -0.57)" fill="#5a5a5a"/><path d="M92.65,277.57a35.21,35.21,0,0,1,4.5,3.5q1.5,1,7,5c1.33.67,1.5,1.5.5,2.5a1.61,1.61,0,0,1-1.5,1c-.67,0-1-.16-1-.5l-6-4.5-6-4.5a2,2,0,0,1-.5-1.5v-1a2.28,2.28,0,0,1,2.5-.5h.5Z" transform="translate(-0.65 -0.57)" fill="#5a5a5a"/><path d="M82.65,201.07a1.6,1.6,0,0,1-.5,2.5q-1.5,1-4.5,2.75t-4.5,2.75l-3.5,2h-1a2,2,0,0,1-1.5-.5,1.4,1.4,0,0,1-.5-1,1.61,1.61,0,0,1,1-1.5,50.28,50.28,0,0,1,7-4q1.5-1,5.5-3.5A1.6,1.6,0,0,1,82.65,201.07Z" transform="translate(-0.65 -0.57)" fill="#5a5a5a"/><path d="M80.65,268.57l1,1a3.83,3.83,0,0,1-.5,1.5,2,2,0,0,1-1.5.5c-.67,0-1-.16-1-.5-1-.66-2.34-1.58-4-2.75s-3.17-2.25-4.5-3.25-2.5-1.83-3.5-2.5a2,2,0,0,1-.5-1.5v-1a2.18,2.18,0,0,1,3-.5c.66.67,1.5,1.42,2.5,2.25s2.08,1.67,3.25,2.5,2.25,1.59,3.25,2.25Z" transform="translate(-0.65 -0.57)" fill="#5a5a5a"/><path d="M57.65,216.07c.66,1,.33,1.84-1,2.5q-2.51,1.5-10.5,6l-.5.5q1,4-2.5,5.5-5,3-7.75-1.75t2.25-7.75c2-1,4-.66,6,1a49.43,49.43,0,0,1,5-3q3.49-2,6.5-4A2,2,0,0,1,57.65,216.07Z" transform="translate(-0.65 -0.57)" fill="#5a5a5a"/><path d="M57.65,252.07q.49.51,0,1.5a3.76,3.76,0,0,1-1.5.5,1.4,1.4,0,0,1-1-.5l-3.5-2.5a12.43,12.43,0,0,1-2-1.25,16,16,0,0,1-1.75-1.5,7,7,0,0,0-1.75-1.25,5.47,5.47,0,0,1-1.5-1q-3,2-6.5-.5-4-3-.75-7.5t7.75-1q3,2,1.5,6,7,5,10.5,8C57.48,251.07,57.65,251.41,57.65,252.07Z" transform="translate(-0.65 -0.57)" fill="#5a5a5a"/><path d="M38.15,323.57l-8.5,18-9-18h7v-6c0-1.33.58-2,1.75-2s1.75.67,1.75,2v6Z" transform="translate(-0.65 -0.57)" fill="#5a5a5a"/><path d="M34.65,33.07a4.51,4.51,0,0,1,.5,2,4.45,4.45,0,0,1-.5,2,6.54,6.54,0,0,1-3,3,4.38,4.38,0,0,1-2,.5,5.24,5.24,0,0,1-2.75-.75,5.64,5.64,0,0,1-2-2,5.24,5.24,0,0,1-.75-2.75,5.16,5.16,0,0,1,5.5-5.5,4.51,4.51,0,0,1,2,.5,6.54,6.54,0,0,1,3,3Z" transform="translate(-0.65 -0.57)" fill="#5a5a5a"/><path d="M31.15,288.07v15c0,1-.59,1.5-1.75,1.5s-1.75-.5-1.75-1.5v-15c0-1,.58-1.5,1.75-1.5S31.15,287.07,31.15,288.07Z" transform="translate(-0.65 -0.57)" fill="#5a5a5a"/><path d="M31.15,258.57v15c0,1-.59,1.5-1.75,1.5s-1.75-.5-1.75-1.5v-15c0-1,.58-1.5,1.75-1.5S31.15,257.57,31.15,258.57Z" transform="translate(-0.65 -0.57)" fill="#5a5a5a"/><path d="M31.15,229.57v14.5c0,1.34-.59,2-1.75,2s-1.75-.66-1.75-2v-14.5c0-1.33.58-2,1.75-2S31.15,228.24,31.15,229.57Z" transform="translate(-0.65 -0.57)" fill="#5a5a5a"/><path d="M31.15,200.07v14.5c0,1.34-.59,2-1.75,2s-1.75-.66-1.75-2v-14.5c0-1.33.58-2,1.75-2S31.15,198.74,31.15,200.07Z" transform="translate(-0.65 -0.57)" fill="#5a5a5a"/><path d="M31.15,170.57v15c0,1-.59,1.5-1.75,1.5s-1.75-.5-1.75-1.5v-15c0-1,.58-1.5,1.75-1.5S31.15,169.57,31.15,170.57Z" transform="translate(-0.65 -0.57)" fill="#5a5a5a"/><path d="M31.15,141.07v15c0,1-.59,1.5-1.75,1.5s-1.75-.5-1.75-1.5v-15c0-1,.58-1.5,1.75-1.5S31.15,140.07,31.15,141.07Z" transform="translate(-0.65 -0.57)" fill="#5a5a5a"/><path d="M31.15,112.07v14.5c0,1.34-.59,2-1.75,2s-1.75-.66-1.75-2v-14.5c0-1.33.58-2,1.75-2S31.15,110.74,31.15,112.07Z" transform="translate(-0.65 -0.57)" fill="#5a5a5a"/><path d="M31.15,82.57v14.5c0,1.34-.59,2-1.75,2s-1.75-.66-1.75-2V82.57c0-1.33.58-2,1.75-2S31.15,81.24,31.15,82.57Z" transform="translate(-0.65 -0.57)" fill="#5a5a5a"/><path d="M31.15,53.07v14.5c0,1.34-.59,2-1.75,2s-1.75-.66-1.75-2V53.07c0-1.33.58-2,1.75-2S31.15,51.74,31.15,53.07Z" transform="translate(-0.65 -0.57)" fill="#5a5a5a"/></svg>