<svg id="Layer_1" data-name="Layer 1" xmlns="http://www.w3.org/2000/svg" viewBox="0 0 57.5 362"><path d="M53.84,29.53V334a23,23,0,0,1-23.5,23q-10,0-16.5-6.5a22.57,22.57,0,0,1-7-16.5V29.53A23,23,0,0,1,13.59,13a22,22,0,0,1,16.5-7,22.85,22.85,0,0,1,16.75,7A22.61,22.61,0,0,1,53.84,29.53ZM30.34,334l8.5-17.5h-7v-13c0-1.33-.59-2-1.75-2s-1.75.5-1.75,1.5v13.5h-7Zm1.5-294a4.73,4.73,0,0,0,4-5,5,5,0,0,0-1.75-4,5.68,5.68,0,0,0-3.75-1.5,5.59,5.59,0,0,0-2.5.5,6.54,6.54,0,0,0-1.75,1.25,3.64,3.64,0,0,0-1,1.75,8.06,8.06,0,0,0-.25,2c0,2.67,1.16,4.33,3.5,5V53c0,1.33.58,2,1.75,2s1.75-.67,1.75-2Zm0,248.5V274c0-1.33-.59-2-1.75-2s-1.75.67-1.75,2v14.5c0,1.33.58,2,1.75,2S31.84,289.86,31.84,288.53Zm0-29v-15c0-1.33-.59-2-1.75-2s-1.75.5-1.75,1.5v15.5c0,1,.58,1.5,1.75,1.5S31.84,260.53,31.84,259.53Zm0-30V215c0-1.33-.59-2-1.75-2s-1.75.67-1.75,2v14.5c0,1.33.58,2,1.75,2S31.84,230.86,31.84,229.53Zm0-29v-15c0-1.33-.59-2-1.75-2s-1.75.67-1.75,2v15c0,1,.58,1.5,1.75,1.5S31.84,201.53,31.84,200.53Zm0-29.5V156c0-1-.59-1.5-1.75-1.5s-1.75.5-1.75,1.5v15c0,1.33.58,2,1.75,2S31.84,172.36,31.84,171Zm0-29.5v-15c0-1-.59-1.5-1.75-1.5s-1.75.5-1.75,1.5v15c0,1,.58,1.5,1.75,1.5S31.84,142.53,31.84,141.53Zm0-29.5V97c0-1-.59-1.5-1.75-1.5s-1.75.5-1.75,1.5v15c0,1.33.58,2,1.75,2S31.84,113.36,31.84,112Zm0-29.5V68c0-1.33-.59-2-1.75-2s-1.75.5-1.75,1.5v15c0,1.33.58,2,1.75,2S31.84,83.86,31.84,82.53Z" transform="translate(-1.34 -0.53)" fill="#fbea23"/><path d="M58.84,29.53V334a27.53,27.53,0,0,1-8.25,20.25,27.53,27.53,0,0,1-20.25,8.25,28.36,28.36,0,0,1-20.5-8.25A27.11,27.11,0,0,1,1.34,334V29.53A27.93,27.93,0,0,1,9.84,9,27.91,27.91,0,0,1,30.34.53,27.11,27.11,0,0,1,50.59,9,28.37,28.37,0,0,1,58.84,29.53Zm-5,304.5V29.53a22.61,22.61,0,0,0-7-16.5A22.85,22.85,0,0,0,30.09,6a22,22,0,0,0-16.5,7,23,23,0,0,0-6.75,16.5V334a22.57,22.57,0,0,0,7,16.5q6.5,6.5,16.5,6.5a23,23,0,0,0,23.5-23Z" transform="translate(-1.34 -0.53)" fill="#1d1d1b"/><path d="M38.84,316.53,30.34,334l-9-17.5h7V303c0-1,.58-1.5,1.75-1.5s1.75.67,1.75,2v13Z" transform="translate(-1.34 -0.53)" fill="#5a5a5a"/><path d="M35.84,35a4.73,4.73,0,0,1-4,5V53c0,1.33-.59,2-1.75,2s-1.75-.67-1.75-2V40c-2.34-.67-3.5-2.33-3.5-5a8.06,8.06,0,0,1,.25-2,3.64,3.64,0,0,1,1-1.75A6.54,6.54,0,0,1,27.84,30a5.59,5.59,0,0,1,2.5-.5A5.68,5.68,0,0,1,34.09,31,5,5,0,0,1,35.84,35Z" transform="translate(-1.34 -0.53)" fill="#5a5a5a"/><path d="M31.84,274v14.5c0,1.33-.59,2-1.75,2s-1.75-.67-1.75-2V274c0-1.33.58-2,1.75-2S31.84,272.7,31.84,274Z" transform="translate(-1.34 -0.53)" fill="#5a5a5a"/><path d="M31.84,244.53v15c0,1-.59,1.5-1.75,1.5s-1.75-.5-1.75-1.5V244c0-1,.58-1.5,1.75-1.5S31.84,243.2,31.84,244.53Z" transform="translate(-1.34 -0.53)" fill="#5a5a5a"/><path d="M31.84,215v14.5c0,1.33-.59,2-1.75,2s-1.75-.67-1.75-2V215c0-1.33.58-2,1.75-2S31.84,213.7,31.84,215Z" transform="translate(-1.34 -0.53)" fill="#5a5a5a"/><path d="M31.84,185.53v15c0,1-.59,1.5-1.75,1.5s-1.75-.5-1.75-1.5v-15c0-1.33.58-2,1.75-2S31.84,184.2,31.84,185.53Z" transform="translate(-1.34 -0.53)" fill="#5a5a5a"/><path d="M31.84,156v15c0,1.33-.59,2-1.75,2s-1.75-.67-1.75-2V156c0-1,.58-1.5,1.75-1.5S31.84,155,31.84,156Z" transform="translate(-1.34 -0.53)" fill="#5a5a5a"/><path d="M31.84,126.53v15c0,1-.59,1.5-1.75,1.5s-1.75-.5-1.75-1.5v-15c0-1,.58-1.5,1.75-1.5S31.84,125.53,31.84,126.53Z" transform="translate(-1.34 -0.53)" fill="#5a5a5a"/><path d="M31.84,97v15c0,1.33-.59,2-1.75,2s-1.75-.67-1.75-2V97c0-1,.58-1.5,1.75-1.5S31.84,96,31.84,97Z" transform="translate(-1.34 -0.53)" fill="#5a5a5a"/><path d="M31.84,68v14.5c0,1.33-.59,2-1.75,2s-1.75-.67-1.75-2v-15c0-1,.58-1.5,1.75-1.5S31.84,66.7,31.84,68Z" transform="translate(-1.34 -0.53)" fill="#5a5a5a"/></svg>