<svg id="Layer_1" data-name="Layer 1" xmlns="http://www.w3.org/2000/svg" viewBox="0 0 326 239.5"><path d="M168.43,77.3q-1.5,5.51,4,7t7-4c.67-2.33-.17-4.33-2.5-6h.5a122.22,122.22,0,0,1,6-13,1.44,1.44,0,0,0,.5-1,2,2,0,0,0-3.5-1,72.16,72.16,0,0,0-6.5,13.5v.5A6.43,6.43,0,0,0,168.43,77.3Zm0,10.5a88.1,88.1,0,0,0-6.5-14,1.6,1.6,0,0,0-2.5-.5c-.67.34-1,.67-1,1v1.5a119.33,119.33,0,0,1,6.5,13c0,.67.5,1,1.5,1h.5q1.5-.49,1.5-1.5Zm-139-47.5a5.68,5.68,0,0,0,3.75-1.5,5,5,0,0,0,1.75-4,5.26,5.26,0,0,0-.75-2.75,5.8,5.8,0,0,0-2-2,5.24,5.24,0,0,0-2.75-.75,5.16,5.16,0,0,0-5.5,5.5,5.24,5.24,0,0,0,.75,2.75,5.72,5.72,0,0,0,2,2A5.24,5.24,0,0,0,29.43,40.3Zm1.5,3.5c0-1-.58-1.5-1.75-1.5s-1.75.5-1.75,1.5v15c0,1,.58,1.5,1.75,1.5s1.75-.5,1.75-1.5Zm290,64V211.3a22.54,22.54,0,0,1-7,16.5q-6.49,6.51-16.5,6.5t-16.5-6.5a22.54,22.54,0,0,1-7-16.5V107.8q0-23-13.5-36.5a42.35,42.35,0,0,0-31-13,38.8,38.8,0,0,0-14,2.5,27.15,27.15,0,0,0-10,7q-12,12-12,35v1a16.66,16.66,0,0,1,.5,4v103a23.91,23.91,0,0,1-23.5,23.5,23.91,23.91,0,0,1-23.5-23.5v-103q0-16.5-12.5-30-17.5-18-43.5-19.5-17.5-1-28,8-8.51,7-10,22a.44.44,0,0,0-.5.5V211.3a23.44,23.44,0,0,1-6.5,16.5,23.74,23.74,0,0,1-16.75,6.5,23.74,23.74,0,0,1-16.75-6.5,23.44,23.44,0,0,1-6.5-16.5V29.3a22.16,22.16,0,0,1,6.75-16.25A22.44,22.44,0,0,1,29.18,6.3a23.78,23.78,0,0,1,16.75,6.5,13.55,13.55,0,0,1,3,4.5q1.5,2,3.5,1,18.5-8,41-7,40.5,2.5,70,29a2.06,2.06,0,0,0,2,.75,9.05,9.05,0,0,0,2-.75,35.74,35.74,0,0,1,4.5-5.5,77.71,77.71,0,0,1,25.5-17,79.68,79.68,0,0,1,32-6.5q37.5,0,64,26.5Q320.92,65.31,320.93,107.8Zm-23.5,112,9-18h-7v-11a2,2,0,0,0-4,0v11h-7Zm2-43.5v-15c0-1-.67-1.5-2-1.5s-2,.5-2,1.5v15c0,1,.67,1.5,2,1.5S299.43,177.3,299.43,176.3Zm0-29.5v-15a2,2,0,0,0-4,0v15c0,1,.67,1.5,2,1.5S299.43,147.8,299.43,146.8Zm0-29.5v-6q0-3-.5-9a2,2,0,0,0-2-1.5,3.93,3.93,0,0,0-1.5.5q-.49.51,0,1.5v14.5c0,1,.67,1.5,2,1.5S299.43,118.3,299.43,117.3Zm-3-29v-.5a82.09,82.09,0,0,0-5-14.5c-.33-1-1.17-1.33-2.5-1a3.27,3.27,0,0,0-.75,1.25,5.47,5.47,0,0,0-.25,1.75,75.13,75.13,0,0,1,5,13q.49,1.5,1.5,1.5h.5Q296.43,89.31,296.43,88.3Zm-12.5-27v-.5a80.94,80.94,0,0,0-10.5-11.5,1.6,1.6,0,0,0-2.5.5,1.47,1.47,0,0,0-.5,1,2,2,0,0,0,.5,1.5,46.17,46.17,0,0,1,9.5,10.5,5.49,5.49,0,0,0,2.5.5A2.85,2.85,0,0,0,283.93,61.3Zm-22-18v-.5a2.89,2.89,0,0,0-1-2,64.86,64.86,0,0,0-14-5.5c-1.33-.33-2,.17-2,1.5a.63.63,0,0,0,0,1,.88.88,0,0,0,1,1,50.42,50.42,0,0,1,13.5,5.5h.5A2.87,2.87,0,0,0,261.93,43.3Zm-28-8.5a1.77,1.77,0,0,0-2-2h-1a62.16,62.16,0,0,0-14,1.5,1.45,1.45,0,0,0-1,.5,2.07,2.07,0,0,0-.5,1.5,2,2,0,0,0,2,1.5h.5a48,48,0,0,1,14-1A1.77,1.77,0,0,0,233.93,34.8Zm-29,7.5a3.83,3.83,0,0,0,.5-1.5.44.44,0,0,0-.5-.5c-.33-1.33-1.17-1.66-2.5-1a60.83,60.83,0,0,0-12,8.5,6.06,6.06,0,0,0-1,1.5,1.44,1.44,0,0,0,.5,1,2,2,0,0,0,1.5.5h1.5a39.65,39.65,0,0,1,11.5-8v-.5Zm-34.5,177.5,8.5-18h-7v-11c0-1.33-.58-2-1.75-2s-1.75.67-1.75,2v11h-7Zm1.5-43.5v-15c0-1-.58-1.5-1.75-1.5s-1.75.5-1.75,1.5v15c0,1,.58,1.5,1.75,1.5S171.93,177.3,171.93,176.3Zm0-29.5v-15c0-1.33-.58-2-1.75-2s-1.75.67-1.75,2v15c0,1,.58,1.5,1.75,1.5S171.93,147.8,171.93,146.8Zm0-29.5v-6a82.26,82.26,0,0,0-.5-9c0-1.33-.67-1.83-2-1.5a1.45,1.45,0,0,0-1,.5,3.93,3.93,0,0,0-.5,1.5,78.07,78.07,0,0,1,.5,8.5v6c0,1,.58,1.5,1.75,1.5S171.93,118.3,171.93,117.3Zm-18.5-54a3.93,3.93,0,0,0-.5-1.5,83,83,0,0,0-11-10c-1-.66-1.83-.66-2.5,0q-1.5,1.5.5,3a73.11,73.11,0,0,1,10.5,9.5c0,.34.33.5,1,.5a3.76,3.76,0,0,0,1.5-.5A1.44,1.44,0,0,0,153.43,63.3Zm-23.5-17a1.47,1.47,0,0,1,.5-1,2.89,2.89,0,0,0-1-2,127.57,127.57,0,0,0-14-6c-1-.33-1.67.17-2,1.5a1.4,1.4,0,0,0,1,2q6,2.51,13,6h1A2,2,0,0,0,129.93,46.3Zm-27.5-10v-.5a2,2,0,0,0-1.5-2,122.53,122.53,0,0,0-15-1c-.67,0-1,.17-1,.5a3.93,3.93,0,0,0-.5,1.5c0,1.34.5,2,1.5,2h1a63.85,63.85,0,0,1,13.5.5h.5C101.93,37.3,102.43,37,102.43,36.3Zm-29,.5v-.5a2.31,2.31,0,0,0-2.5-1.5l-1.5.5a88.18,88.18,0,0,0-12.5,5.5c-.33,0-.58.34-.75,1a1.49,1.49,0,0,0,.25,1.5,1.59,1.59,0,0,0,1.5,1,1.41,1.41,0,0,0,1-.5,59.17,59.17,0,0,1,13-5A2,2,0,0,0,73.43,36.8ZM47.93,51.05a1.72,1.72,0,0,0-.5-1.25c-.67-1-1.5-1-2.5,0a78.06,78.06,0,0,0-7.5,10q-4-.49-5.5,3-2.5,5,2.5,7.25t7.5-2.75q1.5-3-1-6a62.91,62.91,0,0,1,6.5-9A1.7,1.7,0,0,0,47.93,51.05ZM29.43,219.8l8.5-18h-7v-11c0-1.33-.58-2-1.75-2s-1.75.67-1.75,2v11h-7Zm1.5-43.5v-15c0-1-.58-1.5-1.75-1.5s-1.75.5-1.75,1.5v15c0,1,.58,1.5,1.75,1.5S30.93,177.3,30.93,176.3Zm0-29.5v-15c0-1-.58-1.5-1.75-1.5s-1.75.5-1.75,1.5v15c0,1,.58,1.5,1.75,1.5S30.93,147.8,30.93,146.8Zm0-29.5V102.8c0-1.33-.58-2-1.75-2s-1.75.67-1.75,2v14.5c0,1.34.58,2,1.75,2S30.93,118.64,30.93,117.3Zm0-29.5V73.3c0-1.33-.58-2-1.75-2s-1.75.67-1.75,2V87.8c0,1.34.58,2,1.75,2S30.93,89.14,30.93,87.8Z" transform="translate(-0.43 -0.8)" fill="#fbea23"/><path d="M326.43,107.8V211.3a29,29,0,0,1-29,29,27.11,27.11,0,0,1-20.25-8.5,28.36,28.36,0,0,1-8.25-20.5V107.8q0-20.49-12.5-33a37.82,37.82,0,0,0-27-11,35,35,0,0,0-12,2,22.11,22.11,0,0,0-8.5,6q-10,10-10,31v108a28.36,28.36,0,0,1-8.25,20.5,27.11,27.11,0,0,1-20.25,8.5,29,29,0,0,1-29-29v-103q0-14.49-11-26a55.55,55.55,0,0,0-39.5-18q-15.5-1-24.5,6.5-7,6-8.5,18.5V211.3a27.11,27.11,0,0,1-8.5,20.25,28.08,28.08,0,0,1-20.25,8.25,28.08,28.08,0,0,1-20.25-8.25A27.11,27.11,0,0,1,.43,211.3V29.3a27.37,27.37,0,0,1,8.5-20A27.69,27.69,0,0,1,29.18.8,27.69,27.69,0,0,1,49.43,9.3l3,3q19-7.5,41.5-6a114,114,0,0,1,71,28.5,33,33,0,0,1,3-3.5,85.23,85.23,0,0,1,27.5-18.5,84,84,0,0,1,34-7q40,0,68,28.5Q326.42,63.31,326.43,107.8Zm-5.5,103.5V107.8q0-42.49-27.5-70-26.51-26.49-64-26.5a79.68,79.68,0,0,0-32,6.5,77.71,77.71,0,0,0-25.5,17,35.74,35.74,0,0,0-4.5,5.5,9.05,9.05,0,0,1-2,.75,2.06,2.06,0,0,1-2-.75q-29.51-26.49-70-29-22.5-1-41,7-2,1-3.5-1a13.55,13.55,0,0,0-3-4.5A23.78,23.78,0,0,0,29.18,6.3a22.44,22.44,0,0,0-16.5,6.75A22.16,22.16,0,0,0,5.93,29.3v182a23.44,23.44,0,0,0,6.5,16.5,23.74,23.74,0,0,0,16.75,6.5,23.74,23.74,0,0,0,16.75-6.5,23.44,23.44,0,0,0,6.5-16.5V88.8a.44.44,0,0,1,.5-.5q1.5-15,10-22,10.5-9,28-8,26,1.5,43.5,19.5,12.49,13.5,12.5,30v103a23.91,23.91,0,0,0,23.5,23.5,23.91,23.91,0,0,0,23.5-23.5v-103a16.66,16.66,0,0,0-.5-4v-1q0-23,12-35a27.15,27.15,0,0,1,10-7,38.8,38.8,0,0,1,14-2.5,42.35,42.35,0,0,1,31,13q13.5,13.5,13.5,36.5V211.3a22.54,22.54,0,0,0,7,16.5q6.49,6.51,16.5,6.5t16.5-6.5A22.54,22.54,0,0,0,320.93,211.3Z" transform="translate(-0.43 -0.8)" fill="#1d1d1b"/><path d="M306.43,201.8l-9,18-9-18h7v-11a2,2,0,0,1,4,0v11Z" transform="translate(-0.43 -0.8)" fill="#5a5a5a"/><path d="M299.43,161.3v15c0,1-.67,1.5-2,1.5s-2-.5-2-1.5v-15c0-1,.67-1.5,2-1.5S299.43,160.3,299.43,161.3Z" transform="translate(-0.43 -0.8)" fill="#5a5a5a"/><path d="M299.43,131.8v15c0,1-.67,1.5-2,1.5s-2-.5-2-1.5v-15a2,2,0,0,1,4,0Z" transform="translate(-0.43 -0.8)" fill="#5a5a5a"/><path d="M299.43,111.3v6c0,1-.67,1.5-2,1.5s-2-.5-2-1.5V102.8q-.49-1,0-1.5a3.93,3.93,0,0,1,1.5-.5,2,2,0,0,1,2,1.5Q299.42,108.3,299.43,111.3Z" transform="translate(-0.43 -0.8)" fill="#5a5a5a"/><path d="M296.43,87.8v.5q0,1-1.5,1.5h-.5q-1,0-1.5-1.5a75.13,75.13,0,0,0-5-13,5.47,5.47,0,0,1,.25-1.75,3.27,3.27,0,0,1,.75-1.25c1.33-.33,2.17,0,2.5,1A82.09,82.09,0,0,1,296.43,87.8Z" transform="translate(-0.43 -0.8)" fill="#5a5a5a"/><path d="M283.93,60.8v.5a2.85,2.85,0,0,1-1,2,5.49,5.49,0,0,1-2.5-.5,46.17,46.17,0,0,0-9.5-10.5,2,2,0,0,1-.5-1.5,1.47,1.47,0,0,1,.5-1,1.6,1.6,0,0,1,2.5-.5A80.94,80.94,0,0,1,283.93,60.8Z" transform="translate(-0.43 -0.8)" fill="#5a5a5a"/><path d="M261.93,42.8v.5a2.87,2.87,0,0,1-2,1h-.5a50.42,50.42,0,0,0-13.5-5.5.88.88,0,0,1-1-1,.63.63,0,0,1,0-1c0-1.33.67-1.83,2-1.5a64.86,64.86,0,0,1,14,5.5A2.89,2.89,0,0,1,261.93,42.8Z" transform="translate(-0.43 -0.8)" fill="#5a5a5a"/><path d="M231.93,32.8a1.77,1.77,0,0,1,2,2,1.77,1.77,0,0,1-2,2,48,48,0,0,0-14,1h-.5a2,2,0,0,1-2-1.5,2.07,2.07,0,0,1,.5-1.5,1.45,1.45,0,0,1,1-.5,62.16,62.16,0,0,1,14-1.5Z" transform="translate(-0.43 -0.8)" fill="#5a5a5a"/><path d="M202.43,39.3c1.33-.66,2.17-.33,2.5,1a.44.44,0,0,1,.5.5,3.83,3.83,0,0,1-.5,1.5h-.5v.5a39.65,39.65,0,0,0-11.5,8h-1.5a2,2,0,0,1-1.5-.5,1.44,1.44,0,0,1-.5-1,6.06,6.06,0,0,1,1-1.5A60.83,60.83,0,0,1,202.43,39.3Z" transform="translate(-0.43 -0.8)" fill="#5a5a5a"/><path d="M183.93,60.3a1.44,1.44,0,0,1-.5,1,122.22,122.22,0,0,0-6,13h-.5c2.33,1.67,3.17,3.67,2.5,6q-1.5,5.51-7,4t-4-7a6.43,6.43,0,0,1,5.5-4v-.5a72.16,72.16,0,0,1,6.5-13.5,2,2,0,0,1,3.5,1Z" transform="translate(-0.43 -0.8)" fill="#5a5a5a"/><path d="M178.93,201.8l-8.5,18-9-18h7v-11c0-1.33.58-2,1.75-2s1.75.67,1.75,2v11Z" transform="translate(-0.43 -0.8)" fill="#5a5a5a"/><path d="M171.93,161.3v15c0,1-.58,1.5-1.75,1.5s-1.75-.5-1.75-1.5v-15c0-1,.58-1.5,1.75-1.5S171.93,160.3,171.93,161.3Z" transform="translate(-0.43 -0.8)" fill="#5a5a5a"/><path d="M171.93,131.8v15c0,1-.58,1.5-1.75,1.5s-1.75-.5-1.75-1.5v-15c0-1.33.58-2,1.75-2S171.93,130.47,171.93,131.8Z" transform="translate(-0.43 -0.8)" fill="#5a5a5a"/><path d="M171.93,111.3v6c0,1-.58,1.5-1.75,1.5s-1.75-.5-1.75-1.5v-6a78.07,78.07,0,0,0-.5-8.5,3.93,3.93,0,0,1,.5-1.5,1.45,1.45,0,0,1,1-.5c1.33-.33,2,.17,2,1.5A82.26,82.26,0,0,1,171.93,111.3Z" transform="translate(-0.43 -0.8)" fill="#5a5a5a"/><path d="M168.43,87.8v.5q0,1-1.5,1.5h-.5c-1,0-1.5-.33-1.5-1a119.33,119.33,0,0,0-6.5-13V74.3c0-.33.33-.66,1-1a1.6,1.6,0,0,1,2.5.5A88.1,88.1,0,0,1,168.43,87.8Z" transform="translate(-0.43 -0.8)" fill="#5a5a5a"/><path d="M152.93,61.8a3.93,3.93,0,0,1,.5,1.5,1.44,1.44,0,0,1-.5,1,3.76,3.76,0,0,1-1.5.5c-.67,0-1-.16-1-.5a73.11,73.11,0,0,0-10.5-9.5q-2-1.5-.5-3c.67-.66,1.5-.66,2.5,0A83,83,0,0,1,152.93,61.8Z" transform="translate(-0.43 -0.8)" fill="#5a5a5a"/><path d="M130.43,45.3a1.47,1.47,0,0,0-.5,1,2,2,0,0,1-1.5.5h-1q-7-3.49-13-6a1.4,1.4,0,0,1-1-2c.33-1.33,1-1.83,2-1.5a127.57,127.57,0,0,1,14,6A2.89,2.89,0,0,1,130.43,45.3Z" transform="translate(-0.43 -0.8)" fill="#5a5a5a"/><path d="M102.43,35.8v.5c0,.67-.5,1-1.5,1h-.5a63.85,63.85,0,0,0-13.5-.5h-1c-1,0-1.5-.66-1.5-2a3.93,3.93,0,0,1,.5-1.5c0-.33.33-.5,1-.5a122.53,122.53,0,0,1,15,1A2,2,0,0,1,102.43,35.8Z" transform="translate(-0.43 -0.8)" fill="#5a5a5a"/><path d="M73.43,36.3v.5a2,2,0,0,1-1.5,2,59.17,59.17,0,0,0-13,5,1.41,1.41,0,0,1-1,.5,1.59,1.59,0,0,1-1.5-1,1.49,1.49,0,0,1-.25-1.5c.17-.66.42-1,.75-1a88.18,88.18,0,0,1,12.5-5.5l1.5-.5A2.31,2.31,0,0,1,73.43,36.3Z" transform="translate(-0.43 -0.8)" fill="#5a5a5a"/><path d="M47.43,49.8a1.81,1.81,0,0,1,0,2.5,62.91,62.91,0,0,0-6.5,9q2.51,3,1,6-2.51,5-7.5,2.75t-2.5-7.25q1.5-3.49,5.5-3a78.06,78.06,0,0,1,7.5-10C45.93,48.8,46.76,48.8,47.43,49.8Z" transform="translate(-0.43 -0.8)" fill="#5a5a5a"/><path d="M37.93,201.8l-8.5,18-9-18h7v-11c0-1.33.58-2,1.75-2s1.75.67,1.75,2v11Z" transform="translate(-0.43 -0.8)" fill="#5a5a5a"/><path d="M34.18,32.05a5.26,5.26,0,0,1,.75,2.75,5,5,0,0,1-1.75,4,5.68,5.68,0,0,1-3.75,1.5,5.24,5.24,0,0,1-2.75-.75,5.72,5.72,0,0,1-2-2,5.24,5.24,0,0,1-.75-2.75,5.16,5.16,0,0,1,5.5-5.5,5.24,5.24,0,0,1,2.75.75A5.8,5.8,0,0,1,34.18,32.05Z" transform="translate(-0.43 -0.8)" fill="#5a5a5a"/><path d="M30.93,161.3v15c0,1-.58,1.5-1.75,1.5s-1.75-.5-1.75-1.5v-15c0-1,.58-1.5,1.75-1.5S30.93,160.3,30.93,161.3Z" transform="translate(-0.43 -0.8)" fill="#5a5a5a"/><path d="M30.93,131.8v15c0,1-.58,1.5-1.75,1.5s-1.75-.5-1.75-1.5v-15c0-1,.58-1.5,1.75-1.5S30.93,130.8,30.93,131.8Z" transform="translate(-0.43 -0.8)" fill="#5a5a5a"/><path d="M30.93,102.8v14.5c0,1.34-.58,2-1.75,2s-1.75-.66-1.75-2V102.8c0-1.33.58-2,1.75-2S30.93,101.47,30.93,102.8Z" transform="translate(-0.43 -0.8)" fill="#5a5a5a"/><path d="M30.93,73.3V87.8c0,1.34-.58,2-1.75,2s-1.75-.66-1.75-2V73.3c0-1.33.58-2,1.75-2S30.93,72,30.93,73.3Z" transform="translate(-0.43 -0.8)" fill="#5a5a5a"/><path d="M30.93,43.8v15c0,1-.58,1.5-1.75,1.5s-1.75-.5-1.75-1.5v-15c0-1,.58-1.5,1.75-1.5S30.93,42.8,30.93,43.8Z" transform="translate(-0.43 -0.8)" fill="#5a5a5a"/></svg>