<svg id="Layer_1" data-name="Layer 1" xmlns="http://www.w3.org/2000/svg" viewBox="0 0 199 239"><path d="M32.69,60.45q-2.5,5,2.25,7.5t7.25-2.5c1.33-2,1.17-4-.5-6a8.24,8.24,0,0,1,2.5-3V56a1.47,1.47,0,0,1,.5-1c0-.33-.33-.83-1-1.5a1.6,1.6,0,0,0-2.5.5c-.67,1-1.67,2.34-3,4Q34.19,57,32.69,60.45Zm-1.5,7c0-1.33-.58-2-1.75-2s-1.75.67-1.75,2V82c0,1.34.58,2,1.75,2s1.75-.66,1.75-2ZM194.69,108V211a23.91,23.91,0,0,1-23.5,23.5,23.91,23.91,0,0,1-23.5-23.5V108q0-17-13-30.5a62.51,62.51,0,0,0-44.5-19q-18,.51-27,9Q53.7,76,53.19,94v2h-.5v115.5a23.44,23.44,0,0,1-6.5,16.5,23.74,23.74,0,0,1-16.75,6.5A23.74,23.74,0,0,1,12.69,228a23.44,23.44,0,0,1-6.5-16.5v-182A22.16,22.16,0,0,1,12.94,13.2a22.44,22.44,0,0,1,16.5-6.75A23.78,23.78,0,0,1,46.19,13a23.79,23.79,0,0,1,3.5,4.5,2,2,0,0,0,3,1,89.82,89.82,0,0,1,38-7,118.79,118.79,0,0,1,28.5,4.5,116.57,116.57,0,0,1,26.5,11.25,109.62,109.62,0,0,1,22.5,17.25Q194.7,71.45,194.69,108Zm-23.5,105,8.5-17.5h-7v-11c0-1.33-.58-2-1.75-2s-1.75.67-1.75,2v11h-7Zm1.5-43.5V155c0-1.33-.58-2-1.75-2s-1.75.67-1.75,2v14.5c0,1.34.58,2,1.75,2S172.69,170.79,172.69,169.45Zm0-29.5v-14.5c0-1.33-.58-2-1.75-2s-1.75.67-1.75,2V140c0,1.34.58,2,1.75,2S172.69,141.29,172.69,140Zm0-29.5V109a82.23,82.23,0,0,0-1-13.5,2,2,0,0,0-2-1.5,1.61,1.61,0,0,0-1.5,1v1.5a70.11,70.11,0,0,1,1,12.5v1.5c0,1.34.58,2,1.75,2S172.69,111.79,172.69,110.45ZM167.19,82v-.5a78.27,78.27,0,0,0-7.5-13c-.67-1.33-1.5-1.5-2.5-.5a1.59,1.59,0,0,0-.5,2.5,64.19,64.19,0,0,1,7,12.5,2,2,0,0,0,2,1,.44.44,0,0,0,.5-.5A1.59,1.59,0,0,0,167.19,82Zm-17.5-24.5h.5l-.5-.5a81.34,81.34,0,0,0-12-9,1.6,1.6,0,0,0-2.5.5q-.49,1,0,1.5a1.44,1.44,0,0,0,.5,1,79.37,79.37,0,0,1,11.5,8.5V60h1a2,2,0,0,0,1.5-.5,1.44,1.44,0,0,0,.5-1A1.47,1.47,0,0,0,149.69,57.45Zm-24-14v-1a2.89,2.89,0,0,0-1-2h-.5a141.42,141.42,0,0,0-14-4.5c-1.33,0-2,.5-2,1.5-.33,0-.33.34,0,1l1,1a78.14,78.14,0,0,1,14,4.5l.5.5A2.87,2.87,0,0,0,125.69,43.45Zm-28.5-8a2,2,0,0,0-1.5-2,113.64,113.64,0,0,0-15,0c-1.33.34-1.83,1-1.5,2,0,1.34.5,2,1.5,2h.5a33.2,33.2,0,0,1,8-1q1,0,5.5.5h1Q97.19,36.46,97.19,35.45Zm-29,3V38a2.31,2.31,0,0,0-2.5-1.5,104,104,0,0,0-13.5,7,1.47,1.47,0,0,0-.5,1,1.63,1.63,0,0,0,1.5,2.5c.67,0,1-.16,1-.5a57.19,57.19,0,0,1,13-6A2,2,0,0,0,68.19,38.45ZM29.69,214l8.5-17.5h-7V185c0-1.33-.58-2-1.75-2s-1.75.67-1.75,2v11.5h-7Zm1.5-171.5a5.49,5.49,0,0,0,4-5.5,5.25,5.25,0,0,0-1.75-3.75,5.54,5.54,0,0,0-4-1.75,4.76,4.76,0,0,0-3.75,1.75A5.68,5.68,0,0,0,24.19,37a5.48,5.48,0,0,0,3.5,5.5v10c0,1.34.58,2,1.75,2s1.75-.66,1.75-2Zm0,128v-15c0-1-.58-1.5-1.75-1.5s-1.75.5-1.75,1.5v15c0,1,.58,1.5,1.75,1.5S31.19,171.45,31.19,170.45Zm0-29.5v-14.5c0-1.33-.58-2-1.75-2s-1.75.67-1.75,2V141c0,1.34.58,2,1.75,2S31.19,142.29,31.19,141Zm0-29.5v-15c0-1-.58-1.5-1.75-1.5s-1.75.5-1.75,1.5v15c0,1.34.58,2,1.75,2S31.19,112.79,31.19,111.45Z" transform="translate(-0.69 -0.95)" fill="#fbea23"/><path d="M199.69,108V211a28.36,28.36,0,0,1-8.25,20.5,27.11,27.11,0,0,1-20.25,8.5,29,29,0,0,1-29-29V108q0-15-11.5-27-16.5-16.5-41-17-15,0-23,7-7.5,7.5-8.5,23.5v117a27.11,27.11,0,0,1-8.5,20.25A28.08,28.08,0,0,1,29.44,240,28.08,28.08,0,0,1,9.19,231.7a27.11,27.11,0,0,1-8.5-20.25v-182a27.37,27.37,0,0,1,8.5-20A27.69,27.69,0,0,1,29.44,1a27.69,27.69,0,0,1,20.25,8.5,10,10,0,0,1,3,3.5,89.49,89.49,0,0,1,38.5-6.5,110.43,110.43,0,0,1,44,9.25,113.26,113.26,0,0,1,37,25.25Q199.69,69,199.69,108Zm-5,103V108q0-36.49-26.5-63.5a109.62,109.62,0,0,0-22.5-17.25A116.57,116.57,0,0,0,119.19,16a118.79,118.79,0,0,0-28.5-4.5,89.82,89.82,0,0,0-38,7,2,2,0,0,1-3-1,23.79,23.79,0,0,0-3.5-4.5,23.78,23.78,0,0,0-16.75-6.5,22.44,22.44,0,0,0-16.5,6.75A22.16,22.16,0,0,0,6.19,29.45v182a23.44,23.44,0,0,0,6.5,16.5,23.74,23.74,0,0,0,16.75,6.5A23.74,23.74,0,0,0,46.19,228a23.44,23.44,0,0,0,6.5-16.5V96h.5V94q.5-18,10-26.5,9-8.49,27-9a62.51,62.51,0,0,1,44.5,19q13,13.5,13,30.5V211a23.91,23.91,0,0,0,23.5,23.5,23.91,23.91,0,0,0,23.5-23.5Z" transform="translate(-0.69 -0.95)" fill="#1d1d1b"/><path d="M179.69,195.45l-8.5,17.5-9-17.5h7v-11c0-1.33.58-2,1.75-2s1.75.67,1.75,2v11Z" transform="translate(-0.69 -0.95)" fill="#5a5a5a"/><path d="M172.69,155v14.5c0,1.34-.58,2-1.75,2s-1.75-.66-1.75-2V155c0-1.33.58-2,1.75-2S172.69,153.62,172.69,155Z" transform="translate(-0.69 -0.95)" fill="#5a5a5a"/><path d="M172.69,125.45V140c0,1.34-.58,2-1.75,2s-1.75-.66-1.75-2v-14.5c0-1.33.58-2,1.75-2S172.69,124.12,172.69,125.45Z" transform="translate(-0.69 -0.95)" fill="#5a5a5a"/><path d="M172.69,109v1.5c0,1.34-.58,2-1.75,2s-1.75-.66-1.75-2V109a70.11,70.11,0,0,0-1-12.5V95a1.61,1.61,0,0,1,1.5-1,2,2,0,0,1,2,1.5A82.23,82.23,0,0,1,172.69,109Z" transform="translate(-0.69 -0.95)" fill="#5a5a5a"/><path d="M167.19,81.45V82a1.59,1.59,0,0,1-1,1.5.44.44,0,0,1-.5.5,2,2,0,0,1-2-1,64.19,64.19,0,0,0-7-12.5,1.59,1.59,0,0,1,.5-2.5c1-1,1.83-.83,2.5.5A78.27,78.27,0,0,1,167.19,81.45Z" transform="translate(-0.69 -0.95)" fill="#5a5a5a"/><path d="M147.19,59.45a79.37,79.37,0,0,0-11.5-8.5,1.44,1.44,0,0,1-.5-1q-.49-.5,0-1.5a1.6,1.6,0,0,1,2.5-.5,81.34,81.34,0,0,1,12,9l.5.5h-.5a1.47,1.47,0,0,1,.5,1,1.44,1.44,0,0,1-.5,1,2,2,0,0,1-1.5.5h-1Z" transform="translate(-0.69 -0.95)" fill="#5a5a5a"/><path d="M125.69,42.45v1a2.87,2.87,0,0,1-2,1l-.5-.5a78.14,78.14,0,0,0-14-4.5l-1-1c-.33-.66-.33-1,0-1,0-1,.67-1.5,2-1.5a141.42,141.42,0,0,1,14,4.5h.5A2.89,2.89,0,0,1,125.69,42.45Z" transform="translate(-0.69 -0.95)" fill="#5a5a5a"/><path d="M95.69,33.45a2,2,0,0,1,1.5,2q0,1-1.5,1.5h-1q-4.5-.5-5.5-.5a33.2,33.2,0,0,0-8,1h-.5c-1,0-1.5-.66-1.5-2-.33-1,.17-1.66,1.5-2A113.64,113.64,0,0,1,95.69,33.45Z" transform="translate(-0.69 -0.95)" fill="#5a5a5a"/><path d="M68.19,38v.5a2,2,0,0,1-1,2,57.19,57.19,0,0,0-13,6c0,.34-.33.5-1,.5a1.63,1.63,0,0,1-1.5-2.5,1.47,1.47,0,0,1,.5-1,104,104,0,0,1,13.5-7A2.31,2.31,0,0,1,68.19,38Z" transform="translate(-0.69 -0.95)" fill="#5a5a5a"/><path d="M44.69,55a1.47,1.47,0,0,0-.5,1v.5a8.24,8.24,0,0,0-2.5,3c1.67,2,1.83,4,.5,6q-2.5,5-7.25,2.5t-2.25-7.5q1.5-3.5,5.5-2.5c1.33-1.66,2.33-3,3-4a1.6,1.6,0,0,1,2.5-.5C44.36,54.12,44.69,54.62,44.69,55Z" transform="translate(-0.69 -0.95)" fill="#5a5a5a"/><path d="M38.19,196.45,29.69,214l-9-17.5h7V185c0-1.33.58-2,1.75-2s1.75.67,1.75,2v11.5Z" transform="translate(-0.69 -0.95)" fill="#5a5a5a"/><path d="M35.19,37a5.49,5.49,0,0,1-4,5.5v10c0,1.34-.58,2-1.75,2s-1.75-.66-1.75-2v-10a5.48,5.48,0,0,1-3.5-5.5,5.68,5.68,0,0,1,1.5-3.75,4.76,4.76,0,0,1,3.75-1.75,5.54,5.54,0,0,1,4,1.75A5.25,5.25,0,0,1,35.19,37Z" transform="translate(-0.69 -0.95)" fill="#5a5a5a"/><path d="M31.19,155.45v15c0,1-.58,1.5-1.75,1.5s-1.75-.5-1.75-1.5v-15c0-1,.58-1.5,1.75-1.5S31.19,154.45,31.19,155.45Z" transform="translate(-0.69 -0.95)" fill="#5a5a5a"/><path d="M31.19,126.45V141c0,1.34-.58,2-1.75,2s-1.75-.66-1.75-2v-14.5c0-1.33.58-2,1.75-2S31.19,125.12,31.19,126.45Z" transform="translate(-0.69 -0.95)" fill="#5a5a5a"/><path d="M31.19,96.45v15c0,1.34-.58,2-1.75,2s-1.75-.66-1.75-2v-15c0-1,.58-1.5,1.75-1.5S31.19,95.45,31.19,96.45Z" transform="translate(-0.69 -0.95)" fill="#5a5a5a"/><path d="M31.19,67.45V82c0,1.34-.58,2-1.75,2s-1.75-.66-1.75-2V67.45c0-1.33.58-2,1.75-2S31.19,66.12,31.19,67.45Z" transform="translate(-0.69 -0.95)" fill="#5a5a5a"/></svg>