<svg id="Layer_1" data-name="Layer 1" xmlns="http://www.w3.org/2000/svg" viewBox="0 0 229.5 229"><path d="M193.12,38.67q32,32.25,32,77.5t-32,77.25q-32,32-77.25,32t-77.25-32q-32-32-32-77.25t32-77.5q32-32.25,77.25-32.25T193.12,38.67Zm12.5,77.25v-.5a1.77,1.77,0,0,0-2-2c-1,0-1.5.67-1.5,2v.5a75.31,75.31,0,0,1-1.5,13.5v.5a2,2,0,0,0,1.5,2h.5c1,0,1.66-.66,2-2A116,116,0,0,0,205.62,115.92Zm-3-13.5a2,2,0,0,0,1.5-2,83.89,83.89,0,0,0-4-14.5c-.68-1.33-1.5-1.66-2.5-1-.34,0-.68.34-1,1s-.34,1.17,0,1.5a70.64,70.64,0,0,1,4,13v.5q.48,1.5,1.5,1.5Zm-2,42c.32-1-.09-1.75-1.25-2.25s-1.93-.08-2.25,1.25a79.42,79.42,0,0,1-6,13l-.5.5a2.81,2.81,0,0,0,1,2h.5a4.41,4.41,0,0,0,2-.5A138.78,138.78,0,0,0,200.62,144.42Zm-7-71a1.52,1.52,0,0,0-.5-1,71.11,71.11,0,0,0-9-12c-.68-1-1.5-1-2.5,0a1.43,1.43,0,0,0-.5,1,2,2,0,0,0,.5,1.5,95.08,95.08,0,0,1,8.5,11.5,2,2,0,0,0,1.5.5h1A1.61,1.61,0,0,0,193.62,73.42Zm-8.5,97c.66-1,.66-1.83,0-2.5-1-1-1.84-1-2.5,0a96.83,96.83,0,0,1-10.5,10,2,2,0,0,0-.5,1.5v1a5.46,5.46,0,0,0,2.5.5A110,110,0,0,0,185.12,170.42Zm-11.5-117.5a2.08,2.08,0,0,0,.5-1.5,1.62,1.62,0,0,0-1-1.5,67.88,67.88,0,0,0-12.5-8c-1-.66-1.68-.33-2,1-.68.67-.5,1.34.5,2a90.42,90.42,0,0,1,11.5,8h.5a1.38,1.38,0,0,0,1,.5A2,2,0,0,0,173.62,52.92Zm2.5,63q0-28-19-47-17.52-17.49-41.25-17.5T74.62,68.92q-19,19-19,47t19,47q17.49,17.51,41.25,17.5t41.25-17.5Q176.11,143.93,176.12,115.92Zm-14,73.5a2.18,2.18,0,0,0,.5-3,2.29,2.29,0,0,0-2.5-.5,46,46,0,0,1-13,6,2.85,2.85,0,0,0-1,2v.5a2,2,0,0,0,2,1.5.44.44,0,0,0,.5-.5A67.54,67.54,0,0,0,162.12,189.42Zm-14-151.5a.44.44,0,0,0,.5-.5,1.33,1.33,0,0,0-1.5-1.5,72.12,72.12,0,0,0-13.5-4l.5-7-18.5,7.5c0-3.66-1.84-5.5-5.5-5.5a4.72,4.72,0,0,0-5,4,100.82,100.82,0,0,0-13,2.5.88.88,0,0,0-1,1l-.5,1a2,2,0,0,0,2,1.5h.5a83,83,0,0,1,12-2.5,5.46,5.46,0,0,0,5.5,3.5,5.29,5.29,0,0,0,3.75-1.75,3.83,3.83,0,0,0,1.25-3.75l17,10,.5-6.5a53.77,53.77,0,0,1,13,3.5h.5A1.33,1.33,0,0,0,148.12,37.92Zm-14,162a1.83,1.83,0,0,0,1.5-2.5,2,2,0,0,0-2-1.5,101.07,101.07,0,0,1-14.5,2,3.83,3.83,0,0,0-1.5.5v1c0,1.34.5,2,1.5,2Q126.62,200.93,134.12,199.92Zm-28-1v-1a4,4,0,0,0-1.5-.5c-4-.66-8.68-1.66-14-3-1.34-.33-2,0-2,1l-.5.5a2,2,0,0,0,1.5,2h.5q8.49,2,14.5,3C105.62,200.92,106.12,200.26,106.12,198.92Zm-25.5-159a.45.45,0,0,0-.5-.5,1.4,1.4,0,0,0-2-1,80.58,80.58,0,0,0-13,7,1.59,1.59,0,0,0-1,1.5v1c.66.67,1.16,1,1.5,1a1.45,1.45,0,0,0,1-.5,84.52,84.52,0,0,1,13-7C80.28,41.42,80.62,40.92,80.62,39.92Zm-2.5,151.5q.48-.49,0-1.5a1.49,1.49,0,0,0-1-.5,130.86,130.86,0,0,1-12-7.5c-1.34-.66-2.34-.5-3,.5v1a2,2,0,0,0,.5,1.5l.5.5a134.72,134.72,0,0,0,12.5,7h1A1.61,1.61,0,0,0,78.12,191.42Zm-22-135.5a1.52,1.52,0,0,0-.5-1,1.65,1.65,0,0,0-2-.5l-.5.5a51.57,51.57,0,0,0-10,11c-.68,1-.68,1.84,0,2.5l1,.5a1.61,1.61,0,0,0,1.5-1,98.4,98.4,0,0,1,10-10.5A2.08,2.08,0,0,0,56.12,55.92Zm-2.5,119.5c1-1,1-1.83,0-2.5a85.83,85.83,0,0,1-9-11c-.68-1-1.68-1.16-3-.5a2,2,0,0,0-.5,1.5,1.4,1.4,0,0,0,.5,1,74.11,74.11,0,0,0,9.5,11.5,2,2,0,0,0,1.5.5A1.45,1.45,0,0,0,53.62,175.42Zm-15.5-95a1.48,1.48,0,0,0,.5-1,1.62,1.62,0,0,0-1-1.5c-1.34-.66-2.18-.5-2.5.5a87.52,87.52,0,0,0-6,14,3.67,3.67,0,0,0,.5,1.5c0,.34.32.67,1,1h.5c.66,0,1.32-.5,2-1.5A64,64,0,0,1,38.12,80.42Zm-1,70.5v-1.5a70.23,70.23,0,0,1-5-13.5c0-1-.68-1.5-2-1.5a2,2,0,0,0-1.5,2v.5a114.54,114.54,0,0,0,5,14,2.83,2.83,0,0,0,2,1h.5C36.78,151.59,37.12,151.26,37.12,150.92Zm-7-29c-.34-3-.5-5-.5-6,0-2.33.16-5.16.5-8.5,0-1.33-.5-2-1.5-2a1.77,1.77,0,0,0-2,2,67.37,67.37,0,0,0-.5,8.5v6a1.76,1.76,0,0,0,2,2C29.44,123.59,30.12,122.92,30.12,121.92Z" transform="translate(-1.12 -1.42)" fill="#fbea23"/><path d="M196.87,34.92q33.75,33.51,33.75,81t-33.75,81q-33.75,33.51-81,33.5t-81-33.5q-33.75-33.49-33.75-81a113.2,113.2,0,0,1,15.25-57.5A111.48,111.48,0,0,1,58.12,16.67a113.32,113.32,0,0,1,57.5-15.25Q163.11,1.42,196.87,34.92Zm28.25,81.25q0-45.24-32-77.5T115.87,6.42q-45.27,0-77.25,32.25t-32,77.5q0,45.26,32,77.25t77.25,32q45.24,0,77.25-32T225.12,116.17Z" transform="translate(-1.12 -1.42)" fill="#1d1d1b"/><path d="M205.62,115.42v.5a116,116,0,0,1-1,14c-.34,1.34-1,2-2,2h-.5a2,2,0,0,1-1.5-2v-.5a75.31,75.31,0,0,0,1.5-13.5v-.5c0-1.33.5-2,1.5-2A1.77,1.77,0,0,1,205.62,115.42Z" transform="translate(-1.12 -1.42)" fill="#5a5a5a"/><path d="M204.12,100.42a2,2,0,0,1-1.5,2h-.5q-1,0-1.5-1.5v-.5a70.64,70.64,0,0,0-4-13q-.51-.49,0-1.5c.32-.66.66-1,1-1,1-.66,1.82-.33,2.5,1A83.89,83.89,0,0,1,204.12,100.42Z" transform="translate(-1.12 -1.42)" fill="#5a5a5a"/><path d="M199.37,142.17c1.16.5,1.57,1.25,1.25,2.25a138.78,138.78,0,0,1-6.5,14,4.41,4.41,0,0,1-2,.5h-.5a2.81,2.81,0,0,1-1-2l.5-.5a79.42,79.42,0,0,0,6-13C197.44,142.09,198.19,141.67,199.37,142.17Z" transform="translate(-1.12 -1.42)" fill="#5a5a5a"/><path d="M193.12,72.42a1.52,1.52,0,0,1,.5,1,1.61,1.61,0,0,1-1,1.5h-1a2,2,0,0,1-1.5-.5,95.08,95.08,0,0,0-8.5-11.5,2,2,0,0,1-.5-1.5,1.43,1.43,0,0,1,.5-1c1-1,1.82-1,2.5,0A71.11,71.11,0,0,1,193.12,72.42Z" transform="translate(-1.12 -1.42)" fill="#5a5a5a"/><path d="M185.12,167.92c.66.67.66,1.5,0,2.5a110,110,0,0,1-11,10.5,5.46,5.46,0,0,1-2.5-.5v-1a2,2,0,0,1,.5-1.5,96.83,96.83,0,0,0,10.5-10C183.28,166.92,184.12,166.92,185.12,167.92Z" transform="translate(-1.12 -1.42)" fill="#5a5a5a"/><path d="M174.12,51.42a2.08,2.08,0,0,1-.5,1.5,2,2,0,0,1-1.5.5,1.38,1.38,0,0,1-1-.5h-.5a90.42,90.42,0,0,0-11.5-8c-1-.66-1.18-1.33-.5-2,.32-1.33,1-1.66,2-1a67.88,67.88,0,0,1,12.5,8A1.62,1.62,0,0,1,174.12,51.42Z" transform="translate(-1.12 -1.42)" fill="#5a5a5a"/><path d="M157.12,68.92q19,19,19,47t-19,47q-17.52,17.51-41.25,17.5t-41.25-17.5q-19-19-19-47t19-47q17.49-17.49,41.25-17.5T157.12,68.92Zm13.5,47q0-26-17.5-43.5-16-16-37.25-16t-37.25,16q-17.52,17.51-17.5,43.5t17.5,43.5q16,16,37.25,16t37.25-16Q170.61,141.93,170.62,115.92Z" transform="translate(-1.12 -1.42)" fill="#1d1d1b"/><path d="M162.62,186.42a2.18,2.18,0,0,1-.5,3,67.54,67.54,0,0,1-13.5,6,.44.44,0,0,1-.5.5,2,2,0,0,1-2-1.5v-.5a2.85,2.85,0,0,1,1-2,46,46,0,0,0,13-6A2.29,2.29,0,0,1,162.62,186.42Z" transform="translate(-1.12 -1.42)" fill="#5a5a5a"/><path d="M148.62,37.42a.44.44,0,0,1-.5.5,1.33,1.33,0,0,1-1.5,1.5h-.5a53.77,53.77,0,0,0-13-3.5l-.5,6.5-17-10,18.5-7.5-.5,7a72.12,72.12,0,0,1,13.5,4A1.33,1.33,0,0,1,148.62,37.42Z" transform="translate(-1.12 -1.42)" fill="#5a5a5a"/><path d="M135.62,197.42a1.83,1.83,0,0,1-1.5,2.5q-7.5,1-15,1.5c-1,0-1.5-.66-1.5-2v-1a3.83,3.83,0,0,1,1.5-.5,101.07,101.07,0,0,0,14.5-2A2,2,0,0,1,135.62,197.42Z" transform="translate(-1.12 -1.42)" fill="#5a5a5a"/><path d="M115.62,32.42a3.83,3.83,0,0,1-1.25,3.75,5.29,5.29,0,0,1-3.75,1.75,5.46,5.46,0,0,1-5.5-3.5,83,83,0,0,0-12,2.5h-.5a2,2,0,0,1-2-1.5l.5-1a.88.88,0,0,1,1-1,100.82,100.82,0,0,1,13-2.5,4.72,4.72,0,0,1,5-4C113.78,26.92,115.62,28.76,115.62,32.42Z" transform="translate(-1.12 -1.42)" fill="#5a5a5a"/><path d="M106.12,197.92v1c0,1.34-.5,2-1.5,2q-6-1-14.5-3h-.5a2,2,0,0,1-1.5-2l.5-.5c0-1,.66-1.33,2-1,5.32,1.34,10,2.34,14,3A4,4,0,0,1,106.12,197.92Z" transform="translate(-1.12 -1.42)" fill="#5a5a5a"/><path d="M80.12,39.42a.45.45,0,0,1,.5.5c0,1-.34,1.5-1,1.5a84.52,84.52,0,0,0-13,7,1.45,1.45,0,0,1-1,.5c-.34,0-.84-.33-1.5-1v-1a1.59,1.59,0,0,1,1-1.5,80.58,80.58,0,0,1,13-7A1.4,1.4,0,0,1,80.12,39.42Z" transform="translate(-1.12 -1.42)" fill="#5a5a5a"/><path d="M77.12,189.42a1.49,1.49,0,0,1,1,.5q.48,1,0,1.5a1.61,1.61,0,0,1-1.5,1h-1a134.72,134.72,0,0,1-12.5-7l-.5-.5a2,2,0,0,1-.5-1.5v-1c.66-1,1.66-1.16,3-.5A130.86,130.86,0,0,0,77.12,189.42Z" transform="translate(-1.12 -1.42)" fill="#5a5a5a"/><path d="M55.62,54.92a1.52,1.52,0,0,1,.5,1,2.08,2.08,0,0,1-.5,1.5,98.4,98.4,0,0,0-10,10.5,1.61,1.61,0,0,1-1.5,1l-1-.5c-.68-.66-.68-1.5,0-2.5a51.57,51.57,0,0,1,10-11l.5-.5A1.65,1.65,0,0,1,55.62,54.92Z" transform="translate(-1.12 -1.42)" fill="#5a5a5a"/><path d="M53.62,172.92c1,.67,1,1.5,0,2.5a1.45,1.45,0,0,1-1,.5,2,2,0,0,1-1.5-.5,74.11,74.11,0,0,1-9.5-11.5,1.4,1.4,0,0,1-.5-1,2,2,0,0,1,.5-1.5c1.32-.66,2.32-.5,3,.5A85.83,85.83,0,0,0,53.62,172.92Z" transform="translate(-1.12 -1.42)" fill="#5a5a5a"/><path d="M38.62,79.42a1.48,1.48,0,0,1-.5,1,64,64,0,0,0-5,13c-.68,1-1.34,1.5-2,1.5h-.5c-.68-.33-1-.66-1-1a3.67,3.67,0,0,1-.5-1.5,87.52,87.52,0,0,1,6-14c.32-1,1.16-1.16,2.5-.5A1.62,1.62,0,0,1,38.62,79.42Z" transform="translate(-1.12 -1.42)" fill="#5a5a5a"/><path d="M37.12,149.42v1.5c0,.34-.34.67-1,1h-.5a2.83,2.83,0,0,1-2-1,114.54,114.54,0,0,1-5-14v-.5a2,2,0,0,1,1.5-2c1.32,0,2,.5,2,1.5A70.23,70.23,0,0,0,37.12,149.42Z" transform="translate(-1.12 -1.42)" fill="#5a5a5a"/><path d="M29.62,115.92c0,1,.16,3,.5,6,0,1-.68,1.67-2,2a1.76,1.76,0,0,1-2-2v-6a67.37,67.37,0,0,1,.5-8.5,1.77,1.77,0,0,1,2-2c1,0,1.5.67,1.5,2C29.78,110.76,29.62,113.59,29.62,115.92Z" transform="translate(-1.12 -1.42)" fill="#5a5a5a"/></svg>