<svg id="Layer_1" data-name="Layer 1" xmlns="http://www.w3.org/2000/svg" viewBox="0 0 216.5 345.64"><path d="M31.5,67.88c0-1.33-.59-2-1.75-2s-1.75.67-1.75,2v15c0,1,.57,1.5,1.75,1.5s1.75-.5,1.75-1.5Zm3.5-5q-4,3.51-.5,7.75c2.32,2.84,5,3.09,8,.75a5.73,5.73,0,0,0,1.5-6,82.55,82.55,0,0,1,11.5-6.5,2,2,0,0,0,1-2v-.5c-.34-1-1.18-1.33-2.5-1a68.17,68.17,0,0,0-12.5,7A5.27,5.27,0,0,0,35,62.88Zm177,74.5q0,33-13.5,57.5a89.72,89.72,0,0,1-33,34q-28,17.51-67.5,17.5a178.27,178.27,0,0,1-41.5-5,3.28,3.28,0,0,0-2,.75,2.14,2.14,0,0,0-1,1.75v73.5a17.18,17.18,0,0,1-.5,4,30,30,0,0,1-1.5,5,19.49,19.49,0,0,1-4.5,7,17.39,17.39,0,0,1-5.5,4.5,16.06,16.06,0,0,1-5,2,21.09,21.09,0,0,1-12,.5,15.69,15.69,0,0,1-5-2,30.82,30.82,0,0,1-5.5-3.5,20.65,20.65,0,0,1-5.5-7.5,15.74,15.74,0,0,1-2-6V25.88a26.62,26.62,0,0,1,1.5-5,19.49,19.49,0,0,1,4.5-7A17.18,17.18,0,0,1,18,9.38a34.3,34.3,0,0,1,5-2.5,25.52,25.52,0,0,1,7-1,25.85,25.85,0,0,1,5,.5,16.06,16.06,0,0,1,5,2,15.6,15.6,0,0,1,5,3.5,18.89,18.89,0,0,1,6,7.5c.66,1.67,1.32,3.5,2,5.5v4a2.67,2.67,0,0,0,1.25,2,2,2,0,0,0,2.25.5c1.32-.33,3-.83,5-1.5q37.5-9.49,76,4.5,36,13.5,56,42Q212,103.38,212,137.38Zm-20,19.5a73.87,73.87,0,0,0,1.5-14.5,1.77,1.77,0,0,0-2-2,1.33,1.33,0,0,0-1.5,1.5q-.51,7-1.5,14.5v.5a1.33,1.33,0,0,0,1.5,1.5C191.32,158.38,192,157.88,192,156.88Zm-.5-27.5a2,2,0,0,0,1.5-2,67.26,67.26,0,0,0-3-15c-.34-1-1.18-1.33-2.5-1a1.4,1.4,0,0,0-1,2,131,131,0,0,1,3,14.5,1.33,1.33,0,0,0,1.5,1.5Zm-3.5,42q.48-.49,0-1.5c0-.33-.34-.5-1-.5-1-.66-1.68-.33-2,1a121.3,121.3,0,0,1-6,13,1.43,1.43,0,0,0-.5,1,1.58,1.58,0,0,0,1,1.5h1a1.61,1.61,0,0,0,1.5-1h.5A90.07,90.07,0,0,0,188,171.38Zm-3.5-72v-1q-3.51-6-8-12.5a2.18,2.18,0,0,0-3-.5,1.88,1.88,0,0,0,0,3,87.7,87.7,0,0,1,7.5,12,2,2,0,0,0,2,1l.5-.5C184.16,100.88,184.5,100.38,184.5,99.38Zm-11.5,98a2.08,2.08,0,0,0,.5-1.5c0-.66-.18-1-.5-1-1-1-1.84-1-2.5,0a69.5,69.5,0,0,1-10.5,9.5,1.59,1.59,0,0,0-1,1.5l.5,1a2,2,0,0,0,1.5.5h1A82.25,82.25,0,0,0,173,197.38Zm-6.5-121a2.12,2.12,0,0,0-.5-1.5,99.27,99.27,0,0,0-11.5-9c-1.34-.66-2.34-.5-3,.5q-.51,1,0,1.5a1.4,1.4,0,0,0,.5,1,57.66,57.66,0,0,1,11.5,9,3.67,3.67,0,0,0,1.5.5c.32,0,.66-.25,1-.75A2.53,2.53,0,0,0,166.5,76.38Zm-9,95.5q7.5-13.5,7.5-34.5a57.88,57.88,0,0,0-10.5-34q-11.52-17-33.5-25-24.51-9-48-3a45.16,45.16,0,0,0-18.5,8.5,3.35,3.35,0,0,0-1,2.5v103.5a2.3,2.3,0,0,0,1.5,2.5,136.56,136.56,0,0,0,43.5,7H103q23-1,38-10.5A47.38,47.38,0,0,0,157.5,171.88Zm-8.5,43a1.9,1.9,0,0,0-1.5-3.5,75.74,75.74,0,0,1-13.5,5q-1.5.51-1.5,1.5v1a2,2,0,0,0,2,1h.5A68.55,68.55,0,0,0,149,214.88Zm-7-154.5c.32-1,.16-1.66-.5-2a87.45,87.45,0,0,0-14-5c-1.34-.66-2.18-.33-2.5,1q-.51.51,0,1.5a1.38,1.38,0,0,0,1,.5,68.46,68.46,0,0,1,13.5,5.5h1a1.61,1.61,0,0,0,1.5-1Zm-21.5,163a1.82,1.82,0,0,0,1.25-2.25c-.18-1.16-.75-1.75-1.75-1.75a138.29,138.29,0,0,1-14.5,1.5c-1.34.34-2,1-2,2,.32,1.34,1,2,2,2Zm-6-171.5v-.5a2,2,0,0,0-1.5-2q-7.5-1-15-1.5a2,2,0,0,0-2,1.5,2,2,0,0,0,.5,1.5,2,2,0,0,0,1.5.5q6.48.51,13.5,1.5l.5.5h.5A2,2,0,0,0,114.5,51.88Zm-22,170.75c0-1.16-.5-1.75-1.5-1.75-4.68-.33-9.5-.83-14.5-1.5-1.34-.33-2,.17-2,1.5v.5a1.33,1.33,0,0,0,1.5,1.5q8,1,14.5,1.5C91.82,224.38,92.5,223.8,92.5,222.63Zm-9-170.75a2,2,0,0,0,1.5-2,1.77,1.77,0,0,0-2-2l-.5.5a137.06,137.06,0,0,0-14.5,2,2,2,0,0,0-1,2.5,2,2,0,0,0,2,1.5A89,89,0,0,1,83.5,51.88Zm-20,167v-1.5a1.62,1.62,0,0,0-1.5-1q-4-1-10.5-3l2.5-6-19.5,1.5,13,15,3-7q4.5,1.5,11,3.5A2,2,0,0,0,63.5,218.88ZM30,324.88l8.5-17.5h-7v-4c0-1-.59-1.5-1.75-1.5s-1.75.5-1.75,1.5v4H21Zm1.5-279a5.51,5.51,0,0,0,4-5.5,5.29,5.29,0,0,0-1.75-3.75,5.55,5.55,0,0,0-4-1.75A4.76,4.76,0,0,0,26,36.63a5.68,5.68,0,0,0-1.5,3.75,5.47,5.47,0,0,0,3.5,5.5v7.5c0,1,.57,1.5,1.75,1.5s1.75-.5,1.75-1.5Zm0,243v-15c0-1-.59-1.5-1.75-1.5s-1.75.5-1.75,1.5v15c0,1.33.57,2,1.75,2S31.5,290.21,31.5,288.88Zm0-29.5v-15c0-1-.59-1.5-1.75-1.5s-1.75.5-1.75,1.5v15c0,1,.57,1.5,1.75,1.5S31.5,260.38,31.5,259.38Zm0-29.5v-15c0-1-.59-1.5-1.75-1.5s-1.75.5-1.75,1.5v15c0,1.34.57,2,1.75,2S31.5,231.22,31.5,229.88Zm0-29.5v-14.5c0-1.33-.59-2-1.75-2s-1.75.67-1.75,2v14.5c0,1.34.57,2,1.75,2S31.5,201.72,31.5,200.38Zm0-29.5v-14.5c0-1.33-.59-2-1.75-2s-1.75.67-1.75,2v14.5c0,1.34.57,2,1.75,2S31.5,172.22,31.5,170.88Zm0-29.5v-14.5c0-1.33-.59-2-1.75-2s-1.75.67-1.75,2v14.5c0,1.34.57,2,1.75,2S31.5,142.72,31.5,141.38Zm0-29.5V97.38c0-1.33-.59-2-1.75-2s-1.75.67-1.75,2v14.5c0,1.34.57,2,1.75,2S31.5,113.22,31.5,111.88Z" transform="translate(-1 -0.74)" fill="#fbea23"/><path d="M217.5,137.88q0,34-14.5,59.5a96.74,96.74,0,0,1-34.5,36Q139,251.89,98,251.88a179.45,179.45,0,0,1-39.5-4.5v70.5a17.18,17.18,0,0,1-.5,4,38.47,38.47,0,0,1-1.5,6.5,25.35,25.35,0,0,1-5.5,8.5,22.49,22.49,0,0,1-7,5.5,17.26,17.26,0,0,1-6,3,33.33,33.33,0,0,1-8,1,29.84,29.84,0,0,1-6.75-.75A27.78,27.78,0,0,1,17,343.38a45.71,45.71,0,0,1-6.5-4.5,28.17,28.17,0,0,1-7-9.5,21.27,21.27,0,0,1-2-7,25,25,0,0,1-.5-5v-288a16.18,16.18,0,0,1,.5-4A14.34,14.34,0,0,1,3,18.88a24.76,24.76,0,0,1,5.5-8.5,30.2,30.2,0,0,1,7-6,24.9,24.9,0,0,1,6-2.5A30.42,30.42,0,0,1,36,1.38a21.4,21.4,0,0,1,6,2,27.89,27.89,0,0,1,7,4.5,26.48,26.48,0,0,1,6.5,9,20.18,20.18,0,0,1,2.5,7,3.67,3.67,0,0,0,.5,1.5,2,2,0,0,1,1.5-.5q39-10,79,4.5,37.5,14,58.5,44Q217.48,101.88,217.5,137.88Zm-19,57q13.5-24.49,13.5-57.5,0-34-18.5-61-20-28.5-56-42-38.52-14-76-4.5c-2,.67-3.68,1.17-5,1.5a2,2,0,0,1-2.25-.5,2.67,2.67,0,0,1-1.25-2v-4c-.68-2-1.34-3.83-2-5.5a18.89,18.89,0,0,0-6-7.5,15.6,15.6,0,0,0-5-3.5,16.06,16.06,0,0,0-5-2,25.85,25.85,0,0,0-5-.5,25.52,25.52,0,0,0-7,1,34.3,34.3,0,0,0-5,2.5,17.18,17.18,0,0,0-5.5,4.5,19.49,19.49,0,0,0-4.5,7,26.62,26.62,0,0,0-1.5,5v295.5a15.74,15.74,0,0,0,2,6,20.65,20.65,0,0,0,5.5,7.5,30.82,30.82,0,0,0,5.5,3.5,15.69,15.69,0,0,0,5,2,21.09,21.09,0,0,0,12-.5,16.06,16.06,0,0,0,5-2,17.39,17.39,0,0,0,5.5-4.5,19.49,19.49,0,0,0,4.5-7,30,30,0,0,0,1.5-5,17.18,17.18,0,0,0,.5-4v-73.5a2.14,2.14,0,0,1,1-1.75,3.28,3.28,0,0,1,2-.75,178.27,178.27,0,0,0,41.5,5q39.48,0,67.5-17.5A89.72,89.72,0,0,0,198.5,194.88Z" transform="translate(-1 -0.74)" fill="#1d1d1b"/><path d="M193.5,142.38a73.87,73.87,0,0,1-1.5,14.5c0,1-.68,1.5-2,1.5a1.33,1.33,0,0,1-1.5-1.5v-.5q1-7.5,1.5-14.5a1.33,1.33,0,0,1,1.5-1.5A1.77,1.77,0,0,1,193.5,142.38Z" transform="translate(-1 -0.74)" fill="#5a5a5a"/><path d="M193,127.38a2,2,0,0,1-1.5,2H191a1.33,1.33,0,0,1-1.5-1.5,131,131,0,0,0-3-14.5,1.4,1.4,0,0,1,1-2c1.32-.33,2.16,0,2.5,1A67.26,67.26,0,0,1,193,127.38Z" transform="translate(-1 -0.74)" fill="#5a5a5a"/><path d="M188,169.88q.48,1,0,1.5a90.07,90.07,0,0,1-5.5,13.5H182a1.61,1.61,0,0,1-1.5,1h-1a1.58,1.58,0,0,1-1-1.5,1.43,1.43,0,0,1,.5-1,121.3,121.3,0,0,0,6-13c.32-1.33,1-1.66,2-1C187.66,169.38,188,169.55,188,169.88Z" transform="translate(-1 -0.74)" fill="#5a5a5a"/><path d="M184.5,98.88v.5c0,1-.34,1.5-1,1.5l-.5.5a2,2,0,0,1-2-1,87.7,87.7,0,0,0-7.5-12,1.88,1.88,0,0,1,0-3,2.18,2.18,0,0,1,3,.5q4.5,6.51,8,12.5Z" transform="translate(-1 -0.74)" fill="#5a5a5a"/><path d="M173,194.88c.32,0,.5.34.5,1a2.08,2.08,0,0,1-.5,1.5,82.25,82.25,0,0,1-11,10h-1a2,2,0,0,1-1.5-.5l-.5-1a1.59,1.59,0,0,1,1-1.5,69.5,69.5,0,0,0,10.5-9.5C171.16,193.88,172,193.88,173,194.88Z" transform="translate(-1 -0.74)" fill="#5a5a5a"/><path d="M166,74.88a2.12,2.12,0,0,1,.5,1.5,2.53,2.53,0,0,1-.5,1.25c-.34.5-.68.75-1,.75a3.67,3.67,0,0,1-1.5-.5,57.66,57.66,0,0,0-11.5-9,1.4,1.4,0,0,1-.5-1q-.51-.5,0-1.5c.66-1,1.66-1.16,3-.5A99.27,99.27,0,0,1,166,74.88Z" transform="translate(-1 -0.74)" fill="#5a5a5a"/><path d="M165,137.38q0,21-7.5,34.5a47.38,47.38,0,0,1-16.5,17q-15,9.51-38,10.5H98.5a136.56,136.56,0,0,1-43.5-7,2.3,2.3,0,0,1-1.5-2.5V86.38a3.35,3.35,0,0,1,1-2.5A45.16,45.16,0,0,1,73,75.38q23.49-6,48,3,22,8,33.5,25A57.88,57.88,0,0,1,165,137.38Zm-12,32q7-12.49,7-32a52.63,52.63,0,0,0-9.5-31q-11-15.5-31.5-23-23-8.49-44.5-3a58.19,58.19,0,0,0-16,7v100.5a129,129,0,0,0,44.5,6q21.48-1,35-9.5A40.58,40.58,0,0,0,153,169.38Z" transform="translate(-1 -0.74)" fill="#1d1d1b"/><path d="M150,212.38a2,2,0,0,1-1,2.5,68.55,68.55,0,0,1-14,5h-.5a2,2,0,0,1-2-1v-1q0-1,1.5-1.5a75.74,75.74,0,0,0,13.5-5A2,2,0,0,1,150,212.38Z" transform="translate(-1 -0.74)" fill="#5a5a5a"/><path d="M141.5,58.38c.66.34.82,1,.5,2v.5a1.61,1.61,0,0,1-1.5,1h-1a68.46,68.46,0,0,0-13.5-5.5,1.38,1.38,0,0,1-1-.5q-.51-1,0-1.5c.32-1.33,1.16-1.66,2.5-1A87.45,87.45,0,0,1,141.5,58.38Z" transform="translate(-1 -0.74)" fill="#5a5a5a"/><path d="M121.75,221.13a1.82,1.82,0,0,1-1.25,2.25l-15,1.5c-1,0-1.68-.66-2-2,0-1,.66-1.66,2-2a138.29,138.29,0,0,0,14.5-1.5C121,219.38,121.57,220,121.75,221.13Z" transform="translate(-1 -0.74)" fill="#5a5a5a"/><path d="M114.5,51.38v.5a2,2,0,0,1-2,1.5H112l-.5-.5q-7-1-13.5-1.5a2,2,0,0,1-1.5-.5,2,2,0,0,1-.5-1.5,2,2,0,0,1,2-1.5q7.5.51,15,1.5A2,2,0,0,1,114.5,51.38Z" transform="translate(-1 -0.74)" fill="#5a5a5a"/><path d="M91,220.88c1,0,1.5.59,1.5,1.75s-.68,1.75-2,1.75q-6.51-.49-14.5-1.5a1.33,1.33,0,0,1-1.5-1.5v-.5c0-1.33.66-1.83,2-1.5C81.5,220.05,86.32,220.55,91,220.88Z" transform="translate(-1 -0.74)" fill="#5a5a5a"/><path d="M85,49.88a2,2,0,0,1-1.5,2A89,89,0,0,0,69,54.38a2,2,0,0,1-2-1.5,2,2,0,0,1,1-2.5,137.06,137.06,0,0,1,14.5-2l.5-.5A1.77,1.77,0,0,1,85,49.88Z" transform="translate(-1 -0.74)" fill="#5a5a5a"/><path d="M63.5,217.38v1.5a2,2,0,0,1-2,1.5q-6.51-2-11-3.5l-3,7-13-15,19.5-1.5-2.5,6q6.48,2,10.5,3A1.62,1.62,0,0,1,63.5,217.38Z" transform="translate(-1 -0.74)" fill="#5a5a5a"/><path d="M56.5,56.38v.5a2,2,0,0,1-1,2A82.55,82.55,0,0,0,44,65.38a5.73,5.73,0,0,1-1.5,6c-3,2.34-5.68,2.09-8-.75s-2.18-5.41.5-7.75a5.27,5.27,0,0,1,6.5-.5,68.17,68.17,0,0,1,12.5-7C55.32,55.05,56.16,55.38,56.5,56.38Z" transform="translate(-1 -0.74)" fill="#5a5a5a"/><path d="M38.5,307.38,30,324.88l-9-17.5h7v-4c0-1,.57-1.5,1.75-1.5s1.75.5,1.75,1.5v4Z" transform="translate(-1 -0.74)" fill="#5a5a5a"/><path d="M35.5,40.38a5.51,5.51,0,0,1-4,5.5v7.5c0,1-.59,1.5-1.75,1.5S28,54.38,28,53.38v-7.5a5.47,5.47,0,0,1-3.5-5.5A5.68,5.68,0,0,1,26,36.63a4.76,4.76,0,0,1,3.75-1.75,5.55,5.55,0,0,1,4,1.75A5.29,5.29,0,0,1,35.5,40.38Z" transform="translate(-1 -0.74)" fill="#5a5a5a"/><path d="M31.5,273.88v15c0,1.33-.59,2-1.75,2s-1.75-.67-1.75-2v-15c0-1,.57-1.5,1.75-1.5S31.5,272.88,31.5,273.88Z" transform="translate(-1 -0.74)" fill="#5a5a5a"/><path d="M31.5,244.38v15c0,1-.59,1.5-1.75,1.5s-1.75-.5-1.75-1.5v-15c0-1,.57-1.5,1.75-1.5S31.5,243.38,31.5,244.38Z" transform="translate(-1 -0.74)" fill="#5a5a5a"/><path d="M31.5,214.88v15c0,1.34-.59,2-1.75,2s-1.75-.66-1.75-2v-15c0-1,.57-1.5,1.75-1.5S31.5,213.88,31.5,214.88Z" transform="translate(-1 -0.74)" fill="#5a5a5a"/><path d="M31.5,185.88v14.5c0,1.34-.59,2-1.75,2s-1.75-.66-1.75-2v-14.5c0-1.33.57-2,1.75-2S31.5,184.55,31.5,185.88Z" transform="translate(-1 -0.74)" fill="#5a5a5a"/><path d="M31.5,156.38v14.5c0,1.34-.59,2-1.75,2s-1.75-.66-1.75-2v-14.5c0-1.33.57-2,1.75-2S31.5,155.05,31.5,156.38Z" transform="translate(-1 -0.74)" fill="#5a5a5a"/><path d="M31.5,126.88v14.5c0,1.34-.59,2-1.75,2s-1.75-.66-1.75-2v-14.5c0-1.33.57-2,1.75-2S31.5,125.55,31.5,126.88Z" transform="translate(-1 -0.74)" fill="#5a5a5a"/><path d="M31.5,97.38v14.5c0,1.34-.59,2-1.75,2s-1.75-.66-1.75-2V97.38c0-1.33.57-2,1.75-2S31.5,96.05,31.5,97.38Z" transform="translate(-1 -0.74)" fill="#5a5a5a"/><path d="M31.5,67.88v15c0,1-.59,1.5-1.75,1.5S28,83.88,28,82.88v-15c0-1.33.57-2,1.75-2S31.5,66.55,31.5,67.88Z" transform="translate(-1 -0.74)" fill="#5a5a5a"/></svg>