<svg id="Layer_1" data-name="Layer 1" xmlns="http://www.w3.org/2000/svg" viewBox="0 0 216.5 345.64"><path d="M188.24,66.42c-1.34,0-2,.5-2,1.5v15c0,1,.66,1.5,2,1.5s2-.5,2-1.5v-15C190.24,66.92,189.57,66.42,188.24,66.42Zm-4.5,4.25q3.49-4.24-1-7.75-3-2.49-6-.5-6.51-4-12.5-7c-1.34-.33-2.17,0-2.5,1l-.5.5a2,2,0,0,0,1,2,94.05,94.05,0,0,1,12,6.5,5.69,5.69,0,0,0,1.5,6Q180.24,74.93,183.74,70.67Zm28-41.25v288a13.09,13.09,0,0,1-.5,4,27.06,27.06,0,0,1-1.5,6,26.14,26.14,0,0,1-11,11.5,28.19,28.19,0,0,1-5,1.5,21.09,21.09,0,0,1-12-.5,15.55,15.55,0,0,1-5-2,17.18,17.18,0,0,1-5.5-4.5,19.41,19.41,0,0,1-4.5-7,28,28,0,0,1-1.5-5,16.12,16.12,0,0,1-.5-4v-73.5a2.93,2.93,0,0,0-1-2,2.07,2.07,0,0,0-1.5-.5h-.5a178.4,178.4,0,0,1-41.5,5q-39.51,0-68-17.5a90.91,90.91,0,0,1-32.5-34q-13.5-24.49-13.5-57.5,0-34,18.5-61,20-28.5,56-42,38.49-14,76-4.5a18.59,18.59,0,0,1,4.5,1.5,2.25,2.25,0,0,0,2.5-.5,2.89,2.89,0,0,0,1-2,16.18,16.18,0,0,1,.5-4,15.51,15.51,0,0,1,2-5.5,20.77,20.77,0,0,1,5.5-7.5,30.82,30.82,0,0,1,5.5-3.5,15.78,15.78,0,0,1,5-2,29.3,29.3,0,0,1,12,.5,35.87,35.87,0,0,1,5,2.5,17.28,17.28,0,0,1,5.5,4.5,19.49,19.49,0,0,1,4.5,7,30,30,0,0,1,1.5,5Zm-23.5,295.5,9-17.5h-7v-4c0-1-.67-1.5-2-1.5s-2,.5-2,1.5v4h-7Zm2-279a5.48,5.48,0,0,0,3.5-5.5,5.68,5.68,0,0,0-1.5-3.75,4.76,4.76,0,0,0-3.75-1.75,5.52,5.52,0,0,0-4,1.75,5.25,5.25,0,0,0-1.75,3.75,5.47,5.47,0,0,0,3.5,5.5v7.5c0,1,.66,1.5,2,1.5s2-.5,2-1.5Zm0,243v-15c0-1-.67-1.5-2-1.5s-2,.5-2,1.5v15c0,1,.66,1.5,2,1.5S190.24,289.92,190.24,288.92Zm0-29.5v-15c0-1-.67-1.5-2-1.5s-2,.5-2,1.5v15a2,2,0,0,0,4,0Zm0-29.5v-14.5a2,2,0,1,0-4,0v14.5a2,2,0,0,0,4,0Zm0-29.5v-14.5a2,2,0,1,0-4,0v14.5a2,2,0,0,0,4,0Zm0-29.5v-14.5a2,2,0,1,0-4,0v14.5a2,2,0,0,0,4,0Zm0-29.5v-14.5a2,2,0,0,0-4,0v14.5a2,2,0,0,0,4,0Zm0-29v-15a2,2,0,0,0-4,0v15c0,1,.66,1.5,2,1.5S190.24,113.42,190.24,112.42Zm-19.5,111.5,13-15-19.5-1.5,2,6a70.94,70.94,0,0,1-10.5,3l-1,1q-.51,1,0,1.5c0,.67.5,1,1.5,1h.5q6-1.5,11-3Zm-6-34V86.42a3.42,3.42,0,0,0-1-2.5,49.67,49.67,0,0,0-18.5-8.5q-23.51-6-48,3-22,8-34,25-10.5,15-10.5,34.5,0,20.51,8,34a42.4,42.4,0,0,0,16.5,17q15,9.51,38,10.5h4.5a139.68,139.68,0,0,0,43.5-7A2.3,2.3,0,0,0,164.74,189.92Zm-13.5-137c.33-1.33-.17-2-1.5-2a78.75,78.75,0,0,0-14.5-2.5c-1.34,0-2,.5-2,1.5a2,2,0,0,0,1.5,2,120.26,120.26,0,0,1,14,2.5h.5C149.9,54.42,150.57,53.92,151.24,52.92Zm-9,170c1,0,1.5-.66,1.5-2-.34-1.33-1-1.83-2-1.5h-.5q-8,1-14,1.5a2.44,2.44,0,0,0-1.25.5,1.7,1.7,0,0,0-.75,1.5,2,2,0,0,0,2,1.5A94.28,94.28,0,0,0,142.24,222.92Zm-20-173.25c0-1.16-.67-1.75-2-1.75a76.31,76.31,0,0,0-15,1.5,1.77,1.77,0,1,0,.5,3.5q7.5-1,14.5-1.5C121.57,51.42,122.24,50.84,122.24,49.67Zm-7.5,173.25a1.77,1.77,0,0,0-2-2,73.87,73.87,0,0,1-14.5-1.5,3,3,0,0,0-2,2,1.4,1.4,0,0,0,.5,1,.88.88,0,0,0,1,1,120.58,120.58,0,0,0,15,1A2,2,0,0,0,114.74,222.92Zm-23-166.5c1.33,0,1.83-.66,1.5-2a1.83,1.83,0,0,0-2.5-1.5q-7,2.51-14,5.5a2.89,2.89,0,0,0-1,2v.5a2.85,2.85,0,0,0,2,1h1A89.74,89.74,0,0,1,91.74,56.42Zm-6.5,162.5.5-.5a3.29,3.29,0,0,0-1.5-2,70.9,70.9,0,0,1-13.5-5c-1-.66-1.84-.33-2.5,1-.67,1-.34,1.84,1,2.5a70.83,70.83,0,0,0,14,5h.5C84.74,219.92,85.24,219.59,85.24,218.92Zm-19.5-150a1.8,1.8,0,0,0-2-3,86.64,86.64,0,0,0-11.5,9,2,2,0,0,0-.5,1.5v1.5a2,2,0,0,0,1.5.5,2,2,0,0,0,1.5-.5A49.74,49.74,0,0,1,65.74,68.92Zm-6.5,137a1.62,1.62,0,0,0-1-1.5,68.55,68.55,0,0,1-10.5-9.5,1.88,1.88,0,0,0-3,0c-.67.67-.67,1.5,0,2.5a66.47,66.47,0,0,0,11.5,10A3.37,3.37,0,0,0,59.24,205.92ZM44.74,88.42a2,2,0,0,0,.5-1.5c-.34-.66-.67-1-1-1-1-1-1.84-1-2.5,0a67,67,0,0,0-8,12.5v1a1.59,1.59,0,0,0,1,1.5.44.44,0,0,0,.5.5,1.61,1.61,0,0,0,1.5-1A75.24,75.24,0,0,1,44.74,88.42Zm-5,96a1.47,1.47,0,0,0-.5-1,102.88,102.88,0,0,1-6-13c-.34-1.33-1-1.83-2-1.5a3.3,3.3,0,0,0-1.5,1.5v1a82.66,82.66,0,0,0,6.5,14,1.59,1.59,0,0,0,1.5,1l1-.5A1.61,1.61,0,0,0,39.74,184.42Zm-8-70.5v-1.5c-.67-.66-1.17-1-1.5-1a1.4,1.4,0,0,0-2,1,98,98,0,0,0-3,15c0,1.34.5,2,1.5,2h.5c1,0,1.5-.66,1.5-2v-.5A115.76,115.76,0,0,1,31.74,113.92Zm-2,43v-.5q-1-8-1.5-14.5c0-1-.67-1.5-2-1.5a1.77,1.77,0,0,0-1.5,1.5,76.31,76.31,0,0,0,1.5,15,1.33,1.33,0,0,0,1.5,1.5h.5A1.33,1.33,0,0,0,29.74,156.92Z" transform="translate(-0.74 -0.78)" fill="#fbea23"/><path d="M217.24,29.42v288a25.69,25.69,0,0,1-.5,5,21.68,21.68,0,0,1-2,7,28.21,28.21,0,0,1-7,9.5,44.66,44.66,0,0,1-6.5,4.5,38,38,0,0,1-6.5,2.5,40,40,0,0,1-6.5.5,32.65,32.65,0,0,1-8-1,25.49,25.49,0,0,1-6-3,22.23,22.23,0,0,1-7-5.5,24.81,24.81,0,0,1-5.5-8.5,21,21,0,0,1-2-6.5v-74.5a179.58,179.58,0,0,1-39.5,4.5q-41,0-70.5-18.5a96.58,96.58,0,0,1-34.5-36q-14.5-25.5-14.5-60,0-35.49,19.5-64,21-30,59-44,39.49-14.49,79-4.5a3.93,3.93,0,0,1,1.5.5,3.83,3.83,0,0,0,.5-1.5,27.65,27.65,0,0,1,2-7,46.56,46.56,0,0,1,7-9,45.71,45.71,0,0,1,6.5-4.5,21.23,21.23,0,0,1,6.5-2,30.42,30.42,0,0,1,14.5.5,46.28,46.28,0,0,1,6,2.5,30.62,30.62,0,0,1,7,6,25.2,25.2,0,0,1,5.5,8.5,38.47,38.47,0,0,1,1.5,6.5A16.66,16.66,0,0,1,217.24,29.42Zm-5.5,288V25.92a30,30,0,0,0-1.5-5,19.49,19.49,0,0,0-4.5-7,17.28,17.28,0,0,0-5.5-4.5,35.87,35.87,0,0,0-5-2.5,29.3,29.3,0,0,0-12-.5,15.78,15.78,0,0,0-5,2,30.82,30.82,0,0,0-5.5,3.5,20.77,20.77,0,0,0-5.5,7.5,15.51,15.51,0,0,0-2,5.5,16.18,16.18,0,0,0-.5,4,2.89,2.89,0,0,1-1,2,2.25,2.25,0,0,1-2.5.5,18.59,18.59,0,0,0-4.5-1.5q-37.5-9.5-76,4.5-36,13.5-56,42-18.51,27-18.5,61,0,33,13.5,57.5a90.91,90.91,0,0,0,32.5,34q28.5,17.51,68,17.5a178.4,178.4,0,0,0,41.5-5h.5a2.07,2.07,0,0,1,1.5.5,2.93,2.93,0,0,1,1,2v73.5a16.12,16.12,0,0,0,.5,4,28,28,0,0,0,1.5,5,19.41,19.41,0,0,0,4.5,7,17.18,17.18,0,0,0,5.5,4.5,15.55,15.55,0,0,0,5,2,21.09,21.09,0,0,0,12,.5,28.19,28.19,0,0,0,5-1.5,26.14,26.14,0,0,0,11-11.5,27.06,27.06,0,0,0,1.5-6A13.09,13.09,0,0,0,211.74,317.42Z" transform="translate(-0.74 -0.78)" fill="#1d1d1b"/><path d="M197.24,307.42l-9,17.5-9-17.5h7v-4c0-1,.66-1.5,2-1.5s2,.5,2,1.5v4Z" transform="translate(-0.74 -0.78)" fill="#5a5a5a"/><path d="M193.74,40.42a5.48,5.48,0,0,1-3.5,5.5v7.5c0,1-.67,1.5-2,1.5s-2-.5-2-1.5v-7.5a5.47,5.47,0,0,1-3.5-5.5,5.25,5.25,0,0,1,1.75-3.75,5.52,5.52,0,0,1,4-1.75,4.76,4.76,0,0,1,3.75,1.75A5.68,5.68,0,0,1,193.74,40.42Z" transform="translate(-0.74 -0.78)" fill="#5a5a5a"/><path d="M190.24,273.92v15c0,1-.67,1.5-2,1.5s-2-.5-2-1.5v-15c0-1,.66-1.5,2-1.5S190.24,272.92,190.24,273.92Z" transform="translate(-0.74 -0.78)" fill="#5a5a5a"/><path d="M190.24,244.42v15a2,2,0,0,1-4,0v-15c0-1,.66-1.5,2-1.5S190.24,243.42,190.24,244.42Z" transform="translate(-0.74 -0.78)" fill="#5a5a5a"/><path d="M190.24,215.42v14.5a2,2,0,0,1-4,0v-14.5a2,2,0,1,1,4,0Z" transform="translate(-0.74 -0.78)" fill="#5a5a5a"/><path d="M190.24,185.92v14.5a2,2,0,0,1-4,0v-14.5a2,2,0,1,1,4,0Z" transform="translate(-0.74 -0.78)" fill="#5a5a5a"/><path d="M190.24,156.42v14.5a2,2,0,0,1-4,0v-14.5a2,2,0,1,1,4,0Z" transform="translate(-0.74 -0.78)" fill="#5a5a5a"/><path d="M190.24,126.92v14.5a2,2,0,0,1-4,0v-14.5a2,2,0,0,1,4,0Z" transform="translate(-0.74 -0.78)" fill="#5a5a5a"/><path d="M190.24,97.42v15c0,1-.67,1.5-2,1.5s-2-.5-2-1.5v-15a2,2,0,0,1,4,0Z" transform="translate(-0.74 -0.78)" fill="#5a5a5a"/><path d="M190.24,67.92v15c0,1-.67,1.5-2,1.5s-2-.5-2-1.5v-15c0-1,.66-1.5,2-1.5S190.24,66.92,190.24,67.92Z" transform="translate(-0.74 -0.78)" fill="#5a5a5a"/><path d="M182.74,62.92q4.5,3.51,1,7.75t-8,.75a5.69,5.69,0,0,1-1.5-6,94.05,94.05,0,0,0-12-6.5,2,2,0,0,1-1-2l.5-.5c.33-1,1.16-1.33,2.5-1q6,3,12.5,7Q179.74,60.43,182.74,62.92Z" transform="translate(-0.74 -0.78)" fill="#5a5a5a"/><path d="M183.74,208.92l-13,15-3-7q-5,1.5-11,3h-.5c-1,0-1.5-.33-1.5-1q-.51-.49,0-1.5l1-1a70.94,70.94,0,0,0,10.5-3l-2-6Z" transform="translate(-0.74 -0.78)" fill="#5a5a5a"/><path d="M164.74,86.42v103.5a2.3,2.3,0,0,1-1.5,2.5,139.68,139.68,0,0,1-43.5,7h-4.5q-23-1-38-10.5a42.4,42.4,0,0,1-16.5-17q-8-13.5-8-34,0-19.5,10.5-34.5,12-17,34-25,24.49-9,48-3a49.67,49.67,0,0,1,18.5,8.5A3.42,3.42,0,0,1,164.74,86.42Zm-5,101.5V87.42a58.32,58.32,0,0,0-16-7,70.09,70.09,0,0,0-17-2,82.81,82.81,0,0,0-28,5q-20,7.5-31,23-9.51,13.5-9.5,31.5,0,19,7,31.5a36.78,36.78,0,0,0,14.5,15q14,8.51,35.5,9.5A129,129,0,0,0,159.74,187.92Z" transform="translate(-0.74 -0.78)" fill="#1d1d1b"/><path d="M149.74,50.92c1.33,0,1.83.67,1.5,2-.67,1-1.34,1.5-2,1.5h-.5a120.26,120.26,0,0,0-14-2.5,2,2,0,0,1-1.5-2c0-1,.66-1.5,2-1.5A78.75,78.75,0,0,1,149.74,50.92Z" transform="translate(-0.74 -0.78)" fill="#5a5a5a"/><path d="M143.74,220.92c0,1.34-.5,2-1.5,2a94.28,94.28,0,0,1-15,1.5,2,2,0,0,1-2-1.5,1.7,1.7,0,0,1,.75-1.5,2.44,2.44,0,0,1,1.25-.5q6-.49,14-1.5h.5C142.74,219.09,143.4,219.59,143.74,220.92Z" transform="translate(-0.74 -0.78)" fill="#5a5a5a"/><path d="M120.24,47.92c1.33,0,2,.59,2,1.75s-.67,1.75-2,1.75q-7,.51-14.5,1.5a1.77,1.77,0,1,1-.5-3.5A76.31,76.31,0,0,1,120.24,47.92Z" transform="translate(-0.74 -0.78)" fill="#5a5a5a"/><path d="M112.74,220.92a1.77,1.77,0,0,1,2,2,2,2,0,0,1-2,1.5,120.58,120.58,0,0,1-15-1,.88.88,0,0,1-1-1,1.4,1.4,0,0,1-.5-1,3,3,0,0,1,2-2A73.87,73.87,0,0,0,112.74,220.92Z" transform="translate(-0.74 -0.78)" fill="#5a5a5a"/><path d="M93.24,54.42c.33,1.34-.17,2-1.5,2a89.74,89.74,0,0,0-13,5.5h-1a2.85,2.85,0,0,1-2-1v-.5a2.89,2.89,0,0,1,1-2q7-3,14-5.5A1.83,1.83,0,0,1,93.24,54.42Z" transform="translate(-0.74 -0.78)" fill="#5a5a5a"/><path d="M85.74,218.42l-.5.5c0,.67-.5,1-1.5,1h-.5a70.83,70.83,0,0,1-14-5c-1.34-.66-1.67-1.5-1-2.5.66-1.33,1.5-1.66,2.5-1a70.9,70.9,0,0,0,13.5,5A3.29,3.29,0,0,1,85.74,218.42Z" transform="translate(-0.74 -0.78)" fill="#5a5a5a"/><path d="M66.24,66.42a1.6,1.6,0,0,1-.5,2.5,49.74,49.74,0,0,0-11,9,2,2,0,0,1-1.5.5,2,2,0,0,1-1.5-.5v-1.5a2,2,0,0,1,.5-1.5,86.64,86.64,0,0,1,11.5-9A1.6,1.6,0,0,1,66.24,66.42Z" transform="translate(-0.74 -0.78)" fill="#5a5a5a"/><path d="M58.24,204.42a1.62,1.62,0,0,1,1,1.5,3.37,3.37,0,0,1-3,1.5,66.47,66.47,0,0,1-11.5-10c-.67-1-.67-1.83,0-2.5a1.88,1.88,0,0,1,3,0A68.55,68.55,0,0,0,58.24,204.42Z" transform="translate(-0.74 -0.78)" fill="#5a5a5a"/><path d="M39.24,183.42a1.47,1.47,0,0,1,.5,1,1.61,1.61,0,0,1-1,1.5l-1,.5a1.59,1.59,0,0,1-1.5-1,82.66,82.66,0,0,1-6.5-14v-1a3.3,3.3,0,0,1,1.5-1.5c1-.33,1.66.17,2,1.5A102.88,102.88,0,0,0,39.24,183.42Z" transform="translate(-0.74 -0.78)" fill="#5a5a5a"/><path d="M36.74,100.42a1.61,1.61,0,0,1-1.5,1,.44.44,0,0,1-.5-.5,1.59,1.59,0,0,1-1-1.5v-1a67,67,0,0,1,8-12.5c.66-1,1.5-1,2.5,0,.33,0,.66.34,1,1a2,2,0,0,1-.5,1.5A75.24,75.24,0,0,0,36.74,100.42Z" transform="translate(-0.74 -0.78)" fill="#5a5a5a"/><path d="M31.74,112.42v1.5a115.76,115.76,0,0,0-3,13v.5c0,1.34-.5,2-1.5,2h-.5c-1,0-1.5-.66-1.5-2a98,98,0,0,1,3-15,1.4,1.4,0,0,1,2-1C30.57,111.42,31.07,111.76,31.74,112.42Z" transform="translate(-0.74 -0.78)" fill="#5a5a5a"/><path d="M29.74,156.42v.5a1.33,1.33,0,0,1-1.5,1.5h-.5a1.33,1.33,0,0,1-1.5-1.5,76.31,76.31,0,0,1-1.5-15,1.77,1.77,0,0,1,1.5-1.5c1.33,0,2,.5,2,1.5Q28.74,148.43,29.74,156.42Z" transform="translate(-0.74 -0.78)" fill="#5a5a5a"/></svg>