<svg id="Layer_1" data-name="Layer 1" xmlns="http://www.w3.org/2000/svg" viewBox="0 0 191.5 239"><path d="M117.48,36.67h1l-1.5-.5a89.15,89.15,0,0,0-15-2.5c-1.34,0-2,.5-2,1.5a2,2,0,0,0,.5,1.5,1.4,1.4,0,0,0,1,.5,78.75,78.75,0,0,1,14.5,2.5,2,2,0,0,0,2-1v-1A1.47,1.47,0,0,0,117.48,36.67Zm-86,33.5c0-1.33-.5-2-1.5-2a1.77,1.77,0,0,0-2,2v14.5a1.76,1.76,0,0,0,2,2c1,0,1.5-.66,1.5-2ZM33,64.92q-2.5,4.76,2.25,7.5t7.5-2.25q2.75-5-2.25-7.5T33,64.92Zm152.5,3.75a24.77,24.77,0,0,1,1.5,8.75,25.44,25.44,0,0,1-1.75,9.25,22.26,22.26,0,0,1-5,7.75A20.3,20.3,0,0,1,173,99.17a21.86,21.86,0,0,1-18,.25,24,24,0,0,1-13-12.25,43,43,0,0,0-20-22,52.88,52.88,0,0,0-35.5-5.5q-15,2.51-23.5,12.5t-9.5,26v113.5a16.54,16.54,0,0,1-.5,4,27.25,27.25,0,0,1-1.5,5.5,21,21,0,0,1-5.5,7.5,44.91,44.91,0,0,1-5.5,4q-2.5,1-5.5,2a29.13,29.13,0,0,1-12-.5l-5-2a35.27,35.27,0,0,1-5.5-4.5,27.36,27.36,0,0,1-4.5-7,26,26,0,0,1-1.5-5.5V29.67a22.16,22.16,0,0,1,6.75-16.25,22.44,22.44,0,0,1,16.5-6.75,23.78,23.78,0,0,1,16.75,6.5,20.8,20.8,0,0,1,4.5,6.5,2.37,2.37,0,0,0,3.5,1.5,103.41,103.41,0,0,1,23.5-8q35-6.49,66.5,11A87.53,87.53,0,0,1,185.48,68.67Zm-17.5,17-.5-20-6.5,3.5a53.19,53.19,0,0,0-6.5-9.5,1.81,1.81,0,0,0-2.5,0c-1,.34-1,1.17,0,2.5a63.1,63.1,0,0,1,6,8.5l-6,3.5Zm-23.5-35a2.07,2.07,0,0,0-.5-1.5,139.54,139.54,0,0,0-13-8,2,2,0,0,0-2.5,1q-.51.51,0,1.5c0,.34.33.67,1,1a68.76,68.76,0,0,1,12,7.5,1.4,1.4,0,0,0,1,.5,1.61,1.61,0,0,0,1.5-1A1.44,1.44,0,0,0,144.48,50.67ZM89,35.67v-.5c0-1.33-.67-1.83-2-1.5a62,62,0,0,0-14.5,3.5c-1.34.34-1.84,1-1.5,2a2,2,0,0,0,2,1.5h.5a73.68,73.68,0,0,1,14-3A2,2,0,0,0,89,35.67Zm-27.5,9a1.47,1.47,0,0,0-.5-1,1.6,1.6,0,0,0-2.5-.5,93.17,93.17,0,0,0-12,9,3.76,3.76,0,0,0-.5,1.5,1.77,1.77,0,0,0,2,2,2,2,0,0,0,1.5-.5,40.47,40.47,0,0,1,11-8.5A2.89,2.89,0,0,0,61.48,44.67ZM30,216.67l8.5-17.5h-7v-11.5a1.33,1.33,0,0,0-1.5-1.5c-1.34,0-2,.5-2,1.5v11.5H21Zm5.5-186.25a6,6,0,0,0-5.75-5.75A4.76,4.76,0,0,0,26,26.42a5.68,5.68,0,0,0-1.5,3.75,5.24,5.24,0,0,0,.75,2.75,5.64,5.64,0,0,0,2,2,5.24,5.24,0,0,0,2.75.75,5.68,5.68,0,0,0,3.75-1.5A4.76,4.76,0,0,0,35.48,30.42Zm-4,142.75v-14.5c0-1.33-.5-2-1.5-2a1.77,1.77,0,0,0-2,2v14.5a1.76,1.76,0,0,0,2,2C31,175.17,31.48,174.51,31.48,173.17Zm0-29.5v-14.5c0-1.33-.5-2-1.5-2a1.77,1.77,0,0,0-2,2v14.5a1.76,1.76,0,0,0,2,2C31,145.67,31.48,145,31.48,143.67Zm0-29v-15c0-1.33-.5-2-1.5-2a1.77,1.77,0,0,0-2,2v15c0,1,.66,1.5,2,1.5A1.33,1.33,0,0,0,31.48,114.67Zm0-59v-15a1.33,1.33,0,0,0-1.5-1.5c-1.34,0-2,.5-2,1.5v15c0,1,.66,1.5,2,1.5A1.33,1.33,0,0,0,31.48,55.67Z" transform="translate(-0.98 -1.17)" fill="#fbea23"/><path d="M192.48,77.42a32.71,32.71,0,0,1-2,11.25,32.08,32.08,0,0,1-6.5,9.5,29.57,29.57,0,0,1-31,6.5,29.11,29.11,0,0,1-16-15.5,38.3,38.3,0,0,0-17.5-19.5,48.35,48.35,0,0,0-32-5q-13,2.51-20.5,11t-8.5,22.5v113.5a25.62,25.62,0,0,1-.5,5,27.83,27.83,0,0,1-2,7,34.44,34.44,0,0,1-6.5,9,27.71,27.71,0,0,1-7,4.5,28.13,28.13,0,0,1-6.25,2.25,27.81,27.81,0,0,1-6.25.75,34.74,34.74,0,0,1-8.5-1,44.92,44.92,0,0,1-6-2.5,38.87,38.87,0,0,1-7-5.5,33.27,33.27,0,0,1-5.5-8.5,57.63,57.63,0,0,1-1.5-6.5,18.23,18.23,0,0,1-.5-4.5v-182a27.37,27.37,0,0,1,8.5-20A28,28,0,0,1,30,1.17a26.36,26.36,0,0,1,20,8.5,37,37,0,0,1,4.5,5.5,92.86,92.86,0,0,1,22.5-7,102.37,102.37,0,0,1,70,11q30,16.5,43,47.5A23.82,23.82,0,0,1,192.48,77.42Zm-5.5,0a24.77,24.77,0,0,0-1.5-8.75,87.53,87.53,0,0,0-41-44.5Q113,6.68,78,13.17a103.41,103.41,0,0,0-23.5,8,2.37,2.37,0,0,1-3.5-1.5,20.8,20.8,0,0,0-4.5-6.5,23.78,23.78,0,0,0-16.75-6.5,22.44,22.44,0,0,0-16.5,6.75A22.16,22.16,0,0,0,6.48,29.67v185.5a26,26,0,0,0,1.5,5.5,27.36,27.36,0,0,0,4.5,7,35.27,35.27,0,0,0,5.5,4.5l5,2a29.13,29.13,0,0,0,12,.5q3-1,5.5-2a44.91,44.91,0,0,0,5.5-4,21,21,0,0,0,5.5-7.5,27.25,27.25,0,0,0,1.5-5.5,16.54,16.54,0,0,0,.5-4V98.17q1-16,9.5-26t23.5-12.5a52.88,52.88,0,0,1,35.5,5.5,43,43,0,0,1,20,22,24,24,0,0,0,13,12.25,21.86,21.86,0,0,0,18-.25,20.3,20.3,0,0,0,7.25-4.75,22.26,22.26,0,0,0,5-7.75A25.44,25.44,0,0,0,187,77.42Z" transform="translate(-0.98 -1.17)" fill="#1d1d1b"/><path d="M167.48,65.67l.5,20-16-11.5,6-3.5a63.1,63.1,0,0,0-6-8.5c-1-1.33-1-2.16,0-2.5a1.81,1.81,0,0,1,2.5,0,53.19,53.19,0,0,1,6.5,9.5Z" transform="translate(-0.98 -1.17)" fill="#5a5a5a"/><path d="M144,49.17a2.07,2.07,0,0,1,.5,1.5,1.44,1.44,0,0,1-.5,1,1.61,1.61,0,0,1-1.5,1,1.4,1.4,0,0,1-1-.5,68.76,68.76,0,0,0-12-7.5c-.67-.33-1-.66-1-1q-.51-1,0-1.5a2,2,0,0,1,2.5-1A139.54,139.54,0,0,1,144,49.17Z" transform="translate(-0.98 -1.17)" fill="#5a5a5a"/><path d="M117,36.17l1.5.5h-1a1.47,1.47,0,0,1,.5,1v1a2,2,0,0,1-2,1,78.75,78.75,0,0,0-14.5-2.5,1.4,1.4,0,0,1-1-.5,2,2,0,0,1-.5-1.5c0-1,.66-1.5,2-1.5A89.15,89.15,0,0,1,117,36.17Z" transform="translate(-0.98 -1.17)" fill="#5a5a5a"/><path d="M89,35.17v.5a2,2,0,0,1-1.5,2,73.68,73.68,0,0,0-14,3H73a2,2,0,0,1-2-1.5c-.34-1,.16-1.66,1.5-2A62,62,0,0,1,87,33.67C88.31,33.34,89,33.84,89,35.17Z" transform="translate(-0.98 -1.17)" fill="#5a5a5a"/><path d="M61,43.67a1.47,1.47,0,0,1,.5,1,2.89,2.89,0,0,1-1,2,40.47,40.47,0,0,0-11,8.5,2,2,0,0,1-1.5.5,1.77,1.77,0,0,1-2-2,3.76,3.76,0,0,1,.5-1.5,93.17,93.17,0,0,1,12-9A1.6,1.6,0,0,1,61,43.67Z" transform="translate(-0.98 -1.17)" fill="#5a5a5a"/><path d="M40.48,62.67q5,2.51,2.25,7.5t-7.5,2.25q-4.75-2.74-2.25-7.5T40.48,62.67Z" transform="translate(-0.98 -1.17)" fill="#5a5a5a"/><path d="M38.48,199.17,30,216.67l-9-17.5h7v-11.5c0-1,.66-1.5,2-1.5a1.33,1.33,0,0,1,1.5,1.5v11.5Z" transform="translate(-0.98 -1.17)" fill="#5a5a5a"/><path d="M33.73,26.42a5.54,5.54,0,0,1,1.75,4,4.76,4.76,0,0,1-1.75,3.75A5.68,5.68,0,0,1,30,35.67a5.24,5.24,0,0,1-2.75-.75,5.64,5.64,0,0,1-2-2,5.24,5.24,0,0,1-.75-2.75A5.68,5.68,0,0,1,26,26.42a4.76,4.76,0,0,1,3.75-1.75A5.54,5.54,0,0,1,33.73,26.42Z" transform="translate(-0.98 -1.17)" fill="#5a5a5a"/><path d="M31.48,158.67v14.5c0,1.34-.5,2-1.5,2a1.76,1.76,0,0,1-2-2v-14.5a1.77,1.77,0,0,1,2-2C31,156.67,31.48,157.34,31.48,158.67Z" transform="translate(-0.98 -1.17)" fill="#5a5a5a"/><path d="M31.48,129.17v14.5c0,1.34-.5,2-1.5,2a1.76,1.76,0,0,1-2-2v-14.5a1.77,1.77,0,0,1,2-2C31,127.17,31.48,127.84,31.48,129.17Z" transform="translate(-0.98 -1.17)" fill="#5a5a5a"/><path d="M31.48,99.67v15a1.33,1.33,0,0,1-1.5,1.5c-1.34,0-2-.5-2-1.5v-15a1.77,1.77,0,0,1,2-2C31,97.67,31.48,98.34,31.48,99.67Z" transform="translate(-0.98 -1.17)" fill="#5a5a5a"/><path d="M31.48,70.17v14.5c0,1.34-.5,2-1.5,2a1.76,1.76,0,0,1-2-2V70.17a1.77,1.77,0,0,1,2-2C31,68.17,31.48,68.84,31.48,70.17Z" transform="translate(-0.98 -1.17)" fill="#5a5a5a"/><path d="M31.48,40.67v15a1.33,1.33,0,0,1-1.5,1.5c-1.34,0-2-.5-2-1.5v-15c0-1,.66-1.5,2-1.5A1.33,1.33,0,0,1,31.48,40.67Z" transform="translate(-0.98 -1.17)" fill="#5a5a5a"/></svg>