<svg id="Layer_1" data-name="Layer 1" xmlns="http://www.w3.org/2000/svg" viewBox="0 0 189.74 239.58"><path d="M182.05,55a22.27,22.27,0,0,1,2.5,17.75A23.17,23.17,0,0,1,173.8,87a22.87,22.87,0,0,1-17.75,2.75A22.11,22.11,0,0,1,141.55,79q-8.51-15-25.5-21.5a56.71,56.71,0,0,0-37-2.5q-12,3-17.5,10.5a17.4,17.4,0,0,0-3.5,11c0,3.33.67,5.67,2,7q5,5.51,38,10l2.5.5q14.51,1.5,23.5,3.25T146.8,105q13.75,6,22.25,15.5,14.5,16,15,41,.49,21.5-14,40-18.5,24-52,31a84.06,84.06,0,0,1-20.5,2.5q-29,0-52-15.5-24.49-16-37-45.5a22.56,22.56,0,0,1-.5-18,22.81,22.81,0,0,1,12.5-13,22.05,22.05,0,0,1,9-2h.5a26.9,26.9,0,0,1,8.5,1.5,24.78,24.78,0,0,1,13,13q8.51,19.5,24,27.5,15,8,32.5,4,17-4,25-14.5,4.5-5,4-10,0-7.5-3-11-6.5-7-42-11.5l-2.5-.5q-13.5-1.5-22-3.25t-22-7.5Q32.05,123,24.05,114q-13-15-13-37.5a64.56,64.56,0,0,1,13-39.5q15.5-20,42.5-27.5a106.41,106.41,0,0,1,67.5,4A95.71,95.71,0,0,1,182.05,55Zm-20,12q4.5-3,1.5-7.5a5.71,5.71,0,0,0-6.5-2.5,83,83,0,0,0-9-9.5c-1-.67-1.83-.67-2.5,0a2.5,2.5,0,0,0,0,3,44.17,44.17,0,0,1,8.5,9,5,5,0,0,0,0,6Q157.54,70,162.05,67Zm.5,96v-1a23.49,23.49,0,0,0-.5-4.5,1.77,1.77,0,0,0-2-2,2,2,0,0,0-1.5,2,30.54,30.54,0,0,1,.5,4.5v1a24,24,0,0,1-1.5,8.5,3.93,3.93,0,0,0,.5,1.5c0,.33.33.67,1,1h.5a1.33,1.33,0,0,0,1.5-1.5A33.06,33.06,0,0,0,162.55,163Zm-5-18a1.59,1.59,0,0,0,.5-2.5,32.83,32.83,0,0,0-9-11.5h-.5v-.5a2.49,2.49,0,0,0-2.5.5,3.93,3.93,0,0,0-.5,1.5c0,.33.33.83,1,1.5a26.4,26.4,0,0,1,8.5,10.5,1.59,1.59,0,0,0,1.5,1A1.45,1.45,0,0,0,157.55,145Zm-3,41.5.5-1a1.59,1.59,0,0,0-1-1.5c-.67-.67-1.5-.67-2.5,0a42.71,42.71,0,0,1-10,10.5,1.45,1.45,0,0,0-.5,1,3.93,3.93,0,0,0,.5,1.5,2,2,0,0,0,1.5.5,1.45,1.45,0,0,0,1-.5A52.24,52.24,0,0,0,154.55,186.45Zm-18-145a1.45,1.45,0,0,0,.5-1,1.59,1.59,0,0,0-1-1.5,71.57,71.57,0,0,0-13.5-6.5c-1.33-.33-2.17,0-2.5,1q-.49,1,0,1.5c.33.67.67,1,1,1a59.16,59.16,0,0,1,13,6h1A2,2,0,0,0,136.55,41.45Zm0,84.5c.33-1.33,0-2.17-1-2.5a73.17,73.17,0,0,0-14.5-4.5,2,2,0,0,0-2,1.5v.5c0,1,.33,1.5,1,1.5h1q7.5,2,13,4a.44.44,0,0,0,.5.5A2,2,0,0,0,136.55,126Zm-4,78c0-.67-.17-1-.5-1-.33-1-1.17-1.33-2.5-1a74.82,74.82,0,0,1-13,5,5.7,5.7,0,0,0-1.5,1,.63.63,0,0,0,0,1q.49,1.5,1.5,1.5h.5a106,106,0,0,0,14.5-5A5.7,5.7,0,0,0,132.55,204ZM109.05,31c0-1.33-.33-2-1-2a66.65,66.65,0,0,0-14-1.5h-1.5c-.33,0-.67.25-1,.75a2.47,2.47,0,0,0-.5,1.25,1.77,1.77,0,0,0,2,2h1a91.85,91.85,0,0,1,13,1h.5A1.33,1.33,0,0,0,109.05,31Zm-1,87.5a3.93,3.93,0,0,0-.5-1.5,1.45,1.45,0,0,0-1-.5c-2-.33-5-.67-9-1-1.33-.33-3.17-.67-5.5-1-1.33-.33-2,.17-2,1.5v.5a1.33,1.33,0,0,0,1.5,1.5,2.46,2.46,0,0,0,1.75.5h2.25q4,.49,10.5,1.5C107.38,120,108.05,119.45,108.05,118.45Zm-4,92.5a1.33,1.33,0,0,0-1.5-1.5h-.5a65.65,65.65,0,0,1-14-.5h-.5a1.33,1.33,0,0,0-1.5,1.5,1.83,1.83,0,0,0,1.5,2.5,82.26,82.26,0,0,0,9,.5,25.64,25.64,0,0,0,3-.25,25.64,25.64,0,0,1,3-.25C103.55,213,104.05,212.28,104.05,211Zm-24-180v-.5a2,2,0,0,0-2-1.5,123.6,123.6,0,0,0-14.5,4.5c-.67.33-1,.67-1,1q-.49.49,0,1.5a1.59,1.59,0,0,0,1.5,1h1a42.63,42.63,0,0,1,13.5-4A2,2,0,0,0,80.05,31Zm-1,83.5c0-1.33-.5-2-1.5-2a85.56,85.56,0,0,1-14-3.5,1.83,1.83,0,0,0-2.5,1.5v.5c0,1,.33,1.5,1,1.5a133.37,133.37,0,0,0,14.5,3.5h.5A2,2,0,0,0,79.05,114.45Zm-4,93.5v-.5a1.59,1.59,0,0,0-1-1.5v-.5a52,52,0,0,1-13-5.5c-1-1-1.83-.83-2.5.5a1.59,1.59,0,0,0,.5,2.5q6.5,3.5,13.5,6.5h1Q74.56,209.45,75.05,208ZM53.55,42.45l-.5-1c-1-1-1.83-1.17-2.5-.5a45.57,45.57,0,0,0-10.5,11,2,2,0,0,0-.5,1.5c.33.67.67,1,1,1a1.45,1.45,0,0,0,1,.5c.33,0,.83-.33,1.5-1a53.67,53.67,0,0,1,9.5-10A1.59,1.59,0,0,0,53.55,42.45ZM51.05,106a1.59,1.59,0,0,0-.5-2.5,32.35,32.35,0,0,1-10-9V94a1.59,1.59,0,0,0-2.5-.5,1.59,1.59,0,0,0-1,1.5.44.44,0,0,0,.5.5h-.5l.5.5a30.34,30.34,0,0,0,11,10.5,1.45,1.45,0,0,0,1,.5C49.88,107,50.38,106.62,51.05,106Zm-1,87.5a1.7,1.7,0,0,0,.5-1.25c0-.5-.33-.92-1-1.25a79.87,79.87,0,0,1-9-11,1.45,1.45,0,0,0-1-.5l6.5-3.5-16-11.5V184l7-3.27a1.87,1.87,0,0,0,.49,1.27q4.5,6,9.5,11.5a2.5,2.5,0,0,0,3,0ZM37.55,67v-.5c0-.67-.5-1.33-1.5-2-1.33,0-2,.5-2,1.5a36.31,36.31,0,0,0-1.5,10.5,17.68,17.68,0,0,0,.5,5,1.33,1.33,0,0,0,1.5,1.5h.5c1.33-.33,1.83-1,1.5-2v-4.5A43.51,43.51,0,0,1,37.55,67Z" transform="translate(-0.92 -0.37)" fill="#fbea23"/><path d="M186.55,52.45A27.76,27.76,0,0,1,189.8,74a28.67,28.67,0,0,1-35,21,27.5,27.5,0,0,1-17.75-13.5,46.35,46.35,0,0,0-23-19A50.46,50.46,0,0,0,80.55,60q-10.5,3-14.5,8.5a11.94,11.94,0,0,0-3,8,8.64,8.64,0,0,0,.5,3.5h.5q3.49,4,35,8.5h2.5q15,2,24.25,3.75t23.75,8.25q14.5,6.49,23.5,16.5,16,17.51,16.5,44.5.49,23.51-15,43.5-20,25-55,33a123.06,123.06,0,0,1-22,2q-30.49,0-55-16-25.5-16.5-39-48a26.69,26.69,0,0,1-.5-22,29.17,29.17,0,0,1,15.5-16,37.93,37.93,0,0,1,11-2.5h.5a30.82,30.82,0,0,1,10.5,2,32,32,0,0,1,9.5,6.5,26.61,26.61,0,0,1,6,9q8,18,22,25.5,13,6.5,29,3,15-3,22-12a10.8,10.8,0,0,0,3-7q-.5-5.5-2-7.5-5-5-38.5-9.5l-2.5-.5q-14-2-23-3.5T42.8,133.7q-14.25-6.25-22.75-16.25-14.5-16-14.5-41A67,67,0,0,1,20.05,34q16-21.5,45-29.5,36-10,71,4.5Q168.56,22,186.55,52.45Zm-2,20.25A22.27,22.27,0,0,0,182.05,55a95.71,95.71,0,0,0-48-41.5,106.41,106.41,0,0,0-67.5-4Q39.55,17,24.05,37a64.56,64.56,0,0,0-13,39.5q0,22.5,13,37.5,8,9,21.5,14.75t22,7.5q8.51,1.76,22,3.25l2.5.5q35.51,4.5,42,11.5,3,3.5,3,11,.49,5-4,10-8,10.5-25,14.5-17.51,4-32.5-4-15.49-8-24-27.5a24.78,24.78,0,0,0-13-13,26.9,26.9,0,0,0-8.5-1.5h-.5a22.05,22.05,0,0,0-9,2,22.81,22.81,0,0,0-12.5,13,22.56,22.56,0,0,0,.5,18q12.49,29.51,37,45.5,23,15.5,52,15.5a84.06,84.06,0,0,0,20.5-2.5q33.49-7,52-31,14.5-18.49,14-40-.5-25-15-41Q160.54,111,146.8,105T124.05,97.2q-9-1.76-23.5-3.25l-2.5-.5q-33-4.5-38-10c-1.33-1.33-2-3.67-2-7a17.4,17.4,0,0,1,3.5-11Q67.06,58,79.05,55a56.71,56.71,0,0,1,37,2.5q17,6.49,25.5,21.5a22.11,22.11,0,0,0,14.5,10.75A22.87,22.87,0,0,0,173.8,87,23.17,23.17,0,0,0,184.55,72.7Z" transform="translate(-0.92 -0.37)" fill="#1d1d1b"/><path d="M163.55,59.45q3,4.5-1.5,7.5t-8-1.5a5,5,0,0,1,0-6,44.17,44.17,0,0,0-8.5-9,2.5,2.5,0,0,1,0-3c.67-.67,1.5-.67,2.5,0a83,83,0,0,1,9,9.5A5.71,5.71,0,0,1,163.55,59.45Z" transform="translate(-0.92 -0.37)" fill="#5a5a5a"/><path d="M162.55,162v1a33.06,33.06,0,0,1-1.5,9.5,1.33,1.33,0,0,1-1.5,1.5h-.5c-.67-.33-1-.67-1-1a3.93,3.93,0,0,1-.5-1.5,24,24,0,0,0,1.5-8.5v-1a30.54,30.54,0,0,0-.5-4.5,2,2,0,0,1,1.5-2,1.77,1.77,0,0,1,2,2A23.49,23.49,0,0,1,162.55,162Z" transform="translate(-0.92 -0.37)" fill="#5a5a5a"/><path d="M155.05,185.45l-.5,1a52.24,52.24,0,0,1-10.5,10.5,1.45,1.45,0,0,1-1,.5,2,2,0,0,1-1.5-.5,3.93,3.93,0,0,1-.5-1.5,1.45,1.45,0,0,1,.5-1,42.71,42.71,0,0,0,10-10.5c1-.67,1.83-.67,2.5,0A1.59,1.59,0,0,1,155.05,185.45Z" transform="translate(-0.92 -0.37)" fill="#5a5a5a"/><path d="M148.55,131h.5a32.83,32.83,0,0,1,9,11.5,1.59,1.59,0,0,1-.5,2.5,1.45,1.45,0,0,1-1,.5,1.59,1.59,0,0,1-1.5-1,26.4,26.4,0,0,0-8.5-10.5c-.67-.67-1-1.17-1-1.5a3.93,3.93,0,0,1,.5-1.5,2.49,2.49,0,0,1,2.5-.5Z" transform="translate(-0.92 -0.37)" fill="#5a5a5a"/><path d="M137.05,40.45a1.45,1.45,0,0,1-.5,1,2,2,0,0,1-1.5.5h-1a59.16,59.16,0,0,0-13-6c-.33,0-.67-.33-1-1q-.49-.5,0-1.5c.33-1,1.17-1.33,2.5-1a71.57,71.57,0,0,1,13.5,6.5A1.59,1.59,0,0,1,137.05,40.45Z" transform="translate(-0.92 -0.37)" fill="#5a5a5a"/><path d="M135.55,123.45c1,.33,1.33,1.17,1,2.5a2,2,0,0,1-2,1,.44.44,0,0,1-.5-.5q-5.51-2-13-4h-1c-.67,0-1-.5-1-1.5v-.5a2,2,0,0,1,2-1.5A73.17,73.17,0,0,1,135.55,123.45Z" transform="translate(-0.92 -0.37)" fill="#5a5a5a"/><path d="M132.05,203c.33,0,.5.33.5,1a5.7,5.7,0,0,1-1,1.5,106,106,0,0,1-14.5,5h-.5q-1,0-1.5-1.5a.63.63,0,0,1,0-1,5.7,5.7,0,0,1,1.5-1,74.82,74.82,0,0,0,13-5C130.88,201.62,131.72,202,132.05,203Z" transform="translate(-0.92 -0.37)" fill="#5a5a5a"/><path d="M108.05,29c.67,0,1,.67,1,2a1.33,1.33,0,0,1-1.5,1.5h-.5a91.85,91.85,0,0,0-13-1h-1a1.77,1.77,0,0,1-2-2,2.47,2.47,0,0,1,.5-1.25c.33-.5.67-.75,1-.75h1.5A66.65,66.65,0,0,1,108.05,29Z" transform="translate(-0.92 -0.37)" fill="#5a5a5a"/><path d="M107.55,117a3.93,3.93,0,0,1,.5,1.5c0,1-.67,1.5-2,1.5q-6.49-1-10.5-1.5H93.3a2.46,2.46,0,0,1-1.75-.5,1.33,1.33,0,0,1-1.5-1.5V116c0-1.33.67-1.83,2-1.5,2.33.33,4.17.67,5.5,1,4,.33,7,.67,9,1A1.45,1.45,0,0,1,107.55,117Z" transform="translate(-0.92 -0.37)" fill="#5a5a5a"/><path d="M102.55,209.45a1.33,1.33,0,0,1,1.5,1.5c0,1.33-.5,2-1.5,2a25.64,25.64,0,0,0-3,.25,25.64,25.64,0,0,1-3,.25,82.26,82.26,0,0,1-9-.5,1.83,1.83,0,0,1-1.5-2.5,1.33,1.33,0,0,1,1.5-1.5h.5a65.65,65.65,0,0,0,14,.5Z" transform="translate(-0.92 -0.37)" fill="#5a5a5a"/><path d="M80.05,30.45V31a2,2,0,0,1-1.5,2,42.63,42.63,0,0,0-13.5,4h-1a1.59,1.59,0,0,1-1.5-1q-.49-1,0-1.5c0-.33.33-.67,1-1A123.6,123.6,0,0,1,78.05,29,2,2,0,0,1,80.05,30.45Z" transform="translate(-0.92 -0.37)" fill="#5a5a5a"/><path d="M77.55,112.45c1,0,1.5.67,1.5,2a2,2,0,0,1-2,1.5h-.5a133.37,133.37,0,0,1-14.5-3.5c-.67,0-1-.5-1-1.5v-.5a1.83,1.83,0,0,1,2.5-1.5A85.56,85.56,0,0,0,77.55,112.45Z" transform="translate(-0.92 -0.37)" fill="#5a5a5a"/><path d="M75.05,207.45v.5q-.49,1.5-1.5,1.5h-1q-7-3-13.5-6.5a1.59,1.59,0,0,1-.5-2.5c.67-1.33,1.5-1.5,2.5-.5a52,52,0,0,0,13,5.5v.5A1.59,1.59,0,0,1,75.05,207.45Z" transform="translate(-0.92 -0.37)" fill="#5a5a5a"/><path d="M53.05,41.45l.5,1a1.59,1.59,0,0,1-1,1.5,53.67,53.67,0,0,0-9.5,10c-.67.67-1.17,1-1.5,1a1.45,1.45,0,0,1-1-.5c-.33,0-.67-.33-1-1a2,2,0,0,1,.5-1.5,45.57,45.57,0,0,1,10.5-11C51.22,40.28,52.05,40.45,53.05,41.45Z" transform="translate(-0.92 -0.37)" fill="#5a5a5a"/><path d="M50.55,103.45a1.59,1.59,0,0,1,.5,2.5c-.67.67-1.17,1-1.5,1a1.45,1.45,0,0,1-1-.5,30.34,30.34,0,0,1-11-10.5l-.5-.5h.5a.44.44,0,0,1-.5-.5,1.59,1.59,0,0,1,1-1.5,1.59,1.59,0,0,1,2.5.5v.5A32.35,32.35,0,0,0,50.55,103.45Z" transform="translate(-0.92 -0.37)" fill="#5a5a5a"/><path d="M39.55,179.45a1.45,1.45,0,0,1,1,.5,79.87,79.87,0,0,0,9,11c.67.33,1,.75,1,1.25a1.7,1.7,0,0,1-.5,1.25,2.5,2.5,0,0,1-3,0q-5-5.5-9.5-11.5a1.87,1.87,0,0,1-.49-1.27l.49-.23h-.5a1.69,1.69,0,0,0,0,.23l-7,3.27v-19.5l16,11.5Z" transform="translate(-0.92 -0.37)" fill="#5a5a5a"/><path d="M37.55,66.45V67a43.51,43.51,0,0,0-1,9.5V81c.33,1-.17,1.67-1.5,2h-.5a1.33,1.33,0,0,1-1.5-1.5,17.68,17.68,0,0,1-.5-5A36.31,36.31,0,0,1,34.05,66c0-1,.67-1.5,2-1.5C37.05,65.12,37.55,65.78,37.55,66.45Z" transform="translate(-0.92 -0.37)" fill="#5a5a5a"/><path d="M37.55,180.45l-.49.23a1.69,1.69,0,0,1,0-.23Z" transform="translate(-0.92 -0.37)" fill="#1d1d1b"/></svg>