<svg id="Layer_1" data-name="Layer 1" xmlns="http://www.w3.org/2000/svg" viewBox="0 0 209.31 362.51"><path d="M198.46,142.16a22.89,22.89,0,0,1,7,16.75,22.07,22.07,0,0,1-7,16.5,23,23,0,0,1-16.5,6.75H132c-1.67,0-2.5,1-2.5,3v150q-.51,15.51-15,21.5-13.5,5.5-24.5-4.5a22.09,22.09,0,0,1-5.5-7,24.24,24.24,0,0,1-2-10v-150a2.65,2.65,0,0,0-3-3h-49q-15.51,0-22-14.5Q3,154.16,13,143.16a22.38,22.38,0,0,1,7-5.5,37.47,37.47,0,0,1,10.5-2.5h49c2,0,3-.83,3-2.5v-102q0-15.5,14.5-21.5,13.5-6,24.5,4a29.36,29.36,0,0,1,5.5,7.5,31.79,31.79,0,0,1,2.5,10v102a2.21,2.21,0,0,0,2.5,2.5h50A22.61,22.61,0,0,1,198.46,142.16Zm-21,25.5,17.5-9-17.5-8.5v7h-5c-1.34,0-2,.59-2,1.75s.66,1.75,2,1.75h5Zm-18-8.75c0-1.16-.5-1.75-1.5-1.75H143c-1,0-1.5.59-1.5,1.75s.5,1.75,1.5,1.75h15C159,160.66,159.46,160.08,159.46,158.91Zm-29,0c0-1.16-.67-1.75-2-1.75H114c-1.34,0-2,.59-2,1.75s.66,1.75,2,1.75h14.5C129.79,160.66,130.46,160.08,130.46,158.91ZM106,343.66l8.5-17.5h-7v-11.5c0-1-.59-1.5-1.75-1.5s-1.75.5-1.75,1.5v11.5H97Zm5.5-318a5.62,5.62,0,0,0-.5-2.5,7,7,0,0,0-1.25-1.75,3.77,3.77,0,0,0-1.75-1,8.63,8.63,0,0,0-2-.25,5.16,5.16,0,0,0-5.5,5.5,5.12,5.12,0,0,0,3.5,5v4.5c0,1,.58,1.5,1.75,1.5s1.75-.5,1.75-1.5v-4.5C110.12,29.66,111.46,28,111.46,25.66Zm-4,274.5v-15c0-1.33-.59-2-1.75-2s-1.75.67-1.75,2v15c0,1,.58,1.5,1.75,1.5S107.46,301.16,107.46,300.16Zm0-29.5v-15c0-1-.59-1.5-1.75-1.5s-1.75.5-1.75,1.5v15c0,1,.58,1.5,1.75,1.5S107.46,271.66,107.46,270.66Zm0-29.5v-14.5c0-1.33-.59-2-1.75-2s-1.75.67-1.75,2v14.5c0,1.34.58,2,1.75,2S107.46,242.5,107.46,241.16Zm0-29.5v-15c0-1-.59-1.5-1.75-1.5s-1.75.5-1.75,1.5v15c0,1,.58,1.5,1.75,1.5S107.46,212.66,107.46,211.66Zm0-29.5v-14.5c0-1.33-.59-2-1.75-2s-1.75.67-1.75,2v14.5c0,1.34.58,2,1.75,2S107.46,183.5,107.46,182.16Zm0-29.5v-14.5c0-1.33-.59-2-1.75-2s-1.75.67-1.75,2v14.5c0,1.34.58,2,1.75,2S107.46,154,107.46,152.66Zm0-29.5v-14.5c0-1.33-.59-2-1.75-2s-1.75.67-1.75,2v14.5c0,1.34.58,2,1.75,2S107.46,124.5,107.46,123.16Zm0-29.5V79.16c0-1.33-.59-2-1.75-2s-1.75.67-1.75,2v14.5c0,1.34.58,2,1.75,2S107.46,95,107.46,93.66Zm0-29.5V49.66c0-1.33-.59-2-1.75-2s-1.75.67-1.75,2v14.5c0,1.34.58,2,1.75,2S107.46,65.5,107.46,64.16ZM101,158.91c0-1.16-.67-1.75-2-1.75H84.46c-1.34,0-2,.59-2,1.75s.66,1.75,2,1.75H99C100.29,160.66,101,160.08,101,158.91Zm-29.5,0c0-1.16-.67-1.75-2-1.75H55c-1.34,0-2,.59-2,1.75s.66,1.75,2,1.75h14.5C70.79,160.66,71.46,160.08,71.46,158.91Zm-29.5,0c0-1.16-.5-1.75-1.5-1.75H35a5.51,5.51,0,0,0-5.5-4,5.26,5.26,0,0,0-3.75,1.75,5.5,5.5,0,0,0-1.75,4,4.73,4.73,0,0,0,1.75,3.75,5.64,5.64,0,0,0,3.75,1.5,5.48,5.48,0,0,0,5.5-3.5h5.5C41.46,160.66,42,160.08,42,158.91Z" transform="translate(-1.15 -1.65)" fill="#fbea23"/><path d="M202.21,138.66a29,29,0,0,1,0,40.5,27.11,27.11,0,0,1-20.25,8.5h-47.5v147.5q-.51,19-17.5,26.5a29.84,29.84,0,0,1-11.5,2.5q-10.5,0-19-8a27.22,27.22,0,0,1-6.5-8.5,25.65,25.65,0,0,1-3-12.5V187.66H30.46q-19-.49-26.5-18-7.5-16.5,5-30a23.87,23.87,0,0,1,9-6.5,25.65,25.65,0,0,1,12.5-3H77V30.66q.5-19,18-26.5,16.5-7,30,5.5a20.23,20.23,0,0,1,6.5,8.5,25.7,25.7,0,0,1,3,12.5v99.5H182A27.15,27.15,0,0,1,202.21,138.66Zm3.25,20.25a22.89,22.89,0,0,0-7-16.75,22.61,22.61,0,0,0-16.5-7H132a2.21,2.21,0,0,1-2.5-2.5v-102a31.79,31.79,0,0,0-2.5-10,29.36,29.36,0,0,0-5.5-7.5q-11-10-24.5-4-14.5,6-14.5,21.5v102c0,1.67-1,2.5-3,2.5h-49a37.47,37.47,0,0,0-10.5,2.5,22.38,22.38,0,0,0-7,5.5q-10,11-4.5,24.5,6.49,14.51,22,14.5h49a2.65,2.65,0,0,1,3,3v150a24.24,24.24,0,0,0,2,10,22.09,22.09,0,0,0,5.5,7q11,10,24.5,4.5,14.49-6,15-21.5v-150c0-2,.83-3,2.5-3h50a23,23,0,0,0,16.5-6.75A22.07,22.07,0,0,0,205.46,158.91Z" transform="translate(-1.15 -1.65)" fill="#1d1d1b"/><path d="M195,158.66l-17.5,9v-7h-5c-1.34,0-2-.58-2-1.75s.66-1.75,2-1.75h5v-7Z" transform="translate(-1.15 -1.65)" fill="#5a5a5a"/><path d="M158,157.16c1,0,1.5.59,1.5,1.75s-.5,1.75-1.5,1.75H143c-1,0-1.5-.58-1.5-1.75s.5-1.75,1.5-1.75Z" transform="translate(-1.15 -1.65)" fill="#5a5a5a"/><path d="M128.46,157.16c1.33,0,2,.59,2,1.75s-.67,1.75-2,1.75H114c-1.34,0-2-.58-2-1.75s.66-1.75,2-1.75Z" transform="translate(-1.15 -1.65)" fill="#5a5a5a"/><path d="M114.46,326.16l-8.5,17.5-9-17.5h7v-11.5c0-1,.58-1.5,1.75-1.5s1.75.5,1.75,1.5v11.5Z" transform="translate(-1.15 -1.65)" fill="#5a5a5a"/><path d="M111,23.16a5.62,5.62,0,0,1,.5,2.5c0,2.34-1.34,4-4,5v4.5c0,1-.59,1.5-1.75,1.5s-1.75-.5-1.75-1.5v-4.5a5.12,5.12,0,0,1-3.5-5,5.16,5.16,0,0,1,5.5-5.5,8.63,8.63,0,0,1,2,.25,3.77,3.77,0,0,1,1.75,1A7,7,0,0,1,111,23.16Z" transform="translate(-1.15 -1.65)" fill="#5a5a5a"/><path d="M107.46,285.16v15c0,1-.59,1.5-1.75,1.5s-1.75-.5-1.75-1.5v-15c0-1.33.58-2,1.75-2S107.46,283.83,107.46,285.16Z" transform="translate(-1.15 -1.65)" fill="#5a5a5a"/><path d="M107.46,255.66v15c0,1-.59,1.5-1.75,1.5s-1.75-.5-1.75-1.5v-15c0-1,.58-1.5,1.75-1.5S107.46,254.66,107.46,255.66Z" transform="translate(-1.15 -1.65)" fill="#5a5a5a"/><path d="M107.46,226.66v14.5c0,1.34-.59,2-1.75,2s-1.75-.66-1.75-2v-14.5c0-1.33.58-2,1.75-2S107.46,225.33,107.46,226.66Z" transform="translate(-1.15 -1.65)" fill="#5a5a5a"/><path d="M107.46,196.66v15c0,1-.59,1.5-1.75,1.5s-1.75-.5-1.75-1.5v-15c0-1,.58-1.5,1.75-1.5S107.46,195.66,107.46,196.66Z" transform="translate(-1.15 -1.65)" fill="#5a5a5a"/><path d="M107.46,167.66v14.5c0,1.34-.59,2-1.75,2s-1.75-.66-1.75-2v-14.5c0-1.33.58-2,1.75-2S107.46,166.33,107.46,167.66Z" transform="translate(-1.15 -1.65)" fill="#5a5a5a"/><path d="M107.46,138.16v14.5c0,1.34-.59,2-1.75,2s-1.75-.66-1.75-2v-14.5c0-1.33.58-2,1.75-2S107.46,136.83,107.46,138.16Z" transform="translate(-1.15 -1.65)" fill="#5a5a5a"/><path d="M107.46,108.66v14.5c0,1.34-.59,2-1.75,2s-1.75-.66-1.75-2v-14.5c0-1.33.58-2,1.75-2S107.46,107.33,107.46,108.66Z" transform="translate(-1.15 -1.65)" fill="#5a5a5a"/><path d="M107.46,79.16v14.5c0,1.34-.59,2-1.75,2S104,95,104,93.66V79.16c0-1.33.58-2,1.75-2S107.46,77.83,107.46,79.16Z" transform="translate(-1.15 -1.65)" fill="#5a5a5a"/><path d="M107.46,49.66v14.5c0,1.34-.59,2-1.75,2s-1.75-.66-1.75-2V49.66c0-1.33.58-2,1.75-2S107.46,48.33,107.46,49.66Z" transform="translate(-1.15 -1.65)" fill="#5a5a5a"/><path d="M99,157.16c1.33,0,2,.59,2,1.75s-.67,1.75-2,1.75H84.46c-1.34,0-2-.58-2-1.75s.66-1.75,2-1.75Z" transform="translate(-1.15 -1.65)" fill="#5a5a5a"/><path d="M69.46,157.16c1.33,0,2,.59,2,1.75s-.67,1.75-2,1.75H55c-1.34,0-2-.58-2-1.75s.66-1.75,2-1.75Z" transform="translate(-1.15 -1.65)" fill="#5a5a5a"/><path d="M40.46,157.16c1,0,1.5.59,1.5,1.75s-.5,1.75-1.5,1.75H35a5.48,5.48,0,0,1-5.5,3.5,5.64,5.64,0,0,1-3.75-1.5A4.73,4.73,0,0,1,24,158.91a5.5,5.5,0,0,1,1.75-4,5.26,5.26,0,0,1,3.75-1.75,5.51,5.51,0,0,1,5.5,4Z" transform="translate(-1.15 -1.65)" fill="#5a5a5a"/></svg>