<svg id="Layer_1" data-name="Layer 1" xmlns="http://www.w3.org/2000/svg" viewBox="0 0 199.5 233.5"><path d="M167.9,177.61l.5-19.5-16,11.5,5.5,3a33.86,33.86,0,0,1-4,5,3.76,3.76,0,0,0-.5,1.5,1.41,1.41,0,0,0,.5,1,1.69,1.69,0,0,0,1.25.5,1.72,1.72,0,0,0,1.25-.5,49.89,49.89,0,0,0,5-6Zm2-21v15a2,2,0,0,0,4,0v-15c0-1-.68-1.5-2-1.5S169.9,155.61,169.9,156.61Zm25.5-127v176a23,23,0,0,1-23.5,23q-10,0-16.5-6.5a20.8,20.8,0,0,1-4.5-6.5,1.61,1.61,0,0,0-1.5-1,1.49,1.49,0,0,0-1-.5,1.42,1.42,0,0,0-1,.5,97.09,97.09,0,0,1-42.5,11h-1.5q-43,0-69.5-26a90.33,90.33,0,0,1-19-28q-8-20-8-45v-97a24,24,0,0,1,6.5-17,23.76,23.76,0,0,1,16.75-6.5,23.8,23.8,0,0,1,16.75,6.5,24.14,24.14,0,0,1,6.5,17v97q0,15.49,5,26.5a37.91,37.91,0,0,0,21.5,21.5q10.5,4,24.5,4,19.5-.5,34-15,10-10,10-22.5V29.61a21.48,21.48,0,0,1,7-16.5,22.95,22.95,0,0,1,33,0A21.55,21.55,0,0,1,195.4,29.61Zm-23.5,189,9-17.5h-7v-15c0-1-.68-1.5-2-1.5s-2,.5-2,1.5v15h-7Zm5.5-190a5.24,5.24,0,0,0-.75-2.75,5.89,5.89,0,0,0-2-2,5.26,5.26,0,0,0-2.75-.75,5.64,5.64,0,0,0-3.75,1.5,4.7,4.7,0,0,0-1.75,3.75,6,6,0,0,0,5.75,5.75,4.73,4.73,0,0,0,3.75-1.75A5.68,5.68,0,0,0,177.4,28.61Zm-3.5,113.5v-15c0-1-.68-1.5-2-1.5s-2,.5-2,1.5v15a2,2,0,0,0,4,0Zm0-29.5V98.11a2,2,0,1,0-4,0v14.5a2,2,0,0,0,4,0Zm0-29.5V68.61a2,2,0,1,0-4,0v14.5a2,2,0,0,0,4,0Zm0-29.5V39.11a2,2,0,1,0-4,0v14.5a2,2,0,0,0,4,0Zm-28.5,136.5c.66-1,.66-1.83,0-2.5-.68-1.33-1.5-1.5-2.5-.5a64.49,64.49,0,0,1-12.5,7,2,2,0,0,0-1,2l.5.5a1.57,1.57,0,0,0,1.5,1h.5A113.64,113.64,0,0,0,145.4,190.11Zm-26.5,11.5q.48-1,0-1.5c0-1-.68-1.5-2-1.5a74.77,74.77,0,0,1-12,2h-1l-1-.5v.5c-1.34,0-2,.5-2,1.5s.66,1.67,2,2h2c4-.33,8.32-.83,13-1.5C118.22,202.28,118.56,201.94,118.9,201.61Zm-29-.5c.32-1-.18-1.67-1.5-2a73.14,73.14,0,0,1-13.5-3.5c-1.34-.33-2.18,0-2.5,1v.5a2,2,0,0,0,1,2,61.36,61.36,0,0,0,14.5,3.5C89.22,202.61,89.9,202.11,89.9,201.11Zm-27.5-9.5c.66-.67.5-1.5-.5-2.5a46.14,46.14,0,0,1-11-9c-.68-1-1.5-1-2.5,0a2,2,0,0,0-.5,1.5c-.34.33-.18.67.5,1a63.28,63.28,0,0,0,11.5,10h1A1.61,1.61,0,0,0,62.4,191.61Zm-20.5-20.5a1.6,1.6,0,0,0,.5-2.5,45.75,45.75,0,0,1-5.5-13c-.34-1-1.18-1.33-2.5-1q-1.5.49-1.5,1.5c0,.33.07.5.25.5s.25.17.25.5a65.94,65.94,0,0,0,6,13.5,1.57,1.57,0,0,0,1.5,1A1.49,1.49,0,0,0,41.9,171.11ZM34.15,32.36a5.54,5.54,0,0,0,1.75-4,4.76,4.76,0,0,0-1.75-3.75,6.08,6.08,0,0,0-8,0,4.7,4.7,0,0,0-1.75,3.75,5.46,5.46,0,0,0,1.75,4,5.45,5.45,0,0,0,8,0ZM32.9,143.11a2.08,2.08,0,0,0,.5-1.5q-1-7.5-1.5-14v-.5a2,2,0,0,0-2-1.5q-1.5.49-1.5,1.5v.5a81.57,81.57,0,0,0,1.5,15c0,.67.5,1,1.5,1h.5A1.49,1.49,0,0,0,32.9,143.11Zm-1-30.5V98.11a1.77,1.77,0,0,0-2-2,1.33,1.33,0,0,0-1.5,1.5v15c0,1.33.57,2,1.75,2S31.9,113.94,31.9,112.61Zm0-29.5V68.61a1.77,1.77,0,0,0-2-2,1.33,1.33,0,0,0-1.5,1.5v15c0,1.33.57,2,1.75,2S31.9,84.44,31.9,83.11Zm0-29.5V39.11a1.77,1.77,0,0,0-2-2,1.33,1.33,0,0,0-1.5,1.5v15c0,1.33.57,2,1.75,2S31.9,54.94,31.9,53.61Z" transform="translate(-1.4 -0.61)" fill="#fbea23"/><path d="M200.9,29.61v176a27.15,27.15,0,0,1-8.5,20.25,28.39,28.39,0,0,1-20.5,8.25,28.84,28.84,0,0,1-20.5-8,20.86,20.86,0,0,1-4-5.5,100.23,100.23,0,0,1-42,10.5h-2q-45,0-73-27.5a97.8,97.8,0,0,1-20.5-30q-8.52-21-8.5-47v-97A27.89,27.89,0,0,1,9.9,9.11,27.62,27.62,0,0,1,30.15.61,27.68,27.68,0,0,1,50.4,9.11a28,28,0,0,1,8.5,20.5v97q0,14.51,4.5,24.5a31.67,31.67,0,0,0,18.5,18.5q9.48,4,22.5,4,17.49-.5,30.5-14,8-8,8-18.5a16.12,16.12,0,0,1,.5-4V29.61a28.37,28.37,0,0,1,8.25-20.5A27.11,27.11,0,0,1,171.9.61a28,28,0,0,1,20.5,8.5A28,28,0,0,1,200.9,29.61Zm-5.5,176v-176a21.55,21.55,0,0,0-7-16.5,22.95,22.95,0,0,0-33,0,21.48,21.48,0,0,0-7,16.5v111.5q0,12.49-10,22.5-14.52,14.5-34,15-14,0-24.5-4a37.91,37.91,0,0,1-21.5-21.5q-5-11-5-26.5v-97a24.14,24.14,0,0,0-6.5-17,23.8,23.8,0,0,0-16.75-6.5,23.76,23.76,0,0,0-16.75,6.5,24,24,0,0,0-6.5,17v97q0,25,8,45a90.33,90.33,0,0,0,19,28q26.49,26,69.5,26h1.5a97.09,97.09,0,0,0,42.5-11,1.42,1.42,0,0,1,1-.5,1.49,1.49,0,0,1,1,.5,1.61,1.61,0,0,1,1.5,1,20.8,20.8,0,0,0,4.5,6.5q6.48,6.49,16.5,6.5a23,23,0,0,0,23.5-23Z" transform="translate(-1.4 -0.61)" fill="#1d1d1b"/><path d="M169.9,201.11v-15c0-1,.66-1.5,2-1.5s2,.5,2,1.5v15h7l-9,17.5-9-17.5Z" transform="translate(-1.4 -0.61)" fill="#5a5a5a"/><path d="M176.65,25.86a5.24,5.24,0,0,1,.75,2.75,5.68,5.68,0,0,1-1.5,3.75,4.73,4.73,0,0,1-3.75,1.75,6,6,0,0,1-5.75-5.75,4.7,4.7,0,0,1,1.75-3.75,5.64,5.64,0,0,1,3.75-1.5,5.26,5.26,0,0,1,2.75.75A5.89,5.89,0,0,1,176.65,25.86Z" transform="translate(-1.4 -0.61)" fill="#5a5a5a"/><path d="M173.9,156.61v15a2,2,0,0,1-4,0v-15c0-1,.66-1.5,2-1.5S173.9,155.61,173.9,156.61Z" transform="translate(-1.4 -0.61)" fill="#5a5a5a"/><path d="M173.9,127.11v15a2,2,0,0,1-4,0v-15c0-1,.66-1.5,2-1.5S173.9,126.11,173.9,127.11Z" transform="translate(-1.4 -0.61)" fill="#5a5a5a"/><path d="M173.9,98.11v14.5a2,2,0,0,1-4,0V98.11a2,2,0,1,1,4,0Z" transform="translate(-1.4 -0.61)" fill="#5a5a5a"/><path d="M173.9,68.61v14.5a2,2,0,0,1-4,0V68.61a2,2,0,1,1,4,0Z" transform="translate(-1.4 -0.61)" fill="#5a5a5a"/><path d="M173.9,39.11v14.5a2,2,0,0,1-4,0V39.11a2,2,0,1,1,4,0Z" transform="translate(-1.4 -0.61)" fill="#5a5a5a"/><path d="M168.4,158.11l-.5,19.5-6.5-3.5a49.89,49.89,0,0,1-5,6,1.72,1.72,0,0,1-1.25.5,1.69,1.69,0,0,1-1.25-.5,1.41,1.41,0,0,1-.5-1,3.76,3.76,0,0,1,.5-1.5,33.86,33.86,0,0,0,4-5l-5.5-3Z" transform="translate(-1.4 -0.61)" fill="#5a5a5a"/><path d="M145.4,187.61c.66.67.66,1.5,0,2.5a113.64,113.64,0,0,1-13.5,7.5h-.5a1.57,1.57,0,0,1-1.5-1l-.5-.5a2,2,0,0,1,1-2,64.49,64.49,0,0,0,12.5-7C143.9,186.11,144.72,186.28,145.4,187.61Z" transform="translate(-1.4 -0.61)" fill="#5a5a5a"/><path d="M118.9,200.11q.48.49,0,1.5c-.34.33-.68.67-1,1-4.68.67-9,1.17-13,1.5h-2c-1.34-.33-2-1-2-2s.66-1.5,2-1.5v-.5l1,.5h1a74.77,74.77,0,0,0,12-2C118.22,198.61,118.9,199.11,118.9,200.11Z" transform="translate(-1.4 -0.61)" fill="#5a5a5a"/><path d="M88.4,199.11c1.32.33,1.82,1,1.5,2,0,1-.68,1.5-2,1.5a61.36,61.36,0,0,1-14.5-3.5,2,2,0,0,1-1-2v-.5c.32-1,1.16-1.33,2.5-1A73.14,73.14,0,0,0,88.4,199.11Z" transform="translate(-1.4 -0.61)" fill="#5a5a5a"/><path d="M50.9,180.11a46.14,46.14,0,0,0,11,9c1,1,1.16,1.83.5,2.5a1.61,1.61,0,0,1-1.5,1h-1a63.28,63.28,0,0,1-11.5-10c-.68-.33-.84-.67-.5-1a2,2,0,0,1,.5-1.5C49.4,179.11,50.22,179.11,50.9,180.11Z" transform="translate(-1.4 -0.61)" fill="#5a5a5a"/><path d="M42.4,168.61a1.6,1.6,0,0,1-.5,2.5,1.49,1.49,0,0,1-1,.5,1.57,1.57,0,0,1-1.5-1,65.94,65.94,0,0,1-6-13.5c0-.33-.09-.5-.25-.5s-.25-.17-.25-.5q0-1,1.5-1.5c1.32-.33,2.16,0,2.5,1A45.75,45.75,0,0,0,42.4,168.61Z" transform="translate(-1.4 -0.61)" fill="#5a5a5a"/><path d="M35.9,28.36a6,6,0,0,1-5.75,5.75,5.48,5.48,0,0,1-4-1.75,5.46,5.46,0,0,1-1.75-4,4.7,4.7,0,0,1,1.75-3.75,6.08,6.08,0,0,1,8,0A4.76,4.76,0,0,1,35.9,28.36Z" transform="translate(-1.4 -0.61)" fill="#5a5a5a"/><path d="M33.4,141.61a2.08,2.08,0,0,1-.5,1.5,1.49,1.49,0,0,1-1,.5h-.5c-1,0-1.5-.33-1.5-1a81.57,81.57,0,0,1-1.5-15v-.5q0-1,1.5-1.5a2,2,0,0,1,2,1.5v.5Q32.38,134.1,33.4,141.61Z" transform="translate(-1.4 -0.61)" fill="#5a5a5a"/><path d="M31.9,98.11v14.5c0,1.33-.59,2-1.75,2s-1.75-.67-1.75-2v-15a1.33,1.33,0,0,1,1.5-1.5A1.77,1.77,0,0,1,31.9,98.11Z" transform="translate(-1.4 -0.61)" fill="#5a5a5a"/><path d="M31.9,68.61v14.5c0,1.33-.59,2-1.75,2s-1.75-.67-1.75-2v-15a1.33,1.33,0,0,1,1.5-1.5A1.77,1.77,0,0,1,31.9,68.61Z" transform="translate(-1.4 -0.61)" fill="#5a5a5a"/><path d="M31.9,39.11v14.5c0,1.33-.59,2-1.75,2s-1.75-.67-1.75-2v-15a1.33,1.33,0,0,1,1.5-1.5A1.77,1.77,0,0,1,31.9,39.11Z" transform="translate(-1.4 -0.61)" fill="#5a5a5a"/></svg>