<svg id="Layer_1" data-name="Layer 1" xmlns="http://www.w3.org/2000/svg" viewBox="0 0 204.44 233.62"><path d="M97.92,195.15l1.5-20-6.5,3v-.5q-.51-.5-2.5-5.5t-3.5-8.5a1.4,1.4,0,0,0-2-1,2,2,0,0,0-1.5,2,.44.44,0,0,0,.5.5c.33,1,.75,2.17,1.25,3.5a36,36,0,0,0,1.5,3.5c.5,1,1,2.09,1.5,3.25s.91,2.25,1.25,3.25a.44.44,0,0,0,.5.5l-6.5,3Zm9,0q-5-2-7.25,3t2.75,7.25q5,2.25,7.25-3T106.92,195.15Zm90.5-174.5a24,24,0,0,1,0,18q-70.5,169-72.5,176h-.5a23.49,23.49,0,0,1-7,9,13.57,13.57,0,0,1-6,3.5,21.25,21.25,0,0,1-18,0,21.17,21.17,0,0,1-7-4.25,22.83,22.83,0,0,1-5-6.75,8.39,8.39,0,0,0-.5-2q-4-8.49-73.5-175.5a23.23,23.23,0,0,1,.25-18A22.82,22.82,0,0,1,20.42,7.9a21.94,21.94,0,0,1,17.75,0A23.89,23.89,0,0,1,50.92,20.65l49,118a2.83,2.83,0,0,0,5,0q47-112.5,48.5-118.5l.5.5a23.75,23.75,0,0,1,13-12.75,23.27,23.27,0,0,1,18-.25A22.85,22.85,0,0,1,197.42,20.65Zm-17.5,22-1.5-19.5-15,13,6.5,2.5a13.14,13.14,0,0,1-1.5,3,39.66,39.66,0,0,1-2,5.5v.5a2.85,2.85,0,0,0,1,2h.5a2,2,0,0,0,2-1c.66-1.66,1.83-4.5,3.5-8.5Zm-16,19.5c.66-1.33.33-2.16-1-2.5a1.4,1.4,0,0,0-2,1c-.34,1-.75,2.09-1.25,3.25s-1,2.25-1.5,3.25a22.46,22.46,0,0,0-1.25,3l-1.5,4a1.43,1.43,0,0,0-.5,1,1.59,1.59,0,0,0,1,1.5h1a1.61,1.61,0,0,0,1.5-1q1.5-3.5,4.5-11Zm-11,27a1.69,1.69,0,0,0-1-2.25c-1-.5-1.84-.08-2.5,1.25a15.06,15.06,0,0,0-1.75,3.5,35.56,35.56,0,0,0-1.75,5l-2,5-.5.5q0,1,1.5,1.5l.5.5c.66,0,1.33-.5,2-1.5q3-8,4-10Zm-11.5,27a.63.63,0,0,0,0-1,.89.89,0,0,0-1-1c-1-.66-1.84-.33-2.5,1a33.56,33.56,0,0,1-2,5.5c-1.34,3.34-2.5,6-3.5,8v.5a2,2,0,0,0,1,2h1a1.61,1.61,0,0,0,1.5-1q1-2,2.75-6.5T141.42,116.15Zm-11,27.5v-1.5l-1-1c-1.34-.33-2.17,0-2.5,1-.34.67-.84,1.75-1.5,3.25a22.2,22.2,0,0,0-1.25,3.25,34.11,34.11,0,0,1-1.25,3.5c-.67,1.67-1.17,2.84-1.5,3.5a1.43,1.43,0,0,0-.5,1q0,1,1.5,1.5h.5c1,0,1.5-.33,1.5-1l1-2Q126.92,151.16,130.42,143.65Zm-11.5,27c.33-.33.33-.75,0-1.25s-.67-.75-1-.75c-1.34-.66-2.17-.5-2.5.5q-4.5,11.5-5.5,14v.5c0,1,.33,1.5,1,1.5,0,.34.33.5,1,.5s1.16-.5,1.5-1.5q1-2,2.75-6.75T118.92,170.65Zm-38.5-18c1-.33,1.33-1.16,1-2.5l-2-4.5q-1.5-3.5-3.5-9a1.83,1.83,0,0,0-3.5,1v.5a35.34,35.34,0,0,0,2.5,5.5q1,2.5,3,8a2,2,0,0,0,2,1Zm-10.5-28.5a.63.63,0,0,0,0-1,6.27,6.27,0,0,0-.5-2.25c-.34-.83-.67-1.58-1-2.25a6.35,6.35,0,0,0-1-1.5c-.34-1-.84-2.33-1.5-4s-1.17-2.83-1.5-3.5c-.34-1.33-1.17-1.66-2.5-1a1.61,1.61,0,0,0-1,1.5v1a8.62,8.62,0,0,1,1.75,3.5,8.36,8.36,0,0,0,1.75,3.5,20.61,20.61,0,0,0,2.5,6q.49,1.5,1.5,1.5h.5A1.61,1.61,0,0,0,69.92,124.15Zm-12-26a1.4,1.4,0,0,0,1-2l-.5-2q-2.51-5.49-5-11.5v-.5h-.5a1.4,1.4,0,0,0-2-1,2,2,0,0,0-1,2v.5a95.72,95.72,0,0,0,4,10.5l1.5,3q.49,1.5,1.5,1.5A1.43,1.43,0,0,0,57.92,98.15Zm-10.5-28q.49-1,0-1.5-1-2-3.5-8.5-1.5-3.49-2-5c-.34-1.33-1.17-1.66-2.5-1a1.61,1.61,0,0,0-1,1.5v1q2,4.5,4,8.5l2,5c0,.67.5,1,1.5,1h.5C47.08,70.82,47.42,70.49,47.42,70.15Zm-12-26.5a1.4,1.4,0,0,0,1-2c-.34-.66-.67-1.33-1-2a8.87,8.87,0,0,1-.75-2,3.3,3.3,0,0,0-.75-1.5c-.34-1-.67-2-1-3,1.66-1.66,2-3.83,1-6.5q-2-5-7-2.75t-3,7.25a5.47,5.47,0,0,0,5.5,3.5c.33,1,1.33,3.34,3,7l.5,1.5a1.59,1.59,0,0,0,1.5,1A1.43,1.43,0,0,0,35.42,43.65Z" transform="translate(-0.23 -0.53)" fill="#fbea23"/><path d="M202.42,18.65a28,28,0,0,1,0,22q-56.5,135.51-73.5,176a26.17,26.17,0,0,1-8,11l-.5.5a24,24,0,0,1-7,4,27.93,27.93,0,0,1-10.5,2,30.62,30.62,0,0,1-11.5-2,24.71,24.71,0,0,1-8.5-5.5,22.88,22.88,0,0,1-6-8c-.34-.66-.67-1.33-1-2l-73.5-176a27.31,27.31,0,0,1,.25-22A29.15,29.15,0,0,1,18.42,2.9a26.71,26.71,0,0,1,22,0,28.24,28.24,0,0,1,15.5,15.75l46.5,112q45-108.5,46.5-112a30.16,30.16,0,0,1,16-15.75,26.71,26.71,0,0,1,22,0A28.24,28.24,0,0,1,202.42,18.65Zm-5,20a24,24,0,0,0,0-18,22.85,22.85,0,0,0-12.5-13,23.27,23.27,0,0,0-18,.25,23.75,23.75,0,0,0-13,12.75l-.5-.5q-1.5,6-48.5,118.5a2.83,2.83,0,0,1-5,0l-49-118A23.89,23.89,0,0,0,38.17,7.9a21.94,21.94,0,0,0-17.75,0A22.82,22.82,0,0,0,7.67,20.65a23.23,23.23,0,0,0-.25,18q69.5,167,73.5,175.5a8.39,8.39,0,0,1,.5,2,22.83,22.83,0,0,0,5,6.75,21.17,21.17,0,0,0,7,4.25,21.25,21.25,0,0,0,18,0,13.57,13.57,0,0,0,6-3.5,23.49,23.49,0,0,0,7-9h.5Q126.92,207.66,197.42,38.65Z" transform="translate(-0.23 -0.53)" fill="#1d1d1b"/><path d="M178.42,23.15l1.5,19.5-6.5-2.5c-1.67,4-2.84,6.84-3.5,8.5a2,2,0,0,1-2,1h-.5a2.85,2.85,0,0,1-1-2v-.5a39.66,39.66,0,0,0,2-5.5,13.14,13.14,0,0,0,1.5-3l-6.5-2.5Z" transform="translate(-0.23 -0.53)" fill="#5a5a5a"/><path d="M162.92,59.65c1.33.34,1.66,1.17,1,2.5l-1,2.5q-3,7.5-4.5,11a1.61,1.61,0,0,1-1.5,1h-1a1.59,1.59,0,0,1-1-1.5,1.43,1.43,0,0,1,.5-1l1.5-4a22.46,22.46,0,0,1,1.25-3c.5-1,1-2.08,1.5-3.25s.91-2.25,1.25-3.25A1.4,1.4,0,0,1,162.92,59.65Z" transform="translate(-0.23 -0.53)" fill="#5a5a5a"/><path d="M151.92,86.9a1.69,1.69,0,0,1,1,2.25l-1.5,3.5q-1,2-4,10c-.67,1-1.34,1.5-2,1.5l-.5-.5q-1.5-.5-1.5-1.5l.5-.5,2-5a35.56,35.56,0,0,1,1.75-5,15.06,15.06,0,0,1,1.75-3.5C150.08,86.82,150.92,86.4,151.92,86.9Z" transform="translate(-0.23 -0.53)" fill="#5a5a5a"/><path d="M141.42,115.15a.63.63,0,0,1,0,1q-1,3-2.75,7.5t-2.75,6.5a1.61,1.61,0,0,1-1.5,1h-1a2,2,0,0,1-1-2v-.5c1-2,2.16-4.66,3.5-8a33.56,33.56,0,0,0,2-5.5c.66-1.33,1.5-1.66,2.5-1A.89.89,0,0,1,141.42,115.15Z" transform="translate(-0.23 -0.53)" fill="#5a5a5a"/><path d="M130.42,142.15v1.5q-3.51,7.5-5,11.5l-1,2c0,.67-.5,1-1.5,1h-.5q-1.5-.5-1.5-1.5a1.43,1.43,0,0,1,.5-1c.33-.66.83-1.83,1.5-3.5a34.11,34.11,0,0,0,1.25-3.5,22.2,22.2,0,0,1,1.25-3.25c.66-1.5,1.16-2.58,1.5-3.25.33-1,1.16-1.33,2.5-1Z" transform="translate(-0.23 -0.53)" fill="#5a5a5a"/><path d="M118.92,169.4c.33.5.33.92,0,1.25q-1,2-2.75,6.75t-2.75,6.75q-.51,1.5-1.5,1.5c-.67,0-1-.16-1-.5-.67,0-1-.5-1-1.5v-.5q1-2.49,5.5-14c.33-1,1.16-1.16,2.5-.5C118.25,168.65,118.58,168.9,118.92,169.4Z" transform="translate(-0.23 -0.53)" fill="#5a5a5a"/><path d="M106.92,195.15q5,2,2.75,7.25t-7.25,3q-5-2.25-2.75-7.25T106.92,195.15Z" transform="translate(-0.23 -0.53)" fill="#5a5a5a"/><path d="M90.42,172.15q2,5,2.5,5.5v.5l6.5-3-1.5,20-14.5-13,6.5-3a.44.44,0,0,1-.5-.5c-.34-1-.75-2.08-1.25-3.25s-1-2.25-1.5-3.25a36,36,0,0,1-1.5-3.5c-.5-1.33-.92-2.5-1.25-3.5a.44.44,0,0,1-.5-.5,2,2,0,0,1,1.5-2,1.4,1.4,0,0,1,2,1Q88.42,167.16,90.42,172.15Z" transform="translate(-0.23 -0.53)" fill="#5a5a5a"/><path d="M81.42,150.15c.33,1.34,0,2.17-1,2.5h-.5a2,2,0,0,1-2-1q-2-5.49-3-8a35.34,35.34,0,0,1-2.5-5.5v-.5a1.83,1.83,0,0,1,3.5-1q2,5.5,3.5,9Z" transform="translate(-0.23 -0.53)" fill="#5a5a5a"/><path d="M69.92,123.15a.63.63,0,0,1,0,1,1.61,1.61,0,0,1-1,1.5h-.5q-1,0-1.5-1.5a20.61,20.61,0,0,1-2.5-6,8.36,8.36,0,0,1-1.75-3.5,8.62,8.62,0,0,0-1.75-3.5v-1a1.61,1.61,0,0,1,1-1.5c1.33-.66,2.16-.33,2.5,1,.33.67.83,1.84,1.5,3.5s1.16,3,1.5,4a6.35,6.35,0,0,1,1,1.5c.33.67.66,1.42,1,2.25A6.27,6.27,0,0,1,69.92,123.15Z" transform="translate(-0.23 -0.53)" fill="#5a5a5a"/><path d="M58.92,96.15a1.4,1.4,0,0,1-1,2,1.43,1.43,0,0,1-1,.5q-1,0-1.5-1.5l-1.5-3a95.72,95.72,0,0,1-4-10.5v-.5a2,2,0,0,1,1-2,1.4,1.4,0,0,1,2,1h.5v.5q2.49,6,5,11.5Z" transform="translate(-0.23 -0.53)" fill="#5a5a5a"/><path d="M47.42,68.65q.49.51,0,1.5c0,.34-.34.67-1,1h-.5c-1,0-1.5-.33-1.5-1l-2-5q-2-4-4-8.5v-1a1.61,1.61,0,0,1,1-1.5c1.33-.66,2.16-.33,2.5,1q.49,1.5,2,5Q46.41,66.66,47.42,68.65Z" transform="translate(-0.23 -0.53)" fill="#5a5a5a"/><path d="M36.42,41.65a1.4,1.4,0,0,1-1,2,1.43,1.43,0,0,1-1,.5,1.59,1.59,0,0,1-1.5-1l-.5-1.5c-1.67-3.66-2.67-6-3-7a5.47,5.47,0,0,1-5.5-3.5q-2-5,3-7.25t7,2.75c1,2.67.66,4.84-1,6.5.33,1,.66,2,1,3a3.3,3.3,0,0,1,.75,1.5,8.87,8.87,0,0,0,.75,2C35.75,40.32,36.08,41,36.42,41.65Z" transform="translate(-0.23 -0.53)" fill="#5a5a5a"/></svg>