<svg id="Layer_1" data-name="Layer 1" xmlns="http://www.w3.org/2000/svg" viewBox="0 0 327.69 233.25"><path d="M98.5,195.14l1.5-19.5-6.5,2.5c-.34-.66-.92-1.82-1.75-3.5s-1.42-2.82-1.75-3.5a34.64,34.64,0,0,0-2-5.5c-.34-1.32-1.17-1.66-2.5-1-.67,0-1,.5-1,1.5v.5c.33.68.75,1.68,1.25,3a7.81,7.81,0,0,0,1.25,2.5c.33,1,.83,2.34,1.5,4s1.16,2.84,1.5,3.5l-6.5,3Zm6-.5c-2.67,0-4.34,1.18-5,3.5q-2,5.52,3,7.25t7-3.25a4.73,4.73,0,0,0-1.5-6q1.5-4.5,4.5-12c.33-1.32,0-2.16-1-2.5-1.34-.32-2.17,0-2.5,1s-.75,2.09-1.25,3.25a30,30,0,0,0-1.25,3.5,16.72,16.72,0,0,1-1,2.75ZM320.75,20.14a23.27,23.27,0,0,1,.25,18q-71.51,171.51-73.5,176a24.71,24.71,0,0,1-5,7.5l-.5.5a19.49,19.49,0,0,1-7,4.5,23,23,0,0,1-9.5,2,18.65,18.65,0,0,1-8.5-2,19.41,19.41,0,0,1-7-4.5h-.5a20.92,20.92,0,0,1-4-5.5,6.22,6.22,0,0,1-1.5-3q-7.5-18-37.5-102a2.25,2.25,0,0,0-2.25-2,3.06,3.06,0,0,0-2.75,2q-31.5,89-37.5,102.5a21.75,21.75,0,0,1-8.5,10.5,21.15,21.15,0,0,1-4,2l-.5.5a4,4,0,0,0-1.5.5h-1a15.9,15.9,0,0,1-6,1,19.72,19.72,0,0,1-9-2,21.19,21.19,0,0,1-9.5-7.5.44.44,0,0,1-.5-.5,18.79,18.79,0,0,1-2.5-4.5q-.51-.48-36.75-87.75T7.5,38.14a23.23,23.23,0,0,1,.25-18A22.82,22.82,0,0,1,20.5,7.39a22.54,22.54,0,0,1,18,0A21.94,21.94,0,0,1,51,20.14l47.5,114.5a3.13,3.13,0,0,0,2.75,1.5,2.13,2.13,0,0,0,2.25-1.5q35-96,38-108.5a24.7,24.7,0,0,1,5.5-10,21,21,0,0,1,11.5-6.5,22.41,22.41,0,0,1,11.5,0,23.67,23.67,0,0,1,11.5,6.5v.5a37.4,37.4,0,0,1,5,7.5,8,8,0,0,0,.5,2.5q3.5,13,38,108a2.3,2.3,0,0,0,2.5,1.5,2.94,2.94,0,0,0,2.5-1.5l34.5-83.5q12.5-29.49,13-31a21.17,21.17,0,0,1,5-7.5,24,24,0,0,1,7.75-5.25,23.51,23.51,0,0,1,9-1.75,19.49,19.49,0,0,1,8.75,2A21.94,21.94,0,0,1,320.75,20.14ZM302.5,43.64l-1-20-15,13,6.5,3c-1.34,3-2.34,5.18-3,6.5v1a1.57,1.57,0,0,0,1,1.5h1a1.59,1.59,0,0,0,1.5-1l.5-1q.5-1.5,2.5-6ZM288,61.14a2,2,0,0,0-1-2.5,1.83,1.83,0,0,0-2.5,1.5l-1.5,3a104.31,104.31,0,0,0-4,10v.5h-.5v.5a1.57,1.57,0,0,0,1,1.5h1c1,0,1.5-.32,1.5-1a20.85,20.85,0,0,0,2-4.25c.66-1.82,1.33-3.5,2-5S287.33,62.48,288,61.14Zm-11.5,27v-1c-.34-.66-.67-1-1-1-1.34-.66-2.17-.32-2.5,1-.34,1-1,2.68-2,5s-1.67,3.84-2,4.5l-1.5,4v.5a2,2,0,0,0,1,2h.5a2,2,0,0,0,2-1v-.5q2-5,3.5-9A20,20,0,0,0,276.5,88.14ZM265,115.64c.66-1.32.41-2.16-.75-2.5a2.28,2.28,0,0,0-2.75,1,36.94,36.94,0,0,1-1.5,4.5c-.67,1.68-1.34,3.25-2,4.75s-1.34,2.93-2,4.25v1a1.57,1.57,0,0,0,1,1.5h1a1.59,1.59,0,0,0,1.5-1Q262,123.14,265,115.64Zm-11,27a1.4,1.4,0,0,0-1-2,1.6,1.6,0,0,0-2.5.5,119,119,0,0,0-5,12.5l-.5,1.5a.44.44,0,0,0-.5.5,1.33,1.33,0,0,0,1.5,1.5.44.44,0,0,0,.5.5,1.33,1.33,0,0,0,1.5-1.5,19.26,19.26,0,0,0,2-4,39.2,39.2,0,0,0,2-5.5Zm-11.5,27.5c.33-1.32,0-2.16-1-2.5-1-.66-1.84-.32-2.5,1q-1.5,3.51-5.5,13v1a2.83,2.83,0,0,0,1,2h.5c1,0,1.5-.32,1.5-1h.5a4.41,4.41,0,0,1,.5-2l1-2,1-2Zm-9,31.5c1.33-3.32.33-5.75-3-7.25s-5.75-.5-7.25,3-.5,5.93,3,7.25S232.16,205,233.5,201.64Zm-12.5-9.5,2.5-20-7,2.5a67.17,67.17,0,0,0-2.25-6.5q-1.75-4.5-2.25-6c-.34-1-1.17-1.32-2.5-1a1.61,1.61,0,0,0-1,1.5v1a27.46,27.46,0,0,1,2.25,5.25c1.16,3.18,2.08,5.59,2.75,7.25l-7,2.5Zm-14-42.5v-1.5c-1-2.66-1.84-5-2.5-7q-.51-1.5-1.5-3.75a10.89,10.89,0,0,1-1-2.75c-.67-1.32-1.5-1.82-2.5-1.5a2,2,0,0,0-1,2v.5a37.34,37.34,0,0,1,2.5,7,28.87,28.87,0,0,1,1.25,3.25c.5,1.5.91,2.75,1.25,3.75a1.58,1.58,0,0,0,1.5,1h1C206.33,150.32,206.66,150,207,149.64Zm-10-27.5v-1.5l-1.5-4.5q-2.5-6-3.5-9v-.5a2,2,0,0,0-2.5-1,2,2,0,0,0-1,2v.5l.5,1.5v-.5a58,58,0,0,1,2,6.5c1,2.34,1.83,4.5,2.5,6.5a1.58,1.58,0,0,0,1.5,1h1C196.33,122.82,196.66,122.48,197,122.14Zm-11-27a1.4,1.4,0,0,0,1-2,122.63,122.63,0,0,0-5-13.5v-.5c-.34-1.32-1-1.66-2-1a1.33,1.33,0,0,0-1.5,1.5v.5c2,5,3.33,8.68,4,11l1,3a2,2,0,0,0,2,1.5Zm-10-27.5c1.33-.66,1.83-1.5,1.5-2.5a33.5,33.5,0,0,1-3-8l-2-6c-.34-1-1.17-1.32-2.5-1a2,2,0,0,0-1,2v.5a26.13,26.13,0,0,1,1.25,3.5c.5,1.68,1.08,3.34,1.75,5s1.33,3.5,2,5.5c0,.68.5,1,1.5,1Zm-9.25-27.5q5.25-1.5,3.75-6.75t-6.75-3.75q-5.25,1.5-3.75,6.75T166.75,40.14Zm-3.75,24-3-19.5-14,14Zm-11,9q.5-.48,0-1.5c0-.32-.34-.66-1-1-1-.32-1.67.18-2,1.5q-3.51,9-5,13.5v.5a2,2,0,0,0,1,2h.5a2.85,2.85,0,0,0,2-1,24.14,24.14,0,0,0,1.25-3.5c.5-1.66.91-3,1.25-4a27.38,27.38,0,0,0,1.25-3.25A11.79,11.79,0,0,0,152,73.14Zm-9.5,27.5a.63.63,0,0,0,0-1c-.34-.66-.67-1-1-1-1.34-.32-2.17,0-2.5,1s-.84,2.43-1.5,4.25-1.17,3.25-1.5,4.25a7.49,7.49,0,0,1-.75,2.75c-.5,1.18-.92,2.09-1.25,2.75v.5a5.17,5.17,0,0,0,1,2h.5a2,2,0,0,0,2-1.5q1-1.5,4.5-12.5Zm-10,28c.33-1.32,0-2.16-1-2.5-1.34-.32-2.17,0-2.5,1-.67,2.34-1.5,5-2.5,8l-2.5,6v1q0,1,1.5,1.5h.5a1.59,1.59,0,0,0,1.5-1l1.5-4.5Q131,132.65,132.5,128.64Zm-10,27.5a1.4,1.4,0,0,0-1-2c-1-.66-1.84-.32-2.5,1q-1,3-5,13.5v1a1.57,1.57,0,0,0,1,1.5c.33,0,.5.09.5.25s.16.25.5.25q1,0,1.5-1.5a32.53,32.53,0,0,1,1.5-4.5c.33-.66.75-1.57,1.25-2.75a29.28,29.28,0,0,0,1.25-3.5C121.83,158.23,122.16,157.14,122.5,156.14Zm-41-2a2,2,0,0,0,1-2.5q-2-4-6-13c-.34-1.32-1-1.82-2-1.5a2,2,0,0,0-1.5,2,.44.44,0,0,0,.5.5c.33.68.91,2.09,1.75,4.25A52,52,0,0,1,77,149.14l2,4a1.58,1.58,0,0,0,1.5,1Zm-10.5-28q.5-.48,0-1.5a36.75,36.75,0,0,0-3-7,11.67,11.67,0,0,0-1-2.75q-1-2.25-1.5-3.75c-.67-1.32-1.5-1.66-2.5-1a1.61,1.61,0,0,0-1,1.5v1a40.73,40.73,0,0,1,2,5,55.59,55.59,0,0,1,3.5,8.5,2,2,0,0,0,2,1H70C70.66,126.82,71,126.48,71,126.14Zm-12.5-26c1.33-.66,1.83-1.5,1.5-2.5a75.8,75.8,0,0,1-4-10l-2-3.5c-.67-1.32-1.5-1.66-2.5-1a1.61,1.61,0,0,0-1,1.5v1c.33.68.66,1.43,1,2.25s.75,1.75,1.25,2.75.91,1.84,1.25,2.5l2.5,6a1.58,1.58,0,0,0,1.5,1Zm-11-27.5a1.4,1.4,0,0,0,1-2c-.34-1-.75-2.07-1.25-3.25s-1-2.32-1.5-3.5-.92-2.25-1.25-3.25l-2-4a1.41,1.41,0,0,0-2-1,2,2,0,0,0-1,2v.5a18.24,18.24,0,0,1,1,2.75,15.05,15.05,0,0,0,1,2.75c.33.68.75,1.5,1.25,2.5a23.86,23.86,0,0,1,1.25,3l1,2.5q.49,1.5,1.5,1.5C47.16,73.14,47.5,73,47.5,72.64ZM36,45.64c1.33-.32,1.66-1.16,1-2.5v-1q-1-2-3.5-7.5a4.72,4.72,0,0,0,1.5-6q-2-5-7.25-3t-2.75,7a5.12,5.12,0,0,0,5,3.5l.5.5c.66,1.68,1.66,4.34,3,8a2.81,2.81,0,0,0,2,1Z" transform="translate(-0.37 -0.39)" fill="#fbea23"/><path d="M325.75,18.14a26.08,26.08,0,0,1-.25,22q-55,132.51-73,176a32,32,0,0,1-6.5,9.5,26.32,26.32,0,0,1-9,6,25.55,25.55,0,0,1-5.25,1.5,31.55,31.55,0,0,1-5.75.5,29.22,29.22,0,0,1-11-2,24.57,24.57,0,0,1-8.5-5.5H206a26.4,26.4,0,0,1-5-7,12.37,12.37,0,0,1-1.5-3q-7-17-35.5-96-30,84.51-35,96a26.51,26.51,0,0,1-10.5,13c-1.67,1-3.17,1.84-4.5,2.5h-.5l-.5.5a4.58,4.58,0,0,0-2,.5h-.5a31.71,31.71,0,0,1-19-1,26,26,0,0,1-12-9.5l-.5-.5c-1-1.66-2-3.5-3-5.5q-71.5-172-73-176a26.65,26.65,0,0,1-.5-22,27.23,27.23,0,0,1,16-15.5,28,28,0,0,1,22,0A27.33,27.33,0,0,1,56,18.14l45,108q32.49-90,35.5-101a26.64,26.64,0,0,1,6.5-12.5,30.1,30.1,0,0,1,14-8.5,33,33,0,0,1,14,0,33.67,33.67,0,0,1,14.5,8.5,32.91,32.91,0,0,1,6,9.5,9.53,9.53,0,0,1,.5,3q3.5,12,35.5,101l32-77Q271,21.66,273,18.14h-.5a27.59,27.59,0,0,1,6.25-9.25,27.16,27.16,0,0,1,9.5-6.25A30.24,30.24,0,0,1,299,.64a29.65,29.65,0,0,1,11,2A28.27,28.27,0,0,1,325.75,18.14Zm-4.75,20a23.27,23.27,0,0,0-.25-18A21.94,21.94,0,0,0,308,7.64a19.49,19.49,0,0,0-8.75-2,23.51,23.51,0,0,0-9,1.75,24,24,0,0,0-7.75,5.25,21.17,21.17,0,0,0-5,7.5q-.51,1.5-13,31L230,134.64a2.94,2.94,0,0,1-2.5,1.5,2.3,2.3,0,0,1-2.5-1.5q-34.5-95-38-108a8,8,0,0,1-.5-2.5,37.4,37.4,0,0,0-5-7.5v-.5A23.67,23.67,0,0,0,170,9.64a22.41,22.41,0,0,0-11.5,0,21,21,0,0,0-11.5,6.5,24.7,24.7,0,0,0-5.5,10q-3,12.51-38,108.5a2.13,2.13,0,0,1-2.25,1.5,3.13,3.13,0,0,1-2.75-1.5L51,20.14A21.94,21.94,0,0,0,38.5,7.39a22.54,22.54,0,0,0-18,0A22.82,22.82,0,0,0,7.75,20.14a23.23,23.23,0,0,0-.25,18q.5,1,36.75,88.25T81,214.14a18.79,18.79,0,0,0,2.5,4.5.44.44,0,0,0,.5.5,21.19,21.19,0,0,0,9.5,7.5,19.72,19.72,0,0,0,9,2,15.9,15.9,0,0,0,6-1h1a4,4,0,0,1,1.5-.5l.5-.5a21.15,21.15,0,0,0,4-2,21.75,21.75,0,0,0,8.5-10.5q6-13.5,37.5-102.5a3.06,3.06,0,0,1,2.75-2,2.25,2.25,0,0,1,2.25,2q30,84,37.5,102a6.22,6.22,0,0,0,1.5,3,20.92,20.92,0,0,0,4,5.5h.5a19.41,19.41,0,0,0,7,4.5,18.65,18.65,0,0,0,8.5,2,23,23,0,0,0,9.5-2,19.49,19.49,0,0,0,7-4.5l.5-.5a24.71,24.71,0,0,0,5-7.5Q249.5,209.64,321,38.14Z" transform="translate(-0.37 -0.39)" fill="#1d1d1b"/><path d="M301.5,23.64l1,20-6-3q-2,4.5-2.5,6l-.5,1a1.59,1.59,0,0,1-1.5,1h-1a1.57,1.57,0,0,1-1-1.5v-1c.66-1.32,1.66-3.5,3-6.5l-6.5-3Z" transform="translate(-0.37 -0.39)" fill="#5a5a5a"/><path d="M287,58.64a2,2,0,0,1,1,2.5c-.67,1.34-1.34,2.75-2,4.25s-1.34,3.18-2,5a20.85,20.85,0,0,1-2,4.25c0,.68-.5,1-1.5,1h-1a1.57,1.57,0,0,1-1-1.5v-.5h.5v-.5a104.31,104.31,0,0,1,4-10l1.5-3A1.83,1.83,0,0,1,287,58.64Z" transform="translate(-0.37 -0.39)" fill="#5a5a5a"/><path d="M276.5,87.14v1a20,20,0,0,1-2,4.5q-1.5,4-3.5,9v.5a2,2,0,0,1-2,1h-.5a2,2,0,0,1-1-2v-.5l1.5-4q.5-1,2-4.5c1-2.32,1.66-4,2-5,.33-1.32,1.16-1.66,2.5-1C275.83,86.14,276.16,86.48,276.5,87.14Z" transform="translate(-0.37 -0.39)" fill="#5a5a5a"/><path d="M264.25,113.14c1.16.34,1.41,1.18.75,2.5q-3,7.5-5.5,13.5a1.59,1.59,0,0,1-1.5,1h-1a1.57,1.57,0,0,1-1-1.5v-1c.66-1.32,1.33-2.75,2-4.25s1.33-3.07,2-4.75a36.94,36.94,0,0,0,1.5-4.5A2.28,2.28,0,0,1,264.25,113.14Z" transform="translate(-0.37 -0.39)" fill="#5a5a5a"/><path d="M253,140.64a1.4,1.4,0,0,1,1,2l-2,4a39.2,39.2,0,0,1-2,5.5,19.26,19.26,0,0,1-2,4,1.33,1.33,0,0,1-1.5,1.5.44.44,0,0,1-.5-.5,1.33,1.33,0,0,1-1.5-1.5.44.44,0,0,1,.5-.5l.5-1.5a119,119,0,0,1,5-12.5A1.6,1.6,0,0,1,253,140.64Z" transform="translate(-0.37 -0.39)" fill="#5a5a5a"/><path d="M241.5,167.64c1,.34,1.33,1.18,1,2.5l-3,7.5-1,2-1,2a4.41,4.41,0,0,0-.5,2h-.5c0,.68-.5,1-1.5,1h-.5a2.83,2.83,0,0,1-1-2v-1q4-9.48,5.5-13C239.66,167.32,240.5,167,241.5,167.64Z" transform="translate(-0.37 -0.39)" fill="#5a5a5a"/><path d="M230.5,194.39c3.33,1.5,4.33,3.93,3,7.25s-3.75,4.34-7.25,3-4.5-3.75-3-7.25S227.16,192.89,230.5,194.39Z" transform="translate(-0.37 -0.39)" fill="#5a5a5a"/><path d="M223.5,172.14l-2.5,20-14.5-13.5,7-2.5c-.67-1.66-1.59-4.07-2.75-7.25a27.46,27.46,0,0,0-2.25-5.25v-1a1.61,1.61,0,0,1,1-1.5c1.33-.32,2.16,0,2.5,1s1.08,3,2.25,6a67.17,67.17,0,0,1,2.25,6.5Z" transform="translate(-0.37 -0.39)" fill="#5a5a5a"/><path d="M207,148.14v1.5c-.34.34-.67.68-1,1h-1a1.58,1.58,0,0,1-1.5-1c-.34-1-.75-2.25-1.25-3.75a28.87,28.87,0,0,0-1.25-3.25,37.34,37.34,0,0,0-2.5-7v-.5a2,2,0,0,1,1-2c1-.32,1.83.18,2.5,1.5a10.89,10.89,0,0,0,1,2.75q1,2.25,1.5,3.75C205.16,143.14,206,145.48,207,148.14Z" transform="translate(-0.37 -0.39)" fill="#5a5a5a"/><path d="M197,120.64v1.5c-.34.34-.67.68-1,1h-1a1.58,1.58,0,0,1-1.5-1c-.67-2-1.5-4.16-2.5-6.5a58,58,0,0,0-2-6.5v.5l-.5-1.5v-.5a2,2,0,0,1,1-2,2,2,0,0,1,2.5,1v.5q1,3,3.5,9Z" transform="translate(-0.37 -0.39)" fill="#5a5a5a"/><path d="M187,93.14a1.4,1.4,0,0,1-1,2l-.5.5a2,2,0,0,1-2-1.5l-1-3c-.67-2.32-2-6-4-11v-.5a1.33,1.33,0,0,1,1.5-1.5c1-.66,1.66-.32,2,1v.5A122.63,122.63,0,0,1,187,93.14Z" transform="translate(-0.37 -0.39)" fill="#5a5a5a"/><path d="M177.5,65.14c.33,1-.17,1.84-1.5,2.5h-.5c-1,0-1.5-.32-1.5-1-.67-2-1.34-3.82-2-5.5s-1.25-3.32-1.75-5a26.13,26.13,0,0,0-1.25-3.5v-.5a2,2,0,0,1,1-2c1.33-.32,2.16,0,2.5,1l2,6A33.5,33.5,0,0,0,177.5,65.14Z" transform="translate(-0.37 -0.39)" fill="#5a5a5a"/><circle cx="164.88" cy="34.5" r="5.46" fill="#5a5a5a"/><polygon points="159.63 44.25 162.63 63.75 145.63 58.25 159.63 44.25" fill="#5a5a5a"/><path d="M152,71.64q.5,1,0,1.5a11.79,11.79,0,0,1-.75,3.25A27.38,27.38,0,0,1,150,79.64c-.34,1-.75,2.34-1.25,4a24.14,24.14,0,0,1-1.25,3.5,2.85,2.85,0,0,1-2,1H145a2,2,0,0,1-1-2v-.5q1.5-4.5,5-13.5c.33-1.32,1-1.82,2-1.5C151.66,71,152,71.32,152,71.64Z" transform="translate(-0.37 -0.39)" fill="#5a5a5a"/><path d="M142.5,99.64a.63.63,0,0,1,0,1l-.5,1.5q-3.51,11-4.5,12.5a2,2,0,0,1-2,1.5H135a5.17,5.17,0,0,1-1-2v-.5c.33-.66.75-1.57,1.25-2.75a7.49,7.49,0,0,0,.75-2.75c.33-1,.83-2.41,1.5-4.25s1.16-3.25,1.5-4.25,1.16-1.32,2.5-1C141.83,98.64,142.16,99,142.5,99.64Z" transform="translate(-0.37 -0.39)" fill="#5a5a5a"/><path d="M131.5,126.14c1,.34,1.33,1.18,1,2.5q-1.5,4-3.5,9.5l-1.5,4.5a1.59,1.59,0,0,1-1.5,1h-.5q-1.5-.48-1.5-1.5v-1l2.5-6c1-3,1.83-5.66,2.5-8C129.33,126.14,130.16,125.82,131.5,126.14Z" transform="translate(-0.37 -0.39)" fill="#5a5a5a"/><path d="M121.5,154.14a1.4,1.4,0,0,1,1,2c-.34,1-.67,2.09-1,3.25a29.28,29.28,0,0,1-1.25,3.5c-.5,1.18-.92,2.09-1.25,2.75a32.53,32.53,0,0,0-1.5,4.5q-.51,1.5-1.5,1.5c-.34,0-.5-.07-.5-.25s-.17-.25-.5-.25a1.57,1.57,0,0,1-1-1.5v-1q4-10.5,5-13.5C119.66,153.82,120.5,153.48,121.5,154.14Z" transform="translate(-0.37 -0.39)" fill="#5a5a5a"/><path d="M111.5,181.64c1,.34,1.33,1.18,1,2.5q-3,7.5-4.5,12a4.73,4.73,0,0,1,1.5,6q-2,5-7,3.25t-3-7.25c.66-2.32,2.33-3.5,5-3.5l1-2.5a16.72,16.72,0,0,0,1-2.75,30,30,0,0,1,1.25-3.5c.5-1.16.91-2.25,1.25-3.25S110.16,181.32,111.5,181.64Z" transform="translate(-0.37 -0.39)" fill="#5a5a5a"/><path d="M100,175.64l-1.5,19.5-15-12.5,6.5-3c-.34-.66-.84-1.82-1.5-3.5s-1.17-3-1.5-4a7.81,7.81,0,0,1-1.25-2.5c-.5-1.32-.92-2.32-1.25-3v-.5c0-1,.33-1.5,1-1.5,1.33-.66,2.16-.32,2.5,1a34.64,34.64,0,0,1,2,5.5c.33.68.91,1.84,1.75,3.5s1.41,2.84,1.75,3.5Z" transform="translate(-0.37 -0.39)" fill="#5a5a5a"/><path d="M82.5,151.64a2,2,0,0,1-1,2.5h-1a1.58,1.58,0,0,1-1.5-1l-2-4a52,52,0,0,0-1.75-5.25c-.84-2.16-1.42-3.57-1.75-4.25a.44.44,0,0,1-.5-.5,2,2,0,0,1,1.5-2c1-.32,1.66.18,2,1.5Q80.49,147.64,82.5,151.64Z" transform="translate(-0.37 -0.39)" fill="#5a5a5a"/><path d="M71,124.64q.5,1,0,1.5c0,.34-.34.68-1,1h-.5a2,2,0,0,1-2-1,55.59,55.59,0,0,0-3.5-8.5,40.73,40.73,0,0,0-2-5v-1a1.61,1.61,0,0,1,1-1.5c1-.66,1.83-.32,2.5,1q.5,1.5,1.5,3.75a11.67,11.67,0,0,1,1,2.75A36.75,36.75,0,0,1,71,124.64Z" transform="translate(-0.37 -0.39)" fill="#5a5a5a"/><path d="M60,97.64c.33,1-.17,1.84-1.5,2.5H58a1.58,1.58,0,0,1-1.5-1l-2.5-6c-.34-.66-.75-1.5-1.25-2.5s-.92-1.91-1.25-2.75-.67-1.57-1-2.25v-1a1.61,1.61,0,0,1,1-1.5c1-.66,1.83-.32,2.5,1l2,3.5A75.8,75.8,0,0,0,60,97.64Z" transform="translate(-0.37 -0.39)" fill="#5a5a5a"/><path d="M48.5,70.64a1.4,1.4,0,0,1-1,2c0,.34-.34.5-1,.5s-1.17-.5-1.5-1.5l-1-2.5a23.86,23.86,0,0,0-1.25-3c-.5-1-.92-1.82-1.25-2.5a15.05,15.05,0,0,1-1-2.75,18.24,18.24,0,0,0-1-2.75v-.5a2,2,0,0,1,1-2,1.41,1.41,0,0,1,2,1l2,4c.33,1,.75,2.09,1.25,3.25s1,2.34,1.5,3.5S48.16,69.64,48.5,70.64Z" transform="translate(-0.37 -0.39)" fill="#5a5a5a"/><path d="M37,43.14c.66,1.34.33,2.18-1,2.5h-.5a2.81,2.81,0,0,1-2-1c-1.34-3.66-2.34-6.32-3-8l-.5-.5a5.12,5.12,0,0,1-5-3.5q-2.51-5,2.75-7t7.25,3a4.72,4.72,0,0,1-1.5,6Q36,40.16,37,42.14Z" transform="translate(-0.37 -0.39)" fill="#5a5a5a"/></svg>