<svg id="Layer_1" data-name="Layer 1" xmlns="http://www.w3.org/2000/svg" viewBox="0 0 186.43 233.99"><path d="M98,118.9c-1-.66-1.84-.66-2.5,0a1.61,1.61,0,0,0-1,1.5v-.5a3.93,3.93,0,0,0-.5-1.5,1.6,1.6,0,0,0-2.5.5,26,26,0,0,0-4,5.5c-2.34,3-4,5.17-5,6.5q-.51.51,0,1.5a1.4,1.4,0,0,0,.5,1l1,.5a1.61,1.61,0,0,0,1.5-1,22.69,22.69,0,0,0,2.25-2.75q1.24-1.74,2.25-3a24,24,0,0,0,2-3,13,13,0,0,1,2-2.75l.5-.5v-.5l.5,1q2,3,5.5,7.5l3,4.5a3.67,3.67,0,0,0,1.5.5,1.43,1.43,0,0,0,1-.5c.66-.33,1-.66,1-1a2.07,2.07,0,0,0-.5-1.5q-1.5-2-4.5-6.25C100,121.82,98.7,119.9,98,118.9Zm84,81.5a23.52,23.52,0,0,1,.25,9,23.13,23.13,0,0,1-3.25,8.5,30.41,30.41,0,0,1-6,7q-12,8.5-24.5,2a24.42,24.42,0,0,1-8.5-7l-43.5-59.5a2.5,2.5,0,0,0-4,0L49,219.4a20.34,20.34,0,0,1-8,7q-13,6.51-24.5-2a17.85,17.85,0,0,1-6.25-6.5,25.87,25.87,0,0,1-3-8.75,24.53,24.53,0,0,1,.25-9.25,18.13,18.13,0,0,1,4-8l53-73a2.52,2.52,0,0,0,0-3l-53-72A6.46,6.46,0,0,0,10,41.4a15.55,15.55,0,0,1-2-5,20.34,20.34,0,0,1-.5-10,21,21,0,0,1,2-6.5,21.69,21.69,0,0,1,3.75-6A23.18,23.18,0,0,1,19,9.4a20.1,20.1,0,0,1,7.5-2.5,20.7,20.7,0,0,1,9,0,22.07,22.07,0,0,1,9,4,18,18,0,0,1,5,5l43,59a2.5,2.5,0,0,0,4,0l30.5-42q11-15,12.5-17.5v.5a22.62,22.62,0,0,1,7-6.25,25.84,25.84,0,0,1,8.5-3,24.92,24.92,0,0,1,9.25.25,19.87,19.87,0,0,1,8.25,3.75,26.38,26.38,0,0,1,6,6.75,23.2,23.2,0,0,1,3.25,8.5,24.92,24.92,0,0,1-.25,9.25,18.21,18.21,0,0,1-4,8.25l-53,72.5a2.49,2.49,0,0,0,0,3l53.5,73A40,40,0,0,1,182,200.4Zm-17.5,13L161,193.9l-5.5,4c-1.67-2-2.67-3.16-3-3.5l-2.5-3.5v-.5l-.5-.5a2.14,2.14,0,0,0-2,0,1.61,1.61,0,0,0-1,1.5,3.67,3.67,0,0,0,.5,1.5,30.33,30.33,0,0,1,2.75,3.5,26.77,26.77,0,0,0,2.75,3.5l-5.5,4.5Zm-4.75-176q3.24-4.5-1.25-7.75t-7.75,1.25q-3.25,4.5,1.25,7.75T159.79,37.4ZM146.54,49.9v-1a4.51,4.51,0,0,0-.5-2,2.28,2.28,0,0,0-2.5.5q-2.5,3-3.5,4.5a78,78,0,0,1-5.5,7.5,1.59,1.59,0,0,0,.5,2.5l1,.5a1.61,1.61,0,0,0,1.5-1,42.13,42.13,0,0,1,4-5,6.71,6.71,0,0,1,1.25-1.75,10.35,10.35,0,0,0,1.25-1.5,17.85,17.85,0,0,0,1-1.75,5.8,5.8,0,0,1,1-1.5Zm-5.5,131a1.6,1.6,0,0,0,.5-2.5c-1.34-1.66-2.5-3.16-3.5-4.5a36.78,36.78,0,0,1-2.5-3.25q-2-2.75-3-4.25c-.67-1-1.5-1-2.5,0a2,2,0,0,0-.5,1.5v1l.5.5a36.72,36.72,0,0,1,3.5,5,58.89,58.89,0,0,1,5,6.5,2,2,0,0,0,1.5.5A1.43,1.43,0,0,0,141,180.9ZM129,73.4c.33,0,.5-.33.5-1a1.62,1.62,0,0,0-1-1.5c-1-1-1.84-.83-2.5.5l-.5.5q-1,1.5-8,11.5c-.34,0-.5.34-.5,1a3.93,3.93,0,0,1,.5,1.5h1a2,2,0,0,0,1.5-.5q3.49-4.5,6-8A21,21,0,0,1,129,73.4Zm-5.5,84a1.6,1.6,0,0,0,.5-2.5,19.76,19.76,0,0,0-2.75-4,40.08,40.08,0,0,1-3.25-4.25c-1-1.5-1.84-2.75-2.5-3.75-1-1-1.84-1.16-2.5-.5a1.61,1.61,0,0,0-1,1.5,1.4,1.4,0,0,0,.5,1l1,2q1.5,2,4,5.5a40.59,40.59,0,0,0,3.5,4.5,1.59,1.59,0,0,0,1.5,1A1.43,1.43,0,0,0,123.54,157.4Zm-12-60a1.44,1.44,0,0,0,.5-1,1.62,1.62,0,0,0-1-1.5,1.26,1.26,0,0,0-2,0l-.5.5q-3.51,4.5-6,8l-2.5,3.5a3.76,3.76,0,0,0-.5,1.5.88.88,0,0,0,1,1c0,.34.33.5,1,.5a1.61,1.61,0,0,0,1.5-1,19.06,19.06,0,0,0,3.5-5C108.54,101.24,110.2,99.07,111.54,97.4ZM89,109.9c1-1,1.16-1.83.5-2.5q-2-3-3-4.5a33.21,33.21,0,0,1-3-3.75,38,38,0,0,0-3-3.75,2,2,0,0,0-3.5,1,1.4,1.4,0,0,0,.5,1l1.5,2q5,6.51,7.5,10a1.59,1.59,0,0,0,1.5,1A1.43,1.43,0,0,0,89,109.9Zm-12,35v-1a2.07,2.07,0,0,0-.5-1.5c-1-1-1.84-.83-2.5.5q-5,6.51-8.5,11.5a3.76,3.76,0,0,0-.5,1.5,3.67,3.67,0,0,0,.5,1.5h1a2,2,0,0,0,1.5-.5,16.67,16.67,0,0,0,2-2.5c.66-1,1.33-1.91,2-2.75a26.55,26.55,0,0,1,2-2.25A24.77,24.77,0,0,1,77,144.9Zm-5.5-59a1.6,1.6,0,0,0,.5-2.5,66.21,66.21,0,0,0-4.5-6,14.23,14.23,0,0,0-1.25-2l-1.5-2a12.43,12.43,0,0,1-1.25-2,1.87,1.87,0,0,0-3,0,2,2,0,0,0-.5,1.5l.5,1a9.25,9.25,0,0,1,1,1.25,7.49,7.49,0,0,0,1,1.25,6.35,6.35,0,0,1,1,1.5,5.47,5.47,0,0,0,1,1.5,22.76,22.76,0,0,0,2.25,3.25C68,84.15,68.7,85.07,69,85.4a1.59,1.59,0,0,0,1.5,1A1.43,1.43,0,0,0,71.54,85.9Zm-12,82.5c.33,0,.5-.33.5-1a1.62,1.62,0,0,0-1-1.5c-.67-.66-1.5-.5-2.5.5a23.88,23.88,0,0,0-2.75,3.75C52.62,172,51.7,173.4,51,174.4a22.51,22.51,0,0,0-1.5,1.75A13.23,13.23,0,0,0,48,178.4a2,2,0,0,0-.5,1.5c.33.67.66,1,1,1,0,.34.33.5,1,.5.33,0,.83-.33,1.5-1q.49-.5,2.75-3.5a34.76,34.76,0,0,0,3.25-5ZM54,62.4c1-.66,1.16-1.66.5-3q-3-4-4.5-6.5a3.21,3.21,0,0,1-1.5-1.5,14.23,14.23,0,0,0-1.25-2A16.81,16.81,0,0,0,46,47.9c-.67-1.33-1.5-1.5-2.5-.5a1.61,1.61,0,0,0-1,1.5,1.4,1.4,0,0,0,.5,1l.5.5a20.69,20.69,0,0,0,1.75,2.75,20.94,20.94,0,0,0,2.25,2.75l4,6a2,2,0,0,0,1.5.5Zm-11.5,129a2.07,2.07,0,0,0-.5-1.5,1.6,1.6,0,0,0-2.5.5H39a36,36,0,0,1-2.75,4c-1.5,2-2.59,3.5-3.25,4.5l-5.5-4L24,214.4l17.5-9L36,200.9a7.85,7.85,0,0,1,1.5-2l4.5-6v-1A.44.44,0,0,0,42.54,191.4ZM37,38.65q4.5-3.24,1.25-7.75t-7.75-1.25Q26,32.91,29.29,37.4T37,38.65Z" transform="translate(-1.51 -0.87)" fill="#fbea23"/><path d="M187,198.9a26.71,26.71,0,0,1,.5,11.5,31.11,31.11,0,0,1-4,10.5,24.65,24.65,0,0,1-7.5,8,28,28,0,0,1-17,5.5,28.65,28.65,0,0,1-13-3,31.92,31.92,0,0,1-10.5-8.5l-41-56.5-41,56a32.35,32.35,0,0,1-10,9q-16,8-30-2.5a28.74,28.74,0,0,1-8-8.25,25.55,25.55,0,0,1-3.75-10.5,31.66,31.66,0,0,1,.5-11.25A25.11,25.11,0,0,1,7,188.9l52-71.5L7.54,46.9l-2-3A36.86,36.86,0,0,1,3,37.4a24.5,24.5,0,0,1-1-12,49.87,49.87,0,0,1,2.75-8,22.58,22.58,0,0,1,4.75-7,22.38,22.38,0,0,1,7-5.5,26.79,26.79,0,0,1,9-3.5,24.69,24.69,0,0,1,11,.5,26.69,26.69,0,0,1,11,4.5A30.31,30.31,0,0,1,54,12.9l40.5,56q10-13.5,20.25-27.75T135.54,12.9a28.87,28.87,0,0,1,8.25-8,25.55,25.55,0,0,1,10.5-3.75,31.89,31.89,0,0,1,11.25.5,25.38,25.38,0,0,1,10,4.75,32.33,32.33,0,0,1,7.5,8.25,29.3,29.3,0,0,1,3.75,21.75,25.32,25.32,0,0,1-4.75,10l-52,71,52,71.5A28.34,28.34,0,0,1,187,198.9Zm-4.75,10.5a23.52,23.52,0,0,0-.25-9,40,40,0,0,0-4-8.5l-53.5-73a2.49,2.49,0,0,1,0-3l53-72.5a18.21,18.21,0,0,0,4-8.25,24.92,24.92,0,0,0,.25-9.25,23.2,23.2,0,0,0-3.25-8.5,26.38,26.38,0,0,0-6-6.75,19.87,19.87,0,0,0-8.25-3.75A24.92,24.92,0,0,0,155,6.65a25.84,25.84,0,0,0-8.5,3,22.62,22.62,0,0,0-7,6.25v-.5Q138,17.91,127,32.9l-30.5,42a2.5,2.5,0,0,1-4,0l-43-59a18,18,0,0,0-5-5,22.07,22.07,0,0,0-9-4,20.7,20.7,0,0,0-9,0A20.1,20.1,0,0,0,19,9.4a23.18,23.18,0,0,0-5.75,4.5,21.69,21.69,0,0,0-3.75,6,21,21,0,0,0-2,6.5,20.34,20.34,0,0,0,.5,10,15.55,15.55,0,0,0,2,5,6.46,6.46,0,0,1,1.5,2.5l53,72a2.52,2.52,0,0,1,0,3l-53,73a18.13,18.13,0,0,0-4,8,24.53,24.53,0,0,0-.25,9.25,25.87,25.87,0,0,0,3,8.75,17.85,17.85,0,0,0,6.25,6.5q11.49,8.5,24.5,2a20.34,20.34,0,0,0,8-7l43.5-59a2.5,2.5,0,0,1,4,0L140,219.9a24.42,24.42,0,0,0,8.5,7q12.5,6.51,24.5-2a30.41,30.41,0,0,0,6-7A23.13,23.13,0,0,0,182.29,209.4Z" transform="translate(-1.51 -0.87)" fill="#1d1d1b"/><path d="M158.54,29.65q4.5,3.26,1.25,7.75T152,38.65q-4.5-3.24-1.25-7.75T158.54,29.65Z" transform="translate(-1.51 -0.87)" fill="#5a5a5a"/><path d="M150,190.4v.5l2.5,3.5c.33.34,1.33,1.5,3,3.5l5.5-4,3.5,19.5-17.5-9,5.5-4.5a26.77,26.77,0,0,1-2.75-3.5,30.33,30.33,0,0,0-2.75-3.5,3.67,3.67,0,0,1-.5-1.5,1.61,1.61,0,0,1,1-1.5,2.14,2.14,0,0,1,2,0Z" transform="translate(-1.51 -0.87)" fill="#5a5a5a"/><path d="M146.54,48.9v1H146a5.8,5.8,0,0,0-1,1.5,17.85,17.85,0,0,1-1,1.75,10.35,10.35,0,0,1-1.25,1.5,6.71,6.71,0,0,0-1.25,1.75,42.13,42.13,0,0,0-4,5,1.61,1.61,0,0,1-1.5,1l-1-.5a1.59,1.59,0,0,1-.5-2.5,78,78,0,0,0,5.5-7.5q1-1.5,3.5-4.5a2.28,2.28,0,0,1,2.5-.5A4.51,4.51,0,0,1,146.54,48.9Z" transform="translate(-1.51 -0.87)" fill="#5a5a5a"/><path d="M141.54,178.4a1.6,1.6,0,0,1-.5,2.5,1.43,1.43,0,0,1-1,.5,2,2,0,0,1-1.5-.5,58.89,58.89,0,0,0-5-6.5,36.72,36.72,0,0,0-3.5-5l-.5-.5v-1a2,2,0,0,1,.5-1.5c1-1,1.83-1,2.5,0s1.66,2.42,3,4.25a36.78,36.78,0,0,0,2.5,3.25C139,175.24,140.2,176.74,141.54,178.4Z" transform="translate(-1.51 -0.87)" fill="#5a5a5a"/><path d="M129.54,72.4c0,.67-.17,1-.5,1a21,21,0,0,0-3,4q-2.51,3.51-6,8a2,2,0,0,1-1.5.5h-1a3.93,3.93,0,0,0-.5-1.5c0-.66.16-1,.5-1q7-10,8-11.5l.5-.5c.66-1.33,1.5-1.5,2.5-.5A1.62,1.62,0,0,1,129.54,72.4Z" transform="translate(-1.51 -0.87)" fill="#5a5a5a"/><path d="M124,154.9a1.6,1.6,0,0,1-.5,2.5,1.43,1.43,0,0,1-1,.5,1.59,1.59,0,0,1-1.5-1,40.59,40.59,0,0,1-3.5-4.5q-2.51-3.5-4-5.5l-1-2a1.4,1.4,0,0,1-.5-1,1.61,1.61,0,0,1,1-1.5c.66-.66,1.5-.5,2.5.5.66,1,1.5,2.25,2.5,3.75a40.08,40.08,0,0,0,3.25,4.25A19.76,19.76,0,0,1,124,154.9Z" transform="translate(-1.51 -0.87)" fill="#5a5a5a"/><path d="M109,94.9a1.26,1.26,0,0,1,2,0,1.62,1.62,0,0,1,1,1.5,1.44,1.44,0,0,1-.5,1c-1.34,1.67-3,3.84-5,6.5a19.06,19.06,0,0,1-3.5,5,1.61,1.61,0,0,1-1.5,1c-.67,0-1-.16-1-.5a.88.88,0,0,1-1-1,3.76,3.76,0,0,1,.5-1.5l2.5-3.5q2.49-3.5,6-8Z" transform="translate(-1.51 -0.87)" fill="#5a5a5a"/><path d="M98,118.9c.66,1,2,2.92,4,5.75s3.5,4.92,4.5,6.25a2.07,2.07,0,0,1,.5,1.5c0,.34-.34.67-1,1a1.43,1.43,0,0,1-1,.5,3.67,3.67,0,0,1-1.5-.5l-3-4.5Q97,124.4,95,121.4l-.5-1a1.61,1.61,0,0,1,1-1.5C96.2,118.24,97,118.24,98,118.9Z" transform="translate(-1.51 -0.87)" fill="#5a5a5a"/><path d="M94,118.4a3.93,3.93,0,0,1,.5,1.5v1l-.5.5a13,13,0,0,0-2,2.75,24,24,0,0,1-2,3q-1,1.26-2.25,3a22.69,22.69,0,0,1-2.25,2.75,1.61,1.61,0,0,1-1.5,1l-1-.5a1.4,1.4,0,0,1-.5-1q-.51-1,0-1.5c1-1.33,2.66-3.5,5-6.5a26,26,0,0,1,4-5.5A1.6,1.6,0,0,1,94,118.4Z" transform="translate(-1.51 -0.87)" fill="#5a5a5a"/><path d="M89.54,107.4c.66.67.5,1.5-.5,2.5a1.43,1.43,0,0,1-1,.5,1.59,1.59,0,0,1-1.5-1Q84,105.9,79,99.4l-1.5-2a1.4,1.4,0,0,1-.5-1,2,2,0,0,1,3.5-1,38,38,0,0,1,3,3.75,33.21,33.21,0,0,0,3,3.75Q87.53,104.4,89.54,107.4Z" transform="translate(-1.51 -0.87)" fill="#5a5a5a"/><path d="M74,142.9c.66-1.33,1.5-1.5,2.5-.5a2.07,2.07,0,0,1,.5,1.5v1a24.77,24.77,0,0,0-3,4.5,26.55,26.55,0,0,0-2,2.25c-.67.84-1.34,1.75-2,2.75a16.67,16.67,0,0,1-2,2.5,2,2,0,0,1-1.5.5h-1a3.67,3.67,0,0,1-.5-1.5,3.76,3.76,0,0,1,.5-1.5Q69,149.4,74,142.9Z" transform="translate(-1.51 -0.87)" fill="#5a5a5a"/><path d="M72,83.4a1.6,1.6,0,0,1-.5,2.5,1.43,1.43,0,0,1-1,.5,1.59,1.59,0,0,1-1.5-1c-.34-.33-1.09-1.25-2.25-2.75a22.76,22.76,0,0,1-2.25-3.25,5.47,5.47,0,0,1-1-1.5,6.35,6.35,0,0,0-1-1.5,7.49,7.49,0,0,1-1-1.25,9.25,9.25,0,0,0-1-1.25l-.5-1a2,2,0,0,1,.5-1.5,1.88,1.88,0,0,1,3,0,12.43,12.43,0,0,0,1.25,2l1.5,2a14.23,14.23,0,0,1,1.25,2A66.21,66.21,0,0,1,72,83.4Z" transform="translate(-1.51 -0.87)" fill="#5a5a5a"/><path d="M60,167.4c0,.67-.17,1-.5,1L57,171.9a34.76,34.76,0,0,1-3.25,5q-2.25,3-2.75,3.5c-.67.67-1.17,1-1.5,1-.67,0-1-.16-1-.5-.34,0-.67-.33-1-1a2,2,0,0,1,.5-1.5,13.23,13.23,0,0,1,1.5-2.25A22.51,22.51,0,0,1,51,174.4c.66-1,1.58-2.41,2.75-4.25a23.88,23.88,0,0,1,2.75-3.75c1-1,1.83-1.16,2.5-.5A1.62,1.62,0,0,1,60,167.4Z" transform="translate(-1.51 -0.87)" fill="#5a5a5a"/><path d="M54.54,59.4c.66,1.34.5,2.34-.5,3H53a2,2,0,0,1-1.5-.5l-4-6a20.94,20.94,0,0,1-2.25-2.75,20.69,20.69,0,0,1-1.75-2.75l-.5-.5a1.4,1.4,0,0,1-.5-1,1.61,1.61,0,0,1,1-1.5c1-1,1.83-.83,2.5.5a16.81,16.81,0,0,1,1.25,1.5,14.23,14.23,0,0,1,1.25,2A3.21,3.21,0,0,0,50,52.9Q51.54,55.41,54.54,59.4Z" transform="translate(-1.51 -0.87)" fill="#5a5a5a"/><path d="M42,189.9a2.07,2.07,0,0,1,.5,1.5.44.44,0,0,1-.5.5v1l-4.5,6a7.85,7.85,0,0,0-1.5,2l5.5,4.5-17.5,9,3.5-19.5,5.5,4c.66-1,1.75-2.5,3.25-4.5a36,36,0,0,0,2.75-4h.5A1.6,1.6,0,0,1,42,189.9Z" transform="translate(-1.51 -0.87)" fill="#5a5a5a"/><path d="M38.29,30.9q3.24,4.5-1.25,7.75T29.29,37.4Q26,32.9,30.54,29.65T38.29,30.9Z" transform="translate(-1.51 -0.87)" fill="#5a5a5a"/></svg>