<svg id="Layer_1" data-name="Layer 1" xmlns="http://www.w3.org/2000/svg" viewBox="0 0 206.03 324.5"><path d="M165.66,199.88l8-18-19,4.5Zm10-16v14.5a2,2,0,0,0,.5,1.5,1.44,1.44,0,0,0,1,.5h.5a1.33,1.33,0,0,0,1.5-1.5v-15a1.33,1.33,0,0,0-1.5-1.5h-.5A1.33,1.33,0,0,0,175.66,183.88Zm26-154-.5,168q-1,38.51-6.25,62.75t-20.75,39.25q-21,20.49-60.5,20.5-27.51,0-54-15-31.5-18-50.5-50.5a20.31,20.31,0,0,1-3-8.75,24.33,24.33,0,0,1,.75-9.25,25.08,25.08,0,0,1,4-8.25,21.07,21.07,0,0,1,6.75-6,22.07,22.07,0,0,1,8.5-2.75,11.15,11.15,0,0,1,3.5-.5,14.63,14.63,0,0,1,5.5,1,21.91,21.91,0,0,1,8.25,3.75,24.13,24.13,0,0,1,6.25,6.75,89.83,89.83,0,0,0,33.5,33.5q15.5,9,30.5,9,20.49,0,27.5-7,9-8.52,11.5-41.5a2.65,2.65,0,0,0-1-2.25,2.6,2.6,0,0,0-2.5-.25q-33,9-67.5-3-35-12-55.5-41-19.5-28-19.5-64v-85a22.57,22.57,0,0,1,7-16.5q6.49-6.49,16.5-6.5a22.39,22.39,0,0,1,16.5,6.5,22.61,22.61,0,0,1,7,16.5v85q0,21.5,11,37,11.49,16.5,32.5,23.5,21,7.5,40,2a45.19,45.19,0,0,0,16-8,2.91,2.91,0,0,0,1-2v-61.5l.5-76a22.57,22.57,0,0,1,7-16.5,22,22,0,0,1,16.75-6.75,23.36,23.36,0,0,1,16.5,7A22.74,22.74,0,0,1,201.66,29.88Zm-22.5,9c2.33-.67,3.66-2.33,4-5a5,5,0,0,0-1.75-4,6,6,0,0,0-4-1.5,5.09,5.09,0,0,0-3.75,1.5,5.4,5.4,0,0,0-1.5,4c-.34,2.67.83,4.33,3.5,5v13c0,1.33.58,2,1.75,2s1.75-.67,1.75-2v-13Zm0,130.5v-15a1.33,1.33,0,0,0-1.5-1.5c-1.34,0-2,.5-2,1.5v15c0,1,.58,1.5,1.75,1.5S179.16,170.38,179.16,169.38Zm0-29.5v-15c0-1-.59-1.5-1.75-1.5s-1.75.5-1.75,1.5v15c0,1.33.58,2,1.75,2S179.16,141.21,179.16,139.88Zm0-29.5v-15a2,2,0,0,0-2-1.5,1.77,1.77,0,0,0-2,2,65.83,65.83,0,0,0,.5,7v7.5c0,1.33.58,2,1.75,2S179.16,111.71,179.16,110.38Zm0-29V66.88a1.77,1.77,0,0,0-2-2c-1.34,0-2,.5-2,1.5l.5.5-.5,2.5v12a2,2,0,0,0,4,0Zm-.5,132a2,2,0,0,0-.5-1.5,1.47,1.47,0,0,0-1-.5,1.77,1.77,0,0,0-2,2q-.51,5.51-1,14.5a2,2,0,0,0,1.5,2,1.77,1.77,0,0,0,2-2Q177.66,226.38,178.66,213.38Zm-2.5,29.5c0-1.34-.5-2-1.5-2-1.34-.34-2,.16-2,1.5-1,5.32-2,10-3,14a1.82,1.82,0,0,0,1.5,2.5h.5q1,0,1.5-1.5A74.14,74.14,0,0,0,176.16,242.88Zm-8,28c.33-1,0-1.5-1-1.5-1-.68-1.67-.5-2,.5h-.5a32.42,32.42,0,0,1-8,11.5,2,2,0,0,0-.5,1.5,1.45,1.45,0,0,0,.5,1,2.08,2.08,0,0,0,1.5.5,2.12,2.12,0,0,0,1.5-.5,34.83,34.83,0,0,0,8-12,.45.45,0,0,0,.5-.5Zm-15.5-72.5a2,2,0,0,0,1-2.5c-.34-1.33-1.17-1.67-2.5-1a59.2,59.2,0,0,1-13.5,4,2,2,0,0,0-1.5,2v.5c0,.67.5,1,1.5,1h.5A83,83,0,0,0,152.66,198.38Zm-4.5,92.5v-.5c-1-1-1.84-1.34-2.5-1a59.71,59.71,0,0,1-13.5,4,2.34,2.34,0,0,0-2,2.5,2,2,0,0,0,2,1h.5a59.65,59.65,0,0,0,14.5-4A3,3,0,0,0,148.16,290.88Zm-25-86.5a1.77,1.77,0,0,0,2-2,2,2,0,0,0-2-1.5h-1.5a108.54,108.54,0,0,1-13-1c-1.34,0-2,.5-2,1.5,0,1.33.5,2,1.5,2a70,70,0,0,0,12.5,1Zm-3.5,92c0-1-.67-1.5-2-1.5-6,0-10.84-.18-14.5-.5-1-.34-1.67.07-2,1.25s.16,1.91,1.5,2.25c3.33.32,7,.5,11,.5h4A1.77,1.77,0,0,0,119.66,296.38Zm-23.5-97a2.31,2.31,0,0,0-1.5-2.5,70.9,70.9,0,0,1-13.5-5c-1-.67-1.84-.33-2.5,1v.5a2.87,2.87,0,0,0,1,2q7.5,3,14,5h.5A2,2,0,0,0,96.16,199.38Zm-5.5,93.5v-.5q0-1-1.5-1.5a116.84,116.84,0,0,1-13-6c-1.34-.34-2.17,0-2.5,1q-.51,1,0,1.5a1.45,1.45,0,0,0,.5,1,90.88,90.88,0,0,0,14,6h.5C89.32,294.38,90,293.88,90.66,292.88Zm-21.5-105.5a2,2,0,0,0,.5-1.5c-.34-.67-.67-1-1-1a72.18,72.18,0,0,1-11-9,1.88,1.88,0,0,0-3,0l-.5,1a1.59,1.59,0,0,0,1,1.5,68.74,68.74,0,0,0,11.5,9.5,1.44,1.44,0,0,0,1,.5A1.61,1.61,0,0,0,69.16,187.38Zm-5,93a1.49,1.49,0,0,0,.5-1,1.59,1.59,0,0,0-1-1.5q-6.51-5-11-9a1.88,1.88,0,0,0-3,0,1.38,1.38,0,0,0-.5,1,1.61,1.61,0,0,0,1,1.5,83.43,83.43,0,0,0,11.5,9.5h1A2.12,2.12,0,0,0,64.16,280.38Zm-16.5-112.5a2.52,2.52,0,0,0,0-3,93.84,93.84,0,0,1-7-12c-.67-1.33-1.5-1.67-2.5-1a1.59,1.59,0,0,0-1,1.5v1a68.19,68.19,0,0,0,8,13,2,2,0,0,0,1.5.5Zm-6.5,88.5,5.5-3.5-17-10,2.5,19.5,6-4,1.5,2.25a1.68,1.68,0,0,0,1.5.75,1.52,1.52,0,0,0,1-.5c.66-.34,1-.75,1-1.25a4.05,4.05,0,0,0-.5-1.75Q42.15,257.88,41.16,256.38Zm-7-114.5a2,2,0,0,0,1-2.5,88.25,88.25,0,0,1-2.5-14,1.77,1.77,0,0,0-2-2c-1.34.33-2,1-2,2h.5l-.5.5q1,6,3,14.5a2,2,0,0,0,2,1.5Zm-3-103a4.73,4.73,0,0,0,4-5,5,5,0,0,0-1.75-4,6,6,0,0,0-4-1.5,4.73,4.73,0,0,0-3.75,1.75,5.68,5.68,0,0,0-1.5,3.75c0,2.67,1.16,4.33,3.5,5v13c0,1.33.58,2,1.75,2s1.75-.67,1.75-2Zm1,72c0-1-.09-3.17-.25-6.5s-.25-6.17-.25-8.5c0-1-.59-1.5-1.75-1.5s-1.75.5-1.75,1.5v15a1.77,1.77,0,0,0,2,2A1.77,1.77,0,0,0,32.16,110.88Zm-.5-29.5V66.88c0-1.33-.59-2-1.75-2s-1.75.67-1.75,2v14.5a1.77,1.77,0,0,0,2,2C31.16,83.38,31.66,82.71,31.66,81.38Z" transform="translate(-0.66 -0.88)" fill="#fbea23"/><path d="M198.66,9.38a26.32,26.32,0,0,1,8,20.5v37.5q0,34-.5,38h.5l-.5,92.5q-1,40-6.5,64.75t-22,41.25q-22.5,21.48-64,21.5-29,0-56.5-15.5-32.5-18.51-52.5-52.5A23.8,23.8,0,0,1,.91,247.13a29.83,29.83,0,0,1,.75-11.5,30.42,30.42,0,0,1,4.75-10.25,24.56,24.56,0,0,1,8.25-7.25,34.5,34.5,0,0,1,11-3.75,40.66,40.66,0,0,1,11,.5,28.34,28.34,0,0,1,10,5,30.61,30.61,0,0,1,7.5,8.5,89.33,89.33,0,0,0,31.5,31.5q14.49,8,28,8,18.5,0,24-5,7-7,9.5-34.5-33,8-67-4-36.51-12.49-58-43-21-29-21-67v-85a27.35,27.35,0,0,1,8.5-20A27.91,27.91,0,0,1,30.16.88a27.11,27.11,0,0,1,20.25,8.5,27.78,27.78,0,0,1,8.25,20v85q0,19.5,10.5,34,10.5,15,29.5,21.5,19.5,7,37,2a34.09,34.09,0,0,0,13-6.5l.5-136a27.11,27.11,0,0,1,8.5-20.25A28.36,28.36,0,0,1,178.16.88,27.93,27.93,0,0,1,198.66,9.38Zm2.5,188.5.5-168a22.74,22.74,0,0,0-6.75-16.75,23.36,23.36,0,0,0-16.5-7,22,22,0,0,0-16.75,6.75,22.57,22.57,0,0,0-7,16.5l-.5,76v61.5a2.91,2.91,0,0,1-1,2,45.19,45.19,0,0,1-16,8q-19,5.51-40-2-21-7-32.5-23.5-11-15.49-11-37v-85a22.61,22.61,0,0,0-7-16.5,22.39,22.39,0,0,0-16.5-6.5q-10,0-16.5,6.5a22.57,22.57,0,0,0-7,16.5v85q0,36,19.5,64,20.49,29,55.5,41,34.5,12,67.5,3a2.6,2.6,0,0,1,2.5.25,2.65,2.65,0,0,1,1,2.25q-2.5,33-11.5,41.5-7,7-27.5,7-15,0-30.5-9a89.83,89.83,0,0,1-33.5-33.5,24.13,24.13,0,0,0-6.25-6.75,21.91,21.91,0,0,0-8.25-3.75,14.63,14.63,0,0,0-5.5-1,11.15,11.15,0,0,0-3.5.5,22.07,22.07,0,0,0-8.5,2.75,21.07,21.07,0,0,0-6.75,6,25.08,25.08,0,0,0-4,8.25,24.33,24.33,0,0,0-.75,9.25,20.31,20.31,0,0,0,3,8.75q19,32.49,50.5,50.5,26.49,15,54,15,39.5,0,60.5-20.5,15.5-15,20.75-39.25T201.16,197.88Z" transform="translate(-0.66 -0.88)" fill="#1d1d1b"/><path d="M183.16,33.88c-.34,2.67-1.67,4.33-4,5v13c0,1.33-.59,2-1.75,2s-1.75-.67-1.75-2v-13c-2.67-.67-3.84-2.33-3.5-5a5.4,5.4,0,0,1,1.5-4,5.09,5.09,0,0,1,3.75-1.5,6,6,0,0,1,4,1.5A5,5,0,0,1,183.16,33.88Z" transform="translate(-0.66 -0.88)" fill="#5a5a5a"/><path d="M179.16,183.88v15a1.33,1.33,0,0,1-1.5,1.5h-.5a1.44,1.44,0,0,1-1-.5,2,2,0,0,1-.5-1.5v-14.5a1.33,1.33,0,0,1,1.5-1.5h.5A1.33,1.33,0,0,1,179.16,183.88Z" transform="translate(-0.66 -0.88)" fill="#5a5a5a"/><path d="M179.16,154.88v14.5c0,1-.59,1.5-1.75,1.5s-1.75-.5-1.75-1.5v-15c0-1,.66-1.5,2-1.5a1.33,1.33,0,0,1,1.5,1.5Z" transform="translate(-0.66 -0.88)" fill="#5a5a5a"/><path d="M179.16,124.88v15c0,1.33-.59,2-1.75,2s-1.75-.67-1.75-2v-15c0-1,.58-1.5,1.75-1.5S179.16,123.88,179.16,124.88Z" transform="translate(-0.66 -0.88)" fill="#5a5a5a"/><path d="M179.16,102.88v7.5c0,1.33-.59,2-1.75,2s-1.75-.67-1.75-2v-7.5a65.83,65.83,0,0,1-.5-7,1.77,1.77,0,0,1,2-2,2,2,0,0,1,2,1.5v7.5Z" transform="translate(-0.66 -0.88)" fill="#5a5a5a"/><path d="M179.16,75.38v6a2,2,0,0,1-4,0v-12l.5-2.5-.5-.5c0-1,.66-1.5,2-1.5a1.77,1.77,0,0,1,2,2Z" transform="translate(-0.66 -0.88)" fill="#5a5a5a"/><path d="M178.16,211.88a2,2,0,0,1,.5,1.5q-1,13-1,14.5a1.77,1.77,0,0,1-2,2,2,2,0,0,1-1.5-2q.5-9,1-14.5a1.77,1.77,0,0,1,2-2A1.47,1.47,0,0,1,178.16,211.88Z" transform="translate(-0.66 -0.88)" fill="#5a5a5a"/><path d="M174.66,240.88c1,0,1.5.66,1.5,2a74.14,74.14,0,0,1-3,14.5q-.51,1.5-1.5,1.5h-.5a1.82,1.82,0,0,1-1.5-2.5c1-4,2-8.68,3-14C172.66,241,173.32,240.54,174.66,240.88Z" transform="translate(-0.66 -0.88)" fill="#5a5a5a"/><polygon points="173 181 165 199 154 185.5 173 181" fill="#5a5a5a"/><path d="M167.16,269.38c1,0,1.33.5,1,1.5v.5a.45.45,0,0,1-.5.5,34.83,34.83,0,0,1-8,12,2.12,2.12,0,0,1-1.5.5,2.08,2.08,0,0,1-1.5-.5,1.45,1.45,0,0,1-.5-1,2,2,0,0,1,.5-1.5,32.42,32.42,0,0,0,8-11.5h.5C165.49,268.88,166.16,268.7,167.16,269.38Z" transform="translate(-0.66 -0.88)" fill="#5a5a5a"/><path d="M153.66,195.88a2,2,0,0,1-1,2.5,83,83,0,0,1-14.5,4h-.5c-1,0-1.5-.33-1.5-1v-.5a2,2,0,0,1,1.5-2,59.2,59.2,0,0,0,13.5-4C152.49,194.21,153.32,194.55,153.66,195.88Z" transform="translate(-0.66 -0.88)" fill="#5a5a5a"/><path d="M148.16,290.38v.5a3,3,0,0,1-1,2,59.65,59.65,0,0,1-14.5,4h-.5a2,2,0,0,1-2-1,2.34,2.34,0,0,1,2-2.5,59.71,59.71,0,0,0,13.5-4C146.32,289,147.16,289.38,148.16,290.38Z" transform="translate(-0.66 -0.88)" fill="#5a5a5a"/><path d="M125.16,202.38a1.77,1.77,0,0,1-2,2h-2.5a70,70,0,0,1-12.5-1c-1,0-1.5-.67-1.5-2,0-1,.66-1.5,2-1.5a108.54,108.54,0,0,0,13,1h1.5A2,2,0,0,1,125.16,202.38Z" transform="translate(-0.66 -0.88)" fill="#5a5a5a"/><path d="M117.66,294.88c1.33,0,2,.5,2,1.5a1.77,1.77,0,0,1-2,2h-4c-4,0-7.67-.18-11-.5q-2-.51-1.5-2.25c.33-1.18,1-1.59,2-1.25C106.82,294.7,111.66,294.88,117.66,294.88Z" transform="translate(-0.66 -0.88)" fill="#5a5a5a"/><path d="M94.66,196.88a2.31,2.31,0,0,1,1.5,2.5,2,2,0,0,1-2,1h-.5q-6.51-2-14-5a2.87,2.87,0,0,1-1-2v-.5c.66-1.33,1.5-1.67,2.5-1A70.9,70.9,0,0,0,94.66,196.88Z" transform="translate(-0.66 -0.88)" fill="#5a5a5a"/><path d="M90.66,292.38v.5c-.67,1-1.34,1.5-2,1.5h-.5a90.88,90.88,0,0,1-14-6,1.45,1.45,0,0,1-.5-1q-.51-.51,0-1.5c.33-1,1.16-1.34,2.5-1a116.84,116.84,0,0,0,13,6Q90.66,291.36,90.66,292.38Z" transform="translate(-0.66 -0.88)" fill="#5a5a5a"/><path d="M69.66,185.88a2,2,0,0,1-.5,1.5,1.61,1.61,0,0,1-1.5,1,1.44,1.44,0,0,1-1-.5,68.74,68.74,0,0,1-11.5-9.5,1.59,1.59,0,0,1-1-1.5l.5-1a1.88,1.88,0,0,1,3,0,72.18,72.18,0,0,0,11,9C69,184.88,69.32,185.21,69.66,185.88Z" transform="translate(-0.66 -0.88)" fill="#5a5a5a"/><path d="M64.16,280.38a2.12,2.12,0,0,1-1.5.5h-1a83.43,83.43,0,0,1-11.5-9.5,1.61,1.61,0,0,1-1-1.5,1.38,1.38,0,0,1,.5-1,1.88,1.88,0,0,1,3,0q4.5,4,11,9a1.59,1.59,0,0,1,1,1.5A1.49,1.49,0,0,1,64.16,280.38Z" transform="translate(-0.66 -0.88)" fill="#5a5a5a"/><path d="M47.66,164.88a2.52,2.52,0,0,1,0,3h-1a2,2,0,0,1-1.5-.5,68.19,68.19,0,0,1-8-13v-1a1.59,1.59,0,0,1,1-1.5c1-.67,1.83-.33,2.5,1A93.84,93.84,0,0,0,47.66,164.88Z" transform="translate(-0.66 -0.88)" fill="#5a5a5a"/><path d="M46.66,252.88l-5.5,3.5q1,1.5,1.5,1.5a4.05,4.05,0,0,1,.5,1.75c0,.5-.34.91-1,1.25a1.52,1.52,0,0,1-1,.5,1.68,1.68,0,0,1-1.5-.75l-1.5-2.25-6,4-2.5-19.5Z" transform="translate(-0.66 -0.88)" fill="#5a5a5a"/><path d="M35.16,139.38a2,2,0,0,1-1,2.5h-.5a2,2,0,0,1-2-1.5q-2-8.5-3-14.5l.5-.5h-.5c0-1,.66-1.67,2-2a1.77,1.77,0,0,1,2,2A88.25,88.25,0,0,0,35.16,139.38Z" transform="translate(-0.66 -0.88)" fill="#5a5a5a"/><path d="M35.16,33.88a4.73,4.73,0,0,1-4,5v13c0,1.33-.59,2-1.75,2s-1.75-.67-1.75-2v-13c-2.34-.67-3.5-2.33-3.5-5a5.68,5.68,0,0,1,1.5-3.75,4.73,4.73,0,0,1,3.75-1.75,6,6,0,0,1,4,1.5A5,5,0,0,1,35.16,33.88Z" transform="translate(-0.66 -0.88)" fill="#5a5a5a"/><path d="M31.91,104.38c.16,3.33.25,5.5.25,6.5a1.77,1.77,0,0,1-2,2,1.77,1.77,0,0,1-2-2v-15c0-1,.58-1.5,1.75-1.5s1.75.5,1.75,1.5C31.66,98.21,31.74,101.05,31.91,104.38Z" transform="translate(-0.66 -0.88)" fill="#5a5a5a"/><path d="M31.66,66.88v14.5c0,1.33-.5,2-1.5,2a1.77,1.77,0,0,1-2-2V66.88c0-1.33.58-2,1.75-2S31.66,65.55,31.66,66.88Z" transform="translate(-0.66 -0.88)" fill="#5a5a5a"/></svg>