<svg id="Layer_1" data-name="Layer 1" xmlns="http://www.w3.org/2000/svg" viewBox="0 0 223.76 233.5"><path d="M221.9,28.59l-2.5.5a20.59,20.59,0,0,1-1,6.5l-.5,2a21.26,21.26,0,0,1-5,7.5L88.4,177.59a2.45,2.45,0,0,0-.75,3,2.79,2.79,0,0,0,2.75,1.5H195.9a23,23,0,0,1,16.5,6.75,22.07,22.07,0,0,1,7,16.5,22.87,22.87,0,0,1-7,16.75,22.6,22.6,0,0,1-16.5,7H29.9a23.1,23.1,0,0,1-17-7q-6.51-6.5-6.5-16.5a14.83,14.83,0,0,1,1.5-8.5,18.83,18.83,0,0,1,4.5-7.5l125-132.5a2.32,2.32,0,0,0,.25-2.75,2.43,2.43,0,0,0-2.25-1.75H25.9a17.42,17.42,0,0,1-5-1.5,19.32,19.32,0,0,1-7-4.5,15.75,15.75,0,0,1-4.5-6,8,8,0,0,1-2-4.5,21.77,21.77,0,0,1-1-7,10.47,10.47,0,0,1,.5-5.5,15.5,15.5,0,0,1,2-5,30.61,30.61,0,0,1,3.5-5.5,24.71,24.71,0,0,1,7.5-5,22.34,22.34,0,0,1,5.5-2,23.33,23.33,0,0,1,4.5-.5h166a24.06,24.06,0,0,1,8.5,1.5,37.4,37.4,0,0,1,7.5,5,21.12,21.12,0,0,1,5.5,7.5,22.22,22.22,0,0,1,2,9Zm-36,186,17.5-9-17.5-8.5v7h-8.5c-1,0-1.5.67-1.5,2s.5,2,1.5,2h8.5Zm13.5-181q4-4,0-8t-8,.5a5,5,0,0,0-1,6,22.16,22.16,0,0,1-4,4q-2,2.5-4.5,5.5c-1,.67-1,1.5,0,2.5a1.65,1.65,0,0,0,1.25.5,1.68,1.68,0,0,0,1.25-.5q7.5-8,9-9.5A5,5,0,0,0,199.4,33.59Zm-31,4.5,17.5-9-17.5-8.5v7H155.9c-1,0-1.5.59-1.5,1.75s.5,1.75,1.5,1.75h12.5Zm6.5,15.5a2.12,2.12,0,0,0-.5-1.5,2.52,2.52,0,0,0-3,0l-2,2.5q-4,4-8,8.5c-.68.67-.5,1.5.5,2.5a1.65,1.65,0,0,0,1.25.5,1.68,1.68,0,0,0,1.25-.5,66.81,66.81,0,0,1,5-5.5,7.41,7.41,0,0,1,1.5-2,17.64,17.64,0,0,1,2-1.75,5.07,5.07,0,0,0,1.5-1.75A1.48,1.48,0,0,0,174.9,53.59Zm-10,152.5a1.77,1.77,0,0,0-2-2H148.4a2,2,0,0,0,0,4h14.5A1.77,1.77,0,0,0,164.9,206.09Zm-10.5-131a2.12,2.12,0,0,0-.5-1.5c-1-1-1.84-1-2.5,0a14.5,14.5,0,0,1-4.5,4.5,25.87,25.87,0,0,1-3,3.5c-1.34,1.34-2.18,2.17-2.5,2.5a1.88,1.88,0,0,0,0,3,1.38,1.38,0,0,0,1,.5,2,2,0,0,0,1.5-.5c.32-.33,2-2.16,5-5.5a68.85,68.85,0,0,0,5-5.5A1.48,1.48,0,0,0,154.4,75.09Zm-11-45.75c0-1.16-.68-1.75-2-1.75H126.9c-1.34,0-2,.59-2,1.75s.66,1.75,2,1.75h14.5C142.72,31.09,143.4,30.51,143.4,29.34Zm-9,66.75-.5-1c-1-1-1.84-1-2.5,0a32.15,32.15,0,0,0-2.25,2.5c-.84,1-1.68,1.92-2.5,2.75l-2.25,2.25-3,3a2,2,0,0,0-.5,1.5,2,2,0,0,0,.5,1.5h1a2,2,0,0,0,1.5-.5,49.4,49.4,0,0,0,5-5.5l5-5A2.08,2.08,0,0,0,134.4,96.09Zm1,110a1.77,1.77,0,0,0-2-2H118.9a2,2,0,0,0,0,4h14.5A1.77,1.77,0,0,0,135.4,206.09Zm-21.5-87a4,4,0,0,0,.5-1.5c0-.33-.34-.66-1-1-.68-1-1.5-1-2.5,0s-2.59,2.75-4.75,5.25a39.54,39.54,0,0,1-5.25,5.25,2,2,0,0,0-.5,1.5,1.4,1.4,0,0,0,.5,1c.32.67.75,1,1.25,1a2.76,2.76,0,0,0,1.75-1,46.19,46.19,0,0,1,3.25-3.75c.82-.83,2-2,3.5-3.5S113.22,119.76,113.9,119.09Zm0-89.75c0-1.16-.68-1.75-2-1.75H97.4c-1.34,0-2,.59-2,1.75s.66,1.75,2,1.75h14.5C113.22,31.09,113.9,30.51,113.9,29.34Zm-8,176.75c0-1.33-.5-2-1.5-2h-15c-1,0-1.5.67-1.5,2s.5,2,1.5,2h15C105.4,208.09,105.9,207.43,105.9,206.09Zm-12-67a2.12,2.12,0,0,0-.5-1.5,1.49,1.49,0,0,0-1-.5,1.59,1.59,0,0,0-1.5,1q-7.5,7.5-10,10.5a1.81,1.81,0,0,0,0,2.5,1.65,1.65,0,0,0,1.25.5,1.68,1.68,0,0,0,1.25-.5l1.5-1.5q4-4,8.5-9A2.08,2.08,0,0,0,93.9,139.09ZM84.4,29.34c0-1.16-.68-1.75-2-1.75H67.9c-1.34,0-2,.59-2,1.75s.66,1.75,2,1.75H82.4C83.72,31.09,84.4,30.51,84.4,29.34Zm-8,176.75c0-1.33-.5-2-1.5-2h-15a2,2,0,0,0,0,4h15C75.9,208.09,76.4,207.43,76.4,206.09Zm-3-44.5a1.48,1.48,0,0,0,.5-1,3.67,3.67,0,0,1-.5-1.5,1.6,1.6,0,0,0-2.5.5,13.89,13.89,0,0,0-3,2.5,13.92,13.92,0,0,0-2.5,3,21.39,21.39,0,0,0-4.5,5,1.81,1.81,0,0,0,0,2.5,1.65,1.65,0,0,0,1.25.5,1.68,1.68,0,0,0,1.25-.5q3.48-4,10-10.5Zm-36,36,18.5-7-5.5-5a16.43,16.43,0,0,0,2.5-2l.5-.5v-1.25a1.76,1.76,0,0,0-.5-1.25c-1-.66-1.84-.66-2.5,0a15.25,15.25,0,0,0-1.25,1.5,15.69,15.69,0,0,1-1.25,1.5l-5-5ZM54.9,29.34c0-1.16-.5-1.75-1.5-1.75h-13c-1-2.66-2.68-4-5-4a5,5,0,0,0-4,1.75,6,6,0,0,0-1.5,4,5.09,5.09,0,0,0,1.5,3.75,5.39,5.39,0,0,0,4,1.5c2.66,0,4.32-1.16,5-3.5h13C54.4,31.09,54.9,30.51,54.9,29.34ZM47.4,206.09a1.77,1.77,0,0,0-2-2H37.9c-.68-2.66-2.34-4-5-4a5,5,0,0,0-4,1.75,6,6,0,0,0-1.5,4,5.09,5.09,0,0,0,1.5,3.75,5.39,5.39,0,0,0,4,1.5,5.18,5.18,0,0,0,5-3h7.5A1.77,1.77,0,0,0,47.4,206.09Z" transform="translate(-0.9 -0.59)" fill="#fbea23"/><path d="M221.9,28.59h-2.5a22.22,22.22,0,0,0-2-9,21.12,21.12,0,0,0-5.5-7.5,37.4,37.4,0,0,0-7.5-5,24.06,24.06,0,0,0-8.5-1.5H29.9a23.33,23.33,0,0,0-4.5.5,22.34,22.34,0,0,0-5.5,2,24.71,24.71,0,0,0-7.5,5,30.61,30.61,0,0,0-3.5,5.5,15.5,15.5,0,0,0-2,5,10.47,10.47,0,0,0-.5,5.5,21.77,21.77,0,0,0,1,7,8,8,0,0,0,2,4.5,15.75,15.75,0,0,0,4.5,6,19.32,19.32,0,0,0,7,4.5,17.42,17.42,0,0,0,5,1.5H135.4a2.43,2.43,0,0,1,2.25,1.75,2.32,2.32,0,0,1-.25,2.75l-125,132.5a18.83,18.83,0,0,0-4.5,7.5,14.83,14.83,0,0,0-1.5,8.5q0,10,6.5,16.5a23.1,23.1,0,0,0,17,7h166a22.6,22.6,0,0,0,16.5-7,22.87,22.87,0,0,0,7-16.75,22.07,22.07,0,0,0-7-16.5,23,23,0,0,0-16.5-6.75H90.4a2.79,2.79,0,0,1-2.75-1.5,2.45,2.45,0,0,1,.75-3L212.9,45.09a21.26,21.26,0,0,0,5-7.5l.5-2a20.59,20.59,0,0,0,1-6.5Zm2.5-.5a33.78,33.78,0,0,1-1,9v.5a7.9,7.9,0,0,0-.5,2,32.65,32.65,0,0,1-6,9.5L96.4,176.59h99.5a27.15,27.15,0,0,1,20.25,8.5,29.36,29.36,0,0,1,8.5,20.5,26.35,26.35,0,0,1-8.25,20.25,28.39,28.39,0,0,1-20.5,8.25H29.9a28.8,28.8,0,0,1-20.5-8,27.88,27.88,0,0,1-8.5-20.5,30.59,30.59,0,0,1,2-10.5,25.39,25.39,0,0,1,6-9.5L129.4,58.09H29.9a18.11,18.11,0,0,1-4.5-.5,36.43,36.43,0,0,1-6.5-1.5,24.62,24.62,0,0,1-8.5-5.5,22,22,0,0,1-5.5-7,15.1,15.1,0,0,1-2.5-6,24,24,0,0,1-1.5-8.5,24.93,24.93,0,0,1,1-7,20.78,20.78,0,0,1,2-6,43.15,43.15,0,0,1,4.5-6.5,32,32,0,0,1,9.5-6.5,27.71,27.71,0,0,1,7-2,25.54,25.54,0,0,1,5-.5H195.4a33.24,33.24,0,0,1,10.5,1.5,39.08,39.08,0,0,1,9.5,6,23.26,23.26,0,0,1,6.5,9.5A25.51,25.51,0,0,1,224.4,28.09Z" transform="translate(-0.9 -0.59)" fill="#1d1d1b"/><path d="M203.4,205.59l-17.5,9v-6.5h-8.5c-1,0-1.5-.66-1.5-2s.5-2,1.5-2h8.5v-7Z" transform="translate(-0.9 -0.59)" fill="#5a5a5a"/><path d="M199.4,25.59q4,4,0,8a5,5,0,0,1-6,1q-1.5,1.5-9,9.5a1.68,1.68,0,0,1-1.25.5,1.65,1.65,0,0,1-1.25-.5c-1-1-1-1.83,0-2.5q2.49-3,4.5-5.5a22.16,22.16,0,0,0,4-4,5,5,0,0,1,1-6Q195.39,21.59,199.4,25.59Z" transform="translate(-0.9 -0.59)" fill="#5a5a5a"/><path d="M185.9,29.09l-17.5,9v-7H155.9c-1,0-1.5-.58-1.5-1.75s.5-1.75,1.5-1.75h12.5v-7Z" transform="translate(-0.9 -0.59)" fill="#5a5a5a"/><path d="M174.4,52.09a2.12,2.12,0,0,1,.5,1.5,1.48,1.48,0,0,1-.5,1,5.07,5.07,0,0,1-1.5,1.75,17.64,17.64,0,0,0-2,1.75,7.41,7.41,0,0,0-1.5,2,66.81,66.81,0,0,0-5,5.5,1.68,1.68,0,0,1-1.25.5,1.65,1.65,0,0,1-1.25-.5c-1-1-1.18-1.83-.5-2.5q4-4.5,8-8.5l2-2.5A2.52,2.52,0,0,1,174.4,52.09Z" transform="translate(-0.9 -0.59)" fill="#5a5a5a"/><path d="M162.9,204.09a2,2,0,0,1,0,4H148.4a2,2,0,0,1,0-4Z" transform="translate(-0.9 -0.59)" fill="#5a5a5a"/><path d="M143.9,87.09a2,2,0,0,1-1.5.5,1.38,1.38,0,0,1-1-.5,1.88,1.88,0,0,1,0-3c.32-.33,1.16-1.16,2.5-2.5a25.87,25.87,0,0,0,3-3.5,14.5,14.5,0,0,0,4.5-4.5c.66-1,1.5-1,2.5,0a2.12,2.12,0,0,1,.5,1.5,1.48,1.48,0,0,1-.5,1,68.85,68.85,0,0,1-5,5.5C145.9,84.93,144.22,86.76,143.9,87.09Z" transform="translate(-0.9 -0.59)" fill="#5a5a5a"/><path d="M141.4,27.59c1.32,0,2,.59,2,1.75s-.68,1.75-2,1.75H126.9c-1.34,0-2-.58-2-1.75s.66-1.75,2-1.75Z" transform="translate(-0.9 -0.59)" fill="#5a5a5a"/><path d="M133.9,95.09l.5,1a2.08,2.08,0,0,1-.5,1.5l-5,5a49.4,49.4,0,0,1-5,5.5,2,2,0,0,1-1.5.5h-1a2,2,0,0,1-.5-1.5,2,2,0,0,1,.5-1.5l3-3,2.25-2.25c.82-.83,1.66-1.75,2.5-2.75a32.15,32.15,0,0,1,2.25-2.5C132.06,94.09,132.9,94.09,133.9,95.09Z" transform="translate(-0.9 -0.59)" fill="#5a5a5a"/><path d="M133.4,204.09a2,2,0,0,1,0,4H118.9a2,2,0,0,1,0-4Z" transform="translate(-0.9 -0.59)" fill="#5a5a5a"/><path d="M114.4,117.59a4,4,0,0,1-.5,1.5c-.68.67-1.75,1.75-3.25,3.25s-2.68,2.67-3.5,3.5a46.19,46.19,0,0,0-3.25,3.75,2.76,2.76,0,0,1-1.75,1c-.5,0-.93-.33-1.25-1a1.4,1.4,0,0,1-.5-1,2,2,0,0,1,.5-1.5,39.54,39.54,0,0,0,5.25-5.25c2.16-2.5,3.75-4.25,4.75-5.25s1.82-1,2.5,0C114.06,116.93,114.4,117.26,114.4,117.59Z" transform="translate(-0.9 -0.59)" fill="#5a5a5a"/><path d="M111.9,27.59c1.32,0,2,.59,2,1.75s-.68,1.75-2,1.75H97.4c-1.34,0-2-.58-2-1.75s.66-1.75,2-1.75Z" transform="translate(-0.9 -0.59)" fill="#5a5a5a"/><path d="M104.4,204.09c1,0,1.5.67,1.5,2s-.5,2-1.5,2h-15c-1,0-1.5-.66-1.5-2s.5-2,1.5-2Z" transform="translate(-0.9 -0.59)" fill="#5a5a5a"/><path d="M93.4,137.59a2.12,2.12,0,0,1,.5,1.5,2.08,2.08,0,0,1-.5,1.5q-4.5,5-8.5,9l-1.5,1.5a1.68,1.68,0,0,1-1.25.5,1.71,1.71,0,0,1-1.75-1.75,1.68,1.68,0,0,1,.5-1.25q2.49-3,10-10.5a1.59,1.59,0,0,1,1.5-1A1.49,1.49,0,0,1,93.4,137.59Z" transform="translate(-0.9 -0.59)" fill="#5a5a5a"/><path d="M82.4,27.59c1.32,0,2,.59,2,1.75s-.68,1.75-2,1.75H67.9c-1.34,0-2-.58-2-1.75s.66-1.75,2-1.75Z" transform="translate(-0.9 -0.59)" fill="#5a5a5a"/><path d="M74.9,204.09c1,0,1.5.67,1.5,2s-.5,2-1.5,2h-15a2,2,0,0,1,0-4Z" transform="translate(-0.9 -0.59)" fill="#5a5a5a"/><path d="M73.9,160.59a1.48,1.48,0,0,1-.5,1v.5q-6.51,6.51-10,10.5a1.68,1.68,0,0,1-1.25.5,1.71,1.71,0,0,1-1.75-1.75,1.68,1.68,0,0,1,.5-1.25,21.39,21.39,0,0,1,4.5-5,13.92,13.92,0,0,1,2.5-3,13.89,13.89,0,0,1,3-2.5,1.6,1.6,0,0,1,2.5-.5A3.67,3.67,0,0,0,73.9,160.59Z" transform="translate(-0.9 -0.59)" fill="#5a5a5a"/><path d="M55.9,190.59l-18.5,7,5.5-19,5,5a15.69,15.69,0,0,0,1.25-1.5,15.25,15.25,0,0,1,1.25-1.5c.66-.66,1.5-.66,2.5,0a1.76,1.76,0,0,1,.5,1.25v1.25l-.5.5a16.43,16.43,0,0,1-2.5,2Z" transform="translate(-0.9 -0.59)" fill="#5a5a5a"/><path d="M53.4,27.59c1,0,1.5.59,1.5,1.75s-.5,1.75-1.5,1.75h-13c-.68,2.34-2.34,3.5-5,3.5a5.39,5.39,0,0,1-4-1.5,5.09,5.09,0,0,1-1.5-3.75,6,6,0,0,1,1.5-4,5,5,0,0,1,4-1.75c2.32,0,4,1.34,5,4Z" transform="translate(-0.9 -0.59)" fill="#5a5a5a"/><path d="M45.4,204.09a2,2,0,1,1,0,4H37.9a5.18,5.18,0,0,1-5,3,5.39,5.39,0,0,1-4-1.5,5.09,5.09,0,0,1-1.5-3.75,6,6,0,0,1,1.5-4,5,5,0,0,1,4-1.75c2.66,0,4.32,1.34,5,4Z" transform="translate(-0.9 -0.59)" fill="#5a5a5a"/></svg>