<svg id="Layer_1" data-name="Layer 1" xmlns="http://www.w3.org/2000/svg" viewBox="0 0 265.7 364.28"><path d="M243.14,325l-7,2.5v-1a.45.45,0,0,0-.5-.5l-3-9.5c-.34-1-1.09-1.33-2.25-1s-1.59,1-1.25,2q1,2.51,4,11l-7,2,14,14ZM77.13,210.7a6,6,0,0,0-1.5,4,5.09,5.09,0,0,0,1.5,3.75,5.4,5.4,0,0,0,4,1.5,5.15,5.15,0,0,0,5-3.5h5.5c1.33,0,2-.58,2-1.75S93,213,91.63,213h-5.5q-1.5-4-5-4A5,5,0,0,0,77.13,210.7Zm-3.5.75a6.18,6.18,0,0,1,.5-2.25l1-2.5c.33-.83.67-1.58,1-2.25a11.47,11.47,0,0,1,1-4,13.84,13.84,0,0,0,1-3V197a1.4,1.4,0,0,0-1-2c-1-.33-1.83.17-2.5,1.5a15.66,15.66,0,0,0-1,3,36.11,36.11,0,0,1-1.25,4c-.5,1.33-.92,2.5-1.25,3.5l-1,3q-.5,1,0,1.5c.33.67.67,1,1,1h.5A2,2,0,0,0,73.63,211.45Zm186.51,120a38,38,0,0,1,.5,6,17.93,17.93,0,0,1-2,8,25.1,25.1,0,0,1-4.5,6.5,23.79,23.79,0,0,1-4.5,3.5,21.74,21.74,0,0,1-8,3.5h-5a18.78,18.78,0,0,1-6-1,19.72,19.72,0,0,1-13-9.5,34.3,34.3,0,0,1-2.5-5l-35-103.5c-.68-1.33-1.5-2-2.5-2H89.13a2.37,2.37,0,0,0-2.5,2l-35,103.5a24.32,24.32,0,0,1-8.5,11.5q-10,7-21,3A22,22,0,0,1,8.38,346.2,23.89,23.89,0,0,1,7.13,328q.5-1.5,52.25-153.5T111.13,22a23.63,23.63,0,0,1,4.5-8l2.5-2.5.5-.5,3-2a3.93,3.93,0,0,0,1.5-.5,25.06,25.06,0,0,1,8.5-2.5h3a25.7,25.7,0,0,1,9,2.5,12.37,12.37,0,0,1,3,1.5l.5.5c.67.67,1.17,1,1.5,1l.5.5,2,2a23.86,23.86,0,0,1,4,7,1.45,1.45,0,0,1,.5,1l104,306.5A9.83,9.83,0,0,1,260.14,331.45Zm-32-28.5v-.5l-1.5-4q-2-5.51-3.5-10a1.4,1.4,0,0,0-2-1,2.31,2.31,0,0,0-1.5,2.5,58.2,58.2,0,0,0,3,7.5,48.74,48.74,0,0,0,2,6.5,1.57,1.57,0,0,0,1.5,1h.5A2,2,0,0,0,228.14,303Zm-9.5-27.5V275a14.37,14.37,0,0,1-1-3,17.21,17.21,0,0,0-1-3c-1.34-3.67-2.34-6.33-3-8-.34-1.33-1-1.83-2-1.5-.68.33-1,.67-1,1a3.76,3.76,0,0,0-.5,1.5,80.94,80.94,0,0,1,3,8.5,37.59,37.59,0,0,0,2,5.5,1.57,1.57,0,0,0,1.5,1h.5A1.33,1.33,0,0,0,218.64,275.45Zm-9.5-28V247c-.34-1.33-.93-3.17-1.75-5.5s-1.43-4-1.75-5l-1.5-3.5c0-1.33-.68-1.67-2-1a3.83,3.83,0,0,0-1.5.5V234c.66,1.67,1.32,3.17,2,4.5a60.27,60.27,0,0,0,3,9.5,2,2,0,0,0,2,1.5.44.44,0,0,1,.5-.5C208.8,249,209.14,248.45,209.14,247.45Zm-9.5-28V219q-1-3-3-9l-2-5c-.34-1.33-1-1.67-2-1-.34,0-.68.33-1,1a.62.62,0,0,0,0,1,9.54,9.54,0,0,0,.75,3,32.39,32.39,0,0,0,1.25,3c.32,1,.75,2.42,1.25,4.25a23.11,23.11,0,0,0,1.25,3.75,2,2,0,0,0,2,1.5h.5A2,2,0,0,0,199.64,219.45Zm-9.5-28V191a23.11,23.11,0,0,1-1.25-3.75c-.5-1.83-.93-3.25-1.25-4.25a32.39,32.39,0,0,1-1.25-3,9.54,9.54,0,0,1-.75-3,2.28,2.28,0,0,0-2.75-1c-1.18.33-1.43,1.17-.75,2.5.32,1,1,3,2,6a9.9,9.9,0,0,1,.75,2.5,12.43,12.43,0,0,0,.75,2.75c.32.83.66,1.75,1,2.75a2,2,0,0,0,2,1h.5A2,2,0,0,0,190.14,191.45Zm-19,32,17.51-9-17.51-9v7h-6a2,2,0,0,0,0,4h6Zm9.51-59.5v-.5a66.5,66.5,0,0,0-2.5-8,14.37,14.37,0,0,1-1-3,17.21,17.21,0,0,0-1-3c-.68-1.33-1.5-1.83-2.5-1.5a2.6,2.6,0,0,0-1.25,1c-.18.33-.09.83.25,1.5a17.21,17.21,0,0,1,1,3,14.37,14.37,0,0,0,1,3c1.66,4.67,2.5,7.33,2.5,8a2,2,0,0,0,2,1h.5A1.61,1.61,0,0,0,180.64,164Zm-9.51-28v-.5l-2-5.5c-.33-1-.75-2.5-1.25-4.5a23.63,23.63,0,0,0-1.25-4c-.67-1.33-1.5-1.67-2.5-1a1.45,1.45,0,0,0-1,.5v1.5q1.5,5,3,9.5a16.21,16.21,0,0,1,1.5,4.5,2,2,0,0,0,2,1h.5A1.59,1.59,0,0,0,171.13,136Zm-9.25,54a2.6,2.6,0,0,0,.25-2.5L135.63,110a2.56,2.56,0,0,0-5,0l-26,77.5a2.48,2.48,0,0,0,2.5,3.5h52.5A2.62,2.62,0,0,0,161.88,190Zm-.25-82v-.5a8.31,8.31,0,0,0-.5-2.5q-.49-1.5-.75-2.25t-3.25-9.25c-.33-1.33-1.17-1.67-2.5-1a1.4,1.4,0,0,0-1,2,61,61,0,0,0,2,6,61,61,0,0,1,2,6l.5,2c.67,1,1.33,1.5,2,1.5h.5A2.87,2.87,0,0,0,161.63,108Zm-9-28a.44.44,0,0,0-.5-.5l-1-3.5q-3-8.51-3.5-10.5a2,2,0,0,0-2.5-1c-.33,0-.67.33-1,1q-.49.49,0,1.5l4.5,13.5V81l.5,1v-.5a3.93,3.93,0,0,0,1.5.5h.5A2,2,0,0,0,152.63,80Zm-.5,134.75c0-1.17-.5-1.75-1.5-1.75h-15c-1,0-1.5.58-1.5,1.75s.5,1.75,1.5,1.75h15C151.63,216.45,152.13,215.87,152.13,214.7ZM143.13,52l-.5-.5q-.49-2-2-6.5t-2-6.5a4.73,4.73,0,0,0,1.5-6q-1.5-5.51-6.75-3.75T129.63,36a5.48,5.48,0,0,0,5.5,3.5q.5,2,2,6.75a50.54,50.54,0,0,0,2.5,6.75,1.59,1.59,0,0,0,1.5,1h.5A2,2,0,0,0,143.13,52Zm-12,11.5L128.63,44l-14.5,14,7,2a5.4,5.4,0,0,1-1,2q-2.5,8-2.5,9a.63.63,0,0,0,0,1,.88.88,0,0,0,1,1h.5a2.87,2.87,0,0,0,2-1q2.5-8,3-10.5h.5Zm-8,151.25c0-1.17-.67-1.75-2-1.75h-14.5c-1.33,0-2,.58-2,1.75s.67,1.75,2,1.75h14.5C122.46,216.45,123.13,215.87,123.13,214.7ZM116.13,86v-.5a2,2,0,0,0-1-2,1.83,1.83,0,0,0-2.5,1.5,67.46,67.46,0,0,1-3,8.5,19.09,19.09,0,0,1-2,5,2,2,0,0,0,.5,1.5l1,1h.5a2.87,2.87,0,0,0,2-1Q111.63,98.95,116.13,86Zm-9.5,28v-1a1.59,1.59,0,0,0-1-1.5c-1.33-.67-2.17-.33-2.5,1-.33,1-.83,2.42-1.5,4.25a13.58,13.58,0,0,0-1,3.75q-1.5,4.5-2,6c-.67,1.33-.33,2.17,1,2.5h.5a1.33,1.33,0,0,0,1.5-1.5,53.71,53.71,0,0,0,2.5-6.5Q105.14,118,106.63,114Zm-9.5,27.5V141c0-1-.33-1.5-1-1.5-1-.67-1.83-.33-2.5,1q-.5,2-2,6.5a46.52,46.52,0,0,0-2.5,7.5,1.4,1.4,0,0,0,1,2l.5.5a2,2,0,0,0,2-1.5q0-1,2-7A48.9,48.9,0,0,0,97.13,141.45Zm-9.5,28,.5-.5a1.33,1.33,0,0,0-1.5-1.5c-1-.67-1.83-.33-2.5,1a10.71,10.71,0,0,1-.75,2.5,31,31,0,0,0-1,3c-.17.67-.42,1.5-.75,2.5l-1,3-1,3c-.33.33-.33.75,0,1.25s.67.75,1,.75l.5.5a2,2,0,0,0,2-1.5,19.6,19.6,0,0,0,1-2.5c.33-1,.67-2.08,1-3.25a16.49,16.49,0,0,1,1-2.75,6.7,6.7,0,0,1,.25-1.5,10.18,10.18,0,0,1,.75-2A4.48,4.48,0,0,0,87.63,169.45Zm-19,56v-1a1.59,1.59,0,0,0-1-1.5c-1.33-.33-2,0-2,1-.33,1-.83,2.42-1.5,4.25s-1.17,3.25-1.5,4.25a16.49,16.49,0,0,0-1,2.75,16.49,16.49,0,0,1-1,2.75c-.33,1.33,0,2.17,1,2.5h.5a2,2,0,0,0,2-1.5l.5-1Q67.63,228.46,68.63,225.45Zm-9,27.5v-.5q0-1-1.5-1.5c-1-.67-1.67-.33-2,1a36.9,36.9,0,0,1-1.75,5c-.83,2-1.42,3.5-1.75,4.5l-1.5,4.5a2,2,0,0,0,1,2.5h1q1,0,1.5-1.5Q58.13,256.94,59.63,253Zm-9.5,28v-.5a1.33,1.33,0,0,0-1.5-1.5c-1-.67-1.67-.33-2,1l-1,1.5c-.33,1.33-.75,2.75-1.25,4.25s-1,2.92-1.5,4.25a36.11,36.11,0,0,0-1.25,4v1.5a2,2,0,0,0,1.5.5.44.44,0,0,0,.5.5q1,0,1.5-1.5,1.5-5,4-11.5Zm-9.5,28v-.5a2,2,0,0,0-1.5-2c-1-.33-1.67.17-2,1.5a25.1,25.1,0,0,0-1.25,3.5c-.5,1.67-.92,3-1.25,4q-1.5,4-2.5,6a2,2,0,0,0,.5,1.5c0,.67.17,1,.5,1s.5.08.5.25.17.25.5.25q1,0,1.5-1.5Q38.63,315,40.63,309ZM33.38,341.2q1.75-5.25-3.5-7t-7,3.5q-1.75,5.25,3.5,7T33.38,341.2Z" transform="translate(-0.44 -0.45)" fill="#fbea23"/><path d="M265.64,331a48.2,48.2,0,0,1,.5,6.5,29.43,29.43,0,0,1-3,10.5,32.59,32.59,0,0,1-5,8,21.25,21.25,0,0,1-5.5,4,26.48,26.48,0,0,1-9.5,4,36.8,36.8,0,0,1-6,.5h-.5a26.93,26.93,0,0,1-7.5-1,28.39,28.39,0,0,1-8.5-4,34,34,0,0,1-7.5-8,22.75,22.75,0,0,1-3-6.5l-34.5-101.5H91.13L56.63,345a26.25,26.25,0,0,1-10.5,14q-12,9-26,4a29.44,29.44,0,0,1-16.5-14.5,26.63,26.63,0,0,1-1.5-22L89.63,68q15-43.5,17-47.5l-.5-.5a29.63,29.63,0,0,1,5.5-9.5,13.76,13.76,0,0,1,4-3.5v-.5a33,33,0,0,1,3.5-2,5.7,5.7,0,0,1,1.5-1,29.76,29.76,0,0,1,11-3h3.5a29.76,29.76,0,0,1,11,3,13.48,13.48,0,0,1,3.5,2.5h.5a7.68,7.68,0,0,0,2,1.5l.5.5,2.5,2.5a30,30,0,0,1,5,8.5,3.93,3.93,0,0,0,.5,1.5l104,306C265,327.78,265.3,329.28,265.64,331Zm-5,6.5a38,38,0,0,0-.5-6,9.83,9.83,0,0,0-.5-3L155.63,22a1.45,1.45,0,0,0-.5-1,23.86,23.86,0,0,0-4-7l-2-2-.5-.5c-.33,0-.83-.33-1.5-1l-.5-.5a12.37,12.37,0,0,0-3-1.5,25.7,25.7,0,0,0-9-2.5h-3a25.06,25.06,0,0,0-8.5,2.5,3.93,3.93,0,0,1-1.5.5l-3,2-.5.5-2.5,2.5a23.63,23.63,0,0,0-4.5,8q0,.5-51.75,152.5T7.13,328A23.89,23.89,0,0,0,8.38,346.2,22,22,0,0,0,22.13,358q11,4,21-3a24.32,24.32,0,0,0,8.5-11.5l35-103.5a2.37,2.37,0,0,1,2.5-2h88.51c1,0,1.82.67,2.5,2l35,103.5a34.3,34.3,0,0,0,2.5,5,19.72,19.72,0,0,0,13,9.5,18.78,18.78,0,0,0,6,1h5a21.74,21.74,0,0,0,8-3.5,23.79,23.79,0,0,0,4.5-3.5,25.1,25.1,0,0,0,4.5-6.5A17.93,17.93,0,0,0,260.64,337.45Z" transform="translate(-0.44 -0.45)" fill="#1d1d1b"/><path d="M235.64,326a.45.45,0,0,1,.5.5v1l7-2.5-3,19.5-14-14,7-2q-3-8.51-4-11c-.34-1,.07-1.67,1.25-2s1.91,0,2.25,1Z" transform="translate(-0.44 -0.45)" fill="#5a5a5a"/><path d="M228.14,302.45v.5a2,2,0,0,1-1.5,2h-.5a1.57,1.57,0,0,1-1.5-1,48.74,48.74,0,0,1-2-6.5,58.2,58.2,0,0,1-3-7.5,2.31,2.31,0,0,1,1.5-2.5,1.4,1.4,0,0,1,2,1q1.5,4.5,3.5,10Z" transform="translate(-0.44 -0.45)" fill="#5a5a5a"/><path d="M218.64,275v.5a1.33,1.33,0,0,1-1.5,1.5h-.5a1.57,1.57,0,0,1-1.5-1,37.59,37.59,0,0,1-2-5.5,80.94,80.94,0,0,0-3-8.5,3.76,3.76,0,0,1,.5-1.5c0-.33.32-.67,1-1,1-.33,1.66.17,2,1.5.66,1.67,1.66,4.33,3,8a17.21,17.21,0,0,1,1,3A14.37,14.37,0,0,0,218.64,275Z" transform="translate(-0.44 -0.45)" fill="#5a5a5a"/><path d="M209.14,247v.5c0,1-.34,1.5-1,1.5a.44.44,0,0,0-.5.5,2,2,0,0,1-2-1.5,60.27,60.27,0,0,1-3-9.5c-.68-1.33-1.34-2.83-2-4.5v-1.5a3.83,3.83,0,0,1,1.5-.5c1.32-.67,2-.33,2,1l1.5,3.5c.32,1,.91,2.67,1.75,5S208.8,245.62,209.14,247Z" transform="translate(-0.44 -0.45)" fill="#5a5a5a"/><path d="M199.64,219v.5a2,2,0,0,1-1,2h-.5a2,2,0,0,1-2-1.5,23.11,23.11,0,0,1-1.25-3.75c-.5-1.83-.93-3.25-1.25-4.25a32.39,32.39,0,0,1-1.25-3,9.54,9.54,0,0,1-.75-3,.62.62,0,0,1,0-1c.32-.67.66-1,1-1,1-.67,1.66-.33,2,1l2,5Q198.62,216,199.64,219Z" transform="translate(-0.44 -0.45)" fill="#5a5a5a"/><path d="M190.14,191v.5a2,2,0,0,1-1,2h-.5a2,2,0,0,1-2-1c-.34-1-.68-1.92-1-2.75a12.43,12.43,0,0,1-.75-2.75,9.9,9.9,0,0,0-.75-2.5c-1-3-1.68-5-2-6-.68-1.33-.43-2.17.75-2.5a2.28,2.28,0,0,1,2.75,1,9.54,9.54,0,0,0,.75,3,32.39,32.39,0,0,0,1.25,3c.32,1,.75,2.42,1.25,4.25A23.11,23.11,0,0,0,190.14,191Z" transform="translate(-0.44 -0.45)" fill="#5a5a5a"/><path d="M188.64,214.45l-17.51,9v-7h-6a2,2,0,0,1,0-4h6v-7Z" transform="translate(-0.44 -0.45)" fill="#5a5a5a"/><path d="M180.64,163.45v.5a1.61,1.61,0,0,1-1,1.5h-.5a2,2,0,0,1-2-1c0-.67-.84-3.33-2.5-8a14.37,14.37,0,0,1-1-3,17.21,17.21,0,0,0-1-3c-.34-.67-.43-1.17-.25-1.5a2.6,2.6,0,0,1,1.25-1c1-.33,1.82.17,2.5,1.5a17.21,17.21,0,0,1,1,3,14.37,14.37,0,0,0,1,3A66.5,66.5,0,0,1,180.64,163.45Z" transform="translate(-0.44 -0.45)" fill="#5a5a5a"/><path d="M171.13,135.45v.5a1.59,1.59,0,0,1-1,1.5h-.5a2,2,0,0,1-2-1,16.21,16.21,0,0,0-1.5-4.5q-1.5-4.5-3-9.5V121a1.45,1.45,0,0,1,1-.5c1-.67,1.83-.33,2.5,1a23.63,23.63,0,0,1,1.25,4c.5,2,.92,3.5,1.25,4.5Z" transform="translate(-0.44 -0.45)" fill="#5a5a5a"/><path d="M162.13,187.45a2.48,2.48,0,0,1-2.5,3.5h-52.5a2.48,2.48,0,0,1-2.5-3.5l26-77.5a2.56,2.56,0,0,1,5,0Zm-6-1.5-23-67-22.5,67Z" transform="translate(-0.44 -0.45)" fill="#1d1d1b"/><path d="M161.63,107.45v.5a2.87,2.87,0,0,1-1,2h-.5c-.67,0-1.33-.5-2-1.5l-.5-2a61,61,0,0,0-2-6,61,61,0,0,1-2-6,1.4,1.4,0,0,1,1-2c1.33-.67,2.17-.33,2.5,1q3,8.51,3.25,9.25t.75,2.25A8.31,8.31,0,0,1,161.63,107.45Z" transform="translate(-0.44 -0.45)" fill="#5a5a5a"/><path d="M152.13,79.45a.44.44,0,0,1,.5.5,2,2,0,0,1-1.5,2h-.5a3.93,3.93,0,0,1-1.5-.5V82l-.5-1v-.5L144.13,67q-.49-1,0-1.5c.33-.67.67-1,1-1a2,2,0,0,1,2.5,1q.5,2,3.5,10.5Z" transform="translate(-0.44 -0.45)" fill="#5a5a5a"/><path d="M150.63,213c1,0,1.5.58,1.5,1.75s-.5,1.75-1.5,1.75h-15c-1,0-1.5-.58-1.5-1.75s.5-1.75,1.5-1.75Z" transform="translate(-0.44 -0.45)" fill="#5a5a5a"/><path d="M142.63,51.45l.5.5a2,2,0,0,1-1.5,2h-.5a1.59,1.59,0,0,1-1.5-1,50.54,50.54,0,0,1-2.5-6.75q-1.5-4.76-2-6.75a5.48,5.48,0,0,1-5.5-3.5q-1.5-5.51,3.75-7.25t6.75,3.75a4.73,4.73,0,0,1-1.5,6q.5,2,2,6.5T142.63,51.45Z" transform="translate(-0.44 -0.45)" fill="#5a5a5a"/><path d="M128.63,44l2.5,19.5-6.5-2h-.5q-.5,2.5-3,10.5a2.87,2.87,0,0,1-2,1h-.5a.88.88,0,0,1-1-1,.63.63,0,0,1,0-1q0-1,2.5-9a5.4,5.4,0,0,0,1-2l-7-2Z" transform="translate(-0.44 -0.45)" fill="#5a5a5a"/><path d="M121.13,213c1.33,0,2,.58,2,1.75s-.67,1.75-2,1.75h-14.5c-1.33,0-2-.58-2-1.75s.67-1.75,2-1.75Z" transform="translate(-0.44 -0.45)" fill="#5a5a5a"/><path d="M111.63,100a2.87,2.87,0,0,1-2,1h-.5l-1-1a2,2,0,0,1-.5-1.5,19.09,19.09,0,0,0,2-5,67.46,67.46,0,0,0,3-8.5,1.83,1.83,0,0,1,2.5-1.5,2,2,0,0,1,1,2V86Q111.63,99,111.63,100Z" transform="translate(-0.44 -0.45)" fill="#5a5a5a"/><path d="M106.63,113v1q-1.5,4-2.5,7a53.71,53.71,0,0,1-2.5,6.5,1.33,1.33,0,0,1-1.5,1.5h-.5c-1.33-.33-1.67-1.17-1-2.5q.5-1.5,2-6a13.58,13.58,0,0,1,1-3.75c.67-1.83,1.17-3.25,1.5-4.25.33-1.33,1.17-1.67,2.5-1A1.59,1.59,0,0,1,106.63,113Z" transform="translate(-0.44 -0.45)" fill="#5a5a5a"/><path d="M97.13,141v.5a48.9,48.9,0,0,1-2.5,7q-2,6-2,7a2,2,0,0,1-2,1.5l-.5-.5a1.4,1.4,0,0,1-1-2,46.52,46.52,0,0,1,2.5-7.5q1.5-4.5,2-6.5c.67-1.33,1.5-1.67,2.5-1C96.8,139.45,97.13,140,97.13,141Z" transform="translate(-0.44 -0.45)" fill="#5a5a5a"/><path d="M91.63,213c1.33,0,2,.58,2,1.75s-.67,1.75-2,1.75h-5.5a5.15,5.15,0,0,1-5,3.5,5.4,5.4,0,0,1-4-1.5,5.09,5.09,0,0,1-1.5-3.75,6,6,0,0,1,1.5-4,5,5,0,0,1,4-1.75q3.5,0,5,4Z" transform="translate(-0.44 -0.45)" fill="#5a5a5a"/><path d="M88.13,169l-.5.5a4.48,4.48,0,0,1-.5,2,10.18,10.18,0,0,0-.75,2,6.7,6.7,0,0,0-.25,1.5,16.49,16.49,0,0,0-1,2.75c-.33,1.17-.67,2.25-1,3.25a19.6,19.6,0,0,1-1,2.5,2,2,0,0,1-2,1.5l-.5-.5c-.33,0-.67-.25-1-.75s-.33-.92,0-1.25l1-3,1-3c.33-1,.58-1.83.75-2.5a31,31,0,0,1,1-3,10.71,10.71,0,0,0,.75-2.5c.67-1.33,1.5-1.67,2.5-1A1.33,1.33,0,0,1,88.13,169Z" transform="translate(-0.44 -0.45)" fill="#5a5a5a"/><path d="M78.13,197.45a13.84,13.84,0,0,1-1,3,11.47,11.47,0,0,0-1,4c-.33.67-.67,1.42-1,2.25l-1,2.5a6.18,6.18,0,0,0-.5,2.25,2,2,0,0,1-2,1h-.5c-.33,0-.67-.33-1-1q-.5-.49,0-1.5l1-3c.33-1,.75-2.17,1.25-3.5a36.11,36.11,0,0,0,1.25-4,15.66,15.66,0,0,1,1-3c.67-1.33,1.5-1.83,2.5-1.5a1.4,1.4,0,0,1,1,2Z" transform="translate(-0.44 -0.45)" fill="#5a5a5a"/><path d="M67.63,223a1.59,1.59,0,0,1,1,1.5v1q-1,3-4,12.5l-.5,1a2,2,0,0,1-2,1.5h-.5c-1-.33-1.33-1.17-1-2.5a16.49,16.49,0,0,0,1-2.75,16.49,16.49,0,0,1,1-2.75c.33-1,.83-2.42,1.5-4.25S65.3,225,65.63,224C65.63,223,66.3,222.62,67.63,223Z" transform="translate(-0.44 -0.45)" fill="#5a5a5a"/><path d="M59.63,252.45v.5q-1.5,4-5,14-.5,1.5-1.5,1.5h-1a2,2,0,0,1-1-2.5l1.5-4.5c.33-1,.92-2.5,1.75-4.5a36.9,36.9,0,0,0,1.75-5c.33-1.33,1-1.67,2-1Q59.63,251.45,59.63,252.45Z" transform="translate(-0.44 -0.45)" fill="#5a5a5a"/><path d="M50.13,280.45v.5l-1,2.5q-2.51,6.49-4,11.5-.5,1.5-1.5,1.5a.44.44,0,0,1-.5-.5,2,2,0,0,1-1.5-.5V294a36.11,36.11,0,0,1,1.25-4c.5-1.33,1-2.75,1.5-4.25s.92-2.92,1.25-4.25l1-1.5c.33-1.33,1-1.67,2-1A1.33,1.33,0,0,1,50.13,280.45Z" transform="translate(-0.44 -0.45)" fill="#5a5a5a"/><path d="M35.63,323q-.5,1.5-1.5,1.5c-.33,0-.5-.08-.5-.25s-.17-.25-.5-.25-.5-.33-.5-1a2,2,0,0,1-.5-1.5q1-2,2.5-6c.33-1,.75-2.33,1.25-4a25.1,25.1,0,0,1,1.25-3.5c.33-1.33,1-1.83,2-1.5a2,2,0,0,1,1.5,2v.5Q38.63,315,35.63,323Z" transform="translate(-0.44 -0.45)" fill="#5a5a5a"/><path d="M29.88,334.2q5.25,1.76,3.5,7t-7,3.5q-5.25-1.76-3.5-7T29.88,334.2Z" transform="translate(-0.44 -0.45)" fill="#5a5a5a"/></svg>