<svg id="Layer_1" data-name="Layer 1" xmlns="http://www.w3.org/2000/svg" viewBox="0 0 223.62 364.34"><path d="M36.91,30.19q0,5.5,5.5,5a4.73,4.73,0,0,0,5-4h11c1,0,1.5-.66,1.5-2s-.5-2-1.5-2c-6.67.34-10.34.5-11,.5a5.49,5.49,0,0,0-5.5-3.5,4.51,4.51,0,0,0-3.5,1.75A6.33,6.33,0,0,0,36.91,30.19Zm-2,.25a6,6,0,0,0-5.75-5.75,4.76,4.76,0,0,0-3.75,1.75,6,6,0,0,0-1.5,4,5.13,5.13,0,0,0,5.25,5.25,6,6,0,0,0,4-1.5A4.76,4.76,0,0,0,34.91,30.44Zm28.5,141.25a5.64,5.64,0,0,0-3.75,1.5,4.73,4.73,0,0,0-1.75,3.75,6,6,0,0,0,1.5,4,5,5,0,0,0,4,1.75,5.13,5.13,0,0,0,5-3.5,71.25,71.25,0,0,1,9.5.5c1.33,0,2-.5,2-1.5,0-1.33-.5-2-1.5-2h-.5a64.62,64.62,0,0,0-9.5-.5A4.74,4.74,0,0,0,63.41,171.69Zm-1.5-1h15a.89.89,0,0,0,1-1,1.44,1.44,0,0,0,.5-1,1.77,1.77,0,0,0-2-2q-8.5.51-14,.5h-.5l-1,.5a1.61,1.61,0,0,0-1,1.5C59.91,170.19,60.57,170.69,61.91,170.69Zm157,90.5q.5,21-6.5,38a77.48,77.48,0,0,1-19.5,28q-34.5,32.51-112.5,32.5a495.66,495.66,0,0,1-50-3l-3.5-.5h-1.5l-.5-.5h-1.5a25.28,25.28,0,0,1-12-7.5,28.89,28.89,0,0,1-5.5-10.5V26.19a15.51,15.51,0,0,1,2-5.5,17.47,17.47,0,0,1,3-5.5l.5-.5.5-.5a22.74,22.74,0,0,1,16-7.5q60-3,97,4.25t57.5,25.25q25,23,27,63.5a63.64,63.64,0,0,1-4,27.5,63.69,63.69,0,0,1-16.5,25.5,97.63,97.63,0,0,1-19.5,15,2.94,2.94,0,0,0-1.5,2.5,2,2,0,0,0,1.5,2,123.22,123.22,0,0,1,20.5,15.5Q217.41,214.2,218.91,261.19Zm-21.5,7.5a30,30,0,0,0-.5-6.5v-3.5a2,2,0,0,0-2-1.5,1.77,1.77,0,0,0-2,2,14.14,14.14,0,0,0,.5,2.5v12a1.4,1.4,0,0,0,.5,1c.66.67,1.16,1,1.5,1,1,0,1.5-.66,1.5-2A17.64,17.64,0,0,0,197.41,268.69Zm-2.5-24v-.5q-1.5-7.5-3.5-14.5a1.83,1.83,0,0,0-2.5-1.5l-1,1q-.51.51,0,1.5a107.7,107.7,0,0,1,3.5,14,1.33,1.33,0,0,0,1.5,1.5h.5A1.33,1.33,0,0,0,194.91,244.69Zm-.5,44q.5-.49,0-1.5l-1-1a1.82,1.82,0,0,0-2.5,1.5,39.68,39.68,0,0,1-6,12.5v1a2,2,0,0,0,.5,1.5,1.4,1.4,0,0,0,1,.5,2.89,2.89,0,0,0,2-1A45.41,45.41,0,0,0,194.41,288.69Zm-6.5-186.5V98.44a3.45,3.45,0,0,0-.5-2.25v-.5c0-1-.67-1.5-2-1.5-1,0-1.5.67-1.5,2a31.86,31.86,0,0,1,.5,5v1a29.41,29.41,0,0,1-1,8v.5a2,2,0,0,0,1.5,2h.5a1.33,1.33,0,0,0,1.5-1.5A46.82,46.82,0,0,0,187.91,102.19Zm-2.5,114.5v-1a62.67,62.67,0,0,0-9-12c-1-1-1.84-1-2.5,0-1,1-1,1.84,0,2.5a67.06,67.06,0,0,1,8,11l.5.5v.5a2,2,0,0,0,1.5.5l1-.5A2,2,0,0,0,185.41,216.69Zm0-135v-.5a137.52,137.52,0,0,0-5.5-14c-.67-1.33-1.5-1.66-2.5-1-1.34.67-1.67,1.5-1,2.5a57.74,57.74,0,0,1,5,13.5,2,2,0,0,0,2,1h.5A1.33,1.33,0,0,0,185.41,81.69Zm-3.5,43.5c.66-1,.33-1.83-1-2.5-1-.66-1.67-.33-2,1a78.82,78.82,0,0,1-8.5,11.5,1.43,1.43,0,0,0-.5,1,2,2,0,0,0,.5,1.5,1.81,1.81,0,0,0,2.5,0A70.43,70.43,0,0,0,181.91,125.19Zm-3.5,188.5c.66-.66.66-1.5,0-2.5a1.81,1.81,0,0,0-2.5,0,88.72,88.72,0,0,1-11.5,8q-1.5.51-1.5,1.5a1.4,1.4,0,0,0,.5,1,1.59,1.59,0,0,0,1.5,1,1.43,1.43,0,0,0,1-.5A74.79,74.79,0,0,0,178.41,313.69Zm-9.5-32.5q3-7.5,3-18.5-1-28.5-14.5-42-24-23-102-26.5a2.56,2.56,0,0,0-2.5,2.5v112.5a2.35,2.35,0,0,0,2,2.5q14,1,26.5,1,35,0,57.5-7.5,14-5,22-12.5A30,30,0,0,0,168.91,281.19Zm2.5-225.25a1.72,1.72,0,0,0-.5-1.25,56.63,56.63,0,0,0-11.5-9.5c-1.34-.66-2.17-.5-2.5.5a1.59,1.59,0,0,0,.5,2.5,79.87,79.87,0,0,1,11,9,1.81,1.81,0,0,0,2.5,0A1.7,1.7,0,0,0,171.41,55.94Zm-6.5,141.25.5-1a1.62,1.62,0,0,0-1-1.5,72.79,72.79,0,0,0-13.5-6.5c-1.34-.66-2.17-.5-2.5.5-.34,1.34,0,2.17,1,2.5a119.33,119.33,0,0,1,13,6.5h1C164.41,197.69,164.91,197.53,164.91,197.19Zm-3-50c.66-.66.66-1.5,0-2.5a1.6,1.6,0,0,0-2.5-.5,61.79,61.79,0,0,1-12.5,7.5,1.61,1.61,0,0,0-1,1.5,1.4,1.4,0,0,0,.5,1c0,.67.5,1,1.5,1a.44.44,0,0,0,.5-.5A77.4,77.4,0,0,0,161.91,147.19Zm-.5-36.5a20.13,20.13,0,0,0,1.5-8q-1-21.5-12.5-31.5-21-19-95-18.5a2.21,2.21,0,0,0-2.5,2.5v85.5a2.21,2.21,0,0,0,2.5,2.5h2.5q48.5,0,76.5-10.5,14-5.49,21-13A23.61,23.61,0,0,0,161.41,110.69Zm-9,218a2,2,0,0,0,1-2.5c-.34-1-1.17-1.33-2.5-1q-7.5,2.51-14,4a1.61,1.61,0,0,0-1,1.5v.5a1.33,1.33,0,0,0,1.5,1.5v.5l.5-.5Q147.9,330.2,152.41,328.69Zm-5.5-288,.5-.5a2,2,0,0,0-1.5-2,142.28,142.28,0,0,0-14-4.5,1.82,1.82,0,0,0-2.5,1.5,2,2,0,0,0,.5,1.5c0,.34.33.5,1,.5q6.5,2,13.5,4.5c.33,0,.5.09.5.25s.16.25.5.25Q146.4,42.19,146.91,40.69Zm-9,145v-.5a2,2,0,0,0-1-2q-7.5-1.5-14.5-3a2.36,2.36,0,0,0-2.5,2,2,2,0,0,0,1.5,2,95.46,95.46,0,0,1,14.5,3h.5A1.33,1.33,0,0,0,137.91,185.69Zm-3-25.5a1.4,1.4,0,0,0,1-2c-.34-1.33-1-1.83-2-1.5a85.71,85.71,0,0,1-14,4c-1,.67-1.5,1.34-1.5,2v.5a2,2,0,0,0,2,1.5h.5Q127.9,162.7,134.91,160.19Zm-11.5,175.5a1.82,1.82,0,0,0,1.5-2.5c-.34-1.33-1-1.83-2-1.5q-7,1-14.5,1.5a1.77,1.77,0,0,0-2,2c.33,1.34,1,2,2,2Q114.91,336.7,123.41,335.69Zm-4.5-303a2,2,0,0,0-1.5-2q-9-1.5-15-2a2,2,0,0,0-2,1.5,1.76,1.76,0,0,0,2,2q6,1,14,2h.5A2,2,0,0,0,118.91,32.69Zm-9.5,147.5c0-1.33-.5-2-1.5-2q-1,0-15-1.5c-1.34.34-2,1-2,2a2.35,2.35,0,0,0,.5,1.25c.33.5.66.75,1,.75q11.49,1,14.5,1.5h.5C108.41,182.19,109.07,181.53,109.41,180.19Zm-2-13.5a2,2,0,0,0,.5-1.5,2.32,2.32,0,0,0-2.5-1.5,140,140,0,0,1-14,2,1.77,1.77,0,0,0-2,2c.33,1.34,1,2,2,2h.5q3-.49,14.5-2C106.74,167.69,107.07,167.36,107.41,166.69ZM95.91,335.94c0-1.16-.67-1.75-2-1.75H79.41c-1.34,0-2,.59-2,1.75s.5,1.75,1.5,1.75h15C95.24,337.69,95.91,337.11,95.91,335.94ZM89.41,29.69v-1.5a3.93,3.93,0,0,0-1.5-.5q-2.5,0-7.25-.25c-3.17-.16-5.75-.25-7.75-.25-1,0-1.5.67-1.5,2s.5,2,1.5,2q14.49.51,15,.5C88.91,31.69,89.41,31,89.41,29.69Zm-23,305.5c0-1-.67-1.66-2-2-3.34,0-7-.16-11-.5l.5-7-18,7,16.5,10.5.5-7a49,49,0,0,0,6.75.75c2.83.17,4.41.25,4.75.25C65.41,337.19,66.07,336.53,66.41,335.19Zm-12-157,.5-18-18,8.5Zm-25,161,8.5-18h-7v-12c0-1.33-.59-2-1.75-2s-1.75.67-1.75,2v12h-7Zm1.5-44.5v-15c0-1-.59-1.5-1.75-1.5s-1.75.5-1.75,1.5v15c0,1,.58,1.5,1.75,1.5S30.91,295.69,30.91,294.69Zm0-29.5v-14.5c0-1.33-.59-2-1.75-2s-1.75.67-1.75,2v14.5c0,1.34.58,2,1.75,2S30.91,266.53,30.91,265.19Zm0-29.5v-14.5c0-1.33-.59-2-1.75-2s-1.75.67-1.75,2v14.5c0,1.34.58,2,1.75,2S30.91,237,30.91,235.69Zm0-29v-15c0-1.33-.59-2-1.75-2s-1.75.67-1.75,2v15c0,1,.58,1.5,1.75,1.5S30.91,207.69,30.91,206.69Zm0-30v-14.5c0-1.33-.59-2-1.75-2s-1.75.67-1.75,2v14.5c0,1.34.58,2,1.75,2S30.91,178,30.91,176.69Zm0-29v-15c0-1-.59-1.5-1.75-1.5s-1.75.5-1.75,1.5v15c0,1,.58,1.5,1.75,1.5S30.91,148.69,30.91,147.69Zm0-29.5v-14.5c0-1.33-.59-2-1.75-2s-1.75.67-1.75,2v14.5c0,1.34.58,2,1.75,2S30.91,119.53,30.91,118.19Zm0-29.5V74.19c0-1.33-.59-2-1.75-2s-1.75.67-1.75,2v14.5c0,1.34.58,2,1.75,2S30.91,90,30.91,88.69Zm0-29.5V44.69c0-1.33-.59-2-1.75-2s-1.75.67-1.75,2v14.5c0,1.34.58,2,1.75,2S30.91,60.53,30.91,59.19Z" transform="translate(-0.41 -0.35)" fill="#fbea23"/><path d="M196.91,262.19a30,30,0,0,1,.5,6.5,17.64,17.64,0,0,1-.5,5c0,1.34-.5,2-1.5,2-.34,0-.84-.33-1.5-1a1.4,1.4,0,0,1-.5-1v-12a14.14,14.14,0,0,1-.5-2.5,1.77,1.77,0,0,1,2-2,2,2,0,0,1,2,1.5v3.5Z" transform="translate(-0.41 -0.35)" fill="#5a5a5a"/><path d="M194.91,244.19v.5a1.33,1.33,0,0,1-1.5,1.5h-.5a1.33,1.33,0,0,1-1.5-1.5,107.7,107.7,0,0,0-3.5-14q-.51-1,0-1.5l1-1a1.83,1.83,0,0,1,2.5,1.5Q193.41,236.7,194.91,244.19Z" transform="translate(-0.41 -0.35)" fill="#5a5a5a"/><path d="M194.41,287.19q.5,1,0,1.5a45.41,45.41,0,0,1-6,13.5,2.89,2.89,0,0,1-2,1,1.4,1.4,0,0,1-1-.5,2,2,0,0,1-.5-1.5v-1a39.68,39.68,0,0,0,6-12.5,1.82,1.82,0,0,1,2.5-1.5Z" transform="translate(-0.41 -0.35)" fill="#5a5a5a"/><path d="M187.91,100.69v1.5a46.82,46.82,0,0,1-1,9,1.33,1.33,0,0,1-1.5,1.5h-.5a2,2,0,0,1-1.5-2v-.5a29.41,29.41,0,0,0,1-8v-1a31.86,31.86,0,0,0-.5-5c0-1.33.5-2,1.5-2,1.33,0,2,.5,2,1.5v.5a3.45,3.45,0,0,1,.5,2.25Z" transform="translate(-0.41 -0.35)" fill="#5a5a5a"/><path d="M185.41,81.19v.5a1.33,1.33,0,0,1-1.5,1.5h-.5a2,2,0,0,1-2-1,57.74,57.74,0,0,0-5-13.5c-.67-1-.34-1.83,1-2.5,1-.66,1.83-.33,2.5,1A137.52,137.52,0,0,1,185.41,81.19Z" transform="translate(-0.41 -0.35)" fill="#5a5a5a"/><path d="M182.41,217.69l-.5-.5a67.06,67.06,0,0,0-8-11c-1-.66-1-1.5,0-2.5.66-1,1.5-1,2.5,0a62.67,62.67,0,0,1,9,12v1a2,2,0,0,1-.5,1.5l-1,.5a2,2,0,0,1-1.5-.5Z" transform="translate(-0.41 -0.35)" fill="#5a5a5a"/><path d="M180.91,122.69c1.33.67,1.66,1.5,1,2.5a70.43,70.43,0,0,1-9,12.5,1.81,1.81,0,0,1-2.5,0,2,2,0,0,1-.5-1.5,1.43,1.43,0,0,1,.5-1,78.82,78.82,0,0,0,8.5-11.5C179.24,122.36,179.91,122,180.91,122.69Z" transform="translate(-0.41 -0.35)" fill="#5a5a5a"/><path d="M175.91,311.19a1.81,1.81,0,0,1,2.5,0c.66,1,.66,1.84,0,2.5a74.79,74.79,0,0,1-12.5,8.5,1.43,1.43,0,0,1-1,.5,1.59,1.59,0,0,1-1.5-1,1.4,1.4,0,0,1-.5-1q0-1,1.5-1.5A88.72,88.72,0,0,0,175.91,311.19Z" transform="translate(-0.41 -0.35)" fill="#5a5a5a"/><path d="M171.91,262.69q0,11-3,18.5a30,30,0,0,1-8,11.5q-8,7.5-22,12.5-22.5,7.5-57.5,7.5-12.51,0-26.5-1a2.35,2.35,0,0,1-2-2.5V196.69a2.56,2.56,0,0,1,2.5-2.5q78,3.51,102,26.5Q170.91,234.19,171.91,262.69Zm-8,16.5q3-6.49,2.5-16.5-1-26-13-38-22-21.49-95.5-25v107q51,3,79.5-6.5,12.5-4.5,20-11.5A23.13,23.13,0,0,0,163.91,279.19Z" transform="translate(-0.41 -0.35)" fill="#1d1d1b"/><path d="M168.41,57.19a79.87,79.87,0,0,0-11-9,1.59,1.59,0,0,1-.5-2.5c.33-1,1.16-1.16,2.5-.5a56.63,56.63,0,0,1,11.5,9.5,1.81,1.81,0,0,1,0,2.5,1.81,1.81,0,0,1-2.5,0Z" transform="translate(-0.41 -0.35)" fill="#5a5a5a"/><path d="M165.41,196.19l-.5,1c0,.34-.5.5-1.5.5h-1a119.33,119.33,0,0,0-13-6.5c-1-.33-1.34-1.16-1-2.5.33-1,1.16-1.16,2.5-.5a72.79,72.79,0,0,1,13.5,6.5A1.62,1.62,0,0,1,165.41,196.19Z" transform="translate(-0.41 -0.35)" fill="#5a5a5a"/><path d="M161.91,147.19a77.4,77.4,0,0,1-13.5,7.5.44.44,0,0,1-.5.5c-1,0-1.5-.33-1.5-1a1.4,1.4,0,0,1-.5-1,1.61,1.61,0,0,1,1-1.5,61.79,61.79,0,0,0,12.5-7.5,1.6,1.6,0,0,1,2.5.5C162.57,145.69,162.57,146.53,161.91,147.19Z" transform="translate(-0.41 -0.35)" fill="#5a5a5a"/><path d="M162.91,102.69a20.13,20.13,0,0,1-1.5,8,23.61,23.61,0,0,1-6,9q-7,7.5-21,13-28,10.5-76.5,10.5h-2.5a2.21,2.21,0,0,1-2.5-2.5V55.19a2.21,2.21,0,0,1,2.5-2.5q74-.49,95,18.5Q161.9,81.19,162.91,102.69Zm-6,6a10.18,10.18,0,0,0,.5-5.5q-1-19.5-10.5-28-19-17-85.5-17h-3.5v79.5q47.49,0,74.5-10,13-5,19.5-11.5A21.12,21.12,0,0,0,156.91,108.69Z" transform="translate(-0.41 -0.35)" fill="#1d1d1b"/><path d="M153.41,326.19a2,2,0,0,1-1,2.5q-4.5,1.5-14.5,4l-.5.5v-.5a1.33,1.33,0,0,1-1.5-1.5v-.5a1.61,1.61,0,0,1,1-1.5q6.5-1.5,14-4C152.24,324.86,153.07,325.19,153.41,326.19Z" transform="translate(-0.41 -0.35)" fill="#5a5a5a"/><path d="M147.41,40.19l-.5.5q-.51,1.5-1.5,1.5c-.34,0-.5-.08-.5-.25s-.17-.25-.5-.25q-7-2.49-13.5-4.5c-.67,0-1-.16-1-.5a2,2,0,0,1-.5-1.5,1.82,1.82,0,0,1,2.5-1.5,142.28,142.28,0,0,1,14,4.5A2,2,0,0,1,147.41,40.19Z" transform="translate(-0.41 -0.35)" fill="#5a5a5a"/><path d="M137.91,185.19v.5a1.33,1.33,0,0,1-1.5,1.5h-.5a95.46,95.46,0,0,0-14.5-3,2,2,0,0,1-1.5-2,2.36,2.36,0,0,1,2.5-2q7,1.5,14.5,3A2,2,0,0,1,137.91,185.19Z" transform="translate(-0.41 -0.35)" fill="#5a5a5a"/><path d="M135.91,158.19a1.4,1.4,0,0,1-1,2q-7,2.51-14,4.5h-.5a2,2,0,0,1-2-1.5v-.5c0-.66.5-1.33,1.5-2a85.71,85.71,0,0,0,14-4C134.91,156.36,135.57,156.86,135.91,158.19Z" transform="translate(-0.41 -0.35)" fill="#5a5a5a"/><path d="M124.91,333.19a1.82,1.82,0,0,1-1.5,2.5q-8.5,1-15,1.5c-1,0-1.67-.66-2-2a1.77,1.77,0,0,1,2-2q7.5-.49,14.5-1.5C123.91,331.36,124.57,331.86,124.91,333.19Z" transform="translate(-0.41 -0.35)" fill="#5a5a5a"/><path d="M117.41,30.69a2,2,0,0,1,1.5,2,2,2,0,0,1-2,1.5h-.5q-8-1-14-2a1.76,1.76,0,0,1-2-2,2,2,0,0,1,2-1.5Q108.41,29.2,117.41,30.69Z" transform="translate(-0.41 -0.35)" fill="#5a5a5a"/><path d="M107.91,178.19c1,0,1.5.67,1.5,2-.34,1.34-1,2-2,2h-.5q-3-.49-14.5-1.5c-.34,0-.67-.25-1-.75a2.35,2.35,0,0,1-.5-1.25c0-1,.66-1.66,2-2Q106.91,178.19,107.91,178.19Z" transform="translate(-0.41 -0.35)" fill="#5a5a5a"/><path d="M107.91,165.19a2,2,0,0,1-.5,1.5c-.34.67-.67,1-1,1q-11.5,1.5-14.5,2h-.5c-1,0-1.67-.66-2-2a1.77,1.77,0,0,1,2-2,140,140,0,0,0,14-2A2.32,2.32,0,0,1,107.91,165.19Z" transform="translate(-0.41 -0.35)" fill="#5a5a5a"/><path d="M93.91,334.19c1.33,0,2,.59,2,1.75s-.67,1.75-2,1.75h-15c-1,0-1.5-.58-1.5-1.75s.66-1.75,2-1.75h14.5Z" transform="translate(-0.41 -0.35)" fill="#5a5a5a"/><path d="M89.41,28.19v1.5c0,1.34-.5,2-1.5,2q-.51,0-15-.5c-1,0-1.5-.66-1.5-2s.5-2,1.5-2c2,0,4.58.09,7.75.25s5.58.25,7.25.25A3.93,3.93,0,0,1,89.41,28.19Z" transform="translate(-0.41 -0.35)" fill="#5a5a5a"/><path d="M78.41,176.19c1,0,1.5.67,1.5,2,0,1-.67,1.5-2,1.5a71.25,71.25,0,0,0-9.5-.5,5.13,5.13,0,0,1-5,3.5,5,5,0,0,1-4-1.75,6,6,0,0,1-1.5-4,4.73,4.73,0,0,1,1.75-3.75,5.64,5.64,0,0,1,3.75-1.5,4.74,4.74,0,0,1,5,4,64.62,64.62,0,0,1,9.5.5Z" transform="translate(-0.41 -0.35)" fill="#5a5a5a"/><path d="M78.41,168.69a1.44,1.44,0,0,1-.5,1,.89.89,0,0,1-1,1h-15c-1.34,0-2-.5-2-1.5a1.61,1.61,0,0,1,1-1.5l1-.5h.5q5.49,0,14-.5A1.77,1.77,0,0,1,78.41,168.69Z" transform="translate(-0.41 -0.35)" fill="#5a5a5a"/><path d="M64.41,333.19c1.33.34,2,1,2,2-.34,1.34-1,2-2,2-.34,0-1.92-.08-4.75-.25a49,49,0,0,1-6.75-.75l-.5,7-16.5-10.5,18-7-.5,7C57.41,333,61.07,333.19,64.41,333.19Z" transform="translate(-0.41 -0.35)" fill="#5a5a5a"/><path d="M58.41,27.19c1,0,1.5.67,1.5,2s-.5,2-1.5,2h-11a4.73,4.73,0,0,1-5,4q-5.5.51-5.5-5a6.33,6.33,0,0,1,1.5-4.25,4.51,4.51,0,0,1,3.5-1.75,5.49,5.49,0,0,1,5.5,3.5C48.07,27.69,51.74,27.53,58.41,27.19Z" transform="translate(-0.41 -0.35)" fill="#5a5a5a"/><polygon points="54.5 159.84 54 177.84 36.5 168.34 54.5 159.84" fill="#5a5a5a"/><path d="M37.91,321.19l-8.5,18-9-18h7v-12c0-1.33.58-2,1.75-2s1.75.67,1.75,2v12Z" transform="translate(-0.41 -0.35)" fill="#5a5a5a"/><path d="M33.16,26.44a5.54,5.54,0,0,1,1.75,4,4.76,4.76,0,0,1-1.75,3.75,6,6,0,0,1-4,1.5,5.13,5.13,0,0,1-5.25-5.25,6,6,0,0,1,1.5-4,4.76,4.76,0,0,1,3.75-1.75A5.54,5.54,0,0,1,33.16,26.44Z" transform="translate(-0.41 -0.35)" fill="#5a5a5a"/><path d="M30.91,279.69v15c0,1-.59,1.5-1.75,1.5s-1.75-.5-1.75-1.5v-15c0-1,.58-1.5,1.75-1.5S30.91,278.69,30.91,279.69Z" transform="translate(-0.41 -0.35)" fill="#5a5a5a"/><path d="M30.91,250.69v14.5c0,1.34-.59,2-1.75,2s-1.75-.66-1.75-2v-14.5c0-1.33.58-2,1.75-2S30.91,249.36,30.91,250.69Z" transform="translate(-0.41 -0.35)" fill="#5a5a5a"/><path d="M30.91,221.19v14.5c0,1.34-.59,2-1.75,2s-1.75-.66-1.75-2v-14.5c0-1.33.58-2,1.75-2S30.91,219.86,30.91,221.19Z" transform="translate(-0.41 -0.35)" fill="#5a5a5a"/><path d="M30.91,191.69v15c0,1-.59,1.5-1.75,1.5s-1.75-.5-1.75-1.5v-15c0-1.33.58-2,1.75-2S30.91,190.36,30.91,191.69Z" transform="translate(-0.41 -0.35)" fill="#5a5a5a"/><path d="M30.91,162.19v14.5c0,1.34-.59,2-1.75,2s-1.75-.66-1.75-2v-14.5c0-1.33.58-2,1.75-2S30.91,160.86,30.91,162.19Z" transform="translate(-0.41 -0.35)" fill="#5a5a5a"/><path d="M30.91,132.69v15c0,1-.59,1.5-1.75,1.5s-1.75-.5-1.75-1.5v-15c0-1,.58-1.5,1.75-1.5S30.91,131.69,30.91,132.69Z" transform="translate(-0.41 -0.35)" fill="#5a5a5a"/><path d="M30.91,103.69v14.5c0,1.34-.59,2-1.75,2s-1.75-.66-1.75-2v-14.5c0-1.33.58-2,1.75-2S30.91,102.36,30.91,103.69Z" transform="translate(-0.41 -0.35)" fill="#5a5a5a"/><path d="M30.91,74.19v14.5c0,1.34-.59,2-1.75,2s-1.75-.66-1.75-2V74.19c0-1.33.58-2,1.75-2S30.91,72.86,30.91,74.19Z" transform="translate(-0.41 -0.35)" fill="#5a5a5a"/><path d="M30.91,44.69v14.5c0,1.34-.59,2-1.75,2s-1.75-.66-1.75-2V44.69c0-1.33.58-2,1.75-2S30.91,43.36,30.91,44.69Z" transform="translate(-0.41 -0.35)" fill="#5a5a5a"/><path d="M9.41,13.19l-2-2,.5-.5a27.29,27.29,0,0,1,20-9.5q40.5-2,70.75.75t51.75,10.25q21.5,7.5,35.5,20.5,27,24,29,66.5a71,71,0,0,1-4.5,30,78.66,78.66,0,0,1-17.5,27.5,97.84,97.84,0,0,1-17,13.5,93.52,93.52,0,0,1,18,14q28.5,28,30,76.5,1,22.5-6.5,40.5a82.56,82.56,0,0,1-20.5,29.5q-36.51,34-116.5,34-21,0-50.5-3c-2,0-3.17-.16-3.5-.5v.5l-1-.5h-1a3.67,3.67,0,0,1-1.5-.5h-1a31.34,31.34,0,0,1-14.5-9,29.91,29.91,0,0,1-6.5-13.5v-1a15,15,0,0,1-.5-4.5V30.19a25,25,0,0,1,.5-5,27.65,27.65,0,0,1,2-7,26.25,26.25,0,0,1,4-6.5Zm1.5,2a17.47,17.47,0,0,0-3,5.5,15.51,15.51,0,0,0-2,5.5v311.5a28.89,28.89,0,0,0,5.5,10.5,25.28,25.28,0,0,0,12,7.5h1.5l.5.5h1.5l3.5.5a495.66,495.66,0,0,0,50,3q78,0,112.5-32.5a77.48,77.48,0,0,0,19.5-28q7-17,6.5-38-1.5-47-29-73.5a123.22,123.22,0,0,0-20.5-15.5,2,2,0,0,1-1.5-2,2.94,2.94,0,0,1,1.5-2.5,97.63,97.63,0,0,0,19.5-15,63.69,63.69,0,0,0,16.5-25.5,63.64,63.64,0,0,0,4-27.5q-2-40.5-27-63.5-20.5-18-57.5-25.25t-97-4.25a22.74,22.74,0,0,0-16,7.5l-.5.5Z" transform="translate(-0.41 -0.35)" fill="#1d1d1b"/></svg>