<svg id="Layer_1" data-name="Layer 1" xmlns="http://www.w3.org/2000/svg" viewBox="0 0 259.61 363.68"><path d="M59,65.19a91,91,0,0,0-8.5,12.5,1.59,1.59,0,0,0,.5,2.5h1c1,0,1.5-.16,1.5-.5a93.46,93.46,0,0,1,8-12,3.83,3.83,0,0,0,.5-1.5,1.47,1.47,0,0,0-.5-1C60.8,64.53,60,64.53,59,65.19ZM255.22,286.44a22.74,22.74,0,0,1-5.75,17.25q-24.51,29-55.5,43.5-45.51,21.51-91.5,4.5-36.51-13.5-61-48.5-35-50-35-126,0-73.5,30-118,21.49-31.5,55-44.5a119.18,119.18,0,0,1,46.5-9,131.82,131.82,0,0,1,30,3.5q43.5,9.51,73,40.5a28.76,28.76,0,0,1,4.75,7.75,20.74,20.74,0,0,1,1.5,9,27.43,27.43,0,0,1-2,9,21.09,21.09,0,0,1-5.25,7.5,22.85,22.85,0,0,1-7.5,4.75,28.31,28.31,0,0,1-9,1.5,21.46,21.46,0,0,1-16.5-7.5q-19.5-20-49-26.5-27-6-49.5,3-20,8-33,27-22,33-22,92,0,61.5,26.5,99.5,16,22.5,39,31a69.43,69.43,0,0,0,42,2q28.5-8,53-36.5a22.38,22.38,0,0,1,7-5.5,25.47,25.47,0,0,1,8.75-2.5,21.79,21.79,0,0,1,9.25,1,23.72,23.72,0,0,1,8,4.5A21.44,21.44,0,0,1,255.22,286.44Zm-28.75,21.25,5-19-18,7,4.5,4.5c-.67.67-1.67,1.59-3,2.75s-2.17,1.92-2.5,2.25a2,2,0,0,0-.5,1.5v1a2.71,2.71,0,0,0,1.75,1,1.68,1.68,0,0,0,1.25-.5q1.5-1.5,6-5.5Zm-2.75-242q3.75-4-.25-8-2.5-2.49-6-.5a80.92,80.92,0,0,0-10.5-8,1.8,1.8,0,1,0-2,3q5,3.51,10,7.5a5,5,0,0,0,1,6Q220,69.69,223.72,65.69ZM204,315.69a1.47,1.47,0,0,0-.5-1,1.6,1.6,0,0,0-2.5-.5,103.73,103.73,0,0,1-12.5,7.5,1.61,1.61,0,0,0-1,1.5v1a2.85,2.85,0,0,0,2,1h1q7.5-4.5,12.5-8C203.3,317.19,203.63,316.69,204,315.69Zm-9-272v-.5a2.93,2.93,0,0,0-1-2q-7.5-3.49-13.5-6a1.82,1.82,0,0,0-2.5,1.5,1.4,1.4,0,0,0,.5,1c0,.67.16,1,.5,1a107.4,107.4,0,0,1,13.5,6h1A1.61,1.61,0,0,0,195,43.69Zm-18.5,287c1.33-.33,1.75-1.08,1.25-2.25s-1.25-1.41-2.25-.75a85.71,85.71,0,0,1-14,4,1.33,1.33,0,0,0-1.5,1.5v.5a2,2,0,0,0,2,1.5l.5-.5A85.71,85.71,0,0,0,176.47,330.69ZM167,31.19h1l-1.5-.5q-7.5-1.5-15-2.5c-1.34-.33-2,.17-2,1.5a2.3,2.3,0,0,0,1.5,2.5,89.6,89.6,0,0,1,14.5,2.5h.5a1.33,1.33,0,0,0,1.5-1.5v-.5C167.8,32.36,167.63,31.86,167,31.19Zm-19.5,306c1.33-.33,1.83-1,1.5-2,0-1.33-.5-2-1.5-2a103.16,103.16,0,0,1-14.5,0c-1.34,0-2,.5-2,1.5a2,2,0,0,0,1.5,2c4.33.34,7.5.5,9.5.5Zm-9-308a1.33,1.33,0,0,0-1.5-1.5,107.07,107.07,0,0,0-15,1,2,2,0,0,0-1.5.5v1.5a1.33,1.33,0,0,0,1.5,1.5h.5a93,93,0,0,1,14-1h.5A2,2,0,0,0,138.47,29.19ZM120,332.69a2.07,2.07,0,0,0-.5-1.5.89.89,0,0,0-1-1,116.73,116.73,0,0,1-13-4.5c-1.34-.66-2.34-.5-3,.5v1a1.59,1.59,0,0,0,1,1.5,81.53,81.53,0,0,0,14.5,5,.44.44,0,0,0,.5.5Q119.46,334.19,120,332.69Zm-10.5-299.5v-.5c-.34-1-1.17-1.33-2.5-1a75.17,75.17,0,0,0-13.5,5.5c-.67.34-1,.67-1,1q-.51,1,0,1.5a1.59,1.59,0,0,0,1.5,1h1a89,89,0,0,1,13.5-5.5A2,2,0,0,0,109.47,33.19ZM93,321.19a3.83,3.83,0,0,0,.5-1.5c0-.33-.34-.66-1-1a138.53,138.53,0,0,1-11.5-9,1.6,1.6,0,0,0-2.5.5,1.43,1.43,0,0,0-.5,1,2,2,0,0,0,.5,1.5,110.58,110.58,0,0,0,12,9l1,.5A1.61,1.61,0,0,0,93,321.19Zm-9.5-275a1.47,1.47,0,0,0-.5-1c-.67-1-1.34-1.16-2-.5h-.5A75.85,75.85,0,0,0,69,54.19a1.43,1.43,0,0,0-.5,1,2,2,0,0,0,.5,1.5,1.81,1.81,0,0,0,2.5,0q5-4.5,10.5-9h1A2,2,0,0,0,83.47,46.19ZM71,301.19q.5-1,0-1.5a64.6,64.6,0,0,1-9-11q-1-2-3-.5a1.43,1.43,0,0,0-.5,1,3.67,3.67,0,0,0,.5,1.5,95.54,95.54,0,0,0,9,11.5,1.81,1.81,0,0,0,2.5,0C70.8,302.19,71,301.86,71,301.19Zm-16.5-23.5a2.07,2.07,0,0,0-.5-1.5q-3.51-7-6-13c-.67-1.33-1.5-1.66-2.5-1a1.61,1.61,0,0,0-1,1.5v1q3.49,7.5,6.5,13a1.59,1.59,0,0,0,1.5,1h1C54.13,278.36,54.47,278,54.47,277.69ZM47,92.19v-.5c0-1-.34-1.5-1-1.5-1-.66-1.67-.5-2,.5q-2,4.5-5.5,14a2,2,0,0,0,1,2.5H40a2,2,0,0,0,2-1Q44.46,98.2,47,92.19Zm-5.5,159.5a1.4,1.4,0,0,0,1-2q-2.51-8.49-4-14c-.34-1.33-1-1.83-2-1.5a1.33,1.33,0,0,0-1.5,1.5v1q2,7.5,4,14a2,2,0,0,0,2,1Zm-3.5-132a2,2,0,0,0-1.5-2c-1-.33-1.67.17-2,1.5q-2,9-3,14.5a1.4,1.4,0,0,0,.5,1c0,.34.33.67,1,1h.5a1.33,1.33,0,0,0,1.5-1.5Q36.47,126.69,38,119.69Zm-4,103.5c1.33,0,1.83-.66,1.5-2q-1.5-10-2-14.5a2,2,0,0,0-2-1.5c-1,0-1.5.67-1.5,2a115.06,115.06,0,0,0,2,15c0,.67.5,1,1.5,1Zm-.5-74.5v-.5c0-1-.67-1.5-2-1.5-1-.33-1.67.17-2,1.5v.5q-.51,7-1,14c0,1.34.5,2,1.5,2h.5a1.33,1.33,0,0,0,1.5-1.5Q32.46,155.69,33.47,148.69Zm-3,45.5c1.33,0,1.83-.66,1.5-2v-14.5a1.77,1.77,0,0,0-2-2c-1,0-1.67.67-2,2q0,5.51.5,15C28.47,193.69,29.13,194.19,30.47,194.19Z" transform="translate(-0.97 -0.51)" fill="#fbea23"/><path d="M260.47,286.19a27,27,0,0,1-7,21q-25.5,30-57,45a129.72,129.72,0,0,1-54,12,117.2,117.2,0,0,1-41.5-7.5q-38.51-14-64-50Q1,255.2,1,177.19q0-75,31-121,22.5-33,57.5-46.5,37.5-15,80-5.5,45,9.51,75.5,41.5a44.26,44.26,0,0,1,5.75,9.75,24.94,24.94,0,0,1,2,11,31.17,31.17,0,0,1-2.5,11,27.41,27.41,0,0,1-6.5,9.25,28.1,28.1,0,0,1-9.75,6,34.86,34.86,0,0,1-11,2,35.13,35.13,0,0,1-10.75-2.75A29.12,29.12,0,0,1,203,85.69q-18-19-46-25.5-25.5-5.49-46.5,3-18.51,7-30.5,25-21,31.5-21,89,0,59.51,25.5,96,15,21.51,36,29.5a62.3,62.3,0,0,0,39,1.5q27.5-7,50-34.5a39.85,39.85,0,0,1,9-6.75,27,27,0,0,1,10.75-3.25,28.78,28.78,0,0,1,11.25,1.25,27.67,27.67,0,0,1,10,5.75A27.34,27.34,0,0,1,260.47,286.19Zm-11,17.5a22.74,22.74,0,0,0,5.75-17.25A21.44,21.44,0,0,0,247,270.69a23.72,23.72,0,0,0-8-4.5,21.79,21.79,0,0,0-9.25-1,25.47,25.47,0,0,0-8.75,2.5,22.38,22.38,0,0,0-7,5.5q-24.51,28.5-53,36.5a69.43,69.43,0,0,1-42-2q-23-8.49-39-31-26.51-38-26.5-99.5,0-59,22-92,13-19,33-27,22.5-9,49.5-3,29.49,6.51,49,26.5a21.46,21.46,0,0,0,16.5,7.5,28.31,28.31,0,0,0,9-1.5,22.85,22.85,0,0,0,7.5-4.75,21.09,21.09,0,0,0,5.25-7.5,27.43,27.43,0,0,0,2-9,20.74,20.74,0,0,0-1.5-9A28.76,28.76,0,0,0,241,49.69q-29.5-31-73-40.5a131.82,131.82,0,0,0-30-3.5,119.18,119.18,0,0,0-46.5,9q-33.51,13-55,44.5-30,44.51-30,118,0,76,35,126,24.5,35,61,48.5,46,17,91.5-4.5Q225,332.7,249.47,303.69Z" transform="translate(-0.97 -0.51)" fill="#1d1d1b"/><path d="M231.47,288.69l-5,19-5.5-5q-4.5,4-6,5.5a1.68,1.68,0,0,1-1.25.5,2.71,2.71,0,0,1-1.75-1v-1a2,2,0,0,1,.5-1.5c.33-.33,1.16-1.08,2.5-2.25s2.33-2.08,3-2.75l-4.5-4.5Z" transform="translate(-0.97 -0.51)" fill="#5a5a5a"/><path d="M223.47,57.69q4,4,.25,8t-7.75,0a5,5,0,0,1-1-6q-5-4-10-7.5a1.8,1.8,0,1,1,2-3,80.92,80.92,0,0,1,10.5,8Q221,55.2,223.47,57.69Z" transform="translate(-0.97 -0.51)" fill="#5a5a5a"/><path d="M203.47,314.69a1.47,1.47,0,0,1,.5,1c-.34,1-.67,1.5-1,1.5q-5,3.51-12.5,8h-1a2.85,2.85,0,0,1-2-1v-1a1.61,1.61,0,0,1,1-1.5,103.73,103.73,0,0,0,12.5-7.5A1.6,1.6,0,0,1,203.47,314.69Z" transform="translate(-0.97 -0.51)" fill="#5a5a5a"/><path d="M195,43.19v.5a1.61,1.61,0,0,1-1.5,1h-1a107.4,107.4,0,0,0-13.5-6c-.34,0-.5-.33-.5-1a1.4,1.4,0,0,1-.5-1,1.82,1.82,0,0,1,2.5-1.5q6,2.51,13.5,6A2.93,2.93,0,0,1,195,43.19Z" transform="translate(-0.97 -0.51)" fill="#5a5a5a"/><path d="M177.72,328.44c.5,1.17.08,1.92-1.25,2.25a85.71,85.71,0,0,1-14,4l-.5.5a2,2,0,0,1-2-1.5v-.5a1.33,1.33,0,0,1,1.5-1.5,85.71,85.71,0,0,0,14-4Q177,326.7,177.72,328.44Z" transform="translate(-0.97 -0.51)" fill="#5a5a5a"/><path d="M168,31.19h-1c.66.67.83,1.17.5,1.5v.5a1.33,1.33,0,0,1-1.5,1.5h-.5a89.6,89.6,0,0,0-14.5-2.5,2.3,2.3,0,0,1-1.5-2.5c0-1.33.66-1.83,2-1.5q7.5,1,15,2.5Z" transform="translate(-0.97 -0.51)" fill="#5a5a5a"/><path d="M149,335.19c.33,1-.17,1.67-1.5,2H142c-2,0-5.17-.16-9.5-.5a2,2,0,0,1-1.5-2c0-1,.66-1.5,2-1.5a103.16,103.16,0,0,0,14.5,0C148.47,333.19,149,333.86,149,335.19Z" transform="translate(-0.97 -0.51)" fill="#5a5a5a"/><path d="M137,27.69a1.33,1.33,0,0,1,1.5,1.5,2,2,0,0,1-1.5,2h-.5a93,93,0,0,0-14,1H122a1.33,1.33,0,0,1-1.5-1.5v-1.5a2,2,0,0,1,1.5-.5A107.07,107.07,0,0,1,137,27.69Z" transform="translate(-0.97 -0.51)" fill="#5a5a5a"/><path d="M119.47,331.19a2.07,2.07,0,0,1,.5,1.5q-.51,1.5-1.5,1.5a.44.44,0,0,1-.5-.5,81.53,81.53,0,0,1-14.5-5,1.59,1.59,0,0,1-1-1.5v-1c.66-1,1.66-1.16,3-.5a116.73,116.73,0,0,0,13,4.5A.89.89,0,0,1,119.47,331.19Z" transform="translate(-0.97 -0.51)" fill="#5a5a5a"/><path d="M109.47,32.69v.5a2,2,0,0,1-1,2A89,89,0,0,0,95,40.69H94a1.59,1.59,0,0,1-1.5-1q-.51-.49,0-1.5c0-.33.33-.66,1-1a75.17,75.17,0,0,1,13.5-5.5C108.3,31.36,109.13,31.69,109.47,32.69Z" transform="translate(-0.97 -0.51)" fill="#5a5a5a"/><path d="M93,321.19a1.61,1.61,0,0,1-1.5,1l-1-.5a110.58,110.58,0,0,1-12-9,2,2,0,0,1-.5-1.5,1.43,1.43,0,0,1,.5-1,1.6,1.6,0,0,1,2.5-.5,138.53,138.53,0,0,0,11.5,9c.66.34,1,.67,1,1A3.83,3.83,0,0,1,93,321.19Z" transform="translate(-0.97 -0.51)" fill="#5a5a5a"/><path d="M83,45.19a1.47,1.47,0,0,1,.5,1,2,2,0,0,1-.5,1.5H82q-5.5,4.5-10.5,9a1.81,1.81,0,0,1-2.5,0,2,2,0,0,1-.5-1.5,1.43,1.43,0,0,1,.5-1,75.85,75.85,0,0,1,11.5-9.5H81C81.63,44,82.3,44.19,83,45.19Z" transform="translate(-0.97 -0.51)" fill="#5a5a5a"/><path d="M71,299.69q.5.51,0,1.5c0,.67-.17,1-.5,1a1.81,1.81,0,0,1-2.5,0,95.54,95.54,0,0,1-9-11.5,3.67,3.67,0,0,1-.5-1.5,1.43,1.43,0,0,1,.5-1q2-1.5,3,.5A64.6,64.6,0,0,0,71,299.69Z" transform="translate(-0.97 -0.51)" fill="#5a5a5a"/><path d="M59,65.19c1-.66,1.83-.66,2.5,0a1.47,1.47,0,0,1,.5,1,3.83,3.83,0,0,1-.5,1.5,93.46,93.46,0,0,0-8,12c0,.34-.5.5-1.5.5H51a1.59,1.59,0,0,1-.5-2.5A91,91,0,0,1,59,65.19Z" transform="translate(-0.97 -0.51)" fill="#5a5a5a"/><path d="M54,276.19a2.07,2.07,0,0,1,.5,1.5c0,.34-.34.67-1,1h-1a1.59,1.59,0,0,1-1.5-1q-3-5.49-6.5-13v-1a1.61,1.61,0,0,1,1-1.5c1-.66,1.83-.33,2.5,1Q50.46,269.19,54,276.19Z" transform="translate(-0.97 -0.51)" fill="#5a5a5a"/><path d="M47,91.69v.5q-2.51,6-5,14a2,2,0,0,1-2,1h-.5a2,2,0,0,1-1-2.5q3.49-9.5,5.5-14c.33-1,1-1.16,2-.5C46.63,90.19,47,90.69,47,91.69Z" transform="translate(-0.97 -0.51)" fill="#5a5a5a"/><path d="M42.47,249.69a1.4,1.4,0,0,1-1,2H41a2,2,0,0,1-2-1q-2-6.49-4-14v-1a1.33,1.33,0,0,1,1.5-1.5c1-.33,1.66.17,2,1.5Q40,241.2,42.47,249.69Z" transform="translate(-0.97 -0.51)" fill="#5a5a5a"/><path d="M36.47,117.69a2,2,0,0,1,1.5,2q-1.5,7-3,14.5a1.33,1.33,0,0,1-1.5,1.5H33c-.67-.33-1-.66-1-1a1.4,1.4,0,0,1-.5-1q1-5.49,3-14.5C34.8,117.86,35.47,117.36,36.47,117.69Z" transform="translate(-0.97 -0.51)" fill="#5a5a5a"/><path d="M35.47,221.19c.33,1.34-.17,2-1.5,2h-.5c-1,0-1.5-.33-1.5-1a115.06,115.06,0,0,1-2-15c0-1.33.5-2,1.5-2a2,2,0,0,1,2,1.5Q34,211.19,35.47,221.19Z" transform="translate(-0.97 -0.51)" fill="#5a5a5a"/><path d="M33.47,148.19v.5q-1,7-1.5,14.5a1.33,1.33,0,0,1-1.5,1.5H30c-1,0-1.5-.66-1.5-2q.5-7,1-14v-.5c.33-1.33,1-1.83,2-1.5C32.8,146.69,33.47,147.19,33.47,148.19Z" transform="translate(-0.97 -0.51)" fill="#5a5a5a"/><path d="M32,192.19c.33,1.34-.17,2-1.5,2s-2-.5-2-1.5q-.51-9.49-.5-15c.33-1.33,1-2,2-2a1.77,1.77,0,0,1,2,2Z" transform="translate(-0.97 -0.51)" fill="#5a5a5a"/></svg>