<svg id="Layer_1" data-name="Layer 1" xmlns="http://www.w3.org/2000/svg" viewBox="0 0 231.83 364.02"><path d="M227.22,173.44q2,54.51-14,94.5a143.76,143.76,0,0,1-34,50.5q-44,41.51-120,41.5a264.52,264.52,0,0,1-32-2,22.47,22.47,0,0,1-16-8.5,11.16,11.16,0,0,1-2-3,27.1,27.1,0,0,1-2.5-5.5,38.82,38.82,0,0,1-.5-6.5V32.94a25,25,0,0,1,.5-5,15.43,15.43,0,0,1,2.5-6.5v-.5a8,8,0,0,0,1.5-2,22.37,22.37,0,0,1,13.5-9h2q55.5-8.49,96.5,3,28.5,8,49.5,25.25t34,43.75Q224.72,118.95,227.22,173.44Zm-21.5,13.5v-1.5c0-1.33-.59-2-1.75-2s-1.75.67-1.75,2v1.5q0,4-.5,12.5v.5a3.67,3.67,0,0,0,.5,1.5,1.4,1.4,0,0,0,1,.5,1.77,1.77,0,0,0,2-2Q205.72,190.94,205.72,186.94Zm-.5-16.5q-.51-10-1-14.5a1.77,1.77,0,0,0-2-2c-.67,0-1,.17-1,.5a3.76,3.76,0,0,0-.5,1.5q.5,6.51,1,14.5a1.76,1.76,0,0,0,2,2A2,2,0,0,0,205.22,170.44Zm-1,44.5a2.32,2.32,0,0,0-1.5-2.5c-1.34.34-2,1-2,2q-1,6-2.5,14v.5a2,2,0,0,0,1.5,2h.5a1.33,1.33,0,0,0,1.5-1.5A117.85,117.85,0,0,0,204.22,214.94Zm-2-73.5v-.5q-1-6-3-14.5c0-1-.67-1.5-2-1.5-.67.34-1,.67-1,1a2,2,0,0,0-.5,1.5q2,8.51,3,14c.33,1.34,1,2,2,2A2,2,0,0,0,202.22,141.44Zm-3.5,102.5a1,1,0,0,0-.5-1.5c0-.33-.34-.66-1-1a2,2,0,0,0-2,1.5q-2.5,8-4.5,14v.5c0,1,.33,1.5,1,1.5a.44.44,0,0,0,.5.5,2,2,0,0,0,2-1.5A141.42,141.42,0,0,0,198.72,243.94Zm-3-131v-.5a110.76,110.76,0,0,0-5-14c-.67-1.33-1.5-1.83-2.5-1.5a5.8,5.8,0,0,0-1,1.5.62.62,0,0,0,0,1q2.49,6,5,14c0,.67.5,1,1.5,1h1A1.61,1.61,0,0,0,195.72,112.94Zm-7.5,158.5a1.4,1.4,0,0,0-1-2,1.6,1.6,0,0,0-2.5.5,103,103,0,0,1-7.5,12.5v1a1.59,1.59,0,0,0,1,1.5,1.4,1.4,0,0,0,1,.5c.33,0,.83-.33,1.5-1A139.68,139.68,0,0,0,188.22,271.44Zm-4-185.5v-1a139.62,139.62,0,0,0-8-12.5q-1.5-2-3-.5l-.5,1a2,2,0,0,0,.5,1.5,94.74,94.74,0,0,1,7.5,12,2.85,2.85,0,0,0,2,1h.5A1.61,1.61,0,0,0,184.22,85.94Zm-14.5,164.5q12.5-30.49,10.5-75t-16-72.5a82.82,82.82,0,0,0-22-28.5q-13.5-11-32.5-16.5-23-6.49-54.5-4c-1.34,0-2,.84-2,2.5v253.5c0,2,.83,3,2.5,3h3.5q29,0,51.5-7.5,21.5-7.5,36-21.5A96.82,96.82,0,0,0,169.72,250.44Zm1.5,46a1.61,1.61,0,0,0,1-1.5c-.34-.66-.67-1-1-1-.67-1-1.5-1-2.5,0a95,95,0,0,1-10.5,10,2,2,0,0,0-.5,1.5,1.4,1.4,0,0,0,.5,1,1.59,1.59,0,0,0,1.5,1,.44.44,0,0,0,.5-.5h.5A77.71,77.71,0,0,0,171.22,296.44Zm-4.5-234.25a1.72,1.72,0,0,0-.5-1.25,75.4,75.4,0,0,0-11-10c-1-1-1.84-.83-2.5.5-.67,1-.67,1.84,0,2.5a103.49,103.49,0,0,1,11,9.5,2,2,0,0,0,1.5.5,1.43,1.43,0,0,0,1-.5A1.7,1.7,0,0,0,166.72,62.19Zm-17.5,253.75c1-1,1.16-1.83.5-2.5-.67-1.33-1.5-1.5-2.5-.5a138.75,138.75,0,0,1-12.5,7q-1.5.51-1.5,1.5a1.4,1.4,0,0,0,.5,1,1.59,1.59,0,0,0,1.5,1h1v-.5Q142.22,319.94,149.22,315.94Zm-6-270.5a1.44,1.44,0,0,0,.5-1,1.62,1.62,0,0,0-1-1.5,72.2,72.2,0,0,0-13.5-6c-1.34-.66-2.17-.41-2.5.75a2.26,2.26,0,0,0,1,2.75,78.16,78.16,0,0,1,13,6h1A1.61,1.61,0,0,0,143.22,45.44Zm-21,283.5c1.33-.66,1.66-1.5,1-2.5a1.4,1.4,0,0,0-2-1,125.9,125.9,0,0,1-14,4,2,2,0,0,0-1.5,2v.5a2,2,0,0,0,2,1h.5Q114.22,331.44,122.22,328.94Zm-6-294.5a2,2,0,0,0-1.5-2,102.6,102.6,0,0,0-14.5-3c-1.34-.33-2,.17-2,1.5v1.5a3.67,3.67,0,0,0,1.5.5q7.5,1.5,14.5,3A2,2,0,0,0,116.22,34.44Zm-22.5,301.5a1.4,1.4,0,0,0,1-2c0-1.66-.67-2.16-2-1.5l-14.5,1.5a1.33,1.33,0,0,0-1.5,1.5v.5c0,1,.66,1.5,2,1.5h.5Zm-6.5-306a1.77,1.77,0,0,0-2-2H70.72c-1.34,0-2,.59-2,1.75s.66,1.75,2,1.75q5.49,0,14.5.5A1.77,1.77,0,0,0,87.22,29.94ZM65.72,336.19c0-1.16-.67-1.75-2-1.75h-.5c-2,0-5.5-.16-10.5-.5l.5-6.5-18,7,17,10.5.5-7h11C65.05,337.94,65.72,337.36,65.72,336.19ZM56.22,32.44c1,0,1.5-.66,1.5-2-.34-1.33-1-2-2-2q-2.51.51-6.5,1-2-3.5-5.5-3-5.51.51-4.75,6t6.25,4.5q3.49,0,4.5-4c.33,0,1.25-.08,2.75-.25A36.89,36.89,0,0,1,56.22,32.44Zm-26.5,302,8.5-17.5h-7.5a1.44,1.44,0,0,0,.5-1v-15c0-1-.59-1.5-1.75-1.5s-1.75.5-1.75,1.5v15a1.4,1.4,0,0,0,.5,1h-7.5Zm1.5-296.5c2.66-1,4-2.66,4-5a5,5,0,0,0-1.75-4,6,6,0,0,0-4-1.5,5.09,5.09,0,0,0-3.75,1.5,5.42,5.42,0,0,0-1.5,4,5.12,5.12,0,0,0,3.5,5v13c0,1.34.58,2,1.75,2s1.75-.66,1.75-2Zm0,248.5v-14.5c0-1.33-.59-2-1.75-2s-1.75.67-1.75,2v14.5c0,1.34.58,2,1.75,2S31.22,287.78,31.22,286.44Zm0-29.5v-14.5c0-1.33-.59-2-1.75-2s-1.75.67-1.75,2v14.5c0,1.34.58,2,1.75,2S31.22,258.28,31.22,256.94Zm0-29.5v-14.5c0-1.33-.59-2-1.75-2s-1.75.67-1.75,2v14.5c0,1.34.58,2,1.75,2S31.22,228.78,31.22,227.44Zm0-29.5v-14.5c0-1.33-.59-2-1.75-2s-1.75.67-1.75,2v14.5c0,1.34.58,2,1.75,2S31.22,199.28,31.22,197.94Zm0-29.5v-14.5c0-1.33-.59-2-1.75-2s-1.75.67-1.75,2v14.5c0,1.34.58,2,1.75,2S31.22,169.78,31.22,168.44Zm0-29v-15c0-1.33-.59-2-1.75-2s-1.75.67-1.75,2v15c0,1,.58,1.5,1.75,1.5S31.22,140.44,31.22,139.44Zm0-30V94.94c0-1.33-.59-2-1.75-2s-1.75.67-1.75,2v14.5c0,1.34.58,2,1.75,2S31.22,110.78,31.22,109.44Zm0-29v-15c0-1-.59-1.5-1.75-1.5s-1.75.5-1.75,1.5v15c0,1,.58,1.5,1.75,1.5S31.22,81.44,31.22,80.44Z" transform="translate(-0.72 -0.92)" fill="#fbea23"/><path d="M232.22,173.44q2.49,55.5-14,96.5a145.93,145.93,0,0,1-35.5,52q-45.51,43-123.5,43-16,0-32.5-1.5a29.16,29.16,0,0,1-19.5-10.5,7.83,7.83,0,0,1-2-3,29.3,29.3,0,0,1-3.5-7.5,32.65,32.65,0,0,1-1-8V32.94a45.25,45.25,0,0,1,.5-6.5,29.13,29.13,0,0,1,3-7.5l.5-.5a26.74,26.74,0,0,0,1.5-2.5,29.37,29.37,0,0,1,17-11,8.31,8.31,0,0,1,2.5-.5q56-8.49,98,3.5,30,8,51.75,26t35.75,45.5Q230.21,117.95,232.22,173.44Zm-19,94.5q16-40,14-94.5-2.5-54.49-21-91.5-13-26.49-34-43.75t-49.5-25.25q-41-11.49-96.5-3h-2a22.37,22.37,0,0,0-13.5,9,8,8,0,0,1-1.5,2v.5a15.43,15.43,0,0,0-2.5,6.5,25,25,0,0,0-.5,5v301.5a38.82,38.82,0,0,0,.5,6.5,27.1,27.1,0,0,0,2.5,5.5,11.16,11.16,0,0,0,2,3,22.47,22.47,0,0,0,16,8.5,264.52,264.52,0,0,0,32,2q76,0,120-41.5A143.76,143.76,0,0,0,213.22,267.94Z" transform="translate(-0.72 -0.92)" fill="#1d1d1b"/><path d="M205.72,185.44v1.5q0,4-.5,13a1.77,1.77,0,0,1-2,2,1.4,1.4,0,0,1-1-.5,3.67,3.67,0,0,1-.5-1.5v-.5q.5-8.49.5-12.5v-1.5c0-1.33.58-2,1.75-2S205.72,184.11,205.72,185.44Z" transform="translate(-0.72 -0.92)" fill="#5a5a5a"/><path d="M204.22,155.94q.5,4.5,1,14.5a2,2,0,0,1-1.5,2,1.76,1.76,0,0,1-2-2q-.51-8-1-14.5a3.76,3.76,0,0,1,.5-1.5c0-.33.33-.5,1-.5A1.77,1.77,0,0,1,204.22,155.94Z" transform="translate(-0.72 -0.92)" fill="#5a5a5a"/><path d="M202.72,212.44a2.32,2.32,0,0,1,1.5,2.5,117.85,117.85,0,0,1-2.5,14.5,1.33,1.33,0,0,1-1.5,1.5h-.5a2,2,0,0,1-1.5-2v-.5q1.5-8,2.5-14C200.72,213.44,201.38,212.78,202.72,212.44Z" transform="translate(-0.72 -0.92)" fill="#5a5a5a"/><path d="M202.22,140.94v.5a2,2,0,0,1-1.5,2c-1,0-1.67-.66-2-2q-1-5.49-3-14a2,2,0,0,1,.5-1.5c0-.33.33-.66,1-1,1.33,0,2,.5,2,1.5Q201.22,134.95,202.22,140.94Z" transform="translate(-0.72 -0.92)" fill="#5a5a5a"/><path d="M198.22,242.44a1,1,0,0,1,.5,1.5,141.42,141.42,0,0,1-4.5,14,2,2,0,0,1-2,1.5.44.44,0,0,1-.5-.5c-.67,0-1-.5-1-1.5v-.5q2-6,4.5-14a2,2,0,0,1,2-1.5C197.88,241.78,198.22,242.11,198.22,242.44Z" transform="translate(-0.72 -0.92)" fill="#5a5a5a"/><path d="M195.72,112.44v.5a1.61,1.61,0,0,1-1,1.5h-1c-1,0-1.5-.33-1.5-1q-2.5-8-5-14a.62.62,0,0,1,0-1,5.8,5.8,0,0,1,1-1.5c1-.33,1.83.17,2.5,1.5A110.76,110.76,0,0,1,195.72,112.44Z" transform="translate(-0.72 -0.92)" fill="#5a5a5a"/><path d="M187.22,269.44a1.4,1.4,0,0,1,1,2,139.68,139.68,0,0,1-7.5,13c-.67.67-1.17,1-1.5,1a1.4,1.4,0,0,1-1-.5,1.59,1.59,0,0,1-1-1.5v-1a103,103,0,0,0,7.5-12.5A1.6,1.6,0,0,1,187.22,269.44Z" transform="translate(-0.72 -0.92)" fill="#5a5a5a"/><path d="M184.22,84.94v1a1.61,1.61,0,0,1-1,1.5h-.5a2.85,2.85,0,0,1-2-1,94.74,94.74,0,0,0-7.5-12,2,2,0,0,1-.5-1.5l.5-1q1.5-1.5,3,.5A139.62,139.62,0,0,1,184.22,84.94Z" transform="translate(-0.72 -0.92)" fill="#5a5a5a"/><path d="M180.22,175.44q2,44.51-10.5,75a96.82,96.82,0,0,1-23,33.5q-14.5,14-36,21.5-22.5,7.5-51.5,7.5h-3.5c-1.67,0-2.5-1-2.5-3V56.44c0-1.66.66-2.5,2-2.5q31.5-2.49,54.5,4,19,5.51,32.5,16.5a82.82,82.82,0,0,1,22,28.5Q178.22,130.95,180.22,175.44Zm-15.5,73q12-29.49,10.25-72.75t-15.75-70.25a80.63,80.63,0,0,0-20.5-27q-12.51-10.5-30.5-15-21.51-6.49-50-4.5v248.5h1q28.5,0,50-7a95.62,95.62,0,0,0,34-20A86,86,0,0,0,164.72,248.44Z" transform="translate(-0.72 -0.92)" fill="#1d1d1b"/><path d="M168.72,293.94c1-1,1.83-1,2.5,0,.33,0,.66.34,1,1a1.61,1.61,0,0,1-1,1.5,77.71,77.71,0,0,1-10.5,10.5h-.5a.44.44,0,0,1-.5.5,1.59,1.59,0,0,1-1.5-1,1.4,1.4,0,0,1-.5-1,2,2,0,0,1,.5-1.5A95,95,0,0,0,168.72,293.94Z" transform="translate(-0.72 -0.92)" fill="#5a5a5a"/><path d="M163.72,63.44a103.49,103.49,0,0,0-11-9.5c-.67-.66-.67-1.5,0-2.5.66-1.33,1.5-1.5,2.5-.5a75.4,75.4,0,0,1,11,10,1.81,1.81,0,0,1,0,2.5,1.43,1.43,0,0,1-1,.5A2,2,0,0,1,163.72,63.44Z" transform="translate(-0.72 -0.92)" fill="#5a5a5a"/><path d="M149.72,313.44c.66.67.5,1.5-.5,2.5q-7,4-13,7v.5h-1a1.59,1.59,0,0,1-1.5-1,1.4,1.4,0,0,1-.5-1q0-1,1.5-1.5a138.75,138.75,0,0,0,12.5-7C148.22,311.94,149.05,312.11,149.72,313.44Z" transform="translate(-0.72 -0.92)" fill="#5a5a5a"/><path d="M143.72,44.44a1.44,1.44,0,0,1-.5,1,1.61,1.61,0,0,1-1.5,1h-1a78.16,78.16,0,0,0-13-6,2.26,2.26,0,0,1-1-2.75c.33-1.16,1.16-1.41,2.5-.75a72.2,72.2,0,0,1,13.5,6A1.62,1.62,0,0,1,143.72,44.44Z" transform="translate(-0.72 -0.92)" fill="#5a5a5a"/><path d="M123.22,326.44c.66,1,.33,1.84-1,2.5q-8,2.51-14,4h-.5a2,2,0,0,1-2-1v-.5a2,2,0,0,1,1.5-2,125.9,125.9,0,0,0,14-4A1.4,1.4,0,0,1,123.22,326.44Z" transform="translate(-0.72 -0.92)" fill="#5a5a5a"/><path d="M114.72,32.44a2,2,0,0,1,1.5,2,2,2,0,0,1-2,1.5q-7-1.5-14.5-3a3.67,3.67,0,0,1-1.5-.5v-1.5c0-1.33.66-1.83,2-1.5A102.6,102.6,0,0,1,114.72,32.44Z" transform="translate(-0.72 -0.92)" fill="#5a5a5a"/><path d="M94.72,333.94a1.4,1.4,0,0,1-1,2l-14.5,1.5h-.5c-1.34,0-2-.5-2-1.5v-.5a1.33,1.33,0,0,1,1.5-1.5l14.5-1.5C94.05,331.78,94.72,332.28,94.72,333.94Z" transform="translate(-0.72 -0.92)" fill="#5a5a5a"/><path d="M85.22,27.94a1.77,1.77,0,0,1,2,2,1.77,1.77,0,0,1-2,2q-9-.5-14.5-.5c-1.34,0-2-.58-2-1.75s.66-1.75,2-1.75Z" transform="translate(-0.72 -0.92)" fill="#5a5a5a"/><path d="M63.72,334.44c1.33,0,2,.59,2,1.75s-.67,1.75-2,1.75h-11l-.5,7-17-10.5,18-7-.5,6.5c5,.34,8.5.5,10.5.5Z" transform="translate(-0.72 -0.92)" fill="#5a5a5a"/><path d="M57.72,30.44c0,1.34-.5,2-1.5,2a36.89,36.89,0,0,0-3.75.25c-1.5.17-2.42.25-2.75.25q-1,4-4.5,4-5.51,1-6.25-4.5t4.75-6q3.49-.5,5.5,3,4-.5,6.5-1C56.72,28.44,57.38,29.11,57.72,30.44Z" transform="translate(-0.72 -0.92)" fill="#5a5a5a"/><path d="M35.22,32.94c0,2.34-1.34,4-4,5v13c0,1.34-.59,2-1.75,2s-1.75-.66-1.75-2v-13a5.12,5.12,0,0,1-3.5-5,5.42,5.42,0,0,1,1.5-4,5.09,5.09,0,0,1,3.75-1.5,6,6,0,0,1,4,1.5A5,5,0,0,1,35.22,32.94Z" transform="translate(-0.72 -0.92)" fill="#5a5a5a"/><path d="M31.22,271.94v14.5c0,1.34-.59,2-1.75,2s-1.75-.66-1.75-2v-14.5c0-1.33.58-2,1.75-2S31.22,270.61,31.22,271.94Z" transform="translate(-0.72 -0.92)" fill="#5a5a5a"/><path d="M31.22,242.44v14.5c0,1.34-.59,2-1.75,2s-1.75-.66-1.75-2v-14.5c0-1.33.58-2,1.75-2S31.22,241.11,31.22,242.44Z" transform="translate(-0.72 -0.92)" fill="#5a5a5a"/><path d="M31.22,212.94v14.5c0,1.34-.59,2-1.75,2s-1.75-.66-1.75-2v-14.5c0-1.33.58-2,1.75-2S31.22,211.61,31.22,212.94Z" transform="translate(-0.72 -0.92)" fill="#5a5a5a"/><path d="M31.22,183.44v14.5c0,1.34-.59,2-1.75,2s-1.75-.66-1.75-2v-14.5c0-1.33.58-2,1.75-2S31.22,182.11,31.22,183.44Z" transform="translate(-0.72 -0.92)" fill="#5a5a5a"/><path d="M31.22,153.94v14.5c0,1.34-.59,2-1.75,2s-1.75-.66-1.75-2v-14.5c0-1.33.58-2,1.75-2S31.22,152.61,31.22,153.94Z" transform="translate(-0.72 -0.92)" fill="#5a5a5a"/><path d="M31.22,124.44v15c0,1-.59,1.5-1.75,1.5s-1.75-.5-1.75-1.5v-15c0-1.33.58-2,1.75-2S31.22,123.11,31.22,124.44Z" transform="translate(-0.72 -0.92)" fill="#5a5a5a"/><path d="M31.22,94.94v14.5c0,1.34-.59,2-1.75,2s-1.75-.66-1.75-2V94.94c0-1.33.58-2,1.75-2S31.22,93.61,31.22,94.94Z" transform="translate(-0.72 -0.92)" fill="#5a5a5a"/><path d="M31.22,65.44v15c0,1-.59,1.5-1.75,1.5s-1.75-.5-1.75-1.5v-15c0-1,.58-1.5,1.75-1.5S31.22,64.44,31.22,65.44Z" transform="translate(-0.72 -0.92)" fill="#5a5a5a"/><path d="M31.22,315.94a1.44,1.44,0,0,1-.5,1h7.5l-8.5,17.5-9-17.5h7.5a1.4,1.4,0,0,1-.5-1v-15c0-1,.58-1.5,1.75-1.5s1.75.5,1.75,1.5Z" transform="translate(-0.72 -0.92)" fill="#5a5a5a"/></svg>