<svg id="Layer_1" data-name="Layer 1" xmlns="http://www.w3.org/2000/svg" viewBox="0 0 230.64 364"><path d="M51.61,29.32a4.76,4.76,0,0,0-1.75-3.75,6,6,0,0,0-4-1.5,5.13,5.13,0,0,0-5.25,5.25,6,6,0,0,0,1.5,4,4.73,4.73,0,0,0,3.75,1.75,6,6,0,0,0,5.75-5.75Zm4.5-1.75c-1.34,0-2,.59-2,1.75s.66,1.75,2,1.75h14.5c1.32,0,2-.58,2-1.75s-.68-1.75-2-1.75Zm169-4.5a24.38,24.38,0,0,1,0,12,29.41,29.41,0,0,1-1.5,5,21.15,21.15,0,0,1-4,5.5,20.77,20.77,0,0,1-7.5,5.5,26.34,26.34,0,0,1-5.5,1.5,16.23,16.23,0,0,1-4,.5h-147c-2,0-3,.84-3,2.5v97a2.65,2.65,0,0,0,3,3h150.5a30.25,30.25,0,0,1,5,1.5,19.49,19.49,0,0,1,7,4.5,17.28,17.28,0,0,1,4.5,5.5,37,37,0,0,1,2.5,5,24.37,24.37,0,0,1,0,12,18.18,18.18,0,0,1-1.5,5,21.15,21.15,0,0,1-4,5.5,20.77,20.77,0,0,1-7.5,5.5,15.59,15.59,0,0,1-5.5,2h-151a2.65,2.65,0,0,0-3,3v104.5a2.65,2.65,0,0,0,3,3h150.5a30.25,30.25,0,0,1,5,1.5,19.49,19.49,0,0,1,7,4.5,15.9,15.9,0,0,1,4.5,6,20.38,20.38,0,0,1,2.5,4.5,24.37,24.37,0,0,1,0,12,18.18,18.18,0,0,1-1.5,5,21.15,21.15,0,0,1-4,5.5,20.77,20.77,0,0,1-7.5,5.5,15.59,15.59,0,0,1-5.5,2,16.23,16.23,0,0,1-4,.5h-173a18.74,18.74,0,0,1-7.5-1.5,23.81,23.81,0,0,1-9-5,25.23,25.23,0,0,1-6-9.5,26.66,26.66,0,0,1-1-7.5V29.57a26.76,26.76,0,0,1,1-7.5,32.23,32.23,0,0,1,4-7.5l1.5-1.5a21.15,21.15,0,0,1,5.5-4,21.86,21.86,0,0,1,11.5-3h173a14.91,14.91,0,0,1,3.5.5,9.7,9.7,0,0,1,5,1.5,24.22,24.22,0,0,1,7,4,15.9,15.9,0,0,1,4.5,6A37,37,0,0,1,225.11,23.07Zm-32,321.5,17.5-8.5-17.5-9v7c-1.34,0-2,.59-2,1.75s.66,1.75,2,1.75Zm-8.5-306,18-9-18-9v7h-11c-1.34,0-2,.59-2,1.75s.66,1.75,2,1.75h11Zm0,149,18-8.5-18-9v7h-5c-1.34,0-2,.59-2,1.75s.66,1.75,2,1.75h5Zm-4.5,148.25c0-1.16-.68-1.75-2-1.75h-14.5c-1.34,0-2,.59-2,1.75s.66,1.75,2,1.75h14.5C179.43,337.57,180.11,337,180.11,335.82Zm-13-157c0-1.16-.68-1.75-2-1.75h-15c-1,0-1.5.59-1.5,1.75s.5,1.75,1.5,1.75h15C166.43,180.57,167.11,180,167.11,178.82Zm-6.5-149.5c0-1.16-.5-1.75-1.5-1.75h-15c-1,0-1.5.59-1.5,1.75s.5,1.75,1.5,1.75h15C160.11,31.07,160.61,30.49,160.61,29.32Zm-10,306.5c0-1.16-.68-1.75-2-1.75h-14.5c-1.34,0-2,.59-2,1.75s.66,1.75,2,1.75h14.5C149.93,337.57,150.61,337,150.61,335.82Zm-13.5-157c0-1.16-.5-1.75-1.5-1.75h-15c-1,0-1.5.59-1.5,1.75s.5,1.75,1.5,1.75h15C136.61,180.57,137.11,180,137.11,178.82Zm-6-149.5c0-1.16-.5-1.75-1.5-1.75h-15c-1.34,0-2,.59-2,1.75s.66,1.75,2,1.75,3,.09,5,.25,3.82.25,5.5.25a18.34,18.34,0,0,0,4.5-.5C130.61,31.07,131.11,30.49,131.11,29.32Zm-10,306.5c0-1.16-.68-1.75-2-1.75h-14.5c-1.34,0-2,.59-2,1.75s.66,1.75,2,1.75h14.5C120.43,337.57,121.11,337,121.11,335.82Zm-13-157c0-1.16-.68-1.75-2-1.75H91.61c-1.34,0-2,.59-2,1.75s.66,1.75,2,1.75h14.5C107.43,180.57,108.11,180,108.11,178.82Zm-6-149.5c0-1.16-.68-1.75-2-1.75h-15c-1,0-1.5.59-1.5,1.75s.5,1.75,1.5,1.75h15C101.43,31.07,102.11,30.49,102.11,29.32Zm-10.5,306.5c0-1.16-.5-1.75-1.5-1.75h-15c-1,0-1.5.59-1.5,1.75s.5,1.75,1.5,1.75h15C91.11,337.57,91.61,337,91.61,335.82Zm-13-157c0-1.16-.68-1.75-2-1.75H62.11c-1.34,0-2,.59-2,1.75s.66,1.75,2,1.75h14.5C77.93,180.57,78.61,180,78.61,178.82Zm-16,157c0-1.16-.68-1.75-2-1.75h-13c-.68-2.33-2.34-3.5-5-3.5a5.39,5.39,0,0,0-4,1.5,5.09,5.09,0,0,0-1.5,3.75,6,6,0,0,0,1.5,4,5,5,0,0,0,4,1.75c2.66,0,4.32-1.33,5-4h13C61.93,337.57,62.61,337,62.61,335.82Zm-13.5-157c0-1.16-.68-1.75-2-1.75h-1.5a5.49,5.49,0,0,0-5.5-3.5,5.64,5.64,0,0,0-3.75,1.5,4.7,4.7,0,0,0-1.75,3.75,5.44,5.44,0,0,0,1.75,4,5.22,5.22,0,0,0,3.75,1.75,5.5,5.5,0,0,0,5.5-4h1.5C48.43,180.57,49.11,180,49.11,178.82ZM29.61,340.07l8.5-17.5h-7v-13.5c0-1.33-.59-2-1.75-2s-1.75.67-1.75,2v13.5h-7Zm5.5-310.25a6,6,0,0,0-5.75-5.75,4.76,4.76,0,0,0-3.75,1.75,6,6,0,0,0-1.5,4,5.13,5.13,0,0,0,5.25,5.25,6,6,0,0,0,4-1.5A4.76,4.76,0,0,0,35.11,29.82Zm-4,264.75v-15c0-1-.59-1.5-1.75-1.5s-1.75.5-1.75,1.5v15c0,1,.66,1.5,2,1.5A1.33,1.33,0,0,0,31.11,294.57Zm0-29.5v-15c0-1-.59-1.5-1.75-1.5s-1.75.5-1.75,1.5v15a1.76,1.76,0,0,0,2,2C30.61,267.07,31.11,266.41,31.11,265.07Zm0-29.5v-15c0-1-.59-1.5-1.75-1.5s-1.75.5-1.75,1.5v15a1.76,1.76,0,0,0,2,2C30.61,237.57,31.11,236.91,31.11,235.57Zm0-29.5v-14.5c0-1.33-.59-2-1.75-2s-1.75.5-1.75,1.5v15a1.76,1.76,0,0,0,2,2C30.61,208.07,31.11,207.41,31.11,206.07Zm0-29.5v-14.5c0-1.33-.59-2-1.75-2s-1.75.5-1.75,1.5v15a1.76,1.76,0,0,0,2,2C30.61,178.57,31.11,177.91,31.11,176.57Zm0-29.5v-14.5c0-1.33-.59-2-1.75-2s-1.75.5-1.75,1.5v15a1.76,1.76,0,0,0,2,2C30.61,149.07,31.11,148.41,31.11,147.07Zm0-29.5v-14.5c0-1.33-.59-2-1.75-2s-1.75.5-1.75,1.5v15a1.76,1.76,0,0,0,2,2C30.61,119.57,31.11,118.91,31.11,117.57Zm0-29.5V73.57c0-1.33-.59-2-1.75-2s-1.75.67-1.75,2v14.5a1.76,1.76,0,0,0,2,2C30.61,90.07,31.11,89.41,31.11,88.07Zm0-29v-15c0-1.33-.59-2-1.75-2s-1.75.67-1.75,2v15c0,1,.66,1.5,2,1.5A1.33,1.33,0,0,0,31.11,59.07Z" transform="translate(-0.61 -0.57)" fill="#fbea23"/><path d="M230.11,21.57a30.55,30.55,0,0,1,.5,14.5,38.49,38.49,0,0,1-2.5,6.5,20.69,20.69,0,0,1-4.5,6.5,34.65,34.65,0,0,1-9,6.5,58.8,58.8,0,0,1-7,2.5H58.11v92h144.5a16.73,16.73,0,0,1,4,.5,38.7,38.7,0,0,1,6.5,1.5,31.69,31.69,0,0,1,9,5.5,40.16,40.16,0,0,1,5.5,7,47.72,47.72,0,0,1,2.5,6,32.82,32.82,0,0,1,.5,15,47.72,47.72,0,0,1-2.5,6,27.36,27.36,0,0,1-4.5,7,34.65,34.65,0,0,1-9,6.5,27.77,27.77,0,0,1-7,2,25.09,25.09,0,0,1-5,.5H58.11v99.5h144.5a16.73,16.73,0,0,1,4,.5,38.7,38.7,0,0,1,6.5,1.5,31.69,31.69,0,0,1,9,5.5,40.16,40.16,0,0,1,5.5,7,38.82,38.82,0,0,1,2.5,6.5,30.55,30.55,0,0,1,.5,14.5,47.72,47.72,0,0,1-2.5,6,27.36,27.36,0,0,1-4.5,7,34.65,34.65,0,0,1-9,6.5,27.65,27.65,0,0,1-7.5,2,18.34,18.34,0,0,1-4.5.5h-173a25.43,25.43,0,0,1-9-1.5,26.06,26.06,0,0,1-11-6.5,27.51,27.51,0,0,1-7.5-11.5,28.31,28.31,0,0,1-1.5-9V29.57a29.86,29.86,0,0,1,1.5-9.5,24.74,24.74,0,0,1,5-8.5,15.4,15.4,0,0,1,2-2.5,20.69,20.69,0,0,1,6.5-4.5,26.26,26.26,0,0,1,14-4h173a16.73,16.73,0,0,1,4,.5,21.4,21.4,0,0,1,6.5,2,31.69,31.69,0,0,1,9,5.5,40.16,40.16,0,0,1,5.5,7A25.66,25.66,0,0,1,230.11,21.57Zm-5,13.5a24.38,24.38,0,0,0,0-12,37,37,0,0,0-2.5-5,15.9,15.9,0,0,0-4.5-6,24.22,24.22,0,0,0-7-4,9.7,9.7,0,0,0-5-1.5,14.91,14.91,0,0,0-3.5-.5h-173a21.86,21.86,0,0,0-11.5,3,21.15,21.15,0,0,0-5.5,4l-1.5,1.5a32.23,32.23,0,0,0-4,7.5,26.76,26.76,0,0,0-1,7.5v306.5a26.66,26.66,0,0,0,1,7.5,25.23,25.23,0,0,0,6,9.5,23.81,23.81,0,0,0,9,5,18.74,18.74,0,0,0,7.5,1.5h173a16.23,16.23,0,0,0,4-.5,15.59,15.59,0,0,0,5.5-2,20.77,20.77,0,0,0,7.5-5.5,21.15,21.15,0,0,0,4-5.5,18.18,18.18,0,0,0,1.5-5,24.37,24.37,0,0,0,0-12,20.38,20.38,0,0,0-2.5-4.5,15.9,15.9,0,0,0-4.5-6,19.49,19.49,0,0,0-7-4.5,30.25,30.25,0,0,0-5-1.5H55.61a2.65,2.65,0,0,1-3-3V205.07a2.65,2.65,0,0,1,3-3h151a15.59,15.59,0,0,0,5.5-2,20.77,20.77,0,0,0,7.5-5.5,21.15,21.15,0,0,0,4-5.5,18.18,18.18,0,0,0,1.5-5,24.37,24.37,0,0,0,0-12,37,37,0,0,0-2.5-5,17.28,17.28,0,0,0-4.5-5.5,19.49,19.49,0,0,0-7-4.5,30.25,30.25,0,0,0-5-1.5H55.61a2.65,2.65,0,0,1-3-3v-97c0-1.66,1-2.5,3-2.5h147a16.23,16.23,0,0,0,4-.5,26.34,26.34,0,0,0,5.5-1.5,20.77,20.77,0,0,0,7.5-5.5,21.15,21.15,0,0,0,4-5.5A29.41,29.41,0,0,0,225.11,35.07Z" transform="translate(-0.61 -0.57)" fill="#1d1d1b"/><path d="M210.61,336.07l-17.5,8.5v-7c-1.34,0-2-.58-2-1.75s.66-1.75,2-1.75v-7Z" transform="translate(-0.61 -0.57)" fill="#5a5a5a"/><path d="M202.61,29.57l-18,9v-7.5h-11c-1.34,0-2-.58-2-1.75s.66-1.75,2-1.75h11v-7Z" transform="translate(-0.61 -0.57)" fill="#5a5a5a"/><path d="M202.61,179.07l-18,8.5v-7h-5c-1.34,0-2-.58-2-1.75s.66-1.75,2-1.75h5v-7Z" transform="translate(-0.61 -0.57)" fill="#5a5a5a"/><path d="M178.11,334.07c1.32,0,2,.59,2,1.75s-.68,1.75-2,1.75h-14.5c-1.34,0-2-.58-2-1.75s.66-1.75,2-1.75Z" transform="translate(-0.61 -0.57)" fill="#5a5a5a"/><path d="M165.11,177.07c1.32,0,2,.59,2,1.75s-.68,1.75-2,1.75h-15c-1,0-1.5-.58-1.5-1.75s.5-1.75,1.5-1.75Z" transform="translate(-0.61 -0.57)" fill="#5a5a5a"/><path d="M159.11,27.57c1,0,1.5.59,1.5,1.75s-.5,1.75-1.5,1.75h-15c-1,0-1.5-.58-1.5-1.75s.5-1.75,1.5-1.75Z" transform="translate(-0.61 -0.57)" fill="#5a5a5a"/><path d="M148.61,334.07c1.32,0,2,.59,2,1.75s-.68,1.75-2,1.75h-14.5c-1.34,0-2-.58-2-1.75s.66-1.75,2-1.75Z" transform="translate(-0.61 -0.57)" fill="#5a5a5a"/><path d="M135.61,177.07c1,0,1.5.59,1.5,1.75s-.5,1.75-1.5,1.75h-15c-1,0-1.5-.58-1.5-1.75s.5-1.75,1.5-1.75Z" transform="translate(-0.61 -0.57)" fill="#5a5a5a"/><path d="M129.61,27.57c1,0,1.5.59,1.5,1.75s-.5,1.75-1.5,1.75a18.34,18.34,0,0,1-4.5.5c-1.68,0-3.5-.08-5.5-.25s-3.68-.25-5-.25-2-.58-2-1.75.66-1.75,2-1.75Z" transform="translate(-0.61 -0.57)" fill="#5a5a5a"/><path d="M119.11,334.07c1.32,0,2,.59,2,1.75s-.68,1.75-2,1.75h-14.5c-1.34,0-2-.58-2-1.75s.66-1.75,2-1.75Z" transform="translate(-0.61 -0.57)" fill="#5a5a5a"/><path d="M106.11,177.07c1.32,0,2,.59,2,1.75s-.68,1.75-2,1.75H91.61c-1.34,0-2-.58-2-1.75s.66-1.75,2-1.75Z" transform="translate(-0.61 -0.57)" fill="#5a5a5a"/><path d="M100.11,27.57c1.32,0,2,.59,2,1.75s-.68,1.75-2,1.75h-15c-1,0-1.5-.58-1.5-1.75s.5-1.75,1.5-1.75Z" transform="translate(-0.61 -0.57)" fill="#5a5a5a"/><path d="M90.11,334.07c1,0,1.5.59,1.5,1.75s-.5,1.75-1.5,1.75h-15c-1,0-1.5-.58-1.5-1.75s.5-1.75,1.5-1.75Z" transform="translate(-0.61 -0.57)" fill="#5a5a5a"/><path d="M76.61,177.07c1.32,0,2,.59,2,1.75s-.68,1.75-2,1.75H62.11c-1.34,0-2-.58-2-1.75s.66-1.75,2-1.75Z" transform="translate(-0.61 -0.57)" fill="#5a5a5a"/><path d="M70.61,27.57c1.32,0,2,.59,2,1.75s-.68,1.75-2,1.75H56.11c-1.34,0-2-.58-2-1.75s.66-1.75,2-1.75Z" transform="translate(-0.61 -0.57)" fill="#5a5a5a"/><path d="M60.61,334.07c1.32,0,2,.59,2,1.75s-.68,1.75-2,1.75h-13c-.68,2.67-2.34,4-5,4a5,5,0,0,1-4-1.75,6,6,0,0,1-1.5-4,5.09,5.09,0,0,1,1.5-3.75,5.39,5.39,0,0,1,4-1.5c2.66,0,4.32,1.17,5,3.5Z" transform="translate(-0.61 -0.57)" fill="#5a5a5a"/><path d="M49.86,25.57a4.76,4.76,0,0,1,1.75,3.75,6,6,0,0,1-5.75,5.75,4.73,4.73,0,0,1-3.75-1.75,6,6,0,0,1-1.5-4,5.13,5.13,0,0,1,5.25-5.25A6,6,0,0,1,49.86,25.57Z" transform="translate(-0.61 -0.57)" fill="#5a5a5a"/><path d="M47.11,177.07c1.32,0,2,.59,2,1.75s-.68,1.75-2,1.75h-1.5a5.5,5.5,0,0,1-5.5,4,5.22,5.22,0,0,1-3.75-1.75,5.44,5.44,0,0,1-1.75-4,4.7,4.7,0,0,1,1.75-3.75,5.64,5.64,0,0,1,3.75-1.5,5.49,5.49,0,0,1,5.5,3.5Z" transform="translate(-0.61 -0.57)" fill="#5a5a5a"/><path d="M38.11,322.57l-8.5,17.5-9-17.5h7v-13.5c0-1.33.57-2,1.75-2s1.75.67,1.75,2v13.5Z" transform="translate(-0.61 -0.57)" fill="#5a5a5a"/><path d="M33.36,25.82a5.54,5.54,0,0,1,1.75,4,4.76,4.76,0,0,1-1.75,3.75,6,6,0,0,1-4,1.5,5.13,5.13,0,0,1-5.25-5.25,6,6,0,0,1,1.5-4,4.76,4.76,0,0,1,3.75-1.75A5.55,5.55,0,0,1,33.36,25.82Z" transform="translate(-0.61 -0.57)" fill="#5a5a5a"/><path d="M31.11,279.57v15a1.33,1.33,0,0,1-1.5,1.5c-1.34,0-2-.5-2-1.5v-15c0-1,.57-1.5,1.75-1.5S31.11,278.57,31.11,279.57Z" transform="translate(-0.61 -0.57)" fill="#5a5a5a"/><path d="M31.11,250.07v15c0,1.34-.5,2-1.5,2a1.76,1.76,0,0,1-2-2v-15c0-1,.57-1.5,1.75-1.5S31.11,249.07,31.11,250.07Z" transform="translate(-0.61 -0.57)" fill="#5a5a5a"/><path d="M31.11,220.57v15c0,1.34-.5,2-1.5,2a1.76,1.76,0,0,1-2-2v-15c0-1,.57-1.5,1.75-1.5S31.11,219.57,31.11,220.57Z" transform="translate(-0.61 -0.57)" fill="#5a5a5a"/><path d="M31.11,191.57v14.5c0,1.34-.5,2-1.5,2a1.76,1.76,0,0,1-2-2v-15c0-1,.57-1.5,1.75-1.5S31.11,190.24,31.11,191.57Z" transform="translate(-0.61 -0.57)" fill="#5a5a5a"/><path d="M31.11,162.07v14.5c0,1.34-.5,2-1.5,2a1.76,1.76,0,0,1-2-2v-15c0-1,.57-1.5,1.75-1.5S31.11,160.74,31.11,162.07Z" transform="translate(-0.61 -0.57)" fill="#5a5a5a"/><path d="M31.11,132.57v14.5c0,1.34-.5,2-1.5,2a1.76,1.76,0,0,1-2-2v-15c0-1,.57-1.5,1.75-1.5S31.11,131.24,31.11,132.57Z" transform="translate(-0.61 -0.57)" fill="#5a5a5a"/><path d="M31.11,103.07v14.5c0,1.34-.5,2-1.5,2a1.76,1.76,0,0,1-2-2v-15c0-1,.57-1.5,1.75-1.5S31.11,101.74,31.11,103.07Z" transform="translate(-0.61 -0.57)" fill="#5a5a5a"/><path d="M31.11,73.57v14.5c0,1.34-.5,2-1.5,2a1.76,1.76,0,0,1-2-2V73.57c0-1.33.57-2,1.75-2S31.11,72.24,31.11,73.57Z" transform="translate(-0.61 -0.57)" fill="#5a5a5a"/><path d="M31.11,44.07v15a1.33,1.33,0,0,1-1.5,1.5c-1.34,0-2-.5-2-1.5v-15c0-1.33.57-2,1.75-2S31.11,42.74,31.11,44.07Z" transform="translate(-0.61 -0.57)" fill="#5a5a5a"/></svg>