<svg id="Layer_1" data-name="Layer 1" xmlns="http://www.w3.org/2000/svg" viewBox="0 0 230.64 364"><path d="M225.1,24.14a24.37,24.37,0,0,1,0,12,27.71,27.71,0,0,1-1.5,5,20.92,20.92,0,0,1-4,5.5,20.77,20.77,0,0,1-7.5,5.5,26.17,26.17,0,0,1-5.5,1.5,16.12,16.12,0,0,1-4,.5H55.6c-2,0-3,.84-3,2.5v97a2.65,2.65,0,0,0,3,3H206.1a29.69,29.69,0,0,1,5,1.5,19.41,19.41,0,0,1,7,4.5,17.28,17.28,0,0,1,4.5,5.5,35.87,35.87,0,0,1,2.5,5,24.38,24.38,0,0,1,0,12,17.52,17.52,0,0,1-1.5,5,26.14,26.14,0,0,1-11.5,11,15.51,15.51,0,0,1-5.5,2H55.6a2.65,2.65,0,0,0-3,3v131a23.44,23.44,0,0,1-6.5,16.5,23.74,23.74,0,0,1-16.75,6.5,23.74,23.74,0,0,1-16.75-6.5,23.44,23.44,0,0,1-6.5-16.5V30.64a22.7,22.7,0,0,1,4.5-14,16.55,16.55,0,0,1,2-2.5,21.31,21.31,0,0,1,5.5-4,21.91,21.91,0,0,1,11.5-3h173a14.84,14.84,0,0,1,3.5.5,9.65,9.65,0,0,1,5,1.5,24.09,24.09,0,0,1,7,4,15.9,15.9,0,0,1,4.5,6A35.87,35.87,0,0,1,225.1,24.14Zm-32.5,14.5,17.5-9-17.5-8.5v7H181.1c-1.33,0-2,.59-2,1.75s.67,1.75,2,1.75h11.5Zm-8,149,18-8.5-18-9v7h-5c-1,0-1.5.59-1.5,1.75s.5,1.75,1.5,1.75h5Zm-16.5-158a1.33,1.33,0,0,0-1.5-1.5h-15c-1,0-1.5.59-1.5,1.75s.5,1.75,1.5,1.75h15A2,2,0,0,0,168.1,29.64Zm-1.5,149.25c0-1.16-.5-1.75-1.5-1.75h-15c-1,0-1.5.59-1.5,1.75s.5,1.75,1.5,1.75h15C166.1,180.64,166.6,180.06,166.6,178.89ZM139.1,29.64c0-1-.67-1.5-2-1.5H122.6c-1.33,0-2,.59-2,1.75s.67,1.75,2,1.75h14.5C138.43,31.31,139.1,30.64,139.1,29.64Zm-1.5,149.25c0-1.16-.67-1.75-2-1.75H121.1c-1.33,0-2,.59-2,1.75s.67,1.75,2,1.75h14.5C136.93,180.64,137.6,180.06,137.6,178.89Zm-28-149.25a1.33,1.33,0,0,0-1.5-1.5H92.6c-1,0-1.5.59-1.5,1.75s.5,1.75,1.5,1.75h15.5A2,2,0,0,0,109.6,29.64Zm-1.5,149.25c0-1.16-.67-1.75-2-1.75H91.6c-1.33,0-2,.59-2,1.75s.67,1.75,2,1.75h14.5C107.43,180.64,108.1,180.06,108.1,178.89ZM80.1,29.64c0-1-.67-1.5-2-1.5H63.6c-1.33,0-2,.59-2,1.75s.67,1.75,2,1.75H78.1C79.43,31.31,80.1,30.64,80.1,29.64ZM78.6,178.89c0-1.16-.67-1.75-2-1.75H62.1c-1.33,0-2,.59-2,1.75s.67,1.75,2,1.75H76.6C77.93,180.64,78.6,180.06,78.6,178.89Zm-28-149a6,6,0,0,0-1.5-4,4.76,4.76,0,0,0-3.75-1.75,5.54,5.54,0,0,0-4,1.75,5.09,5.09,0,0,0-1,6.5,5.72,5.72,0,0,0,2,2,5.24,5.24,0,0,0,2.75.75,5.4,5.4,0,0,0,4-1.5A5.09,5.09,0,0,0,50.6,29.89Zm-1.5,149c0-1.16-.67-1.75-2-1.75H45.6a5.48,5.48,0,0,0-5.5-3.5,5.68,5.68,0,0,0-3.75,1.5,4.73,4.73,0,0,0-1.75,3.75,5.48,5.48,0,0,0,1.75,4,5.25,5.25,0,0,0,3.75,1.75,5.49,5.49,0,0,0,5.5-4h1.5C48.43,180.64,49.1,180.06,49.1,178.89ZM29.6,341.64l8.5-17.5h-7v-14.5a1.33,1.33,0,0,0-1.5-1.5c-1.33,0-2,.5-2,1.5v14.5h-7Zm5.5-311.5a4.51,4.51,0,0,0-.5-2,6.54,6.54,0,0,0-3-3,4.48,4.48,0,0,0-2-.5,5,5,0,0,0-4,1.75,6.08,6.08,0,0,0,0,8,4.73,4.73,0,0,0,3.75,1.75,5.5,5.5,0,0,0,4-1.75A5.76,5.76,0,0,0,35.1,30.14Zm-4,265v-15a1.33,1.33,0,0,0-1.5-1.5c-1.33,0-2,.5-2,1.5v15c0,1,.58,1.5,1.75,1.5S31.1,296.14,31.1,295.14Zm0-29.5v-15a1.33,1.33,0,0,0-1.5-1.5c-1.33,0-2,.5-2,1.5v15c0,1.34.58,2,1.75,2S31.1,267,31.1,265.64Zm0-29.5v-15a1.33,1.33,0,0,0-1.5-1.5,1.77,1.77,0,0,0-2,2v14.5c0,1.34.58,2,1.75,2S31.1,237.48,31.1,236.14Zm0-29.5v-15a1.33,1.33,0,0,0-1.5-1.5c-1.33,0-2,.5-2,1.5v15c0,1.34.58,2,1.75,2S31.1,208,31.1,206.64Zm0-29.5v-15a1.33,1.33,0,0,0-1.5-1.5,1.77,1.77,0,0,0-2,2v14.5c0,1.34.58,2,1.75,2S31.1,178.48,31.1,177.14Zm0-29.5v-14.5c0-1.33-.5-2-1.5-2a1.77,1.77,0,0,0-2,2v14.5c0,1.34.58,2,1.75,2S31.1,149,31.1,147.64Zm0-29v-15.5a1.33,1.33,0,0,0-1.5-1.5,1.77,1.77,0,0,0-2,2v15c0,1,.58,1.5,1.75,1.5S31.1,119.64,31.1,118.64Zm0-30V74.14c0-1.33-.5-2-1.5-2a1.77,1.77,0,0,0-2,2v14.5c0,1.34.58,2,1.75,2S31.1,90,31.1,88.64Zm0-29v-15c0-1.33-.5-2-1.5-2a1.77,1.77,0,0,0-2,2v15c0,1,.58,1.5,1.75,1.5S31.1,60.64,31.1,59.64Z" transform="translate(-0.6 -1.64)" fill="#fbea23"/><path d="M230.1,22.64a30.42,30.42,0,0,1,.5,14.5q-1,3-2.5,6.5a20.69,20.69,0,0,1-4.5,6.5,34.31,34.31,0,0,1-9,6.5,57.57,57.57,0,0,1-7,2.5H58.1v92H202.6a16.6,16.6,0,0,1,4,.5,38.47,38.47,0,0,1,6.5,1.5,31.41,31.41,0,0,1,9,5.5,39.69,39.69,0,0,1,5.5,7,46.28,46.28,0,0,1,2.5,6,32.68,32.68,0,0,1,.5,15,46.28,46.28,0,0,1-2.5,6,19.41,19.41,0,0,1-4.5,7,34.31,34.31,0,0,1-9,6.5,27.53,27.53,0,0,1-7,2,24.94,24.94,0,0,1-5,.5H58.1v128.5a27.34,27.34,0,0,1-8.5,20,27.65,27.65,0,0,1-20.25,8.5,27.65,27.65,0,0,1-20.25-8.5,27.34,27.34,0,0,1-8.5-20V30.64a28.56,28.56,0,0,1,6-17.5,20.07,20.07,0,0,1,2.5-3,46.28,46.28,0,0,1,6.5-4.5,26.29,26.29,0,0,1,14-4h173a16.6,16.6,0,0,1,4,.5,21.31,21.31,0,0,1,6.5,2,31.41,31.41,0,0,1,9,5.5,39.69,39.69,0,0,1,5.5,7A25.25,25.25,0,0,1,230.1,22.64Zm-5,13.5a24.37,24.37,0,0,0,0-12,35.87,35.87,0,0,0-2.5-5,15.9,15.9,0,0,0-4.5-6,24.09,24.09,0,0,0-7-4,9.65,9.65,0,0,0-5-1.5,14.84,14.84,0,0,0-3.5-.5H29.6a21.91,21.91,0,0,0-11.5,3,21.31,21.31,0,0,0-5.5,4,16.55,16.55,0,0,0-2,2.5,22.7,22.7,0,0,0-4.5,14v306.5a23.44,23.44,0,0,0,6.5,16.5,23.74,23.74,0,0,0,16.75,6.5,23.74,23.74,0,0,0,16.75-6.5,23.44,23.44,0,0,0,6.5-16.5v-131a2.65,2.65,0,0,1,3-3h151a15.51,15.51,0,0,0,5.5-2,26.14,26.14,0,0,0,11.5-11,17.52,17.52,0,0,0,1.5-5,24.38,24.38,0,0,0,0-12,35.87,35.87,0,0,0-2.5-5,17.28,17.28,0,0,0-4.5-5.5,19.41,19.41,0,0,0-7-4.5,29.69,29.69,0,0,0-5-1.5H55.6a2.65,2.65,0,0,1-3-3v-97c0-1.66,1-2.5,3-2.5h147a16.12,16.12,0,0,0,4-.5,26.17,26.17,0,0,0,5.5-1.5,20.77,20.77,0,0,0,7.5-5.5,20.92,20.92,0,0,0,4-5.5A27.71,27.71,0,0,0,225.1,36.14Z" transform="translate(-0.6 -1.64)" fill="#1d1d1b"/><path d="M210.1,29.64l-17.5,9v-7H181.1c-1.33,0-2-.58-2-1.75s.67-1.75,2-1.75h11.5v-7Z" transform="translate(-0.6 -1.64)" fill="#5a5a5a"/><path d="M202.6,179.14l-18,8.5v-7h-5c-1,0-1.5-.58-1.5-1.75s.5-1.75,1.5-1.75h5v-7Z" transform="translate(-0.6 -1.64)" fill="#5a5a5a"/><path d="M166.6,28.14a1.33,1.33,0,0,1,1.5,1.5,2,2,0,0,1-1.5,2h-15c-1,0-1.5-.58-1.5-1.75s.5-1.75,1.5-1.75Z" transform="translate(-0.6 -1.64)" fill="#5a5a5a"/><path d="M165.1,177.14c1,0,1.5.59,1.5,1.75s-.5,1.75-1.5,1.75h-15c-1,0-1.5-.58-1.5-1.75s.5-1.75,1.5-1.75Z" transform="translate(-0.6 -1.64)" fill="#5a5a5a"/><path d="M137.1,28.14c1.33,0,2,.5,2,1.5s-.67,1.67-2,2H122.6c-1.33,0-2-.58-2-1.75s.67-1.75,2-1.75Z" transform="translate(-0.6 -1.64)" fill="#5a5a5a"/><path d="M135.6,177.14c1.33,0,2,.59,2,1.75s-.67,1.75-2,1.75H121.1c-1.33,0-2-.58-2-1.75s.67-1.75,2-1.75Z" transform="translate(-0.6 -1.64)" fill="#5a5a5a"/><path d="M108.1,28.14a1.33,1.33,0,0,1,1.5,1.5,2,2,0,0,1-1.5,2H92.6c-1,0-1.5-.58-1.5-1.75s.5-1.75,1.5-1.75Z" transform="translate(-0.6 -1.64)" fill="#5a5a5a"/><path d="M106.1,177.14c1.33,0,2,.59,2,1.75s-.67,1.75-2,1.75H91.6c-1.33,0-2-.58-2-1.75s.67-1.75,2-1.75Z" transform="translate(-0.6 -1.64)" fill="#5a5a5a"/><path d="M78.1,28.14c1.33,0,2,.5,2,1.5s-.67,1.67-2,2H63.6c-1.33,0-2-.58-2-1.75s.67-1.75,2-1.75Z" transform="translate(-0.6 -1.64)" fill="#5a5a5a"/><path d="M76.6,177.14c1.33,0,2,.59,2,1.75s-.67,1.75-2,1.75H62.1c-1.33,0-2-.58-2-1.75s.67-1.75,2-1.75Z" transform="translate(-0.6 -1.64)" fill="#5a5a5a"/><path d="M49.1,25.89a6,6,0,0,1,1.5,4,5.09,5.09,0,0,1-1.5,3.75,5.4,5.4,0,0,1-4,1.5,5.24,5.24,0,0,1-2.75-.75,5.72,5.72,0,0,1-2-2,5.09,5.09,0,0,1,1-6.5,5.54,5.54,0,0,1,4-1.75A4.76,4.76,0,0,1,49.1,25.89Z" transform="translate(-0.6 -1.64)" fill="#5a5a5a"/><path d="M47.1,177.14c1.33,0,2,.59,2,1.75s-.67,1.75-2,1.75H45.6a5.49,5.49,0,0,1-5.5,4,5.25,5.25,0,0,1-3.75-1.75,5.48,5.48,0,0,1-1.75-4,4.73,4.73,0,0,1,1.75-3.75,5.68,5.68,0,0,1,3.75-1.5,5.48,5.48,0,0,1,5.5,3.5Z" transform="translate(-0.6 -1.64)" fill="#5a5a5a"/><path d="M38.1,324.14l-8.5,17.5-9-17.5h7v-14.5c0-1,.67-1.5,2-1.5a1.33,1.33,0,0,1,1.5,1.5v14.5Z" transform="translate(-0.6 -1.64)" fill="#5a5a5a"/><path d="M34.6,28.14a4.51,4.51,0,0,1,.5,2,5.76,5.76,0,0,1-1.75,4.25,5.5,5.5,0,0,1-4,1.75,4.73,4.73,0,0,1-3.75-1.75,6.08,6.08,0,0,1,0-8,5,5,0,0,1,4-1.75,4.48,4.48,0,0,1,2,.5,6.54,6.54,0,0,1,3,3Z" transform="translate(-0.6 -1.64)" fill="#5a5a5a"/><path d="M31.1,280.64v14.5c0,1-.58,1.5-1.75,1.5s-1.75-.5-1.75-1.5v-15c0-1,.67-1.5,2-1.5a1.33,1.33,0,0,1,1.5,1.5Z" transform="translate(-0.6 -1.64)" fill="#5a5a5a"/><path d="M31.1,251.14v14.5c0,1.34-.58,2-1.75,2s-1.75-.66-1.75-2v-15c0-1,.67-1.5,2-1.5a1.33,1.33,0,0,1,1.5,1.5Z" transform="translate(-0.6 -1.64)" fill="#5a5a5a"/><path d="M31.1,221.64v14.5c0,1.34-.58,2-1.75,2s-1.75-.66-1.75-2v-14.5a1.77,1.77,0,0,1,2-2,1.33,1.33,0,0,1,1.5,1.5Z" transform="translate(-0.6 -1.64)" fill="#5a5a5a"/><path d="M31.1,192.64v14c0,1.34-.58,2-1.75,2s-1.75-.66-1.75-2v-15c0-1,.67-1.5,2-1.5a1.33,1.33,0,0,1,1.5,1.5Z" transform="translate(-0.6 -1.64)" fill="#5a5a5a"/><path d="M31.1,162.64v14.5c0,1.34-.58,2-1.75,2s-1.75-.66-1.75-2v-14.5a1.77,1.77,0,0,1,2-2,1.33,1.33,0,0,1,1.5,1.5Z" transform="translate(-0.6 -1.64)" fill="#5a5a5a"/><path d="M31.1,133.64v14c0,1.34-.58,2-1.75,2s-1.75-.66-1.75-2v-14.5a1.77,1.77,0,0,1,2-2c1,0,1.5.67,1.5,2Z" transform="translate(-0.6 -1.64)" fill="#5a5a5a"/><path d="M31.1,104.14v14.5c0,1-.58,1.5-1.75,1.5s-1.75-.5-1.75-1.5v-15a1.77,1.77,0,0,1,2-2,1.33,1.33,0,0,1,1.5,1.5v1Z" transform="translate(-0.6 -1.64)" fill="#5a5a5a"/><path d="M31.1,74.64v14c0,1.34-.58,2-1.75,2s-1.75-.66-1.75-2V74.14a1.77,1.77,0,0,1,2-2c1,0,1.5.67,1.5,2Z" transform="translate(-0.6 -1.64)" fill="#5a5a5a"/><path d="M31.1,45.14v14.5c0,1-.58,1.5-1.75,1.5s-1.75-.5-1.75-1.5v-15a1.77,1.77,0,0,1,2-2c1,0,1.5.67,1.5,2Z" transform="translate(-0.6 -1.64)" fill="#5a5a5a"/></svg>