<svg id="Layer_1" data-name="Layer 1" xmlns="http://www.w3.org/2000/svg" viewBox="0 0 267.5 364.18"><path d="M256.41,170.77a23.17,23.17,0,0,1,7,17q0,67-26,112-17.5,30.5-45,46a97.86,97.86,0,0,1-51.5,14.5q-29,0-55.5-15.5-31.5-18-51.5-53-27.51-48-27.5-114,0-73.5,30-118,21-31.5,54.5-44.5a125.25,125.25,0,0,1,46.5-8.5,155.16,155.16,0,0,1,30.5,3q43.5,9.5,72.5,40.5A23.76,23.76,0,0,1,245.66,58a20.69,20.69,0,0,1,1.5,9,24,24,0,0,1-2.25,9,26.8,26.8,0,0,1-5.25,7.5,19.51,19.51,0,0,1-7.75,4.75,25.51,25.51,0,0,1-9,1.5,20.37,20.37,0,0,1-8.75-2,33.93,33.93,0,0,1-7.75-5q-19-20.51-48.5-27-27.51-6-49.5,3-20,8-33,27.5-22.5,32.51-22.5,91.5,0,53.5,21.5,90.5,13.5,24,34.5,35.5,31,18.5,60,1.5,16.5-9.5,28-29,14-25,18-62.5a3.32,3.32,0,0,0-.75-2,2.16,2.16,0,0,0-1.75-1h-92.5a23,23,0,0,1-16.5-6.75,22.95,22.95,0,0,1,0-33,23,23,0,0,1,16.5-6.75h118.5A21.43,21.43,0,0,1,256.41,170.77Zm-9.5,44.5-8-18-9.5,17,7,.5a27.61,27.61,0,0,0-.5,5.5v.5a1.33,1.33,0,0,0,1.5,1.5h.5a1.33,1.33,0,0,0,1.5-1.5c0-1,.16-3,.5-6Zm-4.75-24.75a5.24,5.24,0,0,0,.75-2.75,6.31,6.31,0,0,0-1.5-4.25,5,5,0,0,0-4-1.75,4.72,4.72,0,0,0-5,4h-13c-1.34,0-2,.58-2,1.75s.66,1.75,2,1.75h13a4.72,4.72,0,0,0,5,4,5.26,5.26,0,0,0,2.75-.75A5.8,5.8,0,0,0,242.16,190.52Zm-4.75,44.75c.33-.33.16-.67-.5-1,0-.33-.34-.5-1-.5-1-.67-1.67-.33-2,1q-1.5,9-3,14.5v.5a1.33,1.33,0,0,0,1.5,1.5h.5c1,0,1.5-.33,1.5-1Q236.41,241.77,237.41,235.27Zm-7,29a2,2,0,0,0-1-2.5c-1-.33-1.84.17-2.5,1.5q-3,9-5,13.5l-.5.5a2.87,2.87,0,0,0,1,2h1a2.89,2.89,0,0,0,2-1v-.5A137.92,137.92,0,0,0,230.41,264.27Zm-6.75-198q3.75-4-.25-7.5-2.5-3-6.5-1a75.06,75.06,0,0,0-10-8,1.8,1.8,0,1,0-2,3q5,3.49,10,7.5c-1.34,2.33-1,4.5,1,6.5Q219.9,70.26,223.66,66.27Zm-5.25,225a1.6,1.6,0,0,0-.5-2.5c-1.34-.67-2.17-.33-2.5,1a110.85,110.85,0,0,1-8.5,12v1a2,2,0,0,0,.5,1.5,1.44,1.44,0,0,0,1,.5,1.61,1.61,0,0,0,1.5-1A76,76,0,0,0,218.41,291.27Zm-12-103.75c0-1.17-.5-1.75-1.5-1.75h-15c-1,0-1.5.58-1.5,1.75s.5,1.75,1.5,1.75h15C205.91,189.27,206.41,188.69,206.41,187.52Zm-6,126a1.7,1.7,0,0,0-.5-1.25c-.67-.67-1.5-.67-2.5,0a79.87,79.87,0,0,1-11,9c-.67.67-.84,1.17-.5,1.5v1a1.59,1.59,0,0,0,1.5,1h1a99,99,0,0,0,11.5-10A1.7,1.7,0,0,0,200.41,313.52Zm-5.5-268.75v-1a1.61,1.61,0,0,0-1-1.5,99.38,99.38,0,0,0-13.5-6c-1.34-.67-2.17-.33-2.5,1v1a5.47,5.47,0,0,0,1,1.5,122.74,122.74,0,0,1,13.5,5.5l.5.5A2.89,2.89,0,0,0,194.91,44.77Zm-19.5,287a2,2,0,0,0,1-2.5,1.59,1.59,0,0,0-2.5-.5,80.31,80.31,0,0,1-13.5,4.5q-1.5.5-1.5,1.5v.5a2,2,0,0,0,2,1.5h.5A86.49,86.49,0,0,0,175.41,331.77Zm1.5-144.25c0-1.17-.5-1.75-1.5-1.75h-15c-1,0-1.5.58-1.5,1.75s.5,1.75,1.5,1.75h15C176.41,189.27,176.91,188.69,176.91,187.52Zm-9.5-153.75v-.5q0-1-1.5-1.5a120.92,120.92,0,0,0-14.5-2.5c-1-.33-1.67.17-2,1.5-.34,1,.16,1.67,1.5,2a77.8,77.8,0,0,1,14,2.5h1Q166.9,35.27,167.41,33.77Zm-21,305.5c1.33,0,1.83-.67,1.5-2,0-1.33-.5-2-1.5-2a106,106,0,0,1-14.5,0c-1.34-.33-2,.17-2,1.5a2,2,0,0,0,1.5,2q5,.5,10,.5Zm1.5-151.75c0-1.17-.67-1.75-2-1.75h-8.5v-7l-17.5,9,17.5,8.5v-7h8.5C147.24,189.27,147.91,188.69,147.91,187.52Zm-11-155.75a2,2,0,0,0,1.5-2c0-1-.67-1.5-2-1.5a120.58,120.58,0,0,0-15,1,1.44,1.44,0,0,0-1,.5,2,2,0,0,0-.5,1.5,2,2,0,0,0,2,1.5h.5a98.28,98.28,0,0,1,14-1Zm-18,302.5v-1.5a1.47,1.47,0,0,0-1-.5,75.17,75.17,0,0,1-13.5-5.5,2,2,0,0,0-2.5,1v.5a2,2,0,0,0,1,2,136.61,136.61,0,0,0,14,5.5h.5Q118.4,335.77,118.91,334.27Zm-9.5-300v-.5c-.67-1.33-1.5-1.83-2.5-1.5a109.26,109.26,0,0,0-14,5.5,3.63,3.63,0,0,0-.75,1,2.21,2.21,0,0,0,0,1.5c.16.67.75,1,1.75,1h.5a88,88,0,0,1,13.5-5.5A1.33,1.33,0,0,0,109.41,34.27Zm-17,288a1.6,1.6,0,0,0-.5-2.5,79.27,79.27,0,0,1-11-9,1.88,1.88,0,0,0-3,0,2,2,0,0,0-.5,1.5,1.41,1.41,0,0,0,.5,1,114.79,114.79,0,0,0,12,9.5h1A2.07,2.07,0,0,0,92.41,322.27Zm-9.5-274.5v-2a1.59,1.59,0,0,0-2.5-.5h-.5q-4.5,3.49-11.5,9.5a1.81,1.81,0,0,0,0,2.5,2,2,0,0,0,1.5.5,1.47,1.47,0,0,0,1-.5,108.31,108.31,0,0,1,11-9h.5Zm-12.5,255c1-.67,1-1.5,0-2.5a95,95,0,0,1-8.5-11l-.5-.5v-.5a2.08,2.08,0,0,0-2.25.25,2.39,2.39,0,0,0-.75,1.75v.5q4.5,6.5,9,12a4.05,4.05,0,0,0,1.75.5A1.72,1.72,0,0,0,70.41,302.77Zm-9-234.5a2,2,0,0,0,.5-1.5,1.61,1.61,0,0,0-1-1.5c-.67-.67-1.5-.5-2.5.5a99.05,99.05,0,0,0-8,12.5,1.59,1.59,0,0,0,.5,2.5,1.44,1.44,0,0,0,1,.5q1,0,1.5-1.5A134.64,134.64,0,0,1,61.41,68.27Zm-8,211a1.6,1.6,0,0,0,.5-2.5,129,129,0,0,1-6-13c-.67-1.33-1.5-1.67-2.5-1q-1.5.5-1.5,1.5l.5.5h-.5l.5.5q3.5,7.5,6.5,13a1.59,1.59,0,0,0,1.5,1Zm-6.5-186v-1a2.91,2.91,0,0,0-1-2c-1.34-.33-2.17,0-2.5,1a134.35,134.35,0,0,0-5.5,14,2,2,0,0,0,.5,1.5c0,.33.33.67,1,1h.5a1.33,1.33,0,0,0,1.5-1.5Q43.9,99.78,46.91,93.27Zm-4.5,158a.63.63,0,0,0,0-1q-2.5-8.51-4-14a1.83,1.83,0,0,0-2.5-1.5,3.21,3.21,0,0,0-1.5,1.5.44.44,0,0,0,.5.5,135.15,135.15,0,0,0,4,14.5,1.59,1.59,0,0,0,1.5,1h1C41.74,252.27,42.07,251.94,42.41,251.27Zm-4.5-131v-.5q-.51-1.5-1.5-1.5c-1.34-.33-2.17,0-2.5,1v.5a144.93,144.93,0,0,0-2.5,14.5.62.62,0,0,0,0,1c.33.67.66,1,1,1h.5a2,2,0,0,0,2-1.5q1-7,2.5-14Zm-4,103.5c1,0,1.5-.67,1.5-2a89.19,89.19,0,0,1-2-14.5,2,2,0,0,0-2-1.5c-1.34.33-2,1-2,2a77,77,0,0,0,2.5,14.5,1.33,1.33,0,0,0,1.5,1.5Zm-2-60a136.61,136.61,0,0,1,1-14.5c0-1.33-.59-2-1.75-2s-1.75.5-1.75,1.5q-1,7.5-1.5,15c0,.33.33.67,1,1,0,.33.33.67,1,1C30.91,165.77,31.57,165.1,31.91,163.77Zm0,29q-.51-4.5-.5-14.5a1.77,1.77,0,0,0-2-2q-1,0-1.5,1.5v.5q.49,13,.5,15a1.33,1.33,0,0,0,1.5,1.5h.5C31.41,194.77,31.91,194.1,31.91,192.77Z" transform="translate(-0.91 -1.09)" fill="#fbea23"/><path d="M259.91,167.27a28,28,0,0,1,8.5,20.5q0,68.5-26.5,115-18,31.5-46.5,48a108.48,108.48,0,0,1-54.5,14.5q-30.51,0-58-16-33-19-53.5-55-28.5-49-28.5-116.5,0-75,31-121,22-32.51,57-46.5,37.5-15,80-5.5,45.5,10,75.5,42a26.28,26.28,0,0,1,6,9.25,30.72,30.72,0,0,1,2,11,25.39,25.39,0,0,1-2.5,11,33.34,33.34,0,0,1-6.5,9.25,25.64,25.64,0,0,1-9.5,6,29.45,29.45,0,0,1-11,2,24.2,24.2,0,0,1-11-2.5,34.21,34.21,0,0,1-9-6.5q-18-19-46-25-26-6-46.5,2.5-18.51,7.5-30.5,25-21.51,31.5-21.5,89,0,52,20.5,88,13,22.5,32.5,33.5,28.5,16.5,55,1.5,15-9,25.5-27,13.5-23,17.5-57.5h-89.5a27.11,27.11,0,0,1-20.25-8.5,29,29,0,0,1,0-40.5,27.11,27.11,0,0,1,20.25-8.5h118.5Q250.91,157.76,259.91,167.27Zm3.5,20.5a23.17,23.17,0,0,0-7-17,21.43,21.43,0,0,0-18-6.5H119.91a23,23,0,0,0-16.5,6.75,22.95,22.95,0,0,0,0,33,23,23,0,0,0,16.5,6.75h92.5a2.16,2.16,0,0,1,1.75,1,3.32,3.32,0,0,1,.75,2q-4,37.5-18,62.5-11.5,19.5-28,29-29,17-60-1.5-21-11.5-34.5-35.5-21.51-37-21.5-90.5,0-59,22.5-91.5,13-19.5,33-27.5,22-9,49.5-3,29.49,6.49,48.5,27a33.93,33.93,0,0,0,7.75,5,20.37,20.37,0,0,0,8.75,2,25.51,25.51,0,0,0,9-1.5,19.51,19.51,0,0,0,7.75-4.75,26.8,26.8,0,0,0,5.25-7.5,24,24,0,0,0,2.25-9,20.69,20.69,0,0,0-1.5-9,23.76,23.76,0,0,0-5.25-7.75q-29-31-72.5-40.5a155.16,155.16,0,0,0-30.5-3,125.25,125.25,0,0,0-46.5,8.5q-33.51,13-54.5,44.5-30,44.51-30,118,0,66,27.5,114,20,35,51.5,53,26.49,15.5,55.5,15.5a97.86,97.86,0,0,0,51.5-14.5q27.5-15.5,45-46Q263.41,254.77,263.41,187.77Z" transform="translate(-0.91 -1.09)" fill="#1d1d1b"/><path d="M238.91,197.27l8,18-7-.5c-.34,3-.5,5-.5,6a1.33,1.33,0,0,1-1.5,1.5h-.5a1.33,1.33,0,0,1-1.5-1.5v-.5a27.61,27.61,0,0,1,.5-5.5l-7-.5Z" transform="translate(-0.91 -1.09)" fill="#5a5a5a"/><path d="M242.91,187.77a5.24,5.24,0,0,1-.75,2.75,5.8,5.8,0,0,1-2,2,5.26,5.26,0,0,1-2.75.75,4.72,4.72,0,0,1-5-4h-13c-1.34,0-2-.58-2-1.75s.66-1.75,2-1.75h13a4.72,4.72,0,0,1,5-4,5,5,0,0,1,4,1.75A6.31,6.31,0,0,1,242.91,187.77Z" transform="translate(-0.91 -1.09)" fill="#5a5a5a"/><path d="M236.91,234.27c.66.33.83.67.5,1q-1,6.49-3,15c0,.67-.5,1-1.5,1h-.5a1.33,1.33,0,0,1-1.5-1.5v-.5q1.5-5.51,3-14.5c.33-1.33,1-1.67,2-1C236.57,233.77,236.91,233.94,236.91,234.27Z" transform="translate(-0.91 -1.09)" fill="#5a5a5a"/><path d="M229.41,261.77a2,2,0,0,1,1,2.5,137.92,137.92,0,0,1-5,13.5v.5a2.89,2.89,0,0,1-2,1h-1a2.87,2.87,0,0,1-1-2l.5-.5q2-4.5,5-13.5C227.57,261.94,228.41,261.44,229.41,261.77Z" transform="translate(-0.91 -1.09)" fill="#5a5a5a"/><path d="M223.41,58.77q4,3.49.25,7.5t-7.75.5c-2-2-2.34-4.17-1-6.5q-5-4-10-7.5a1.8,1.8,0,1,1,2-3,75.06,75.06,0,0,1,10,8Q220.9,55.77,223.41,58.77Z" transform="translate(-0.91 -1.09)" fill="#5a5a5a"/><path d="M217.91,288.77a1.6,1.6,0,0,1,.5,2.5,76,76,0,0,1-8.5,12.5,1.61,1.61,0,0,1-1.5,1,1.44,1.44,0,0,1-1-.5,2,2,0,0,1-.5-1.5v-1a110.85,110.85,0,0,0,8.5-12C215.74,288.44,216.57,288.1,217.91,288.77Z" transform="translate(-0.91 -1.09)" fill="#5a5a5a"/><path d="M204.91,185.77c1,0,1.5.58,1.5,1.75s-.5,1.75-1.5,1.75h-15c-1,0-1.5-.58-1.5-1.75s.5-1.75,1.5-1.75Z" transform="translate(-0.91 -1.09)" fill="#5a5a5a"/><path d="M199.91,312.27a1.81,1.81,0,0,1,0,2.5,99,99,0,0,1-11.5,10h-1a1.59,1.59,0,0,1-1.5-1v-1c-.34-.33-.17-.83.5-1.5a79.87,79.87,0,0,0,11-9C198.41,311.6,199.24,311.6,199.91,312.27Z" transform="translate(-0.91 -1.09)" fill="#5a5a5a"/><path d="M194.91,43.77v1a2.89,2.89,0,0,1-2,1l-.5-.5a122.74,122.74,0,0,0-13.5-5.5,5.47,5.47,0,0,1-1-1.5v-1c.33-1.33,1.16-1.67,2.5-1a99.38,99.38,0,0,1,13.5,6A1.61,1.61,0,0,1,194.91,43.77Z" transform="translate(-0.91 -1.09)" fill="#5a5a5a"/><path d="M176.41,329.27a2,2,0,0,1-1,2.5,86.49,86.49,0,0,1-14,5h-.5a2,2,0,0,1-2-1.5v-.5q0-1,1.5-1.5a80.31,80.31,0,0,0,13.5-4.5A1.59,1.59,0,0,1,176.41,329.27Z" transform="translate(-0.91 -1.09)" fill="#5a5a5a"/><path d="M175.41,185.77c1,0,1.5.58,1.5,1.75s-.5,1.75-1.5,1.75h-15c-1,0-1.5-.58-1.5-1.75s.5-1.75,1.5-1.75Z" transform="translate(-0.91 -1.09)" fill="#5a5a5a"/><path d="M167.41,33.27v.5q-.51,1.5-1.5,1.5h-1a77.8,77.8,0,0,0-14-2.5c-1.34-.33-1.84-1-1.5-2,.33-1.33,1-1.83,2-1.5a120.92,120.92,0,0,1,14.5,2.5Q167.41,32.27,167.41,33.27Z" transform="translate(-0.91 -1.09)" fill="#5a5a5a"/><path d="M147.91,337.27c.33,1.33-.17,2-1.5,2h-5q-5,0-10-.5a2,2,0,0,1-1.5-2c0-1.33.66-1.83,2-1.5a106,106,0,0,0,14.5,0C147.41,335.27,147.91,335.94,147.91,337.27Z" transform="translate(-0.91 -1.09)" fill="#5a5a5a"/><path d="M145.91,185.77c1.33,0,2,.58,2,1.75s-.67,1.75-2,1.75h-8.5v7l-17.5-8.5,17.5-9v7Z" transform="translate(-0.91 -1.09)" fill="#5a5a5a"/><path d="M138.41,29.77a2,2,0,0,1-1.5,2h-.5a98.28,98.28,0,0,0-14,1h-.5a2,2,0,0,1-2-1.5,2,2,0,0,1,.5-1.5,1.44,1.44,0,0,1,1-.5,120.58,120.58,0,0,1,15-1C137.74,28.27,138.41,28.77,138.41,29.77Z" transform="translate(-0.91 -1.09)" fill="#5a5a5a"/><path d="M118.91,332.77v1.5q-.51,1.5-1.5,1.5h-.5a136.61,136.61,0,0,1-14-5.5,2,2,0,0,1-1-2v-.5a2,2,0,0,1,2.5-1,75.17,75.17,0,0,0,13.5,5.5A1.47,1.47,0,0,1,118.91,332.77Z" transform="translate(-0.91 -1.09)" fill="#5a5a5a"/><path d="M109.41,33.77v.5a1.33,1.33,0,0,1-1.5,1.5,88,88,0,0,0-13.5,5.5h-.5c-1,0-1.59-.33-1.75-1a2.21,2.21,0,0,1,0-1.5,3.63,3.63,0,0,1,.75-1,109.26,109.26,0,0,1,14-5.5C107.91,31.94,108.74,32.44,109.41,33.77Z" transform="translate(-0.91 -1.09)" fill="#5a5a5a"/><path d="M91.91,319.77a1.6,1.6,0,0,1,.5,2.5,2.07,2.07,0,0,1-1.5.5h-1a114.79,114.79,0,0,1-12-9.5,1.41,1.41,0,0,1-.5-1,2,2,0,0,1,.5-1.5,1.88,1.88,0,0,1,3,0A79.27,79.27,0,0,0,91.91,319.77Z" transform="translate(-0.91 -1.09)" fill="#5a5a5a"/><path d="M81.91,48.27a108.31,108.31,0,0,0-11,9,1.47,1.47,0,0,1-1,.5,2,2,0,0,1-1.5-.5,1.81,1.81,0,0,1,0-2.5q7-6,11.5-9.5h.5a1.59,1.59,0,0,1,2.5.5v2l-.5.5Z" transform="translate(-0.91 -1.09)" fill="#5a5a5a"/><path d="M61.91,66.77a2,2,0,0,1-.5,1.5,134.64,134.64,0,0,0-8,11.5q-.51,1.5-1.5,1.5a1.44,1.44,0,0,1-1-.5,1.59,1.59,0,0,1-.5-2.5,99.05,99.05,0,0,1,8-12.5c1-1,1.83-1.17,2.5-.5A1.61,1.61,0,0,1,61.91,66.77Z" transform="translate(-0.91 -1.09)" fill="#5a5a5a"/><path d="M61.41,288.77l.5.5a95,95,0,0,0,8.5,11c1,1,1,1.83,0,2.5a1.72,1.72,0,0,1-1.25.5,4.05,4.05,0,0,1-1.75-.5q-4.5-5.5-9-12v-.5a2.39,2.39,0,0,1,.75-1.75,2.08,2.08,0,0,1,2.25-.25Z" transform="translate(-0.91 -1.09)" fill="#5a5a5a"/><path d="M53.91,276.77a1.6,1.6,0,0,1-.5,2.5h-1a1.59,1.59,0,0,1-1.5-1q-3-5.5-6.5-13l-.5-.5h.5l-.5-.5q0-1,1.5-1.5c1-.67,1.83-.33,2.5,1A129,129,0,0,0,53.91,276.77Z" transform="translate(-0.91 -1.09)" fill="#5a5a5a"/><path d="M46.91,92.27v1q-3,6.49-5.5,13a1.33,1.33,0,0,1-1.5,1.5h-.5c-.67-.33-1-.67-1-1a2,2,0,0,1-.5-1.5,134.35,134.35,0,0,1,5.5-14c.33-1,1.16-1.33,2.5-1A2.91,2.91,0,0,1,46.91,92.27Z" transform="translate(-0.91 -1.09)" fill="#5a5a5a"/><path d="M42.41,250.27a.63.63,0,0,1,0,1c-.34.67-.67,1-1,1h-1a1.59,1.59,0,0,1-1.5-1,135.15,135.15,0,0,1-4-14.5.44.44,0,0,1-.5-.5,3.21,3.21,0,0,1,1.5-1.5,1.83,1.83,0,0,1,2.5,1.5Q39.91,241.77,42.41,250.27Z" transform="translate(-0.91 -1.09)" fill="#5a5a5a"/><path d="M37.91,119.77v.5l-.5.5q-1.5,7-2.5,14a2,2,0,0,1-2,1.5h-.5c-.34,0-.67-.33-1-1a.62.62,0,0,1,0-1,144.93,144.93,0,0,1,2.5-14.5v-.5c.33-1,1.16-1.33,2.5-1Q37.4,118.27,37.91,119.77Z" transform="translate(-0.91 -1.09)" fill="#5a5a5a"/><path d="M35.41,221.77c0,1.33-.5,2-1.5,2h-.5a1.33,1.33,0,0,1-1.5-1.5,77,77,0,0,1-2.5-14.5c0-1,.66-1.67,2-2a2,2,0,0,1,2,1.5A89.19,89.19,0,0,0,35.41,221.77Z" transform="translate(-0.91 -1.09)" fill="#5a5a5a"/><path d="M32.91,149.27a136.61,136.61,0,0,0-1,14.5c-.34,1.33-1,2-2,2-.67-.33-1-.67-1-1-.67-.33-1-.67-1-1q.49-7.5,1.5-15c0-1,.58-1.5,1.75-1.5S32.91,147.94,32.91,149.27Z" transform="translate(-0.91 -1.09)" fill="#5a5a5a"/><path d="M31.41,178.27q0,10,.5,14.5c0,1.33-.5,2-1.5,2h-.5a1.33,1.33,0,0,1-1.5-1.5q0-2-.5-15v-.5q.49-1.5,1.5-1.5A1.77,1.77,0,0,1,31.41,178.27Z" transform="translate(-0.91 -1.09)" fill="#5a5a5a"/></svg>