<svg id="Layer_1" data-name="Layer 1" xmlns="http://www.w3.org/2000/svg" viewBox="0 0 242.5 364"><path d="M237.55,29.69v306.5a23.44,23.44,0,0,1-6.5,16.5,24,24,0,0,1-17,6.5q-10,0-16.5-6.5a22.54,22.54,0,0,1-7-16.5v-131c0-2-.83-3-2.5-3H55.55c-1.67,0-2.5,1-2.5,3v131a22.54,22.54,0,0,1-7,16.5,23.74,23.74,0,0,1-16.75,6.5,23.74,23.74,0,0,1-16.75-6.5,23.44,23.44,0,0,1-6.5-16.5V29.69a24.13,24.13,0,0,1,6.5-17A23.82,23.82,0,0,1,29.3,6.19a23.82,23.82,0,0,1,16.75,6.5,23.16,23.16,0,0,1,7,17v123a2.2,2.2,0,0,0,2.5,2.5h132.5a2.2,2.2,0,0,0,2.5-2.5v-123a23.16,23.16,0,0,1,7-17,22.4,22.4,0,0,1,16.5-6.5,24.14,24.14,0,0,1,17,6.5A24.13,24.13,0,0,1,237.55,29.69Zm-23.5,313,9-17.5h-7v-14.5c0-1-.58-1.5-1.75-1.5s-1.75.5-1.75,1.5v14.5h-7Zm5.5-314.75a6,6,0,0,0-1.5-4,4.76,4.76,0,0,0-3.75-1.75,6,6,0,0,0-5.75,5.75,4.73,4.73,0,0,0,1.75,3.75,6,6,0,0,0,4,1.5,5.13,5.13,0,0,0,5.25-5.25Zm-3.5,268.25v-14.5c0-1.32-.58-2-1.75-2s-1.75.68-1.75,2v14.5c0,1.34.58,2,1.75,2S216.05,297.53,216.05,296.19Zm0-29.5v-15c0-1-.58-1.5-1.75-1.5s-1.75.5-1.75,1.5v15c0,1,.58,1.5,1.75,1.5S216.05,267.69,216.05,266.69Zm0-29.5v-14.5c0-1.32-.58-2-1.75-2s-1.75.68-1.75,2v14.5c0,1.34.58,2,1.75,2S216.05,238.53,216.05,237.19Zm0-29.5v-14.5c0-1.32-.58-2-1.75-2s-1.75.68-1.75,2v14.5c0,1.34.58,2,1.75,2S216.05,209,216.05,207.69Zm0-29.5v-14.5c0-1.32-.58-2-1.75-2s-1.75.68-1.75,2v14.5c0,1.34.58,2,1.75,2S216.05,179.53,216.05,178.19Zm0-29.5v-14.5c0-1.32-.58-2-1.75-2s-1.75.68-1.75,2v14.5c0,1.34.58,2,1.75,2S216.05,150,216.05,148.69Zm0-29.5v-14.5c0-1.32-.58-2-1.75-2s-1.75.68-1.75,2v14.5c0,1.34.58,2,1.75,2S216.05,120.53,216.05,119.19Zm0-29v-15c0-1.32-.58-2-1.75-2s-1.75.68-1.75,2v15c0,1,.58,1.5,1.75,1.5S216.05,91.19,216.05,90.19Zm0-29.5v-15c0-1-.58-1.5-1.75-1.5s-1.75.5-1.75,1.5v15c0,1.34.58,2,1.75,2S216.05,62,216.05,60.69Zm-25.5,127,18-9-18-8.5v7h-9.5c-1.33,0-2,.59-2,1.75s.67,1.75,2,1.75h9.5Zm-22.5-8.75c0-1.16-.67-1.75-2-1.75h-14.5c-1.33,0-2,.59-2,1.75s.67,1.75,2,1.75h14.5C167.38,180.69,168.05,180.12,168.05,178.94Zm-29.5,0c0-1.16-.5-1.75-1.5-1.75h-15c-1,0-1.5.59-1.5,1.75s.5,1.75,1.5,1.75h15C138.05,180.69,138.55,180.12,138.55,178.94Zm-29,0c0-1.16-.67-1.75-2-1.75H93.05c-1.33,0-2,.59-2,1.75s.67,1.75,2,1.75h14.5C108.88,180.69,109.55,180.12,109.55,178.94Zm-29.5,0c0-1.16-.67-1.75-2-1.75h-15c-1,0-1.5.59-1.5,1.75s.5,1.75,1.5,1.75h15C79.38,180.69,80.05,180.12,80.05,178.94Zm-29.5,0c0-1.16-.67-1.75-2-1.75h-2a4.73,4.73,0,0,0-5-4,5.24,5.24,0,0,0-2.75.75,5.89,5.89,0,0,0-2,2,5.26,5.26,0,0,0-.75,2.75,5,5,0,0,0,1.75,4,5.68,5.68,0,0,0,3.75,1.5c2.67,0,4.33-1.16,5-3.5h2C49.88,180.69,50.55,180.12,50.55,178.94Zm-21,163.75,8.5-17.5h-7v-14.5a1.33,1.33,0,0,0-1.5-1.5,2,2,0,0,0-2,1.5v14.5h-7Zm5.5-315a5.26,5.26,0,0,0-.75-2.75,5.89,5.89,0,0,0-2-2,5.24,5.24,0,0,0-2.75-.75,5,5,0,0,0-4,1.75,5.72,5.72,0,0,0-1.5,3.75,5.21,5.21,0,0,0,.75,2.75,5.72,5.72,0,0,0,2,2,5.24,5.24,0,0,0,2.75.75,5.68,5.68,0,0,0,3.75-1.5A5,5,0,0,0,35.05,27.69Zm-4,268.5v-14.5c0-1.32-.5-2-1.5-2a2,2,0,0,0-2,1.5v15c0,1.34.58,2,1.75,2S31.05,297.53,31.05,296.19Zm0-29.5v-15a1.33,1.33,0,0,0-1.5-1.5,2,2,0,0,0-2,1.5v15c0,1,.58,1.5,1.75,1.5S31.05,267.69,31.05,266.69Zm0-29.5v-14.5c0-1.32-.5-2-1.5-2a2,2,0,0,0-2,1.5v15c0,1.34.58,2,1.75,2S31.05,238.53,31.05,237.19Zm0-29.5v-14.5c0-1.32-.5-2-1.5-2a2,2,0,0,0-2,1.5v15c0,1.34.58,2,1.75,2S31.05,209,31.05,207.69Zm0-29.5v-14.5c0-1.32-.5-2-1.5-2s-1.67.68-2,2v14.5c0,1.34.58,2,1.75,2S31.05,179.53,31.05,178.19Zm0-29.5v-14.5c0-1.32-.5-2-1.5-2a2,2,0,0,0-2,1.5v15c0,1.34.58,2,1.75,2S31.05,150,31.05,148.69Zm0-29.5v-14.5c0-1.32-.5-2-1.5-2s-1.67.68-2,2v14.5c0,1.34.58,2,1.75,2S31.05,120.53,31.05,119.19Zm0-29v-15c0-1.32-.5-2-1.5-2s-1.67.68-2,2v15c0,1,.58,1.5,1.75,1.5S31.05,91.19,31.05,90.19Zm0-29.5v-15a1.33,1.33,0,0,0-1.5-1.5,2,2,0,0,0-2,1.5v15c0,1.34.58,2,1.75,2S31.05,62,31.05,60.69Z" transform="translate(-0.55 -0.69)" fill="#fbea23"/><path d="M243.05,29.69v306.5a27.32,27.32,0,0,1-8.5,20,28.37,28.37,0,0,1-40.5,0,27.32,27.32,0,0,1-8.5-20V207.69H58.05v128.5a27.32,27.32,0,0,1-8.5,20,27.61,27.61,0,0,1-20.25,8.5,27.61,27.61,0,0,1-20.25-8.5,27.32,27.32,0,0,1-8.5-20V29.69a28,28,0,0,1,8.5-20.5A27.69,27.69,0,0,1,29.3.69a27.69,27.69,0,0,1,20.25,8.5,28,28,0,0,1,8.5,20.5v120.5h127.5V29.69a28,28,0,0,1,8.5-20.5,28.37,28.37,0,0,1,40.5,0A28,28,0,0,1,243.05,29.69Zm-5.5,306.5V29.69a24.13,24.13,0,0,0-6.5-17,24.14,24.14,0,0,0-17-6.5,22.4,22.4,0,0,0-16.5,6.5,23.16,23.16,0,0,0-7,17v123a2.2,2.2,0,0,1-2.5,2.5H55.55a2.2,2.2,0,0,1-2.5-2.5v-123a23.16,23.16,0,0,0-7-17A23.82,23.82,0,0,0,29.3,6.19a23.82,23.82,0,0,0-16.75,6.5,24.13,24.13,0,0,0-6.5,17v306.5a23.44,23.44,0,0,0,6.5,16.5,23.74,23.74,0,0,0,16.75,6.5,23.74,23.74,0,0,0,16.75-6.5,22.54,22.54,0,0,0,7-16.5v-131c0-2,.83-3,2.5-3h132.5c1.67,0,2.5,1,2.5,3v131a22.54,22.54,0,0,0,7,16.5q6.49,6.51,16.5,6.5a24,24,0,0,0,17-6.5A23.44,23.44,0,0,0,237.55,336.19Z" transform="translate(-0.55 -0.69)" fill="#1d1d1b"/><path d="M223.05,325.19l-9,17.5-8.5-17.5h7v-14.5c0-1,.58-1.5,1.75-1.5s1.75.5,1.75,1.5v14.5Z" transform="translate(-0.55 -0.69)" fill="#5a5a5a"/><path d="M218.05,23.94a6,6,0,0,1,1.5,4,5.13,5.13,0,0,1-5.25,5.25,6,6,0,0,1-4-1.5,4.73,4.73,0,0,1-1.75-3.75,6,6,0,0,1,5.75-5.75A4.76,4.76,0,0,1,218.05,23.94Z" transform="translate(-0.55 -0.69)" fill="#5a5a5a"/><path d="M216.05,281.69v14.5c0,1.34-.58,2-1.75,2s-1.75-.66-1.75-2v-14.5c0-1.32.58-2,1.75-2S216.05,280.37,216.05,281.69Z" transform="translate(-0.55 -0.69)" fill="#5a5a5a"/><path d="M216.05,251.69v15c0,1-.58,1.5-1.75,1.5s-1.75-.5-1.75-1.5v-15c0-1,.58-1.5,1.75-1.5S216.05,250.69,216.05,251.69Z" transform="translate(-0.55 -0.69)" fill="#5a5a5a"/><path d="M216.05,222.69v14.5c0,1.34-.58,2-1.75,2s-1.75-.66-1.75-2v-14.5c0-1.32.58-2,1.75-2S216.05,221.37,216.05,222.69Z" transform="translate(-0.55 -0.69)" fill="#5a5a5a"/><path d="M216.05,193.19v14.5c0,1.34-.58,2-1.75,2s-1.75-.66-1.75-2v-14.5c0-1.32.58-2,1.75-2S216.05,191.87,216.05,193.19Z" transform="translate(-0.55 -0.69)" fill="#5a5a5a"/><path d="M216.05,163.69v14.5c0,1.34-.58,2-1.75,2s-1.75-.66-1.75-2v-14.5c0-1.32.58-2,1.75-2S216.05,162.37,216.05,163.69Z" transform="translate(-0.55 -0.69)" fill="#5a5a5a"/><path d="M216.05,134.19v14.5c0,1.34-.58,2-1.75,2s-1.75-.66-1.75-2v-14.5c0-1.32.58-2,1.75-2S216.05,132.87,216.05,134.19Z" transform="translate(-0.55 -0.69)" fill="#5a5a5a"/><path d="M216.05,104.69v14.5c0,1.34-.58,2-1.75,2s-1.75-.66-1.75-2v-14.5c0-1.32.58-2,1.75-2S216.05,103.37,216.05,104.69Z" transform="translate(-0.55 -0.69)" fill="#5a5a5a"/><path d="M216.05,75.19v15c0,1-.58,1.5-1.75,1.5s-1.75-.5-1.75-1.5v-15c0-1.32.58-2,1.75-2S216.05,73.87,216.05,75.19Z" transform="translate(-0.55 -0.69)" fill="#5a5a5a"/><path d="M216.05,45.69v15c0,1.34-.58,2-1.75,2s-1.75-.66-1.75-2v-15c0-1,.58-1.5,1.75-1.5S216.05,44.69,216.05,45.69Z" transform="translate(-0.55 -0.69)" fill="#5a5a5a"/><path d="M208.55,178.69l-18,9v-7h-9.5c-1.33,0-2-.57-2-1.75s.67-1.75,2-1.75h9.5v-7Z" transform="translate(-0.55 -0.69)" fill="#5a5a5a"/><path d="M166.05,177.19c1.33,0,2,.59,2,1.75s-.67,1.75-2,1.75h-14.5c-1.33,0-2-.57-2-1.75s.67-1.75,2-1.75Z" transform="translate(-0.55 -0.69)" fill="#5a5a5a"/><path d="M137.05,177.19c1,0,1.5.59,1.5,1.75s-.5,1.75-1.5,1.75h-15c-1,0-1.5-.57-1.5-1.75s.5-1.75,1.5-1.75Z" transform="translate(-0.55 -0.69)" fill="#5a5a5a"/><path d="M107.55,177.19c1.33,0,2,.59,2,1.75s-.67,1.75-2,1.75H93.05c-1.33,0-2-.57-2-1.75s.67-1.75,2-1.75Z" transform="translate(-0.55 -0.69)" fill="#5a5a5a"/><path d="M78.05,177.19c1.33,0,2,.59,2,1.75s-.67,1.75-2,1.75h-15c-1,0-1.5-.57-1.5-1.75s.5-1.75,1.5-1.75Z" transform="translate(-0.55 -0.69)" fill="#5a5a5a"/><path d="M48.55,177.19c1.33,0,2,.59,2,1.75s-.67,1.75-2,1.75h-2c-.67,2.34-2.33,3.5-5,3.5a5.68,5.68,0,0,1-3.75-1.5,5,5,0,0,1-1.75-4,5.26,5.26,0,0,1,.75-2.75,5.89,5.89,0,0,1,2-2,5.24,5.24,0,0,1,2.75-.75,4.73,4.73,0,0,1,5,4Z" transform="translate(-0.55 -0.69)" fill="#5a5a5a"/><path d="M38.05,325.19l-8.5,17.5-9-17.5h7v-14.5a2,2,0,0,1,2-1.5,1.33,1.33,0,0,1,1.5,1.5v14.5Z" transform="translate(-0.55 -0.69)" fill="#5a5a5a"/><path d="M34.3,24.94a5.26,5.26,0,0,1,.75,2.75,5,5,0,0,1-1.75,4,5.68,5.68,0,0,1-3.75,1.5,5.24,5.24,0,0,1-2.75-.75,5.72,5.72,0,0,1-2-2,5.21,5.21,0,0,1-.75-2.75,5.72,5.72,0,0,1,1.5-3.75,5,5,0,0,1,4-1.75,5.24,5.24,0,0,1,2.75.75A5.89,5.89,0,0,1,34.3,24.94Z" transform="translate(-0.55 -0.69)" fill="#5a5a5a"/><path d="M31.05,281.69v14.5c0,1.34-.58,2-1.75,2s-1.75-.66-1.75-2v-15a2,2,0,0,1,2-1.5C30.55,279.69,31.05,280.37,31.05,281.69Z" transform="translate(-0.55 -0.69)" fill="#5a5a5a"/><path d="M31.05,251.69v15c0,1-.58,1.5-1.75,1.5s-1.75-.5-1.75-1.5v-15a2,2,0,0,1,2-1.5A1.33,1.33,0,0,1,31.05,251.69Z" transform="translate(-0.55 -0.69)" fill="#5a5a5a"/><path d="M31.05,222.69v14.5c0,1.34-.58,2-1.75,2s-1.75-.66-1.75-2v-15a2,2,0,0,1,2-1.5C30.55,220.69,31.05,221.37,31.05,222.69Z" transform="translate(-0.55 -0.69)" fill="#5a5a5a"/><path d="M31.05,193.19v14.5c0,1.34-.58,2-1.75,2s-1.75-.66-1.75-2v-15a2,2,0,0,1,2-1.5C30.55,191.19,31.05,191.87,31.05,193.19Z" transform="translate(-0.55 -0.69)" fill="#5a5a5a"/><path d="M31.05,163.69v14.5c0,1.34-.58,2-1.75,2s-1.75-.66-1.75-2v-14.5c.33-1.32,1-2,2-2S31.05,162.37,31.05,163.69Z" transform="translate(-0.55 -0.69)" fill="#5a5a5a"/><path d="M31.05,134.19v14.5c0,1.34-.58,2-1.75,2s-1.75-.66-1.75-2v-15a2,2,0,0,1,2-1.5C30.55,132.19,31.05,132.87,31.05,134.19Z" transform="translate(-0.55 -0.69)" fill="#5a5a5a"/><path d="M31.05,104.69v14.5c0,1.34-.58,2-1.75,2s-1.75-.66-1.75-2v-14.5c.33-1.32,1-2,2-2S31.05,103.37,31.05,104.69Z" transform="translate(-0.55 -0.69)" fill="#5a5a5a"/><path d="M31.05,75.19v15c0,1-.58,1.5-1.75,1.5s-1.75-.5-1.75-1.5v-15c.33-1.32,1-2,2-2S31.05,73.87,31.05,75.19Z" transform="translate(-0.55 -0.69)" fill="#5a5a5a"/><path d="M31.05,45.69v15c0,1.34-.58,2-1.75,2s-1.75-.66-1.75-2v-15a2,2,0,0,1,2-1.5A1.33,1.33,0,0,1,31.05,45.69Z" transform="translate(-0.55 -0.69)" fill="#5a5a5a"/></svg>