<svg id="Layer_1" data-name="Layer 1" xmlns="http://www.w3.org/2000/svg" viewBox="0 0 220.14 364"><path d="M110.22,332.44l9-17.5h-7v-7c0-1.33-.59-2-1.75-2s-1.75.67-1.75,2l-.5,7h-7Zm1.5,2c-1,0-1.5.58-1.5,1.75s.5,1.75,1.5,1.75h15c1,0,1.5-.58,1.5-1.75s-.5-1.75-1.5-1.75Zm-1.5-304.5a1.33,1.33,0,0,0,1.5,1.5h15c1,0,1.5-.58,1.5-1.75s-.5-1.75-1.5-1.75h-15C110.72,27.94,110.22,28.61,110.22,29.94Zm4,5.75a5.45,5.45,0,0,0-8,0,5.68,5.68,0,0,0-1.5,3.75,5.49,5.49,0,0,0,4,5.5l-.5,12.5a2,2,0,0,0,4,0V44.94a5.48,5.48,0,0,0,3.5-5.5A5.68,5.68,0,0,0,114.22,35.69Zm94-22.5a22.07,22.07,0,0,1,7,16.5,22.89,22.89,0,0,1-7,16.75,22.57,22.57,0,0,1-16.5,7h-55.5a2.21,2.21,0,0,0-2.5,2.5v254c0,2,.83,3,2.5,3h55.5a23,23,0,0,1,16.5,6.75,22.07,22.07,0,0,1,7,16.5,22.89,22.89,0,0,1-7,16.75,22.57,22.57,0,0,1-16.5,7h-162a16.54,16.54,0,0,1-4-.5,27.71,27.71,0,0,1-5-1.5,19.41,19.41,0,0,1-7-4.5,17.28,17.28,0,0,1-4.5-5.5,15.64,15.64,0,0,1-2-5,21,21,0,0,1-.5-12,15.51,15.51,0,0,1,2-5.5,18.82,18.82,0,0,1,3.5-5,20.88,20.88,0,0,1,7.5-5.5,22.08,22.08,0,0,1,5.5-2h59c1.66,0,2.5-1,2.5-3v-254a2.21,2.21,0,0,0-2.5-2.5H29.72a22.31,22.31,0,0,1-16.75-7A23.29,23.29,0,0,1,6.22,29.69,22.44,22.44,0,0,1,13,13.19,22.74,22.74,0,0,1,29.72,6.44h162A23,23,0,0,1,208.22,13.19Zm-23,25.25,17.5-8.5-17.5-9v7h-14.5a1.77,1.77,0,0,0-2,2c0,1,.66,1.5,2,1.5h14.5Zm0,306.5,17.5-8.5-17.5-9v7h-14.5c-1.34,0-2,.58-2,1.75s.66,1.75,2,1.75h14.5ZM157.72,29.69c0-1.17-.5-1.75-1.5-1.75h-15c-1,0-1.5.67-1.5,2a1.33,1.33,0,0,0,1.5,1.5h15C157.22,31.44,157.72,30.86,157.72,29.69Zm0,306.5c0-1.17-.5-1.75-1.5-1.75h-15c-1,0-1.5.58-1.5,1.75s.5,1.75,1.5,1.75h15C157.22,337.94,157.72,337.36,157.72,336.19Zm-45.5-42.75v-15c0-1-.59-1.5-1.75-1.5s-1.75.5-1.75,1.5l-.5,15c0,1,.66,1.5,2,1.5S112.22,294.44,112.22,293.44Zm0-29.5v-15c0-1.33-.59-2-1.75-2s-1.75.67-1.75,2l-.5,15c0,1,.66,1.5,2,1.5S112.22,264.94,112.22,263.94Zm0-29.5v-15c0-1-.59-1.5-1.75-1.5s-1.75.5-1.75,1.5l-.5,15c0,1,.66,1.5,2,1.5S112.22,235.44,112.22,234.44Zm0-29.5v-14.5c0-1.33-.59-2-1.75-2s-1.75.5-1.75,1.5l-.5,15a2,2,0,0,0,4,0Zm0-29.5v-15c0-1-.59-1.5-1.75-1.5s-1.75.5-1.75,1.5l-.5,15a2,2,0,0,0,4,0Zm0-29.5v-14.5c0-1.33-.59-2-1.75-2s-1.75.5-1.75,1.5l-.5,15a2,2,0,0,0,4,0Zm0-29.5v-14.5c0-1.33-.59-2-1.75-2s-1.75.5-1.75,1.5l-.5,15a2,2,0,0,0,4,0Zm0-29.5V72.44c0-1.33-.59-2-1.75-2s-1.75.67-1.75,2l-.5,14.5a2,2,0,0,0,4,0Zm-13-57.25c0-1.17-.67-1.75-2-1.75H82.72a1.77,1.77,0,0,0-2,2c0,1,.66,1.5,2,1.5h14.5C98.55,31.44,99.22,30.86,99.22,29.69Zm0,306.5c0-1.17-.67-1.75-2-1.75H82.72c-1.34,0-2,.58-2,1.75s.66,1.75,2,1.75h14.5C98.55,337.94,99.22,337.36,99.22,336.19ZM69.72,29.69c0-1.17-.67-1.75-2-1.75H53.22a1.77,1.77,0,0,0-2,2c0,1,.66,1.5,2,1.5h14.5C69.05,31.44,69.72,30.86,69.72,29.69Zm0,306.5c0-1.17-.67-1.75-2-1.75H53.22c-1.34,0-2,.58-2,1.75s.66,1.75,2,1.75h14.5C69.05,337.94,69.72,337.36,69.72,336.19ZM39,33.69a5.54,5.54,0,0,0,1.75-4A4.76,4.76,0,0,0,39,25.94a5.68,5.68,0,0,0-3.75-1.5,7.39,7.39,0,0,0-2.75.5,3.85,3.85,0,0,0-2,2,6.66,6.66,0,0,0-.75,3,5.68,5.68,0,0,0,1.5,3.75A4.73,4.73,0,0,0,35,35.44,5.5,5.5,0,0,0,39,33.69Zm0,306.5a5.54,5.54,0,0,0,1.75-4A4.76,4.76,0,0,0,39,332.44a6,6,0,0,0-4-1.5,5.13,5.13,0,0,0-5.25,5.25,6,6,0,0,0,1.5,4A4.73,4.73,0,0,0,35,341.94,5.5,5.5,0,0,0,39,340.19Z" transform="translate(-0.58 -0.94)" fill="#fbea23"/><path d="M212.22,9.44a27.69,27.69,0,0,1,8.5,20.25,27.69,27.69,0,0,1-8.5,20.25,27.93,27.93,0,0,1-20.5,8.5h-52.5v249h52.5a28.75,28.75,0,1,1,0,57.5h-162a18.72,18.72,0,0,1-4.5-.5,36.43,36.43,0,0,1-6.5-1.5,24.86,24.86,0,0,1-8.5-5.5,22.09,22.09,0,0,1-5.5-7,16.76,16.76,0,0,1-3-6,30.57,30.57,0,0,1-.5-14.5,37.16,37.16,0,0,1,2.5-6.5,35.69,35.69,0,0,1,4.5-7,31.9,31.9,0,0,1,9.5-6.5,27.42,27.42,0,0,1,7-2,23.33,23.33,0,0,1,4.5-.5h52v-249H29.72a27.91,27.91,0,0,1-20.5-8.5A27.65,27.65,0,0,1,.72,29.69,27.65,27.65,0,0,1,9.22,9.44,27.91,27.91,0,0,1,29.72.94h162A27.93,27.93,0,0,1,212.22,9.44Zm3,20.25a22.07,22.07,0,0,0-7-16.5,23,23,0,0,0-16.5-6.75h-162A22.74,22.74,0,0,0,13,13.19a22.44,22.44,0,0,0-6.75,16.5A23.29,23.29,0,0,0,13,46.44a22.31,22.31,0,0,0,16.75,7h54.5a2.21,2.21,0,0,1,2.5,2.5v254c0,2-.84,3-2.5,3h-59a22.08,22.08,0,0,0-5.5,2,20.88,20.88,0,0,0-7.5,5.5,18.82,18.82,0,0,0-3.5,5,15.51,15.51,0,0,0-2,5.5,21,21,0,0,0,.5,12,15.64,15.64,0,0,0,2,5,17.28,17.28,0,0,0,4.5,5.5,19.41,19.41,0,0,0,7,4.5,27.71,27.71,0,0,0,5,1.5,16.54,16.54,0,0,0,4,.5h162a22.57,22.57,0,0,0,16.5-7,22.89,22.89,0,0,0,7-16.75,22.07,22.07,0,0,0-7-16.5,23,23,0,0,0-16.5-6.75h-55.5c-1.67,0-2.5-1-2.5-3v-254a2.21,2.21,0,0,1,2.5-2.5h55.5a22.57,22.57,0,0,0,16.5-7A22.89,22.89,0,0,0,215.22,29.69Z" transform="translate(-0.58 -0.94)" fill="#1d1d1b"/><path d="M202.72,29.94l-17.5,8.5v-7h-14.5c-1.34,0-2-.5-2-1.5a1.77,1.77,0,0,1,2-2h14.5v-7Z" transform="translate(-0.58 -0.94)" fill="#5a5a5a"/><path d="M202.72,336.44l-17.5,8.5v-7h-14.5c-1.34,0-2-.58-2-1.75s.66-1.75,2-1.75h14.5v-7Z" transform="translate(-0.58 -0.94)" fill="#5a5a5a"/><path d="M156.22,27.94c1,0,1.5.58,1.5,1.75s-.5,1.75-1.5,1.75h-15a1.33,1.33,0,0,1-1.5-1.5c0-1.33.5-2,1.5-2Z" transform="translate(-0.58 -0.94)" fill="#5a5a5a"/><path d="M156.22,334.44c1,0,1.5.58,1.5,1.75s-.5,1.75-1.5,1.75h-15c-1,0-1.5-.58-1.5-1.75s.5-1.75,1.5-1.75Z" transform="translate(-0.58 -0.94)" fill="#5a5a5a"/><path d="M126.72,27.94c1,0,1.5.58,1.5,1.75s-.5,1.75-1.5,1.75h-15a1.33,1.33,0,0,1-1.5-1.5c0-1.33.5-2,1.5-2Z" transform="translate(-0.58 -0.94)" fill="#5a5a5a"/><path d="M126.72,334.44c1,0,1.5.58,1.5,1.75s-.5,1.75-1.5,1.75h-15c-1,0-1.5-.58-1.5-1.75s.5-1.75,1.5-1.75Z" transform="translate(-0.58 -0.94)" fill="#5a5a5a"/><path d="M119.22,314.94l-9,17.5-9-17.5h7l.5-7c0-1.33.58-2,1.75-2s1.75.67,1.75,2v7Z" transform="translate(-0.58 -0.94)" fill="#5a5a5a"/><path d="M115.72,39.44a5.48,5.48,0,0,1-3.5,5.5v12.5a2,2,0,0,1-4,0l.5-12.5a5.49,5.49,0,0,1-4-5.5,5.68,5.68,0,0,1,1.5-3.75,5.45,5.45,0,0,1,8,0A5.68,5.68,0,0,1,115.72,39.44Z" transform="translate(-0.58 -0.94)" fill="#5a5a5a"/><path d="M112.22,278.44v15c0,1-.67,1.5-2,1.5s-2-.5-2-1.5l.5-15c0-1,.58-1.5,1.75-1.5S112.22,277.44,112.22,278.44Z" transform="translate(-0.58 -0.94)" fill="#5a5a5a"/><path d="M112.22,248.94v15c0,1-.67,1.5-2,1.5s-2-.5-2-1.5l.5-15c0-1.33.58-2,1.75-2S112.22,247.61,112.22,248.94Z" transform="translate(-0.58 -0.94)" fill="#5a5a5a"/><path d="M112.22,219.44v15c0,1-.67,1.5-2,1.5s-2-.5-2-1.5l.5-15c0-1,.58-1.5,1.75-1.5S112.22,218.44,112.22,219.44Z" transform="translate(-0.58 -0.94)" fill="#5a5a5a"/><path d="M112.22,190.44v14.5a2,2,0,0,1-4,0l.5-15c0-1,.58-1.5,1.75-1.5S112.22,189.11,112.22,190.44Z" transform="translate(-0.58 -0.94)" fill="#5a5a5a"/><path d="M112.22,160.44v15a2,2,0,0,1-4,0l.5-15c0-1,.58-1.5,1.75-1.5S112.22,159.44,112.22,160.44Z" transform="translate(-0.58 -0.94)" fill="#5a5a5a"/><path d="M112.22,131.44v14.5a2,2,0,0,1-4,0l.5-15c0-1,.58-1.5,1.75-1.5S112.22,130.11,112.22,131.44Z" transform="translate(-0.58 -0.94)" fill="#5a5a5a"/><path d="M112.22,101.94v14.5a2,2,0,0,1-4,0l.5-15c0-1,.58-1.5,1.75-1.5S112.22,100.61,112.22,101.94Z" transform="translate(-0.58 -0.94)" fill="#5a5a5a"/><path d="M112.22,72.44v14.5a2,2,0,0,1-4,0l.5-14.5c0-1.33.58-2,1.75-2S112.22,71.11,112.22,72.44Z" transform="translate(-0.58 -0.94)" fill="#5a5a5a"/><path d="M97.22,27.94c1.33,0,2,.58,2,1.75s-.67,1.75-2,1.75H82.72c-1.34,0-2-.5-2-1.5a1.77,1.77,0,0,1,2-2Z" transform="translate(-0.58 -0.94)" fill="#5a5a5a"/><path d="M97.22,334.44c1.33,0,2,.58,2,1.75s-.67,1.75-2,1.75H82.72c-1.34,0-2-.58-2-1.75s.66-1.75,2-1.75Z" transform="translate(-0.58 -0.94)" fill="#5a5a5a"/><path d="M67.72,27.94c1.33,0,2,.58,2,1.75s-.67,1.75-2,1.75H53.22c-1.34,0-2-.5-2-1.5a1.77,1.77,0,0,1,2-2Z" transform="translate(-0.58 -0.94)" fill="#5a5a5a"/><path d="M67.72,334.44c1.33,0,2,.58,2,1.75s-.67,1.75-2,1.75H53.22c-1.34,0-2-.58-2-1.75s.66-1.75,2-1.75Z" transform="translate(-0.58 -0.94)" fill="#5a5a5a"/><path d="M40.72,29.69A6,6,0,0,1,35,35.44a4.73,4.73,0,0,1-3.75-1.75,5.68,5.68,0,0,1-1.5-3.75,6.66,6.66,0,0,1,.75-3,3.85,3.85,0,0,1,2-2,7.39,7.39,0,0,1,2.75-.5A5.68,5.68,0,0,1,39,25.94,4.76,4.76,0,0,1,40.72,29.69Z" transform="translate(-0.58 -0.94)" fill="#5a5a5a"/><path d="M40.72,336.19A6,6,0,0,1,35,341.94a4.73,4.73,0,0,1-3.75-1.75,6,6,0,0,1-1.5-4A5.13,5.13,0,0,1,35,330.94a6,6,0,0,1,4,1.5A4.76,4.76,0,0,1,40.72,336.19Z" transform="translate(-0.58 -0.94)" fill="#5a5a5a"/></svg>