<svg id="Layer_1" data-name="Layer 1" xmlns="http://www.w3.org/2000/svg" viewBox="0 0 303.77 363.5"><path d="M181,289.76a4.45,4.45,0,0,0-2,.5v-.5l-.5,1a75.17,75.17,0,0,1-5.5,13.5,2,2,0,0,0,1,2.5h.5a4.38,4.38,0,0,0,2-.5,81.67,81.67,0,0,0,5.5-14,.44.44,0,0,0,.5-.5A2,2,0,0,0,181,289.76ZM293.5,13.26a22.89,22.89,0,0,1,7,16.75,22.07,22.07,0,0,1-7,16.5A23,23,0,0,1,277,53.26H218.5a2.39,2.39,0,0,0-1.75.75,3.06,3.06,0,0,0-.75,2.25v6q.5,61,.5,106.5t-4,80.75q-4,35.25-12.5,56.75-7.5,18.51-19.5,30-23,23.5-64.5,23.5l-2-.5q-24.51,0-48.5-15a147.4,147.4,0,0,1-32.75-28.75Q18,298.26,10,281.26a22,22,0,0,1-1.5-17.75,22.76,22.76,0,0,1,12-13.75,23.25,23.25,0,0,1,10.5-2.5,17.68,17.68,0,0,1,7,1.5,23.07,23.07,0,0,1,14,11.5q5,11,15.75,23.75A109.07,109.07,0,0,0,90.5,304.76q12.5,7.5,24,8,14,.51,23.5-3.5a25.64,25.64,0,0,0,9.5-6q5-5,9-14.5,9.5-24.5,11.75-73.25T169,55.76a2.22,2.22,0,0,0-2.5-2.5h-80a22.74,22.74,0,0,1-16.75-6.75A22.44,22.44,0,0,1,63,30a23.29,23.29,0,0,1,6.75-16.75,22.35,22.35,0,0,1,16.75-7H277A22.61,22.61,0,0,1,293.5,13.26ZM259,38.76l18-9-18-8.5v6.5h-9.5c-1,0-1.5.67-1.5,2s.5,2,1.5,2H259ZM236.5,30c0-1.16-.5-1.75-1.5-1.75q-5-.5-15-.5c-1,0-1.5.67-1.5,2s.5,2,1.5,2h15C236,31.76,236.5,31.18,236.5,30Zm-29,0c0-1.16-.67-1.75-2-1.75q-5-.5-15-.5c-1,0-1.5.67-1.5,2s.5,2,1.5,2h15C206.83,31.76,207.5,31.18,207.5,30Zm-11,17.25a5.09,5.09,0,0,0,1.5-3.75,6,6,0,0,0-5.75-5.75,4.76,4.76,0,0,0-3.75,1.75,6,6,0,0,0-1.5,4,5.09,5.09,0,0,0,1.5,3.75,6.08,6.08,0,0,0,8,0ZM195,175.76v-.5a1.47,1.47,0,0,0-.5-1,2,2,0,0,0-2.25-.5c-.84.34-1.25.84-1.25,1.5v14.5a2,2,0,0,0,.5,1.5,1.4,1.4,0,0,0,1,.5,1.77,1.77,0,0,0,2-2q0-2,.25-6.75C194.91,179.85,195,177.43,195,175.76Zm0-15V146c0-1.16-.67-1.75-2-1.75a1.33,1.33,0,0,0-1.5,1.5v15c0,1,.58,1.5,1.75,1.5S195,161.76,195,160.76Zm0-29.5v-14.5a1.77,1.77,0,0,0-2-2c-.67,0-1,.17-1,.5l-.5.5v15.5c0,1.34.58,2,1.75,2S195,132.6,195,131.26Zm0-29.5v-15a2,2,0,0,0-2-1.5c-1.34.34-2,1-2,2v14.5a1.76,1.76,0,0,0,2,2C194.33,103.43,195,102.76,195,101.76Zm-.5-29.5V57.76c0-1.33-.59-2-1.75-2s-1.75.67-1.75,2v14.5a1.76,1.76,0,0,0,2,2A2,2,0,0,0,194.5,72.26Zm-.5,132.5c.33-.33.16-.83-.5-1.5a1.47,1.47,0,0,0-1-.5c-1.34,0-2,.5-2,1.5q-.51,10-1,15c0,1,.66,1.67,2,2,1,0,1.66-.66,2-2Q194,211.27,194,204.76Zm-1.5,29.5c0-1.33-.5-2-1.5-2-1.34,0-2,.5-2,1.5q-.51,5.51-1.5,14.5v1.5a3.67,3.67,0,0,0,1.5.5c1.33,0,2-.5,2-1.5Q192,240.77,192.5,234.26Zm-3.5,29c.33-1.33-.17-2-1.5-2-1.34-.33-2,.17-2,1.5q-.51,3-3,14.5a2,2,0,0,0,1.5,2h.5a2,2,0,0,0,2-1.5Q188,270.77,189,263.26ZM178,30c0-1.16-.67-1.75-2-1.75q-5-.5-14.5-.5a1.77,1.77,0,0,0-2,2,1.76,1.76,0,0,0,2,2H176C177.33,31.76,178,31.18,178,30ZM168,318.76a3.83,3.83,0,0,0,.5-1.5,1.62,1.62,0,0,0-1-1.5c-.67-.66-1.5-.66-2.5,0a49.05,49.05,0,0,1-10.5,9.5c-1.34.67-1.5,1.5-.5,2.5a2,2,0,0,0,1.5.5h1A75.16,75.16,0,0,0,168,318.76ZM148.5,30c0-1.16-.67-1.75-2-1.75q-5-.5-14.5-.5a1.77,1.77,0,0,0-2,2,1.76,1.76,0,0,0,2,2h14.5C147.83,31.76,148.5,31.18,148.5,30ZM144,332.76v-.5a2.94,2.94,0,0,0-2.5-1.5,72.33,72.33,0,0,1-14,3,1.77,1.77,0,0,0-2,2,2,2,0,0,0,2,1.5h.5a72.7,72.7,0,0,0,14.5-3Q144,333.77,144,332.76ZM119,30c0-1.16-.67-1.75-2-1.75q-5.5-.5-14.5-.5a1.77,1.77,0,0,0-2,2,1.76,1.76,0,0,0,2,2H117C118.33,31.76,119,31.18,119,30Zm-4,306.25a1.77,1.77,0,0,0-2-2,67.87,67.87,0,0,1-14-2.5,2.93,2.93,0,0,0-2.5,1.5c0,1.34.5,2,1.5,2a69.73,69.73,0,0,0,15,2.5C114.33,337.76,115,337.26,115,336.26ZM97.5,29.76a4.51,4.51,0,0,0-.5-2,6.54,6.54,0,0,0-3-3,4.51,4.51,0,0,0-2-.5A6.66,6.66,0,0,0,89,25a3.89,3.89,0,0,0-2,2,7.23,7.23,0,0,0-.5,2.75,5.4,5.4,0,0,0,1.5,4,5.09,5.09,0,0,0,3.75,1.5,6,6,0,0,0,4-1.5A5,5,0,0,0,97.5,29.76Zm-11,298.5c.33-.66,0-1.16-1-1.5a91.16,91.16,0,0,1-12-7.5,1.6,1.6,0,0,0-2.5.5,1.43,1.43,0,0,0-.5,1,2,2,0,0,0,.5,1.5q7.5,5,13,8h1a1.61,1.61,0,0,0,1.5-1Zm-23.5-17a1.47,1.47,0,0,0-.5-1,108.91,108.91,0,0,1-10.5-11c-.67-.66-1.5-.66-2.5,0a2,2,0,0,0-.5,1.5,3.67,3.67,0,0,0,.5,1.5q6,6.51,10,10.5a3.67,3.67,0,0,0,1.5.5,3.76,3.76,0,0,0,1.5-.5A3.83,3.83,0,0,0,63,311.26Zm-21.5-25.5,6-3.5L31,271.76l1,19.5,6.5-3.5a2,2,0,0,0,.75,1.25,2.06,2.06,0,0,1,.75,1.25c.66.67,1.16,1,1.5,1a1.43,1.43,0,0,0,1-.5,1.61,1.61,0,0,0,1-1.5c0-.66-.17-1-.5-1A28.11,28.11,0,0,0,41.5,285.76Z" transform="translate(-1.73 -1.26)" fill="#fbea23"/><path d="M297.25,9.51a27.53,27.53,0,0,1,8.25,20.25,28.36,28.36,0,0,1-8.25,20.5A27.11,27.11,0,0,1,277,58.76H221.5v3.5q.5,61,.5,107t-4.25,81.5q-4.26,35.5-13.25,57.5-7.5,19.5-20.5,32-24.51,24.51-68,24.5h-2q-26.5-.5-51-16A151.78,151.78,0,0,1,28.75,319Q13.49,301.27,5,283.76A26.8,26.8,0,0,1,3.25,262a28.23,28.23,0,0,1,14.5-16.75,27.48,27.48,0,0,1,22-1.75A28.12,28.12,0,0,1,56.5,258.26q2.49,4,6,9.5a136.09,136.09,0,0,0,8.25,11.5,104,104,0,0,0,22.75,21q11,7,21,7,14.49,0,21.5-3a16.53,16.53,0,0,0,7.5-5q4.5-4,8-12.5Q161,263.27,163,215t1-156.25H86.5A27.91,27.91,0,0,1,66,50.26a27.91,27.91,0,0,1-8.5-20.5A27.11,27.11,0,0,1,66,9.51,28.36,28.36,0,0,1,86.5,1.26H277A27.53,27.53,0,0,1,297.25,9.51ZM300.5,30a22.89,22.89,0,0,0-7-16.75,22.61,22.61,0,0,0-16.5-7H86.5a22.35,22.35,0,0,0-16.75,7A23.29,23.29,0,0,0,63,30a22.44,22.44,0,0,0,6.75,16.5A22.74,22.74,0,0,0,86.5,53.26h80a2.22,2.22,0,0,1,2.5,2.5q1.5,111-.75,159.75T156.5,288.76q-4,9.51-9,14.5a25.64,25.64,0,0,1-9.5,6q-9.51,4-23.5,3.5-11.5-.5-24-8A109.07,109.07,0,0,1,67.75,284Q57,271.26,52,260.26a23.07,23.07,0,0,0-14-11.5,17.68,17.68,0,0,0-7-1.5,23.25,23.25,0,0,0-10.5,2.5,22.76,22.76,0,0,0-12,13.75A22,22,0,0,0,10,281.26q8,17,22.75,34.25A147.4,147.4,0,0,0,65.5,344.26q24,15,48.5,15l2,.5q41.49,0,64.5-23.5,12-11.49,19.5-30,8.49-21.5,12.5-56.75t4-80.75q0-45.49-.5-106.5v-6a3.06,3.06,0,0,1,.75-2.25,2.39,2.39,0,0,1,1.75-.75H277a23,23,0,0,0,16.5-6.75A22.07,22.07,0,0,0,300.5,30Z" transform="translate(-1.73 -1.26)" fill="#1d1d1b"/><path d="M277,29.76l-18,9v-7h-9.5c-1,0-1.5-.66-1.5-2s.5-2,1.5-2H259v-6.5Z" transform="translate(-1.73 -1.26)" fill="#5a5a5a"/><path d="M235,28.26c1,0,1.5.59,1.5,1.75s-.5,1.75-1.5,1.75H220c-1,0-1.5-.66-1.5-2s.5-2,1.5-2Q230,27.76,235,28.26Z" transform="translate(-1.73 -1.26)" fill="#5a5a5a"/><path d="M205.5,28.26c1.33,0,2,.59,2,1.75s-.67,1.75-2,1.75h-15c-1,0-1.5-.66-1.5-2s.5-2,1.5-2Q200.49,27.76,205.5,28.26Z" transform="translate(-1.73 -1.26)" fill="#5a5a5a"/><path d="M198,43.51a5.09,5.09,0,0,1-1.5,3.75,6.08,6.08,0,0,1-8,0,5.09,5.09,0,0,1-1.5-3.75,6,6,0,0,1,1.5-4,4.76,4.76,0,0,1,3.75-1.75A6,6,0,0,1,198,43.51Z" transform="translate(-1.73 -1.26)" fill="#5a5a5a"/><path d="M195,175.26v.5c0,1.67-.09,4.09-.25,7.25s-.25,5.42-.25,6.75a1.77,1.77,0,0,1-2,2,1.4,1.4,0,0,1-1-.5,2,2,0,0,1-.5-1.5v-14.5c0-.66.41-1.16,1.25-1.5a2,2,0,0,1,2.25.5A1.47,1.47,0,0,1,195,175.26Z" transform="translate(-1.73 -1.26)" fill="#5a5a5a"/><path d="M195,158.26v2.5c0,1-.59,1.5-1.75,1.5s-1.75-.5-1.75-1.5v-15a1.33,1.33,0,0,1,1.5-1.5c1.33,0,2,.59,2,1.75v12.25Z" transform="translate(-1.73 -1.26)" fill="#5a5a5a"/><path d="M195,116.76v14.5c0,1.34-.59,2-1.75,2s-1.75-.66-1.75-2v-15.5l.5-.5c0-.33.33-.5,1-.5A1.77,1.77,0,0,1,195,116.76Z" transform="translate(-1.73 -1.26)" fill="#5a5a5a"/><path d="M195,86.76v15c0,1-.67,1.67-2,2a1.76,1.76,0,0,1-2-2V87.26c0-1,.66-1.66,2-2A2,2,0,0,1,195,86.76Z" transform="translate(-1.73 -1.26)" fill="#5a5a5a"/><path d="M194.5,66.26v6a2,2,0,0,1-1.5,2,1.76,1.76,0,0,1-2-2V57.76c0-1.33.58-2,1.75-2s1.75.67,1.75,2Z" transform="translate(-1.73 -1.26)" fill="#5a5a5a"/><path d="M193.5,203.26c.66.67.83,1.17.5,1.5q0,6.51-.5,14.5c-.34,1.34-1,2-2,2-1.34-.33-2-1-2-2q.5-5,1-15c0-1,.66-1.5,2-1.5A1.47,1.47,0,0,1,193.5,203.26Z" transform="translate(-1.73 -1.26)" fill="#5a5a5a"/><path d="M191,232.26c1,0,1.5.67,1.5,2q-.51,6.51-1.5,14.5c0,1-.67,1.5-2,1.5a3.67,3.67,0,0,1-1.5-.5v-1.5q1-9,1.5-14.5C189,232.76,189.66,232.26,191,232.26Z" transform="translate(-1.73 -1.26)" fill="#5a5a5a"/><path d="M187.5,261.26c1.33,0,1.83.67,1.5,2q-1,7.5-2.5,14.5a2,2,0,0,1-2,1.5H184a2,2,0,0,1-1.5-2q2.49-11.49,3-14.5C185.5,261.43,186.16,260.93,187.5,261.26Z" transform="translate(-1.73 -1.26)" fill="#5a5a5a"/><path d="M182.5,291.76a.44.44,0,0,1-.5.5,81.67,81.67,0,0,1-5.5,14,4.38,4.38,0,0,1-2,.5H174a2,2,0,0,1-1-2.5,75.17,75.17,0,0,0,5.5-13.5l.5-1v.5a4.45,4.45,0,0,1,2-.5A2,2,0,0,1,182.5,291.76Z" transform="translate(-1.73 -1.26)" fill="#5a5a5a"/><path d="M176,28.26c1.33,0,2,.59,2,1.75s-.67,1.75-2,1.75H161.5a1.76,1.76,0,0,1-2-2,1.77,1.77,0,0,1,2-2Q171,27.76,176,28.26Z" transform="translate(-1.73 -1.26)" fill="#5a5a5a"/><path d="M167.5,315.76a1.62,1.62,0,0,1,1,1.5,3.83,3.83,0,0,1-.5,1.5,75.16,75.16,0,0,1-11.5,9.5h-1a2,2,0,0,1-1.5-.5c-1-1-.84-1.83.5-2.5a49.05,49.05,0,0,0,10.5-9.5C166,315.1,166.83,315.1,167.5,315.76Z" transform="translate(-1.73 -1.26)" fill="#5a5a5a"/><path d="M146.5,28.26c1.33,0,2,.59,2,1.75s-.67,1.75-2,1.75H132a1.76,1.76,0,0,1-2-2,1.77,1.77,0,0,1,2-2Q141.5,27.76,146.5,28.26Z" transform="translate(-1.73 -1.26)" fill="#5a5a5a"/><path d="M144,332.26v.5q0,1-1.5,1.5a72.7,72.7,0,0,1-14.5,3h-.5a2,2,0,0,1-2-1.5,1.77,1.77,0,0,1,2-2,72.33,72.33,0,0,0,14-3A2.94,2.94,0,0,1,144,332.26Z" transform="translate(-1.73 -1.26)" fill="#5a5a5a"/><path d="M117,28.26c1.33,0,2,.59,2,1.75s-.67,1.75-2,1.75H102.5a1.76,1.76,0,0,1-2-2,1.77,1.77,0,0,1,2-2Q111.5,27.76,117,28.26Z" transform="translate(-1.73 -1.26)" fill="#5a5a5a"/><path d="M114.5,334.76a2.07,2.07,0,0,1,.5,1.5c0,1-.67,1.5-2,1.5a69.73,69.73,0,0,1-15-2.5c-1,0-1.5-.66-1.5-2a2.93,2.93,0,0,1,2.5-1.5,67.87,67.87,0,0,0,14,2.5A2.07,2.07,0,0,1,114.5,334.76Z" transform="translate(-1.73 -1.26)" fill="#5a5a5a"/><path d="M97,27.76a4.51,4.51,0,0,1,.5,2,5,5,0,0,1-1.75,4,6,6,0,0,1-4,1.5A5.09,5.09,0,0,1,88,33.76a5.4,5.4,0,0,1-1.5-4A7.23,7.23,0,0,1,87,27a3.89,3.89,0,0,1,2-2,6.66,6.66,0,0,1,3-.75,4.51,4.51,0,0,1,2,.5,6.54,6.54,0,0,1,3,3Z" transform="translate(-1.73 -1.26)" fill="#5a5a5a"/><path d="M85.5,326.76c1,.34,1.33.84,1,1.5v1a1.61,1.61,0,0,1-1.5,1H84q-5.5-3-13-8a2,2,0,0,1-.5-1.5,1.43,1.43,0,0,1,.5-1,1.6,1.6,0,0,1,2.5-.5A91.16,91.16,0,0,0,85.5,326.76Z" transform="translate(-1.73 -1.26)" fill="#5a5a5a"/><path d="M52,299.26a108.91,108.91,0,0,0,10.5,11,1.47,1.47,0,0,1,.5,1,3.83,3.83,0,0,1-.5,1.5,3.76,3.76,0,0,1-1.5.5,3.67,3.67,0,0,1-1.5-.5q-4-4-10-10.5a3.67,3.67,0,0,1-.5-1.5,2,2,0,0,1,.5-1.5C50.5,298.6,51.33,298.6,52,299.26Z" transform="translate(-1.73 -1.26)" fill="#5a5a5a"/><path d="M47.5,282.26l-6,3.5a28.11,28.11,0,0,1,1.5,2.5c.33,0,.5.34.5,1a1.61,1.61,0,0,1-1,1.5,1.43,1.43,0,0,1-1,.5c-.34,0-.84-.33-1.5-1a2.06,2.06,0,0,0-.75-1.25,2,2,0,0,1-.75-1.25l-6.5,3.5-1-19.5Z" transform="translate(-1.73 -1.26)" fill="#5a5a5a"/></svg>