<svg id="Layer_1" data-name="Layer 1" xmlns="http://www.w3.org/2000/svg" viewBox="0 0 241.66 367.5"><path d="M47.79,189.3q-4-4-7.75.25t.75,7.75q3,3,6.5.5c.33,0,.83-.33,1.5-1v-1C50.12,193.13,49.79,191,47.79,189.3ZM40,183.8q3.75,4,7.75.5a4.73,4.73,0,0,0,1.5-6,75,75,0,0,1,6-5.5l.5-.5a1,1,0,0,0,.5-1.5v-1c-1-1-1.84-1-2.5,0a37.31,37.31,0,0,0-3.75,3,19,19,0,0,1-3.25,2.5,5.26,5.26,0,0,0-6.5.5Q36.28,179.81,40,183.8ZM237,338.55a22.74,22.74,0,0,1-5.75,17.25,36.24,36.24,0,0,1-8,6q-14,6-25-4l-141-122a2.07,2.07,0,0,0-1.5-.5h-1a2.94,2.94,0,0,0-1.5,2.5v98.5a22.61,22.61,0,0,1-7,16.5,23.78,23.78,0,0,1-16.75,6.5,23.76,23.76,0,0,1-16.75-6.5,23.43,23.43,0,0,1-6.5-16.5V29.8a23.43,23.43,0,0,1,6.5-16.5A23.76,23.76,0,0,1,29.54,6.8a23.78,23.78,0,0,1,16.75,6.5,22.61,22.61,0,0,1,7,16.5V135.3a2.8,2.8,0,0,0,1.5,2.75,1.77,1.77,0,0,0,2.5-.75l141-122,3-2a34.81,34.81,0,0,1,5-2.5,21.51,21.51,0,0,1,8.5-1.5,51.77,51.77,0,0,1,7,1.5,17.88,17.88,0,0,1,5.5,3,24.94,24.94,0,0,1,8,9.5,29.69,29.69,0,0,1,1.5,5,49.94,49.94,0,0,1,.5,7,24.17,24.17,0,0,1-3,9,31.08,31.08,0,0,1-5,6.5l-154.5,134a1.79,1.79,0,0,0-1,1.75,3.11,3.11,0,0,0,1,2.25l154,133.5A23.1,23.1,0,0,1,237,338.55ZM213.29,44.8l7.5-18-19,5,4.5,5q-6,5.51-8,7.5c-.34,0-.67.33-1,1a2,2,0,0,0,.5,1.5,3.83,3.83,0,0,0,1.5.5,1.47,1.47,0,0,0,1-.5l4.5-3.5a48.36,48.36,0,0,1,4-3.5Zm0,295.5-7.5-18.5-4.5,5.5L199,325.05c-.84-.83-1.84-1.75-3-2.75a35.38,35.38,0,0,0-3.25-2.5c-.67-.67-1.5-.5-2.5.5-.34,0-.5.33-.5,1a2,2,0,0,0,.5,1.5,23.05,23.05,0,0,1,3.75,3,40.16,40.16,0,0,0,4.25,3.5,1.45,1.45,0,0,1,.5,1l-4.5,5Zm-23.5-285V53.8c-1-.67-1.84-.67-2.5,0v-.5l-3,2.5c-1,1-2.59,2.42-4.75,4.25s-3.42,2.92-3.75,3.25a2,2,0,0,0-.5,1.5c-.34.33-.25.75.25,1.25a2,2,0,0,0,1.25.75,3.93,3.93,0,0,0,1.5-.5q3.5-3,5.5-4.5a4.87,4.87,0,0,1,1.5-1.75,19.4,19.4,0,0,0,2-1.75l2-2A1.45,1.45,0,0,0,189.79,55.3Zm-7.5,256.5a3.93,3.93,0,0,0-.5-1.5,12,12,0,0,1-2.75-2.25,12.44,12.44,0,0,0-2.75-2.25q-4-3.49-5.5-5a1.88,1.88,0,0,0-3,0v1.5a1.41,1.41,0,0,0,.5,1c1,1,2.16,2.08,3.5,3.25l4,3.5q2,1.76,3.5,3.25h1.5a1.47,1.47,0,0,0,1-.5A1.45,1.45,0,0,0,182.29,311.8ZM167.79,74.55a1.7,1.7,0,0,0-.5-1.25,1.64,1.64,0,0,0-2-.5h-.5q-2.5,2.51-9,8l-2,2a1.59,1.59,0,0,0-1,1.5,1.41,1.41,0,0,0,.5,1c.33.67.75,1,1.25,1s.91-.33,1.25-1q5.49-4.5,8-7l3.5-2.5A1.7,1.7,0,0,0,167.79,74.55Zm-7.5,217.75a2,2,0,0,0-.5-1.5h-.5c-.67-.67-1.59-1.5-2.75-2.5s-2.25-1.92-3.25-2.75-1.84-1.58-2.5-2.25l-2.5-2c-.67-.67-1.5-.67-2.5,0a2.5,2.5,0,0,0,0,3l2.5,2,9,7.5a1.44,1.44,0,0,0,1,.5,2.07,2.07,0,0,0,1.5-.5A3.93,3.93,0,0,0,160.29,292.3Zm-15-198.5a1.45,1.45,0,0,0-.5-1,1.59,1.59,0,0,0-2.5-.5,50.31,50.31,0,0,1-5,4.5c-.67.67-1.67,1.58-3,2.75a17,17,0,0,1-3,2.25,2,2,0,0,0-.5,1.5,3.76,3.76,0,0,0,.5,1.5,2,2,0,0,0,1.5.5,1.47,1.47,0,0,0,1-.5l1-1c1-1,2.66-2.5,5-4.5a62.68,62.68,0,0,1,5-4A2,2,0,0,0,145.29,93.8Zm-7,179c0-.33-.34-.67-1-1l-.5-.5c-2.67-2.33-4.17-3.67-4.5-4a58.16,58.16,0,0,1-6-5c-1-1-1.84-1-2.5,0a2,2,0,0,0-.5,1.5,1.41,1.41,0,0,0,.5,1c.66.67,1.75,1.67,3.25,3a18.56,18.56,0,0,0,3.25,2.5,16.76,16.76,0,0,0,4.5,4,2,2,0,0,0,1.5.5,1.47,1.47,0,0,0,1-.5C137.62,274.3,138,273.8,138.29,272.8Zm-15-159.5a3.93,3.93,0,0,0-.5-1.5c-.67-.67-1.5-.67-2.5,0a35.27,35.27,0,0,0-5.5,4.5q-3.51,3-6,5c-.67.67-.67,1.5,0,2.5a2,2,0,0,0,1.5.5h1a27.44,27.44,0,0,1,3-2.5,29.54,29.54,0,0,0,3-2.5,56.38,56.38,0,0,1,5.5-5A1.45,1.45,0,0,0,123.29,113.3Zm-7.5,140.5a3.93,3.93,0,0,0-.5-1.5h-.5a22.15,22.15,0,0,0-4-4,38,38,0,0,0-3.25-2.75c-1.5-1.17-2.75-2.08-3.75-2.75s-1.84-.67-2.5,0a2.17,2.17,0,0,0,.5,3l3.5,2.5q4.5,4.5,7.5,7a1.44,1.44,0,0,0,1,.5,3.93,3.93,0,0,0,1.5-.5A3.93,3.93,0,0,0,115.79,253.8Zm-15.5-120c.66-.67,1-1.17,1-1.5s-.34-.67-1-1a1.59,1.59,0,0,0-2.5-.5c-1.34,1.33-3.25,3.08-5.75,5.25s-4.25,3.67-5.25,4.5-1,1.75,0,2.75a1.44,1.44,0,0,0,1,.5,2.07,2.07,0,0,0,1.5-.5q2-1.5,5.5-4.5c.66-.67,1.58-1.5,2.75-2.5S99.62,134.47,100.29,133.8Zm-7,102v-1a2,2,0,0,0-.5-1.5c-1.34-1.33-3.25-3.08-5.75-5.25s-4.25-3.75-5.25-4.75a1.59,1.59,0,0,0-2.5.5c-.67.67-.67,1.5,0,2.5a9.45,9.45,0,0,1,2.25,1.75l2.25,2.25a7.52,7.52,0,0,0,2,1.5,42.32,42.32,0,0,0,5,4c0,.33.25.5.75.5A4.09,4.09,0,0,0,93.29,235.8Zm-14.5-84.25a1.7,1.7,0,0,0-.5-1.25c-.67-.67-1.5-.67-2.5,0-.34.33-1.84,1.67-4.5,4q-5.51,4.5-6.5,5.5a2.17,2.17,0,0,0-.5,3,2,2,0,0,0,1.5.5,1.47,1.47,0,0,0,1-.5,37.31,37.31,0,0,0,3.75-3q2.25-2,3.25-3,.49-.5,4-3.5h.5v-.5A1.7,1.7,0,0,0,78.79,151.55Zm-8,64.75a1.45,1.45,0,0,0,.5-1,3.93,3.93,0,0,0-.5-1.5q-2-1.5-4-3.25l-4-3.5a35.76,35.76,0,0,0-3.5-2.75c-1-1-1.84-1-2.5,0a1.59,1.59,0,0,0,.5,2.5c.33.33,1.16,1.08,2.5,2.25s2.33,2.08,3,2.75a57,57,0,0,0,5.5,4.5v.5h1A2.07,2.07,0,0,0,70.79,216.3Zm-41,127.5,8.5-17.5h-7V311.8c0-1.33-.59-2-1.75-2s-1.75.67-1.75,2v14.5h-7Zm5.5-315.25a5.54,5.54,0,0,0-1.75-4,5.5,5.5,0,0,0-4-1.75,4.73,4.73,0,0,0-3.75,1.75,6,6,0,0,0-1.5,4,5.13,5.13,0,0,0,5.25,5.25,6,6,0,0,0,4-1.5A4.76,4.76,0,0,0,35.29,28.55Zm-4,268.25V282.3c0-1.33-.59-2-1.75-2s-1.75.67-1.75,2v14.5c0,1.33.58,2,1.75,2S31.29,298.13,31.29,296.8Zm0-29.5V252.8c0-1.33-.59-2-1.75-2s-1.75.67-1.75,2v14.5c0,1.33.58,2,1.75,2S31.29,268.63,31.29,267.3Zm0-29.5V223.3c0-1.33-.59-2-1.75-2s-1.75.67-1.75,2v14.5c0,1.33.58,2,1.75,2S31.29,239.13,31.29,237.8Zm0-29.5V193.8c0-1.33-.59-2-1.75-2s-1.75.67-1.75,2v14.5c0,1.33.58,2,1.75,2S31.29,209.63,31.29,208.3Zm0-29v-15c0-1-.59-1.5-1.75-1.5s-1.75.5-1.75,1.5v15c0,1,.58,1.5,1.75,1.5S31.29,180.3,31.29,179.3Zm0-29.5v-15c0-1.33-.59-2-1.75-2s-1.75.67-1.75,2v15c0,1,.58,1.5,1.75,1.5S31.29,150.8,31.29,149.8Zm0-29.5v-15c0-1-.59-1.5-1.75-1.5s-1.75.5-1.75,1.5v15c0,1,.58,1.5,1.75,1.5S31.29,121.3,31.29,120.3Zm0-29.5V76.3c0-1.33-.59-2-1.75-2s-1.75.67-1.75,2V90.8c0,1.33.58,2,1.75,2S31.29,92.13,31.29,90.8Zm0-29.5V46.8c0-1.33-.59-2-1.75-2s-1.75.67-1.75,2V61.3c0,1.33.58,2,1.75,2S31.29,62.63,31.29,61.3Z" transform="translate(-0.79 -1.3)" fill="#fbea23"/><path d="M242.29,338.3a27,27,0,0,1-7,21,27.66,27.66,0,0,1-9.75,7,30.54,30.54,0,0,1-12.25,2.5,27.28,27.28,0,0,1-18.5-7l-136.5-118v92.5a27.15,27.15,0,0,1-8.5,20.25,28.08,28.08,0,0,1-20.25,8.25,28,28,0,0,1-20.25-8.25A27.11,27.11,0,0,1,.79,336.3V29.8a27.35,27.35,0,0,1,8.5-20A27.62,27.62,0,0,1,29.54,1.3,27.65,27.65,0,0,1,49.79,9.8a27.39,27.39,0,0,1,8.5,20v100L194.79,11.3a13.31,13.31,0,0,1,3.5-2.5,25.49,25.49,0,0,1,6-3,23.73,23.73,0,0,1,10.5-1.5,28.31,28.31,0,0,1,9,1.5,40.72,40.72,0,0,1,6.5,3.5,26.47,26.47,0,0,1,9.5,11.5,21.31,21.31,0,0,1,2,6.5,24.16,24.16,0,0,1,.5,8.5,28.35,28.35,0,0,1-3.5,11,23.13,23.13,0,0,1-6,8l-152.5,132,152,131.5A29.08,29.08,0,0,1,242.29,338.3Zm-11,17.5A22.74,22.74,0,0,0,237,338.55a23.1,23.1,0,0,0-8.25-16.25l-154-133.5a3.11,3.11,0,0,1-1-2.25,1.79,1.79,0,0,1,1-1.75l154.5-134a31.08,31.08,0,0,0,5-6.5,24.17,24.17,0,0,0,3-9,49.94,49.94,0,0,0-.5-7,29.69,29.69,0,0,0-1.5-5,24.94,24.94,0,0,0-8-9.5,17.88,17.88,0,0,0-5.5-3,51.77,51.77,0,0,0-7-1.5,21.51,21.51,0,0,0-8.5,1.5,34.81,34.81,0,0,0-5,2.5l-3,2-141,122a1.77,1.77,0,0,1-2.5.75,2.8,2.8,0,0,1-1.5-2.75V29.8a22.61,22.61,0,0,0-7-16.5A23.78,23.78,0,0,0,29.54,6.8a23.76,23.76,0,0,0-16.75,6.5,23.43,23.43,0,0,0-6.5,16.5V336.3a23.43,23.43,0,0,0,6.5,16.5,23.76,23.76,0,0,0,16.75,6.5,23.78,23.78,0,0,0,16.75-6.5,22.61,22.61,0,0,0,7-16.5V237.8a2.94,2.94,0,0,1,1.5-2.5h1a2.07,2.07,0,0,1,1.5.5l141,122q11,10,25,4A36.24,36.24,0,0,0,231.29,355.8Z" transform="translate(-0.79 -1.3)" fill="#1d1d1b"/><path d="M220.79,26.8l-7.5,18-4.5-5a48.36,48.36,0,0,0-4,3.5l-4.5,3.5a1.47,1.47,0,0,1-1,.5,3.83,3.83,0,0,1-1.5-.5,2,2,0,0,1-.5-1.5c.33-.67.66-1,1-1q2-2,8-7.5l-4.5-5Z" transform="translate(-0.79 -1.3)" fill="#5a5a5a"/><path d="M205.79,321.8l7.5,18.5-19-5,4.5-5a1.45,1.45,0,0,0-.5-1,40.16,40.16,0,0,1-4.25-3.5,23.05,23.05,0,0,0-3.75-3,2,2,0,0,1-.5-1.5c0-.67.16-1,.5-1,1-1,1.83-1.17,2.5-.5a35.38,35.38,0,0,1,3.25,2.5c1.16,1,2.16,1.92,3,2.75l2.25,2.25Z" transform="translate(-0.79 -1.3)" fill="#5a5a5a"/><path d="M189.79,53.8v1.5a1.45,1.45,0,0,1-.5,1l-2,2a19.4,19.4,0,0,1-2,1.75,4.87,4.87,0,0,0-1.5,1.75q-2,1.5-5.5,4.5a3.93,3.93,0,0,1-1.5.5,2,2,0,0,1-1.25-.75c-.5-.5-.59-.92-.25-1.25a2,2,0,0,1,.5-1.5c.33-.33,1.58-1.42,3.75-3.25s3.75-3.25,4.75-4.25l3-2.5v.5C188,53.13,188.79,53.13,189.79,53.8Z" transform="translate(-0.79 -1.3)" fill="#5a5a5a"/><path d="M181.79,310.3a3.93,3.93,0,0,1,.5,1.5,1.45,1.45,0,0,1-.5,1,1.47,1.47,0,0,1-1,.5h-1.5q-1.5-1.5-3.5-3.25l-4-3.5c-1.34-1.17-2.5-2.25-3.5-3.25a1.41,1.41,0,0,1-.5-1v-1.5a1.88,1.88,0,0,1,3,0q1.5,1.5,5.5,5a12.44,12.44,0,0,1,2.75,2.25A12,12,0,0,0,181.79,310.3Z" transform="translate(-0.79 -1.3)" fill="#5a5a5a"/><path d="M167.29,73.3a1.81,1.81,0,0,1,0,2.5l-3.5,2.5q-2.5,2.51-8,7c-.34.67-.75,1-1.25,1s-.92-.33-1.25-1a1.41,1.41,0,0,1-.5-1,1.59,1.59,0,0,1,1-1.5l2-2q6.5-5.51,9-8h.5A1.64,1.64,0,0,1,167.29,73.3Z" transform="translate(-0.79 -1.3)" fill="#5a5a5a"/><path d="M159.79,290.8a2,2,0,0,1,.5,1.5,3.93,3.93,0,0,1-.5,1.5,2.07,2.07,0,0,1-1.5.5,1.44,1.44,0,0,1-1-.5l-9-7.5-2.5-2a2.5,2.5,0,0,1,0-3c1-.67,1.83-.67,2.5,0l2.5,2c.66.67,1.5,1.42,2.5,2.25s2.08,1.75,3.25,2.75,2.08,1.83,2.75,2.5Z" transform="translate(-0.79 -1.3)" fill="#5a5a5a"/><path d="M144.79,92.8a1.45,1.45,0,0,1,.5,1,2,2,0,0,1-.5,1.5,62.68,62.68,0,0,0-5,4c-2.34,2-4,3.5-5,4.5l-1,1a1.47,1.47,0,0,1-1,.5,2,2,0,0,1-1.5-.5,3.76,3.76,0,0,1-.5-1.5,2,2,0,0,1,.5-1.5,17,17,0,0,0,3-2.25c1.33-1.17,2.33-2.08,3-2.75a50.31,50.31,0,0,0,5-4.5A1.59,1.59,0,0,1,144.79,92.8Z" transform="translate(-0.79 -1.3)" fill="#5a5a5a"/><path d="M137.29,271.8c.66.33,1,.67,1,1-.34,1-.67,1.5-1,1.5a1.47,1.47,0,0,1-1,.5,2,2,0,0,1-1.5-.5,16.76,16.76,0,0,1-4.5-4,18.56,18.56,0,0,1-3.25-2.5c-1.5-1.33-2.59-2.33-3.25-3a1.41,1.41,0,0,1-.5-1,2,2,0,0,1,.5-1.5c.66-1,1.5-1,2.5,0a58.16,58.16,0,0,0,6,5c.33.33,1.83,1.67,4.5,4Z" transform="translate(-0.79 -1.3)" fill="#5a5a5a"/><path d="M122.79,111.8a3.93,3.93,0,0,1,.5,1.5,1.45,1.45,0,0,1-.5,1,56.38,56.38,0,0,0-5.5,5,29.54,29.54,0,0,1-3,2.5,27.44,27.44,0,0,0-3,2.5h-1a2,2,0,0,1-1.5-.5c-.67-1-.67-1.83,0-2.5q2.49-2,6-5a35.27,35.27,0,0,1,5.5-4.5C121.29,111.13,122.12,111.13,122.79,111.8Z" transform="translate(-0.79 -1.3)" fill="#5a5a5a"/><path d="M115.29,252.3a2.5,2.5,0,0,1,0,3,3.93,3.93,0,0,1-1.5.5,1.44,1.44,0,0,1-1-.5q-3-2.51-7.5-7l-3.5-2.5a2.17,2.17,0,0,1-.5-3c.66-.67,1.5-.67,2.5,0s2.25,1.58,3.75,2.75a38,38,0,0,1,3.25,2.75,22.15,22.15,0,0,1,4,4Z" transform="translate(-0.79 -1.3)" fill="#5a5a5a"/><path d="M101.29,132.3c0,.33-.34.83-1,1.5s-1.59,1.5-2.75,2.5-2.09,1.83-2.75,2.5q-3.51,3-5.5,4.5a2.07,2.07,0,0,1-1.5.5,1.44,1.44,0,0,1-1-.5c-1-1-1-1.92,0-2.75s2.75-2.33,5.25-4.5,4.41-3.92,5.75-5.25a1.59,1.59,0,0,1,2.5.5C101,131.63,101.29,132,101.29,132.3Z" transform="translate(-0.79 -1.3)" fill="#5a5a5a"/><path d="M93.29,234.8v1a4.09,4.09,0,0,1-1.75.5c-.5,0-.75-.17-.75-.5a42.32,42.32,0,0,1-5-4,7.52,7.52,0,0,1-2-1.5l-2.25-2.25a9.45,9.45,0,0,0-2.25-1.75c-.67-1-.67-1.83,0-2.5a1.59,1.59,0,0,1,2.5-.5q1.5,1.5,5.25,4.75c2.5,2.17,4.41,3.92,5.75,5.25A2,2,0,0,1,93.29,234.8Z" transform="translate(-0.79 -1.3)" fill="#5a5a5a"/><path d="M78.29,150.3a1.81,1.81,0,0,1,0,2.5v.5h-.5q-3.51,3-4,3.5-1,1-3.25,3a37.31,37.31,0,0,1-3.75,3,1.47,1.47,0,0,1-1,.5,2,2,0,0,1-1.5-.5,2.17,2.17,0,0,1,.5-3q1-1,6.5-5.5c2.66-2.33,4.16-3.67,4.5-4C76.79,149.63,77.62,149.63,78.29,150.3Z" transform="translate(-0.79 -1.3)" fill="#5a5a5a"/><path d="M71.29,215.3a1.45,1.45,0,0,1-.5,1,2.07,2.07,0,0,1-1.5.5h-1v-.5a57,57,0,0,1-5.5-4.5c-.67-.67-1.67-1.58-3-2.75s-2.17-1.92-2.5-2.25a1.59,1.59,0,0,1-.5-2.5c.66-1,1.5-1,2.5,0a35.76,35.76,0,0,1,3.5,2.75l4,3.5q2,1.75,4,3.25A3.93,3.93,0,0,1,71.29,215.3Z" transform="translate(-0.79 -1.3)" fill="#5a5a5a"/><path d="M50,172.8a37.31,37.31,0,0,1,3.75-3c.66-1,1.5-1,2.5,0v1a1,1,0,0,1-.5,1.5l-.5.5a75,75,0,0,0-6,5.5,4.73,4.73,0,0,1-1.5,6q-4,3.49-7.75-.5t.25-8a5.26,5.26,0,0,1,6.5-.5A19,19,0,0,0,50,172.8Z" transform="translate(-0.79 -1.3)" fill="#5a5a5a"/><path d="M47.79,189.3c2,1.67,2.33,3.83,1,6.5v1c-.67.67-1.17,1-1.5,1q-3.51,2.5-6.5-.5-4.5-3.5-.75-7.75T47.79,189.3Z" transform="translate(-0.79 -1.3)" fill="#5a5a5a"/><path d="M38.29,326.3l-8.5,17.5-9-17.5h7V311.8c0-1.33.58-2,1.75-2s1.75.67,1.75,2v14.5Z" transform="translate(-0.79 -1.3)" fill="#5a5a5a"/><path d="M33.54,24.55a5.54,5.54,0,0,1,1.75,4,4.76,4.76,0,0,1-1.75,3.75,6,6,0,0,1-4,1.5,5.13,5.13,0,0,1-5.25-5.25,6,6,0,0,1,1.5-4,4.73,4.73,0,0,1,3.75-1.75A5.5,5.5,0,0,1,33.54,24.55Z" transform="translate(-0.79 -1.3)" fill="#5a5a5a"/><path d="M31.29,282.3v14.5c0,1.33-.59,2-1.75,2s-1.75-.67-1.75-2V282.3c0-1.33.58-2,1.75-2S31.29,281,31.29,282.3Z" transform="translate(-0.79 -1.3)" fill="#5a5a5a"/><path d="M31.29,252.8v14.5c0,1.33-.59,2-1.75,2s-1.75-.67-1.75-2V252.8c0-1.33.58-2,1.75-2S31.29,251.47,31.29,252.8Z" transform="translate(-0.79 -1.3)" fill="#5a5a5a"/><path d="M31.29,223.3v14.5c0,1.33-.59,2-1.75,2s-1.75-.67-1.75-2V223.3c0-1.33.58-2,1.75-2S31.29,222,31.29,223.3Z" transform="translate(-0.79 -1.3)" fill="#5a5a5a"/><path d="M31.29,193.8v14.5c0,1.33-.59,2-1.75,2s-1.75-.67-1.75-2V193.8c0-1.33.58-2,1.75-2S31.29,192.47,31.29,193.8Z" transform="translate(-0.79 -1.3)" fill="#5a5a5a"/><path d="M31.29,164.3v15c0,1-.59,1.5-1.75,1.5s-1.75-.5-1.75-1.5v-15c0-1,.58-1.5,1.75-1.5S31.29,163.3,31.29,164.3Z" transform="translate(-0.79 -1.3)" fill="#5a5a5a"/><path d="M31.29,134.8v15c0,1-.59,1.5-1.75,1.5s-1.75-.5-1.75-1.5v-15c0-1.33.58-2,1.75-2S31.29,133.47,31.29,134.8Z" transform="translate(-0.79 -1.3)" fill="#5a5a5a"/><path d="M31.29,105.3v15c0,1-.59,1.5-1.75,1.5s-1.75-.5-1.75-1.5v-15c0-1,.58-1.5,1.75-1.5S31.29,104.3,31.29,105.3Z" transform="translate(-0.79 -1.3)" fill="#5a5a5a"/><path d="M31.29,76.3V90.8c0,1.33-.59,2-1.75,2s-1.75-.67-1.75-2V76.3c0-1.33.58-2,1.75-2S31.29,75,31.29,76.3Z" transform="translate(-0.79 -1.3)" fill="#5a5a5a"/><path d="M31.29,46.8V61.3c0,1.33-.59,2-1.75,2s-1.75-.67-1.75-2V46.8c0-1.33.58-2,1.75-2S31.29,45.47,31.29,46.8Z" transform="translate(-0.79 -1.3)" fill="#5a5a5a"/></svg>