<svg id="Layer_1" data-name="Layer 1" xmlns="http://www.w3.org/2000/svg" viewBox="0 0 234.58 364.31"><path d="M223.88,320.67q9.48,11,4.5,24-5.52,14-21,15l-178,.5a28.7,28.7,0,0,1-11.5-3.5,42.85,42.85,0,0,1-5-3.5,24.52,24.52,0,0,1-5.5-10,20,20,0,0,1-1-6.5V30.17a25.55,25.55,0,0,1,2-10.5,22.06,22.06,0,0,1,5.5-7q11-10,24.5-4.5,14.49,6,15,22v280c0,2,.82,3,2.5,3h150.5a24.43,24.43,0,0,1,10,2A21,21,0,0,1,223.88,320.67Zm-29,24.5,17.5-8.5-17.5-9v7q-1.5.51-1.5,1.5c0,1.34.5,2,1.5,2Zm-12.5-8.75c0-1.16-.68-1.75-2-1.75h-14.5c-1.34,0-2,.5-2,1.5a1.76,1.76,0,0,0,2,2h14.5C181.7,338.17,182.38,337.59,182.38,336.42Zm-29.5,0c0-1.16-.68-1.75-2-1.75h-14.5c-1.34,0-2,.5-2,1.5a1.76,1.76,0,0,0,2,2h14.5C152.2,338.17,152.88,337.59,152.88,336.42Zm-29.5,0c0-1.16-.68-1.75-2-1.75h-14.5c-1.34,0-2,.5-2,1.5a1.76,1.76,0,0,0,2,2h14.5C122.7,338.17,123.38,337.59,123.38,336.42Zm-29.5,0c0-1.16-.68-1.75-2-1.75H77.38c-1.34,0-2,.5-2,1.5a1.76,1.76,0,0,0,2,2h14.5C93.2,338.17,93.88,337.59,93.88,336.42Zm-29.5,0c0-1.16-.5-1.75-1.5-1.75h-15c-1.34,0-2,.5-2,1.5a1.76,1.76,0,0,0,2,2h15C63.88,338.17,64.38,337.59,64.38,336.42Zm-34.5-10.75,8.5-17.5h-7v-4.5a1.33,1.33,0,0,0-1.5-1.5c-1.34,0-2,.5-2,1.5v4.5h-7Zm1.5-285c2.66-1,4-2.66,4-5a5,5,0,0,0-1.75-4,6,6,0,0,0-4-1.5,5.09,5.09,0,0,0-3.75,1.5,5.42,5.42,0,0,0-1.5,4,5.12,5.12,0,0,0,3.5,5v13c0,1,.66,1.5,2,1.5a1.33,1.33,0,0,0,1.5-1.5Zm4,295.75a5.09,5.09,0,0,0-1.5-3.75,5.42,5.42,0,0,0-4-1.5,5.39,5.39,0,0,0-4,1.5,5.09,5.09,0,0,0-1.5,3.75,6,6,0,0,0,1.5,4,5,5,0,0,0,4,1.75,5,5,0,0,0,4-1.75A6,6,0,0,0,35.38,336.42Zm-4-47.25v-15a1.33,1.33,0,0,0-1.5-1.5c-1.34,0-2,.5-2,1.5v15c0,1,.66,1.5,2,1.5A1.33,1.33,0,0,0,31.38,289.17Zm0-29.5v-15a1.33,1.33,0,0,0-1.5-1.5c-1.34,0-2,.5-2,1.5v15a1.76,1.76,0,0,0,2,2C30.88,261.67,31.38,261,31.38,259.67Zm0-29.5v-14.5c0-1.33-.5-2-1.5-2a1.77,1.77,0,0,0-2,2v14.5a1.76,1.76,0,0,0,2,2C30.88,232.17,31.38,231.51,31.38,230.17Zm0-29.5v-14.5c0-1.33-.5-2-1.5-2a1.77,1.77,0,0,0-2,2v14.5a1.76,1.76,0,0,0,2,2C30.88,202.67,31.38,202,31.38,200.67Zm0-29.5v-14.5c0-1.33-.5-2-1.5-2a1.77,1.77,0,0,0-2,2v14.5a1.76,1.76,0,0,0,2,2C30.88,173.17,31.38,172.51,31.38,171.17Zm0-29.5v-14.5c0-1.33-.5-2-1.5-2a1.77,1.77,0,0,0-2,2v14.5a1.76,1.76,0,0,0,2,2C30.88,143.67,31.38,143,31.38,141.67Zm0-29v-15c0-1.33-.5-2-1.5-2a1.77,1.77,0,0,0-2,2v15c0,1,.66,1.5,2,1.5A1.33,1.33,0,0,0,31.38,112.67Zm0-30V68.17c0-1.33-.5-2-1.5-2a1.77,1.77,0,0,0-2,2v14.5a1.76,1.76,0,0,0,2,2C30.88,84.67,31.38,84,31.38,82.67Z" transform="translate(-0.88 -0.86)" fill="#fbea23"/><path d="M227.88,317.17q12,13,5,29.5-6.51,17-25,18.5h-178a29.68,29.68,0,0,1-15-4,17.18,17.18,0,0,1-5.5-4.5,31.66,31.66,0,0,1-7.5-12,32.18,32.18,0,0,1-1-8v-307a24.67,24.67,0,0,1,3-12,34.09,34.09,0,0,1,6.5-9q13.5-12.49,30-5,17.49,7,18,26v278h148a25.73,25.73,0,0,1,12.5,3A35.12,35.12,0,0,1,227.88,317.17Zm.5,27.5q5-13-4.5-24a21,21,0,0,0-7.5-5.5,24.43,24.43,0,0,0-10-2H55.88c-1.68,0-2.5-1-2.5-3v-280q-.51-16-15-22-13.5-5.49-24.5,4.5a22.06,22.06,0,0,0-5.5,7,25.55,25.55,0,0,0-2,10.5v306.5a20,20,0,0,0,1,6.5,24.52,24.52,0,0,0,5.5,10,42.85,42.85,0,0,0,5,3.5,28.7,28.7,0,0,0,11.5,3.5l178-.5Q222.86,358.68,228.38,344.67Z" transform="translate(-0.88 -0.86)" fill="#1d1d1b"/><path d="M212.38,336.67l-17.5,8.5v-7c-1,0-1.5-.66-1.5-2q0-1,1.5-1.5v-7Z" transform="translate(-0.88 -0.86)" fill="#5a5a5a"/><path d="M180.38,334.67c1.32,0,2,.59,2,1.75s-.68,1.75-2,1.75h-14.5a1.76,1.76,0,0,1-2-2c0-1,.66-1.5,2-1.5Z" transform="translate(-0.88 -0.86)" fill="#5a5a5a"/><path d="M150.88,334.67c1.32,0,2,.59,2,1.75s-.68,1.75-2,1.75h-14.5a1.76,1.76,0,0,1-2-2c0-1,.66-1.5,2-1.5Z" transform="translate(-0.88 -0.86)" fill="#5a5a5a"/><path d="M121.38,334.67c1.32,0,2,.59,2,1.75s-.68,1.75-2,1.75h-14.5a1.76,1.76,0,0,1-2-2c0-1,.66-1.5,2-1.5Z" transform="translate(-0.88 -0.86)" fill="#5a5a5a"/><path d="M91.88,334.67c1.32,0,2,.59,2,1.75s-.68,1.75-2,1.75H77.38a1.76,1.76,0,0,1-2-2c0-1,.66-1.5,2-1.5Z" transform="translate(-0.88 -0.86)" fill="#5a5a5a"/><path d="M62.88,334.67c1,0,1.5.59,1.5,1.75s-.5,1.75-1.5,1.75h-15a1.76,1.76,0,0,1-2-2c0-1,.66-1.5,2-1.5Z" transform="translate(-0.88 -0.86)" fill="#5a5a5a"/><path d="M38.38,308.17l-8.5,17.5-9-17.5h7v-4.5c0-1,.66-1.5,2-1.5a1.33,1.33,0,0,1,1.5,1.5v4.5Z" transform="translate(-0.88 -0.86)" fill="#5a5a5a"/><path d="M35.38,35.67c0,2.34-1.34,4-4,5v13a1.33,1.33,0,0,1-1.5,1.5c-1.34,0-2-.5-2-1.5v-13a5.12,5.12,0,0,1-3.5-5,5.42,5.42,0,0,1,1.5-4,5.09,5.09,0,0,1,3.75-1.5,6,6,0,0,1,4,1.5A5,5,0,0,1,35.38,35.67Z" transform="translate(-0.88 -0.86)" fill="#5a5a5a"/><path d="M33.88,332.67a5.09,5.09,0,0,1,1.5,3.75,6,6,0,0,1-1.5,4,5,5,0,0,1-4,1.75,5,5,0,0,1-4-1.75,6,6,0,0,1-1.5-4,5.09,5.09,0,0,1,1.5-3.75,5.39,5.39,0,0,1,4-1.5A5.42,5.42,0,0,1,33.88,332.67Z" transform="translate(-0.88 -0.86)" fill="#5a5a5a"/><path d="M31.38,274.17v15a1.33,1.33,0,0,1-1.5,1.5c-1.34,0-2-.5-2-1.5v-15c0-1,.66-1.5,2-1.5A1.33,1.33,0,0,1,31.38,274.17Z" transform="translate(-0.88 -0.86)" fill="#5a5a5a"/><path d="M31.38,244.67v15c0,1.34-.5,2-1.5,2a1.76,1.76,0,0,1-2-2v-15c0-1,.66-1.5,2-1.5A1.33,1.33,0,0,1,31.38,244.67Z" transform="translate(-0.88 -0.86)" fill="#5a5a5a"/><path d="M31.38,215.67v14.5c0,1.34-.5,2-1.5,2a1.76,1.76,0,0,1-2-2v-14.5a1.77,1.77,0,0,1,2-2C30.88,213.67,31.38,214.34,31.38,215.67Z" transform="translate(-0.88 -0.86)" fill="#5a5a5a"/><path d="M31.38,186.17v14.5c0,1.34-.5,2-1.5,2a1.76,1.76,0,0,1-2-2v-14.5a1.77,1.77,0,0,1,2-2C30.88,184.17,31.38,184.84,31.38,186.17Z" transform="translate(-0.88 -0.86)" fill="#5a5a5a"/><path d="M31.38,156.67v14.5c0,1.34-.5,2-1.5,2a1.76,1.76,0,0,1-2-2v-14.5a1.77,1.77,0,0,1,2-2C30.88,154.67,31.38,155.34,31.38,156.67Z" transform="translate(-0.88 -0.86)" fill="#5a5a5a"/><path d="M31.38,127.17v14.5c0,1.34-.5,2-1.5,2a1.76,1.76,0,0,1-2-2v-14.5a1.77,1.77,0,0,1,2-2C30.88,125.17,31.38,125.84,31.38,127.17Z" transform="translate(-0.88 -0.86)" fill="#5a5a5a"/><path d="M31.38,97.67v15a1.33,1.33,0,0,1-1.5,1.5c-1.34,0-2-.5-2-1.5v-15a1.77,1.77,0,0,1,2-2C30.88,95.67,31.38,96.34,31.38,97.67Z" transform="translate(-0.88 -0.86)" fill="#5a5a5a"/><path d="M31.38,68.17v14.5c0,1.34-.5,2-1.5,2a1.76,1.76,0,0,1-2-2V68.17a1.77,1.77,0,0,1,2-2C30.88,66.17,31.38,66.84,31.38,68.17Z" transform="translate(-0.88 -0.86)" fill="#5a5a5a"/></svg>