<svg id="Layer_1" data-name="Layer 1" xmlns="http://www.w3.org/2000/svg" viewBox="0 0 324.5 369.63"><path d="M225.1,196.83a1.66,1.66,0,0,0-2,.5v-.5l-.5,1a6,6,0,0,1-1,2.75,6.19,6.19,0,0,0-1,2.75c-1,2.34-2.17,5-3.5,8q-.49.51,0,1.5c0,.34.33.68,1,1h.5a2,2,0,0,0,2-1q2.51-6,4-9.5a6,6,0,0,1,.5-1.75c.33-.82.67-1.57,1-2.25v-1A1.61,1.61,0,0,0,225.1,196.83Zm-66,135,1-20-6.5,3v-.5c-2.33-5-3.83-8.32-4.5-10-.33-1-1.17-1.32-2.5-1a1.49,1.49,0,0,0-.5,1q-.49,1,0,1.5,0,.51,4,10.5l-6,2.5Zm8.5-.25c-3.33-1.5-5.75-.57-7.25,2.75s-.58,5.75,2.75,7.25,5.75.59,7.25-2.75S170.93,333.08,167.6,331.58Zm153-301.75v312a22.54,22.54,0,0,1-7,16.5,24.83,24.83,0,0,1-33.5,0,23.44,23.44,0,0,1-6.5-16.5v-185a2.46,2.46,0,0,0-2.25-2.5,2.67,2.67,0,0,0-3.25,1.5q-80.51,188-83,195.5l-.5-.5a19.32,19.32,0,0,1-4.5,7l-.5.5a27.51,27.51,0,0,1-6,4.5h-.5l-1.5.5a21.7,21.7,0,0,1-16.5.5,34.3,34.3,0,0,1-5-2.5,26.27,26.27,0,0,1-8.5-10.5l-83-194a2.9,2.9,0,0,0-3-1.25,2.05,2.05,0,0,0-2,2.25v184a14.77,14.77,0,0,1-.5,3.5,27.47,27.47,0,0,1-1.5,5,19.32,19.32,0,0,1-4.5,7,17.28,17.28,0,0,1-5.5,4.5,34.3,34.3,0,0,1-5,2.5,24.38,24.38,0,0,1-12,0,26.4,26.4,0,0,1-5-1.5c-2-1.32-3.83-2.66-5.5-4a20.88,20.88,0,0,1-5.5-7.5,21.94,21.94,0,0,1-2-5.5V28.33a24.85,24.85,0,0,1,2.5-8,19.16,19.16,0,0,1,4-6,36.85,36.85,0,0,1,7.5-5,23.36,23.36,0,0,1,9.5-2,24,24,0,0,1,8.5,1.5,23.21,23.21,0,0,1,12.5,12l.5,1q89,207.51,109,254a3,3,0,0,0,2.75,2,2.22,2.22,0,0,0,2.25-2l32-74q77-179.49,77.5-181a5.49,5.49,0,0,1,1-2,16.06,16.06,0,0,1,4.5-6,36.85,36.85,0,0,1,7.5-5,28.31,28.31,0,0,1,9-1.5,24,24,0,0,1,8.5,1.5c.67.34,1.33.68,2,1a31.76,31.76,0,0,1,5.5,3.5l1.5-2-1,2.5A23.16,23.16,0,0,1,320.6,29.83Zm-23.5,312,8.5-18h-7v-11c0-1.32-.58-2-1.75-2s-1.75.68-1.75,2v11h-7Zm5.5-305.5a5,5,0,0,0-1.75-4,6,6,0,0,0-4-1.5,5.09,5.09,0,0,0-3.75,1.5,5.42,5.42,0,0,0-1.5,4,5.39,5.39,0,0,0,1.5,4,5.09,5.09,0,0,0,3.75,1.5,6,6,0,0,0,4-1.5A5,5,0,0,0,302.6,36.33Zm-4,261.5v-14.5c0-1.32-.58-2-1.75-2s-1.75.68-1.75,2v14.5c0,1.34.58,2,1.75,2S298.6,299.17,298.6,297.83Zm0-29.5v-14.5c0-1.32-.58-2-1.75-2s-1.75.68-1.75,2v14.5c0,1.34.58,2,1.75,2S298.6,269.67,298.6,268.33Zm0-29v-15c0-1-.58-1.5-1.75-1.5s-1.75.5-1.75,1.5v15c0,1,.58,1.5,1.75,1.5S298.6,240.33,298.6,239.33Zm0-29.5v-15c0-1.32-.58-2-1.75-2s-1.75.68-1.75,2v15c0,1,.58,1.5,1.75,1.5S298.6,210.83,298.6,209.83Zm0-29.5v-15c0-1-.58-1.5-1.75-1.5s-1.75.5-1.75,1.5v15c0,1,.58,1.5,1.75,1.5S298.6,181.33,298.6,180.33Zm0-29.5v-14.5c0-1.32-.58-2-1.75-2s-1.75.68-1.75,2v14.5c0,1.34.58,2,1.75,2S298.6,152.17,298.6,150.83Zm0-29.5v-15c0-1-.58-1.5-1.75-1.5s-1.75.5-1.75,1.5v15c0,1,.58,1.5,1.75,1.5S298.6,122.33,298.6,121.33Zm0-29.5V77.33c0-1.32-.58-2-1.75-2s-1.75.68-1.75,2v14.5c0,1.34.58,2,1.75,2S298.6,93.17,298.6,91.83Zm0-29.5V47.83c0-1.32-.58-2-1.75-2s-1.75.68-1.75,2v14.5c0,1.34.58,2,1.75,2S298.6,63.67,298.6,62.33Zm-9.5,7.5-1-19.5-15,12.5,6.5,3q-4,9-4.5,10t0,1.5c0,.34.33.68,1,1h.5a2,2,0,0,0,2-1c.33-1,.75-2.07,1.25-3.25s1-2.41,1.5-3.75.92-2.32,1.25-3Zm-16.5,21v-.5c0-1-.33-1.5-1-1.5-1.33-.66-2.17-.5-2.5.5l-1.5,4c-.67,1.34-1.5,3.18-2.5,5.5a16.42,16.42,0,0,0-1.5,4.5.63.63,0,0,0,0,1c0,.68.17,1,.5,1a1.5,1.5,0,0,1,1,.5q1,0,1.5-1.5c.67-1.32,1.67-3.5,3-6.5.33-.66.67-1.41,1-2.25s.67-1.66,1-2.5S272.27,91.51,272.6,90.83Zm-11.5,27v-.5a1.61,1.61,0,0,0-1-1.5c-1.33-.66-2.17-.5-2.5.5q-2.51,6.51-4,9.5a6,6,0,0,1-.75,2l-1.25,2.5a1.4,1.4,0,0,0,1,2,1.41,1.41,0,0,0,1,.5,1.58,1.58,0,0,0,1.5-1q2.5-5.49,3.5-8.5C259.6,121,260.43,119.17,261.1,117.83Zm-11.5,27.5v-1q0-1-1.5-1.5c-1-.66-1.67-.32-2,1-1,2-1.83,3.68-2.5,5-.33,1-1.5,3.84-3.5,8.5v1.5l1,1h.5a2,2,0,0,0,2-1l4.5-10.5Zm-12,27a1.49,1.49,0,0,1,.5-1q0-1-1.5-1.5c-1-.66-1.67-.32-2,1l-2,4a51,51,0,0,1-2,4.75c-1,2.18-1.67,3.75-2,4.75q-.49.51,0,1.5l1,1h.5a2,2,0,0,0,2-1,32.31,32.31,0,0,1,2-5.25,51,51,0,0,0,2-4.75Zm-23,53c.33-.66,0-1.16-1-1.5-1.33-.32-2.17,0-2.5,1a8.57,8.57,0,0,0-1.25,2.5c-.5,1.34-.92,2.5-1.25,3.5q-1,3-3,7.5-.49,1,0,1.5a1.42,1.42,0,0,0,.5,1h1a1.58,1.58,0,0,0,1.5-1q1-2.49,4-9a19,19,0,0,0,1-2.5,5.49,5.49,0,0,1,1-2Zm-11.5,28v-.5a2,2,0,0,0-1-2c-1.33-.32-2.17,0-2.5,1s-.83,2.25-1.5,3.75-1.17,2.75-1.5,3.75c-.33.68-.67,1.34-1,2s-.67,1.43-1,2.25-.58,1.5-.75,2a1.58,1.58,0,0,0,0,1.25,2.59,2.59,0,0,0,1.25,1h.5a1.58,1.58,0,0,0,1.5-1Q199.61,261.34,203.1,253.33Zm-11.5,27v-.5c0-1-.33-1.5-1-1.5-1.33-.66-2.17-.5-2.5.5a20.22,20.22,0,0,0-1,2.5,5.31,5.31,0,0,1-1,2q-.49,1-4,9c-.33,1.34,0,2.18,1,2.5l.5.5a2,2,0,0,0,2-1.5,46.28,46.28,0,0,1,2.5-6,23.33,23.33,0,0,1,1.75-3.75A23.33,23.33,0,0,0,191.6,280.33Zm-12,26.5c.33-.66,0-1.16-1-1.5-1-.66-1.67-.5-2,.5-1.33,3-2.5,5.68-3.5,8a5.6,5.6,0,0,0-1,1.75,19.69,19.69,0,0,0-.75,2.25,9.72,9.72,0,0,1-.75,2,.63.63,0,0,0,0,1c.33.68.67,1,1,1a.44.44,0,0,0,.5.5,2,2,0,0,0,2-1.5l.5-1c.33-1.32,2-5.5,5-12.5Zm-36-15v-1l-1.25-2.5c-.5-1-.92-1.82-1.25-2.5,0-.32-1.17-3.16-3.5-8.5-.33-1-1.17-1.32-2.5-1-1.33.68-1.67,1.5-1,2.5q4,9,4.5,10l1.5,3.5a1.58,1.58,0,0,0,1.5,1h1A1.57,1.57,0,0,0,143.6,291.83Zm-11.5-27v-1h-.5a38,38,0,0,1-2-5.5c-2-4.66-3.17-7.32-3.5-8a2,2,0,0,0-2.5-1q-1.5.51-.75,2.25c.5,1.18,1.42,3.34,2.75,6.5s2.33,5.59,3,7.25c0,.68.5,1,1.5,1h1A1.57,1.57,0,0,0,132.1,264.83Zm-12-27.5v-.5a15.84,15.84,0,0,1-1-2.75,17.2,17.2,0,0,0-1-2.75c-.33-.66-.92-1.91-1.75-3.75a31.37,31.37,0,0,0-2.25-4.25c-.33-1.32-1-1.66-2-1a.89.89,0,0,0-1,1q-.5.51,0,1.5a20.22,20.22,0,0,1,1,2.5,22.46,22.46,0,0,0,1.25,3,22.46,22.46,0,0,1,1.25,3,30.29,30.29,0,0,1,2.5,5c0,.68.5,1,1.5,1h.5A2,2,0,0,0,120.1,237.33Zm-11.5-27v-.5l-.5-1-1-2.5q-2-4-4.5-10c-.33-1.32-1-1.66-2-1-1.33.34-1.67,1.18-1,2.5.67,1.68,1.83,4.5,3.5,8.5.67,1.68,1.33,3.34,2,5a2,2,0,0,0,2,1h.5A2,2,0,0,0,108.6,210.33Zm-11.5-27v-.5q-3-7-6-13.5c-.33-1.32-1.17-1.66-2.5-1-1,.34-1.17,1-.5,2a32.83,32.83,0,0,0,2.5,6c1,2.68,2,5.34,3,8a1.58,1.58,0,0,0,1.5,1h1A2,2,0,0,0,97.1,183.33Zm-11.5-27a1.49,1.49,0,0,0-.5-1,6,6,0,0,0-.5-1.75c-.33-.82-.67-1.57-1-2.25s-.67-1.32-1-2c-.67-1.66-1.67-4-3-7a1.84,1.84,0,0,0-2.5-1.5c-1,1-1.33,1.84-1,2.5q1.5,3.51,4.5,10c.67,1.68,1.17,2.84,1.5,3.5q.5,1.5,1.5,1.5a1.41,1.41,0,0,0,1-.5A1.57,1.57,0,0,0,85.6,156.33Zm-11.5-27v-1a21.75,21.75,0,0,1-2-4c-.67-1.66-1.42-3.32-2.25-5a32.24,32.24,0,0,1-1.75-4,1.84,1.84,0,0,0-2.5-1.5,6.06,6.06,0,0,0-1,1.5v1l1.5,3.5q1.5,3,4.5,10c0,.68.5,1,1.5,1h.5A1.33,1.33,0,0,0,74.1,129.33Zm-12-27v-1c-.33-.66-.92-2-1.75-4s-1.42-3.5-1.75-4.5a29.09,29.09,0,0,0-2.5-5,1.4,1.4,0,0,0-2-1c-.67.34-1,.68-1,1q-.49,1,0,1.5a46.91,46.91,0,0,1,2.5,6.5,22.42,22.42,0,0,1,2,4,11.25,11.25,0,0,0,1.5,3c0,.68.5,1,1.5,1h.5C61.77,103.83,62.1,103.33,62.1,102.33ZM50.6,74.83v-.5a16.81,16.81,0,0,1-1.75-3.5c-.5-1.32-1-2.66-1.5-4s-.92-2.32-1.25-3l-1.5-3a1.4,1.4,0,0,0-2-1,2,2,0,0,0-1,2.5,45.81,45.81,0,0,0,1.75,4.25c.83,1.84,1.42,3.25,1.75,4.25,1,2.34,1.67,4,2,5a2,2,0,0,0,2,1h.5A2,2,0,0,0,50.6,74.83Zm-11.5-27v-.5l-1-2a28.18,28.18,0,0,0-2.5-5.5,4.72,4.72,0,0,0,1.5-6q-2-5-7.25-3t-2.75,7a5.47,5.47,0,0,0,5.5,3.5,2,2,0,0,0,.5,1.5,3.58,3.58,0,0,1,.75,1.75,9,9,0,0,0,.75,2.25c.33.68.67,1.34,1,2a1.58,1.58,0,0,0,1.5,1h1A2,2,0,0,0,39.1,47.83Zm-.5,20-8.5-17.5-9,17.5h7v5.5c0,1.34.58,2,1.75,2s1.75-.66,1.75-2v-5.5Zm-3,268.5a5.5,5.5,0,0,0-4-5.5v-7.5c0-1.32-.58-2-1.75-2s-1.75.68-1.75,2v7.5a5.49,5.49,0,0,0-3.5,5.5,5.64,5.64,0,0,0,1.5,3.75,4.7,4.7,0,0,0,3.75,1.75,5.46,5.46,0,0,0,4-1.75A5.22,5.22,0,0,0,35.6,336.33Zm-4-28v-14.5c0-1.32-.58-2-1.75-2s-1.75.68-1.75,2v14.5c0,1.34.58,2,1.75,2S31.6,309.67,31.6,308.33Zm0-29v-15c0-1-.58-1.5-1.75-1.5s-1.75.5-1.75,1.5v15c0,1,.58,1.5,1.75,1.5S31.6,280.33,31.6,279.33Zm0-29.5v-14.5c0-1.32-.58-2-1.75-2s-1.75.68-1.75,2v14.5c0,1.34.58,2,1.75,2S31.6,251.17,31.6,249.83Zm0-29.5v-14.5c0-1.32-.58-2-1.75-2s-1.75.68-1.75,2v14.5c0,1.34.58,2,1.75,2S31.6,221.67,31.6,220.33Zm0-29.5v-14.5c0-1.32-.58-2-1.75-2s-1.75.68-1.75,2v14.5c0,1.34.58,2,1.75,2S31.6,192.17,31.6,190.83Zm0-29v-15c0-1-.58-1.5-1.75-1.5s-1.75.5-1.75,1.5v15c0,1,.58,1.5,1.75,1.5S31.6,162.83,31.6,161.83Zm0-29.5v-14.5c0-1.32-.58-2-1.75-2s-1.75.68-1.75,2v14.5c0,1.34.58,2,1.75,2S31.6,133.67,31.6,132.33Zm0-29.5V88.33c0-1.32-.58-2-1.75-2s-1.75.68-1.75,2v14.5c0,1.34.58,2,1.75,2S31.6,104.17,31.6,102.83Z" transform="translate(-1.1 -0.83)" fill="#fbea23"/><path d="M314.6,10.33l-1.5,2a31.76,31.76,0,0,0-5.5-3.5c-.67-.32-1.33-.66-2-1a24,24,0,0,0-8.5-1.5,28.31,28.31,0,0,0-9,1.5,36.85,36.85,0,0,0-7.5,5,16.06,16.06,0,0,0-4.5,6,5.49,5.49,0,0,0-1,2q-.5,1.5-77.5,181l-32,74a2.22,2.22,0,0,1-2.25,2,3,3,0,0,1-2.75-2q-20-46.5-109-254l-.5-1a23.21,23.21,0,0,0-12.5-12,24,24,0,0,0-8.5-1.5,23.36,23.36,0,0,0-9.5,2,36.85,36.85,0,0,0-7.5,5,19.16,19.16,0,0,0-4,6,24.85,24.85,0,0,0-2.5,8v317.5a21.94,21.94,0,0,0,2,5.5,20.88,20.88,0,0,0,5.5,7.5c1.67,1.34,3.5,2.68,5.5,4a26.4,26.4,0,0,0,5,1.5,24.38,24.38,0,0,0,12,0,34.3,34.3,0,0,0,5-2.5,17.28,17.28,0,0,0,5.5-4.5,19.32,19.32,0,0,0,4.5-7,27.47,27.47,0,0,0,1.5-5,14.77,14.77,0,0,0,.5-3.5v-184a2.05,2.05,0,0,1,2-2.25,2.9,2.9,0,0,1,3,1.25l83,194a26.27,26.27,0,0,0,8.5,10.5,34.3,34.3,0,0,0,5,2.5,21.7,21.7,0,0,0,16.5-.5l1.5-.5h.5a27.51,27.51,0,0,0,6-4.5l.5-.5a19.32,19.32,0,0,0,4.5-7l.5.5q2.51-7.5,83-195.5a2.67,2.67,0,0,1,3.25-1.5,2.46,2.46,0,0,1,2.25,2.5v185a23.44,23.44,0,0,0,6.5,16.5,24.83,24.83,0,0,0,33.5,0,22.54,22.54,0,0,0,7-16.5v-312a23.16,23.16,0,0,0-7-17Zm2-1.5h.5a29.61,29.61,0,0,1,8.5,21v312a27.32,27.32,0,0,1-8.5,20,28.37,28.37,0,0,1-40.5,0,27.32,27.32,0,0,1-8.5-20v-172q-14,32.52-46,107.5t-32.5,75.5a26.41,26.41,0,0,1-6,9,32.05,32.05,0,0,1-8.5,6l-1.5.5a28.93,28.93,0,0,1-20.5.5l-6-3a30.71,30.71,0,0,1-10.5-13l-78-182v175c-.67,2.34-1.33,4.5-2,6.5a24.76,24.76,0,0,1-5.5,8.5,22,22,0,0,1-7,5.5,16.76,16.76,0,0,1-6,3,32.24,32.24,0,0,1-8,1,30,30,0,0,1-6.75-.75,28,28,0,0,1-6.25-2.25,43.15,43.15,0,0,1-6.5-4.5,28,28,0,0,1-7-9.5,21.37,21.37,0,0,1-2-7,18.6,18.6,0,0,1-.5-4.5v-314a28.65,28.65,0,0,1,3-10,26.73,26.73,0,0,1,5-7,32.4,32.4,0,0,1,9.5-6.5,28,28,0,0,1,22,0,27.88,27.88,0,0,1,15.5,14l.5,1.5q.49,1.5,7.5,18t17.5,40.5q10.5,24,23.25,53.75t24,56.25q11.25,26.52,21,49t13.25,31l29.5-68.5q69.5-161.49,77.5-181.5a7.37,7.37,0,0,0,1.5-2,37,37,0,0,1,5-7.5,32.78,32.78,0,0,1,9.5-6,46.83,46.83,0,0,1,11-2,28.25,28.25,0,0,1,10.5,2,6.46,6.46,0,0,1,2.5,1.5A20.8,20.8,0,0,1,316.6,8.83Z" transform="translate(-1.1 -0.83)" fill="#1d1d1b"/><path d="M305.6,323.83l-8.5,18-9-18h7v-11c0-1.32.58-2,1.75-2s1.75.68,1.75,2v11Z" transform="translate(-1.1 -0.83)" fill="#5a5a5a"/><path d="M300.85,32.33a5,5,0,0,1,1.75,4,5,5,0,0,1-1.75,4,6,6,0,0,1-4,1.5,5.09,5.09,0,0,1-3.75-1.5,5.39,5.39,0,0,1-1.5-4,5.42,5.42,0,0,1,1.5-4,5.09,5.09,0,0,1,3.75-1.5A6,6,0,0,1,300.85,32.33Z" transform="translate(-1.1 -0.83)" fill="#5a5a5a"/><path d="M298.6,283.33v14.5c0,1.34-.58,2-1.75,2s-1.75-.66-1.75-2v-14.5c0-1.32.58-2,1.75-2S298.6,282,298.6,283.33Z" transform="translate(-1.1 -0.83)" fill="#5a5a5a"/><path d="M298.6,253.83v14.5c0,1.34-.58,2-1.75,2s-1.75-.66-1.75-2v-14.5c0-1.32.58-2,1.75-2S298.6,252.51,298.6,253.83Z" transform="translate(-1.1 -0.83)" fill="#5a5a5a"/><path d="M298.6,224.33v15c0,1-.58,1.5-1.75,1.5s-1.75-.5-1.75-1.5v-15c0-1,.58-1.5,1.75-1.5S298.6,223.33,298.6,224.33Z" transform="translate(-1.1 -0.83)" fill="#5a5a5a"/><path d="M298.6,194.83v15c0,1-.58,1.5-1.75,1.5s-1.75-.5-1.75-1.5v-15c0-1.32.58-2,1.75-2S298.6,193.51,298.6,194.83Z" transform="translate(-1.1 -0.83)" fill="#5a5a5a"/><path d="M298.6,165.33v15c0,1-.58,1.5-1.75,1.5s-1.75-.5-1.75-1.5v-15c0-1,.58-1.5,1.75-1.5S298.6,164.33,298.6,165.33Z" transform="translate(-1.1 -0.83)" fill="#5a5a5a"/><path d="M298.6,136.33v14.5c0,1.34-.58,2-1.75,2s-1.75-.66-1.75-2v-14.5c0-1.32.58-2,1.75-2S298.6,135,298.6,136.33Z" transform="translate(-1.1 -0.83)" fill="#5a5a5a"/><path d="M298.6,106.33v15c0,1-.58,1.5-1.75,1.5s-1.75-.5-1.75-1.5v-15c0-1,.58-1.5,1.75-1.5S298.6,105.33,298.6,106.33Z" transform="translate(-1.1 -0.83)" fill="#5a5a5a"/><path d="M298.6,77.33v14.5c0,1.34-.58,2-1.75,2s-1.75-.66-1.75-2V77.33c0-1.32.58-2,1.75-2S298.6,76,298.6,77.33Z" transform="translate(-1.1 -0.83)" fill="#5a5a5a"/><path d="M298.6,47.83v14.5c0,1.34-.58,2-1.75,2s-1.75-.66-1.75-2V47.83c0-1.32.58-2,1.75-2S298.6,46.51,298.6,47.83Z" transform="translate(-1.1 -0.83)" fill="#5a5a5a"/><path d="M288.1,50.33l1,19.5-6.5-2.5c-.33.68-.75,1.68-1.25,3s-1,2.59-1.5,3.75-.92,2.25-1.25,3.25a2,2,0,0,1-2,1h-.5c-.67-.32-1-.66-1-1q-.5-.48,0-1.5t4.5-10l-6.5-3Z" transform="translate(-1.1 -0.83)" fill="#5a5a5a"/><path d="M272.6,90.33v.5c-.33.68-.67,1.43-1,2.25s-.67,1.68-1,2.5-.67,1.59-1,2.25c-1.33,3-2.33,5.18-3,6.5q-.5,1.5-1.5,1.5a1.5,1.5,0,0,0-1-.5c-.33,0-.5-.32-.5-1a.63.63,0,0,1,0-1,16.42,16.42,0,0,1,1.5-4.5c1-2.32,1.83-4.16,2.5-5.5l1.5-4c.33-1,1.17-1.16,2.5-.5C272.27,88.83,272.6,89.33,272.6,90.33Z" transform="translate(-1.1 -0.83)" fill="#5a5a5a"/><path d="M261.1,117.33v.5c-.67,1.34-1.5,3.18-2.5,5.5q-1,3-3.5,8.5a1.58,1.58,0,0,1-1.5,1,1.41,1.41,0,0,1-1-.5,1.4,1.4,0,0,1-1-2l1.25-2.5a6,6,0,0,0,.75-2q1.5-3,4-9.5c.33-1,1.17-1.16,2.5-.5A1.61,1.61,0,0,1,261.1,117.33Z" transform="translate(-1.1 -0.83)" fill="#5a5a5a"/><path d="M249.6,144.33v1l-1.5,3-4.5,10.5a2,2,0,0,1-2,1h-.5l-1-1v-1.5c2-4.66,3.17-7.5,3.5-8.5.67-1.32,1.5-3,2.5-5,.33-1.32,1-1.66,2-1Q249.6,143.34,249.6,144.33Z" transform="translate(-1.1 -0.83)" fill="#5a5a5a"/><path d="M238.1,171.33a1.49,1.49,0,0,0-.5,1l-1.5,3.5a51,51,0,0,1-2,4.75,32.31,32.31,0,0,0-2,5.25,2,2,0,0,1-2,1h-.5l-1-1q-.49-1,0-1.5c.33-1,1-2.57,2-4.75a51,51,0,0,0,2-4.75l2-4c.33-1.32,1-1.66,2-1Q238.1,170.34,238.1,171.33Z" transform="translate(-1.1 -0.83)" fill="#5a5a5a"/><path d="M225.1,196.83a1.61,1.61,0,0,1,1,1.5v1c-.33.68-.67,1.43-1,2.25a6,6,0,0,0-.5,1.75q-1.5,3.51-4,9.5a2,2,0,0,1-2,1h-.5c-.67-.32-1-.66-1-1q-.49-1,0-1.5c1.33-3,2.5-5.66,3.5-8a6.19,6.19,0,0,1,1-2.75,6,6,0,0,0,1-2.75l.5-1v.5A1.66,1.66,0,0,1,225.1,196.83Z" transform="translate(-1.1 -0.83)" fill="#5a5a5a"/><path d="M213.6,223.83c1,.34,1.33.84,1,1.5v1a5.49,5.49,0,0,0-1,2,19,19,0,0,1-1,2.5q-3,6.51-4,9a1.58,1.58,0,0,1-1.5,1h-1a1.42,1.42,0,0,1-.5-1q-.49-.48,0-1.5,2-4.5,3-7.5c.33-1,.75-2.16,1.25-3.5a8.57,8.57,0,0,1,1.25-2.5C211.43,223.83,212.27,223.51,213.6,223.83Z" transform="translate(-1.1 -0.83)" fill="#5a5a5a"/><path d="M203.1,252.83v.5q-3.49,8-6,13.5a1.58,1.58,0,0,1-1.5,1h-.5a2.59,2.59,0,0,1-1.25-1,1.58,1.58,0,0,1,0-1.25c.17-.5.42-1.16.75-2s.67-1.57,1-2.25.67-1.32,1-2q.5-1.5,1.5-3.75t1.5-3.75c.33-1,1.17-1.32,2.5-1A2,2,0,0,1,203.1,252.83Z" transform="translate(-1.1 -0.83)" fill="#5a5a5a"/><path d="M191.6,279.83v.5a23.33,23.33,0,0,1-1.75,3.75,23.33,23.33,0,0,0-1.75,3.75,46.28,46.28,0,0,0-2.5,6,2,2,0,0,1-2,1.5l-.5-.5c-1-.32-1.33-1.16-1-2.5q3.5-8,4-9a5.31,5.31,0,0,0,1-2,20.22,20.22,0,0,1,1-2.5c.33-1,1.17-1.16,2.5-.5C191.27,278.33,191.6,278.83,191.6,279.83Z" transform="translate(-1.1 -0.83)" fill="#5a5a5a"/><path d="M178.6,305.33c1,.34,1.33.84,1,1.5v.5c-3,7-4.67,11.18-5,12.5l-.5,1a2,2,0,0,1-2,1.5.44.44,0,0,1-.5-.5c-.33,0-.67-.32-1-1a.63.63,0,0,1,0-1,9.72,9.72,0,0,0,.75-2,19.69,19.69,0,0,1,.75-2.25,5.6,5.6,0,0,1,1-1.75c1-2.32,2.17-5,3.5-8C176.93,304.83,177.6,304.67,178.6,305.33Z" transform="translate(-1.1 -0.83)" fill="#5a5a5a"/><path d="M167.6,331.58c3.33,1.5,4.25,3.93,2.75,7.25s-3.92,4.25-7.25,2.75-4.25-3.91-2.75-7.25S164.27,330.08,167.6,331.58Z" transform="translate(-1.1 -0.83)" fill="#5a5a5a"/><path d="M160.1,311.83l-1,20-15-13,6-2.5q-4-10-4-10.5-.49-.48,0-1.5a1.49,1.49,0,0,1,.5-1c1.33-.32,2.17,0,2.5,1,.67,1.68,2.17,5,4.5,10v.5Z" transform="translate(-1.1 -0.83)" fill="#5a5a5a"/><path d="M143.6,290.83v1a1.57,1.57,0,0,1-1,1.5h-1a1.58,1.58,0,0,1-1.5-1l-1.5-3.5q-.49-1-4.5-10c-.67-1-.33-1.82,1-2.5,1.33-.32,2.17,0,2.5,1,2.33,5.34,3.5,8.18,3.5,8.5.33.68.75,1.5,1.25,2.5Z" transform="translate(-1.1 -0.83)" fill="#5a5a5a"/><path d="M132.1,263.83v1a1.57,1.57,0,0,1-1,1.5h-1c-1,0-1.5-.32-1.5-1-.67-1.66-1.67-4.07-3-7.25s-2.25-5.32-2.75-6.5-.25-1.91.75-2.25a2,2,0,0,1,2.5,1c.33.68,1.5,3.34,3.5,8a38,38,0,0,0,2,5.5Z" transform="translate(-1.1 -0.83)" fill="#5a5a5a"/><path d="M120.1,236.83v.5a2,2,0,0,1-1,2h-.5c-1,0-1.5-.32-1.5-1a30.29,30.29,0,0,0-2.5-5,22.46,22.46,0,0,0-1.25-3,22.46,22.46,0,0,1-1.25-3,20.22,20.22,0,0,0-1-2.5q-.5-1,0-1.5a.89.89,0,0,1,1-1c1-.66,1.67-.32,2,1a31.37,31.37,0,0,1,2.25,4.25c.83,1.84,1.42,3.09,1.75,3.75a17.2,17.2,0,0,1,1,2.75A15.84,15.84,0,0,0,120.1,236.83Z" transform="translate(-1.1 -0.83)" fill="#5a5a5a"/><path d="M108.1,208.83l.5,1v.5a2,2,0,0,1-1,2h-.5a2,2,0,0,1-2-1c-.67-1.66-1.33-3.32-2-5-1.67-4-2.83-6.82-3.5-8.5-.67-1.32-.33-2.16,1-2.5,1-.66,1.67-.32,2,1q2.5,6,4.5,10Z" transform="translate(-1.1 -0.83)" fill="#5a5a5a"/><path d="M97.1,182.83v.5a2,2,0,0,1-1,2h-1a1.58,1.58,0,0,1-1.5-1c-1-2.66-2-5.32-3-8a32.83,32.83,0,0,1-2.5-6c-.67-1-.5-1.66.5-2,1.33-.66,2.17-.32,2.5,1Q94.1,175.84,97.1,182.83Z" transform="translate(-1.1 -0.83)" fill="#5a5a5a"/><path d="M85.1,155.33a1.49,1.49,0,0,1,.5,1,1.57,1.57,0,0,1-1,1.5,1.41,1.41,0,0,1-1,.5q-1,0-1.5-1.5c-.33-.66-.83-1.82-1.5-3.5q-3-6.48-4.5-10c-.33-.66,0-1.5,1-2.5a1.84,1.84,0,0,1,2.5,1.5c1.33,3,2.33,5.34,3,7,.33.68.67,1.34,1,2s.67,1.43,1,2.25A6,6,0,0,1,85.1,155.33Z" transform="translate(-1.1 -0.83)" fill="#5a5a5a"/><path d="M74.1,128.33v1a1.33,1.33,0,0,1-1.5,1.5h-.5c-1,0-1.5-.32-1.5-1q-3-7-4.5-10l-1.5-3.5v-1a6.06,6.06,0,0,1,1-1.5,1.84,1.84,0,0,1,2.5,1.5,32.24,32.24,0,0,0,1.75,4c.83,1.68,1.58,3.34,2.25,5A21.75,21.75,0,0,0,74.1,128.33Z" transform="translate(-1.1 -0.83)" fill="#5a5a5a"/><path d="M62.1,101.33v1c0,1-.33,1.5-1,1.5h-.5c-1,0-1.5-.32-1.5-1a11.25,11.25,0,0,1-1.5-3,22.42,22.42,0,0,0-2-4,46.91,46.91,0,0,0-2.5-6.5q-.49-.48,0-1.5c0-.32.33-.66,1-1a1.4,1.4,0,0,1,2,1,29.09,29.09,0,0,1,2.5,5c.33,1,.92,2.5,1.75,4.5S61.77,100.67,62.1,101.33Z" transform="translate(-1.1 -0.83)" fill="#5a5a5a"/><path d="M50.6,74.33v.5a2,2,0,0,1-1,2h-.5a2,2,0,0,1-2-1c-.33-1-1-2.66-2-5-.33-1-.92-2.41-1.75-4.25a45.81,45.81,0,0,1-1.75-4.25,2,2,0,0,1,1-2.5,1.4,1.4,0,0,1,2,1l1.5,3c.33.68.75,1.68,1.25,3s1,2.68,1.5,4A16.81,16.81,0,0,0,50.6,74.33Z" transform="translate(-1.1 -0.83)" fill="#5a5a5a"/><path d="M39.1,47.33v.5a2,2,0,0,1-1,2h-1a1.58,1.58,0,0,1-1.5-1c-.33-.66-.67-1.32-1-2a9,9,0,0,1-.75-2.25,3.58,3.58,0,0,0-.75-1.75,2,2,0,0,1-.5-1.5,5.47,5.47,0,0,1-5.5-3.5q-2.51-5,2.75-7t7.25,3a4.72,4.72,0,0,1-1.5,6,28.18,28.18,0,0,1,2.5,5.5Z" transform="translate(-1.1 -0.83)" fill="#5a5a5a"/><path d="M30.1,50.33l8.5,17.5h-7v5.5c0,1.34-.58,2-1.75,2s-1.75-.66-1.75-2v-5.5h-7Z" transform="translate(-1.1 -0.83)" fill="#5a5a5a"/><path d="M31.6,330.83a5.5,5.5,0,0,1,4,5.5,5.22,5.22,0,0,1-1.75,3.75,5.46,5.46,0,0,1-4,1.75,4.7,4.7,0,0,1-3.75-1.75,5.64,5.64,0,0,1-1.5-3.75,5.49,5.49,0,0,1,3.5-5.5v-7.5c0-1.32.58-2,1.75-2s1.75.68,1.75,2Z" transform="translate(-1.1 -0.83)" fill="#5a5a5a"/><path d="M31.6,293.83v14.5c0,1.34-.58,2-1.75,2s-1.75-.66-1.75-2v-14.5c0-1.32.58-2,1.75-2S31.6,292.51,31.6,293.83Z" transform="translate(-1.1 -0.83)" fill="#5a5a5a"/><path d="M31.6,264.33v15c0,1-.58,1.5-1.75,1.5s-1.75-.5-1.75-1.5v-15c0-1,.58-1.5,1.75-1.5S31.6,263.33,31.6,264.33Z" transform="translate(-1.1 -0.83)" fill="#5a5a5a"/><path d="M31.6,235.33v14.5c0,1.34-.58,2-1.75,2s-1.75-.66-1.75-2v-14.5c0-1.32.58-2,1.75-2S31.6,234,31.6,235.33Z" transform="translate(-1.1 -0.83)" fill="#5a5a5a"/><path d="M31.6,205.83v14.5c0,1.34-.58,2-1.75,2s-1.75-.66-1.75-2v-14.5c0-1.32.58-2,1.75-2S31.6,204.51,31.6,205.83Z" transform="translate(-1.1 -0.83)" fill="#5a5a5a"/><path d="M31.6,176.33v14.5c0,1.34-.58,2-1.75,2s-1.75-.66-1.75-2v-14.5c0-1.32.58-2,1.75-2S31.6,175,31.6,176.33Z" transform="translate(-1.1 -0.83)" fill="#5a5a5a"/><path d="M31.6,146.83v15c0,1-.58,1.5-1.75,1.5s-1.75-.5-1.75-1.5v-15c0-1,.58-1.5,1.75-1.5S31.6,145.83,31.6,146.83Z" transform="translate(-1.1 -0.83)" fill="#5a5a5a"/><path d="M31.6,117.83v14.5c0,1.34-.58,2-1.75,2s-1.75-.66-1.75-2v-14.5c0-1.32.58-2,1.75-2S31.6,116.51,31.6,117.83Z" transform="translate(-1.1 -0.83)" fill="#5a5a5a"/><path d="M31.6,88.33v14.5c0,1.34-.58,2-1.75,2s-1.75-.66-1.75-2V88.33c0-1.32.58-2,1.75-2S31.6,87,31.6,88.33Z" transform="translate(-1.1 -0.83)" fill="#5a5a5a"/></svg>