<svg id="Layer_1" data-name="Layer 1" xmlns="http://www.w3.org/2000/svg" viewBox="0 0 240 364"><path d="M235.87,28.11v307a22.22,22.22,0,0,1-2,9v.5c-.68,1.34-1.5,2.84-2.5,4.5l-.5.5-2,2a23.81,23.81,0,0,1-12.5,6.5,27.67,27.67,0,0,1-7.5,0,19.21,19.21,0,0,1-8-3,20.69,20.69,0,0,1-5.5-4v-.5q-1-1-1.5-1.5a5.94,5.94,0,0,1-1.5-2.5l-134-223a2.46,2.46,0,0,0-4.5,1.5v209a15.31,15.31,0,0,1-.5,3.5,27.25,27.25,0,0,1-1.5,5.5,19.32,19.32,0,0,1-4.5,7,35.07,35.07,0,0,1-5.5,4.5,15.59,15.59,0,0,1-5,2,21,21,0,0,1-12,.5,15.24,15.24,0,0,1-5-2,30.27,30.27,0,0,1-5.5-3.5,28,28,0,0,1-5.5-7.5,20.78,20.78,0,0,1-2-6V29.61a20.5,20.5,0,0,1,5-13.5,5.55,5.55,0,0,1,1-1.5l.5-1a45.41,45.41,0,0,1,5-3.5,21.86,21.86,0,0,1,11.5-3h1a22.22,22.22,0,0,1,9,2,27,27,0,0,1,7,5,24.21,24.21,0,0,1,3.5,4.5l133.5,223a2.41,2.41,0,0,0,3,1.5,2.36,2.36,0,0,0,2-2.5V28.11a22.56,22.56,0,0,1,7-16.5c4.32-4.32,9.82-6.5,16.5-6.5a22.43,22.43,0,0,1,16.5,6.5A22.64,22.64,0,0,1,235.87,28.11Zm-14.5,20-9-17.5-8.5,17.5h7v11c0,1.34.57,2,1.75,2s1.75-.66,1.75-2v-11Zm-4.25,284.25a5.21,5.21,0,0,0,.75-2.75,5.51,5.51,0,0,0-3.5-5.5v-15a2,2,0,0,0-2-1.5c-1,0-1.5.68-1.5,2v14.5a5.49,5.49,0,0,0-4,5.5,6.05,6.05,0,0,0,5.5,5.5,5.26,5.26,0,0,0,2.75-.75A5.8,5.8,0,0,0,217.12,332.36Zm-2.75-37.75v-14.5c-.34-1.32-1-2-2-2s-1.5.68-1.5,2v14.5c0,1.34.57,2,1.75,2S214.37,296,214.37,294.61Zm0-29v-15c-.34-1.32-1-2-2-2s-1.5.68-1.5,2v15c0,1,.57,1.5,1.75,1.5S214.37,266.61,214.37,265.61Zm0-29.5v-15a2,2,0,0,0-2-1.5,1.33,1.33,0,0,0-1.5,1.5v15c0,1,.57,1.5,1.75,1.5S214.37,237.11,214.37,236.11Zm0-29.5v-15a2,2,0,0,0-2-1.5,1.33,1.33,0,0,0-1.5,1.5v15c0,1,.57,1.5,1.75,1.5S214.37,207.61,214.37,206.61Zm0-29.5v-15a2,2,0,0,0-2-1.5,1.33,1.33,0,0,0-1.5,1.5v15c0,1.34.57,2,1.75,2S214.37,178.45,214.37,177.11Zm0-29.5v-15a2,2,0,0,0-2-1.5c-1,0-1.5.68-1.5,2v14.5c0,1.34.57,2,1.75,2S214.37,149,214.37,147.61Zm0-29.5v-15a2,2,0,0,0-2-1.5c-1,0-1.5.68-1.5,2v14.5c0,1.34.57,2,1.75,2S214.37,119.45,214.37,118.11Zm0-29.5v-15a2,2,0,0,0-2-1.5c-1,0-1.5.68-1.5,2v14.5c0,1.34.57,2,1.75,2S214.37,90,214.37,88.61Zm-9,234.5-1.5-19.5-6,3.5c-1.34-2.32-2.5-4.32-3.5-6l-2-4a2.31,2.31,0,0,0-2.5-.5,1.59,1.59,0,0,0-1,1.5,1.38,1.38,0,0,0,.5,1,44,44,0,0,0,3.5,6.5,29.07,29.07,0,0,0,2,3.5l-6,3.5Zm-20.5-37.5a1.54,1.54,0,0,0-.5-1,92.4,92.4,0,0,0-5.5-9l-2-3.5c-.34-1.32-1-1.5-2-.5a.88.88,0,0,0-1,1q-.51.51,0,1.5a68.14,68.14,0,0,0,3.75,6.25c1.82,2.84,3.07,4.93,3.75,6.25a2,2,0,0,0,2,1h.5A2,2,0,0,0,184.87,285.61Zm-15-25c0-.66-.18-1-.5-1a41.31,41.31,0,0,0-3.25-6c-1.84-3-3.25-5.16-4.25-6.5-.68-1.32-1.5-1.66-2.5-1a1.59,1.59,0,0,0-.5,2.5c.66,1.34,2,3.68,4,7a30.78,30.78,0,0,0,1.75,3c.82,1.34,1.41,2.25,1.75,2.75a1.65,1.65,0,0,0,1.5.75h1A1.59,1.59,0,0,0,169.87,260.61Zm-15-25.5-.5-1c-3.34-5.32-5.84-9.5-7.5-12.5a1.6,1.6,0,0,0-2.5-.5c-.34,0-.68.34-1,1v1.5a32.71,32.71,0,0,1,4,5.75c1.66,2.84,3,5.09,4,6.75a1.56,1.56,0,0,0,1.5,1,1.45,1.45,0,0,0,1-.5A1.59,1.59,0,0,0,154.87,235.11Zm-15.5-25v-1.5l-.5-.5c-1-1.66-2.68-4.32-5-8l-2-4a3,3,0,0,0-3-.5,1.45,1.45,0,0,0-.5,1v1.5c.66,1,1.57,2.59,2.75,4.75s2.07,3.75,2.75,4.75,1.32,2,2,3a2,2,0,0,0,2,1h.5A1.59,1.59,0,0,0,139.37,210.11Zm-15-25.5v-1a15.64,15.64,0,0,1-2.25-3,30.78,30.78,0,0,1-1.75-3,64.79,64.79,0,0,0-4-6.5c-.34-1-1.18-1.16-2.5-.5-.34,0-.5.34-.5,1q-.51.51,0,1.5,6.48,11,7.5,12.5a1.56,1.56,0,0,0,1.5,1,1.45,1.45,0,0,0,1-.5A1.59,1.59,0,0,0,124.37,184.61Zm-15-25.5a.45.45,0,0,0-.5-.5l-1.5-2.5c-.34-.66-.75-1.5-1.25-2.5s-1-1.91-1.5-2.75a26,26,0,0,0-1.75-2.5,8.21,8.21,0,0,1-1.5-2.75,1.6,1.6,0,0,0-2.5-.5c-.68.34-1,.68-1,1a3,3,0,0,0,.5,1.75,25.25,25.25,0,0,1,1.25,2.25c.5,1,1,1.93,1.5,2.75a10.77,10.77,0,0,0,1.75,2.25,32.28,32.28,0,0,0,3,5,1.56,1.56,0,0,0,1.5,1h1A2,2,0,0,0,109.37,159.11Zm-15-25a1.54,1.54,0,0,0-.5-1q-.51-.48-6.5-10.5l-1-2a1.6,1.6,0,0,0-2.5-.5c-1,.34-1.34,1.18-1,2.5l2.5,3.5a24.64,24.64,0,0,0,1.25,2.25c.5.84.91,1.59,1.25,2.25a24.64,24.64,0,0,0,1.25,2.25,10.77,10.77,0,0,0,1.75,2.25,1.56,1.56,0,0,0,1.5,1,1.45,1.45,0,0,0,1-.5A1.59,1.59,0,0,0,94.37,134.11Zm-15.5-25v-1q-1-1.5-2.25-3.75c-.84-1.5-1.43-2.57-1.75-3.25a15,15,0,0,1-1.75-2.5,19.28,19.28,0,0,0-2.25-3c-.34-1.32-1.18-1.66-2.5-1a1.59,1.59,0,0,0-.5,2.5q4,6.51,6,10l2,3a2,2,0,0,0,1.5.5h1A2.05,2.05,0,0,0,78.87,109.11Zm-15-25.5v-1a15.64,15.64,0,0,1-2.25-3,7.45,7.45,0,0,1-1.25-2.5,53.77,53.77,0,0,0-4.5-7,1.6,1.6,0,0,0-2.5-.5c-.34,0-.5.34-.5,1-.34.34-.34.75,0,1.25s.66,1.09,1,1.75a11.38,11.38,0,0,0,1.25,2,3.14,3.14,0,0,1,.75,1.5q1.5,2.52,4.5,7.5a1.56,1.56,0,0,0,1.5,1,1.45,1.45,0,0,0,1-.5A1.59,1.59,0,0,0,63.87,83.61Zm-15-25.5a.45.45,0,0,0-.5-.5l-1.5-3a62.29,62.29,0,0,1-3.5-5.25,25.41,25.41,0,0,1-2.5-4.75c-.68-1.32-1.5-1.5-2.5-.5a1.59,1.59,0,0,0-.5,2.5,41.76,41.76,0,0,0,2.5,4,19.42,19.42,0,0,0,1.5,2.5c.66,1,1.32,2.09,2,3.25s1.16,2.09,1.5,2.75a1.56,1.56,0,0,0,1.5,1,1.45,1.45,0,0,0,1-.5C48.53,59.61,48.87,59.11,48.87,58.11Zm-10,7-8.5-17.5-9,17.5h7v11c0,1.34.57,2,1.75,2s1.75-.66,1.75-2v-11Zm-3-25.25c3-1.82,3.57-4.32,1.75-7.5s-4.34-3.82-7.5-2-3.75,4.34-1.75,7.5S32.87,41.7,35.87,39.86Zm0,289.75a6.66,6.66,0,0,0-.75-3,4,4,0,0,0-2-2,7.64,7.64,0,0,0-2.75-.5,5.39,5.39,0,0,0-4,1.5,5.09,5.09,0,0,0-1.5,3.75,6,6,0,0,0,1.5,4,4.7,4.7,0,0,0,3.75,1.75,5.48,5.48,0,0,0,4-1.75A5.26,5.26,0,0,0,35.87,329.61Zm-4-17.5v-15c0-1.32-.59-2-1.75-2s-1.75.68-1.75,2v15c0,1,.57,1.5,1.75,1.5S31.87,313.11,31.87,312.11Zm0-29.5v-15c0-1-.59-1.5-1.75-1.5s-1.75.5-1.75,1.5v15c0,1,.57,1.5,1.75,1.5S31.87,283.61,31.87,282.61Zm0-29.5v-15c0-1-.59-1.5-1.75-1.5s-1.75.5-1.75,1.5v15c0,1.34.57,2,1.75,2S31.87,254.45,31.87,253.11Zm0-29.5v-14.5c0-1.32-.59-2-1.75-2s-1.75.68-1.75,2v14.5c0,1.34.57,2,1.75,2S31.87,225,31.87,223.61Zm0-29.5v-14.5c0-1.32-.59-2-1.75-2s-1.75.68-1.75,2v14.5c0,1.34.57,2,1.75,2S31.87,195.45,31.87,194.11Zm0-29.5v-14.5c0-1.32-.59-2-1.75-2s-1.75.68-1.75,2v14.5c0,1.34.57,2,1.75,2S31.87,166,31.87,164.61Zm0-29.5v-14.5c0-1.32-.59-2-1.75-2s-1.75.68-1.75,2v14.5c0,1.34.57,2,1.75,2S31.87,136.45,31.87,135.11Zm0-29v-15c0-1.32-.59-2-1.75-2s-1.75.68-1.75,2v15c0,1,.57,1.5,1.75,1.5S31.87,107.11,31.87,106.11Z" transform="translate(-1.37 0.39)" fill="#fbea23"/><path d="M241.37,28.11v307a27.57,27.57,0,0,1-2.5,11.5,31.39,31.39,0,0,1-3.5,5.5v.5a.44.44,0,0,0-.5.5l-2,2a22.06,22.06,0,0,1-7,5.5,24.36,24.36,0,0,1-8,2.5h-1a18.34,18.34,0,0,1-4.5.5,16,16,0,0,1-4-.5,21,21,0,0,1-10-3.5,18.55,18.55,0,0,1-6-4l-.5-1h-.5a7,7,0,0,1-1.5-2,19.48,19.48,0,0,1-2.5-3l-128.5-215v199.5a19.11,19.11,0,0,1-.5,4.5,38.25,38.25,0,0,1-1.5,6.5,25.06,25.06,0,0,1-5.5,8.5,22.06,22.06,0,0,1-7,5.5,15.1,15.1,0,0,1-6,2.5,23.89,23.89,0,0,1-14.5.5,20.69,20.69,0,0,1-6.5-2,42.65,42.65,0,0,1-6.5-4.5,27.88,27.88,0,0,1-7-9.5,26.91,26.91,0,0,1-2-7,24.8,24.8,0,0,1-.5-5v-305a27.64,27.64,0,0,1,6-16,7.56,7.56,0,0,1,1.5-2l1-1a36.44,36.44,0,0,1,5.5-4.5h.5a23.84,23.84,0,0,1,13.5-4h1.5a24.36,24.36,0,0,1,11,2.5h.5a28,28,0,0,1,8.5,6.5,37.47,37.47,0,0,1,4.5,5.5l128.5,214.5V28.11a27.53,27.53,0,0,1,8.25-20.25A27.53,27.53,0,0,1,212.37-.39a28.39,28.39,0,0,1,20.5,8.25A27.15,27.15,0,0,1,241.37,28.11Zm-5.5,307v-307a22.64,22.64,0,0,0-7-16.5,22.43,22.43,0,0,0-16.5-6.5c-6.68,0-12.18,2.18-16.5,6.5a22.56,22.56,0,0,0-7,16.5v212.5a2.36,2.36,0,0,1-2,2.5,2.41,2.41,0,0,1-3-1.5l-133.5-223a24.21,24.21,0,0,0-3.5-4.5,27,27,0,0,0-7-5,22.22,22.22,0,0,0-9-2h-1a21.86,21.86,0,0,0-11.5,3,45.41,45.41,0,0,0-5,3.5l-.5,1a5.55,5.55,0,0,0-1,1.5,20.5,20.5,0,0,0-5,13.5v308.5a20.78,20.78,0,0,0,2,6,28,28,0,0,0,5.5,7.5,30.27,30.27,0,0,0,5.5,3.5,15.24,15.24,0,0,0,5,2,21,21,0,0,0,12-.5,15.59,15.59,0,0,0,5-2,35.07,35.07,0,0,0,5.5-4.5,19.32,19.32,0,0,0,4.5-7,27.25,27.25,0,0,0,1.5-5.5,15.31,15.31,0,0,0,.5-3.5v-209a2.46,2.46,0,0,1,4.5-1.5l134,223a5.94,5.94,0,0,0,1.5,2.5q.48.51,1.5,1.5v.5a20.69,20.69,0,0,0,5.5,4,19.21,19.21,0,0,0,8,3,27.67,27.67,0,0,0,7.5,0,23.81,23.81,0,0,0,12.5-6.5l2-2,.5-.5c1-1.66,1.82-3.16,2.5-4.5v-.5A22.22,22.22,0,0,0,235.87,335.11Z" transform="translate(-1.37 0.39)" fill="#1d1d1b"/><path d="M212.37,30.61l9,17.5h-7v11c0,1.34-.59,2-1.75,2s-1.75-.66-1.75-2v-11h-7Z" transform="translate(-1.37 0.39)" fill="#5a5a5a"/><path d="M217.87,329.61a5.21,5.21,0,0,1-.75,2.75,5.8,5.8,0,0,1-2,2,5.26,5.26,0,0,1-2.75.75,6.05,6.05,0,0,1-5.5-5.5,5.49,5.49,0,0,1,4-5.5v-14.5c0-1.32.5-2,1.5-2a2,2,0,0,1,2,1.5v15A5.51,5.51,0,0,1,217.87,329.61Z" transform="translate(-1.37 0.39)" fill="#5a5a5a"/><path d="M214.37,280.61v14c0,1.34-.59,2-1.75,2s-1.75-.66-1.75-2v-14.5c0-1.32.5-2,1.5-2s1.66.68,2,2Z" transform="translate(-1.37 0.39)" fill="#5a5a5a"/><path d="M214.37,251.11v14.5c0,1-.59,1.5-1.75,1.5s-1.75-.5-1.75-1.5v-15c0-1.32.5-2,1.5-2s1.66.68,2,2Z" transform="translate(-1.37 0.39)" fill="#5a5a5a"/><path d="M214.37,221.61v14.5c0,1-.59,1.5-1.75,1.5s-1.75-.5-1.75-1.5v-15a1.33,1.33,0,0,1,1.5-1.5,2,2,0,0,1,2,1.5Z" transform="translate(-1.37 0.39)" fill="#5a5a5a"/><path d="M214.37,192.11v14.5c0,1-.59,1.5-1.75,1.5s-1.75-.5-1.75-1.5v-15a1.33,1.33,0,0,1,1.5-1.5,2,2,0,0,1,2,1.5Z" transform="translate(-1.37 0.39)" fill="#5a5a5a"/><path d="M214.37,162.61v14.5c0,1.34-.59,2-1.75,2s-1.75-.66-1.75-2v-15a1.33,1.33,0,0,1,1.5-1.5,2,2,0,0,1,2,1.5Z" transform="translate(-1.37 0.39)" fill="#5a5a5a"/><path d="M214.37,133.11v14.5c0,1.34-.59,2-1.75,2s-1.75-.66-1.75-2v-14.5c0-1.32.5-2,1.5-2a2,2,0,0,1,2,1.5Z" transform="translate(-1.37 0.39)" fill="#5a5a5a"/><path d="M214.37,104.11v14c0,1.34-.59,2-1.75,2s-1.75-.66-1.75-2v-14.5c0-1.32.5-2,1.5-2a2,2,0,0,1,2,1.5v1Z" transform="translate(-1.37 0.39)" fill="#5a5a5a"/><path d="M214.37,74.11v14.5c0,1.34-.59,2-1.75,2s-1.75-.66-1.75-2V74.11c0-1.32.5-2,1.5-2a2,2,0,0,1,2,1.5Z" transform="translate(-1.37 0.39)" fill="#5a5a5a"/><path d="M203.87,303.61l1.5,19.5-16.5-10.5,6-3.5a29.07,29.07,0,0,1-2-3.5,44,44,0,0,1-3.5-6.5,1.38,1.38,0,0,1-.5-1,1.59,1.59,0,0,1,1-1.5,2.31,2.31,0,0,1,2.5.5l2,4c1,1.68,2.16,3.68,3.5,6Z" transform="translate(-1.37 0.39)" fill="#5a5a5a"/><path d="M184.37,284.61a1.54,1.54,0,0,1,.5,1,2,2,0,0,1-1,2h-.5a2,2,0,0,1-2-1c-.68-1.32-1.93-3.41-3.75-6.25a68.14,68.14,0,0,1-3.75-6.25q-.51-1,0-1.5a.88.88,0,0,1,1-1c1-1,1.66-.82,2,.5l2,3.5A92.4,92.4,0,0,1,184.37,284.61Z" transform="translate(-1.37 0.39)" fill="#5a5a5a"/><path d="M169.37,259.61c.32,0,.5.34.5,1a1.59,1.59,0,0,1-1,1.5h-1a1.65,1.65,0,0,1-1.5-.75c-.34-.5-.93-1.41-1.75-2.75a30.78,30.78,0,0,1-1.75-3c-2-3.32-3.34-5.66-4-7a1.59,1.59,0,0,1,.5-2.5c1-.66,1.82-.32,2.5,1,1,1.34,2.41,3.5,4.25,6.5A41.31,41.31,0,0,1,169.37,259.61Z" transform="translate(-1.37 0.39)" fill="#5a5a5a"/><path d="M154.37,234.11l.5,1a1.59,1.59,0,0,1-1,1.5,1.45,1.45,0,0,1-1,.5,1.56,1.56,0,0,1-1.5-1c-1-1.66-2.34-3.91-4-6.75a32.71,32.71,0,0,0-4-5.75v-1.5c.32-.66.66-1,1-1a1.6,1.6,0,0,1,2.5.5C148.53,224.61,151,228.79,154.37,234.11Z" transform="translate(-1.37 0.39)" fill="#5a5a5a"/><path d="M138.87,208.11l.5.5v1.5a1.59,1.59,0,0,1-1,1.5h-.5a2,2,0,0,1-2-1c-.68-1-1.34-2-2-3s-1.59-2.57-2.75-4.75-2.09-3.75-2.75-4.75v-1.5a1.45,1.45,0,0,1,.5-1,3,3,0,0,1,3,.5l2,4C136.19,203.79,137.87,206.45,138.87,208.11Z" transform="translate(-1.37 0.39)" fill="#5a5a5a"/><path d="M124.37,183.61v1a1.59,1.59,0,0,1-1,1.5,1.45,1.45,0,0,1-1,.5,1.56,1.56,0,0,1-1.5-1q-1-1.5-7.5-12.5-.51-1,0-1.5c0-.66.16-1,.5-1,1.32-.66,2.16-.5,2.5.5a64.79,64.79,0,0,1,4,6.5,30.78,30.78,0,0,0,1.75,3A15.64,15.64,0,0,0,124.37,183.61Z" transform="translate(-1.37 0.39)" fill="#5a5a5a"/><path d="M108.87,158.61a.45.45,0,0,1,.5.5,2,2,0,0,1-1,2h-1a1.56,1.56,0,0,1-1.5-1,32.28,32.28,0,0,1-3-5,10.77,10.77,0,0,1-1.75-2.25c-.5-.82-1-1.75-1.5-2.75a25.25,25.25,0,0,0-1.25-2.25,3,3,0,0,1-.5-1.75c0-.32.32-.66,1-1a1.6,1.6,0,0,1,2.5.5,8.21,8.21,0,0,0,1.5,2.75,26,26,0,0,1,1.75,2.5c.5.84,1,1.75,1.5,2.75s.91,1.84,1.25,2.5Z" transform="translate(-1.37 0.39)" fill="#5a5a5a"/><path d="M93.87,133.11a1.54,1.54,0,0,1,.5,1,1.59,1.59,0,0,1-1,1.5,1.45,1.45,0,0,1-1,.5,1.56,1.56,0,0,1-1.5-1,10.77,10.77,0,0,1-1.75-2.25,24.64,24.64,0,0,1-1.25-2.25c-.34-.66-.75-1.41-1.25-2.25a24.64,24.64,0,0,1-1.25-2.25l-2.5-3.5c-.34-1.32,0-2.16,1-2.5a1.6,1.6,0,0,1,2.5.5l1,2Q93.37,132.63,93.87,133.11Z" transform="translate(-1.37 0.39)" fill="#5a5a5a"/><path d="M78.87,108.11v1a2.05,2.05,0,0,1-.5,1.5h-1a2,2,0,0,1-1.5-.5l-2-3q-2-3.48-6-10a1.59,1.59,0,0,1,.5-2.5c1.32-.66,2.16-.32,2.5,1a19.28,19.28,0,0,1,2.25,3,15,15,0,0,0,1.75,2.5c.32.68.91,1.75,1.75,3.25S78.19,107.11,78.87,108.11Z" transform="translate(-1.37 0.39)" fill="#5a5a5a"/><path d="M63.87,82.61v1a1.59,1.59,0,0,1-1,1.5,1.45,1.45,0,0,1-1,.5,1.56,1.56,0,0,1-1.5-1q-3-5-4.5-7.5a3.14,3.14,0,0,0-.75-1.5,11.38,11.38,0,0,1-1.25-2c-.34-.66-.68-1.25-1-1.75s-.34-.91,0-1.25c0-.66.16-1,.5-1a1.6,1.6,0,0,1,2.5.5,53.77,53.77,0,0,1,4.5,7,7.45,7.45,0,0,0,1.25,2.5A15.64,15.64,0,0,0,63.87,82.61Z" transform="translate(-1.37 0.39)" fill="#5a5a5a"/><path d="M48.37,57.61a.45.45,0,0,1,.5.5c0,1-.34,1.5-1,1.5a1.45,1.45,0,0,1-1,.5,1.56,1.56,0,0,1-1.5-1c-.34-.66-.84-1.57-1.5-2.75s-1.34-2.25-2-3.25a19.42,19.42,0,0,1-1.5-2.5,41.76,41.76,0,0,1-2.5-4,1.59,1.59,0,0,1,.5-2.5c1-1,1.82-.82,2.5.5a25.41,25.41,0,0,0,2.5,4.75,62.29,62.29,0,0,0,3.5,5.25Z" transform="translate(-1.37 0.39)" fill="#5a5a5a"/><path d="M30.37,47.61l8.5,17.5h-7v11c0,1.34-.59,2-1.75,2s-1.75-.66-1.75-2v-11h-7Z" transform="translate(-1.37 0.39)" fill="#5a5a5a"/><path d="M37.62,32.36c1.82,3.18,1.25,5.68-1.75,7.5s-5.5,1.18-7.5-2-1.43-5.66,1.75-7.5S35.78,29.2,37.62,32.36Z" transform="translate(-1.37 0.39)" fill="#5a5a5a"/><path d="M35.12,326.61a6.66,6.66,0,0,1,.75,3,5.26,5.26,0,0,1-1.75,3.75,5.48,5.48,0,0,1-4,1.75,4.7,4.7,0,0,1-3.75-1.75,6,6,0,0,1-1.5-4,5.09,5.09,0,0,1,1.5-3.75,5.39,5.39,0,0,1,4-1.5,7.64,7.64,0,0,1,2.75.5A4,4,0,0,1,35.12,326.61Z" transform="translate(-1.37 0.39)" fill="#5a5a5a"/><path d="M31.87,297.11v15c0,1-.59,1.5-1.75,1.5s-1.75-.5-1.75-1.5v-15c0-1.32.57-2,1.75-2S31.87,295.79,31.87,297.11Z" transform="translate(-1.37 0.39)" fill="#5a5a5a"/><path d="M31.87,267.61v15c0,1-.59,1.5-1.75,1.5s-1.75-.5-1.75-1.5v-15c0-1,.57-1.5,1.75-1.5S31.87,266.61,31.87,267.61Z" transform="translate(-1.37 0.39)" fill="#5a5a5a"/><path d="M31.87,238.11v15c0,1.34-.59,2-1.75,2s-1.75-.66-1.75-2v-15c0-1,.57-1.5,1.75-1.5S31.87,237.11,31.87,238.11Z" transform="translate(-1.37 0.39)" fill="#5a5a5a"/><path d="M31.87,209.11v14.5c0,1.34-.59,2-1.75,2s-1.75-.66-1.75-2v-14.5c0-1.32.57-2,1.75-2S31.87,207.79,31.87,209.11Z" transform="translate(-1.37 0.39)" fill="#5a5a5a"/><path d="M31.87,179.61v14.5c0,1.34-.59,2-1.75,2s-1.75-.66-1.75-2v-14.5c0-1.32.57-2,1.75-2S31.87,178.29,31.87,179.61Z" transform="translate(-1.37 0.39)" fill="#5a5a5a"/><path d="M31.87,150.11v14.5c0,1.34-.59,2-1.75,2s-1.75-.66-1.75-2v-14.5c0-1.32.57-2,1.75-2S31.87,148.79,31.87,150.11Z" transform="translate(-1.37 0.39)" fill="#5a5a5a"/><path d="M31.87,120.61v14.5c0,1.34-.59,2-1.75,2s-1.75-.66-1.75-2v-14.5c0-1.32.57-2,1.75-2S31.87,119.29,31.87,120.61Z" transform="translate(-1.37 0.39)" fill="#5a5a5a"/><path d="M31.87,91.11v15c0,1-.59,1.5-1.75,1.5s-1.75-.5-1.75-1.5v-15c0-1.32.57-2,1.75-2S31.87,89.79,31.87,91.11Z" transform="translate(-1.37 0.39)" fill="#5a5a5a"/></svg>