<svg id="Layer_1" data-name="Layer 1" xmlns="http://www.w3.org/2000/svg" viewBox="0 0 265.5 364.5"><path d="M128.38,35.69q5.49-.24,5.25-5.75t-5.75-5a5.26,5.26,0,0,0-3.75,1.75,3.78,3.78,0,0,0-1.25,3.75Q122.88,35.95,128.38,35.69Zm5.5-5.75,16.5,10.5.5-6.5a94.35,94.35,0,0,1,10,3h.5a.44.44,0,0,0,.5.5,1.61,1.61,0,0,0,1.5-1v-1c0-1-.34-1.5-1-1.5a61.67,61.67,0,0,0-11-3.5l1-7.5Zm113.5,72.75a233.16,233.16,0,0,1,14,80.75,231,231,0,0,1-14,80.5q-14,38-39,63-33,33.51-74.5,33.5t-75-33.5q-24.51-25-38.5-63a230.8,230.8,0,0,1-14-80.5,241.9,241.9,0,0,1,6.25-55.25,212.49,212.49,0,0,1,18-49.5A148.09,148.09,0,0,1,58.88,39.94Q92.38,6.45,133.63,6.44t74.75,33.5Q233.37,64.45,247.38,102.69Zm-7.5,81.75v-1q0-8-.5-14c0-1.33-.67-1.83-2-1.5a1.77,1.77,0,0,0-2,2q.5,5,.5,13.5v1a2,2,0,0,0,4,0Zm-1,15c.33-.66.25-1.16-.25-1.5a2.47,2.47,0,0,0-1.25-.5,2,2,0,0,0-2,1.5,85.43,85.43,0,0,1-1.5,14.5c0,1.34.5,2,1.5,2h.5a1.33,1.33,0,0,0,1.5-1.5A85.43,85.43,0,0,0,238.88,199.44Zm-1-44.5q-.51-3-2.5-15c0-.66-.67-1-2-1-.67,0-1,.17-1,.5a3.76,3.76,0,0,0-.5,1.5q1,4,2.5,14.5a1.33,1.33,0,0,0,1.5,1.5h.5C237.38,156.94,237.88,156.28,237.88,154.94Zm-3,73.5a1.4,1.4,0,0,0-1-2c-1.67-.33-2.5.17-2.5,1.5a87,87,0,0,1-3.5,13.5v1a2,2,0,0,0,1.5,2h.5a1.33,1.33,0,0,0,1.5-1.5Q233.87,233.94,234.88,228.44Zm-2.5-102-.5-.5q-1-4.5-4-14c-.67-1.33-1.59-1.83-2.75-1.5s-1.42,1.17-.75,2.5a96,96,0,0,1,4,14,2,2,0,0,0,2,1h.5Q231.87,127.94,232.38,126.44Zm-5.5,130.5a1.4,1.4,0,0,0-1-2c-1-.66-1.84-.33-2.5,1q-2,6-5,13a.44.44,0,0,0-.5.5v.5c0,1,.33,1.5,1,1.5a.44.44,0,0,0,.5.5,2,2,0,0,0,1.5-.5v.5l.5-1Q224.38,263.95,226.88,256.94Zm-4.5-158.5v-.5q-2-4.5-7-13.5a1.8,1.8,0,0,0-3,2q3.5,6,6.5,12.5l.5,1.5v-.5a1.4,1.4,0,0,0,1,.5h1A2,2,0,0,0,222.38,98.44Zm-8,185.5q.5-.49,0-1.5a1.47,1.47,0,0,0-.5-1c-1.34-.33-2.17-.16-2.5.5q-4.5,7-8,12v.5h-.5v1c0,.34.33.84,1,1.5h1a2,2,0,0,0,1.5-.5A104,104,0,0,0,214.38,283.94Zm0-100.75a189.28,189.28,0,0,0-10.25-63q-10.26-29.25-28.25-47.25-19.5-19.5-42-19.5t-42,19.5q-18,18-28.25,47.25t-10.25,63q0,33.75,10.25,63t28.25,47.75q19.5,19.5,42,19.5t42-19.5q18-18.49,28.25-47.75A189.28,189.28,0,0,0,214.38,183.19Zm-6.5-110.25v-1a92.9,92.9,0,0,0-9.5-11.5c-1-1-1.84-1-2.5,0-1,.67-1,1.5,0,2.5a117.93,117.93,0,0,1,8.5,11,2.71,2.71,0,0,0,1.75,1c.5,0,.75-.16.75-.5A1.61,1.61,0,0,0,207.88,72.94Zm-11,235c.66-1,.66-1.83,0-2.5-1-1-1.84-1-2.5,0a108,108,0,0,1-10.5,10l-.5.5v2c.66.67,1.16,1,1.5,1a1.43,1.43,0,0,0,1-.5A110,110,0,0,0,196.88,307.94Zm-9-257.5h.5l-.5-.5a81.34,81.34,0,0,0-12-9,1.8,1.8,0,1,0-2,3,92.11,92.11,0,0,1,11.5,8.5l1,.5a2,2,0,0,0,1.5-.5,1.7,1.7,0,0,0,.5-1.25C188.38,50.69,188.21,50.44,187.88,50.44Zm-14,276.5,1-1a2.07,2.07,0,0,0-.5-1.5c-.34-1-1.17-1.16-2.5-.5a61.66,61.66,0,0,1-12.5,6,2,2,0,0,0-1.5,2,.44.44,0,0,0,.5.5c0,.67.5,1,1.5,1h.5A101.1,101.1,0,0,0,173.88,326.94Zm-26.75,9.75a4.29,4.29,0,0,0,.25-1.25c0-1.33-.67-1.83-2-1.5a109.25,109.25,0,0,1-14.5,1c-1-.33-1.5.34-1.5,2a1.33,1.33,0,0,0,1.5,1.5h3a79,79,0,0,0,12-1A1.16,1.16,0,0,0,147.13,336.69Zm-28.75-1.75c.33-.33.16-.66-.5-1a.89.89,0,0,0-1-1,75.74,75.74,0,0,1-13.5-5c-1-.66-1.84-.33-2.5,1v1a1.59,1.59,0,0,0,1,1.5,58.43,58.43,0,0,0,14,5h.5A2,2,0,0,0,118.38,334.94Zm-6-301v-.5a1.83,1.83,0,0,0-2.5-1.5,98.29,98.29,0,0,0-13.5,6c-1,.34-1.34,1.17-1,2.5a2.85,2.85,0,0,0,2,1,.44.44,0,0,0,.5-.5,89,89,0,0,1,13.5-5.5A1.61,1.61,0,0,0,112.38,33.94Zm-21,289.5a1.6,1.6,0,0,0-.5-2.5q-5-3.49-11-8.5v-.5l-.5-.5a2.51,2.51,0,0,0-2.5.5v1.5a3.67,3.67,0,0,0,.5,1.5q6,5,11.5,9a1.4,1.4,0,0,0,1,.5A1.61,1.61,0,0,0,91.38,323.44Zm-4.5-275.5a3.93,3.93,0,0,0-.5-1.5c-.67-.66-1.5-.66-2.5,0a74.38,74.38,0,0,0-11,10c-1,.67-1,1.5,0,2.5a2,2,0,0,0,1.5.5,1.43,1.43,0,0,0,1-.5q5-5,11-10A1.44,1.44,0,0,0,86.88,47.94Zm-17,256c.66-.66.66-1.5,0-2.5a60.06,60.06,0,0,1-8.5-11.5,2.18,2.18,0,0,0-3-.5,2,2,0,0,0-.5,1.5v1q5,7,9,12a3.67,3.67,0,0,0,1.5.5A3.76,3.76,0,0,0,69.88,303.94Zm-4-234,.5-1a2.07,2.07,0,0,0-.5-1.5,1.88,1.88,0,0,0-3,0,99.05,99.05,0,0,0-8,12.5,2,2,0,0,0-.5,1.5c0,.34.33.67,1,1h1a2,2,0,0,0,1.5-.5Q61.87,75.44,65.88,69.94Zm-12,209v-1.5q-2-3.49-6.5-13c-.34-1-1.17-1.33-2.5-1a1.61,1.61,0,0,0-1,1.5v1q2.49,6,6.5,13.5a2,2,0,0,0,1.5.5h1C53.54,279.61,53.88,279.28,53.88,278.94Zm-3-184v-1a2.93,2.93,0,0,0-1-2,2,2,0,0,0-2.5,1q-3,7-5.5,13.5-.51,1,0,1.5c0,.34.33.67,1,1h.5c1,0,1.5-.33,1.5-1A111.52,111.52,0,0,1,50.88,94.94ZM42.13,252.19a1.15,1.15,0,0,0-.25-1.25q-1.5-6-4-14c-.34-1.33-1-1.83-2-1.5s-1.5.84-1.5,1.5v1q.49,2,4.5,14,.49,1.5,1.5,1.5l.5-.5A1.16,1.16,0,0,0,42.13,252.19ZM40.38,121.44v-.5q0-1-1.5-1.5a1.4,1.4,0,0,0-2,1q-2,7-4,14.5c0,.67.16,1,.5,1a.88.88,0,0,0,1,1h.5a2,2,0,0,0,2-1A133.36,133.36,0,0,1,40.38,121.44Zm-7,103.5a1.82,1.82,0,0,0,1.5-2.5q-1-6.49-2-14.5a3.29,3.29,0,0,0-2-1.5,2,2,0,0,0-1.5,2,115.06,115.06,0,0,0,2,15C31.38,224.44,32,224.94,33.38,224.94Zm.5-74.5v-.5a2,2,0,0,0-1.5-2c-1-.33-1.67.17-2,1.5q-1,7.5-1.5,15a.62.62,0,0,0,0,1,5.47,5.47,0,0,0,1.5,1c1,0,1.66-.66,2-2Q32.88,157.95,33.88,150.44Zm-2,43c-.34-5.33-.5-8.66-.5-10v-4.5c0-1.33-.59-2-1.75-2s-1.75.67-1.75,2v4.5c0,2.67.16,6.17.5,10.5a1.33,1.33,0,0,0,1.5,1.5A1.77,1.77,0,0,0,31.88,193.44Z" transform="translate(-0.88 -0.94)" fill="#fbea23"/><path d="M252.13,100.44a239.25,239.25,0,0,1,14.25,82.75,239.2,239.2,0,0,1-14.25,82.75q-14.25,39-39.75,64.5-35,35-78.75,35t-78.25-35q-25.5-25.5-40-64.5A235.43,235.43,0,0,1,.88,183.19a235.47,235.47,0,0,1,14.5-82.75q14.49-39,40-64.5,35-35,78.5-35t78.5,35Q237.88,61.44,252.13,100.44Zm9.25,83a233.16,233.16,0,0,0-14-80.75q-14-38.25-39-62.75Q174.87,6.45,133.63,6.44T58.88,39.94A148.09,148.09,0,0,0,30.63,78.69a212.49,212.49,0,0,0-18,49.5,241.9,241.9,0,0,0-6.25,55.25,230.8,230.8,0,0,0,14,80.5q14,38,38.5,63,33.49,33.51,75,33.5t74.5-33.5q25-25,39-63A231,231,0,0,0,261.38,183.44Z" transform="translate(-0.88 -0.94)" fill="#1d1d1b"/><path d="M239.88,183.44v1a2,2,0,0,1-4,0v-1q0-8.49-.5-13.5a1.77,1.77,0,0,1,2-2c1.33-.33,2,.17,2,1.5Q239.88,175.44,239.88,183.44Z" transform="translate(-0.88 -0.94)" fill="#5a5a5a"/><path d="M238.63,197.94c.5.34.58.84.25,1.5a85.43,85.43,0,0,1-1.5,14.5,1.33,1.33,0,0,1-1.5,1.5h-.5c-1,0-1.5-.66-1.5-2a85.43,85.43,0,0,0,1.5-14.5,2,2,0,0,1,2-1.5A2.47,2.47,0,0,1,238.63,197.94Z" transform="translate(-0.88 -0.94)" fill="#5a5a5a"/><path d="M235.38,139.94q2,12,2.5,15c0,1.34-.5,2-1.5,2h-.5a1.33,1.33,0,0,1-1.5-1.5q-1.5-10.5-2.5-14.5a3.76,3.76,0,0,1,.5-1.5c0-.33.33-.5,1-.5C234.71,138.94,235.38,139.28,235.38,139.94Z" transform="translate(-0.88 -0.94)" fill="#5a5a5a"/><path d="M233.88,226.44a1.4,1.4,0,0,1,1,2q-1,5.51-3.5,14.5a1.33,1.33,0,0,1-1.5,1.5h-.5a2,2,0,0,1-1.5-2v-1a87,87,0,0,0,3.5-13.5C231.38,226.61,232.21,226.11,233.88,226.44Z" transform="translate(-0.88 -0.94)" fill="#5a5a5a"/><path d="M231.88,125.94l.5.5q-.51,1.5-1.5,1.5h-.5a2,2,0,0,1-2-1,96,96,0,0,0-4-14c-.67-1.33-.42-2.16.75-2.5s2.08.17,2.75,1.5Q230.88,121.45,231.88,125.94Z" transform="translate(-0.88 -0.94)" fill="#5a5a5a"/><path d="M221.38,270.94l-.5,1v-.5a2,2,0,0,1-1.5.5.44.44,0,0,1-.5-.5c-.67,0-1-.5-1-1.5v-.5a.44.44,0,0,1,.5-.5q3-7,5-13c.66-1.33,1.5-1.66,2.5-1a1.4,1.4,0,0,1,1,2Q224.38,263.95,221.38,270.94Z" transform="translate(-0.88 -0.94)" fill="#5a5a5a"/><path d="M219.38,99.94v.5l-.5-1.5q-3-6.5-6.5-12.5a1.8,1.8,0,0,1,3-2q5,9,7,13.5v.5a2,2,0,0,1-1,2h-1A1.4,1.4,0,0,1,219.38,99.94Z" transform="translate(-0.88 -0.94)" fill="#5a5a5a"/><path d="M213.88,281.44a1.47,1.47,0,0,1,.5,1q.5,1,0,1.5a104,104,0,0,1-8,12.5,2,2,0,0,1-1.5.5h-1c-.67-.66-1-1.16-1-1.5v-1h.5v-.5q3.5-5,8-12C211.71,281.28,212.54,281.11,213.88,281.44Z" transform="translate(-0.88 -0.94)" fill="#5a5a5a"/><path d="M204.13,120.19a189.28,189.28,0,0,1,10.25,63,189.28,189.28,0,0,1-10.25,63q-10.26,29.25-28.25,47.75-19.5,19.5-42,19.5t-42-19.5q-18-18.49-28.25-47.75t-10.25-63q0-33.75,10.25-63T91.88,72.94q19.5-19.5,42-19.5t42,19.5Q193.88,90.94,204.13,120.19Zm4.75,63q0-32.74-9.75-61T171.88,76.44q-18-18-38.25-18t-38.25,18q-17,17.5-27,45.75t-10,61.25a189.58,189.58,0,0,0,4.5,41.25,156.12,156.12,0,0,0,13,37,116.75,116.75,0,0,0,19.5,28.25q18,18,38.25,18t38.25-18q17.49-17.49,27.25-45.75T208.88,183.19Z" transform="translate(-0.88 -0.94)" fill="#1d1d1b"/><path d="M207.88,72.94a1.61,1.61,0,0,1-1,1.5c0,.34-.25.5-.75.5a2.71,2.71,0,0,1-1.75-1,117.93,117.93,0,0,0-8.5-11c-1-1-1-1.83,0-2.5.66-1,1.5-1,2.5,0a92.9,92.9,0,0,1,9.5,11.5Z" transform="translate(-0.88 -0.94)" fill="#5a5a5a"/><path d="M194.38,305.44c.66-1,1.5-1,2.5,0,.66.67.66,1.5,0,2.5a110,110,0,0,1-11,10.5,1.43,1.43,0,0,1-1,.5c-.34,0-.84-.33-1.5-1v-2l.5-.5A108,108,0,0,0,194.38,305.44Z" transform="translate(-0.88 -0.94)" fill="#5a5a5a"/><path d="M188.38,50.44h-.5c.33,0,.5.25.5.75a1.7,1.7,0,0,1-.5,1.25,2,2,0,0,1-1.5.5l-1-.5a92.11,92.11,0,0,0-11.5-8.5,1.8,1.8,0,1,1,2-3,81.34,81.34,0,0,1,12,9Z" transform="translate(-0.88 -0.94)" fill="#5a5a5a"/><path d="M174.88,325.94l-1,1a101.1,101.1,0,0,1-13.5,6.5h-.5c-1,0-1.5-.33-1.5-1a.44.44,0,0,1-.5-.5,2,2,0,0,1,1.5-2,61.66,61.66,0,0,0,12.5-6c1.33-.66,2.16-.5,2.5.5A2.07,2.07,0,0,1,174.88,325.94Z" transform="translate(-0.88 -0.94)" fill="#5a5a5a"/><path d="M163.38,35.44v1a1.61,1.61,0,0,1-1.5,1,.44.44,0,0,1-.5-.5h-.5a94.35,94.35,0,0,0-10-3l-.5,6.5-16.5-10.5,18.5-7-1,7.5a61.67,61.67,0,0,1,11,3.5C163,33.94,163.38,34.44,163.38,35.44Z" transform="translate(-0.88 -0.94)" fill="#5a5a5a"/><path d="M147.38,335.44a4.29,4.29,0,0,1-.25,1.25,1.16,1.16,0,0,1-1.25.75,79,79,0,0,1-12,1h-3a1.33,1.33,0,0,1-1.5-1.5c0-1.66.5-2.33,1.5-2a109.25,109.25,0,0,0,14.5-1C146.71,333.61,147.38,334.11,147.38,335.44Z" transform="translate(-0.88 -0.94)" fill="#5a5a5a"/><path d="M133.63,29.94q.24,5.5-5.25,5.75t-5.5-5.25a3.78,3.78,0,0,1,1.25-3.75,5.26,5.26,0,0,1,3.75-1.75Q133.37,24.45,133.63,29.94Z" transform="translate(-0.88 -0.94)" fill="#5a5a5a"/><path d="M117.88,333.94c.66.34.83.67.5,1a2,2,0,0,1-2,1.5h-.5a58.43,58.43,0,0,1-14-5,1.59,1.59,0,0,1-1-1.5v-1c.66-1.33,1.5-1.66,2.5-1a75.74,75.74,0,0,0,13.5,5A.89.89,0,0,1,117.88,333.94Z" transform="translate(-0.88 -0.94)" fill="#5a5a5a"/><path d="M112.38,33.44v.5a1.61,1.61,0,0,1-1,1.5,89,89,0,0,0-13.5,5.5.44.44,0,0,1-.5.5,2.85,2.85,0,0,1-2-1c-.34-1.33,0-2.16,1-2.5a98.29,98.29,0,0,1,13.5-6A1.83,1.83,0,0,1,112.38,33.44Z" transform="translate(-0.88 -0.94)" fill="#5a5a5a"/><path d="M86.38,46.44a3.93,3.93,0,0,1,.5,1.5,1.44,1.44,0,0,1-.5,1q-6,5-11,10a1.43,1.43,0,0,1-1,.5,2,2,0,0,1-1.5-.5c-1-1-1-1.83,0-2.5a74.38,74.38,0,0,1,11-10C84.88,45.78,85.71,45.78,86.38,46.44Z" transform="translate(-0.88 -0.94)" fill="#5a5a5a"/><path d="M79.88,312.44q6,5,11,8.5a2,2,0,0,1-1,3.5,1.4,1.4,0,0,1-1-.5q-5.5-4-11.5-9a3.67,3.67,0,0,1-.5-1.5v-1.5a2.51,2.51,0,0,1,2.5-.5l.5.5Z" transform="translate(-0.88 -0.94)" fill="#5a5a5a"/><path d="M69.88,301.44c.66,1,.66,1.84,0,2.5a3.76,3.76,0,0,1-1.5.5,3.67,3.67,0,0,1-1.5-.5q-4-5-9-12v-1a2,2,0,0,1,.5-1.5,2.18,2.18,0,0,1,3,.5A60.06,60.06,0,0,0,69.88,301.44Z" transform="translate(-0.88 -0.94)" fill="#5a5a5a"/><path d="M66.38,68.94l-.5,1q-4,5.5-8,12a2,2,0,0,1-1.5.5h-1c-.67-.33-1-.66-1-1a2,2,0,0,1,.5-1.5,99.05,99.05,0,0,1,8-12.5,1.88,1.88,0,0,1,3,0A2.07,2.07,0,0,1,66.38,68.94Z" transform="translate(-0.88 -0.94)" fill="#5a5a5a"/><path d="M53.88,277.44v1.5c0,.34-.34.67-1,1h-1a2,2,0,0,1-1.5-.5q-4-7.5-6.5-13.5v-1a1.61,1.61,0,0,1,1-1.5c1.33-.33,2.16,0,2.5,1Q51.88,273.95,53.88,277.44Z" transform="translate(-0.88 -0.94)" fill="#5a5a5a"/><path d="M50.88,94.44v.5a111.52,111.52,0,0,0-6,13c0,.67-.5,1-1.5,1h-.5c-.67-.33-1-.66-1-1q-.51-.5,0-1.5,2.49-6.5,5.5-13.5a2,2,0,0,1,2.5-1,2.93,2.93,0,0,1,1,2Z" transform="translate(-0.88 -0.94)" fill="#5a5a5a"/><path d="M41.88,250.94a1.19,1.19,0,0,1-1,2l-.5.5q-1,0-1.5-1.5-4-12-4.5-14v-1q0-1,1.5-1.5c1-.33,1.66.17,2,1.5Q40.37,245,41.88,250.94Z" transform="translate(-0.88 -0.94)" fill="#5a5a5a"/><path d="M40.38,120.94v.5a133.36,133.36,0,0,0-3.5,14.5,2,2,0,0,1-2,1h-.5a.88.88,0,0,1-1-1c-.34,0-.5-.33-.5-1q2-7.5,4-14.5a1.4,1.4,0,0,1,2-1Q40.38,120,40.38,120.94Z" transform="translate(-0.88 -0.94)" fill="#5a5a5a"/><path d="M34.88,222.44a1.82,1.82,0,0,1-1.5,2.5c-1.34,0-2-.5-2-1.5a115.06,115.06,0,0,1-2-15,2,2,0,0,1,1.5-2,3.29,3.29,0,0,1,2,1.5Q33.87,216,34.88,222.44Z" transform="translate(-0.88 -0.94)" fill="#5a5a5a"/><path d="M33.88,149.94v.5q-1,7.5-1.5,14c-.34,1.34-1,2-2,2a5.47,5.47,0,0,1-1.5-1,.62.62,0,0,1,0-1q.5-7.5,1.5-15c.33-1.33,1-1.83,2-1.5A2,2,0,0,1,33.88,149.94Z" transform="translate(-0.88 -0.94)" fill="#5a5a5a"/><path d="M31.38,183.44c0,1.34.16,4.67.5,10a1.77,1.77,0,0,1-2,2,1.33,1.33,0,0,1-1.5-1.5c-.34-4.33-.5-7.83-.5-10.5v-4.5c0-1.33.58-2,1.75-2s1.75.67,1.75,2v4.5Z" transform="translate(-0.88 -0.94)" fill="#5a5a5a"/></svg>