<svg id="Layer_1" data-name="Layer 1" xmlns="http://www.w3.org/2000/svg" viewBox="0 0 215 364.42"><path d="M203.64,66a97.75,97.75,0,0,1,7,37.5q0,42-26.5,68.5-37.5,38-128,40.5c-1.68,0-2.5,1-2.5,3V337a15.38,15.38,0,0,1-.5,3.5,29.41,29.41,0,0,1-1.5,5,19.41,19.41,0,0,1-4.5,7,17.39,17.39,0,0,1-5.5,4.5,35.33,35.33,0,0,1-5,2.5,24.38,24.38,0,0,1-12,0,27.47,27.47,0,0,1-5-1.5,20.92,20.92,0,0,1-5.5-4,20.65,20.65,0,0,1-5.5-7.5,15.26,15.26,0,0,1-2-5.5V32a28.7,28.7,0,0,1,1-8,19.6,19.6,0,0,1,2.5-4.5,1.43,1.43,0,0,1,.5-1,7.41,7.41,0,0,1,1.5-2l1-1,.5-.5.5-.5A21.78,21.78,0,0,1,25.64,9a5.59,5.59,0,0,1,2.5-.5q73-6.5,117,8.5,23.49,8,38.5,22A79.6,79.6,0,0,1,203.64,66Zm-14.5,37.5v-6a1.77,1.77,0,0,0-2-2c-1.34.34-1.84,1-1.5,2v6c0,1.67-.18,4.5-.5,8.5,0,1.34.5,2,1.5,2h.5a1.33,1.33,0,0,0,1.5-1.5C189,108.47,189.14,105.47,189.14,103.47ZM186.64,83v-.5a91.3,91.3,0,0,0-6-14,2.29,2.29,0,0,0-2.5-.5c-.68.34-1,.67-1,1a2,2,0,0,0,.5,1.5,105.1,105.1,0,0,1,5.5,13.5c0,.67.5,1,1.5,1h.5A2,2,0,0,0,186.64,83Zm-.5,44a.64.64,0,0,0,0-1,1.62,1.62,0,0,0-1.5-1,1.4,1.4,0,0,0-2,1,75.63,75.63,0,0,1-5,13v.5a1.43,1.43,0,0,0-.5,1,1.58,1.58,0,0,0,1,1.5h1a3.85,3.85,0,0,0,1.5-.5V141A65.38,65.38,0,0,0,186.14,127Zm-14,26.5c1-.66,1-1.5,0-2.5a1.6,1.6,0,0,0-2.5.5,66.87,66.87,0,0,1-10.5,9.5,2,2,0,0,0-.5,1.5c0,.67.16,1,.5,1,.32.67.66,1,1,1a2,2,0,0,0,1.5-.5A77.71,77.71,0,0,0,172.14,153.47Zm-1-94a2.08,2.08,0,0,0,.5-1.5c0-.66-.18-1-.5-1a50.19,50.19,0,0,0-11.5-9.5c-1.34-.66-2.18-.5-2.5.5a3.76,3.76,0,0,0-.5,1.5c0,.34.32.67,1,1a72.67,72.67,0,0,1,11,9,1.65,1.65,0,0,0,1.25.5A1.68,1.68,0,0,0,171.14,59.47Zm-7.5,44q0-11-3-18.5a35.8,35.8,0,0,0-8.5-11.5Q143.62,66,129.64,61q-27-9-73.5-7.5a2.78,2.78,0,0,0-2.5,3V163a2.56,2.56,0,0,0,2.5,2.5q70.5-2.49,94-26.5Q163.64,125.47,163.64,103.47ZM149.14,172c1-.33,1.16-1.16.5-2.5a1.6,1.6,0,0,0-2.5-.5,76.58,76.58,0,0,1-13,6,2,2,0,0,0-1,2v.5a1.57,1.57,0,0,0,1.5,1h.5A135.49,135.49,0,0,0,149.14,172Zm-2-129V42a1.62,1.62,0,0,0-1-1.5c-4-1.66-8.68-3.33-14-5a1.4,1.4,0,0,0-2,1V38c0,.34.32.67,1,1q7,2,13.5,4.5a.44.44,0,0,0,.5.5l2,.5-1.5-.5A1.61,1.61,0,0,0,147.14,43ZM122.39,182.22a5.72,5.72,0,0,0,.25-1.75c-.34-1-1.18-1.33-2.5-1q-3.51,1-13.5,3h-1v.5a1.59,1.59,0,0,0-1,1.5v.5q.48,1.5,1.5,1.5h.5a132.18,132.18,0,0,0,14.5-3.5A1.17,1.17,0,0,0,122.39,182.22ZM119.14,34v-.5q0-1-1.5-1.5a102.5,102.5,0,0,0-14.5-2c-1-.33-1.68.17-2,1.5-.34,1,.16,1.67,1.5,2q8,1,14.5,2h.5A1.33,1.33,0,0,0,119.14,34Zm-27,154.5c1.32,0,1.82-.66,1.5-2s-1-1.83-2-1.5c-3.68.34-8.5.84-14.5,1.5-1.34,0-2,.5-2,1.5v.5a2,2,0,0,0,2,1.5A110.42,110.42,0,0,0,92.14,188.47Zm-2-158c0-1.33-.5-2-1.5-2q-6.51-.49-15-.5a1.77,1.77,0,0,0-2,2,1.4,1.4,0,0,0,.5,1,2,2,0,0,0,1.5.5q6.48.51,14.5.5C89.46,32,90.14,31.47,90.14,30.47ZM64.64,189a1.77,1.77,0,0,0-2-2c-3.34.34-7.18.5-11.5.5v-7l-17.5,9,18,8.5-.5-7h11.5C64,190.64,64.64,190,64.64,189Zm-4-159a1.33,1.33,0,0,0-1.5-1.5h-9.5a5.49,5.49,0,0,0-5.5-3.5q-5.52.51-5,6t6,5.5a5.15,5.15,0,0,0,4.5-4c4.32-.33,7-.5,8-.5h1.5C60.14,32,60.64,31.31,60.64,30ZM30.14,346l8.5-17.5h-7v-14c0-1.33-.59-2-1.75-2s-1.75.67-1.75,2v14h-7ZM33.89,35.22a5.52,5.52,0,0,0,1.75-4,4.76,4.76,0,0,0-1.75-3.75,6,6,0,0,0-4-1.5,5.09,5.09,0,0,0-3.75,1.5,5.42,5.42,0,0,0-1.5,4,5.24,5.24,0,0,0,.75,2.75,5.64,5.64,0,0,0,2,2,5.21,5.21,0,0,0,2.75.75A5.29,5.29,0,0,0,33.89,35.22ZM31.64,300V285c0-1.33-.59-2-1.75-2s-1.75.67-1.75,2v15c0,1,.66,1.5,2,1.5A1.33,1.33,0,0,0,31.64,300Zm0-29.5v-15c0-1-.59-1.5-1.75-1.5s-1.75.5-1.75,1.5v15c0,1,.66,1.5,2,1.5A1.33,1.33,0,0,0,31.64,270.47Zm0-29.5V226c0-1-.59-1.5-1.75-1.5s-1.75.5-1.75,1.5v15c0,1,.66,1.5,2,1.5A1.33,1.33,0,0,0,31.64,241Zm0-29.5v-15c0-1-.59-1.5-1.75-1.5s-1.75.5-1.75,1.5v15a1.76,1.76,0,0,0,2,2C31.14,213.47,31.64,212.81,31.64,211.47Zm0-29.5v-14.5c0-1.33-.59-2-1.75-2s-1.75.5-1.75,1.5v15a1.76,1.76,0,0,0,2,2C31.14,184,31.64,183.31,31.64,182Zm0-29.5V138c0-1.33-.59-2-1.75-2s-1.75.5-1.75,1.5v15a1.76,1.76,0,0,0,2,2C31.14,154.47,31.64,153.81,31.64,152.47Zm0-29.5v-14.5c0-1.33-.59-2-1.75-2s-1.75.5-1.75,1.5v15a1.76,1.76,0,0,0,2,2C31.14,125,31.64,124.31,31.64,123Zm0-29.5V79c0-1.33-.59-2-1.75-2s-1.75.5-1.75,1.5v15a1.76,1.76,0,0,0,2,2C31.14,95.47,31.64,94.81,31.64,93.47Zm0-29.5V49.47c0-1.33-.59-2-1.75-2s-1.75.67-1.75,2V64a1.76,1.76,0,0,0,2,2C31.14,66,31.64,65.31,31.64,64Z" transform="translate(-1.14 -1.05)" fill="#fbea23"/><path d="M208.14,64a96.39,96.39,0,0,1,8,39.5q0,44-28,72.5-38.52,38.5-129.5,42V341c-.68,2.34-1.34,4.5-2,6.5a31.36,31.36,0,0,1-5.5,9,26.73,26.73,0,0,1-7,5,24.75,24.75,0,0,1-6,3,32.83,32.83,0,0,1-8,1,29.84,29.84,0,0,1-6.75-.75,27.78,27.78,0,0,1-6.25-2.25,44.12,44.12,0,0,1-6.5-4.5,28,28,0,0,1-7-9.5,21.2,21.2,0,0,1-2-7,18.23,18.23,0,0,1-.5-4.5V32a29.86,29.86,0,0,1,1.5-9.5q1.5-3.49,3-6.5a.44.44,0,0,0,.5-.5,8,8,0,0,0,1.5-2,6.24,6.24,0,0,0,1-1.5h.5l.5-.5.5-.5a.44.44,0,0,1,.5-.5,28,28,0,0,1,14-7h.5a8.06,8.06,0,0,0,2.5-.5q74-6.49,119,9,24.48,8.51,40.5,23A81.34,81.34,0,0,1,208.14,64Zm2.5,39.5a97.75,97.75,0,0,0-7-37.5,79.6,79.6,0,0,0-20-27q-15-14-38.5-22-44-15-117-8.5a5.59,5.59,0,0,0-2.5.5,21.78,21.78,0,0,0-11.5,5.5l-.5.5-.5.5-1,1a7.41,7.41,0,0,0-1.5,2,1.43,1.43,0,0,0-.5,1A19.6,19.6,0,0,0,7.64,24a28.7,28.7,0,0,0-1,8V341a15.26,15.26,0,0,0,2,5.5,20.65,20.65,0,0,0,5.5,7.5,20.92,20.92,0,0,0,5.5,4,27.47,27.47,0,0,0,5,1.5,24.38,24.38,0,0,0,12,0,35.33,35.33,0,0,0,5-2.5,17.39,17.39,0,0,0,5.5-4.5,19.41,19.41,0,0,0,4.5-7,29.41,29.41,0,0,0,1.5-5,15.38,15.38,0,0,0,.5-3.5V215.47c0-2,.82-3,2.5-3q90.48-2.49,128-40.5Q210.63,145.48,210.64,103.47Z" transform="translate(-1.14 -1.05)" fill="#1d1d1b"/><path d="M189.14,97.47v6c0,2-.18,5-.5,9a1.33,1.33,0,0,1-1.5,1.5h-.5c-1,0-1.5-.66-1.5-2,.32-4,.5-6.83.5-8.5v-6c-.34-1,.16-1.66,1.5-2A1.77,1.77,0,0,1,189.14,97.47Z" transform="translate(-1.14 -1.05)" fill="#5a5a5a"/><path d="M186.64,82.47V83a2,2,0,0,1-1.5,2h-.5c-1,0-1.5-.33-1.5-1a105.1,105.1,0,0,0-5.5-13.5,2,2,0,0,1-.5-1.5c0-.33.32-.66,1-1a2.29,2.29,0,0,1,2.5.5A91.3,91.3,0,0,1,186.64,82.47Z" transform="translate(-1.14 -1.05)" fill="#5a5a5a"/><path d="M186.14,126a.64.64,0,0,1,0,1,65.38,65.38,0,0,1-5.5,14v.5a3.85,3.85,0,0,1-1.5.5h-1a1.58,1.58,0,0,1-1-1.5,1.43,1.43,0,0,1,.5-1V139a75.63,75.63,0,0,0,5-13,1.4,1.4,0,0,1,2-1A1.62,1.62,0,0,1,186.14,126Z" transform="translate(-1.14 -1.05)" fill="#5a5a5a"/><path d="M169.64,151.47a1.6,1.6,0,0,1,2.5-.5c1,1,1,1.84,0,2.5a77.71,77.71,0,0,1-10.5,10.5,2,2,0,0,1-1.5.5c-.34,0-.68-.33-1-1-.34,0-.5-.33-.5-1a2,2,0,0,1,.5-1.5A66.87,66.87,0,0,0,169.64,151.47Z" transform="translate(-1.14 -1.05)" fill="#5a5a5a"/><path d="M171.64,58a2.08,2.08,0,0,1-.5,1.5,1.68,1.68,0,0,1-1.25.5,1.65,1.65,0,0,1-1.25-.5,72.67,72.67,0,0,0-11-9c-.68-.33-1-.66-1-1a3.76,3.76,0,0,1,.5-1.5c.32-1,1.16-1.16,2.5-.5a50.19,50.19,0,0,1,11.5,9.5C171.46,57,171.64,57.31,171.64,58Z" transform="translate(-1.14 -1.05)" fill="#5a5a5a"/><path d="M160.64,85q3,7.5,3,18.5,0,22-13.5,35.5-23.52,24-94,26.5a2.56,2.56,0,0,1-2.5-2.5V56.47a2.78,2.78,0,0,1,2.5-3q46.5-1.5,73.5,7.5,14,5,22.5,12.5A35.8,35.8,0,0,1,160.64,85Zm-2,18.5a41.69,41.69,0,0,0-3-16.5,28.44,28.44,0,0,0-7-9.5q-7.5-7-20.5-11.5-26-8.49-69.5-7V160q66-2.49,88-24.5Q158.64,123.47,158.64,103.47Z" transform="translate(-1.14 -1.05)" fill="#1d1d1b"/><path d="M149.64,169.47c.66,1.34.5,2.17-.5,2.5a135.49,135.49,0,0,1-14,6.5h-.5a1.57,1.57,0,0,1-1.5-1V177a2,2,0,0,1,1-2,76.58,76.58,0,0,0,13-6A1.6,1.6,0,0,1,149.64,169.47Z" transform="translate(-1.14 -1.05)" fill="#5a5a5a"/><path d="M147.14,43a1.61,1.61,0,0,1-1.5,1l1.5.5-2-.5a.44.44,0,0,1-.5-.5Q138.13,41,131.14,39c-.68-.33-1-.66-1-1v-1.5a1.4,1.4,0,0,1,2-1c5.32,1.67,10,3.34,14,5a1.62,1.62,0,0,1,1,1.5Z" transform="translate(-1.14 -1.05)" fill="#5a5a5a"/><path d="M122.64,180.47a5.72,5.72,0,0,1-.25,1.75,1.17,1.17,0,0,1-1.25.75,132.18,132.18,0,0,1-14.5,3.5h-.5q-1,0-1.5-1.5v-.5a1.59,1.59,0,0,1,1-1.5v-.5h1q10-2,13.5-3C121.46,179.14,122.3,179.47,122.64,180.47Z" transform="translate(-1.14 -1.05)" fill="#5a5a5a"/><path d="M119.14,33.47V34a1.33,1.33,0,0,1-1.5,1.5h-.5q-6.51-1-14.5-2c-1.34-.33-1.84-1-1.5-2,.32-1.33,1-1.83,2-1.5a102.5,102.5,0,0,1,14.5,2Q119.14,32.48,119.14,33.47Z" transform="translate(-1.14 -1.05)" fill="#5a5a5a"/><path d="M93.64,186.47c.32,1.34-.18,2-1.5,2a110.42,110.42,0,0,1-15,1.5,2,2,0,0,1-2-1.5V188c0-1,.66-1.5,2-1.5,6-.66,10.82-1.16,14.5-1.5C92.64,184.64,93.3,185.14,93.64,186.47Z" transform="translate(-1.14 -1.05)" fill="#5a5a5a"/><path d="M88.64,28.47c1,0,1.5.67,1.5,2,0,1-.68,1.5-2,1.5q-8,0-14.5-.5a2,2,0,0,1-1.5-.5,1.4,1.4,0,0,1-.5-1,1.77,1.77,0,0,1,2-2Q82.13,28,88.64,28.47Z" transform="translate(-1.14 -1.05)" fill="#5a5a5a"/><path d="M62.64,187a1.77,1.77,0,0,1,2,2c0,1-.68,1.67-2,2H51.14l.5,7-18-8.5,17.5-9v7C55.46,187.47,59.3,187.31,62.64,187Z" transform="translate(-1.14 -1.05)" fill="#5a5a5a"/><path d="M59.14,28.47a1.33,1.33,0,0,1,1.5,1.5c0,1.34-.5,2-1.5,2h-1.5c-1,0-3.68.17-8,.5a5.15,5.15,0,0,1-4.5,4q-5.52,0-6-5.5t5-6a5.49,5.49,0,0,1,5.5,3.5h9.5Z" transform="translate(-1.14 -1.05)" fill="#5a5a5a"/><path d="M38.64,328.47,30.14,346l-9-17.5h7v-14c0-1.33.57-2,1.75-2s1.75.67,1.75,2v14Z" transform="translate(-1.14 -1.05)" fill="#5a5a5a"/><path d="M35.64,31.22a5.52,5.52,0,0,1-1.75,4A5.29,5.29,0,0,1,30.14,37a5.21,5.21,0,0,1-2.75-.75,5.64,5.64,0,0,1-2-2,5.24,5.24,0,0,1-.75-2.75,5.42,5.42,0,0,1,1.5-4A5.09,5.09,0,0,1,29.89,26a6,6,0,0,1,4,1.5A4.76,4.76,0,0,1,35.64,31.22Z" transform="translate(-1.14 -1.05)" fill="#5a5a5a"/><path d="M31.64,285v15a1.33,1.33,0,0,1-1.5,1.5c-1.34,0-2-.5-2-1.5V285c0-1.33.57-2,1.75-2S31.64,283.64,31.64,285Z" transform="translate(-1.14 -1.05)" fill="#5a5a5a"/><path d="M31.64,255.47v15a1.33,1.33,0,0,1-1.5,1.5c-1.34,0-2-.5-2-1.5v-15c0-1,.57-1.5,1.75-1.5S31.64,254.47,31.64,255.47Z" transform="translate(-1.14 -1.05)" fill="#5a5a5a"/><path d="M31.64,226v15a1.33,1.33,0,0,1-1.5,1.5c-1.34,0-2-.5-2-1.5V226c0-1,.57-1.5,1.75-1.5S31.64,225,31.64,226Z" transform="translate(-1.14 -1.05)" fill="#5a5a5a"/><path d="M31.64,196.47v15c0,1.34-.5,2-1.5,2a1.76,1.76,0,0,1-2-2v-15c0-1,.57-1.5,1.75-1.5S31.64,195.47,31.64,196.47Z" transform="translate(-1.14 -1.05)" fill="#5a5a5a"/><path d="M31.64,167.47V182c0,1.34-.5,2-1.5,2a1.76,1.76,0,0,1-2-2V167c0-1,.57-1.5,1.75-1.5S31.64,166.14,31.64,167.47Z" transform="translate(-1.14 -1.05)" fill="#5a5a5a"/><path d="M31.64,138v14.5c0,1.34-.5,2-1.5,2a1.76,1.76,0,0,1-2-2v-15c0-1,.57-1.5,1.75-1.5S31.64,136.64,31.64,138Z" transform="translate(-1.14 -1.05)" fill="#5a5a5a"/><path d="M31.64,108.47V123c0,1.34-.5,2-1.5,2a1.76,1.76,0,0,1-2-2V108c0-1,.57-1.5,1.75-1.5S31.64,107.14,31.64,108.47Z" transform="translate(-1.14 -1.05)" fill="#5a5a5a"/><path d="M31.64,79v14.5c0,1.34-.5,2-1.5,2a1.76,1.76,0,0,1-2-2v-15c0-1,.57-1.5,1.75-1.5S31.64,77.64,31.64,79Z" transform="translate(-1.14 -1.05)" fill="#5a5a5a"/><path d="M31.64,49.47V64c0,1.34-.5,2-1.5,2a1.76,1.76,0,0,1-2-2V49.47c0-1.33.57-2,1.75-2S31.64,48.14,31.64,49.47Z" transform="translate(-1.14 -1.05)" fill="#5a5a5a"/></svg>