<svg id="Layer_1" data-name="Layer 1" xmlns="http://www.w3.org/2000/svg" viewBox="0 0 265.5 372"><path d="M225.26,327.92c-1-.67-1.83-.67-2.5,0a2,2,0,0,0-.5,1.5,1.45,1.45,0,0,0,.5,1l1.5,2q1,1,5.5,6.5l-5.5,4.5,18,8-4.5-19.5-5,4.5q-3.49-3.5-6-6.5l-1-1.5A.44.44,0,0,0,225.26,327.92Zm7-202.5a126.74,126.74,0,0,0-4-14c-.67-1.33-1.5-1.83-2.5-1.5a.88.88,0,0,0-1,1q-.49,1,0,1.5,3,9.49,4,14c.67,1,1.33,1.5,2,1.5l.5-.5c.67,0,1-.5,1-1.5Zm-98-96,16.5,10.5.5-6.5a49.65,49.65,0,0,1,10,3.5h1a1.59,1.59,0,0,0,1.5-1v-1a1.59,1.59,0,0,0-1-1.5,61.67,61.67,0,0,0-11-3.5l1-7.5Zm-5.5,5.75c3.67-.17,5.42-2.08,5.25-5.75s-2.08-5.42-5.75-5.25-5.42,2.08-5.25,5.75S125.09,35.34,128.76,35.17Zm126.75,92.5a241.84,241.84,0,0,1,6.25,55.25q0,65.51-30.5,115-1,2,0,3l23,28a23.74,23.74,0,0,1,5.25,17.25,21.44,21.44,0,0,1-8.25,15.75q-11.5,9.49-25,3a18.17,18.17,0,0,1-8-6l-18-21.5a2,2,0,0,0-2-1,3.93,3.93,0,0,0-1.5.5q-29,23-62.5,23-41.5,0-75-33.5-24.49-24.5-38.5-62.75a233.16,233.16,0,0,1-14-80.75,233.16,233.16,0,0,1,14-80.75q14-38.25,38.5-62.75,33.49-33.5,75-33.5t74.5,33.5a163.45,163.45,0,0,1,28.5,39A201.79,201.79,0,0,1,255.51,127.67Zm-15.75,56.25v-15c0-1-.67-1.5-2-1.5a1.77,1.77,0,0,0-2,2q.5,9,.5,13.5v1c0,1.33.58,2,1.75,2S239.76,185.25,239.76,183.92Zm-.5,15a1,1,0,0,0-.5-1.5c0-.33-.33-.5-1-.5a2,2,0,0,0-2,1.5q-.49,6.5-1.5,14.5c0,1.33.5,2,1.5,2h.5a1.33,1.33,0,0,0,1.5-1.5A85.53,85.53,0,0,0,239.26,198.92Zm-2.5-42.5c1,0,1.5-.67,1.5-2q-1.5-10-2.5-14.5c0-1-.67-1.5-2-1.5a2,2,0,0,0-1.5.5v1.5a115.51,115.51,0,0,1,2,14.5h.5a1.33,1.33,0,0,0,1.5,1.5Zm-1.5,72c.33-1.33,0-2.17-1-2.5a2.31,2.31,0,0,0-2.5,1.5q-2.5,11-3.5,14v.5a1.54,1.54,0,0,0,1.25,1.75,1.89,1.89,0,0,0,1.75-.25v.5l.5-1.5Q233.26,236.92,235.26,228.42Zm-8,28a4,4,0,0,0-.25-1.25q-.25-.75-.75-.75c-1.33-.67-2.17-.33-2.5,1a103.68,103.68,0,0,1-5.5,13.5v.5a1.4,1.4,0,0,0,1,2h.5a2.87,2.87,0,0,0,2-1v-.5A103.68,103.68,0,0,0,227.26,256.42Zm-4.5-158v-1q-3-6-7-13c-.33-1.33-1.17-1.67-2.5-1a1.45,1.45,0,0,0-.5,1q-.49,1,0,1.5l2.75,5.5q2.25,4.5,3.75,7v.5a1.59,1.59,0,0,0,1.5,1h1A1.59,1.59,0,0,0,222.76,98.42Zm-6,219.5a1.45,1.45,0,0,0-.5-1q-2-2-9.5-11.5a2,2,0,0,0-3.5,1,1.45,1.45,0,0,0,.5,1q7.5,9,9.5,11.5a4,4,0,0,0,2.5.5C216.43,318.75,216.76,318.25,216.76,317.92Zm-2-34.5c.67-1,.42-1.83-.75-2.5s-1.92-.5-2.25.5q-4.5,7.5-8,12.5a1.45,1.45,0,0,0-.5,1c0,.33.33.83,1,1.5,0,.33.33.5,1,.5a1.59,1.59,0,0,0,1.5-1A136.05,136.05,0,0,0,214.76,283.42Zm0-100.5a190.73,190.73,0,0,0-10.25-63q-10.24-29.51-28.25-47.5-19.5-19.5-42-19.5t-42,19.5q-18,18-28.25,47.5a190.73,190.73,0,0,0-10.25,63,190.73,190.73,0,0,0,10.25,63q10.24,29.5,28.25,47.5,19.5,19.5,42,19.5,17,0,32.5-11.5a4.42,4.42,0,0,0,1.25-2,2.06,2.06,0,0,0-.75-2l-51-62.5a20.47,20.47,0,0,1-5.5-16.75,24.06,24.06,0,0,1,8.5-16.25,22.85,22.85,0,0,1,17.25-5,22.3,22.3,0,0,1,15.75,8.5l43,52.5a2.69,2.69,0,0,0,2.5.75,2.41,2.41,0,0,0,2-1.75Q214.76,223.43,214.76,182.92Zm-6.5-110.5v-.5l-.5-.5a138.53,138.53,0,0,0-9-11.5c-1-1-1.83-1-2.5,0-.67.33-1,.67-1,1a1.59,1.59,0,0,0,1,1.5q3.5,4,8.5,11v.5a2,2,0,0,0,1.5.5,1.45,1.45,0,0,0,1-.5A1.59,1.59,0,0,0,208.26,72.42Zm-10.5,223a2,2,0,0,0-.5-1.5q-3.49-4.5-7.5-9l-1.5-2v-.5l-.5-.5v.5c-.67-.67-1.5-.67-2.5,0a2,2,0,0,0-.5,1.5,1.45,1.45,0,0,0,.5,1c.67.67,1.42,1.5,2.25,2.5a36.63,36.63,0,0,1,2.25,3,16.55,16.55,0,0,0,2,2.5l3,3.5a1.45,1.45,0,0,0,1,.5,3.93,3.93,0,0,0,1.5-.5A1.45,1.45,0,0,0,197.76,295.42Zm-.5,12c.67-1,.67-1.83,0-2.5a2,2,0,0,0-1.5-.5c-.67,0-1,.17-1,.5a101.61,101.61,0,0,1-10.5,10c-.67.67-1,1.17-1,1.5l.5,1a1.59,1.59,0,0,0,1.5,1,1.45,1.45,0,0,0,1-.5A108.91,108.91,0,0,0,197.26,307.42Zm-8.5-257a1.45,1.45,0,0,0-.5-1,110.58,110.58,0,0,0-12-9,1.59,1.59,0,0,0-2.5.5,2,2,0,0,0-.5,1.5c.33.67.67,1,1,1a115.52,115.52,0,0,1,11.5,8.5l.5.5h.5a1.77,1.77,0,0,0,2-2Zm-10,222a.63.63,0,0,0,0-1l-1-1.5q-2.5-3-8.5-10c-.67-1-1.5-1-2.5,0-.67.33-1,.67-1,1a2,2,0,0,0,.5,1.5,72.63,72.63,0,0,1,5,5.75q3,3.75,4.5,5.25a1.59,1.59,0,0,0,1.5,1,1.45,1.45,0,0,0,1-.5A2,2,0,0,0,178.76,272.42Zm-3.5,53a2,2,0,0,0-.5-1.5c-.33-1-1.17-1.17-2.5-.5a90,90,0,0,1-12.5,6.5,1.33,1.33,0,0,0-1.5,1.5.44.44,0,0,0,.5.5,1.33,1.33,0,0,0,1.5,1.5h.5a102.74,102.74,0,0,0,13.5-7C174.93,326.09,175.26,325.75,175.26,325.42Zm-15.5-74a1.88,1.88,0,0,0,0-3l-1-1.5q-1.5-1.5-4.25-4.75t-3.75-4.75c-.67-1-1.67-1.17-3-.5a2,2,0,0,0-.5,1.5c0,.67.17,1,.5,1q8,10,9.5,11.5a2,2,0,0,0,1.5.5Zm-12.5,85c.67-.67.83-1.17.5-1.5,0-1.33-.67-1.83-2-1.5a54.21,54.21,0,0,1-14.5,1c-1,0-1.5.58-1.5,1.75s.5,1.75,1.5,1.75h3a61.8,61.8,0,0,0,12-1C146.93,336.92,147.26,336.75,147.26,336.42ZM141,228.92q4.25-3.49.75-7.75t-7.75-.75q-4.24,3.5-.75,7.75T141,228.92Zm-22.25,105.5a2,2,0,0,0-1.5-2,80.31,80.31,0,0,1-13.5-4.5,1.59,1.59,0,0,0-2.5.5v1a1.59,1.59,0,0,0,1,1.5,59,59,0,0,0,14,5h.5A2,2,0,0,0,118.76,334.42Zm-6-301.5v-.5c-.33-1-1.17-1.33-2.5-1a72.2,72.2,0,0,0-13.5,6,5.7,5.7,0,0,0-1,1.5v1a2.87,2.87,0,0,0,2,1h.5a75.83,75.83,0,0,1,13.5-6A2,2,0,0,0,112.76,32.92Zm-21,290.5c.67-1.33.5-2.33-.5-3a72.18,72.18,0,0,1-11-9,2.49,2.49,0,0,0-3,0,2,2,0,0,0-.5,1.5c0,.33.33.83,1,1.5a83.34,83.34,0,0,0,11.5,9,1.45,1.45,0,0,0,1,.5A2,2,0,0,0,91.76,323.42Zm-4.5-276a3.93,3.93,0,0,0-.5-1.5c-1-.67-1.83-.67-2.5,0a148.61,148.61,0,0,0-11,10,1.81,1.81,0,0,0,0,2.5,1.45,1.45,0,0,0,1,.5,3.93,3.93,0,0,0,1.5-.5,126.44,126.44,0,0,1,11-9.5A3.93,3.93,0,0,0,87.26,47.42Zm-17.5,256c1-.33,1.17-1.17.5-2.5a112,112,0,0,1-8.5-11.5,2.17,2.17,0,0,0-3-.5,2,2,0,0,0-.5,1.5v1q6,8.5,9,12a3.93,3.93,0,0,0,1.5.5A1.45,1.45,0,0,0,69.76,303.42Zm-3.5-234,.5-1a2,2,0,0,0-.5-1.5c-1.33-.67-2.17-.5-2.5.5a88.41,88.41,0,0,0-8.5,12,1.59,1.59,0,0,0,.5,2.5,1.45,1.45,0,0,0,1,.5,1.59,1.59,0,0,0,1.5-1Q62.27,74.93,66.26,69.42Zm-13,210a2,2,0,0,0,1-2.5q-3.49-6.5-6.5-13l-.5-.5a1.63,1.63,0,0,0-2-.5,1.59,1.59,0,0,0-1,1.5v1q3.5,7.5,6.5,13.5a1.59,1.59,0,0,0,1.5,1A1.45,1.45,0,0,0,53.26,279.42Zm-2-186c.33-.67,0-1.17-1-1.5-1-.67-1.67-.5-2,.5h-.5l-6,14v1c.67.67,1.17,1,1.5,1l.5.5a1.33,1.33,0,0,0,1.5-1.5q3.5-8,6-13.5Zm-10,159c1.33-.33,1.67-1,1-2q-2.5-9-4-14l-.5-1.5v.5a1.89,1.89,0,0,0-1.75-.25,1.54,1.54,0,0,0-1.25,1.75v.5q1.5,4.5,4.5,14,.5,1.5,1.5,1.5Zm-.5-131v-.5a2,2,0,0,0-1.5-2,1.4,1.4,0,0,0-2,1q-2,6.49-4,14.5c0,1.33.5,2,1.5,2h.5a2,2,0,0,0,2-1A138.28,138.28,0,0,1,40.76,121.42Zm-5.5,102v-1q-1-7-2-14.5v-.5a2,2,0,0,0-2-1.5,2,2,0,0,0-1.5,2q.49,6.5,2,15c0,1,.67,1.5,2,1.5C34.09,224.42,34.59,224.09,35.26,223.42Zm-1-73.5v-.5a2,2,0,0,0-1.5-2,2,2,0,0,0-2,1.5q-1,8-1.5,15a.63.63,0,0,0,0,1,5.7,5.7,0,0,0,1.5,1c1,0,1.67-.67,2-2Q33.26,156.42,34.26,149.92Zm-2,43.5q-.49-6.49-.5-10.5v-4a2,2,0,0,0-.5-1.5,1.45,1.45,0,0,0-1-.5h-.5a1.33,1.33,0,0,0-1.5,1.5v15c.33,1.33,1,2,2,2C31.59,195.09,32.26,194.42,32.26,193.42Z" transform="translate(-1.26 -0.92)" fill="#fbea23"/><path d="M258.26,325.42a29.18,29.18,0,0,1,6.5,21.25,30.05,30.05,0,0,1-28.5,26.25A28.08,28.08,0,0,1,224,370.17a32.9,32.9,0,0,1-10.25-7.75l-15.5-19.5q-30,22-64,22-44,0-78.5-34.5-25.5-25.5-40-64.75a236.8,236.8,0,0,1-14.5-82.75,236.8,236.8,0,0,1,14.5-82.75q14.51-39.26,40-64.75,35-34.5,78.5-34.5t78.5,34.5q25.5,25.5,39.75,64.75a240.6,240.6,0,0,1,14.25,82.75q0,66-30,116.5Zm3.5-142.5a241.84,241.84,0,0,0-6.25-55.25,201.79,201.79,0,0,0-18.25-49.25,163.45,163.45,0,0,0-28.5-39q-33-33.5-74.5-33.5t-75,33.5q-24.49,24.49-38.5,62.75a233.16,233.16,0,0,0-14,80.75,233.16,233.16,0,0,0,14,80.75q14,38.25,38.5,62.75,33.49,33.49,75,33.5,33.5,0,62.5-23a3.93,3.93,0,0,1,1.5-.5,2,2,0,0,1,2,1l18,21.5a18.17,18.17,0,0,0,8,6q13.5,6.49,25-3a21.44,21.44,0,0,0,8.25-15.75,23.74,23.74,0,0,0-5.25-17.25l-23-28q-1-1,0-3Q261.76,248.42,261.76,182.92Z" transform="translate(-1.26 -0.92)" fill="#1d1d1b"/><path d="M239.76,182.92v1c0,1.33-.58,2-1.75,2s-1.75-.67-1.75-2v-1q0-4.5-.5-13.5a1.77,1.77,0,0,1,2-2c1.33,0,2,.5,2,1.5Z" transform="translate(-1.26 -0.92)" fill="#5a5a5a"/><path d="M238.76,197.42a1,1,0,0,1,.5,1.5,85.53,85.53,0,0,1-1.5,14.5,1.33,1.33,0,0,1-1.5,1.5h-.5c-1,0-1.5-.67-1.5-2q1-8,1.5-14.5a2,2,0,0,1,2-1.5C238.43,196.92,238.76,197.09,238.76,197.42Z" transform="translate(-1.26 -0.92)" fill="#5a5a5a"/><path d="M238.26,154.42c0,1.33-.5,2-1.5,2h-.5a1.33,1.33,0,0,1-1.5-1.5h-.5a115.51,115.51,0,0,0-2-14.5v-1.5a2,2,0,0,1,1.5-.5c1.33,0,2,.5,2,1.5Q236.77,144.42,238.26,154.42Z" transform="translate(-1.26 -0.92)" fill="#5a5a5a"/><path d="M234.26,225.92c1,.33,1.33,1.17,1,2.5q-2,8.51-3.5,14l-.5,1.5v-.5a1.89,1.89,0,0,1-1.75.25,1.54,1.54,0,0,1-1.25-1.75v-.5q1-3,3.5-14A2.31,2.31,0,0,1,234.26,225.92Z" transform="translate(-1.26 -0.92)" fill="#5a5a5a"/><path d="M232.26,125.42v.5c0,1-.33,1.5-1,1.5l-.5.5c-.67,0-1.33-.5-2-1.5q-1-4.5-4-14-.49-.49,0-1.5a.88.88,0,0,1,1-1c1-.33,1.83.17,2.5,1.5A126.74,126.74,0,0,1,232.26,125.42Z" transform="translate(-1.26 -0.92)" fill="#5a5a5a"/><path d="M227,255.17a4,4,0,0,1,.25,1.25,103.68,103.68,0,0,1-5.5,13.5v.5a2.87,2.87,0,0,1-2,1h-.5a1.4,1.4,0,0,1-1-2v-.5a103.68,103.68,0,0,0,5.5-13.5c.33-1.33,1.17-1.67,2.5-1Q226.76,254.42,227,255.17Z" transform="translate(-1.26 -0.92)" fill="#5a5a5a"/><path d="M222.76,327.92c.67-.67,1.5-.67,2.5,0a.44.44,0,0,1,.5.5l1,1.5q2.51,3,6,6.5l5-4.5,4.5,19.5-18-8,5.5-4.5q-4.5-5.51-5.5-6.5l-1.5-2a1.45,1.45,0,0,1-.5-1A2,2,0,0,1,222.76,327.92Z" transform="translate(-1.26 -0.92)" fill="#5a5a5a"/><path d="M222.76,97.92v.5a1.59,1.59,0,0,1-1,1.5h-1a1.59,1.59,0,0,1-1.5-1v-.5q-1.5-2.51-3.75-7l-2.75-5.5q-.49-.49,0-1.5a1.45,1.45,0,0,1,.5-1c1.33-.67,2.17-.33,2.5,1q4,7,7,13Z" transform="translate(-1.26 -0.92)" fill="#5a5a5a"/><path d="M216.26,316.92a1.45,1.45,0,0,1,.5,1c0,.33-.33.83-1,1.5a4,4,0,0,1-2.5-.5q-2-2.51-9.5-11.5a1.45,1.45,0,0,1-.5-1,2,2,0,0,1,3.5-1Q214.26,314.91,216.26,316.92Z" transform="translate(-1.26 -0.92)" fill="#5a5a5a"/><path d="M214,280.92c1.17.67,1.42,1.5.75,2.5a136.05,136.05,0,0,1-8,12.5,1.59,1.59,0,0,1-1.5,1c-.67,0-1-.17-1-.5-.67-.67-1-1.17-1-1.5a1.45,1.45,0,0,1,.5-1q3.5-5,8-12.5C212.09,280.42,212.84,280.25,214,280.92Z" transform="translate(-1.26 -0.92)" fill="#5a5a5a"/><path d="M204.51,119.92a190.73,190.73,0,0,1,10.25,63q0,40.5-15,74a2.41,2.41,0,0,1-2,1.75,2.69,2.69,0,0,1-2.5-.75l-43-52.5a22.3,22.3,0,0,0-15.75-8.5,22.85,22.85,0,0,0-17.25,5,24.06,24.06,0,0,0-8.5,16.25,20.47,20.47,0,0,0,5.5,16.75l51,62.5a2.06,2.06,0,0,1,.75,2,4.42,4.42,0,0,1-1.25,2q-15.49,11.5-32.5,11.5-22.5,0-42-19.5-18-18-28.25-47.5a190.73,190.73,0,0,1-10.25-63,190.73,190.73,0,0,1,10.25-63q10.24-29.51,28.25-47.5,19.5-19.5,42-19.5t42,19.5Q194.26,90.42,204.51,119.92Zm4.75,63a187.18,187.18,0,0,0-9.75-61q-9.75-28.5-27.25-46-18-17.51-38.25-17.5T95.76,75.92q-17,17.51-27,46a182.84,182.84,0,0,0-10,61,183.54,183.54,0,0,0,10,60.75q10,28.75,27,45.75,15.49,15,32.75,17.5t32.75-8.5l-49.5-60a27.14,27.14,0,0,1-6.25-21,28.21,28.21,0,0,1,10.25-19.5,28.8,28.8,0,0,1,21-6.5,29.16,29.16,0,0,1,19.5,10.5l40.5,49Q209.26,219.92,209.26,182.92Z" transform="translate(-1.26 -0.92)" fill="#1d1d1b"/><path d="M204.76,73.42q-5-7-8.5-11a1.59,1.59,0,0,1-1-1.5c0-.33.33-.67,1-1,.67-1,1.5-1,2.5,0a138.53,138.53,0,0,1,9,11.5l.5.5v.5a1.59,1.59,0,0,1-1,1.5,1.45,1.45,0,0,1-1,.5,2,2,0,0,1-1.5-.5Z" transform="translate(-1.26 -0.92)" fill="#5a5a5a"/><path d="M197.26,293.92a2,2,0,0,1,.5,1.5,1.45,1.45,0,0,1-.5,1,3.93,3.93,0,0,1-1.5.5,1.45,1.45,0,0,1-1-.5l-3-3.5a16.55,16.55,0,0,1-2-2.5,36.63,36.63,0,0,0-2.25-3c-.83-1-1.58-1.83-2.25-2.5a1.45,1.45,0,0,1-.5-1,2,2,0,0,1,.5-1.5c1-.67,1.83-.67,2.5,0v-.5l.5.5v.5l1.5,2Q193.77,289.42,197.26,293.92Z" transform="translate(-1.26 -0.92)" fill="#5a5a5a"/><path d="M197.26,304.92c.67.67.67,1.5,0,2.5a108.91,108.91,0,0,1-11,10.5,1.45,1.45,0,0,1-1,.5,1.59,1.59,0,0,1-1.5-1l-.5-1c0-.33.33-.83,1-1.5a101.61,101.61,0,0,0,10.5-10c0-.33.33-.5,1-.5A2,2,0,0,1,197.26,304.92Z" transform="translate(-1.26 -0.92)" fill="#5a5a5a"/><path d="M188.26,51.92a2,2,0,0,1-1.5.5h-.5l-.5-.5a115.52,115.52,0,0,0-11.5-8.5c-.33,0-.67-.33-1-1a2,2,0,0,1,.5-1.5,1.59,1.59,0,0,1,2.5-.5,110.58,110.58,0,0,1,12,9,1.45,1.45,0,0,1,.5,1A2,2,0,0,1,188.26,51.92Z" transform="translate(-1.26 -0.92)" fill="#5a5a5a"/><path d="M178.76,271.42a.63.63,0,0,1,0,1,2,2,0,0,1-.5,1.5,1.45,1.45,0,0,1-1,.5,1.59,1.59,0,0,1-1.5-1q-1.5-1.5-4.5-5.25a72.63,72.63,0,0,0-5-5.75,2,2,0,0,1-.5-1.5c0-.33.33-.67,1-1,1-1,1.83-1,2.5,0q6,7,8.5,10Z" transform="translate(-1.26 -0.92)" fill="#5a5a5a"/><path d="M174.76,323.92a2,2,0,0,1,.5,1.5c0,.33-.33.67-1,1a102.74,102.74,0,0,1-13.5,7h-.5a1.33,1.33,0,0,1-1.5-1.5.44.44,0,0,1-.5-.5,1.33,1.33,0,0,1,1.5-1.5,90,90,0,0,0,12.5-6.5C173.59,322.75,174.43,322.92,174.76,323.92Z" transform="translate(-1.26 -0.92)" fill="#5a5a5a"/><path d="M163.76,34.92v1a1.59,1.59,0,0,1-1.5,1h-1a49.65,49.65,0,0,0-10-3.5l-.5,6.5-16.5-10.5,18.5-7-1,7.5a61.67,61.67,0,0,1,11,3.5A1.59,1.59,0,0,1,163.76,34.92Z" transform="translate(-1.26 -0.92)" fill="#5a5a5a"/><path d="M159.76,248.42a1.87,1.87,0,0,1,0,3h-1a2,2,0,0,1-1.5-.5q-1.5-1.5-9.5-11.5c-.33,0-.5-.33-.5-1a2,2,0,0,1,.5-1.5c1.33-.67,2.33-.5,3,.5s1.92,2.58,3.75,4.75,3.25,3.75,4.25,4.75Z" transform="translate(-1.26 -0.92)" fill="#5a5a5a"/><path d="M147.76,334.92c.33.33.17.83-.5,1.5,0,.33-.33.5-1,.5a61.8,61.8,0,0,1-12,1h-3c-1,0-1.5-.58-1.5-1.75s.5-1.75,1.5-1.75a54.21,54.21,0,0,0,14.5-1C147.09,333.09,147.76,333.59,147.76,334.92Z" transform="translate(-1.26 -0.92)" fill="#5a5a5a"/><path d="M141.76,221.17q3.5,4.25-.75,7.75t-7.75-.75q-3.49-4.24.75-7.75T141.76,221.17Z" transform="translate(-1.26 -0.92)" fill="#5a5a5a"/><path d="M134,29.42c.17,3.67-1.58,5.58-5.25,5.75s-5.58-1.58-5.75-5.25,1.58-5.58,5.25-5.75S133.84,25.75,134,29.42Z" transform="translate(-1.26 -0.92)" fill="#5a5a5a"/><path d="M117.26,332.42a1.77,1.77,0,0,1-.5,3.5h-.5a59,59,0,0,1-14-5,1.59,1.59,0,0,1-1-1.5v-1a1.59,1.59,0,0,1,2.5-.5A80.31,80.31,0,0,0,117.26,332.42Z" transform="translate(-1.26 -0.92)" fill="#5a5a5a"/><path d="M112.76,32.42v.5a2,2,0,0,1-1,2,75.83,75.83,0,0,0-13.5,6h-.5a2.87,2.87,0,0,1-2-1v-1a5.7,5.7,0,0,1,1-1.5,72.2,72.2,0,0,1,13.5-6C111.59,31.09,112.43,31.42,112.76,32.42Z" transform="translate(-1.26 -0.92)" fill="#5a5a5a"/><path d="M91.26,320.42c1,.67,1.17,1.67.5,3a2,2,0,0,1-1.5.5,1.45,1.45,0,0,1-1-.5,83.34,83.34,0,0,1-11.5-9c-.67-.67-1-1.17-1-1.5a2,2,0,0,1,.5-1.5,2.49,2.49,0,0,1,3,0A72.18,72.18,0,0,0,91.26,320.42Z" transform="translate(-1.26 -0.92)" fill="#5a5a5a"/><path d="M86.76,45.92a3.93,3.93,0,0,1,.5,1.5,3.93,3.93,0,0,1-.5,1.5,126.44,126.44,0,0,0-11,9.5,3.93,3.93,0,0,1-1.5.5,1.45,1.45,0,0,1-1-.5,1.81,1.81,0,0,1,0-2.5,148.61,148.61,0,0,1,11-10C84.93,45.25,85.76,45.25,86.76,45.92Z" transform="translate(-1.26 -0.92)" fill="#5a5a5a"/><path d="M70.26,300.92c.67,1.33.5,2.17-.5,2.5a1.45,1.45,0,0,1-1,.5,3.93,3.93,0,0,1-1.5-.5q-3-3.5-9-12v-1a2,2,0,0,1,.5-1.5,2.17,2.17,0,0,1,3,.5A112,112,0,0,0,70.26,300.92Z" transform="translate(-1.26 -0.92)" fill="#5a5a5a"/><path d="M66.76,68.42l-.5,1q-4,5.51-8,12a1.59,1.59,0,0,1-1.5,1,1.45,1.45,0,0,1-1-.5,1.59,1.59,0,0,1-.5-2.5,88.41,88.41,0,0,1,8.5-12c.33-1,1.17-1.17,2.5-.5A2,2,0,0,1,66.76,68.42Z" transform="translate(-1.26 -0.92)" fill="#5a5a5a"/><path d="M54.26,276.92a2,2,0,0,1-1,2.5,1.45,1.45,0,0,1-1,.5,1.59,1.59,0,0,1-1.5-1q-3-6-6.5-13.5v-1a1.59,1.59,0,0,1,1-1.5,1.63,1.63,0,0,1,2,.5l.5.5Q50.76,270.41,54.26,276.92Z" transform="translate(-1.26 -0.92)" fill="#5a5a5a"/><path d="M50.26,91.92c1,.33,1.33.83,1,1.5v.5q-2.5,5.51-6,13.5a1.33,1.33,0,0,1-1.5,1.5l-.5-.5c-.33,0-.83-.33-1.5-1v-1l6-14h.5C48.59,91.42,49.26,91.25,50.26,91.92Z" transform="translate(-1.26 -0.92)" fill="#5a5a5a"/><path d="M42.26,250.42c.67,1,.33,1.67-1,2l-.5.5q-1,0-1.5-1.5-3-9.49-4.5-14v-.5A1.54,1.54,0,0,1,36,235.17a1.89,1.89,0,0,1,1.75.25v-.5l.5,1.5Q39.76,241.42,42.26,250.42Z" transform="translate(-1.26 -0.92)" fill="#5a5a5a"/><path d="M40.76,120.92v.5a138.28,138.28,0,0,0-3.5,14,2,2,0,0,1-2,1h-.5c-1,0-1.5-.67-1.5-2q2-8,4-14.5a1.4,1.4,0,0,1,2-1A2,2,0,0,1,40.76,120.92Z" transform="translate(-1.26 -0.92)" fill="#5a5a5a"/><path d="M35.26,222.42v1c-.67.67-1.17,1-1.5,1-1.33,0-2-.5-2-1.5q-1.5-8.5-2-15a2,2,0,0,1,1.5-2,2,2,0,0,1,2,1.5v.5Q34.27,215.42,35.26,222.42Z" transform="translate(-1.26 -0.92)" fill="#5a5a5a"/><path d="M34.26,149.42v.5q-1,6.5-1.5,14c-.33,1.33-1,2-2,2a5.7,5.7,0,0,1-1.5-1,.63.63,0,0,1,0-1q.49-7,1.5-15a2,2,0,0,1,2-1.5A2,2,0,0,1,34.26,149.42Z" transform="translate(-1.26 -0.92)" fill="#5a5a5a"/><path d="M31.76,182.92q0,4,.5,10.5c0,1-.67,1.67-2,2-1,0-1.67-.67-2-2v-15a1.33,1.33,0,0,1,1.5-1.5h.5a1.45,1.45,0,0,1,1,.5,2,2,0,0,1,.5,1.5Z" transform="translate(-1.26 -0.92)" fill="#5a5a5a"/></svg>