<svg id="Layer_1" data-name="Layer 1" xmlns="http://www.w3.org/2000/svg" viewBox="0 0 225.78 368.46"><path d="M47.15,197.26q-4-3.75-7.75.25t.25,7.75q4,3.75,7.75-.25T47.15,197.26Zm-10.5-7.75,17.5,8.5v-7a64.94,64.94,0,0,0,9-.5c1.33,0,1.83-.66,1.5-2a1.33,1.33,0,0,0-1.5-1.5h-9v-6.5ZM221.4,339.26a23.24,23.24,0,0,1-1.25,9,24.09,24.09,0,0,1-4.5,7.75,23,23,0,0,1-8,6q-14,6-25.5-4L57.65,246a1.62,1.62,0,0,0-1.5-1,1.44,1.44,0,0,0-1,.5,2.32,2.32,0,0,0-1.5,2.5v88.5a14.84,14.84,0,0,1-.5,3.5,27.25,27.25,0,0,1-1.5,5.5,19.41,19.41,0,0,1-4.5,7,35.74,35.74,0,0,1-5.5,4.5,15.73,15.73,0,0,1-5,2,21,21,0,0,1-12,.5,15.55,15.55,0,0,1-5-2,30.27,30.27,0,0,1-5.5-3.5,28.56,28.56,0,0,1-5.5-7.5,21.08,21.08,0,0,1-2-6v-309a27.13,27.13,0,0,1,1-7.5,34.8,34.8,0,0,1,2.5-5l.5-.5a7.85,7.85,0,0,1,1.5-2,1.43,1.43,0,0,1,.5-1,.44.44,0,0,0,.5-.5l1-.5a21.11,21.11,0,0,1,12.5-6h1.5q73-6.49,117,8,23.49,8,38.5,22a84.69,84.69,0,0,1,20,27.5q7,16.5,7,37,0,42.51-26.5,69-29,29.51-90,37.5a3,3,0,0,0-2,2,2.25,2.25,0,0,0,.5,2.5l121,109a21.63,21.63,0,0,1,5.5,7.25A24.07,24.07,0,0,1,221.4,339.26Zm-18.75,5.25-7-18-5,5c-.34-.33-1-1-2-2s-1.67-1.66-2-2a1.6,1.6,0,0,0-2.5.5,1.81,1.81,0,0,0,0,2.5,13.17,13.17,0,0,0,1.5,1.25,16.81,16.81,0,0,1,1.5,1.25c0,.34.33.67,1,1l-4.5,5.5Zm-14-233a49.71,49.71,0,0,0,.5-8.5,30,30,0,0,0-.5-6.5,1.33,1.33,0,0,0-1.5-1.5,1.77,1.77,0,0,0-2,2,26.93,26.93,0,0,1,.5,6,65,65,0,0,1-.5,8v1q.49,1.5,1.5,1.5A1.77,1.77,0,0,0,188.65,111.51Zm-2.5,15V125a1.62,1.62,0,0,0-1.5-1c-1-.33-1.67.17-2,1.5a75.63,75.63,0,0,1-5,13v1a1.59,1.59,0,0,0,1,1.5.44.44,0,0,0,.5.5,1.61,1.61,0,0,0,1.5-1A64.86,64.86,0,0,0,186.15,126.51Zm0-44v-1a45.41,45.41,0,0,0-6-13.5,2,2,0,0,0-2.5-1,3.76,3.76,0,0,0-.5,1.5q-.51,1,0,1.5a60,60,0,0,1,5.5,12.5V83a2,2,0,0,0,2,1h.5C185.81,84,186.15,83.51,186.15,82.51Zm-10.5,238c.66-1,.66-1.83,0-2.5l-1-1q-1.5-1.5-5-4.75a51,51,0,0,0-5-4.25c-1-1-1.84-1-2.5,0a2,2,0,0,0-.5,1.5c0,.67.16,1,.5,1l2,2q1,1,4.25,3.75c2.16,1.84,3.75,3.25,4.75,4.25a1.4,1.4,0,0,0,1,.5A2,2,0,0,0,175.65,320.51Zm-3-167.5c1-1,.83-1.83-.5-2.5-.67-.66-1.5-.66-2.5,0a47.38,47.38,0,0,1-10,10l-.5.5v2a1.59,1.59,0,0,0,1.5,1c.66,0,1-.16,1-.5A65.59,65.59,0,0,0,172.65,153Zm-1-95.5v-1l-.5-.5a66.07,66.07,0,0,0-12-9.5c-.67-.66-1.5-.5-2.5.5a1.59,1.59,0,0,0,.5,2.5,53.32,53.32,0,0,1,11,9h.5a1.4,1.4,0,0,0,1,.5,2,2,0,0,0,1.5-.5C171.48,58.51,171.65,58.18,171.65,57.51Zm-8,45.5a48.44,48.44,0,0,0-3-18,35.8,35.8,0,0,0-8.5-11.5Q143.64,66,129.65,61q-27-9-73.5-7.5a2.21,2.21,0,0,0-2.5,2.5V163a2.56,2.56,0,0,0,2.5,2.5q70.5-2.49,94-26.5Q163.65,125.51,163.65,103Zm-10,198q1-2,0-3t-3.25-3c-1.5-1.33-2.59-2.33-3.25-3l-4.5-3.75c-1-.83-1.84-.75-2.5.25a1.43,1.43,0,0,0-.5,1,3.67,3.67,0,0,0,.5,1.5,26.91,26.91,0,0,1,3.75,3.25c1.5,1.5,2.58,2.59,3.25,3.25a7.49,7.49,0,0,0,1.25,1,10.35,10.35,0,0,1,1.5,1.25c.5.5.91.92,1.25,1.25a2,2,0,0,0,1.5.5A1.43,1.43,0,0,0,153.65,301Zm-4-129a1.6,1.6,0,0,0,.5-2.5c-.67-1.33-1.5-1.66-2.5-1a76.58,76.58,0,0,1-13,6,2,2,0,0,0-1.5,2l.5.5c0,.67.5,1,1.5,1h1Q143.14,175,149.65,172Zm-2.5-130v-.5a2,2,0,0,0-1-2,96.41,96.41,0,0,0-14-4.5c-1.34-.66-2.17-.33-2.5,1a3.67,3.67,0,0,0,.5,1.5c0,.34.33.5,1,.5a121.11,121.11,0,0,1,13.5,5h.5A2,2,0,0,0,147.15,42Zm-15,239v-1.5c0-.66-.17-1-.5-1-1-1-2.59-2.5-4.75-4.5s-3.75-3.5-4.75-4.5l-1.5-1c-.67-1-1.5-1-2.5,0a1.81,1.81,0,0,0,0,2.5l3,2.5q3,3,8.5,7.5c0,.34.25.5.75.5A4,4,0,0,0,132.15,281Zm-10.5-98.5a2,2,0,0,0,1.5-2c-.34-1-1.17-1.33-2.5-1q-6.51,1.5-14,3a1.33,1.33,0,0,0-1.5,1.5v.5a2,2,0,0,0,2,1.5A131.63,131.63,0,0,0,121.65,182.51Zm-2.5-149c0-1.33-.5-2-1.5-2q-10.5-1.5-14.5-2c-1.34,0-2,.5-2,1.5q-.51.51,0,1.5a2,2,0,0,0,1.5.5,119.26,119.26,0,0,1,14,2h.5A2,2,0,0,0,119.15,33.51Zm-9,227.5c.66-.66.66-1.5,0-2.5a18.06,18.06,0,0,1-3.25-2.5c-1.5-1.33-2.59-2.33-3.25-3l-4.5-4.5a2.85,2.85,0,0,0-3.5,2c0,.34.33.67,1,1,1.66,1.67,3,3,4,4a9.72,9.72,0,0,1,2.25,1.75,26.85,26.85,0,0,0,2.5,2.25c.83.67,1.58,1.34,2.25,2,0,.34.33.5,1,.5A1.61,1.61,0,0,0,110.15,261Zm-17.5-72.5a1.82,1.82,0,0,0,1.5-2.5c0-1-.67-1.5-2-1.5q-11.5,1.5-14.5,1.5c-1,0-1.5.67-1.5,2a1.76,1.76,0,0,0,2,2Q83.64,189.52,92.65,188.51Zm-3-158.25c0-1.16-.5-1.75-1.5-1.75h-.5q-9-.5-14.5-.5c-1,0-1.5.59-1.5,1.75s.5,1.75,1.5,1.75q4.5,0,15,.5C89.15,32,89.65,31.43,89.65,30.26Zm-1.5,211.25c.66-1,.66-1.83,0-2.5q-3-2.49-9.5-8.5l-1.5-1.5a1.6,1.6,0,0,0-2.5.5c-.67.34-.84.67-.5,1a2,2,0,0,0,.5,1.5,31.59,31.59,0,0,1,4.75,4.25,35.47,35.47,0,0,0,6.25,5.25,1.4,1.4,0,0,0,1,.5A2,2,0,0,0,88.15,241.51Zm-22-19.5a1,1,0,0,0,.5-1.5c0-.66-.17-1-.5-1q-1-1-3.5-3a46.09,46.09,0,0,0-7-6.5.44.44,0,0,0-.5-.5l-.5-.5a1.64,1.64,0,0,0-2,.5,1.81,1.81,0,0,0,0,2.5q5,4.5,6.5,6a35.2,35.2,0,0,1,4.5,4l1,.5A2,2,0,0,0,66.15,222ZM60.65,30a1.77,1.77,0,0,0-2-2l-2,.5h-7c-1-2.33-2.84-3.33-5.5-3-3.67.34-5.34,2.25-5,5.75s2.33,5.25,6,5.25a5.13,5.13,0,0,0,4.5-4,82.26,82.26,0,0,1,9-.5C60,31.68,60.65,31,60.65,30Zm-30.5,314.5,8.5-17.5H21.15ZM31.65,36a4.73,4.73,0,0,0,4-5,5.29,5.29,0,0,0-1.75-3.75,5.54,5.54,0,0,0-4-1.75,4.76,4.76,0,0,0-3.75,1.75A5.68,5.68,0,0,0,24.65,31c0,2.67,1.16,4.34,3.5,5V49c0,1.34.5,2,1.5,2a1.77,1.77,0,0,0,2-2Zm0,278V299c0-1-.59-1.5-1.75-1.5s-1.75.67-1.75,2V314c0,1.34.5,2,1.5,2A1.77,1.77,0,0,0,31.65,314Zm0-29.5V270c0-1.33-.59-2-1.75-2s-1.75.67-1.75,2v14.5c0,1.34.5,2,1.5,2A1.77,1.77,0,0,0,31.65,284.51Zm0-29V240c0-.66-.59-1-1.75-1s-1.75.5-1.75,1.5v15a1.33,1.33,0,0,0,1.5,1.5C31,257,31.65,256.51,31.65,255.51Zm0-29.5V211c0-1.33-.59-2-1.75-2s-1.75.67-1.75,2v15a1.33,1.33,0,0,0,1.5,1.5C31,227.51,31.65,227,31.65,226Zm0-29.5v-15c0-1-.59-1.5-1.75-1.5s-1.75.5-1.75,1.5v15a1.33,1.33,0,0,0,1.5,1.5C31,198,31.65,197.51,31.65,196.51Zm0-29.5V152c0-1-.59-1.5-1.75-1.5s-1.75.5-1.75,1.5v15c0,1.34.5,2,1.5,2A1.77,1.77,0,0,0,31.65,167Zm0-29.5v-15c0-1-.59-1.5-1.75-1.5s-1.75.5-1.75,1.5v15a1.33,1.33,0,0,0,1.5,1.5C31,139,31.65,138.51,31.65,137.51Zm0-29.5V93c0-1-.59-1.5-1.75-1.5s-1.75.67-1.75,2V108c0,1.34.5,2,1.5,2A1.77,1.77,0,0,0,31.65,108Zm0-29.5v-15c0-1-.59-1.5-1.75-1.5s-1.75.67-1.75,2v14.5c0,1.34.5,2,1.5,2A1.77,1.77,0,0,0,31.65,78.51Z" transform="translate(-1.15 -1.05)" fill="#fbea23"/><path d="M226.9,339a28.34,28.34,0,0,1-1.75,11,36.7,36.7,0,0,1-5.5,10,33.91,33.91,0,0,1-10,7,27.6,27.6,0,0,1-11.5,2.5,28.6,28.6,0,0,1-19.5-7.5l-120-108v82.5a18.72,18.72,0,0,1-.5,4.5,38.25,38.25,0,0,1-1.5,6.5,25,25,0,0,1-5.5,8.5,22.2,22.2,0,0,1-7,5.5,24.84,24.84,0,0,1-6,2.5,24,24,0,0,1-14.5.5,21,21,0,0,1-6.5-2,44.12,44.12,0,0,1-6.5-4.5,28,28,0,0,1-7-9.5,27.42,27.42,0,0,1-2-7,24.87,24.87,0,0,1-.5-5v-305A29.86,29.86,0,0,1,2.65,22l3-6,.5-.5A24,24,0,0,1,7.65,13c.66-.33,1-.66,1-1a.44.44,0,0,0,.5-.5l1-1A32.05,32.05,0,0,1,25.65,3h2q74-6.49,119,8.5Q171.15,20,187.15,35a81.1,81.1,0,0,1,21,29q8,17.51,8,39,0,44.51-28,72.5-29,29.51-87.5,38.5l116.5,105a29,29,0,0,1,7,9.25A27.94,27.94,0,0,1,226.9,339Zm-6.75,9.25a23.24,23.24,0,0,0,1.25-9,24.07,24.07,0,0,0-2.25-9,21.63,21.63,0,0,0-5.5-7.25l-121-109a2.25,2.25,0,0,1-.5-2.5,3,3,0,0,1,2-2q61-8,90-37.5,26.49-26.49,26.5-69,0-20.49-7-37a84.69,84.69,0,0,0-20-27.5q-15-14-38.5-22-44-14.49-117-8h-1.5a21.11,21.11,0,0,0-12.5,6l-1,.5a.44.44,0,0,1-.5.5,1.43,1.43,0,0,0-.5,1,7.85,7.85,0,0,0-1.5,2l-.5.5a34.8,34.8,0,0,0-2.5,5,27.13,27.13,0,0,0-1,7.5v309a21.08,21.08,0,0,0,2,6,28.56,28.56,0,0,0,5.5,7.5,30.27,30.27,0,0,0,5.5,3.5,15.55,15.55,0,0,0,5,2,21,21,0,0,0,12-.5,15.73,15.73,0,0,0,5-2,35.74,35.74,0,0,0,5.5-4.5,19.41,19.41,0,0,0,4.5-7,27.25,27.25,0,0,0,1.5-5.5,14.84,14.84,0,0,0,.5-3.5V248a2.32,2.32,0,0,1,1.5-2.5,1.44,1.44,0,0,1,1-.5,1.62,1.62,0,0,1,1.5,1l124.5,112q11.49,10,25.5,4a23,23,0,0,0,8-6A24.09,24.09,0,0,0,220.15,348.26Z" transform="translate(-1.15 -1.05)" fill="#1d1d1b"/><path d="M195.65,326.51l7,18-19-5,4.5-5.5c-.67-.33-1-.66-1-1a16.81,16.81,0,0,0-1.5-1.25,13.17,13.17,0,0,1-1.5-1.25,1.81,1.81,0,0,1,0-2.5,1.6,1.6,0,0,1,2.5-.5c.33.34,1,1,2,2s1.66,1.67,2,2Z" transform="translate(-1.15 -1.05)" fill="#5a5a5a"/><path d="M189.15,103a49.71,49.71,0,0,1-.5,8.5,1.77,1.77,0,0,1-2,2q-1,0-1.5-1.5v-1a65,65,0,0,0,.5-8,26.93,26.93,0,0,0-.5-6,1.77,1.77,0,0,1,2-2,1.33,1.33,0,0,1,1.5,1.5A30,30,0,0,1,189.15,103Z" transform="translate(-1.15 -1.05)" fill="#5a5a5a"/><path d="M186.15,125v1.5a64.86,64.86,0,0,1-5.5,14,1.61,1.61,0,0,1-1.5,1,.44.44,0,0,1-.5-.5,1.59,1.59,0,0,1-1-1.5v-1a75.63,75.63,0,0,0,5-13c.33-1.33,1-1.83,2-1.5A1.62,1.62,0,0,1,186.15,125Z" transform="translate(-1.15 -1.05)" fill="#5a5a5a"/><path d="M186.15,82v.5c0,1-.34,1.5-1,1.5h-.5a2,2,0,0,1-2-1v-.5a60,60,0,0,0-5.5-12.5q-.51-.49,0-1.5a3.76,3.76,0,0,1,.5-1.5,2,2,0,0,1,2.5,1,45.41,45.41,0,0,1,6,13.5Z" transform="translate(-1.15 -1.05)" fill="#5a5a5a"/><path d="M175.65,318c.66.67.66,1.5,0,2.5a2,2,0,0,1-1.5.5,1.4,1.4,0,0,1-1-.5c-1-1-2.59-2.41-4.75-4.25s-3.59-3.08-4.25-3.75l-2-2c-.34,0-.5-.33-.5-1a2,2,0,0,1,.5-1.5c.66-1,1.5-1,2.5,0a51,51,0,0,1,5,4.25q3.49,3.25,5,4.75Z" transform="translate(-1.15 -1.05)" fill="#5a5a5a"/><path d="M172.15,150.51c1.33.67,1.5,1.5.5,2.5a65.59,65.59,0,0,1-11,10.5c0,.34-.34.5-1,.5a1.59,1.59,0,0,1-1.5-1v-2l.5-.5a47.38,47.38,0,0,0,10-10C170.65,149.85,171.48,149.85,172.15,150.51Z" transform="translate(-1.15 -1.05)" fill="#5a5a5a"/><path d="M171.65,56.51v1c0,.67-.17,1-.5,1a2,2,0,0,1-1.5.5,1.4,1.4,0,0,1-1-.5h-.5a53.32,53.32,0,0,0-11-9,1.59,1.59,0,0,1-.5-2.5c1-1,1.83-1.16,2.5-.5a66.07,66.07,0,0,1,12,9.5Z" transform="translate(-1.15 -1.05)" fill="#5a5a5a"/><path d="M160.65,85a48.44,48.44,0,0,1,3,18q0,22.5-13.5,36-23.51,24-94,26.5a2.56,2.56,0,0,1-2.5-2.5V56a2.21,2.21,0,0,1,2.5-2.5q46.5-1.5,73.5,7.5,14,5,22.5,12.5A35.8,35.8,0,0,1,160.65,85Zm-2,18q0-9.49-3-16a34.1,34.1,0,0,0-7-10q-7.5-6.49-20.5-11-25.5-8.49-69.5-7.5V160q66-2.49,88-24.5Q158.65,123.51,158.65,103Z" transform="translate(-1.15 -1.05)" fill="#1d1d1b"/><path d="M153.65,298q1,1,0,3a1.43,1.43,0,0,1-1,.5,2,2,0,0,1-1.5-.5c-.34-.33-.75-.75-1.25-1.25a10.35,10.35,0,0,0-1.5-1.25,7.49,7.49,0,0,1-1.25-1c-.67-.66-1.75-1.75-3.25-3.25a26.91,26.91,0,0,0-3.75-3.25,3.67,3.67,0,0,1-.5-1.5,1.43,1.43,0,0,1,.5-1c.66-1,1.5-1.08,2.5-.25l4.5,3.75c.66.67,1.75,1.67,3.25,3S153,297.35,153.65,298Z" transform="translate(-1.15 -1.05)" fill="#5a5a5a"/><path d="M150.15,169.51a1.6,1.6,0,0,1-.5,2.5q-6.51,3-13.5,6h-1c-1,0-1.5-.33-1.5-1l-.5-.5a2,2,0,0,1,1.5-2,76.58,76.58,0,0,0,13-6C148.65,167.85,149.48,168.18,150.15,169.51Z" transform="translate(-1.15 -1.05)" fill="#5a5a5a"/><path d="M147.15,41.51V42a2,2,0,0,1-2,1h-.5a121.11,121.11,0,0,0-13.5-5c-.67,0-1-.16-1-.5a3.67,3.67,0,0,1-.5-1.5c.33-1.33,1.16-1.66,2.5-1a96.41,96.41,0,0,1,14,4.5A2,2,0,0,1,147.15,41.51Z" transform="translate(-1.15 -1.05)" fill="#5a5a5a"/><path d="M132.15,279.51V281a4,4,0,0,1-1.75.5c-.5,0-.75-.16-.75-.5q-5.5-4.5-8.5-7.5l-3-2.5a1.81,1.81,0,0,1,0-2.5c1-1,1.83-1,2.5,0l1.5,1q1.5,1.5,4.75,4.5c2.16,2,3.75,3.5,4.75,4.5C132,278.51,132.15,278.85,132.15,279.51Z" transform="translate(-1.15 -1.05)" fill="#5a5a5a"/><path d="M123.15,180.51a2,2,0,0,1-1.5,2,131.63,131.63,0,0,1-14.5,3.5,2,2,0,0,1-2-1.5V184a1.33,1.33,0,0,1,1.5-1.5q7.5-1.5,14-3C122,179.18,122.81,179.51,123.15,180.51Z" transform="translate(-1.15 -1.05)" fill="#5a5a5a"/><path d="M117.65,31.51c1,0,1.5.67,1.5,2a2,2,0,0,1-2,1.5h-.5a119.26,119.26,0,0,0-14-2,2,2,0,0,1-1.5-.5q-.51-1,0-1.5c0-1,.66-1.5,2-1.5Q107.14,30,117.65,31.51Z" transform="translate(-1.15 -1.05)" fill="#5a5a5a"/><path d="M110.15,258.51c.66,1,.66,1.84,0,2.5a1.61,1.61,0,0,1-1.5,1c-.67,0-1-.16-1-.5-.67-.66-1.42-1.33-2.25-2a26.85,26.85,0,0,1-2.5-2.25,9.72,9.72,0,0,0-2.25-1.75c-1-1-2.34-2.33-4-4-.67-.33-1-.66-1-1a2.85,2.85,0,0,1,3.5-2l4.5,4.5c.66.67,1.75,1.67,3.25,3A18.06,18.06,0,0,0,110.15,258.51Z" transform="translate(-1.15 -1.05)" fill="#5a5a5a"/><path d="M94.15,186a1.82,1.82,0,0,1-1.5,2.5q-9,1-14.5,1.5a1.76,1.76,0,0,1-2-2c0-1.33.5-2,1.5-2q3,0,14.5-1.5C93.48,184.51,94.15,185,94.15,186Z" transform="translate(-1.15 -1.05)" fill="#5a5a5a"/><path d="M88.15,28.51c1,0,1.5.59,1.5,1.75S89.15,32,88.15,32q-10.5-.49-15-.5c-1,0-1.5-.58-1.5-1.75s.5-1.75,1.5-1.75q5.49,0,14.5.5Z" transform="translate(-1.15 -1.05)" fill="#5a5a5a"/><path d="M88.15,239c.66.67.66,1.5,0,2.5a2,2,0,0,1-1.5.5,1.4,1.4,0,0,1-1-.5,35.47,35.47,0,0,1-6.25-5.25A31.59,31.59,0,0,0,74.65,232a2,2,0,0,1-.5-1.5c-.34-.33-.17-.66.5-1a1.6,1.6,0,0,1,2.5-.5l1.5,1.5Q85.15,236.51,88.15,239Z" transform="translate(-1.15 -1.05)" fill="#5a5a5a"/><path d="M64.65,188.51c.33,1.34-.17,2-1.5,2a64.94,64.94,0,0,1-9,.5v7l-17.5-8.5,17.5-9V187h9A1.33,1.33,0,0,1,64.65,188.51Z" transform="translate(-1.15 -1.05)" fill="#5a5a5a"/><path d="M58.65,28a1.77,1.77,0,0,1,2,2c0,1-.67,1.67-2,2a82.26,82.26,0,0,0-9,.5,5.13,5.13,0,0,1-4.5,4q-5.51,0-6-5.25c-.34-3.5,1.33-5.41,5-5.75,2.66-.33,4.5.67,5.5,3h7Z" transform="translate(-1.15 -1.05)" fill="#5a5a5a"/><path d="M52.65,209.51a1.64,1.64,0,0,1,2-.5l.5.5a.44.44,0,0,1,.5.5,46.09,46.09,0,0,1,7,6.5q2.49,2,3.5,3c.33,0,.5.34.5,1a1,1,0,0,1-.5,1.5,2,2,0,0,1-1.5.5l-1-.5a35.2,35.2,0,0,0-4.5-4q-1.5-1.5-6.5-6a1.81,1.81,0,0,1,0-2.5Z" transform="translate(-1.15 -1.05)" fill="#5a5a5a"/><path d="M47.15,197.26q4,3.75.25,7.75t-7.75.25q-4-3.75-.25-7.75T47.15,197.26Z" transform="translate(-1.15 -1.05)" fill="#5a5a5a"/><polygon points="37.5 325.96 29 343.46 20 325.96 37.5 325.96" fill="#5a5a5a"/><path d="M35.65,31a4.73,4.73,0,0,1-4,5V49a1.77,1.77,0,0,1-2,2c-1,0-1.5-.66-1.5-2V36c-2.34-.66-3.5-2.33-3.5-5a5.68,5.68,0,0,1,1.5-3.75,4.76,4.76,0,0,1,3.75-1.75,5.54,5.54,0,0,1,4,1.75A5.29,5.29,0,0,1,35.65,31Z" transform="translate(-1.15 -1.05)" fill="#5a5a5a"/><path d="M31.65,300v14a1.77,1.77,0,0,1-2,2c-1,0-1.5-.66-1.5-2v-14.5c0-1.33.58-2,1.75-2s1.75.5,1.75,1.5v1Z" transform="translate(-1.15 -1.05)" fill="#5a5a5a"/><path d="M31.65,270.51v14a1.77,1.77,0,0,1-2,2c-1,0-1.5-.66-1.5-2V270c0-1.33.58-2,1.75-2s1.75.67,1.75,2Z" transform="translate(-1.15 -1.05)" fill="#5a5a5a"/><path d="M31.65,241v14.5c0,1-.67,1.5-2,1.5a1.33,1.33,0,0,1-1.5-1.5v-15c0-1,.58-1.5,1.75-1.5s1.75.34,1.75,1v1Z" transform="translate(-1.15 -1.05)" fill="#5a5a5a"/><path d="M31.65,211.51V226c0,1-.67,1.5-2,1.5a1.33,1.33,0,0,1-1.5-1.5V211c0-1.33.58-2,1.75-2s1.75.67,1.75,2Z" transform="translate(-1.15 -1.05)" fill="#5a5a5a"/><path d="M31.65,182v14.5c0,1-.67,1.5-2,1.5a1.33,1.33,0,0,1-1.5-1.5v-15c0-1,.58-1.5,1.75-1.5s1.75.5,1.75,1.5Z" transform="translate(-1.15 -1.05)" fill="#5a5a5a"/><path d="M31.65,152.51V167a1.77,1.77,0,0,1-2,2c-1,0-1.5-.66-1.5-2V152c0-1,.58-1.5,1.75-1.5s1.75.5,1.75,1.5Z" transform="translate(-1.15 -1.05)" fill="#5a5a5a"/><path d="M31.65,123v14.5c0,1-.67,1.5-2,1.5a1.33,1.33,0,0,1-1.5-1.5v-15c0-1,.58-1.5,1.75-1.5s1.75.5,1.75,1.5Z" transform="translate(-1.15 -1.05)" fill="#5a5a5a"/><path d="M31.65,93.51V108a1.77,1.77,0,0,1-2,2c-1,0-1.5-.66-1.5-2V93.51c0-1.33.58-2,1.75-2s1.75.5,1.75,1.5Z" transform="translate(-1.15 -1.05)" fill="#5a5a5a"/><path d="M31.65,64v14.5a1.77,1.77,0,0,1-2,2c-1,0-1.5-.66-1.5-2V64c0-1.33.58-2,1.75-2s1.75.5,1.75,1.5Z" transform="translate(-1.15 -1.05)" fill="#5a5a5a"/></svg>