<svg id="Layer_1" data-name="Layer 1" xmlns="http://www.w3.org/2000/svg" viewBox="0 0 231.96 363.67"><path d="M227.73,253.09q1.5,33.51-21.5,62.5-26.5,34-68.5,42-43.5,8-78-17-34-24.49-51-74.5A23.9,23.9,0,0,1,10,247.84a22,22,0,0,1,13.75-11.75,27.41,27.41,0,0,1,7.5-1h1.5a18.47,18.47,0,0,1,8.75,2.25,24.69,24.69,0,0,1,7.25,5.75,23.72,23.72,0,0,1,4.5,8q13.5,40,37.5,54,17.51,10,38,6a63.85,63.85,0,0,0,40.5-24.5q12-15,11.5-31.5-1-22-11-33-7-8.49-19.75-12.5t-37.25-8l-2.5-.5q-17.51-3-27.75-5.25t-25.75-9.75q-15.49-7.5-25-19-18-21.5-18-57.5,0-38.49,22-66,22-27,57-35,37.5-8,73.5,10,39.5,19.5,60.5,65a21.91,21.91,0,0,1,.5,17.75,23,23,0,0,1-12,13.25,21.89,21.89,0,0,1-9,2,25.51,25.51,0,0,1-9-1.5,23.63,23.63,0,0,1-8-4.5,28.79,28.79,0,0,1-5.5-7.5q-14-30.5-38.5-43a61,61,0,0,0-42.5-5.5q-19,4-30,18.5-12,14.5-12,36.5,0,18.51,7,27.5,5.51,6.51,17.5,10.25t35,7.75l2.5.5q17,3,27.75,5.5t27.5,10.5q16.76,8,27.25,19.5Q225.74,214.59,227.73,253.09Zm-22.5-160q5-2.49,2.5-7.5-1.5-3.5-5.5-2.5-2.5-4.5-7-11.5a1.6,1.6,0,0,0-2.5-.5c-.67.34-1,.67-1,1a2,2,0,0,0,.5,1.5,87.86,87.86,0,0,1,6.5,11,5,5,0,0,0-1,6Q200.24,95.6,205.23,93.09Zm.5,164.5v-3.5a76.33,76.33,0,0,0-1-11.5c0-1.33-.67-1.83-2-1.5a2,2,0,0,0-1.5,2,82.25,82.25,0,0,1,1,11v3.5a2,2,0,0,0,.5,1.5,2,2,0,0,0,1.5.5C205.23,259.59,205.73,258.93,205.73,257.59Zm-1.5,15v-.5c0-.66-.42-1.16-1.25-1.5a2,2,0,0,0-2.25.5v-1l-.5,1.5a64.11,64.11,0,0,1-4.5,13.5,1.59,1.59,0,0,0,.5,2.5,1.45,1.45,0,0,1,1,.5q1,0,1.5-1.5A53.25,53.25,0,0,0,204.23,272.59Zm-4-42a1.82,1.82,0,0,0,1.5-2.5,81.37,81.37,0,0,0-6-13v-.5q-1-2-2.5-.5c-.67,0-1,.5-1,1.5v1a59.16,59.16,0,0,1,6,13,1.59,1.59,0,0,0,1.5,1Zm-9,69a1.44,1.44,0,0,0,.5-1,2,2,0,0,0-3.5-1,126.66,126.66,0,0,1-9.5,10.5,2.07,2.07,0,0,0-.5,1.5,2,2,0,0,0,.5,1.5,2,2,0,0,0,1.5.5,1.41,1.41,0,0,0,1-.5A66.47,66.47,0,0,0,191.23,299.59Zm-5-94.5c1-.66,1-1.5,0-2.5a49.34,49.34,0,0,0-11.5-9l-.5-.5a2,2,0,0,0-2,1,1.47,1.47,0,0,0-.5,1,1.59,1.59,0,0,0,1,1.5,60,60,0,0,1,11,8.5,1.81,1.81,0,0,0,2.5,0Zm0-144a1.47,1.47,0,0,0-.5-1q-5-5.49-10.5-10.5c-1.33-.66-2.17-.5-2.5.5-.67.34-1,.67-1,1a1.59,1.59,0,0,0,1,1.5,98.5,98.5,0,0,1,10.5,10c0,.34.33.5,1,.5a2,2,0,0,0,1.5-.5A2,2,0,0,0,186.23,61.09Zm-15.5,258a1.47,1.47,0,0,0-.5-1,2,2,0,0,0-2-1l-.5.5a120.42,120.42,0,0,1-12.5,7.5c-.33,0-.67.34-1,1a1.44,1.44,0,0,0,.5,1q.5,1.5,1.5,1.5a.44.44,0,0,0,.5-.5,62.74,62.74,0,0,0,13-7.5C170.4,319.93,170.73,319.43,170.73,319.09Zm-7-275.75v-.75a1.61,1.61,0,0,0-1-1.5,102.34,102.34,0,0,0-13.5-6.5c-1-.66-1.67-.33-2,1a.63.63,0,0,0,0,1,1.59,1.59,0,0,0,1,1.5,61.26,61.26,0,0,1,12.5,6,1.41,1.41,0,0,0,1,.5,1.59,1.59,0,0,0,1.5-1C163.56,43.59,163.73,43.51,163.73,43.34Zm-1.5,145.75v-1.5a1.45,1.45,0,0,0-1-.5,127.51,127.51,0,0,0-14.5-4.5,1.4,1.4,0,0,0-2,1v1q0,1,1.5,1.5a108.8,108.8,0,0,1,13.5,4.5h1Q161.74,190.59,162.23,189.09Zm-18,143v-.5a2,2,0,0,0-2-1.5,58.87,58.87,0,0,1-14.5,3c-.33,0-.67.34-1,1a1.47,1.47,0,0,0-.5,1,1.77,1.77,0,0,0,2,2,99,99,0,0,0,14.5-3.5h1A2,2,0,0,0,144.23,332.09Zm-7.5-300v-.5a1.33,1.33,0,0,0-1.5-1.5h-.5a80.62,80.62,0,0,0-14.5-2c-1.33,0-2,.5-2,1.5a1.77,1.77,0,0,0,2,2,89.17,89.17,0,0,1,14,2h.5C135.4,33.59,136.06,33.09,136.73,32.09ZM134,181.34c.17-1.16-.42-1.91-1.75-2.25q-3.49-.5-12.5-2l-2-.5a2,2,0,0,0-2,1.5v.5c0,.67.5,1.34,1.5,2h.5c.33,0,1.08.09,2.25.25a20.64,20.64,0,0,0,2.25.25,55.91,55.91,0,0,0,9.5,1.5.44.44,0,0,0,.5.5C133.23,183.09,133.81,182.51,134,181.34Zm-18.75,154.5a2.13,2.13,0,0,0-1.5-2.25,55.9,55.9,0,0,1-14.5-2c-1-.33-1.67.09-2,1.25s.17,1.92,1.5,2.25a100.68,100.68,0,0,0,14.5,2.5h.5C114.73,337.59,115.23,337,115.23,335.84Zm-9.5-303.75c1,0,1.5-.66,1.5-2,0-1-.67-1.5-2-1.5a64.79,64.79,0,0,0-14.5,3,1.83,1.83,0,0,0-1.5,2.5,2,2,0,0,0,2,1h.5Q97.24,33.59,105.73,32.09ZM105,176.34c.17-1.16-.42-1.91-1.75-2.25a133.67,133.67,0,0,1-14-3,2.31,2.31,0,0,0-2.5,1.5v.5q0,1,1.5,1.5,8.51,2,14.5,3a.44.44,0,0,0,.5.5C104.23,178.09,104.81,177.51,105,176.34ZM86.73,329.09l.5-.5a2,2,0,0,0-1-2,63.9,63.9,0,0,1-12.5-7c-1-1-1.83-1-2.5,0a2.17,2.17,0,0,0,.5,3,69.14,69.14,0,0,0,12.5,7.5h1A1.59,1.59,0,0,0,86.73,329.09Zm-7-290a1.47,1.47,0,0,0-.5-1c-.67-1.33-1.5-1.5-2.5-.5a56.77,56.77,0,0,0-12.5,8,1.47,1.47,0,0,0-.5,1q-.49,1,0,1.5a2,2,0,0,0,1.5.5h1a75.92,75.92,0,0,1,12-8A3.21,3.21,0,0,0,79.73,39.09Zm-3.5,130c.67-1,.33-1.83-1-2.5a56.34,56.34,0,0,1-13-6c-.67-.66-1.5-.5-2.5.5v1a2,2,0,0,0,.5,1.5,66.5,66.5,0,0,0,14,6.5.44.44,0,0,0,.5.5Q75.74,170.59,76.23,169.09Zm-13,142.25a1.72,1.72,0,0,0-.5-1.25,102.5,102.5,0,0,1-9.5-11,1.6,1.6,0,0,0-2.5-.5,2.07,2.07,0,0,0-.5,1.5v1a116.77,116.77,0,0,0,10,11.5,1.81,1.81,0,0,0,2.5,0A1.7,1.7,0,0,0,63.23,311.34ZM56.73,57.09a1.47,1.47,0,0,0-.5-1,2.52,2.52,0,0,0-3,0,67,67,0,0,0-8,12.5,1.59,1.59,0,0,0,.5,2.5h1a2,2,0,0,0,1.5-.5,62.77,62.77,0,0,1,8-12A3.83,3.83,0,0,0,56.73,57.09Zm-5,97c1-1,1-1.83,0-2.5a55.46,55.46,0,0,1-7.5-12c-.33-1-1.17-1.33-2.5-1a1.61,1.61,0,0,0-1,1.5c0,.67.17,1,.5,1a44.41,44.41,0,0,0,8,12.5c.33.67.67,1,1,1A2,2,0,0,0,51.73,154.09Zm-6,133.5v-.5a118.44,118.44,0,0,1-6.5-13l6-2.5-14-13-2,19.5,6.5-2.5a118.44,118.44,0,0,0,6.5,13,1.59,1.59,0,0,0,1.5,1h1A2.85,2.85,0,0,0,45.73,287.59Zm-3-204v-.5a2,2,0,0,0-1.5-2,1.4,1.4,0,0,0-2,1v.5a70.86,70.86,0,0,0-3.5,14.5c0,.67.17,1.09.5,1.25a4.08,4.08,0,0,1,1,.75h.5a2,2,0,0,0,2-1.5A52.47,52.47,0,0,1,42.73,83.59Zm-2.5,42.5a118.47,118.47,0,0,1-1.5-14c0-1.33-.5-2-1.5-2a2,2,0,0,0-1.5.5,2.07,2.07,0,0,0-.5,1.5,69,69,0,0,0,1.5,14.5,1.77,1.77,0,0,0,2,2v-.5C39.73,128.09,40.23,127.43,40.23,126.09Z" transform="translate(-2.04 -0.92)" fill="#fbea23"/><path d="M232.73,252.59q2,35.5-22.5,66.5-27.49,35-71.5,43.5a119.43,119.43,0,0,1-21.5,2,100.87,100.87,0,0,1-60.5-19.5q-35.5-25.5-53-77.5a26.64,26.64,0,0,1,1.5-22,29.44,29.44,0,0,1,16.5-14.5A26.08,26.08,0,0,1,33,229.59a32.11,32.11,0,0,1,11,3,25.23,25.23,0,0,1,8.75,6.75,33,33,0,0,1,5.5,9.75q13,38,35.5,51.5,15.49,9,34,5.5a62,62,0,0,0,37.5-22.5q11-13.5,10-28-1-20.49-9.5-30-6-7.5-18-11.25t-36-7.75l-2.5-.5q-18-3-28.5-5.5T54,190.34q-16.24-7.74-26.25-19.75-19.5-23-19.5-61,0-40.5,23.5-69.5,23-28.5,60-36.5,39-8.49,76.5,10,41.51,20.51,63,67.5a28.68,28.68,0,0,1,1,22.25,25.56,25.56,0,0,1-15,15.75,29.76,29.76,0,0,1-11,3,31.84,31.84,0,0,1-11-2,27.34,27.34,0,0,1-9.5-5.75,28.84,28.84,0,0,1-6.5-9.25q-13.5-28.5-36-40-19.5-9.5-39-5.5-17.51,4-27.5,16.5-11,13.5-11,33.5,0,16.5,6,24,4.5,5,15.25,8.75t34.25,7.75h2q13.5,2.5,21.5,4.25T166,160.09a93.34,93.34,0,0,1,24,11,96.22,96.22,0,0,1,19.25,16.5Q231.24,212.59,232.73,252.59Zm-26.5,63q23-29,21.5-62.5-2-38.49-22.5-62-10.5-11.49-27.25-19.5t-27.5-10.5q-10.75-2.49-27.75-5.5l-2.5-.5q-23-4-35-7.75t-17.5-10.25q-7-9-7-27.5,0-22,12-36.5,11-14.49,30-18.5a61,61,0,0,1,42.5,5.5q24.5,12.51,38.5,43a28.79,28.79,0,0,0,5.5,7.5,23.63,23.63,0,0,0,8,4.5,25.51,25.51,0,0,0,9,1.5,21.89,21.89,0,0,0,9-2,23,23,0,0,0,12-13.25,21.91,21.91,0,0,0-.5-17.75q-21-45.49-60.5-65-36-18-73.5-10-35,8-57,35-22,27.51-22,66,0,36,18,57.5,9.5,11.5,25,19t25.75,9.75q10.24,2.25,27.75,5.25l2.5.5q24.49,4,37.25,8t19.75,12.5q10,11,11,33,.5,16.5-11.5,31.5a63.85,63.85,0,0,1-40.5,24.5q-20.5,4-38-6-24-14-37.5-54a23.72,23.72,0,0,0-4.5-8,24.69,24.69,0,0,0-7.25-5.75,18.47,18.47,0,0,0-8.75-2.25h-1.5a27.41,27.41,0,0,0-7.5,1A22,22,0,0,0,10,247.84a23.9,23.9,0,0,0-1.25,18.25q17,50,51,74.5,34.5,25,78,17Q179.73,349.6,206.23,315.59Z" transform="translate(-2.04 -0.92)" fill="#1d1d1b"/><path d="M207.73,85.59q2.51,5-2.5,7.5t-7.5-2.5a5,5,0,0,1,1-6,87.86,87.86,0,0,0-6.5-11,2,2,0,0,1-.5-1.5c0-.33.33-.66,1-1a1.6,1.6,0,0,1,2.5.5q4.5,7,7,11.5Q206.24,82.1,207.73,85.59Z" transform="translate(-2.04 -0.92)" fill="#5a5a5a"/><path d="M205.73,254.09v3.5c0,1.34-.5,2-1.5,2a2,2,0,0,1-1.5-.5,2,2,0,0,1-.5-1.5v-3.5a82.25,82.25,0,0,0-1-11,2,2,0,0,1,1.5-2c1.33-.33,2,.17,2,1.5A76.33,76.33,0,0,1,205.73,254.09Z" transform="translate(-2.04 -0.92)" fill="#5a5a5a"/><path d="M204.23,272.09v.5a53.25,53.25,0,0,1-5.5,14q-.49,1.5-1.5,1.5a1.45,1.45,0,0,0-1-.5,1.59,1.59,0,0,1-.5-2.5,64.11,64.11,0,0,0,4.5-13.5l.5-1.5v1a2,2,0,0,1,2.25-.5C203.81,270.93,204.23,271.43,204.23,272.09Z" transform="translate(-2.04 -0.92)" fill="#5a5a5a"/><path d="M201.73,228.09a1.82,1.82,0,0,1-1.5,2.5h-.5a1.59,1.59,0,0,1-1.5-1,59.16,59.16,0,0,0-6-13v-1c0-1,.33-1.5,1-1.5q1.5-1.5,2.5.5v.5A81.37,81.37,0,0,1,201.73,228.09Z" transform="translate(-2.04 -0.92)" fill="#5a5a5a"/><path d="M191.73,298.59a1.44,1.44,0,0,1-.5,1,66.47,66.47,0,0,1-10,11.5,1.41,1.41,0,0,1-1,.5,2,2,0,0,1-1.5-.5,2,2,0,0,1-.5-1.5,2.07,2.07,0,0,1,.5-1.5,126.66,126.66,0,0,0,9.5-10.5,2,2,0,0,1,3.5,1Z" transform="translate(-2.04 -0.92)" fill="#5a5a5a"/><path d="M186.23,202.59c1,1,1,1.84,0,2.5a1.81,1.81,0,0,1-2.5,0,60,60,0,0,0-11-8.5,1.59,1.59,0,0,1-1-1.5,1.47,1.47,0,0,1,.5-1,2,2,0,0,1,2-1l.5.5A49.34,49.34,0,0,1,186.23,202.59Z" transform="translate(-2.04 -0.92)" fill="#5a5a5a"/><path d="M183.23,62.59a98.5,98.5,0,0,0-10.5-10,1.59,1.59,0,0,1-1-1.5c0-.33.33-.66,1-1,.33-1,1.17-1.16,2.5-.5q5.51,5,10.5,10.5a1.47,1.47,0,0,1,.5,1,2,2,0,0,1-.5,1.5,2,2,0,0,1-1.5.5C183.56,63.09,183.23,62.93,183.23,62.59Z" transform="translate(-2.04 -0.92)" fill="#5a5a5a"/><path d="M170.23,318.09a1.47,1.47,0,0,1,.5,1c0,.34-.33.84-1,1.5a62.74,62.74,0,0,1-13,7.5.44.44,0,0,1-.5.5q-1,0-1.5-1.5a1.44,1.44,0,0,1-.5-1c.33-.66.67-1,1-1a120.42,120.42,0,0,0,12.5-7.5l.5-.5A2,2,0,0,1,170.23,318.09Z" transform="translate(-2.04 -0.92)" fill="#5a5a5a"/><path d="M163.23,43.59a1.59,1.59,0,0,1-1.5,1,1.41,1.41,0,0,1-1-.5,61.26,61.26,0,0,0-12.5-6,1.59,1.59,0,0,1-1-1.5.63.63,0,0,1,0-1c.33-1.33,1-1.66,2-1a102.34,102.34,0,0,1,13.5,6.5,1.61,1.61,0,0,1,1,1.5v.75C163.73,43.51,163.56,43.59,163.23,43.59Z" transform="translate(-2.04 -0.92)" fill="#5a5a5a"/><path d="M162.23,187.59v1.5q-.49,1.5-1.5,1.5h-1a108.8,108.8,0,0,0-13.5-4.5q-1.5-.5-1.5-1.5v-1a1.4,1.4,0,0,1,2-1,127.51,127.51,0,0,1,14.5,4.5A1.45,1.45,0,0,1,162.23,187.59Z" transform="translate(-2.04 -0.92)" fill="#5a5a5a"/><path d="M142.23,330.09a2,2,0,0,1,2,1.5v.5a2,2,0,0,1-.5,1.5h-1a99,99,0,0,1-14.5,3.5,1.77,1.77,0,0,1-2-2,1.47,1.47,0,0,1,.5-1c.33-.66.67-1,1-1A58.87,58.87,0,0,0,142.23,330.09Z" transform="translate(-2.04 -0.92)" fill="#5a5a5a"/><path d="M136.73,31.59v.5c-.67,1-1.33,1.5-2,1.5h-.5a89.17,89.17,0,0,0-14-2,1.77,1.77,0,0,1-2-2c0-1,.67-1.5,2-1.5a80.62,80.62,0,0,1,14.5,2h.5A1.33,1.33,0,0,1,136.73,31.59Z" transform="translate(-2.04 -0.92)" fill="#5a5a5a"/><path d="M132.23,179.09c1.33.34,1.92,1.09,1.75,2.25s-.75,1.75-1.75,1.75a.44.44,0,0,1-.5-.5,55.91,55.91,0,0,1-9.5-1.5,20.64,20.64,0,0,1-2.25-.25c-1.17-.16-1.92-.25-2.25-.25h-.5c-1-.66-1.5-1.33-1.5-2v-.5a2,2,0,0,1,2-1.5l2,.5Q128.73,178.59,132.23,179.09Z" transform="translate(-2.04 -0.92)" fill="#5a5a5a"/><path d="M113.73,333.59a2.13,2.13,0,0,1,1.5,2.25c0,1.17-.5,1.75-1.5,1.75h-.5a100.68,100.68,0,0,1-14.5-2.5q-2-.49-1.5-2.25c.33-1.16,1-1.58,2-1.25A55.9,55.9,0,0,0,113.73,333.59Z" transform="translate(-2.04 -0.92)" fill="#5a5a5a"/><path d="M107.23,30.09c0,1.34-.5,2-1.5,2q-8.51,1.5-14,3h-.5a2,2,0,0,1-2-1,1.83,1.83,0,0,1,1.5-2.5,64.79,64.79,0,0,1,14.5-3C106.56,28.59,107.23,29.09,107.23,30.09Z" transform="translate(-2.04 -0.92)" fill="#5a5a5a"/><path d="M103.23,174.09c1.33.34,1.92,1.09,1.75,2.25s-.75,1.75-1.75,1.75a.44.44,0,0,1-.5-.5q-6-1-14.5-3-1.5-.5-1.5-1.5v-.5a2.31,2.31,0,0,1,2.5-1.5A133.67,133.67,0,0,0,103.23,174.09Z" transform="translate(-2.04 -0.92)" fill="#5a5a5a"/><path d="M86.23,326.59a2,2,0,0,1,1,2l-.5.5a1.59,1.59,0,0,1-1.5,1h-1a69.14,69.14,0,0,1-12.5-7.5,2.17,2.17,0,0,1-.5-3c.67-1,1.5-1,2.5,0A63.9,63.9,0,0,0,86.23,326.59Z" transform="translate(-2.04 -0.92)" fill="#5a5a5a"/><path d="M79.23,38.09a1.47,1.47,0,0,1,.5,1,3.21,3.21,0,0,1-1.5,1.5,75.92,75.92,0,0,0-12,8h-1a2,2,0,0,1-1.5-.5q-.49-.5,0-1.5a1.47,1.47,0,0,1,.5-1,56.77,56.77,0,0,1,12.5-8C77.73,36.59,78.56,36.76,79.23,38.09Z" transform="translate(-2.04 -0.92)" fill="#5a5a5a"/><path d="M75.23,166.59c1.33.67,1.67,1.5,1,2.5q-.49,1.5-1.5,1.5a.44.44,0,0,1-.5-.5,66.5,66.5,0,0,1-14-6.5,2,2,0,0,1-.5-1.5v-1c1-1,1.83-1.16,2.5-.5A56.34,56.34,0,0,0,75.23,166.59Z" transform="translate(-2.04 -0.92)" fill="#5a5a5a"/><path d="M62.73,310.09a1.81,1.81,0,0,1,0,2.5,1.81,1.81,0,0,1-2.5,0,116.77,116.77,0,0,1-10-11.5v-1a2.07,2.07,0,0,1,.5-1.5,1.6,1.6,0,0,1,2.5.5A102.5,102.5,0,0,0,62.73,310.09Z" transform="translate(-2.04 -0.92)" fill="#5a5a5a"/><path d="M56.23,56.09a1.47,1.47,0,0,1,.5,1,3.83,3.83,0,0,1-.5,1.5,62.77,62.77,0,0,0-8,12,2,2,0,0,1-1.5.5h-1a1.59,1.59,0,0,1-.5-2.5,67,67,0,0,1,8-12.5A2.52,2.52,0,0,1,56.23,56.09Z" transform="translate(-2.04 -0.92)" fill="#5a5a5a"/><path d="M51.73,151.59c1,.67,1,1.5,0,2.5a2,2,0,0,1-1.5.5c-.33,0-.67-.33-1-1a44.41,44.41,0,0,1-8-12.5c-.33,0-.5-.33-.5-1a1.61,1.61,0,0,1,1-1.5c1.33-.33,2.17,0,2.5,1A55.46,55.46,0,0,0,51.73,151.59Z" transform="translate(-2.04 -0.92)" fill="#5a5a5a"/><path d="M45.73,287.09v.5a2.85,2.85,0,0,1-1,2h-1a1.59,1.59,0,0,1-1.5-1,118.44,118.44,0,0,1-6.5-13l-6.5,2.5,2-19.5,14,13-6,2.5A118.44,118.44,0,0,0,45.73,287.09Z" transform="translate(-2.04 -0.92)" fill="#5a5a5a"/><path d="M42.73,83.09v.5a52.47,52.47,0,0,0-3,14,2,2,0,0,1-2,1.5h-.5a4.08,4.08,0,0,0-1-.75c-.33-.16-.5-.58-.5-1.25a70.86,70.86,0,0,1,3.5-14.5v-.5a1.4,1.4,0,0,1,2-1A2,2,0,0,1,42.73,83.09Z" transform="translate(-2.04 -0.92)" fill="#5a5a5a"/><path d="M38.73,112.09a118.47,118.47,0,0,0,1.5,14c0,1.34-.5,2-1.5,2v.5a1.77,1.77,0,0,1-2-2,69,69,0,0,1-1.5-14.5,2.07,2.07,0,0,1,.5-1.5,2,2,0,0,1,1.5-.5C38.23,110.09,38.73,110.76,38.73,112.09Z" transform="translate(-2.04 -0.92)" fill="#5a5a5a"/></svg>