<svg id="Layer_1" data-name="Layer 1" xmlns="http://www.w3.org/2000/svg" viewBox="0 0 292 363.5"><path d="M282,14.12a22.44,22.44,0,0,1,6.75,16.5A23.27,23.27,0,0,1,282,47.37a22.28,22.28,0,0,1-16.75,7h-95c-2,0-3,.84-3,2.5v284a21.94,21.94,0,0,1-2,5.5,26.14,26.14,0,0,1-11,11.5,26.4,26.4,0,0,1-5,1.5,24.37,24.37,0,0,1-12,0,34.3,34.3,0,0,1-5-2.5,17.28,17.28,0,0,1-5.5-4.5,19.32,19.32,0,0,1-4.5-7,27.47,27.47,0,0,1-1.5-5,14.77,14.77,0,0,1-.5-3.5v-280a2.21,2.21,0,0,0-2.5-2.5H31.21a22.28,22.28,0,0,1-16.75-7A23.27,23.27,0,0,1,7.71,30.62a22.44,22.44,0,0,1,6.75-16.5A22.74,22.74,0,0,1,31.21,7.37h234A22.74,22.74,0,0,1,282,14.12ZM255.71,39.37l17.5-8.5-17.5-9v7h-10c-1,0-1.5.68-1.5,2s.5,2,1.5,2h10Zm-22.5-8.5a1.77,1.77,0,0,0-2-2h-14.5a1.77,1.77,0,0,0-2,2,1.77,1.77,0,0,0,2,2h14.5A1.77,1.77,0,0,0,233.21,30.87Zm-29.5,0a1.77,1.77,0,0,0-2-2h-15c-1,0-1.5.68-1.5,2s.5,2,1.5,2h15A1.77,1.77,0,0,0,203.71,30.87Zm-29.5,0a1.77,1.77,0,0,0-2-2h-14.5a1.77,1.77,0,0,0-2,2,1.77,1.77,0,0,0,2,2h14.5A1.77,1.77,0,0,0,174.21,30.87Zm-30.5,314,9-17.5h-7v-11.5a2,2,0,0,0-4,0v11.5h-6.5Zm2-294c2.33-.66,3.5-2.32,3.5-5a5.42,5.42,0,0,0-1.5-4,5.09,5.09,0,0,0-3.75-1.5,6,6,0,0,0-4,1.5,5,5,0,0,0-1.75,4,4.71,4.71,0,0,0,4,5v.5h-.5v14.5a2,2,0,0,0,4,0v-15Zm0,250.5v-15c0-1-.67-1.5-2-1.5s-2,.5-2,1.5v15c0,1,.67,1.5,2,1.5S145.71,302.37,145.71,301.37Zm0-29.5v-15c0-1-.67-1.5-2-1.5s-2,.5-2,1.5v15a2,2,0,0,0,4,0Zm0-29.5v-14.5a2,2,0,0,0-4,0v14.5a2,2,0,0,0,4,0Zm0-29.5v-14.5a2,2,0,0,0-4,0v14.5a2,2,0,0,0,4,0Zm0-29v-15c0-1-.67-1.5-2-1.5s-2,.5-2,1.5v15c0,1,.67,1.5,2,1.5S145.71,184.87,145.71,183.87Zm0-29.5v-14.5a2,2,0,0,0-4,0v14.5a2,2,0,0,0,4,0Zm0-29.5v-14.5a2,2,0,0,0-4,0v14.5a2,2,0,1,0,4,0Zm0-29.5V80.87a2,2,0,0,0-4,0v14.5a2,2,0,0,0,4,0Zm-1-64.5a1.77,1.77,0,0,0-2-2h-14.5a1.77,1.77,0,0,0-2,2,1.77,1.77,0,0,0,2,2h14.5A1.77,1.77,0,0,0,144.71,30.87Zm-29.5,0c0-1.32-.5-2-1.5-2h-15a1.77,1.77,0,0,0-2,2,1.77,1.77,0,0,0,2,2h15C114.71,32.87,115.21,32.21,115.21,30.87Zm-29.5,0a1.77,1.77,0,0,0-2-2H69.21a1.77,1.77,0,0,0-2,2,1.77,1.77,0,0,0,2,2h14.5A1.77,1.77,0,0,0,85.71,30.87Zm-29.5,0c0-1.32-.5-2-1.5-2h-13a5.16,5.16,0,0,0-5-3.5,5.16,5.16,0,0,0-5.5,5.5A5.21,5.21,0,0,0,32,33.62a5.72,5.72,0,0,0,2,2,5.24,5.24,0,0,0,2.75.75,5.13,5.13,0,0,0,5-3.5h13C55.71,32.87,56.21,32.21,56.21,30.87Z" transform="translate(-2.21 -1.87)" fill="#fbea23"/><path d="M285.71,10.37a28,28,0,0,1,8.5,20.5,27.11,27.11,0,0,1-8.5,20.25,28.37,28.37,0,0,1-20.5,8.25h-92.5v277.5a18.6,18.6,0,0,1-.5,4.5,27.31,27.31,0,0,1-2,7,28,28,0,0,1-7,9.5,20.8,20.8,0,0,1-6.5,4.5,28,28,0,0,1-6.25,2.25,30,30,0,0,1-6.75.75,32.24,32.24,0,0,1-8-1,24.75,24.75,0,0,1-6-3,26.34,26.34,0,0,1-7-5,30.93,30.93,0,0,1-5.5-9,36.43,36.43,0,0,1-1.5-6.5,16.48,16.48,0,0,1-.5-4V59.37h-84a28.37,28.37,0,0,1-20.5-8.25,27.11,27.11,0,0,1-8.5-20.25,28,28,0,0,1,8.5-20.5,28,28,0,0,1,20.5-8.5h234A28,28,0,0,1,285.71,10.37Zm3,20.25A22.44,22.44,0,0,0,282,14.12a22.74,22.74,0,0,0-16.75-6.75h-234a22.74,22.74,0,0,0-16.75,6.75,22.44,22.44,0,0,0-6.75,16.5,23.27,23.27,0,0,0,6.75,16.75,22.28,22.28,0,0,0,16.75,7h86.5a2.21,2.21,0,0,1,2.5,2.5v280a14.77,14.77,0,0,0,.5,3.5,27.47,27.47,0,0,0,1.5,5,19.32,19.32,0,0,0,4.5,7,17.28,17.28,0,0,0,5.5,4.5,34.3,34.3,0,0,0,5,2.5,24.37,24.37,0,0,0,12,0,26.4,26.4,0,0,0,5-1.5,26.14,26.14,0,0,0,11-11.5,21.94,21.94,0,0,0,2-5.5v-284c0-1.66,1-2.5,3-2.5h95a22.28,22.28,0,0,0,16.75-7A23.27,23.27,0,0,0,288.71,30.62Z" transform="translate(-2.21 -1.87)" fill="#1d1d1b"/><path d="M273.21,30.87l-17.5,8.5v-6.5h-10c-1,0-1.5-.66-1.5-2s.5-2,1.5-2h10v-7Z" transform="translate(-2.21 -1.87)" fill="#5a5a5a"/><path d="M231.21,28.87a1.77,1.77,0,0,1,2,2,1.77,1.77,0,0,1-2,2h-14.5a1.77,1.77,0,0,1-2-2,1.77,1.77,0,0,1,2-2Z" transform="translate(-2.21 -1.87)" fill="#5a5a5a"/><path d="M201.71,28.87a1.77,1.77,0,0,1,2,2,1.77,1.77,0,0,1-2,2h-15c-1,0-1.5-.66-1.5-2s.5-2,1.5-2Z" transform="translate(-2.21 -1.87)" fill="#5a5a5a"/><path d="M172.21,28.87a1.77,1.77,0,0,1,2,2,1.77,1.77,0,0,1-2,2h-14.5a1.77,1.77,0,0,1-2-2,1.77,1.77,0,0,1,2-2Z" transform="translate(-2.21 -1.87)" fill="#5a5a5a"/><path d="M152.71,327.37l-9,17.5-8.5-17.5h6.5v-11.5a2,2,0,0,1,4,0v11.5Z" transform="translate(-2.21 -1.87)" fill="#5a5a5a"/><path d="M149.21,45.87c0,2.68-1.17,4.34-3.5,5v15a2,2,0,0,1-4,0V51.37h.5v-.5a4.71,4.71,0,0,1-4-5,5,5,0,0,1,1.75-4,6,6,0,0,1,4-1.5,5.09,5.09,0,0,1,3.75,1.5A5.42,5.42,0,0,1,149.21,45.87Z" transform="translate(-2.21 -1.87)" fill="#5a5a5a"/><path d="M145.71,286.37v15c0,1-.67,1.5-2,1.5s-2-.5-2-1.5v-15c0-1,.67-1.5,2-1.5S145.71,285.37,145.71,286.37Z" transform="translate(-2.21 -1.87)" fill="#5a5a5a"/><path d="M145.71,256.87v15a2,2,0,0,1-4,0v-15c0-1,.67-1.5,2-1.5S145.71,255.87,145.71,256.87Z" transform="translate(-2.21 -1.87)" fill="#5a5a5a"/><path d="M145.71,227.87v14.5a2,2,0,0,1-4,0v-14.5a2,2,0,0,1,4,0Z" transform="translate(-2.21 -1.87)" fill="#5a5a5a"/><path d="M145.71,198.37v14.5a2,2,0,0,1-4,0v-14.5a2,2,0,0,1,4,0Z" transform="translate(-2.21 -1.87)" fill="#5a5a5a"/><path d="M145.71,168.87v15c0,1-.67,1.5-2,1.5s-2-.5-2-1.5v-15c0-1,.67-1.5,2-1.5S145.71,167.87,145.71,168.87Z" transform="translate(-2.21 -1.87)" fill="#5a5a5a"/><path d="M145.71,139.87v14.5a2,2,0,0,1-4,0v-14.5a2,2,0,0,1,4,0Z" transform="translate(-2.21 -1.87)" fill="#5a5a5a"/><path d="M145.71,110.37v14.5a2,2,0,1,1-4,0v-14.5a2,2,0,0,1,4,0Z" transform="translate(-2.21 -1.87)" fill="#5a5a5a"/><path d="M145.71,80.87v14.5a2,2,0,0,1-4,0V80.87a2,2,0,0,1,4,0Z" transform="translate(-2.21 -1.87)" fill="#5a5a5a"/><path d="M142.71,28.87a1.77,1.77,0,0,1,2,2,1.77,1.77,0,0,1-2,2h-14.5a1.77,1.77,0,0,1-2-2,1.77,1.77,0,0,1,2-2Z" transform="translate(-2.21 -1.87)" fill="#5a5a5a"/><path d="M113.71,28.87c1,0,1.5.68,1.5,2s-.5,2-1.5,2h-15a1.77,1.77,0,0,1-2-2,1.77,1.77,0,0,1,2-2Z" transform="translate(-2.21 -1.87)" fill="#5a5a5a"/><path d="M83.71,28.87a1.77,1.77,0,0,1,2,2,1.77,1.77,0,0,1-2,2H69.21a1.77,1.77,0,0,1-2-2,1.77,1.77,0,0,1,2-2Z" transform="translate(-2.21 -1.87)" fill="#5a5a5a"/><path d="M54.71,28.87c1,0,1.5.68,1.5,2s-.5,2-1.5,2h-13a5.13,5.13,0,0,1-5,3.5A5.24,5.24,0,0,1,34,35.62a5.72,5.72,0,0,1-2-2,5.21,5.21,0,0,1-.75-2.75,5.16,5.16,0,0,1,5.5-5.5,5.16,5.16,0,0,1,5,3.5Z" transform="translate(-2.21 -1.87)" fill="#5a5a5a"/></svg>