<svg id="Layer_1" data-name="Layer 1" xmlns="http://www.w3.org/2000/svg" viewBox="0 0 239.53 363.5"><path d="M201.94,278.3a.44.44,0,0,0,.5-.5,1.33,1.33,0,0,0-1.5-1.5q-1-.49-1.5,0v-.5l-.5,1.5q-2.5,6.51-5.5,13.5-.49.51,0,1.5c0,.34.33.67,1,1h.5a2,2,0,0,0,2-1q2.51-6,5-13.5Zm33.5-175q.5,39,.5,72.5a520.87,520.87,0,0,1-4,65.25q-4,31.76-12.5,53.75-9,22-23,36a86.78,86.78,0,0,1-29,20q-20,8.51-46,8.5t-45.5-8.5a85.58,85.58,0,0,1-29.5-20q-14-14-22.75-36t-12.75-54a524.89,524.89,0,0,1-4-65.25q0-33.24.5-72.25v-5q1-45,1-68.5a22.75,22.75,0,0,1,6.75-16.75A22.44,22.44,0,0,1,31.69,6.3a23.29,23.29,0,0,1,16.75,6.75,22.33,22.33,0,0,1,7,16.75q0,22.5-1,66.5v4q-.49,39-.5,71a571.43,571.43,0,0,0,3,60.25q3,28.26,10,45.75,5.5,13,13,21a38.9,38.9,0,0,0,14,9q11,5,27.5,5t27.5-5a38.9,38.9,0,0,0,14-9q7.5-8,13-21,7-17.49,10.25-45.75a492.74,492.74,0,0,0,3-60.25q-.25-32-.75-71v-1q-.49-46.5-.5-69.5a22.39,22.39,0,0,1,6.5-16.5,23.54,23.54,0,0,1,33.5,0,22.39,22.39,0,0,1,6.5,16.5q0,23.5,1,68.5Zm-15.5-56-8.5-17.5-9,17.5h7V58.8c0,1,.67,1.5,2,1.5a1.77,1.77,0,0,0,2-2,79.77,79.77,0,0,1-.5-11Zm-5.5,129v-15c0-1-.67-1.5-2-1.5s-2,.5-2,1.5v15a1.44,1.44,0,0,0,.5,1,2,2,0,0,0,1.5.5C213.77,177.8,214.44,177.3,214.44,176.3Zm0-29.5v-15a3.3,3.3,0,0,0-1.5-1.5,1.65,1.65,0,0,0-2,.5,1.47,1.47,0,0,0-.5,1v15c0,1,.67,1.5,2,1.5S214.44,147.8,214.44,146.8Zm-.5-29.5v-15a2,2,0,0,0-2-1.5,2.47,2.47,0,0,0-1.25.5,1.7,1.7,0,0,0-.75,1.5q0,2.51.25,7.25t.25,7.25a1.77,1.77,0,0,0,2,2C213.44,119.3,213.94,118.64,213.94,117.3Zm-.5,88q0-7,.5-14.5c0-1.33-.58-2-1.75-2s-1.75.67-1.75,2q-.49,14-.5,14.5v1.5a2,2,0,0,0,1.5.5C212.44,207.3,213.11,206.64,213.44,205.3Zm0-117.5V73.3a1.77,1.77,0,0,0-2-2c-1.33.34-2,1-2,2q0,2.51.25,7.25t.25,6.75v.5c0,1.34.58,2,1.75,2S213.44,89.14,213.44,87.8Zm-2.5,147a137.3,137.3,0,0,0,1.5-14.5c0-1.33-.58-2-1.75-2s-1.75.5-1.75,1.5a33,33,0,0,0-.75,5c-.17,2-.33,3.75-.5,5.25a37.82,37.82,0,0,0-.25,4.25,1.82,1.82,0,0,0,1.5,2.5h.5C210.44,236.8,210.94,236.14,210.94,234.8Zm-2,14.5a1.61,1.61,0,0,0-1.5-1.75,1.64,1.64,0,0,0-2,1.25v.5q-1.5,7.5-3,14a2,2,0,0,0,.5,1.5,1.41,1.41,0,0,0,1,.5h.5c1,0,1.5-.33,1.5-1A146,146,0,0,0,208.94,249.3Zm-19.5,55.5.5-.5a2,2,0,0,0-3.5-1,108.31,108.31,0,0,1-9,11,1.81,1.81,0,0,0,0,2.5,1.41,1.41,0,0,0,1,.5,3.76,3.76,0,0,0,1.5-.5,75.26,75.26,0,0,0,9.5-11.5Zm-20.5,20a2.07,2.07,0,0,0-.5-1.5,1.65,1.65,0,0,0-2-.5h-.5a76.23,76.23,0,0,1-13,6l-1,1v1.5a2,2,0,0,0,2,1.5l.5-.5a71,71,0,0,0,13.5-6.5A.88.88,0,0,0,168.94,324.8Zm-27.5,9.5v-.5a2,2,0,0,0-2-1.5,85.53,85.53,0,0,1-14.5,1.5,1.77,1.77,0,0,0-2,2c0,1,.67,1.5,2,1.5a81.57,81.57,0,0,0,15-1.5Q140.95,335.8,141.44,334.3Zm-29.5.75c0-1.16-.5-1.75-1.5-1.75a118.18,118.18,0,0,1-14-2.5,1.83,1.83,0,0,0-2.5,1.5,4,4,0,0,0,.25,1.25,1.15,1.15,0,0,0,1.25.75q6.5,1.5,14,2.5h1C111.44,336.8,111.94,336.22,111.94,335.05Zm-28-6.25v-1c0-1-.33-1.5-1-1.5a104.68,104.68,0,0,1-12-7.5,1.87,1.87,0,0,0-3,0q-.5,1,0,1.5c0,.67.17,1,.5,1a52.32,52.32,0,0,0,13,8,.44.44,0,0,0,.5.5A2,2,0,0,0,83.94,328.8Zm-23-19a1.47,1.47,0,0,0-.5-1,74.35,74.35,0,0,1-8-12c-.67-1.33-1.5-1.5-2.5-.5a1.59,1.59,0,0,0-.5,2.5,124.43,124.43,0,0,0,8,12,1.59,1.59,0,0,0,1.5,1,3.76,3.76,0,0,0,1.5-.5A2,2,0,0,0,60.94,309.8Zm-14.5-25.5v-.5q-3-9-4.5-14a1.4,1.4,0,0,0-2-1c-1.33.34-1.83,1-1.5,2a136.33,136.33,0,0,0,4.5,14l.5,1.5v-.5a4.35,4.35,0,0,0,2,.5A2,2,0,0,0,46.44,284.3Zm-7.5-28.5h-.5q-2-12.5-2-14.5c-.33-1.33-1-1.83-2-1.5a2,2,0,0,0-1.5.5q-.49,1,0,1.5,1,8,2,14.5a2,2,0,0,0,2,1.5h.5A2,2,0,0,0,38.94,255.8ZM37.44,35.3a4.51,4.51,0,0,0-.5-2,6.54,6.54,0,0,0-3-3,4.48,4.48,0,0,0-2-.5,5.16,5.16,0,0,0-5.5,5.5,5.14,5.14,0,0,0,3.5,5V50.8c0,1.34.58,2,1.75,2s1.75-.66,1.75-2V40.3A4.72,4.72,0,0,0,37.44,35.3Zm-3,191.5q-.49-8-1-14.5c0-1.33-.5-2-1.5-2h-.5a.89.89,0,0,0-1,1,1.47,1.47,0,0,0-.5,1q0,2.5,1,15a2,2,0,0,0,2,1.5A2,2,0,0,0,34.44,226.8Zm-1-155.5v-6c0-1-.58-1.5-1.75-1.5a1.55,1.55,0,0,0-1.75,1.75c0,1.17-.08,3-.25,5.5s-.25,4.25-.25,5.25v4q-.5,1.5,1.5,1.5h.5a1.33,1.33,0,0,0,1.5-1.5A59.91,59.91,0,0,1,33.44,71.3Zm-.5,31.5v-8a1.77,1.77,0,0,0-2-2,1.77,1.77,0,0,0-2,2v14.5a2,2,0,0,0,.5,1.5,2,2,0,0,0,1.5.5c1,0,1.5-.66,1.5-2v-.5a26,26,0,0,1,.25-3A25.64,25.64,0,0,0,32.94,102.8Zm0,95q-.49-11.49-.5-15c0-.66-.42-1.16-1.25-1.5a2,2,0,0,0-2.25.5v16c0,1,.67,1.5,2,1.5S32.94,198.8,32.94,197.8Zm-.5-29.5V153.8a1.77,1.77,0,0,0-2-2,1.77,1.77,0,0,0-2,2v14.5a1.77,1.77,0,0,0,2,2c1,0,1.5-.66,1.5-2Zm0-29.5V124.3c0-1.33-.58-2-1.75-2s-1.75.67-1.75,2a20.29,20.29,0,0,0-.5,5.5v9a1.77,1.77,0,0,0,2,2A1.77,1.77,0,0,0,32.44,138.8Z" transform="translate(-1.68 -0.8)" fill="#fbea23"/><path d="M241.19,176.3a475.46,475.46,0,0,1-4,65.75q-4.24,32.25-12.75,54.75-9.49,22.5-24.5,38a92.43,92.43,0,0,1-30.5,21q-21,8.51-48,8.5t-48-8.5a92.43,92.43,0,0,1-30.5-21q-15-15.49-24-38T5.69,242.05a475.46,475.46,0,0,1-4-65.75q.26-33.5.25-73l.5-5q.5-46,.5-68.5a27.93,27.93,0,0,1,8.5-20.5A28,28,0,0,1,31.94.8,27.15,27.15,0,0,1,52.19,9.3a28.37,28.37,0,0,1,8.25,20.5q0,25-.5,66.5v4q-1,36.51-1,55.25t1,45q1,26.25,4,44a160.9,160.9,0,0,0,8,30.75q5,12,12,19a37.65,37.65,0,0,0,12,8q10.5,4.5,25.75,4.5t25.25-4.5a29.15,29.15,0,0,0,12-8q7-7,12-19,7-17,10-45a522.29,522.29,0,0,0,2.75-59.75q-.25-31.74-.75-70.25v-1q-.49-43.5-.5-69.5a27.93,27.93,0,0,1,8.5-20.5,28.37,28.37,0,0,1,40.5,0,27.93,27.93,0,0,1,8.5,20.5q0,22.5,1,68.5v5Q240.94,142.81,241.19,176.3Zm-5.25-.5q0-33.5-.5-72.5v-5q-1-45-1-68.5a22.39,22.39,0,0,0-6.5-16.5,23.54,23.54,0,0,0-33.5,0,22.39,22.39,0,0,0-6.5,16.5q0,23,.5,69.5v1q.5,39,.75,71a492.74,492.74,0,0,1-3,60.25q-3.25,28.26-10.25,45.75-5.5,13-13,21a38.9,38.9,0,0,1-14,9q-11,5-27.5,5t-27.5-5a38.9,38.9,0,0,1-14-9q-7.5-8-13-21-7-17.49-10-45.75a571.43,571.43,0,0,1-3-60.25q0-32,.5-71v-4q1-44,1-66.5a22.33,22.33,0,0,0-7-16.75A23.29,23.29,0,0,0,31.69,6.3a22.44,22.44,0,0,0-16.5,6.75A22.75,22.75,0,0,0,8.44,29.8q0,23.5-1,68.5v5q-.5,39-.5,72.25a524.89,524.89,0,0,0,4,65.25q4,32,12.75,54t22.75,36a85.58,85.58,0,0,0,29.5,20q19.5,8.51,45.5,8.5t46-8.5a86.78,86.78,0,0,0,29-20q14-14,23-36,8.51-22,12.5-53.75A520.87,520.87,0,0,0,235.94,175.8Z" transform="translate(-1.68 -0.8)" fill="#1d1d1b"/><path d="M211.44,29.8l8.5,17.5h-7a79.77,79.77,0,0,0,.5,11,1.77,1.77,0,0,1-2,2c-1.33,0-2-.5-2-1.5V47.3h-7Z" transform="translate(-1.68 -0.8)" fill="#5a5a5a"/><path d="M214.44,169.05v7.25c0,1-.67,1.5-2,1.5a2,2,0,0,1-1.5-.5,1.44,1.44,0,0,1-.5-1v-15c0-1,.67-1.5,2-1.5s2,.5,2,1.5Z" transform="translate(-1.68 -0.8)" fill="#5a5a5a"/><path d="M214.44,131.8v15c0,1-.67,1.5-2,1.5s-2-.5-2-1.5v-15a1.47,1.47,0,0,1,.5-1,1.65,1.65,0,0,1,2-.5A3.3,3.3,0,0,1,214.44,131.8Z" transform="translate(-1.68 -0.8)" fill="#5a5a5a"/><path d="M213.94,109.8v7.5c0,1.34-.5,2-1.5,2a1.77,1.77,0,0,1-2-2q0-2.49-.25-7.25t-.25-7.25a1.7,1.7,0,0,1,.75-1.5,2.47,2.47,0,0,1,1.25-.5,2,2,0,0,1,2,1.5v7.5Z" transform="translate(-1.68 -0.8)" fill="#5a5a5a"/><path d="M213.94,190.8q-.49,7.5-.5,14.5c-.33,1.34-1,2-2,2a2,2,0,0,1-1.5-.5v-1.5q0-.5.5-14.5c0-1.33.58-2,1.75-2S213.94,189.47,213.94,190.8Z" transform="translate(-1.68 -0.8)" fill="#5a5a5a"/><path d="M213.44,80.55V87.8c0,1.34-.58,2-1.75,2s-1.75-.66-1.75-2v-.5q0-2-.25-6.75t-.25-7.25c0-1,.67-1.66,2-2a1.77,1.77,0,0,1,2,2Z" transform="translate(-1.68 -0.8)" fill="#5a5a5a"/><path d="M212.44,220.3a137.3,137.3,0,0,1-1.5,14.5c0,1.34-.5,2-1.5,2h-.5a1.82,1.82,0,0,1-1.5-2.5,37.82,37.82,0,0,1,.25-4.25c.17-1.5.33-3.25.5-5.25a33,33,0,0,1,.75-5c0-1,.58-1.5,1.75-1.5S212.44,219,212.44,220.3Z" transform="translate(-1.68 -0.8)" fill="#5a5a5a"/><path d="M207.44,247.55a1.61,1.61,0,0,1,1.5,1.75,146,146,0,0,1-3,15c0,.67-.5,1-1.5,1h-.5a1.41,1.41,0,0,1-1-.5,2,2,0,0,1-.5-1.5q1.5-6.49,3-14v-.5A1.64,1.64,0,0,1,207.44,247.55Z" transform="translate(-1.68 -0.8)" fill="#5a5a5a"/><path d="M200.94,276.3a1.33,1.33,0,0,1,1.5,1.5.44.44,0,0,1-.5.5v.5q-2.5,7.5-5,13.5a2,2,0,0,1-2,1h-.5c-.67-.33-1-.66-1-1q-.49-1,0-1.5,3-7,5.5-13.5l.5-1.5v.5Q199.94,275.81,200.94,276.3Z" transform="translate(-1.68 -0.8)" fill="#5a5a5a"/><path d="M189.94,304.3l-.5.5v.5a75.26,75.26,0,0,1-9.5,11.5,3.76,3.76,0,0,1-1.5.5,1.41,1.41,0,0,1-1-.5,1.81,1.81,0,0,1,0-2.5,108.31,108.31,0,0,0,9-11,2,2,0,0,1,3.5,1Z" transform="translate(-1.68 -0.8)" fill="#5a5a5a"/><path d="M168.44,323.3a2.07,2.07,0,0,1,.5,1.5.88.88,0,0,1-1,1,71,71,0,0,1-13.5,6.5l-.5.5a2,2,0,0,1-2-1.5v-1.5l1-1a76.23,76.23,0,0,0,13-6h.5A1.65,1.65,0,0,1,168.44,323.3Z" transform="translate(-1.68 -0.8)" fill="#5a5a5a"/><path d="M141.44,333.8v.5q-.49,1.5-1.5,1.5a81.57,81.57,0,0,1-15,1.5c-1.33,0-2-.5-2-1.5a1.77,1.77,0,0,1,2-2,85.53,85.53,0,0,0,14.5-1.5A2,2,0,0,1,141.44,333.8Z" transform="translate(-1.68 -0.8)" fill="#5a5a5a"/><path d="M110.44,333.3c1,0,1.5.59,1.5,1.75s-.5,1.75-1.5,1.75h-1q-7.5-1-14-2.5a1.15,1.15,0,0,1-1.25-.75,4,4,0,0,1-.25-1.25,1.83,1.83,0,0,1,2.5-1.5A118.18,118.18,0,0,0,110.44,333.3Z" transform="translate(-1.68 -0.8)" fill="#5a5a5a"/><path d="M83.94,327.8v1a2,2,0,0,1-2,1,.44.44,0,0,1-.5-.5,52.32,52.32,0,0,1-13-8c-.33,0-.5-.33-.5-1q-.5-.49,0-1.5a1.87,1.87,0,0,1,3,0,104.68,104.68,0,0,0,12,7.5C83.61,326.3,83.94,326.8,83.94,327.8Z" transform="translate(-1.68 -0.8)" fill="#5a5a5a"/><path d="M49.44,298.8a1.59,1.59,0,0,1,.5-2.5c1-1,1.83-.83,2.5.5a74.35,74.35,0,0,0,8,12,1.47,1.47,0,0,1,.5,1,2,2,0,0,1-.5,1.5,3.76,3.76,0,0,1-1.5.5,1.59,1.59,0,0,1-1.5-1A124.43,124.43,0,0,1,49.44,298.8Z" transform="translate(-1.68 -0.8)" fill="#5a5a5a"/><path d="M46.44,283.8v.5a2,2,0,0,1-1,2,4.35,4.35,0,0,1-2-.5v.5l-.5-1.5a136.33,136.33,0,0,1-4.5-14c-.33-1,.17-1.66,1.5-2a1.4,1.4,0,0,1,2,1Q43.44,274.81,46.44,283.8Z" transform="translate(-1.68 -0.8)" fill="#5a5a5a"/><path d="M38.44,255.8h.5a2,2,0,0,1-1.5,2h-.5a2,2,0,0,1-2-1.5q-1-6.5-2-14.5-.49-.5,0-1.5a2,2,0,0,1,1.5-.5c1-.33,1.67.17,2,1.5Q36.44,243.31,38.44,255.8Z" transform="translate(-1.68 -0.8)" fill="#5a5a5a"/><path d="M36.94,33.3a4.51,4.51,0,0,1,.5,2,4.72,4.72,0,0,1-4,5V50.8c0,1.34-.58,2-1.75,2s-1.75-.66-1.75-2V40.3a5.14,5.14,0,0,1-3.5-5,5.16,5.16,0,0,1,5.5-5.5,4.48,4.48,0,0,1,2,.5,6.54,6.54,0,0,1,3,3Z" transform="translate(-1.68 -0.8)" fill="#5a5a5a"/><path d="M33.44,212.3q.5,6.51,1,14.5a2,2,0,0,1-1.5,2,2,2,0,0,1-2-1.5q-1-12.5-1-15a1.47,1.47,0,0,1,.5-1,.89.89,0,0,1,1-1h.5C32.94,210.3,33.44,211,33.44,212.3Z" transform="translate(-1.68 -0.8)" fill="#5a5a5a"/><path d="M33.44,65.3v6a59.91,59.91,0,0,0-.5,9,1.33,1.33,0,0,1-1.5,1.5h-.5q-2,0-1.5-1.5v-4c0-1,.08-2.75.25-5.25s.25-4.33.25-5.5a1.55,1.55,0,0,1,1.75-1.75C32.86,63.8,33.44,64.3,33.44,65.3Z" transform="translate(-1.68 -0.8)" fill="#5a5a5a"/><path d="M32.94,94.8v8a25.64,25.64,0,0,1-.25,3,26,26,0,0,0-.25,3v.5c0,1.34-.5,2-1.5,2a2,2,0,0,1-1.5-.5,2,2,0,0,1-.5-1.5V94.8a1.77,1.77,0,0,1,2-2A1.77,1.77,0,0,1,32.94,94.8Z" transform="translate(-1.68 -0.8)" fill="#5a5a5a"/><path d="M32.44,182.8q0,3.51.5,15c0,1-.67,1.5-2,1.5s-2-.5-2-1.5v-16a2,2,0,0,1,2.25-.5C32,181.64,32.44,182.14,32.44,182.8Z" transform="translate(-1.68 -0.8)" fill="#5a5a5a"/><path d="M32.44,158.3v10h-.5c0,1.34-.5,2-1.5,2a1.77,1.77,0,0,1-2-2V153.8a1.77,1.77,0,0,1,2-2,1.77,1.77,0,0,1,2,2Z" transform="translate(-1.68 -0.8)" fill="#5a5a5a"/><path d="M32.44,132.8v6a1.77,1.77,0,0,1-2,2,1.77,1.77,0,0,1-2-2v-9a20.29,20.29,0,0,1,.5-5.5c0-1.33.58-2,1.75-2s1.75.67,1.75,2Z" transform="translate(-1.68 -0.8)" fill="#5a5a5a"/></svg>