<svg id="Layer_1" data-name="Layer 1" xmlns="http://www.w3.org/2000/svg" viewBox="0 0 280.24 363.5"><path d="M53.5,88.45a55.25,55.25,0,0,0-2.25-7.25q-1.76-4.76-2.75-6.75c-.34-1.33-1-1.67-2-1-.67,0-1,.17-1,.5a3.76,3.76,0,0,0-.5,1.5A80.65,80.65,0,0,0,48,83a16.4,16.4,0,0,1,1,3,15,15,0,0,0,1,3l.5.5a1.59,1.59,0,0,0,1.5,1h.5a1.61,1.61,0,0,0,1-1.5Zm223.5-58a25.69,25.69,0,0,1-.5,5c-.34,1.33-.67,2.5-1,3.5l-111,305.5a5.56,5.56,0,0,1-1,2,24.94,24.94,0,0,1-8,9.5,23.66,23.66,0,0,1-12.5,4.5l-2-.5a20.09,20.09,0,0,1-10.5-3H130l-.5-.5a1.47,1.47,0,0,0-1-.5l-.5-.5a24.51,24.51,0,0,1-7-8.5l-.5-.5a7.9,7.9,0,0,1-.5-2q-.51-1-55.75-152.75T9,39a22.52,22.52,0,0,1,.5-18A21,21,0,0,1,23,9a17.25,17.25,0,0,1,9-1.5,20.4,20.4,0,0,1,8.75,2,24.32,24.32,0,0,1,7.5,5.5A21.79,21.79,0,0,1,53,23l86.5,236v.5a2.57,2.57,0,0,0,.25,2.5,2.62,2.62,0,0,0,2.25,1h1a2.48,2.48,0,0,0,2.5-3.5V259l86-236a18.22,18.22,0,0,1,1-2.5,20.64,20.64,0,0,1,8-9,21.67,21.67,0,0,1,8-3.5,36.8,36.8,0,0,1,6-.5A19.25,19.25,0,0,1,264,10a27,27,0,0,1,4,2.5,22.85,22.85,0,0,1,4,4,26.11,26.11,0,0,1,3.5,6A20.13,20.13,0,0,1,277,30.45Zm-21.5,20-2-19.5L239,44.45l6.5,2.5v.5Q245,49,243.75,52.2t-2.25,5.25c-.34,1,.16,1.67,1.5,2a.44.44,0,0,0,.5.5,1.33,1.33,0,0,0,1.5-1.5A84.87,84.87,0,0,0,249,48Zm-15.5,22V72a2,2,0,0,0-1-2c-1-.33-1.67.17-2,1.5L231.5,85v1.5a5.7,5.7,0,0,0,1.5,1h.5a1.61,1.61,0,0,0,1.5-1q.5-1.5,1.75-5A50.31,50.31,0,0,1,239,76ZM230,100l.5-.5q0-1-1.5-1.5c-1-.67-1.84-.33-2.5,1q-1.5,4.5-2,5.5,0,1-3,8.5a.62.62,0,0,0,0,1c.33.67.66,1,1,1h1c1,0,1.5-.33,1.5-1,.33-.67.75-1.67,1.25-3s.91-2.5,1.25-3.5.66-2,1-3Zm-10,28v-1a1.61,1.61,0,0,0-1-1.5,2,2,0,0,0-2.5,1c-.34,1-.67,2.17-1,3.5a25.76,25.76,0,0,1-1.25,3.75c-.5,1.17-.92,2.25-1.25,3.25l-1.5,3.5a4,4,0,0,0,.25,1.25q.24.75.75.75l.5.5a2,2,0,0,0,2-1.5,3.19,3.19,0,0,0,.75-1.25c.16-.5.33-1.08.5-1.75a7.34,7.34,0,0,0,.25-1.5Q218.5,132.45,220,128Zm-10,27.5V155a2,2,0,0,0-1-2,1.82,1.82,0,0,0-2.5,1.5,137.92,137.92,0,0,1-5,13.5q-.51.5,0,1.5c.33.33.66.67,1,1h1a1.61,1.61,0,0,0,1.5-1q2-5.5,3.5-10ZM200,183v-.5c0-1-.34-1.5-1-1.5-1.34-.67-2.17-.33-2.5,1-1,2.67-1.84,5-2.5,7a35.71,35.71,0,0,0-2.5,7,.62.62,0,0,0,0,1c.33.67.66,1,1,1h.5a2,2,0,0,0,2-1l.5-2Zm-10,28v-.5a2,2,0,0,0-1-2c-1.34-.33-2.17,0-2.5,1l-2,5Q184,216,183,219l-1.5,4.5q-.51.5,0,1.5c0,.33.33.67,1,1h.5a2,2,0,0,0,2-1.5l1.5-4.5Q188,215.45,190,211Zm-10.5,27.5c.33,0,.5-.33.5-1s-.5-1.17-1.5-1.5-1.67.17-2,1.5q-3,7.5-3.5,9a18.22,18.22,0,0,0-1,2.5,7.9,7.9,0,0,0-.5,2q-.51,1,0,1.5c0,.33.33.67,1,1h.5a2,2,0,0,0,2-1,52.29,52.29,0,0,1,2.25-7.25Q179,240.45,179.5,238.45Zm-10,27.5.5-.5q0-1-1.5-1.5c-1-.67-1.67-.33-2,1l-1.5,3q-1,2.51-4,10.5a5.43,5.43,0,0,0,.25,1.75,1.15,1.15,0,0,0,1.25.75h.5c1,0,1.5-.33,1.5-1a12.56,12.56,0,0,0,1.5-3.5q1-3,1.5-4.5A31.53,31.53,0,0,0,169.5,266Zm-10,28,.5-.5a2,2,0,0,0-1.5-2,2,2,0,0,0-2.5,1q-3.51,10-5,14a2,2,0,0,0,.5,1.5c0,.33.33.67,1,1h.5q1,0,1.5-1.5l1-2a61,61,0,0,1,2-6C158.5,296.78,159.16,295,159.5,294Zm-10,27.5V321c0-1-.34-1.5-1-1.5a1.59,1.59,0,0,0-2.5.5q-1,3.49-2,6-4,0-5,3.5-2,5.51,3.25,7.25t6.75-3.25a4.73,4.73,0,0,0-1.5-6,15.56,15.56,0,0,1,.75-2.5c.16-.33.41-.92.75-1.75A5.83,5.83,0,0,0,149.5,321.45Zm-12,2,2-19.5-6.5,2.5q-1-3-1.5-5A27.91,27.91,0,0,0,129,296c-.34-1.33-1-1.83-2-1.5-.67.33-1,.67-1,1q-.51,1,0,1.5a72.21,72.21,0,0,0,2.5,8,6.3,6.3,0,0,1,1,2.5L123,310Zm-13.5-41h.5l-.5-.5q-.51-1.5-2.25-6.25T119,268c-.34-1.33-1-1.67-2-1a2.65,2.65,0,0,0-1.25,1,3.41,3.41,0,0,0-.25,1.5q1,2.51,2.75,7T121,283a1.33,1.33,0,0,0,1.5,1.5h.5A2,2,0,0,0,124,282.45ZM114,255v-.5l-1.5-4.5a61.61,61.61,0,0,0-3.5-9.5c-.67-1.33-1.34-1.67-2-1a1.59,1.59,0,0,0-1.5,1v1q2.49,6.5,3.5,10l1.5,3.5v.5h.5a1.33,1.33,0,0,0,1.5,1.5.44.44,0,0,0,.5-.5C113.66,256.45,114,256,114,255Zm-11-26a1.4,1.4,0,0,0,1-2v-.5a38.12,38.12,0,0,0-1.5-4.5c-.67-1.67-1.34-3.33-2-5a34.76,34.76,0,0,1-1.5-4.5c-.34-1-1.17-1.33-2.5-1l-1,1V214q.5,1.5,1.75,4.75A50.43,50.43,0,0,1,99,224l1.5,4a2,2,0,0,0,2,1Zm-9-29.5V199a50.31,50.31,0,0,1-2.25-5.5q-1.26-3.49-1.75-5L89,185c-.67-1.33-1.5-1.67-2.5-1l-1,1q-.51.5,0,1.5A47.3,47.3,0,0,0,87,191.2q1,2.75,2,5T90.5,200a2,2,0,0,0,2,1.5H93A2.91,2.91,0,0,0,94,199.45Zm-10-28V171a27.6,27.6,0,0,1-1.75-4.5c-.5-1.67-1.09-3.33-1.75-5s-1.25-3.08-1.75-4.25-1.25-1.42-2.25-.75c-.34,0-.67.25-1,.75s-.34.92,0,1.25q3.5,10.5,5,14a1.59,1.59,0,0,0,1.5,1h1A2,2,0,0,0,84,171.45ZM74,144v-.5a3,3,0,0,1-.75-1.5,10.18,10.18,0,0,0-.75-2,3.76,3.76,0,0,1-.5-1.5c-.34-1-.84-2.42-1.5-4.25a21.11,21.11,0,0,0-2-4.25c-.34-1.33-1-1.83-2-1.5-.67.33-1,.67-1,1q-.51,1,0,1.5.5,2,2,6.5c.33.67.83,1.83,1.5,3.5s1.16,3,1.5,4c0,.67.5,1,1.5,1h.5A2,2,0,0,0,74,144Zm-10-27.5V116l-1.5-3.5Q60,105.45,59,102a2,2,0,0,0-2.5-1c-.67.33-1,.67-1,1q-.51.49,0,1.5c.66,2,1.5,4.17,2.5,6.5a9.63,9.63,0,0,0,1,3.75A9.57,9.57,0,0,1,60,117h.5a1.33,1.33,0,0,0,1.5,1.5l.5-.5A1.33,1.33,0,0,0,64,116.45ZM43.5,61v-.5c-.34-1-1-2.83-2-5.5a61,61,0,0,1-2-6l-1-2.5a1.4,1.4,0,0,0-2-1,5.7,5.7,0,0,0-1.5,1V48q.49,1.5,1.75,4.5T38.5,57q.49,2,1.5,5a2,2,0,0,0,2,1h.5A2,2,0,0,0,43.5,61ZM34.75,41.2Q40,39.45,38,34.2T30.75,31q-5.25,2-3.25,7T34.75,41.2Z" transform="translate(-1.92 -1.95)" fill="#fbea23"/><path d="M282,30a14.17,14.17,0,0,1-.5,6.5c-.34,1.67-.67,3.17-1,4.5l-111,305.5A26.74,26.74,0,0,1,168,349a26.47,26.47,0,0,1-9.5,11.5,26.11,26.11,0,0,1-15.5,5h-2.5A24.48,24.48,0,0,1,128,362l-.5-.5H127a.44.44,0,0,0-.5-.5l-.5-.5a.44.44,0,0,1-.5-.5H125a30.77,30.77,0,0,1-9-10.5V348h-.5a3.93,3.93,0,0,0-.5-1.5V346Q5.5,45.95,4,40.45A25.5,25.5,0,0,1,4.75,18.7,28.26,28.26,0,0,1,21,4,28.16,28.16,0,0,1,32,2.2,30.74,30.74,0,0,1,42.75,4.7,27.51,27.51,0,0,1,52,11.2,28.22,28.22,0,0,1,58,21l84.5,230.5L226.5,21c.33-1,.66-2,1-3a26.54,26.54,0,0,1,10-11,34,34,0,0,1,10-4.5,57.93,57.93,0,0,1,7-.5A34.38,34.38,0,0,1,266,5a33.26,33.26,0,0,1,5,3,35.71,35.71,0,0,1,5,5,32.58,32.58,0,0,1,4,7.5A23.2,23.2,0,0,1,282,30Zm-5.5,5.5a25.69,25.69,0,0,0,.5-5,20.13,20.13,0,0,0-1.5-8,26.11,26.11,0,0,0-3.5-6,22.85,22.85,0,0,0-4-4,27,27,0,0,0-4-2.5,19.25,19.25,0,0,0-9.5-2.5,36.8,36.8,0,0,0-6,.5,21.67,21.67,0,0,0-8,3.5,20.64,20.64,0,0,0-8,9,18.22,18.22,0,0,0-1,2.5l-86,236v.5A2.48,2.48,0,0,1,143,263h-1a2.62,2.62,0,0,1-2.25-1,2.57,2.57,0,0,1-.25-2.5V259L53,23a21.79,21.79,0,0,0-4.75-8,24.32,24.32,0,0,0-7.5-5.5,20.4,20.4,0,0,0-8.75-2A17.25,17.25,0,0,0,23,9,21,21,0,0,0,9.5,21,22.52,22.52,0,0,0,9,39Q9,40,64.25,191.7T120,344.45a7.9,7.9,0,0,0,.5,2l.5.5a24.51,24.51,0,0,0,7,8.5l.5.5a1.47,1.47,0,0,1,1,.5l.5.5h.5a20.09,20.09,0,0,0,10.5,3l2,.5a23.66,23.66,0,0,0,12.5-4.5,24.94,24.94,0,0,0,8-9.5,5.56,5.56,0,0,0,1-2L275.5,39C275.83,38,276.16,36.78,276.5,35.45Z" transform="translate(-1.92 -1.95)" fill="#1d1d1b"/><path d="M253.5,31l2,19.5L249,48a84.87,84.87,0,0,1-4,10.5,1.33,1.33,0,0,1-1.5,1.5.44.44,0,0,1-.5-.5c-1.34-.33-1.84-1-1.5-2q1-2,2.25-5.25t1.75-4.75V47l-6.5-2.5Z" transform="translate(-1.92 -1.95)" fill="#5a5a5a"/><path d="M239,70a2,2,0,0,1,1,2v.5L239,76a50.31,50.31,0,0,0-2.25,5.5q-1.26,3.49-1.75,5a1.61,1.61,0,0,1-1.5,1H233a5.7,5.7,0,0,1-1.5-1V85l5.5-13.5C237.33,70.12,238,69.62,239,70Z" transform="translate(-1.92 -1.95)" fill="#5a5a5a"/><path d="M230.5,99.45l-.5.5-1.5,4.5c-.34,1-.67,2-1,3s-.75,2.17-1.25,3.5-.92,2.33-1.25,3c0,.67-.5,1-1.5,1h-1c-.34,0-.67-.33-1-1a.62.62,0,0,1,0-1q3-7.5,3-8.5.5-1,2-5.5c.66-1.33,1.5-1.67,2.5-1Q230.5,98.45,230.5,99.45Z" transform="translate(-1.92 -1.95)" fill="#5a5a5a"/><path d="M220,127v1q-1.5,4.5-3.5,9a7.34,7.34,0,0,1-.25,1.5c-.17.67-.34,1.25-.5,1.75a3.19,3.19,0,0,1-.75,1.25,2,2,0,0,1-2,1.5l-.5-.5q-.51,0-.75-.75a4,4,0,0,1-.25-1.25L213,137c.33-1,.75-2.08,1.25-3.25A25.76,25.76,0,0,0,215.5,130c.33-1.33.66-2.5,1-3.5a2,2,0,0,1,2.5-1A1.61,1.61,0,0,1,220,127Z" transform="translate(-1.92 -1.95)" fill="#5a5a5a"/><path d="M210,155v.5l-1.5,4q-1.5,4.5-3.5,10a1.61,1.61,0,0,1-1.5,1h-1c-.34-.33-.67-.67-1-1q-.51-1,0-1.5a137.92,137.92,0,0,0,5-13.5A1.82,1.82,0,0,1,209,153,2,2,0,0,1,210,155Z" transform="translate(-1.92 -1.95)" fill="#5a5a5a"/><path d="M200,182.45v.5l-4.5,12-.5,2a2,2,0,0,1-2,1h-.5c-.34,0-.67-.33-1-1a.62.62,0,0,1,0-1,35.71,35.71,0,0,1,2.5-7c.66-2,1.5-4.33,2.5-7,.33-1.33,1.16-1.67,2.5-1C199.66,181,200,181.45,200,182.45Z" transform="translate(-1.92 -1.95)" fill="#5a5a5a"/><path d="M190,210.45v.5q-2,4.5-3.5,9l-1.5,4.5a2,2,0,0,1-2,1.5h-.5c-.67-.33-1-.67-1-1q-.51-1,0-1.5L183,219q1-3,1.5-4.5l2-5c.33-1,1.16-1.33,2.5-1A2,2,0,0,1,190,210.45Z" transform="translate(-1.92 -1.95)" fill="#5a5a5a"/><path d="M180,237.45c0,.67-.17,1-.5,1q-.51,2-2.25,6.75a52.29,52.29,0,0,0-2.25,7.25,2,2,0,0,1-2,1h-.5c-.67-.33-1-.67-1-1q-.51-.49,0-1.5a7.9,7.9,0,0,1,.5-2,18.22,18.22,0,0,1,1-2.5q.5-1.5,3.5-9c.33-1.33,1-1.83,2-1.5S180,236.78,180,237.45Z" transform="translate(-1.92 -1.95)" fill="#5a5a5a"/><path d="M170,265.45l-.5.5a31.53,31.53,0,0,1-2,6q-.51,1.5-1.5,4.5a12.56,12.56,0,0,1-1.5,3.5c0,.67-.5,1-1.5,1h-.5a1.15,1.15,0,0,1-1.25-.75,5.43,5.43,0,0,1-.25-1.75q3-8,4-10.5l1.5-3c.33-1.33,1-1.67,2-1Q170,264.44,170,265.45Z" transform="translate(-1.92 -1.95)" fill="#5a5a5a"/><path d="M160,293.45l-.5.5c-.34,1-1,2.83-2,5.5a61,61,0,0,0-2,6l-1,2Q154,309,153,309h-.5c-.67-.33-1-.67-1-1a2,2,0,0,1-.5-1.5q1.5-4,5-14a2,2,0,0,1,2.5-1A2,2,0,0,1,160,293.45Z" transform="translate(-1.92 -1.95)" fill="#5a5a5a"/><path d="M149.5,321v.5a5.83,5.83,0,0,1-.5,1.75c-.34.83-.59,1.42-.75,1.75a15.56,15.56,0,0,0-.75,2.5,4.73,4.73,0,0,1,1.5,6q-1.5,5-6.75,3.25T139,329.45q1-3.49,5-3.5,1-2.51,2-6a1.59,1.59,0,0,1,2.5-.5C149.16,319.45,149.5,320,149.5,321Z" transform="translate(-1.92 -1.95)" fill="#5a5a5a"/><path d="M139.5,304l-2,19.5L123,310l6.5-2.5a6.3,6.3,0,0,0-1-2.5,72.21,72.21,0,0,1-2.5-8q-.51-.49,0-1.5c0-.33.33-.67,1-1,1-.33,1.66.17,2,1.5a27.91,27.91,0,0,1,2.5,5.5q.5,2,1.5,5Z" transform="translate(-1.92 -1.95)" fill="#5a5a5a"/><path d="M124,282l.5.5H124a2,2,0,0,1-1,2h-.5A1.33,1.33,0,0,1,121,283q-1-2-2.75-6.5t-2.75-7a3.41,3.41,0,0,1,.25-1.5,2.65,2.65,0,0,1,1.25-1c1-.67,1.66-.33,2,1q1,3,2.75,7.75T124,282Z" transform="translate(-1.92 -1.95)" fill="#5a5a5a"/><path d="M114,254.45v.5c0,1-.34,1.5-1,1.5a.44.44,0,0,1-.5.5,1.33,1.33,0,0,1-1.5-1.5h-.5V255l-1.5-3.5q-1-3.49-3.5-10v-1a1.59,1.59,0,0,1,1.5-1c.66-.67,1.33-.33,2,1a61.61,61.61,0,0,1,3.5,9.5Z" transform="translate(-1.92 -1.95)" fill="#5a5a5a"/><path d="M104,227a1.4,1.4,0,0,1-1,2h-.5a2,2,0,0,1-2-1L99,224a50.43,50.43,0,0,0-1.75-5.25Q96,215.45,95.5,214v-1.5l1-1c1.33-.33,2.16,0,2.5,1a34.76,34.76,0,0,0,1.5,4.5c.66,1.67,1.33,3.33,2,5a38.12,38.12,0,0,1,1.5,4.5Z" transform="translate(-1.92 -1.95)" fill="#5a5a5a"/><path d="M94,199v.5a2.91,2.91,0,0,1-1,2h-.5a2,2,0,0,1-2-1.5q-.51-1.5-1.5-3.75t-2-5a47.3,47.3,0,0,1-1.5-4.75q-.51-1,0-1.5l1-1c1-.67,1.83-.33,2.5,1l1,3.5q.5,1.5,1.75,5A50.31,50.31,0,0,0,94,199Z" transform="translate(-1.92 -1.95)" fill="#5a5a5a"/><path d="M84,171v.5a2,2,0,0,1-1,2H82a1.59,1.59,0,0,1-1.5-1q-1.5-3.49-5-14c-.34-.33-.34-.75,0-1.25s.66-.75,1-.75q1.5-1,2.25.75c.5,1.17,1.08,2.58,1.75,4.25s1.25,3.33,1.75,5A27.6,27.6,0,0,0,84,171Z" transform="translate(-1.92 -1.95)" fill="#5a5a5a"/><path d="M74,143.45v.5a2,2,0,0,1-1.5,2H72c-1,0-1.5-.33-1.5-1-.34-1-.84-2.33-1.5-4s-1.17-2.83-1.5-3.5q-1.5-4.5-2-6.5-.51-.49,0-1.5c0-.33.33-.67,1-1,1-.33,1.66.17,2,1.5a21.11,21.11,0,0,1,2,4.25c.66,1.83,1.16,3.25,1.5,4.25a3.76,3.76,0,0,0,.5,1.5,10.18,10.18,0,0,1,.75,2A3,3,0,0,0,74,143.45Z" transform="translate(-1.92 -1.95)" fill="#5a5a5a"/><path d="M64,116v.5a1.33,1.33,0,0,1-1.5,1.5l-.5.5a1.33,1.33,0,0,1-1.5-1.5H60a9.57,9.57,0,0,0-1-3.25A9.63,9.63,0,0,1,58,110c-1-2.33-1.84-4.5-2.5-6.5q-.51-1,0-1.5c0-.33.33-.67,1-1a2,2,0,0,1,2.5,1q1,3.49,3.5,10.5Z" transform="translate(-1.92 -1.95)" fill="#5a5a5a"/><path d="M53.5,88.45V89a1.61,1.61,0,0,1-1,1.5H52a1.59,1.59,0,0,1-1.5-1L50,89a15,15,0,0,1-1-3,16.4,16.4,0,0,0-1-3,80.65,80.65,0,0,1-3-7.5,3.76,3.76,0,0,1,.5-1.5c0-.33.33-.5,1-.5,1-.67,1.66-.33,2,1q1,2,2.75,6.75A55.25,55.25,0,0,1,53.5,88.45Z" transform="translate(-1.92 -1.95)" fill="#5a5a5a"/><path d="M43.5,60.45V61a2,2,0,0,1-1,2H42a2,2,0,0,1-2-1q-1-3-1.5-5-.51-1.5-1.75-4.5T35,48v-1.5a5.7,5.7,0,0,1,1.5-1,1.4,1.4,0,0,1,2,1l1,2.5a61,61,0,0,0,2,6C42.5,57.62,43.16,59.45,43.5,60.45Z" transform="translate(-1.92 -1.95)" fill="#5a5a5a"/><path d="M38,34.2q2,5.25-3.25,7T27.5,38q-2-5,3.25-7T38,34.2Z" transform="translate(-1.92 -1.95)" fill="#5a5a5a"/></svg>