<svg id="Layer_1" data-name="Layer 1" xmlns="http://www.w3.org/2000/svg" viewBox="0 0 413.07 363.61"><path d="M408.5,25.89a21.78,21.78,0,0,1-1,9.25L309,339.64l-1,2.5h-.5a4.48,4.48,0,0,1-.5,2l-.5.5a1.41,1.41,0,0,0-.5,1l-.5.5-1,1,2,2-1.5-1-1-.5v.5l-.5.5-.5.5-.5.5v1l-.5-.5-2.5,2,1.5,2-2-1.5a2.85,2.85,0,0,0-2,1,3.93,3.93,0,0,1-1.5.5,1.44,1.44,0,0,0-1,.5H294l-4,1h-1.5a1.44,1.44,0,0,0-1,.5l1,2.5-1.5-2.5h-.5l-1.5-.5h-2l-1,2.5v-2.5l-1,2.5h0l.54-3h-1l-.5,2.5-.5-3H279a1.44,1.44,0,0,1-1-.5h-.5l-1.5-.5-.5-.5a3.93,3.93,0,0,0-1.5-.5l-.5-.5-.5-.5-1-.5c-.34-.67-.67-1-1-1a.44.44,0,0,1-.5-.5l-1-1-2,2,1.5-2.5-2,2,1.5-2.5-.5-.5-.5-1-.5-1h-.5l-.5-1.5-.5-.5v-.5l-.5-.5a3.93,3.93,0,0,0-.5-1.5l-.5-1v-1.5l-54-205c0-1.33-.75-2-2.25-2a2.51,2.51,0,0,0-2.75,2q-50.5,193-54,206.5v1l-.5.5v1.5l-1,2-1.5,2a1.45,1.45,0,0,1-.5,1,.44.44,0,0,1-.5.5,6,6,0,0,1-1,1.5l-.5.5,1.5,2-2-1.5-1.5,1.5a6.06,6.06,0,0,1-1.5,1l1.5,2-2-1.5,1.5,2-2.5-1.5-2,1,1,2.5-1.5-2-3,1h-2l-1,.5h-2.5v3l-1-3h-1l-.5,3-.5-3H125c-.67,0-1.09-.08-1.25-.25a1,1,0,0,0-.75-.25l-1,2.5.5-2.5-1.5,2.5.5-3-2.5-.5a6.06,6.06,0,0,0-1.5-1l-1,2.5v-3a5.7,5.7,0,0,1-1.5-1,1.47,1.47,0,0,0-1-.5l-1.5-1.5-.5-.5-2-2a6,6,0,0,0-1-1.5l-.5-1-.5-.5v-.5l-.5-.5a1.45,1.45,0,0,0-.5-1v-1a.44.44,0,0,1-.5-.5L7,35.14a20.77,20.77,0,0,1-1-9,27.31,27.31,0,0,1,2.5-8.75,20.19,20.19,0,0,1,5.75-7.25A28.33,28.33,0,0,1,22,5.64a23.82,23.82,0,0,1,9.5-1,27.64,27.64,0,0,1,8.75,2.5,21.5,21.5,0,0,1,7.25,5.5,23.63,23.63,0,0,1,4.5,8l71,221a2.43,2.43,0,0,0,3,1.5,2.37,2.37,0,0,0,2.5-2q55.5-213,56-216.5a.44.44,0,0,0,.5-.5l1.5-4v-.5l-2-1.5,2.5.5.5-1c.33-.33.66-.67,1-1l.5-.5v-.5l1.5-1.5.5-1h.5l2.5-2a15.26,15.26,0,0,1,2-1.5l1-.5a26.32,26.32,0,0,1,3.5-1.5l1-.5h1l-.5-2.5,1.5,2.5,1-.5-.5-2.5,1,2.5V4.14l1,2.5h3.5V4.14l.5,2.5h1.5a1.44,1.44,0,0,0,1,.5h.5l.5-2.5.5,2.5.5-2.5v3a2.07,2.07,0,0,1,1.5.5,1.47,1.47,0,0,1,1,.5l1,.5a3.93,3.93,0,0,1,1.5.5,1.44,1.44,0,0,0,1,.5c.33.33.66.67,1,1l1,.5a1.45,1.45,0,0,1,.5,1l1,.5,1,1,.5.5a1.45,1.45,0,0,1,.5,1l.5.5.5.5a.44.44,0,0,0,.5.5,1.41,1.41,0,0,0,.5,1,.44.44,0,0,0,.5.5l2-1-2,2,1,2a2,2,0,0,1,.5,1.5l56.5,217a3.16,3.16,0,0,0,2.5,2,2.37,2.37,0,0,0,2.5-2l71-219.5a21.66,21.66,0,0,1,4.75-8,29.69,29.69,0,0,1,7.25-5.75A17.05,17.05,0,0,1,383,4.64a23.84,23.84,0,0,1,9.5,1,28.48,28.48,0,0,1,7.75,4.5,20.94,20.94,0,0,1,5.75,7A25.54,25.54,0,0,1,408.5,25.89ZM388,48.14l-3-19.5-14,14,6.5,2.5q-.51,1.5-1.75,6t-2.25,7v.5a1.33,1.33,0,0,0,1.5,1.5.44.44,0,0,0,.5.5q1,0,1.5-1.5,1-3.49,3.5-10a23.73,23.73,0,0,1,.5-3Zm-15.5,25q.5-.49,0-1.5a1.47,1.47,0,0,0-1-.5c-1.34-.67-2.17-.33-2.5,1q-2,6-3,9a34.48,34.48,0,0,1-1.5,4.5v1a1.33,1.33,0,0,0,1.5,1.5l.5.5q1,0,1.5-1.5l.5-1a16.89,16.89,0,0,1,1-3.25c.66-1.83,1.16-3.25,1.5-4.25a10.44,10.44,0,0,1,.5-2.75A15.64,15.64,0,0,1,372.5,73.14Zm-9,28a2,2,0,0,0-1-2.5,1.82,1.82,0,0,0-2.5,1.5q-3,9.49-4.5,14l-.5.5c0,.67.5,1.33,1.5,2h.5a2,2,0,0,0,2-1.5q.5-1.5,1.5-4.5a34.32,34.32,0,0,1,1.5-4Zm-9,28c.33-1.33,0-2-1-2-1.34-.67-2.17-.33-2.5,1a26.35,26.35,0,0,0-1.25,3.25c-.5,1.5-.92,2.75-1.25,3.75-.34,1.33-1,3.5-2,6.5v.5l-.5.5a1.33,1.33,0,0,0,1.5,1.5l.5.5c.66,0,1.33-.5,2-1.5v-.5a40.66,40.66,0,0,0,2.25-6.5A69.54,69.54,0,0,1,354.5,129.14Zm-9,28c.33-1-.09-1.75-1.25-2.25s-1.92-.08-2.25,1.25q-2.5,7.5-4,11.5l-.5,2v1H337c0,.67.5,1.33,1.5,2h.5a1.33,1.33,0,0,0,1.5-1.5,55.48,55.48,0,0,0,2.5-6.5c1-3,1.66-5.17,2-6.5Zm-9.25,28.25a1.69,1.69,0,0,0-1-2.5c-1.17-.5-1.92-.08-2.25,1.25l-1.5,4.5a37.22,37.22,0,0,0-2,5q-1,3-1.5,4.5v.5a1.33,1.33,0,0,0,1.5,1.5.44.44,0,0,0,.5.5,1.33,1.33,0,0,0,1.5-1.5c.66-1.67,1.5-4.08,2.5-7.25S335.75,186.56,336.25,185.39ZM327,213.14q1-1.5-.75-2.25c-1.17-.5-2.09-.08-2.75,1.25a11.87,11.87,0,0,1-.75,3.25c-.5,1.5-.92,2.67-1.25,3.5s-.75,2-1.25,3.5a11.87,11.87,0,0,0-.75,3.25l-.5.5v.5c0,.67.5,1.33,1.5,2h.5a1.61,1.61,0,0,0,1.5-1v-.5q.5-1.5,2-5.75c1-2.83,1.66-4.92,2-6.25Zm-9,28a.63.63,0,0,0,0-1c-.34-.67-.67-1-1-1-1-.67-1.84-.33-2.5,1a9.54,9.54,0,0,1-.75,3,10.71,10.71,0,0,0-.75,2.5,61.31,61.31,0,0,0-2.5,8,.44.44,0,0,0-.5.5v.5a2,2,0,0,0,1,2h.5a2,2,0,0,0,2-1.5l1-3q.5-1.5,1.75-5.25T318,241.14Zm-9,28v-1.5a1.47,1.47,0,0,0-1-.5c-1.34-.67-2.17-.33-2.5,1q-1,3-2.5,7.75t-2,6.25v.5a2,2,0,0,0,1.5,2h.5q1,0,1.5-1.5l2-6Q308,272.64,309,269.14Zm-9,28c.33-1.33,0-2-1-2-1.34-.67-2.17-.33-2.5,1a55.25,55.25,0,0,1-2.25,7.25q-1.75,4.75-2.25,6.75v.5a2,2,0,0,0,1,2h1q1,0,1.5-1.5l1-2.5Q298.5,302.15,300,297.14Zm-6.75,32.25q1.74-5.25-3.5-6.75t-7,3.75q-1.75,5.25,3.5,6.75T293.25,329.39Zm-11.75-8.25,4-19.5-6.5,2a1.45,1.45,0,0,0-.5-1,19.7,19.7,0,0,0-1-4.25q-1-3.25-1.5-5.25c0-1-.67-1.33-2-1q-1.5.5-1.5,1.5v.5q.5,1.5,2,6.5a8,8,0,0,0,1,3.5l-7,2Zm-10-39.5a2,2,0,0,0,1-2.5q-3-11.5-3.5-14a1.83,1.83,0,0,0-2.5-1.5q-1.5.5-1.5,1.5a.44.44,0,0,0,.5.5,16.54,16.54,0,0,0,.5,3.25,36,36,0,0,0,1,3.75,14.56,14.56,0,0,0,.75,3.5c.5,1.67.91,3,1.25,4,0,1,.66,1.5,2,1.5Zm-8-28.5c1.33-.67,1.83-1.5,1.5-2.5l-1-4.5q-1-3-2.5-9.5a1.83,1.83,0,0,0-2.5-1.5q-1.5.5-1.5,1.5v.5l.5.5q1.5,6,2.5,10l1,4A2,2,0,0,0,263.5,253.14Zm-6-29.5v-1.5a21.31,21.31,0,0,1-1-5.5c-.34-1-.67-2-1-3s-.67-2-1-3a9.25,9.25,0,0,1-.5-3c-.34-1-1.17-1.33-2.5-1a1.59,1.59,0,0,0-1,1.5v1q1,3,3.5,14a2,2,0,0,0,2,1.5l.5-.5A1.47,1.47,0,0,0,257.5,223.64Zm-7-30c-.34-1-1-3.17-2-6.5a8.5,8.5,0,0,1-.75-2.5c-.17-1-.34-1.92-.5-2.75a24.65,24.65,0,0,0-.75-2.75,1.4,1.4,0,0,0-2-1,1.33,1.33,0,0,0-1.5,1.5v.5l1.5,6a9.15,9.15,0,0,1,.75,2.5,18.28,18.28,0,0,0,.75,3,24.65,24.65,0,0,1,.75,2.75c.16.83.75,1.25,1.75,1.25h.5C250,195.64,250.5,195,250.5,193.64Zm-9-26.5c1,0,1.5-.67,1.5-2q-1-2.5-3.5-12.5l-.5-2a1.4,1.4,0,0,0-2-1q-1.5.5-1.5,1.5v.5q1,3,3.5,14.5a2,2,0,0,0,2,1Zm-7.5-28a2.94,2.94,0,0,0,1.5-2.5q-1-3-4-14c0-1.33-.67-1.83-2-1.5q-1.5.49-1.5,1.5v.5q1,4,4,14v.5a1.33,1.33,0,0,0,1.5,1.5Zm-6-31c-.34-1-.75-2.58-1.25-4.75s-.92-3.75-1.25-4.75l-1.5-4.5c0-1.33-.67-1.83-2-1.5q-1.5.49-1.5,1.5v.5c.33,1.33.66,2.58,1,3.75s.66,2.33,1,3.5.66,2.42,1,3.75.66,2.5,1,3.5a1.33,1.33,0,0,0,1.5,1.5h.5A2.94,2.94,0,0,0,228,108.14Zm-8.5-26a2,2,0,0,0,1-2.5c-.34-1.67-.92-4.08-1.75-7.25S217.33,67,217,65.64a1.83,1.83,0,0,0-2.5-1.5q-1,0-1.5,1.5c0,.33.08.5.25.5s.25.17.25.5q2,7.5,3.5,14a1.33,1.33,0,0,0,1.5,1.5Zm-7.5-29c1,0,1.33-.67,1-2q-.51-2.51-1.75-6.75A25.13,25.13,0,0,1,210,38.64c2-1.33,2.66-3.33,2-6q-1.5-5-6.75-3.75t-3.75,6.75c.66,2.33,2.33,3.67,5,4l1.5,5.5a63.89,63.89,0,0,0,1.5,7,2,2,0,0,0,2,1Zm-4,12-4.5-19-13,14.5,7,2q-2.5,9-3.5,12v.5a2,2,0,0,0,1.5,2h.5a2,2,0,0,0,2-1.5l3-12Zm-14,25q.5-1,0-1.5c-.34-.33-.67-.67-1-1a2.3,2.3,0,0,0-2.5,1.5l-3.5,13v2q0,1,1.5,1.5a2,2,0,0,0,2-1.5q.5-2,3-11.5Zm-7.5,28.5c.66-1.33.33-2.17-1-2.5a1.82,1.82,0,0,0-2.5,1.5l-.5,2-3,12v1q0,1,1.5,1.5a2,2,0,0,0,2-1.5q1.5-5,3.5-13.5Zm-7.5,28.5c.66-1.33.33-2.17-1-2.5s-2,.17-2,1.5l-1,2a12.34,12.34,0,0,1-.75,3.75,44.42,44.42,0,0,0-1.25,4.5c-.34,1.5-.67,2.75-1,3.75v.5a2,2,0,0,0,1,2h1a1.33,1.33,0,0,0,1.5-1.5,16,16,0,0,0,1-3.25c.33-1.5.58-2.58.75-3.25s.41-1.5.75-2.5a24.65,24.65,0,0,0,.75-2.75A12.07,12.07,0,0,0,179,147.14Zm-7,28.5a2,2,0,0,0-.5-1.5c0-.33-.34-.67-1-1-1.34-.33-2,.17-2,1.5-.34,1-.75,2.5-1.25,4.5s-.92,3.5-1.25,4.5a4.7,4.7,0,0,0-.75,2.5,4.89,4.89,0,0,1-.75,2.5v.5a2,2,0,0,0,1.5,2h.5a1.33,1.33,0,0,0,1.5-1.5Q169,187.14,172,175.64Zm-7.5,28.5a1.83,1.83,0,0,0-1.5-2.5c-1.34,0-2,.5-2,1.5-.34,1-.75,2.42-1.25,4.25s-1,3.58-1.5,5.25-.92,3.17-1.25,4.5v.5a2,2,0,0,0,1.5,2h.5a1.33,1.33,0,0,0,1.5-1.5l1.5-4.5a16.11,16.11,0,0,0,1-4.5Q164,205.65,164.5,204.14Zm-7.5,28.5a2,2,0,0,0-.5-1.5.89.89,0,0,0-1-1c-1-.33-1.67.17-2,1.5q-1.5,6.5-3.5,14l-.5.5a2,2,0,0,0,1.5,2h.5a2,2,0,0,0,2-1.5Q154,243.64,157,232.64Zm-7.5,28.5c.33-1.33-.09-2.08-1.25-2.25a1.81,1.81,0,0,0-2.25,1.25,34.48,34.48,0,0,1-1.5,5.5c-.67,2.33-1.5,5.17-2.5,8.5v1q0,1,1.5,1.5h.5a2,2,0,0,0,2-1.5Q148.49,265.14,149.5,261.14Zm-7.5,28.5c.33-1.33-.09-2.17-1.25-2.5s-1.92.17-2.25,1.5q-2,8.5-3.5,14v.5a2,2,0,0,0,1,2h.5a2,2,0,0,0,2-1.5,10.86,10.86,0,0,1,.5-2.25,10.87,10.87,0,0,0,.5-2.75q.5-1.5,1.5-4.75A19.7,19.7,0,0,0,142,289.64Zm-6.5,39.5a5.39,5.39,0,0,0-2-6,4.35,4.35,0,0,1,.5-2l.5-1.5a2,2,0,0,1,.5-1.5,2.31,2.31,0,0,0-1.5-2.5,1.82,1.82,0,0,0-2.5,1.5,7.34,7.34,0,0,1-.25,1.5c-.17.67-.34,1.33-.5,2a8.06,8.06,0,0,0-.25,2,4.72,4.72,0,0,0-5,4q-1.5,5,3.75,6.5T135.5,329.14Zm-11.5-8.5,3-19.5-7,2c-1-3.33-1.67-5.67-2-7h-.5v-.5a1.4,1.4,0,0,0-2-1,2,2,0,0,0-1.5,2l.5.5q1,3,2,7l-6.5,2.5Zm-12-36.5c1.33-.33,1.66-1.17,1-2.5-.34-1-.75-2.33-1.25-4s-1-3.42-1.5-5.25-.92-3.25-1.25-4.25l-.5-.5a1.4,1.4,0,0,0-2-1,2,2,0,0,0-1.5,2v.5a3.2,3.2,0,0,1,.75,1.5,15.56,15.56,0,0,0,.75,2.25,5.83,5.83,0,0,1,.5,1.75q1.5,4.5,3,8.5c0,.67.5,1,1.5,1Zm-9-28a2,2,0,0,0,1-2.5c-.34-1.33-1-3.58-2-6.75s-1.84-5.58-2.5-7.25c0-1-.67-1.33-2-1q-1.5.5-1.5,1.5v.5q1,3,2.75,8.25a34.86,34.86,0,0,1,1.75,6.25,2,2,0,0,0,2,1Zm-9-28c1.33-.33,1.66-1.17,1-2.5-.67-2.33-1.17-4.17-1.5-5.5a18.22,18.22,0,0,1-1-2.5c-.34-1-.67-2-1-3s-.67-2-1-3c-.34-1.33-1.17-1.67-2.5-1a1.59,1.59,0,0,0-1,1.5v1q1.5,5,4.5,13v.5a2,2,0,0,0,2,1.5Zm-9-28a2,2,0,0,0,1-2.5c-.34-1-1-3.17-2-6.5s-1.84-5.83-2.5-7.5c-.34-1-1.17-1.33-2.5-1a1.59,1.59,0,0,0-1,1.5v.5a87,87,0,0,0,3,8.5,34.21,34.21,0,0,0,1.5,6,1.59,1.59,0,0,0,1.5,1Zm-8-29q.5-.49,0-1.5l-2-5.5q-1-3-2.5-8.5c-.34-1.33-1.17-1.67-2.5-1-.67,0-1,.5-1,1.5v.5a32.11,32.11,0,0,0,2,5.5,51.33,51.33,0,0,0,2.5,8.5q.5,1.5,1.5,1.5h1Zm-10.5-27a1.83,1.83,0,0,0,1.5-2.5c-.34-1-.84-2.42-1.5-4.25a13.58,13.58,0,0,1-1-3.75,60.81,60.81,0,0,1-2-6,2,2,0,0,0-2.5-1q-1.5.49-1.5,1.5a.44.44,0,0,0,.5.5v.5a9.34,9.34,0,0,0,1,3.25q1,2.25,1.5,3.75,1,4,2,7a1.59,1.59,0,0,0,1.5,1Zm-9-28a1.83,1.83,0,0,0,1.5-2.5,15.64,15.64,0,0,1-1-2.75c-.34-1.17-.67-2.17-1-3s-.67-1.75-1-2.75a21.2,21.2,0,0,0-1-2.5l-.5-3c-.67-1.33-1.5-1.67-2.5-1a1.33,1.33,0,0,0-1.5,1.5.44.44,0,0,0,.5.5q3.49,11.51,4.5,14a1.33,1.33,0,0,0,1.5,1.5Zm-9-28c1.33-.67,1.83-1.5,1.5-2.5q-1.5-4-2-5.5a40.57,40.57,0,0,1-2.5-8l-.5-.5a1.4,1.4,0,0,0-2-1,1.33,1.33,0,0,0-1.5,1.5.44.44,0,0,0,.5.5,74.53,74.53,0,0,0,2,7.5,59.31,59.31,0,0,1,2.5,7c0,.67.5,1,1.5,1Zm-9-28c1-.33,1.33-1.17,1-2.5-.34-1-.67-2.08-1-3.25s-.67-2.25-1-3.25a8,8,0,0,1-.5-2.5,15.64,15.64,0,0,1-1-2.75,5.82,5.82,0,0,0-1-2.25c-.34-1.33-1-1.67-2-1a1.33,1.33,0,0,0-1.5,1.5v.5q2.49,7,3.5,10l1,4a2,2,0,0,0,2,1.5ZM32.75,39.39q5.25-1.76,3.5-7t-7-3.5q-5.25,1.75-3.5,7T32.75,39.39Z" transform="translate(-0.71 0.97)" fill="#fbea23"/><path d="M413.75,25.39a36.7,36.7,0,0,1-1.25,11.25l-98.5,304a4.35,4.35,0,0,0-.5,2,1.45,1.45,0,0,1-.5,1l-.5,1-1,2-2.5-.5,2,1a1.45,1.45,0,0,1-.5,1l-.75,1.5a4.08,4.08,0,0,1-.75,1l-1.5,1.5-.5.5-1.5,1.5-.5.5-2.5,1.5-1,1-2,1a16.79,16.79,0,0,0-2,.75,3.9,3.9,0,0,0-1,.75l-2,.5h-1a1.47,1.47,0,0,1-1,.5H291c0,.33-.34.5-1,.5h-5.5l-.5-2.5-.5,2.5h-1l-1-.5-.5-2.5,1-2.5v2.5l1-2.5h2l1.5.5h.5l1.5,2.5-1-2.5a1.44,1.44,0,0,1,1-.5H290l4-1h.5a1.44,1.44,0,0,1,1-.5,3.93,3.93,0,0,0,1.5-.5,2.85,2.85,0,0,1,2-1l2,1.5-1.5-2,2.5-2,.5.5v-1l.5-.5.5-.5.5-.5v-.5l1,.5,1.5,1-2-2,1-1,.5-.5a1.41,1.41,0,0,1,.5-1l.5-.5a4.48,4.48,0,0,0,.5-2h.5l1-2.5,98.5-304.5a21.78,21.78,0,0,0,1-9.25,25.54,25.54,0,0,0-2.5-8.75,20.94,20.94,0,0,0-5.75-7,28.48,28.48,0,0,0-7.75-4.5,23.84,23.84,0,0,0-9.5-1,17.05,17.05,0,0,0-8.5,2.25,29.69,29.69,0,0,0-7.25,5.75,21.66,21.66,0,0,0-4.75,8l-71,219.5a2.37,2.37,0,0,1-2.5,2,3.16,3.16,0,0,1-2.5-2L230,23.14a2,2,0,0,0-.5-1.5l-1-2,2-2-2,1a.44.44,0,0,1-.5-.5,1.41,1.41,0,0,1-.5-1,.44.44,0,0,1-.5-.5l-.5-.5-.5-.5a1.45,1.45,0,0,0-.5-1l-.5-.5-1-1-1-.5a1.45,1.45,0,0,0-.5-1l-1-.5c-.34-.33-.67-.67-1-1a1.44,1.44,0,0,1-1-.5,3.93,3.93,0,0,0-1.5-.5l-1-.5a1.47,1.47,0,0,0-1-.5,2.07,2.07,0,0,0-1.5-.5v-3l-.5,2.5-.5-2.5-.5,2.5h-.5a1.44,1.44,0,0,1-1-.5H210l-.5-2.5v2.5H206l-1-2.5v2.5l-1-2.5.5,2.5-1,.5L202,4.64l-1-2.5.5-.5h3l.5-.5h4.5a2.07,2.07,0,0,1,1.5.5h2.5v.5H215a.44.44,0,0,1,.5.5,15.92,15.92,0,0,1,2.5.75,2.15,2.15,0,0,0,1,.25l1,.5a5.49,5.49,0,0,1,2,1,6.06,6.06,0,0,1,1.5,1l1,.5c.33.33.66.67,1,1s.66.67,1,1l2,1.5-1.5,2,2-1.5-1.5,2.5,2-2a6,6,0,0,1,1,1.5l.5.5a1.41,1.41,0,0,0,.5,1l.5.5.5.5v.5l.5.5a1.41,1.41,0,0,0,.5,1,3.93,3.93,0,0,1,.5,1.5l.5,1a4.48,4.48,0,0,1,.5,2,1.45,1.45,0,0,1,.5,1l54,207,68-210.5a33.15,33.15,0,0,1,5.75-10,27.06,27.06,0,0,1,8.75-7,29.35,29.35,0,0,1,10.75-3A28.59,28.59,0,0,1,394,.39a27,27,0,0,1,9.75,5.5,32.65,32.65,0,0,1,7,8.75A24.28,24.28,0,0,1,413.75,25.39ZM303,350.64l1.5,1-1-1Z" transform="translate(-0.71 0.97)" fill="#1d1d1b"/><path d="M385,28.64l3,19.5-7-2a23.73,23.73,0,0,0-.5,3q-2.5,6.49-3.5,10-.51,1.5-1.5,1.5a.44.44,0,0,1-.5-.5,1.33,1.33,0,0,1-1.5-1.5v-.5q1-2.51,2.25-7t1.75-6l-6.5-2.5Z" transform="translate(-0.71 0.97)" fill="#5a5a5a"/><path d="M372.5,71.64q.5,1,0,1.5a15.64,15.64,0,0,0-1,2.75,10.44,10.44,0,0,0-.5,2.75c-.34,1-.84,2.42-1.5,4.25a16.89,16.89,0,0,0-1,3.25l-.5,1q-.51,1.5-1.5,1.5l-.5-.5a1.33,1.33,0,0,1-1.5-1.5v-1a34.48,34.48,0,0,0,1.5-4.5q1-3,3-9c.33-1.33,1.16-1.67,2.5-1A1.47,1.47,0,0,1,372.5,71.64Z" transform="translate(-0.71 0.97)" fill="#5a5a5a"/><path d="M362.5,98.64a2,2,0,0,1,1,2.5l-1.5,5.5a34.32,34.32,0,0,0-1.5,4q-1,3-1.5,4.5a2,2,0,0,1-2,1.5h-.5c-1-.67-1.5-1.33-1.5-2l.5-.5q1.5-4.5,4.5-14A1.82,1.82,0,0,1,362.5,98.64Z" transform="translate(-0.71 0.97)" fill="#5a5a5a"/><path d="M353.5,127.14c1,0,1.33.67,1,2a69.54,69.54,0,0,0-2.25,7,40.66,40.66,0,0,1-2.25,6.5v.5c-.67,1-1.34,1.5-2,1.5l-.5-.5a1.33,1.33,0,0,1-1.5-1.5l.5-.5v-.5c1-3,1.66-5.17,2-6.5.33-1,.75-2.25,1.25-3.75a26.35,26.35,0,0,1,1.25-3.25C351.33,126.81,352.16,126.47,353.5,127.14Z" transform="translate(-0.71 0.97)" fill="#5a5a5a"/><path d="M344.25,154.89c1.16.5,1.58,1.25,1.25,2.25l-.5,1c-.34,1.33-1,3.5-2,6.5a55.48,55.48,0,0,1-2.5,6.5,1.33,1.33,0,0,1-1.5,1.5h-.5c-1-.67-1.5-1.33-1.5-2h.5v-1l.5-2q1.5-4,4-11.5C342.33,154.81,343.08,154.39,344.25,154.89Z" transform="translate(-0.71 0.97)" fill="#5a5a5a"/><path d="M335.25,182.89a1.69,1.69,0,0,1,1,2.5c-.5,1.17-1.25,3.33-2.25,6.5s-1.84,5.58-2.5,7.25a1.33,1.33,0,0,1-1.5,1.5.44.44,0,0,1-.5-.5,1.33,1.33,0,0,1-1.5-1.5v-.5q.5-1.5,1.5-4.5a37.22,37.22,0,0,1,2-5l1.5-4.5C333.33,182.81,334.08,182.39,335.25,182.89Z" transform="translate(-0.71 0.97)" fill="#5a5a5a"/><path d="M326.25,210.89q1.74.75.75,2.25l-.5,2c-.34,1.33-1,3.42-2,6.25s-1.67,4.75-2,5.75v.5a1.61,1.61,0,0,1-1.5,1h-.5c-1-.67-1.5-1.33-1.5-2v-.5l.5-.5a11.87,11.87,0,0,1,.75-3.25c.5-1.5.91-2.67,1.25-3.5s.75-2,1.25-3.5a11.87,11.87,0,0,0,.75-3.25C324.16,210.81,325.08,210.39,326.25,210.89Z" transform="translate(-0.71 0.97)" fill="#5a5a5a"/><path d="M318,240.14a.63.63,0,0,1,0,1q-.51,2-1.75,5.75t-1.75,5.25l-1,3a2,2,0,0,1-2,1.5H311a2,2,0,0,1-1-2v-.5a.44.44,0,0,1,.5-.5,61.31,61.31,0,0,1,2.5-8,10.71,10.71,0,0,1,.75-2.5,9.54,9.54,0,0,0,.75-3c.66-1.33,1.5-1.67,2.5-1C317.33,239.14,317.66,239.47,318,240.14Z" transform="translate(-0.71 0.97)" fill="#5a5a5a"/><path d="M309,267.64v1.5q-1,3.5-2.5,8l-2,6q-.51,1.5-1.5,1.5h-.5a2,2,0,0,1-1.5-2v-.5q.5-1.5,2-6.25t2.5-7.75c.33-1.33,1.16-1.67,2.5-1A1.47,1.47,0,0,1,309,267.64Z" transform="translate(-0.71 0.97)" fill="#5a5a5a"/><path d="M299,295.14c1,0,1.33.67,1,2q-1.5,5-3.5,11.5l-1,2.5q-.51,1.5-1.5,1.5h-1a2,2,0,0,1-1-2v-.5q.5-2,2.25-6.75a55.25,55.25,0,0,0,2.25-7.25C296.83,294.81,297.66,294.47,299,295.14Z" transform="translate(-0.71 0.97)" fill="#5a5a5a"/><path d="M289.75,322.64q5.25,1.5,3.5,6.75t-7,3.75q-5.25-1.5-3.5-6.75T289.75,322.64Z" transform="translate(-0.71 0.97)" fill="#5a5a5a"/><path d="M285.5,301.64l-4,19.5-13-15,7-2a8,8,0,0,1-1-3.5q-1.5-5-2-6.5v-.5q0-1,1.5-1.5c1.33-.33,2,0,2,1q.5,2,1.5,5.25a19.7,19.7,0,0,1,1,4.25,1.45,1.45,0,0,1,.5,1Z" transform="translate(-0.71 0.97)" fill="#5a5a5a"/><path d="M277,359.64a1.44,1.44,0,0,1-1-.5l-2-1a2,2,0,0,1-1.5-.5l-.5-.5-1-.5h-.5l-.5-.5-.5-.5-.5-.5a6.06,6.06,0,0,0-1.5-1l-1-.5v-.5l-1-.5a.44.44,0,0,0-.5-.5v-1h-.5l-.5-1-1-1-.5-1-.5-.5-.5-.5-.5-1v-.5l-.5-.5-.5-1.5-.5-1v-.5l2-1.5-2.5,1v-1.5a.44.44,0,0,1-.5-.5l-51-195.5q-9.51,36.5-22,85T165,307.89q-8,30.25-8.5,32.75c0,.67-.17,1-.5,1v.5l-.5,1-.5,1.5-1,2v.5a1.41,1.41,0,0,0-.5,1l-.5,1c-.67.67-1,1.17-1,1.5a7.49,7.49,0,0,0-1,1.25,8.66,8.66,0,0,1-1,1.25l-.5.5-2.5-1v-.5l-1.5-2,.5-.5a6,6,0,0,0,1-1.5.44.44,0,0,0,.5-.5,1.45,1.45,0,0,0,.5-1l1.5-2,1-2v-1.5l.5-.5v-1q3.5-13.5,54-206.5a2.51,2.51,0,0,1,2.75-2c1.5,0,2.25.67,2.25,2l54,205v1.5l.5,1a3.93,3.93,0,0,1,.5,1.5l.5.5v.5l.5.5.5,1.5h.5l.5,1,.5,1,.5.5-1.5,2.5,2-2-1.5,2.5,2-2,1,1a.44.44,0,0,0,.5.5l-1,.5-1,1,1.5-1h.5v-.5c.33,0,.66.33,1,1l1,.5.5.5.5.5a3.93,3.93,0,0,1,1.5.5l.5.5,1.5.5h.5a1.44,1.44,0,0,0,1,.5h.5l.5,3,.5-2.5h1l-.54,3-.46,2.51H280a11,11,0,0,0-1.75-.5c-.17,0-.25-.17-.25-.5Z" transform="translate(-0.71 0.97)" fill="#1d1d1b"/><path d="M272.5,279.14a2,2,0,0,1-1,2.5H271c-1.34,0-2-.5-2-1.5-.34-1-.75-2.33-1.25-4a14.56,14.56,0,0,1-.75-3.5,36,36,0,0,1-1-3.75,16.54,16.54,0,0,1-.5-3.25.44.44,0,0,1-.5-.5q0-1,1.5-1.5a1.83,1.83,0,0,1,2.5,1.5Q269.5,267.65,272.5,279.14Z" transform="translate(-0.71 0.97)" fill="#5a5a5a"/><path d="M265,250.64c.33,1-.17,1.83-1.5,2.5a2,2,0,0,1-2-1.5l-1-4q-1-4-2.5-10l-.5-.5v-.5q0-1,1.5-1.5a1.83,1.83,0,0,1,2.5,1.5q1.5,6.5,2.5,9.5Z" transform="translate(-0.71 0.97)" fill="#5a5a5a"/><path d="M257.5,222.14v1.5a1.47,1.47,0,0,1-1,.5l-.5.5a2,2,0,0,1-2-1.5q-2.5-11-3.5-14v-1a1.59,1.59,0,0,1,1-1.5c1.33-.33,2.16,0,2.5,1a9.25,9.25,0,0,0,.5,3c.33,1,.66,2,1,3s.66,2,1,3A21.31,21.31,0,0,0,257.5,222.14Z" transform="translate(-0.71 0.97)" fill="#5a5a5a"/><path d="M248.5,187.14c1,3.33,1.66,5.5,2,6.5,0,1.33-.5,2-1.5,2h-.5c-1,0-1.59-.42-1.75-1.25a24.65,24.65,0,0,0-.75-2.75,18.28,18.28,0,0,1-.75-3,9.15,9.15,0,0,0-.75-2.5l-1.5-6v-.5a1.33,1.33,0,0,1,1.5-1.5,1.4,1.4,0,0,1,2,1,24.65,24.65,0,0,1,.75,2.75c.16.83.33,1.75.5,2.75A8.5,8.5,0,0,0,248.5,187.14Z" transform="translate(-0.71 0.97)" fill="#5a5a5a"/><path d="M243,165.14c0,1.33-.5,2-1.5,2H241a2,2,0,0,1-2-1q-2.5-11.5-3.5-14.5v-.5q0-1,1.5-1.5a1.4,1.4,0,0,1,2,1l.5,2Q242,162.65,243,165.14Z" transform="translate(-0.71 0.97)" fill="#5a5a5a"/><path d="M235.5,136.64a2.94,2.94,0,0,1-1.5,2.5h-.5a1.33,1.33,0,0,1-1.5-1.5v-.5q-3-10-4-14v-.5q0-1,1.5-1.5c1.33-.33,2,.17,2,1.5Q234.5,133.64,235.5,136.64Z" transform="translate(-0.71 0.97)" fill="#5a5a5a"/><path d="M226.75,103.39c.5,2.17.91,3.75,1.25,4.75a2.94,2.94,0,0,1-1.5,2.5H226a1.33,1.33,0,0,1-1.5-1.5c-.34-1-.67-2.17-1-3.5s-.67-2.58-1-3.75-.67-2.33-1-3.5-.67-2.42-1-3.75v-.5q0-1,1.5-1.5c1.33-.33,2,.17,2,1.5l1.5,4.5C225.83,99.64,226.25,101.22,226.75,103.39Z" transform="translate(-0.71 0.97)" fill="#5a5a5a"/><path d="M220.5,79.64a2,2,0,0,1-1,2.5h-1a1.33,1.33,0,0,1-1.5-1.5q-1.5-6.49-3.5-14c0-.33-.09-.5-.25-.5s-.25-.17-.25-.5q.5-1.5,1.5-1.5a1.83,1.83,0,0,1,2.5,1.5q.5,2,1.75,6.75C219.58,75.56,220.16,78,220.5,79.64Z" transform="translate(-0.71 0.97)" fill="#5a5a5a"/><path d="M213,51.14c.33,1.33,0,2-1,2h-.5a2,2,0,0,1-2-1,63.89,63.89,0,0,1-1.5-7l-1.5-5.5c-2.67-.33-4.34-1.67-5-4q-1.5-5.51,3.75-6.75T212,32.64c.66,2.67,0,4.67-2,6a25.13,25.13,0,0,0,1.25,5.75Q212.5,48.64,213,51.14Z" transform="translate(-0.71 0.97)" fill="#5a5a5a"/><path d="M203.5,46.14l4.5,19-7-1.5-3,12a2,2,0,0,1-2,1.5h-.5a2,2,0,0,1-1.5-2v-.5q1-3,3.5-12l-7-2Z" transform="translate(-0.71 0.97)" fill="#5a5a5a"/><path d="M202,4.64l.5,2.5h-1l-1,.5a26.32,26.32,0,0,0-3.5,1.5l-1,.5a15.26,15.26,0,0,0-2,1.5l-2.5,2H191l-.5,1-1.5,1.5v.5l-.5.5c-.34.33-.67.67-1,1l-.5,1-2.5-.5,2,1.5v.5l-1.5,4a.44.44,0,0,1-.5.5q-.51,3.49-56,216.5a2.37,2.37,0,0,1-2.5,2,2.43,2.43,0,0,1-3-1.5l-71-221a23.63,23.63,0,0,0-4.5-8,21.5,21.5,0,0,0-7.25-5.5,27.64,27.64,0,0,0-8.75-2.5,23.82,23.82,0,0,0-9.5,1,28.33,28.33,0,0,0-7.75,4.5A20.19,20.19,0,0,0,8.5,17.39,27.31,27.31,0,0,0,6,26.14a20.77,20.77,0,0,0,1,9l99.5,307a.44.44,0,0,0,.5.5v1a1.45,1.45,0,0,1,.5,1l.5.5v.5l.5.5.5,1a6,6,0,0,1,1,1.5l2,2,.5.5,1.5,1.5a1.47,1.47,0,0,1,1,.5,5.7,5.7,0,0,0,1.5,1v3l1-2.5a6.06,6.06,0,0,1,1.5,1l2.5.5-.5,3h-1v-.5l-1,2.5a3.83,3.83,0,0,1-1.5-.5l-.5-.5a3.83,3.83,0,0,1-1.5-.5l-.5-.5h-.5a24,24,0,0,0-2.5-1.5l-.5-.5-2.5-2-.5-.5-.5-.5-1-1c-.34-.33-.67-.67-1-1a7.68,7.68,0,0,1-1.5-2,6,6,0,0,0-1-1.5v-.5l-.5-.5v-.5a1.41,1.41,0,0,1-.5-1l-.5-1a2,2,0,0,1-.5-1.5l-.5-1L2,36.64A32.21,32.21,0,0,1,.75,25.89a24,24,0,0,1,3-10.75,33.84,33.84,0,0,1,7.25-9A24.87,24.87,0,0,1,20.75.64,38.92,38.92,0,0,1,31.5-.86a27.28,27.28,0,0,1,11,3.25,32.45,32.45,0,0,1,8.75,7A30.22,30.22,0,0,1,57,19.14l68.5,212q51-195,54-208a.44.44,0,0,0,.5-.5,7.9,7.9,0,0,1,.5-2l.5-2,.5-.5a1.41,1.41,0,0,1,.5-1l.5-1a1.41,1.41,0,0,1,.5-1,.44.44,0,0,1,.5-.5.44.44,0,0,1,.5-.5,3.93,3.93,0,0,0,.5-1.5l1-1a.44.44,0,0,1,.5-.5l.5-.5c.33-.67.66-1,1-1l1-1c.33-.33.66-.67,1-1l1.5-1a15.26,15.26,0,0,1,2-1.5,3.83,3.83,0,0,1,1.5-.5,10.91,10.91,0,0,1,4.5-2l1.5-.5Z" transform="translate(-0.71 0.97)" fill="#1d1d1b"/><path d="M194,88.64q.5.49,0,1.5l-.5,2.5q-2.5,9.49-3,11.5a2,2,0,0,1-2,1.5q-1.5-.49-1.5-1.5v-2l3.5-13a2.3,2.3,0,0,1,2.5-1.5C193.33,88,193.66,88.31,194,88.64Z" transform="translate(-0.71 0.97)" fill="#5a5a5a"/><path d="M185.5,116.14c1.33.33,1.66,1.17,1,2.5v.5q-2,8.51-3.5,13.5a2,2,0,0,1-2,1.5q-1.5-.49-1.5-1.5v-1l3-12,.5-2A1.82,1.82,0,0,1,185.5,116.14Z" transform="translate(-0.71 0.97)" fill="#5a5a5a"/><path d="M178,144.64c1.33.33,1.66,1.17,1,2.5a12.07,12.07,0,0,1-.25,2.25,24.65,24.65,0,0,1-.75,2.75c-.34,1-.59,1.83-.75,2.5s-.42,1.75-.75,3.25a16,16,0,0,1-1,3.25,1.33,1.33,0,0,1-1.5,1.5h-1a2,2,0,0,1-1-2v-.5c.33-1,.66-2.25,1-3.75a44.42,44.42,0,0,1,1.25-4.5,12.34,12.34,0,0,0,.75-3.75l1-2C176,144.81,176.66,144.31,178,144.64Z" transform="translate(-0.71 0.97)" fill="#5a5a5a"/><path d="M171.5,174.14a2,2,0,0,1,.5,1.5q-3,11.51-4,14a1.33,1.33,0,0,1-1.5,1.5H166a2,2,0,0,1-1.5-2v-.5a4.89,4.89,0,0,0,.75-2.5,4.7,4.7,0,0,1,.75-2.5c.33-1,.75-2.5,1.25-4.5s.91-3.5,1.25-4.5c0-1.33.66-1.83,2-1.5C171.16,173.47,171.5,173.81,171.5,174.14Z" transform="translate(-0.71 0.97)" fill="#5a5a5a"/><path d="M163,201.64a1.83,1.83,0,0,1,1.5,2.5q-.51,1.5-1.5,5a16.11,16.11,0,0,1-1,4.5l-1.5,4.5a1.33,1.33,0,0,1-1.5,1.5h-.5a2,2,0,0,1-1.5-2v-.5c.33-1.33.75-2.83,1.25-4.5s1-3.42,1.5-5.25.91-3.25,1.25-4.25C161,202.14,161.66,201.64,163,201.64Z" transform="translate(-0.71 0.97)" fill="#5a5a5a"/><path d="M156.5,231.14a2,2,0,0,1,.5,1.5q-3,11-3.5,14a2,2,0,0,1-2,1.5H151a2,2,0,0,1-1.5-2l.5-.5q2-7.5,3.5-14c.33-1.33,1-1.83,2-1.5A.89.89,0,0,1,156.5,231.14Z" transform="translate(-0.71 0.97)" fill="#5a5a5a"/><path d="M148.25,258.89c1.16.17,1.58.92,1.25,2.25q-1,4-3.5,14a2,2,0,0,1-2,1.5h-.5q-1.5-.5-1.5-1.5v-1c1-3.33,1.83-6.17,2.5-8.5a34.48,34.48,0,0,0,1.5-5.5A1.81,1.81,0,0,1,148.25,258.89Z" transform="translate(-0.71 0.97)" fill="#5a5a5a"/><path d="M147,352.64l1.5,1.5a1.45,1.45,0,0,1-.5,1l-.5.5-.5.5a7.52,7.52,0,0,0-2,1.5l-.5.5h-1a24,24,0,0,1-2.5,1.5l-1,.5-1,.5-3.5,1a.44.44,0,0,1-.5.5h-2l-1,.5h-7l-1-.5h-2l-1.5-.5-.5-.5v-2h1l1.5-2.5-.5,2.5,1-2.5a1,1,0,0,1,.75.25c.16.17.58.25,1.25.25h1.5l.5,3,.5-3h1l1,3v-3H132l1-.5h2l3-1,1.5,2-1-2.5,2-1,2.5,1.5-1.5-2,2,1.5-1.5-2a6.06,6.06,0,0,0,1.5-1l1.5-1.5,2,1.5Z" transform="translate(-0.71 0.97)" fill="#1d1d1b"/><path d="M140.75,287.14c1.16.33,1.58,1.17,1.25,2.5a19.7,19.7,0,0,1-1,4.25q-1,3.25-1.5,4.75a10.87,10.87,0,0,1-.5,2.75,10.86,10.86,0,0,0-.5,2.25,2,2,0,0,1-2,1.5H136a2,2,0,0,1-1-2v-.5q1.5-5.5,3.5-14Q139,286.65,140.75,287.14Z" transform="translate(-0.71 0.97)" fill="#5a5a5a"/><path d="M133.5,323.14a5.39,5.39,0,0,1,2,6q-1.5,5.5-6.75,4t-3.75-6.5a4.72,4.72,0,0,1,5-4,8.06,8.06,0,0,1,.25-2c.16-.67.33-1.33.5-2a7.34,7.34,0,0,0,.25-1.5,1.82,1.82,0,0,1,2.5-1.5,2.31,2.31,0,0,1,1.5,2.5,2,2,0,0,0-.5,1.5l-.5,1.5A4.35,4.35,0,0,0,133.5,323.14Z" transform="translate(-0.71 0.97)" fill="#5a5a5a"/><path d="M127,301.14l-3,19.5-14-14,6.5-2.5q-1-4-2-7l-.5-.5a2,2,0,0,1,1.5-2,1.4,1.4,0,0,1,2,1v.5h.5c.33,1.33,1,3.67,2,7Z" transform="translate(-0.71 0.97)" fill="#5a5a5a"/><path d="M113,281.64c.66,1.33.33,2.17-1,2.5h-.5c-1,0-1.5-.33-1.5-1q-1.5-4-3-8.5a5.83,5.83,0,0,0-.5-1.75,15.56,15.56,0,0,1-.75-2.25,3.2,3.2,0,0,0-.75-1.5v-.5a2,2,0,0,1,1.5-2,1.4,1.4,0,0,1,2,1l.5.5c.33,1,.75,2.42,1.25,4.25s1,3.58,1.5,5.25S112.66,280.64,113,281.64Z" transform="translate(-0.71 0.97)" fill="#5a5a5a"/><path d="M104,253.64a2,2,0,0,1-1,2.5h-.5a2,2,0,0,1-2-1,34.86,34.86,0,0,0-1.75-6.25Q97,243.64,96,240.64v-.5q0-1,1.5-1.5c1.33-.33,2,0,2,1,.66,1.67,1.5,4.08,2.5,7.25S103.66,252.31,104,253.64Z" transform="translate(-0.71 0.97)" fill="#5a5a5a"/><path d="M95,225.64c.66,1.33.33,2.17-1,2.5h-.5a2,2,0,0,1-2-1.5v-.5q-3-8-4.5-13v-1a1.59,1.59,0,0,1,1-1.5c1.33-.67,2.16-.33,2.5,1,.33,1,.66,2,1,3s.66,2,1,3a18.22,18.22,0,0,0,1,2.5C93.83,221.47,94.33,223.31,95,225.64Z" transform="translate(-0.71 0.97)" fill="#5a5a5a"/><path d="M86,197.64a2,2,0,0,1-1,2.5H84a1.59,1.59,0,0,1-1.5-1,34.21,34.21,0,0,1-1.5-6,87,87,0,0,1-3-8.5v-.5a1.59,1.59,0,0,1,1-1.5c1.33-.33,2.16,0,2.5,1,.66,1.67,1.5,4.17,2.5,7.5S85.66,196.64,86,197.64Z" transform="translate(-0.71 0.97)" fill="#5a5a5a"/><path d="M77,169.64q.5,1,0,1.5l-1,1H75q-1,0-1.5-1.5a51.33,51.33,0,0,1-2.5-8.5,32.11,32.11,0,0,1-2-5.5v-.5c0-1,.33-1.5,1-1.5,1.33-.67,2.16-.33,2.5,1q1.5,5.51,2.5,8.5Z" transform="translate(-0.71 0.97)" fill="#5a5a5a"/><path d="M68,141.64a1.83,1.83,0,0,1-1.5,2.5H66a1.59,1.59,0,0,1-1.5-1q-1-3-2-7-.51-1.5-1.5-3.75a9.34,9.34,0,0,1-1-3.25v-.5a.44.44,0,0,1-.5-.5q0-1,1.5-1.5a2,2,0,0,1,2.5,1,60.81,60.81,0,0,0,2,6,13.58,13.58,0,0,0,1,3.75C67.16,139.22,67.66,140.64,68,141.64Z" transform="translate(-0.71 0.97)" fill="#5a5a5a"/><path d="M59,113.64a1.83,1.83,0,0,1-1.5,2.5H57a1.33,1.33,0,0,1-1.5-1.5q-1-2.51-4.5-14a.44.44,0,0,1-.5-.5,1.33,1.33,0,0,1,1.5-1.5c1-.67,1.83-.33,2.5,1l.5,3a21.2,21.2,0,0,1,1,2.5c.33,1,.66,1.92,1,2.75s.66,1.83,1,3A15.64,15.64,0,0,0,59,113.64Z" transform="translate(-0.71 0.97)" fill="#5a5a5a"/><path d="M50,85.64c.33,1-.17,1.83-1.5,2.5H48c-1,0-1.5-.33-1.5-1a59.31,59.31,0,0,0-2.5-7,74.53,74.53,0,0,1-2-7.5.44.44,0,0,1-.5-.5,1.33,1.33,0,0,1,1.5-1.5,1.4,1.4,0,0,1,2,1l.5.5a40.57,40.57,0,0,0,2.5,8Q48.5,81.64,50,85.64Z" transform="translate(-0.71 0.97)" fill="#5a5a5a"/><path d="M40.5,57.64c.33,1.33,0,2.17-1,2.5H39a2,2,0,0,1-2-1.5l-1-4q-1-3-3.5-10v-.5a1.33,1.33,0,0,1,1.5-1.5c1-.67,1.66-.33,2,1a5.82,5.82,0,0,1,1,2.25,15.64,15.64,0,0,0,1,2.75,8,8,0,0,0,.5,2.5c.33,1,.66,2.08,1,3.25S40.16,56.64,40.5,57.64Z" transform="translate(-0.71 0.97)" fill="#5a5a5a"/><path d="M36.25,32.39q1.74,5.25-3.5,7t-7-3.5q-1.76-5.25,3.5-7T36.25,32.39Z" transform="translate(-0.71 0.97)" fill="#5a5a5a"/></svg>