<svg id="Layer_1" data-name="Layer 1" xmlns="http://www.w3.org/2000/svg" viewBox="0 0 238.72 363.33"><path d="M119.4,177.82a2.07,2.07,0,0,0-.5-1.5c-.67-1.32-1.75-3.25-3.25-5.75s-2.58-4.41-3.25-5.75l-1-1.5a2,2,0,0,0-3.5,1,1.42,1.42,0,0,0,.5,1l.5.5q1,2,3,5.25a27.43,27.43,0,0,1,2.5,4.75l1.5,2a1.58,1.58,0,0,0,1.5,1h1C119.07,178.5,119.4,178.16,119.4,177.82Zm2-1a1.59,1.59,0,0,0,.5,2.5,1.41,1.41,0,0,0,1,.5,1.58,1.58,0,0,0,1.5-1q6.49-10.5,7.5-12.5a1.42,1.42,0,0,0,.5-1c0-1-.33-1.5-1-1.5a1.6,1.6,0,0,0-2.5.5l-.5,1c-1,1.34-2.25,3.25-3.75,5.75S122.07,175.5,121.4,176.82Zm112-154.5a20.92,20.92,0,0,1,1,9,23.9,23.9,0,0,1-3.5,10l-82.5,139.5a3.25,3.25,0,0,0,0,2.5l81.5,137.5a17.29,17.29,0,0,1,2,4.5,38.71,38.71,0,0,1,1.5,6,28.31,28.31,0,0,1-1.5,9,23.53,23.53,0,0,1-4.5,8,21.19,21.19,0,0,1-5,4.5,32.1,32.1,0,0,1-9.5,3.5,46.12,46.12,0,0,1-8.5-.75,18.51,18.51,0,0,1-7.5-3.25,25.77,25.77,0,0,1-5-4c-.67-1-1.5-2.16-2.5-3.5l-66.5-113a3.42,3.42,0,0,0-2.5-1,2,2,0,0,0-2,1L49.9,347.32q-8,13-23.5,11-14.5-2-19-16a22.64,22.64,0,0,1-1-9.5,24.33,24.33,0,0,1,3-9.5l83-140a3.25,3.25,0,0,0,0-2.5l-82-138.5q-7.5-14,1.5-26.5,8.51-11.49,23-8.5a27.49,27.49,0,0,1,8.5,3.5,22,22,0,0,1,7,7.5l68,114a2,2,0,0,0,2,1,3.35,3.35,0,0,0,2.5-1l68-115q8-13,23.5-11Q228.9,8.33,233.4,22.32Zm-18,320-1.5-19.5-6,3.5q-2.51-4.5-6-10.5c-1-1.32-2-1.66-3-1a2.07,2.07,0,0,0-.5,1.5v1c1.33,2,3.5,5.68,6.5,11l-6,3.5Zm-3.5-304q3-4.5-1.75-7.25c-3.17-1.82-5.75-1.25-7.75,1.75a5.26,5.26,0,0,0,.5,6.5q-2,3.51-6.5,11a1.59,1.59,0,0,0,.5,2.5h1c1,0,1.5-.16,1.5-.5q4-7,4.5-7.5a27.57,27.57,0,0,1,2.5-4C208.73,41.5,210.57,40.66,211.9,38.32Zm-18.5,267a1.59,1.59,0,0,0,.5-2.5,33.26,33.26,0,0,0-3-5q-3.5-6-4.5-7.5c-.67-1.32-1.5-1.66-2.5-1a4,4,0,0,0-.5,1.5v1c.67,1.34,1.58,3,2.75,5s1.92,3.34,2.25,4l2.5,4a1.58,1.58,0,0,0,1.5,1A1.41,1.41,0,0,0,193.4,305.32Zm-1.5-240.5a1.42,1.42,0,0,0,.5-1,2,2,0,0,0-3.5-1q-1.5,2.52-3.5,6c-1.33,2-2.67,4.18-4,6.5q-.5,1,0,1.5c0,.68.17,1,.5,1a1.41,1.41,0,0,0,1,.5c1,0,1.5-.32,1.5-1a14.76,14.76,0,0,0,2.25-3.25,16.22,16.22,0,0,1,1.75-2.75C190.07,68.32,191.23,66.16,191.9,64.82Zm-13.5,215c1-.32,1.17-1.16.5-2.5s-1.5-2.82-2.5-4.5q-1-1-5-8c-.33-1-1.17-1.16-2.5-.5a1.61,1.61,0,0,0-1,1.5,1.42,1.42,0,0,0,.5,1q2.5,4,5.5,9l2,3.5a1.58,1.58,0,0,0,1.5,1A1.41,1.41,0,0,0,178.4,279.82Zm-1.5-190a.44.44,0,0,0,.5-.5c0-1-.33-1.5-1-1.5a1.6,1.6,0,0,0-2.5.5l-2.5,4c-.67,1-1.5,2.43-2.5,4.25s-1.83,3.25-2.5,4.25a1.59,1.59,0,0,0,.5,2.5,1.41,1.41,0,0,0,1,.5,1.58,1.58,0,0,0,1.5-1Q173.4,95.83,176.9,89.82Zm-13.5,165a1.59,1.59,0,0,0,.5-2.5l-1-2.5c-.67-1-1.75-2.66-3.25-5a61.63,61.63,0,0,1-3.25-5.5,2,2,0,0,0-3.5,1,1.42,1.42,0,0,0,.5,1q5.5,9.51,7.5,13a2,2,0,0,0,1.5.5Zm-1.5-139.5a1.42,1.42,0,0,0,.5-1,1.61,1.61,0,0,0-1-1.5c-1.33-.66-2.17-.32-2.5,1-1.67,2.68-3,4.84-4,6.5-.33.68-.92,1.75-1.75,3.25a15.36,15.36,0,0,1-1.75,2.75,1.59,1.59,0,0,0,.5,2.5h1a2,2,0,0,0,1.5-.5c.67-1,1.42-2.16,2.25-3.5s1.42-2.32,1.75-3C160.4,118.16,161.57,116,161.9,115.32Zm-13.5,114a1.59,1.59,0,0,0,.5-2.5,5.19,5.19,0,0,0-1-2,16,16,0,0,0-1.5-2q-3-5.49-5-8.5v-.5a2.3,2.3,0,0,0-2.5-.5,2.93,2.93,0,0,0-.5,2v.5q.49,1,1.5,3l1.5,3c2,3,3.5,5.18,4.5,6.5q.49,1.5,1.5,1.5A1.41,1.41,0,0,0,148.4,229.32Zm-1.5-88.5a1.42,1.42,0,0,0,.5-1,2,2,0,0,0-3.5-1q-4.5,8-5.5,10l-2,2.5a2.07,2.07,0,0,0-.5,1.5,3.12,3.12,0,0,0,2,1.5,1.58,1.58,0,0,0,1.5-1l1.5-2c.67-1.32,1.67-3.16,3-5.5S146.23,141.82,146.9,140.82Zm-13.5,63.5c1-.66,1.17-1.66.5-3a35.62,35.62,0,0,0-2-3.25,16.69,16.69,0,0,1-2-3.75,46.67,46.67,0,0,0-3.5-5.5,1.6,1.6,0,0,0-2.5-.5,2.07,2.07,0,0,0-.5,1.5v1c1.67,2.68,3.17,5,4.5,7,1,1.68,2,3.5,3,5.5a1.58,1.58,0,0,0,1.5,1Zm-16.5-13c.33,0,.5-.32.5-1a1.61,1.61,0,0,0-1-1.5c-1.33-.66-2.17-.32-2.5,1-.33.68-.92,1.68-1.75,3s-1.5,2.34-2,3a31.71,31.71,0,0,0-2,3.25c-.83,1.5-1.42,2.59-1.75,3.25l-.5,1a5.38,5.38,0,0,0,1,1.5h1a2,2,0,0,0,1.5-.5c.67-1.32,1.42-2.75,2.25-4.25s1.75-3,2.75-4.5A39.81,39.81,0,0,0,116.9,191.32Zm-12.5-39a2.07,2.07,0,0,0-.5-1.5q-4-7-5.5-9.5l-2-3c-.33-1.32-1.17-1.66-2.5-1a2.9,2.9,0,0,0-1,2l.5.5.5,1c.67,1,1.42,2.18,2.25,3.5s1.67,2.84,2.5,4.5a35.81,35.81,0,0,0,2.25,4,1.58,1.58,0,0,0,1.5,1,1.41,1.41,0,0,0,1-.5Zm-2.5,64.5a1.42,1.42,0,0,0,.5-1,1.61,1.61,0,0,0-1-1.5,2.2,2.2,0,0,0-2,0l-2.5,3.5c-.67,1-1.58,2.59-2.75,4.75s-2.08,3.93-2.75,5.25c-.33,0-.5.34-.5,1a3.12,3.12,0,0,0,2,1.5,1.58,1.58,0,0,0,1.5-1l.5-1Q98.4,222.83,101.9,216.82Zm-12.5-90a1.49,1.49,0,0,0-.5-1q-2.5-5-7.5-13c-.33-1-1.17-1.16-2.5-.5a2.07,2.07,0,0,0-.5,1.5v1a8.67,8.67,0,0,1,1.25,2,8.23,8.23,0,0,0,1.25,2c2,3.68,3.67,6.5,5,8.5a1.58,1.58,0,0,0,1.5,1h1A5.38,5.38,0,0,0,89.4,126.82Zm-2.5,115.5.5-1c0-1-.33-1.5-1-1.5a1.26,1.26,0,0,0-2,0v-.5l-.5,1c-1,1.68-2.42,4-4.25,7s-2.92,4.84-3.25,5.5a2.07,2.07,0,0,0-.5,1.5c.33.34.67.68,1,1a1.41,1.41,0,0,0,1,.5,1.58,1.58,0,0,0,1.5-1Q82.9,249.33,86.9,242.32ZM73.4,102.82a1.59,1.59,0,0,0,.5-2.5q-.5-1-5-8.5l-1.25-2.5a8.67,8.67,0,0,0-1.25-2,2,2,0,0,0-3.5,1c0,.68.17,1,.5,1,.33.68.92,1.68,1.75,3s1.42,2.34,1.75,3,1.67,2.84,4,6.5a1.58,1.58,0,0,0,1.5,1Zm-1.5,164.5a.44.44,0,0,0,.5-.5,2,2,0,0,0-1-2c-1-.66-1.83-.41-2.5.75s-1.75,3-3.25,5.5a68.29,68.29,0,0,1-3.75,5.75l-.5,1.5a1.49,1.49,0,0,0-.5,1c0,.34.33.84,1,1.5h1.25c.5,0,.92-.32,1.25-1a12.28,12.28,0,0,0,2.5-4.5A51.33,51.33,0,0,0,71.9,267.32Zm-13.5-190a1.59,1.59,0,0,0,.5-2.5c-.33-.66-1-1.82-2-3.5a21.49,21.49,0,0,1-2-4c-.33,0-1.5-1.66-3.5-5-.67-1.32-1.5-1.66-2.5-1a2,2,0,0,0-1,2,1.42,1.42,0,0,0,.5,1c1.67,2.34,2.83,4,3.5,5a33.79,33.79,0,0,0,4,7.5,2,2,0,0,0,1.5.5Zm-1.5,215.5a1.42,1.42,0,0,0,.5-1,1.61,1.61,0,0,0-1-1.5c-1.33-.66-2.17-.5-2.5.5q-7.5,12.51-7.5,13a1.49,1.49,0,0,0-.5,1,5.38,5.38,0,0,0,1,1.5h1a1.58,1.58,0,0,0,1.5-1q1-1.5,3.25-5.25c1.5-2.5,2.58-4.41,3.25-5.75Zm-13.5-241a1.59,1.59,0,0,0,.5-2.5q-1-2-4.5-7.5c-.33-.66-1-1.82-2-3.5,1.67-2,1.83-4,.5-6q-3-5-7.5-2.25t-2,7.75a5.76,5.76,0,0,0,6,2.5c2.33,4,4.5,7.68,6.5,11a1.58,1.58,0,0,0,1.5,1Zm-1.5,265.5a1,1,0,0,0-.5-1.5c-1.33-1-2.17-.82-2.5.5-1,1.34-2.5,3.68-4.5,7q-.49,1-1.5,3l-6-3.5-1.5,19.5,16.5-10.5-6-3.5a17.45,17.45,0,0,1,3-4.5c1.33-2.32,2.33-4.16,3-5.5Z" transform="translate(-0.8 -0.49)" fill="#fbea23"/><path d="M238.4,20.82a31,31,0,0,1,1,11,32.76,32.76,0,0,1-3.5,12l-82,138.5,80.5,136a28.18,28.18,0,0,1,2.5,5.5,17.72,17.72,0,0,1,1.5,7,29.47,29.47,0,0,1-1.25,11.5,26.3,26.3,0,0,1-5.25,9.5,22,22,0,0,1-7,5.5,22.51,22.51,0,0,1-11.5,4,33,33,0,0,1-10-.5,21.94,21.94,0,0,1-9-4,30.42,30.42,0,0,1-6.5-5c-1-1.32-2-2.66-3-4l-64.5-109.5-66,111.5q-8.51,14-25,14H25.9a30.81,30.81,0,0,1-14.75-6.75A27.69,27.69,0,0,1,2.4,343.82a26.84,26.84,0,0,1-1.5-11.5,25.14,25.14,0,0,1,4-11.5l82-139L5.4,44.82q-9-16.5,2-32,11-14.49,29-11a34,34,0,0,1,10,4.5,31.57,31.57,0,0,1,8.5,9l65.5,110.5,66-111q10-16.5,28.5-14Q232.9,3.34,238.4,20.82Zm-4,10.5a20.92,20.92,0,0,0-1-9q-4.5-14-19-16-15.5-2-23.5,11l-68,115a3.35,3.35,0,0,1-2.5,1,2,2,0,0,1-2-1l-68-114a22,22,0,0,0-7-7.5,27.49,27.49,0,0,0-8.5-3.5q-14.5-3-23,8.5-9,12.51-1.5,26.5l82,138.5a3.25,3.25,0,0,1,0,2.5l-83,140a24.33,24.33,0,0,0-3,9.5,22.64,22.64,0,0,0,1,9.5q4.5,14,19,16,15.49,2,23.5-11l68.5-115.5a2,2,0,0,1,2-1,3.42,3.42,0,0,1,2.5,1l66.5,113c1,1.34,1.83,2.5,2.5,3.5a25.77,25.77,0,0,0,5,4,18.51,18.51,0,0,0,7.5,3.25,46.12,46.12,0,0,0,8.5.75,32.1,32.1,0,0,0,9.5-3.5,21.19,21.19,0,0,0,5-4.5,23.53,23.53,0,0,0,4.5-8,28.31,28.31,0,0,0,1.5-9,38.71,38.71,0,0,0-1.5-6,17.29,17.29,0,0,0-2-4.5l-81.5-137.5a3.25,3.25,0,0,1,0-2.5l82.5-139.5A23.9,23.9,0,0,0,234.4,31.32Z" transform="translate(-0.8 -0.49)" fill="#1d1d1b"/><path d="M213.9,322.82l1.5,19.5-16.5-10.5,6-3.5c-3-5.32-5.17-9-6.5-11v-1a2.07,2.07,0,0,1,.5-1.5c1-.66,2-.32,3,1q3.49,6,6,10.5Z" transform="translate(-0.8 -0.49)" fill="#5a5a5a"/><path d="M210.15,31.07q4.75,2.76,1.75,7.25c-1.33,2.34-3.17,3.18-5.5,2.5a27.57,27.57,0,0,0-2.5,4q-.5.51-4.5,7.5c0,.34-.5.5-1.5.5h-1a1.59,1.59,0,0,1-.5-2.5q4.5-7.5,6.5-11a5.26,5.26,0,0,1-.5-6.5C204.4,29.82,207,29.25,210.15,31.07Z" transform="translate(-0.8 -0.49)" fill="#5a5a5a"/><path d="M193.9,302.82a1.59,1.59,0,0,1-.5,2.5,1.41,1.41,0,0,1-1,.5,1.58,1.58,0,0,1-1.5-1l-2.5-4c-.33-.66-1.08-2-2.25-4s-2.08-3.66-2.75-5v-1a4,4,0,0,1,.5-1.5c1-.66,1.83-.32,2.5,1q1,1.5,4.5,7.5A33.26,33.26,0,0,1,193.9,302.82Z" transform="translate(-0.8 -0.49)" fill="#5a5a5a"/><path d="M184.4,77.32c0,.68-.5,1-1.5,1a1.41,1.41,0,0,1-1-.5c-.33,0-.5-.32-.5-1q-.5-.48,0-1.5c1.33-2.32,2.67-4.5,4-6.5q2-3.48,3.5-6a2,2,0,0,1,3.5,1,1.42,1.42,0,0,1-.5,1c-.67,1.34-1.83,3.5-3.5,6.5a16.22,16.22,0,0,0-1.75,2.75A14.76,14.76,0,0,1,184.4,77.32Z" transform="translate(-0.8 -0.49)" fill="#5a5a5a"/><path d="M178.9,277.32c.67,1.34.5,2.18-.5,2.5a1.41,1.41,0,0,1-1,.5,1.58,1.58,0,0,1-1.5-1l-2-3.5q-3-5-5.5-9a1.42,1.42,0,0,1-.5-1,1.61,1.61,0,0,1,1-1.5c1.33-.66,2.17-.5,2.5.5q4,7,5,8Q177.9,275.34,178.9,277.32Z" transform="translate(-0.8 -0.49)" fill="#5a5a5a"/><path d="M177.4,89.32a.44.44,0,0,1-.5.5q-3.5,6-7.5,13a1.58,1.58,0,0,1-1.5,1,1.41,1.41,0,0,1-1-.5,1.59,1.59,0,0,1-.5-2.5c.67-1,1.5-2.41,2.5-4.25s1.83-3.25,2.5-4.25l2.5-4a1.6,1.6,0,0,1,2.5-.5C177.07,87.82,177.4,88.32,177.4,89.32Z" transform="translate(-0.8 -0.49)" fill="#5a5a5a"/><path d="M163.9,252.32a1.59,1.59,0,0,1-.5,2.5h-1a2,2,0,0,1-1.5-.5q-2-3.48-7.5-13a1.42,1.42,0,0,1-.5-1,2,2,0,0,1,3.5-1,61.63,61.63,0,0,0,3.25,5.5c1.5,2.34,2.58,4,3.25,5Z" transform="translate(-0.8 -0.49)" fill="#5a5a5a"/><path d="M162.4,114.32a1.42,1.42,0,0,1-.5,1c-.33.68-1.5,2.84-3.5,6.5-.33.68-.92,1.68-1.75,3s-1.58,2.5-2.25,3.5a2,2,0,0,1-1.5.5h-1a1.59,1.59,0,0,1-.5-2.5,15.36,15.36,0,0,0,1.75-2.75c.83-1.5,1.42-2.57,1.75-3.25,1-1.66,2.33-3.82,4-6.5.33-1.32,1.17-1.66,2.5-1A1.61,1.61,0,0,1,162.4,114.32Z" transform="translate(-0.8 -0.49)" fill="#5a5a5a"/><path d="M147.4,139.82a1.42,1.42,0,0,1-.5,1c-.67,1-1.67,2.68-3,5s-2.33,4.18-3,5.5l-1.5,2a1.58,1.58,0,0,1-1.5,1,3.12,3.12,0,0,1-2-1.5,2.07,2.07,0,0,1,.5-1.5l2-2.5q1-2,5.5-10a2,2,0,0,1,3.5,1Z" transform="translate(-0.8 -0.49)" fill="#5a5a5a"/><path d="M141.4,214.32q2,3,5,8.5a16,16,0,0,1,1.5,2,5.19,5.19,0,0,1,1,2,1.59,1.59,0,0,1-.5,2.5,1.41,1.41,0,0,1-1,.5q-1,0-1.5-1.5c-1-1.32-2.5-3.5-4.5-6.5l-1.5-3q-1-2-1.5-3v-.5a2.93,2.93,0,0,1,.5-2,2.3,2.3,0,0,1,2.5.5Z" transform="translate(-0.8 -0.49)" fill="#5a5a5a"/><path d="M133.9,201.32c.67,1.34.5,2.34-.5,3h-1a1.58,1.58,0,0,1-1.5-1c-1-2-2-3.82-3-5.5-1.33-2-2.83-4.32-4.5-7v-1a2.07,2.07,0,0,1,.5-1.5,1.6,1.6,0,0,1,2.5.5,46.67,46.67,0,0,1,3.5,5.5,16.69,16.69,0,0,0,2,3.75A35.62,35.62,0,0,1,133.9,201.32Z" transform="translate(-0.8 -0.49)" fill="#5a5a5a"/><path d="M132.4,165.32a1.42,1.42,0,0,1-.5,1q-1,2-7.5,12.5a1.58,1.58,0,0,1-1.5,1,1.41,1.41,0,0,1-1-.5,1.59,1.59,0,0,1-.5-2.5c.67-1.32,1.75-3.25,3.25-5.75s2.75-4.41,3.75-5.75l.5-1a1.6,1.6,0,0,1,2.5-.5C132.07,163.82,132.4,164.32,132.4,165.32Z" transform="translate(-0.8 -0.49)" fill="#5a5a5a"/><path d="M118.9,176.32a2.07,2.07,0,0,1,.5,1.5c0,.34-.33.68-1,1h-1a1.58,1.58,0,0,1-1.5-1l-1.5-2a27.43,27.43,0,0,0-2.5-4.75q-2-3.24-3-5.25l-.5-.5a1.42,1.42,0,0,1-.5-1,2,2,0,0,1,3.5-1l1,1.5c.67,1.34,1.75,3.25,3.25,5.75S118.23,175,118.9,176.32Z" transform="translate(-0.8 -0.49)" fill="#5a5a5a"/><path d="M117.4,190.32c0,.68-.17,1-.5,1a39.81,39.81,0,0,1-2.5,4.25q-1.5,2.25-2.75,4.5c-.83,1.5-1.58,2.93-2.25,4.25a2,2,0,0,1-1.5.5h-1a5.38,5.38,0,0,1-1-1.5l.5-1c.33-.66.92-1.75,1.75-3.25a31.71,31.71,0,0,1,2-3.25c.5-.66,1.17-1.66,2-3s1.42-2.32,1.75-3c.33-1.32,1.17-1.66,2.5-1A1.61,1.61,0,0,1,117.4,190.32Z" transform="translate(-0.8 -0.49)" fill="#5a5a5a"/><path d="M103.9,150.82a2.07,2.07,0,0,1,.5,1.5l-1,1a1.41,1.41,0,0,1-1,.5,1.58,1.58,0,0,1-1.5-1,35.81,35.81,0,0,1-2.25-4c-.83-1.66-1.67-3.16-2.5-4.5s-1.58-2.5-2.25-3.5l-.5-1-.5-.5a2.9,2.9,0,0,1,1-2c1.33-.66,2.17-.32,2.5,1l2,3Q99.9,143.84,103.9,150.82Z" transform="translate(-0.8 -0.49)" fill="#5a5a5a"/><path d="M101.4,214.32a1.61,1.61,0,0,1,1,1.5,1.42,1.42,0,0,1-.5,1q-3.5,6-7,11.5l-.5,1a1.58,1.58,0,0,1-1.5,1,3.12,3.12,0,0,1-2-1.5c0-.66.17-1,.5-1,.67-1.32,1.58-3.07,2.75-5.25s2.08-3.75,2.75-4.75l2.5-3.5A2.2,2.2,0,0,1,101.4,214.32Z" transform="translate(-0.8 -0.49)" fill="#5a5a5a"/><path d="M88.9,125.82a1.49,1.49,0,0,1,.5,1,5.38,5.38,0,0,1-1,1.5h-1a1.58,1.58,0,0,1-1.5-1c-1.33-2-3-4.82-5-8.5a8.23,8.23,0,0,1-1.25-2,8.67,8.67,0,0,0-1.25-2v-1a2.07,2.07,0,0,1,.5-1.5c1.33-.66,2.17-.5,2.5.5Q86.4,120.83,88.9,125.82Z" transform="translate(-0.8 -0.49)" fill="#5a5a5a"/><path d="M86.4,239.82c.67,0,1,.5,1,1.5l-.5,1q-4,7-7.5,12.5a1.58,1.58,0,0,1-1.5,1,1.41,1.41,0,0,1-1-.5c-.33-.32-.67-.66-1-1a2.07,2.07,0,0,1,.5-1.5c.33-.66,1.42-2.5,3.25-5.5s3.25-5.32,4.25-7l.5-1v.5A1.26,1.26,0,0,1,86.4,239.82Z" transform="translate(-0.8 -0.49)" fill="#5a5a5a"/><path d="M73.9,100.32a1.59,1.59,0,0,1-.5,2.5h-1a1.58,1.58,0,0,1-1.5-1c-2.33-3.66-3.67-5.82-4-6.5s-.92-1.66-1.75-3-1.42-2.32-1.75-3c-.33,0-.5-.32-.5-1a2,2,0,0,1,3.5-1,8.67,8.67,0,0,1,1.25,2l1.25,2.5Q73.4,99.32,73.9,100.32Z" transform="translate(-0.8 -0.49)" fill="#5a5a5a"/><path d="M72.4,266.82a.44.44,0,0,1-.5.5,51.33,51.33,0,0,1-5,8,12.28,12.28,0,0,1-2.5,4.5c-.33.68-.75,1-1.25,1H61.9c-.67-.66-1-1.16-1-1.5a1.49,1.49,0,0,1,.5-1l.5-1.5a68.29,68.29,0,0,0,3.75-5.75c1.5-2.5,2.58-4.32,3.25-5.5s1.5-1.41,2.5-.75A2,2,0,0,1,72.4,266.82Z" transform="translate(-0.8 -0.49)" fill="#5a5a5a"/><path d="M58.9,74.82a1.59,1.59,0,0,1-.5,2.5h-1a2,2,0,0,1-1.5-.5,33.79,33.79,0,0,1-4-7.5c-.67-1-1.83-2.66-3.5-5a1.42,1.42,0,0,1-.5-1,2,2,0,0,1,1-2c1-.66,1.83-.32,2.5,1,2,3.34,3.17,5,3.5,5a21.49,21.49,0,0,0,2,4C57.9,73,58.57,74.16,58.9,74.82Z" transform="translate(-0.8 -0.49)" fill="#5a5a5a"/><path d="M57.4,291.82a1.42,1.42,0,0,1-.5,1l-1,1.5c-.67,1.34-1.75,3.25-3.25,5.75s-2.58,4.25-3.25,5.25a1.58,1.58,0,0,1-1.5,1h-1a5.38,5.38,0,0,1-1-1.5,1.49,1.49,0,0,1,.5-1q0-.48,7.5-13c.33-1,1.17-1.16,2.5-.5A1.61,1.61,0,0,1,57.4,291.82Z" transform="translate(-0.8 -0.49)" fill="#5a5a5a"/><path d="M43.9,49.32a1.59,1.59,0,0,1-.5,2.5l-1,.5a1.58,1.58,0,0,1-1.5-1c-2-3.32-4.17-7-6.5-11a5.76,5.76,0,0,1-6-2.5q-2.5-5,2-7.75t7.5,2.25c1.33,2,1.17,4-.5,6,1,1.68,1.67,2.84,2,3.5Q42.9,47.34,43.9,49.32Z" transform="translate(-0.8 -0.49)" fill="#5a5a5a"/><path d="M41.4,315.82a1,1,0,0,1,.5,1.5v1c-.67,1.34-1.67,3.18-3,5.5a17.45,17.45,0,0,0-3,4.5l6,3.5-16.5,10.5,1.5-19.5,6,3.5q1-2,1.5-3c2-3.32,3.5-5.66,4.5-7C39.23,315,40.07,314.82,41.4,315.82Z" transform="translate(-0.8 -0.49)" fill="#5a5a5a"/></svg>