<svg id="Layer_1" data-name="Layer 1" xmlns="http://www.w3.org/2000/svg" viewBox="0 0 239.5 363.5"><path d="M233.5,23.61A22.31,22.31,0,0,1,231,41.36l-87.5,152.5v142a16.54,16.54,0,0,1-.5,4,22.49,22.49,0,0,1-2,5.5,21,21,0,0,1-5.5,7.5,21.08,21.08,0,0,1-5.5,4,17.62,17.62,0,0,1-5,1.5,24.37,24.37,0,0,1-12,0,33.8,33.8,0,0,1-5-2.5,17.18,17.18,0,0,1-5.5-4.5,19.41,19.41,0,0,1-4.5-7,27.71,27.71,0,0,1-1.5-5V194.86a2.07,2.07,0,0,0-.5-1.5q-83-144-87.5-152A22.23,22.23,0,0,1,6,23.61,23,23,0,0,1,17,9.36a24.62,24.62,0,0,1,12-3,36.8,36.8,0,0,1,6,.5,23.46,23.46,0,0,1,14,11l68.5,119a2.93,2.93,0,0,0,2.5,1.5,2,2,0,0,0,2-1.5l24.5-42,44-77A24.46,24.46,0,0,1,204.75,7.11,21.57,21.57,0,0,1,222.5,9.36,23,23,0,0,1,233.5,23.61Zm-24,25.75,1.5-19.5-16.5,11,6,3.5q-4,7-5.5,9.5-.51.51,0,1.5a1.4,1.4,0,0,0,.5,1h1a2,2,0,0,0,1.5-.5q3.5-6,5-8.5a3.83,3.83,0,0,0,.5-1.5Zm-18.5,19v-1a1.62,1.62,0,0,0-1-1.5,1.6,1.6,0,0,0-2.5.5l-1.5,3q-1,1.5-3,5a32.64,32.64,0,0,0-2.5,5,1.59,1.59,0,0,0,.5,2.5,1.4,1.4,0,0,0,1,.5,1.61,1.61,0,0,0,1.5-1,16.67,16.67,0,0,1,1.75-3.5c.83-1.33,1.58-2.5,2.25-3.5a13.14,13.14,0,0,0,1.5-3Zm-15,25.5c.33,0,.5-.33.5-1a1.62,1.62,0,0,0-1-1.5,2.28,2.28,0,0,0-2.5.5v.5q-2,3-5.5,9l-2,3.5q-.51,1,0,1.5c0,.34.33.67,1,1h.5a2.87,2.87,0,0,0,2-.5,53.38,53.38,0,0,1,3.5-6.75Q175,95.87,176,93.86Zm-14.5,24.5c.33-.33.16-.83-.5-1.5-1.34-.66-2.17-.33-2.5,1q-1,1.5-3,5c-1.34,2.34-2.34,4-3,5l-1.5,2.5a1.59,1.59,0,0,0,.5,2.5h1a2,2,0,0,0,1.5-.5c.66-1,1.5-2.41,2.5-4.25a20,20,0,0,1,2-3.25q1.5-3,3-5.5ZM147,144.86v-.5a2.93,2.93,0,0,0-1-2c-1-.66-1.84-.33-2.5,1q-5,9-7,12.5a2,2,0,0,0-.5,1.5,2.59,2.59,0,0,0,1,1.25,2.15,2.15,0,0,0,1,.25,1.61,1.61,0,0,0,1.5-1c.33-.66.91-1.75,1.75-3.25s1.41-2.58,1.75-3.25a13.37,13.37,0,0,1,1.25-2,9.75,9.75,0,0,0,1.25-2.25,5.3,5.3,0,0,1,1-1.75Zm-15,25.5.5-.5a1.83,1.83,0,0,0-3.5-1c-.67,1-1.42,2.17-2.25,3.5a27.92,27.92,0,0,0-2,3.75,20.54,20.54,0,0,1-1.75,3.25l-1,2a5.78,5.78,0,0,0-6,2.5q-3,5,2,7.75t7.5-2.25q2-3-.5-6Q130.49,173.37,132,170.36Zm-12,172.5,8.5-17.5h-7v-11.5c0-1-.59-1.5-1.75-1.5s-1.75.5-1.75,1.5v11.5h-7Zm1.5-134.5c2.66-1,4-2.66,4-5a5,5,0,0,0-1.75-4,6,6,0,0,0-4-1.5,5.09,5.09,0,0,0-3.75,1.5,5.42,5.42,0,0,0-1.5,4,5.12,5.12,0,0,0,3.5,5v2.5a1.76,1.76,0,0,0,2,2c1,0,1.5-.66,1.5-2Zm0,91v-14.5c0-1.33-.59-2-1.75-2s-1.75.67-1.75,2v14.5a1.76,1.76,0,0,0,2,2C121,301.36,121.5,300.7,121.5,299.36Zm0-29.5v-14.5c0-1.33-.59-2-1.75-2s-1.75.67-1.75,2v14.5a1.76,1.76,0,0,0,2,2C121,271.86,121.5,271.2,121.5,269.86Zm0-29.5v-14.5c0-1.33-.59-2-1.75-2s-1.75.67-1.75,2v14.5a1.76,1.76,0,0,0,2,2C121,242.36,121.5,241.7,121.5,240.36Zm-7.5-62.5-1-19.5-6,3.5a23,23,0,0,1-1.5-2.5,10.64,10.64,0,0,0-1.75-3,16.82,16.82,0,0,1-2.25-4c-.67-1.33-1.5-1.66-2.5-1-.67.34-1,.67-1,1v1.5q2,3.51,4.5,7.5a2.35,2.35,0,0,0,.5,1.25,7.49,7.49,0,0,0,1,1.25l-6.5,3Zm-21-36c1-.33,1.33-.83,1-1.5v-1a43.82,43.82,0,0,1-2.5-4.5q-1-1.5-2.75-4.75a26.11,26.11,0,0,0-2.25-3.75,1.8,1.8,0,0,0-3,2q2.49,4.5,3,5.25c.33.5,1,1.59,2,3.25a22.48,22.48,0,0,1,2,4l.5.5v.5Zm-13.5-27v-1a14.23,14.23,0,0,0-1.25-2,12.43,12.43,0,0,1-1.25-2c-.34-.66-.67-1.33-1-2a38.13,38.13,0,0,0-2-3.25,16.69,16.69,0,0,1-2-3.75,1.6,1.6,0,0,0-2.5-.5l-1,1a3.67,3.67,0,0,0,.5,1.5l7,12.5q.5,1.5,1.5,1.5a1.43,1.43,0,0,0,1-.5A1.61,1.61,0,0,0,79.5,114.86ZM65,89.36a1.47,1.47,0,0,0-.5-1,17.11,17.11,0,0,0-2-3.75,43.27,43.27,0,0,1-2.75-4.75q-1.26-2.49-2.25-4.5a1.6,1.6,0,0,0-2.5-.5c-1.34.67-1.67,1.5-1,2.5s1.41,2.25,2.25,3.75,1.75,3,2.75,4.5a26.27,26.27,0,0,1,2.5,4.75,2,2,0,0,0,1.5.5h1A1.61,1.61,0,0,0,65,89.36Zm-15.5-24c.66-.66.83-1.16.5-1.5v-1c-.34-.66-.67-1.33-1-2a19.11,19.11,0,0,0-1-1.75,14.53,14.53,0,0,1-1-1.75,19.11,19.11,0,0,0-1-1.75,14.53,14.53,0,0,1-1-1.75,6.35,6.35,0,0,0-1-1.5l-1.5-2.5c-.34-.66-1.17-.83-2.5-.5l-1,1a2,2,0,0,0,.5,1.5l1.5,3a12.1,12.1,0,0,1,1.75,2.25A18.8,18.8,0,0,1,44,59.61a16.66,16.66,0,0,0,1.25,2.5c.5.84.91,1.59,1.25,2.25H47v.5a2,2,0,0,0,1.5.5Zm-14-27.5-.5-.5-.5-1a31.31,31.31,0,0,0-3-5.5,5.27,5.27,0,0,0,.5-6.5q-2.51-4.5-7.25-1.75T22.5,29.86a5.57,5.57,0,0,0,6,3v.5a12,12,0,0,1,2,3A25.76,25.76,0,0,0,32,39.11a2.25,2.25,0,0,0,2,.75h.5A2,2,0,0,0,35.5,37.86Z" transform="translate(0 -0.86)" fill="#fbea23"/><path d="M238.5,22.36a28.36,28.36,0,0,1-3,22l-87,151.5v140a18.72,18.72,0,0,1-.5,4.5,27.83,27.83,0,0,1-2,7,28.11,28.11,0,0,1-7,9.5,44.66,44.66,0,0,1-6.5,4.5,28.13,28.13,0,0,1-6.25,2.25,27.81,27.81,0,0,1-6.25.75,34.74,34.74,0,0,1-8.5-1,16.59,16.59,0,0,1-6-3,26.56,26.56,0,0,1-7-5,30.71,30.71,0,0,1-5.5-9,36.43,36.43,0,0,1-1.5-6.5,16.06,16.06,0,0,1-.5-4V195.36Q6.49,48.87,4,43.86v.5a28.36,28.36,0,0,1-3-22A27.45,27.45,0,0,1,14.5,4.86a28.36,28.36,0,0,1,22-3,25.76,25.76,0,0,1,17,13.5l66.5,115,21.5-38q4.5-8,9.5-16.5t9-15.75q4-7.24,8-14l7.25-12.25q3.24-5.49,5.5-9.5c1.5-2.66,2.66-4.75,3.5-6.25A15.58,15.58,0,0,1,186,15.36,28.8,28.8,0,0,1,203.5,2.11a27,27,0,0,1,21.75,2.75A27.64,27.64,0,0,1,238.5,22.36Zm-7.5,19a22.31,22.31,0,0,0,2.5-17.75,23,23,0,0,0-11-14.25,21.57,21.57,0,0,0-17.75-2.25A24.46,24.46,0,0,0,190.5,17.86l-44,77-24.5,42a2,2,0,0,1-2,1.5,2.93,2.93,0,0,1-2.5-1.5L49,17.86a23.46,23.46,0,0,0-14-11,36.8,36.8,0,0,0-6-.5,24.62,24.62,0,0,0-12,3A23,23,0,0,0,6,23.61,22.23,22.23,0,0,0,8.5,41.36q4.5,8,87.5,152a2.07,2.07,0,0,1,.5,1.5v144.5a27.71,27.71,0,0,0,1.5,5,19.41,19.41,0,0,0,4.5,7,17.18,17.18,0,0,0,5.5,4.5,33.8,33.8,0,0,0,5,2.5,24.37,24.37,0,0,0,12,0,17.62,17.62,0,0,0,5-1.5,21.08,21.08,0,0,0,5.5-4,21,21,0,0,0,5.5-7.5,22.49,22.49,0,0,0,2-5.5,16.54,16.54,0,0,0,.5-4v-142Z" transform="translate(0 -0.86)" fill="#1d1d1b"/><path d="M211,29.86l-1.5,19.5-6-3.5a3.83,3.83,0,0,1-.5,1.5q-1.5,2.51-5,8.5a2,2,0,0,1-1.5.5h-1a1.4,1.4,0,0,1-.5-1q-.51-1,0-1.5,1.5-2.49,5.5-9.5l-6-3.5Z" transform="translate(0 -0.86)" fill="#5a5a5a"/><path d="M191,67.36v1l-2,3a13.14,13.14,0,0,1-1.5,3c-.67,1-1.42,2.17-2.25,3.5a16.67,16.67,0,0,0-1.75,3.5,1.61,1.61,0,0,1-1.5,1,1.4,1.4,0,0,1-1-.5,1.59,1.59,0,0,1-.5-2.5,32.64,32.64,0,0,1,2.5-5q2-3.49,3-5l1.5-3a1.6,1.6,0,0,1,2.5-.5A1.62,1.62,0,0,1,191,67.36Z" transform="translate(0 -0.86)" fill="#5a5a5a"/><path d="M176.5,92.86c0,.67-.17,1-.5,1q-1,2-3.5,6.25a53.38,53.38,0,0,0-3.5,6.75,2.87,2.87,0,0,1-2,.5h-.5c-.67-.33-1-.66-1-1q-.51-.49,0-1.5l2-3.5q3.5-6,5.5-9v-.5a2.28,2.28,0,0,1,2.5-.5A1.62,1.62,0,0,1,176.5,92.86Z" transform="translate(0 -0.86)" fill="#5a5a5a"/><path d="M161,116.86c.66.67.83,1.17.5,1.5v1q-1.5,2.51-3,5.5a20,20,0,0,0-2,3.25c-1,1.84-1.84,3.25-2.5,4.25a2,2,0,0,1-1.5.5h-1a1.59,1.59,0,0,1-.5-2.5l1.5-2.5c.66-1,1.66-2.66,3-5s2.33-4,3-5C158.83,116.53,159.66,116.2,161,116.86Z" transform="translate(0 -0.86)" fill="#5a5a5a"/><path d="M147,144.36v.5l-.5.5a5.3,5.3,0,0,0-1,1.75,9.75,9.75,0,0,1-1.25,2.25,13.37,13.37,0,0,0-1.25,2c-.34.67-.92,1.75-1.75,3.25s-1.42,2.59-1.75,3.25a1.61,1.61,0,0,1-1.5,1,2.15,2.15,0,0,1-1-.25,2.59,2.59,0,0,1-1-1.25,2,2,0,0,1,.5-1.5q2-3.5,7-12.5c.66-1.33,1.5-1.66,2.5-1A2.93,2.93,0,0,1,147,144.36Z" transform="translate(0 -0.86)" fill="#5a5a5a"/><path d="M132.5,169.86l-.5.5q-1.5,3-7,13,2.49,3,.5,6-2.5,5-7.5,2.25t-2-7.75a5.78,5.78,0,0,1,6-2.5l1-2a20.54,20.54,0,0,0,1.75-3.25,27.92,27.92,0,0,1,2-3.75c.83-1.33,1.58-2.5,2.25-3.5a1.83,1.83,0,0,1,3.5,1Z" transform="translate(0 -0.86)" fill="#5a5a5a"/><path d="M128.5,325.36l-8.5,17.5-9-17.5h7v-11.5c0-1,.58-1.5,1.75-1.5s1.75.5,1.75,1.5v11.5Z" transform="translate(0 -0.86)" fill="#5a5a5a"/><path d="M125.5,203.36c0,2.34-1.34,4-4,5v2.5c0,1.34-.5,2-1.5,2a1.76,1.76,0,0,1-2-2v-2.5a5.12,5.12,0,0,1-3.5-5,5.42,5.42,0,0,1,1.5-4,5.09,5.09,0,0,1,3.75-1.5,6,6,0,0,1,4,1.5A5,5,0,0,1,125.5,203.36Z" transform="translate(0 -0.86)" fill="#5a5a5a"/><path d="M121.5,284.86v14.5c0,1.34-.5,2-1.5,2a1.76,1.76,0,0,1-2-2v-14.5c0-1.33.58-2,1.75-2S121.5,283.53,121.5,284.86Z" transform="translate(0 -0.86)" fill="#5a5a5a"/><path d="M121.5,255.36v14.5c0,1.34-.5,2-1.5,2a1.76,1.76,0,0,1-2-2v-14.5c0-1.33.58-2,1.75-2S121.5,254,121.5,255.36Z" transform="translate(0 -0.86)" fill="#5a5a5a"/><path d="M121.5,225.86v14.5c0,1.34-.5,2-1.5,2a1.76,1.76,0,0,1-2-2v-14.5c0-1.33.58-2,1.75-2S121.5,224.53,121.5,225.86Z" transform="translate(0 -0.86)" fill="#5a5a5a"/><path d="M113,158.36l1,19.5-16.5-11,6.5-3a7.49,7.49,0,0,1-1-1.25,2.35,2.35,0,0,1-.5-1.25q-2.5-4-4.5-7.5v-1.5c0-.33.33-.66,1-1,1-.66,1.83-.33,2.5,1a16.82,16.82,0,0,0,2.25,4,10.64,10.64,0,0,1,1.75,3,23,23,0,0,0,1.5,2.5Z" transform="translate(0 -0.86)" fill="#5a5a5a"/><path d="M94,140.36c.33.67,0,1.17-1,1.5H91v-.5l-.5-.5a22.48,22.48,0,0,0-2-4c-1-1.66-1.67-2.75-2-3.25s-1.34-2.25-3-5.25a1.8,1.8,0,0,1,3-2,26.11,26.11,0,0,1,2.25,3.75q1.74,3.25,2.75,4.75a43.82,43.82,0,0,0,2.5,4.5Z" transform="translate(0 -0.86)" fill="#5a5a5a"/><path d="M79.5,113.86v1a1.61,1.61,0,0,1-1,1.5,1.43,1.43,0,0,1-1,.5q-1,0-1.5-1.5l-7-12.5a3.67,3.67,0,0,1-.5-1.5l1-1a1.6,1.6,0,0,1,2.5.5,16.69,16.69,0,0,0,2,3.75,38.13,38.13,0,0,1,2,3.25c.33.67.66,1.34,1,2a12.43,12.43,0,0,0,1.25,2A14.23,14.23,0,0,1,79.5,113.86Z" transform="translate(0 -0.86)" fill="#5a5a5a"/><path d="M64.5,88.36a1.47,1.47,0,0,1,.5,1,1.61,1.61,0,0,1-1,1.5H63a2,2,0,0,1-1.5-.5A26.27,26.27,0,0,0,59,85.61q-1.5-2.25-2.75-4.5T54,77.36c-.67-1-.34-1.83,1-2.5a1.6,1.6,0,0,1,2.5.5q1,2,2.25,4.5a43.27,43.27,0,0,0,2.75,4.75A17.11,17.11,0,0,1,64.5,88.36Z" transform="translate(0 -0.86)" fill="#5a5a5a"/><path d="M50,63.86c.33.34.16.84-.5,1.5h-1a2,2,0,0,1-1.5-.5v-.5h-.5c-.34-.66-.75-1.41-1.25-2.25A16.66,16.66,0,0,1,44,59.61a18.8,18.8,0,0,0-1.25-2.5A12.1,12.1,0,0,0,41,54.86l-1.5-3a2,2,0,0,1-.5-1.5l1-1c1.33-.33,2.16-.16,2.5.5l1.5,2.5a6.35,6.35,0,0,1,1,1.5,14.53,14.53,0,0,0,1,1.75,19.11,19.11,0,0,1,1,1.75,14.53,14.53,0,0,0,1,1.75,19.11,19.11,0,0,1,1,1.75c.33.67.66,1.34,1,2v1Z" transform="translate(0 -0.86)" fill="#5a5a5a"/><path d="M35,37.36l.5.5a2,2,0,0,1-1,2H34a2.25,2.25,0,0,1-2-.75,25.76,25.76,0,0,1-1.5-2.75,12,12,0,0,0-2-3v-.5a5.57,5.57,0,0,1-6-3q-2.51-4.5,2.25-7.25T32,24.36a5.27,5.27,0,0,1-.5,6.5,31.31,31.31,0,0,1,3,5.5Z" transform="translate(0 -0.86)" fill="#5a5a5a"/></svg>