<svg id="Layer_1" data-name="Layer 1" xmlns="http://www.w3.org/2000/svg" viewBox="0 0 259.15 363.5"><path d="M247.39,35v2h-.5v1l-.5.5a11.36,11.36,0,0,1-1.5,3.5l-164,266a2.81,2.81,0,0,0-.25,3,2.4,2.4,0,0,0,2.25,1.5H235.39a15.78,15.78,0,0,1,5.5,2,21,21,0,0,1,7.5,5.5,26.87,26.87,0,0,1,4,5c.66,2,1.32,3.84,2,5.5a29.3,29.3,0,0,1-.5,12c-.68,1.67-1.34,3.34-2,5a36.44,36.44,0,0,1-4.5,5.5,27.89,27.89,0,0,1-7,4.5,26.34,26.34,0,0,1-5.5,1.5,14.77,14.77,0,0,0-3.5.5h-195a1.45,1.45,0,0,0-1-.5,25.94,25.94,0,0,1-5.75-.75A19.72,19.72,0,0,1,23.88,356q-1-1-1.5-1.5h-.5l-.5-.5a8.16,8.16,0,0,0-2-1.5l-.5-1-.5-.5-.5-.5a13.37,13.37,0,0,0-1.25-2,12.43,12.43,0,0,1-1.25-2l-.5-.5a34.86,34.86,0,0,1-2-8,8.2,8.2,0,0,1,0-4,25.7,25.7,0,0,1,2.5-9v-.5c.33-.33.67-.66,1-1l164-266a3.21,3.21,0,0,0-.25-2.75,2.46,2.46,0,0,0-2.25-1.25h-148a22.31,22.31,0,0,1-16.75-7A23.27,23.27,0,0,1,6.38,29.7a22.44,22.44,0,0,1,6.75-16.5A22.74,22.74,0,0,1,29.88,6.45H227.39a24.67,24.67,0,0,1,9.5,3,15.5,15.5,0,0,0,2.5,2,29.92,29.92,0,0,1,4.5,4.5,37,37,0,0,1,2.5,5,16.62,16.62,0,0,1,1.5,6.5,18.74,18.74,0,0,1,0,6v1Zm-33.5,309.5,17.5-8.5-17.5-9ZM229.39,33q2.49-4.5-2-7.5t-7.5,2c-1.34,2-1.18,4,.5,6a26.74,26.74,0,0,1-1.5,2.5,17.37,17.37,0,0,1-1.5,2c-1.34,2.34-2.68,4.5-4,6.5q-.51,1,0,1.5,0,.51,1.5,1.5a1.61,1.61,0,0,0,1.5-1c3-4.66,5.32-8.33,7-11A4.9,4.9,0,0,0,229.39,33Zm-32,6,17.5-9-17.5-9v7h-11.5c-1.34,0-2,.59-2,1.75s.66,1.75,2,1.75h11.5Zm11.5,20a1.48,1.48,0,0,0,.5-1,1.62,1.62,0,0,0-1-1.5,1.6,1.6,0,0,0-2.5.5v.5a73.6,73.6,0,0,0-5.5,8.5l-2.5,4c-.68,1-.34,1.84,1,2.5h.5a2.9,2.9,0,0,0,2-1Zm-2.5,276.75c0-1.16-.68-1.75-2-1.75h-14.5c-1.34,0-2,.59-2,1.75s.66,1.75,2,1.75h14.5C205.71,337.45,206.39,336.87,206.39,335.7Zm-13-251.25q.48-1,0-1.5c0-.66-.18-1-.5-1a1.6,1.6,0,0,0-2.5.5,12.23,12.23,0,0,0-1.5,2.25,13.77,13.77,0,0,1-1.5,2.25c-.68,1-1.5,2.34-2.5,4s-1.84,3-2.5,4a.62.62,0,0,0,0,1,5.25,5.25,0,0,0,1,1.5h1c.66,0,1-.16,1-.5a72.44,72.44,0,0,0,5-7.5Q192.37,86,193.39,84.45Zm-15.5,25a2.08,2.08,0,0,0,.5-1.5c0-.33-.34-.66-1-1-1-1-1.84-.83-2.5.5-2,3.34-4.68,7.5-8,12.5v1.5q0,.51.75.75a4,4,0,0,0,1.25.25,2,2,0,0,0,1.5-.5,9.57,9.57,0,0,1,1.25-2.75,29,29,0,0,1,2-3.25c.5-.66,1.25-1.75,2.25-3.25A36.58,36.58,0,0,0,177.89,109.45Zm-1,226.25c0-1.16-.68-1.75-2-1.75h-14.5c-1.34,0-2,.59-2,1.75s.66,1.75,2,1.75h14.5C176.21,337.45,176.89,336.87,176.89,335.7Zm-4-306c0-1.16-.68-1.75-2-1.75h-14.5c-1.34,0-2,.59-2,1.75s.66,1.75,2,1.75h14.5C172.21,31.45,172.89,30.87,172.89,29.7Zm-10.5,104.75a2.08,2.08,0,0,0,.5-1.5c0-.33-.34-.66-1-1a1.6,1.6,0,0,0-2.5.5,29.87,29.87,0,0,0-2,3.5,64.8,64.8,0,0,0-5.5,9,2,2,0,0,0-.5,1.5q0,.51.75.75a4,4,0,0,0,1.25.25,2,2,0,0,0,1.5-.5c.32-.66.91-1.66,1.75-3s1.41-2.33,1.75-3a33.43,33.43,0,0,1,2-3.25A36.58,36.58,0,0,0,162.39,134.45Zm-15.5,25,.5-1a1.62,1.62,0,0,0-1-1.5,1.61,1.61,0,0,0-2.51.5,39.81,39.81,0,0,1-2.5,4.25q-1.5,2.25-2.75,4.5a16.7,16.7,0,0,1-2.75,3.75v1.5c0,.34.33.67,1,1a1.41,1.41,0,0,0,1,.5,1.59,1.59,0,0,0,1.5-1q4-6.49,4.5-7.5Q145.39,162,146.89,159.45Zm.5,176.25c0-1.16-.5-1.75-1.5-1.75h-15c-1.33,0-2,.59-2,1.75s.67,1.75,2,1.75h15C146.89,337.45,147.39,336.87,147.39,335.7Zm-4-306c0-1.16-.67-1.75-2-1.75h-14.5c-1.33,0-2,.59-2,1.75s.67,1.75,2,1.75h14.5C142.71,31.45,143.38,30.87,143.38,29.7Zm-12,154.75a1.44,1.44,0,0,0,.5-1,1.61,1.61,0,0,0-1-1.5,2.14,2.14,0,0,0-2,0l-.5.5q-6.5,11-7,12l-.5.5a3.93,3.93,0,0,0-.5,1.5c.33.34.67.67,1,1,0,.34.33.5,1,.5a1.59,1.59,0,0,0,1.5-1,48.71,48.71,0,0,0,4-6.5C128.55,189.45,129.71,187.45,131.38,184.45Zm-13,151.25c0-1.16-.67-1.75-2-1.75h-15c-1,0-1.5.59-1.5,1.75s.5,1.75,1.5,1.75h15C117.71,337.45,118.38,336.87,118.38,335.7Zm-2-126.25v-1a2.07,2.07,0,0,0-.5-1.5c-1.33-.66-2.33-.5-3,.5q-1.5,2.51-4,6.75c-1.67,2.84-2.83,4.75-3.5,5.75a2.07,2.07,0,0,0-.5,1.5,1.15,1.15,0,0,0,.75,1.25,4,4,0,0,0,1.25.25,1.59,1.59,0,0,0,1.5-1Q110.89,218,116.38,209.45ZM113.88,29.7c0-1.16-.5-1.75-1.5-1.75h-15c-1,0-1.5.59-1.5,1.75s.5,1.75,1.5,1.75h15C113.38,31.45,113.88,30.87,113.88,29.7Zm-13,204.75v-1a1.61,1.61,0,0,0-1-1.5c-.67-.66-1.5-.5-2.5.5l-2,3.5q-2,3.51-5.5,9a1.59,1.59,0,0,0,.5,2.5,1.41,1.41,0,0,0,1,.5,1.59,1.59,0,0,0,1.5-1c.67-1,1.83-2.66,3.5-5Q99.88,235.46,100.88,234.45ZM88.38,335.7c0-1.16-.5-1.75-1.5-1.75h-15c-1,0-1.5.59-1.5,1.75s.5,1.75,1.5,1.75h15C87.88,337.45,88.38,336.87,88.38,335.7Zm-3-76.25v-1a1.61,1.61,0,0,0-1-1.5c-1-.66-1.83-.33-2.5,1a6.06,6.06,0,0,0-1,1.5,12.43,12.43,0,0,1-1.25,2,3.35,3.35,0,0,0-.75,2c-2.67,4-4.17,6.34-4.5,7a1.59,1.59,0,0,0,.5,2.5h1a1.59,1.59,0,0,0,1.5-1l2-3Q80.88,266.46,85.38,259.45ZM84.88,29.7c0-1.16-.67-1.75-2-1.75h-15c-1.33,0-2,.59-2,1.75s.67,1.75,2,1.75h15C84.21,31.45,84.88,30.87,84.88,29.7ZM69.88,285v-1.5c0-.66-.17-1-.5-1-1-1-1.83-.83-2.5.5q-1.5,2-4.25,6.25t-3.75,6.25q-.5.51,0,1.5a1.47,1.47,0,0,1,.5,1h1c1,0,1.5-.16,1.5-.5l2.5-4Q67.38,288.46,69.88,285Zm-28.5,42,17-10-6-4,1-1.5,1-1.5v-1.5a.89.89,0,0,0-1-1c-.67-.66-1.5-.5-2.5.5l-1,2-.5,1-6-3.5Zm18,8.75c0-1.16-.67-1.75-2-1.75h-13c-.67-2.33-2.33-3.5-5-3.5a5.4,5.4,0,0,0-4,1.5,5.09,5.09,0,0,0-1.5,3.75,6,6,0,0,0,1.5,4,5,5,0,0,0,4,1.75,4.72,4.72,0,0,0,5-4h13C58.71,337.45,59.38,336.87,59.38,335.7Zm-4.5-306c0-1.16-.5-1.75-1.5-1.75h-13a5.15,5.15,0,0,0-5-3.5,5.4,5.4,0,0,0-4,1.5,5.09,5.09,0,0,0-1.5,3.75,6,6,0,0,0,1.5,4,5,5,0,0,0,4,1.75,4.72,4.72,0,0,0,5-4h13C54.38,31.45,54.88,30.87,54.88,29.7Z" transform="translate(-0.88 -0.95)" fill="#fbea23"/><path d="M259.39,329.45a30.83,30.83,0,0,1-.5,14.5,47.72,47.72,0,0,1-2.5,6,39.79,39.79,0,0,1-5.5,7,33.61,33.61,0,0,1-8.5,5.5,58.13,58.13,0,0,1-6.5,1.5,18.34,18.34,0,0,1-4.5.5h-196a25.25,25.25,0,0,1-7-1h-1q-3-1.5-6.5-3c-.67-.66-1.33-1.33-2-2h-.5a8.88,8.88,0,0,1-2.5-2.5l-1-1-.5-.5-.5-.5a16.55,16.55,0,0,0-2-2.5,12.37,12.37,0,0,1-1.5-3V348a24.23,24.23,0,0,1-3-9.5v-5a28.75,28.75,0,0,1,3.5-11.5,5.7,5.7,0,0,0,1-1.5l161.51-262H29.88A28.37,28.37,0,0,1,9.38,50.2,27.11,27.11,0,0,1,.88,30a27.93,27.93,0,0,1,8.5-20.5A28,28,0,0,1,29.88,1h195a9.53,9.53,0,0,1,3,.5h.5a25.26,25.26,0,0,1,11,3.5c1,.67,2.16,1.5,3.5,2.5a26,26,0,0,1,5,5.5,58.22,58.22,0,0,1,3.5,6,35.65,35.65,0,0,1,2,8,29.38,29.38,0,0,1,0,7.5,2,2,0,0,0-.5,1.5v1h-.5v1.5l-.5.5v1h-.5v.5c-.68,1.67-1.34,3.17-2,4.5L87.88,307H231.39a25.85,25.85,0,0,1,5,.5,28.19,28.19,0,0,1,7,2,35.12,35.12,0,0,1,9,6.5,27.71,27.71,0,0,1,4.5,7A38.82,38.82,0,0,1,259.39,329.45Zm-5.5,13a29.3,29.3,0,0,0,.5-12c-.68-1.66-1.34-3.5-2-5.5a26.87,26.87,0,0,0-4-5,21,21,0,0,0-7.5-5.5,15.78,15.78,0,0,0-5.5-2H82.88a2.4,2.4,0,0,1-2.25-1.5,2.81,2.81,0,0,1,.25-3l164-266a11.36,11.36,0,0,0,1.5-3.5l.5-.5V37h.5V35l.5-.5v-1a18.74,18.74,0,0,0,0-6,16.62,16.62,0,0,0-1.5-6.5,37,37,0,0,0-2.5-5,29.92,29.92,0,0,0-4.5-4.5,15.5,15.5,0,0,1-2.5-2,24.67,24.67,0,0,0-9.5-3H29.88A22.74,22.74,0,0,0,13.13,13.2,22.44,22.44,0,0,0,6.38,29.7a23.27,23.27,0,0,0,6.75,16.75,22.31,22.31,0,0,0,16.75,7h148a2.46,2.46,0,0,1,2.25,1.25,3.21,3.21,0,0,1,.25,2.75l-164,266c-.33.34-.67.67-1,1v.5a25.7,25.7,0,0,0-2.5,9,8.2,8.2,0,0,0,0,4,34.86,34.86,0,0,0,2,8l.5.5a12.43,12.43,0,0,0,1.25,2,13.37,13.37,0,0,1,1.25,2l.5.5.5.5.5,1a8.16,8.16,0,0,1,2,1.5l.5.5h.5q.5.51,1.5,1.5a19.72,19.72,0,0,0,5.75,2.25,25.94,25.94,0,0,0,5.75.75,1.45,1.45,0,0,1,1,.5h195a14.77,14.77,0,0,1,3.5-.5,26.34,26.34,0,0,0,5.5-1.5,27.89,27.89,0,0,0,7-4.5,36.44,36.44,0,0,0,4.5-5.5C252.55,345.79,253.21,344.12,253.89,342.45Z" transform="translate(-0.88 -0.95)" fill="#1d1d1b"/><polygon points="230.51 335 213.01 343.5 213.01 326 230.51 335" fill="#5a5a5a"/><path d="M227.39,25.45q4.5,3,2,7.5a4.9,4.9,0,0,1-6,2.5c-1.68,2.67-4,6.34-7,11a1.61,1.61,0,0,1-1.5,1q-1.5-1-1.5-1.5-.51-.5,0-1.5c1.32-2,2.66-4.16,4-6.5a17.37,17.37,0,0,0,1.5-2,26.74,26.74,0,0,0,1.5-2.5c-1.68-2-1.84-4-.5-6Q222.89,22.46,227.39,25.45Z" transform="translate(-0.88 -0.95)" fill="#5a5a5a"/><path d="M214.89,30l-17.5,9v-7.5h-11.5c-1.34,0-2-.58-2-1.75s.66-1.75,2-1.75h11.5V21Z" transform="translate(-0.88 -0.95)" fill="#5a5a5a"/><path d="M209.39,58a1.48,1.48,0,0,1-.5,1l-7.5,12.5a2.9,2.9,0,0,1-2,1h-.5c-1.34-.66-1.68-1.5-1-2.5l2.5-4a73.6,73.6,0,0,1,5.5-8.5V57a1.6,1.6,0,0,1,2.5-.5A1.62,1.62,0,0,1,209.39,58Z" transform="translate(-0.88 -0.95)" fill="#5a5a5a"/><path d="M204.39,334c1.32,0,2,.59,2,1.75s-.68,1.75-2,1.75h-14.5c-1.34,0-2-.58-2-1.75s.66-1.75,2-1.75Z" transform="translate(-0.88 -0.95)" fill="#5a5a5a"/><path d="M193.39,83q.48.51,0,1.5-1,1.5-3,5a72.44,72.44,0,0,1-5,7.5c0,.34-.34.5-1,.5h-1a5.25,5.25,0,0,1-1-1.5.62.62,0,0,1,0-1c.66-1,1.5-2.33,2.5-4s1.82-3,2.5-4a13.77,13.77,0,0,0,1.5-2.25,12.23,12.23,0,0,1,1.5-2.25,1.6,1.6,0,0,1,2.5-.5C193.21,82,193.39,82.29,193.39,83Z" transform="translate(-0.88 -0.95)" fill="#5a5a5a"/><path d="M178.39,108a2.08,2.08,0,0,1-.5,1.5,36.58,36.58,0,0,1-2,3.25c-1,1.5-1.75,2.59-2.25,3.25a29,29,0,0,0-2,3.25,9.57,9.57,0,0,0-1.25,2.75,2,2,0,0,1-1.5.5,4,4,0,0,1-1.25-.25q-.75-.24-.75-.75V120c3.32-5,6-9.16,8-12.5.66-1.33,1.5-1.5,2.5-.5C178.05,107.29,178.39,107.62,178.39,108Z" transform="translate(-0.88 -0.95)" fill="#5a5a5a"/><path d="M174.89,334c1.32,0,2,.59,2,1.75s-.68,1.75-2,1.75h-14.5c-1.34,0-2-.58-2-1.75s.66-1.75,2-1.75Z" transform="translate(-0.88 -0.95)" fill="#5a5a5a"/><path d="M170.89,28c1.32,0,2,.59,2,1.75s-.68,1.75-2,1.75h-14.5c-1.34,0-2-.58-2-1.75s.66-1.75,2-1.75Z" transform="translate(-0.88 -0.95)" fill="#5a5a5a"/><path d="M162.89,133a2.08,2.08,0,0,1-.5,1.5,36.58,36.58,0,0,1-2,3.25,33.43,33.43,0,0,0-2,3.25c-.34.67-.93,1.67-1.75,3s-1.43,2.34-1.75,3a2,2,0,0,1-1.5.5,4,4,0,0,1-1.25-.25q-.75-.24-.75-.75a2,2,0,0,1,.5-1.5,64.8,64.8,0,0,1,5.5-9,29.87,29.87,0,0,1,2-3.5,1.6,1.6,0,0,1,2.5-.5C162.55,132.29,162.89,132.62,162.89,133Z" transform="translate(-0.88 -0.95)" fill="#5a5a5a"/><path d="M147.39,158.45l-.5,1q-1.5,2.51-3,5-.49,1-4.5,7.5a1.59,1.59,0,0,1-1.5,1,1.41,1.41,0,0,1-1-.5c-.67-.33-1-.66-1-1V170a16.7,16.7,0,0,0,2.75-3.75q1.25-2.25,2.75-4.5a39.81,39.81,0,0,0,2.5-4.25,1.61,1.61,0,0,1,2.51-.5A1.62,1.62,0,0,1,147.39,158.45Z" transform="translate(-0.88 -0.95)" fill="#5a5a5a"/><path d="M145.89,334c1,0,1.5.59,1.5,1.75s-.5,1.75-1.5,1.75h-15c-1.33,0-2-.58-2-1.75s.67-1.75,2-1.75Z" transform="translate(-0.88 -0.95)" fill="#5a5a5a"/><path d="M141.38,28c1.33,0,2,.59,2,1.75s-.67,1.75-2,1.75h-14.5c-1.33,0-2-.58-2-1.75s.67-1.75,2-1.75Z" transform="translate(-0.88 -0.95)" fill="#5a5a5a"/><path d="M131.88,183.45a1.44,1.44,0,0,1-.5,1c-1.67,3-2.83,5-3.5,6a48.71,48.71,0,0,1-4,6.5,1.59,1.59,0,0,1-1.5,1c-.67,0-1-.16-1-.5-.33-.33-.67-.66-1-1a3.93,3.93,0,0,1,.5-1.5l.5-.5q.5-1,7-12l.5-.5a2.14,2.14,0,0,1,2,0A1.61,1.61,0,0,1,131.88,183.45Z" transform="translate(-0.88 -0.95)" fill="#5a5a5a"/><path d="M116.38,334c1.33,0,2,.59,2,1.75s-.67,1.75-2,1.75h-15c-1,0-1.5-.58-1.5-1.75s.5-1.75,1.5-1.75Z" transform="translate(-0.88 -0.95)" fill="#5a5a5a"/><path d="M116.38,208.45v1q-5.5,8.51-8,12.5a1.59,1.59,0,0,1-1.5,1,4,4,0,0,1-1.25-.25,1.15,1.15,0,0,1-.75-1.25,2.07,2.07,0,0,1,.5-1.5c.67-1,1.83-2.91,3.5-5.75s3-5.08,4-6.75c.67-1,1.67-1.16,3-.5A2.07,2.07,0,0,1,116.38,208.45Z" transform="translate(-0.88 -0.95)" fill="#5a5a5a"/><path d="M112.38,28c1,0,1.5.59,1.5,1.75s-.5,1.75-1.5,1.75h-15c-1,0-1.5-.58-1.5-1.75s.5-1.75,1.5-1.75Z" transform="translate(-0.88 -0.95)" fill="#5a5a5a"/><path d="M100.88,233.45v1q-1,1-4.5,7.5c-1.67,2.34-2.83,4-3.5,5a1.59,1.59,0,0,1-1.5,1,1.41,1.41,0,0,1-1-.5,1.59,1.59,0,0,1-.5-2.5q3.5-5.49,5.5-9l2-3.5c1-1,1.83-1.16,2.5-.5A1.61,1.61,0,0,1,100.88,233.45Z" transform="translate(-0.88 -0.95)" fill="#5a5a5a"/><path d="M86.88,334c1,0,1.5.59,1.5,1.75s-.5,1.75-1.5,1.75h-15c-1,0-1.5-.58-1.5-1.75s.5-1.75,1.5-1.75Z" transform="translate(-0.88 -0.95)" fill="#5a5a5a"/><path d="M85.38,258.45v1q-4.5,7-6,9.5l-2,3a1.59,1.59,0,0,1-1.5,1h-1a1.59,1.59,0,0,1-.5-2.5c.33-.66,1.83-3,4.5-7a3.35,3.35,0,0,1,.75-2,12.43,12.43,0,0,0,1.25-2,6.06,6.06,0,0,1,1-1.5c.67-1.33,1.5-1.66,2.5-1A1.61,1.61,0,0,1,85.38,258.45Z" transform="translate(-0.88 -0.95)" fill="#5a5a5a"/><path d="M82.88,28c1.33,0,2,.59,2,1.75s-.67,1.75-2,1.75h-15c-1.33,0-2-.58-2-1.75s.67-1.75,2-1.75Z" transform="translate(-0.88 -0.95)" fill="#5a5a5a"/><path d="M69.38,282.45c.33,0,.5.34.5,1V285q-2.5,3.51-5.5,8.5l-2.5,4c0,.34-.5.5-1.5.5h-1a1.47,1.47,0,0,0-.5-1q-.5-1,0-1.5,1-2,3.75-6.25T66.88,283C67.55,281.62,68.38,281.45,69.38,282.45Z" transform="translate(-0.88 -0.95)" fill="#5a5a5a"/><path d="M58.38,317l-17,10,2-19.5,6,3.5.5-1,1-2c1-1,1.83-1.16,2.5-.5a.89.89,0,0,1,1,1V310l-1,1.5-1,1.5Z" transform="translate(-0.88 -0.95)" fill="#5a5a5a"/><path d="M57.38,334c1.33,0,2,.59,2,1.75s-.67,1.75-2,1.75h-13a4.72,4.72,0,0,1-5,4,5,5,0,0,1-4-1.75,6,6,0,0,1-1.5-4,5.09,5.09,0,0,1,1.5-3.75,5.4,5.4,0,0,1,4-1.5c2.67,0,4.33,1.17,5,3.5Z" transform="translate(-0.88 -0.95)" fill="#5a5a5a"/><path d="M53.38,28c1,0,1.5.59,1.5,1.75s-.5,1.75-1.5,1.75h-13a4.72,4.72,0,0,1-5,4,5,5,0,0,1-4-1.75,6,6,0,0,1-1.5-4A5.09,5.09,0,0,1,31.38,26a5.4,5.4,0,0,1,4-1.5,5.15,5.15,0,0,1,5,3.5Z" transform="translate(-0.88 -0.95)" fill="#5a5a5a"/></svg>