<svg id="Layer_1" data-name="Layer 1" xmlns="http://www.w3.org/2000/svg" viewBox="0 0 252.53 369"><path d="M127.53,30.42q-.51-5.25-6-4.75t-5,5.75q.5,5.25,6,4.75c3.57-.32,5.25-2.16,5-5.49l16.48,10,.5-6.5.5.5a64.57,64.57,0,0,1,13,5h1a2.07,2.07,0,0,0,1.5-.5v-1.5a.89.89,0,0,0-1-1,67.86,67.86,0,0,0-13.5-5.5q-.51-.5-1.5,0l1-7.5-18,7A1.94,1.94,0,0,0,127.53,30.42Zm106.25,70.75q14.25,39.49,14.75,84.5,0,52.5-17.5,96-13,31.5-34,52.5a109.54,109.54,0,0,1-35,24q-34.5,14.5-69.5,0a109.33,109.33,0,0,1-35-24Q37,313.17,24,281.67q-18-43.5-17.5-96,0-45,14.25-84.5T60,37.17q30.5-30.5,67.5-30.5t67,30.5Q219.52,61.67,233.78,101.17Zm-7.75,89v-14.5a1.33,1.33,0,0,0-1.5-1.5H224a1.44,1.44,0,0,0-1,.5,1.41,1.41,0,0,0-.5,1v.5c0,1,.08,2.58.25,4.75s.25,3.75.25,4.75v4.5c-.34.33-.34.75,0,1.25a1.68,1.68,0,0,0,1.5.75C225.53,192.17,226,191.5,226,190.17Zm-.5,14.5a1.45,1.45,0,0,0-.5-1,.89.89,0,0,0-1-1,1.77,1.77,0,0,0-2,2q-.51,5-1.5,14a2,2,0,0,0,.5,1.5,1.44,1.44,0,0,0,1,.5h.5a1.33,1.33,0,0,0,1.5-1.5Q225.53,206.68,225.53,204.67Zm-.5-42q.5-1,0-1.5-.51-7.5-1.5-14.5c0-1-.67-1.5-2-1.5-1.34.33-1.84,1-1.5,2q1.5,12.5,1.5,14.5a2,2,0,0,0,2,1.5A3.93,3.93,0,0,0,225,162.67Zm-3,71v-.5a1.33,1.33,0,0,0-1.5-1.5,1.82,1.82,0,0,0-2.5,1.5,111.41,111.41,0,0,1-3,14l.5,1a.88.88,0,0,0,1,1h.5a1.33,1.33,0,0,0,1.5-1.5Q220.53,240.67,222,233.67Zm-2.5-99a2.31,2.31,0,0,0,1.5-2.5q-2.5-8.5-4-14a1.4,1.4,0,0,0-2-1q-1,0-1.5,1.5v.5a107.7,107.7,0,0,1,3.5,14,2,2,0,0,0,2,1.5Zm-5,127v-.5a1.61,1.61,0,0,0-1-1.5c-1.34-.33-2.17,0-2.5,1a102,102,0,0,1-5,13.5c-.67,1-.34,1.83,1,2.5h.5a2.89,2.89,0,0,0,2-1Q212.53,267.16,214.53,261.67Zm-2-156a.63.63,0,0,0,0-1,123.08,123.08,0,0,0-5.5-13.5v-.5l-.5-.5a2.14,2.14,0,0,0-2,0c-.67,0-1,.5-1,1.5v1a80.67,80.67,0,0,1,5.5,13,2,2,0,0,0,2,1h.5C211.86,106.67,212.19,106.34,212.53,105.67Zm-9.5,183v-1a2,2,0,0,0-.5-1.5,2,2,0,0,0-3,1,96.26,96.26,0,0,1-7,12,2,2,0,0,0-.5,1.5c.33.67.66,1,1,1,0,.33.33.5,1,.5a1.61,1.61,0,0,0,1.5-1A77.5,77.5,0,0,0,203,288.67Zm-16-25.5q14-34,13.5-77a206,206,0,0,0-10.5-66.5q-10.5-31-28.5-49-16-15.49-34.25-15.5T93,70.67q-17.5,18-28,49a215.43,215.43,0,0,0-11,66.5q0,43,14,77,9.5,23,23.5,37.5a70.84,70.84,0,0,0,19.5,13.5,45.51,45.51,0,0,0,32.5,0,62.28,62.28,0,0,0,19.5-13.5Q177.52,286.16,187,263.17Zm13.5-184v-1a138.2,138.2,0,0,0-8-12.5,2,2,0,0,0-3.5,1,1.41,1.41,0,0,0,.5,1,115.75,115.75,0,0,1,7.5,12c.66.67,1.16,1,1.5,1h1A6,6,0,0,0,200.53,79.17ZM187,311.67a3.93,3.93,0,0,0-.5-1.5,1.59,1.59,0,0,0-2.5.5q-4.5,5-10,10c-1,1-1,1.83,0,2.5.33.67.75,1,1.25,1a1.72,1.72,0,0,0,1.25-.5,98.5,98.5,0,0,0,10-10.5A3.93,3.93,0,0,0,187,311.67Zm-4-254.5a2.52,2.52,0,0,0,0-3,137.52,137.52,0,0,0-11-10,2.49,2.49,0,0,0-2.5.5l-.5,1a1.59,1.59,0,0,0,1,1.5q4.5,4,10.5,10a1.81,1.81,0,0,0,2.5,0Zm-17.5,273.5-.5-1a1.59,1.59,0,0,0-2.5-.5,48.83,48.83,0,0,1-12.5,6c-.67.33-1,.67-1,1q-.51,1,0,1.5a1.59,1.59,0,0,0,1.5,1h1a59.41,59.41,0,0,0,13-6.5C164.86,332.17,165.19,331.67,165.53,330.67Zm-27,10v-.5a2,2,0,0,0-2-1.5,65.21,65.21,0,0,1-8,.5h-6c-1.34,0-2,.5-2,1.5-.34.33-.25.75.25,1.25a2,2,0,0,0,1.25.75h6.5a65.21,65.21,0,0,0,8-.5h1A1.61,1.61,0,0,0,138.53,340.67Zm-28.5-2.5v-.5q0-1-1.5-1.5a60.22,60.22,0,0,1-12.5-6,1.59,1.59,0,0,0-2.5.5q-.51,1,0,1.5a1.41,1.41,0,0,0,.5,1,71.57,71.57,0,0,0,13.5,6.5h.5A2,2,0,0,0,110,338.17Zm-2-302.5a1.83,1.83,0,0,0,1.5-2.5c-.34-1-1.17-1.33-2.5-1a69.62,69.62,0,0,0-13.5,6.5,2,2,0,0,0-.5,1.5v1a2,2,0,0,0,1.5.5h1v-.5Q103,37.68,108,35.67Zm-23.5,289a1.45,1.45,0,0,0,.5-1,1.61,1.61,0,0,0-1-1.5,70.54,70.54,0,0,1-10-10c-.67-.67-1.5-.67-2.5,0-1,1-1,1.83,0,2.5a56.93,56.93,0,0,0,10.5,10c.33.67.66,1,1,1A1.61,1.61,0,0,0,84.53,324.67Zm0-276a2,2,0,0,0-.5-1.5c-.67-1-1.5-1-2.5,0a94.21,94.21,0,0,0-10.5,10,1.41,1.41,0,0,0-.5,1,2,2,0,0,0,.5,1.5,1.81,1.81,0,0,0,2.5,0l.5-.5a98.23,98.23,0,0,1,10-9.5A1.45,1.45,0,0,0,84.53,48.67Zm-19,253.5a1.45,1.45,0,0,0-.5-1q-2.51-3.5-7.5-12a1.59,1.59,0,0,0-2.5-.5c-.67.33-1,.67-1,1a2,2,0,0,0,.5,1.5q3.49,6,7.5,12a1.59,1.59,0,0,0,1.5,1,1.47,1.47,0,0,0,1-.5A1.61,1.61,0,0,0,65.53,302.17ZM65,70.67a1.6,1.6,0,0,0-.5-2.5c-1-1-1.84-.83-2.5.5a124.43,124.43,0,0,0-8,12v1a2,2,0,0,0,.5,1.5,1.44,1.44,0,0,0,1,.5,1.47,1.47,0,0,0,1-.5l.5-.5A124.43,124.43,0,0,1,65,70.67ZM51,277.17v-.5q-2.51-5.51-5.5-13a1.83,1.83,0,0,0-2.5-1.5l-1,1q-.51.49,0,1.5,3,8,5.5,13.5a2,2,0,0,0,2,1H50A2,2,0,0,0,51,277.17Zm-.5-182q1-1.5-.75-2.25c-1.17-.5-1.92-.08-2.25,1.25a125.36,125.36,0,0,0-5.5,13.5.44.44,0,0,0-.5.5q0,1,1.5,1.5h.5c1,0,1.5-.33,1.5-1Q48,101.17,50.53,95.17Zm-9.5,155v-.5a70,70,0,0,1-3.5-14c-.34-.67-1.17-1-2.5-1-1,0-1.34.67-1,2a86.5,86.5,0,0,0,3.5,13.5v1a1.59,1.59,0,0,0,1.5,1h.5A2,2,0,0,0,41,250.17Zm-.5-128a1.4,1.4,0,0,0-1-2c-1.34-.67-2-.33-2,1q-1.5,4.5-4,14v.5a2,2,0,0,0,1.5,2h.5a2,2,0,0,0,2-1.5Q39.53,127.17,40.53,122.17Zm-7,101.5c1,0,1.5-.67,1.5-2a117.18,117.18,0,0,1-2-14,1.77,1.77,0,0,0-2-2c-1.34.33-1.84,1-1.5,2q.49,6,1.5,14.5a2,2,0,0,0,2,1.5Zm1.5-73.5a1.77,1.77,0,0,0-2-2,2,2,0,0,0-2,1.5q-.51,5-1.5,14.5v.5a1.33,1.33,0,0,0,1.5,1.5c1.33,0,2-.5,2-1.5Q34,156.17,35,150.17Zm-3,43.5v-14.5a2,2,0,0,0-.5-1.5,1.47,1.47,0,0,0-1-.5c-1.34,0-2,.5-2,1.5v15a2,2,0,0,0,2,1.5,1.47,1.47,0,0,0,1-.5Z" transform="translate(-1.02 -1.67)" fill="#fbea23"/><path d="M253.53,185.67q.5,53.51-17.5,98-13.5,32.5-35,54.5a121.16,121.16,0,0,1-37,25,91.76,91.76,0,0,1-36.5,7.5,95.32,95.32,0,0,1-37-7.5,115.1,115.1,0,0,1-36.5-25q-21.51-22-35-54.5-18.51-44.51-18-98,.5-46,15-86.5t40.5-66Q88,1.67,127.28,1.67t71.25,31.5q25.5,25.5,40.25,66T253.53,185.67Zm-5,0q-.51-45-14.75-84.5t-39.25-64q-30-30.5-67-30.5T60,37.17q-25,24.49-39.25,64T6.53,185.67q-.51,52.5,17.5,96,13,31.5,33.5,52.5a109.33,109.33,0,0,0,35,24q35,14.5,69.5,0a109.54,109.54,0,0,0,35-24q21-21,34-52.5Q248.52,238.17,248.53,185.67Z" transform="translate(-1.02 -1.67)" fill="#1d1d1b"/><path d="M223,174.67a1.44,1.44,0,0,1,1-.5h.5a1.33,1.33,0,0,1,1.5,1.5v14.5c0,1.33-.5,2-1.5,2a1.68,1.68,0,0,1-1.5-.75c-.34-.5-.34-.92,0-1.25v-4.5c0-1-.09-2.58-.25-4.75s-.25-3.75-.25-4.75v-.5A1.41,1.41,0,0,1,223,174.67Z" transform="translate(-1.02 -1.67)" fill="#5a5a5a"/><path d="M225,203.67a1.45,1.45,0,0,1,.5,1q0,2-1.5,14.5a1.33,1.33,0,0,1-1.5,1.5H222a1.44,1.44,0,0,1-1-.5,2,2,0,0,1-.5-1.5q1-9,1.5-14a1.77,1.77,0,0,1,2-2A.89.89,0,0,1,225,203.67Z" transform="translate(-1.02 -1.67)" fill="#5a5a5a"/><path d="M225,161.17q.5.5,0,1.5a3.93,3.93,0,0,1-1.5.5,2,2,0,0,1-2-1.5q0-2-1.5-14.5c-.34-1,.16-1.67,1.5-2,1.33,0,2,.5,2,1.5Q224.52,153.68,225,161.17Z" transform="translate(-1.02 -1.67)" fill="#5a5a5a"/><path d="M222,233.17v.5q-1.5,7-3.5,14a1.33,1.33,0,0,1-1.5,1.5h-.5a.88.88,0,0,1-1-1l-.5-1a111.41,111.41,0,0,0,3-14,1.82,1.82,0,0,1,2.5-1.5A1.33,1.33,0,0,1,222,233.17Z" transform="translate(-1.02 -1.67)" fill="#5a5a5a"/><path d="M221,132.17a2.31,2.31,0,0,1-1.5,2.5H219a2,2,0,0,1-2-1.5,107.7,107.7,0,0,0-3.5-14v-.5q.5-1.5,1.5-1.5a1.4,1.4,0,0,1,2,1Q218.53,123.68,221,132.17Z" transform="translate(-1.02 -1.67)" fill="#5a5a5a"/><path d="M214.53,261.17v.5q-2,5.5-5,14a2.89,2.89,0,0,1-2,1H207c-1.34-.67-1.67-1.5-1-2.5a102,102,0,0,0,5-13.5c.33-1,1.16-1.33,2.5-1A1.61,1.61,0,0,1,214.53,261.17Z" transform="translate(-1.02 -1.67)" fill="#5a5a5a"/><path d="M203.53,91.67c0-1,.33-1.5,1-1.5a2.14,2.14,0,0,1,2,0l.5.5v.5a123.08,123.08,0,0,1,5.5,13.5.63.63,0,0,1,0,1c-.34.67-.67,1-1,1H211a2,2,0,0,1-2-1,80.67,80.67,0,0,0-5.5-13v-1Z" transform="translate(-1.02 -1.67)" fill="#5a5a5a"/><path d="M203,287.67v1a77.5,77.5,0,0,1-7.5,12.5,1.61,1.61,0,0,1-1.5,1c-.67,0-1-.17-1-.5-.34,0-.67-.33-1-1a2,2,0,0,1,.5-1.5,96.26,96.26,0,0,0,7-12,2,2,0,0,1,3-1A2,2,0,0,1,203,287.67Z" transform="translate(-1.02 -1.67)" fill="#5a5a5a"/><path d="M200.53,186.17q.5,43-13.5,77-9.51,23-24,37.5a62.28,62.28,0,0,1-19.5,13.5,45.51,45.51,0,0,1-32.5,0,70.84,70.84,0,0,1-19.5-13.5q-14-14.51-23.5-37.5-14-34-14-77a215.43,215.43,0,0,1,11-66.5q10.5-31,28-49,16-15.49,34.25-15.5t34.25,15.5q18,18,28.5,49A206,206,0,0,1,200.53,186.17Zm-5,0a213,213,0,0,0-10.5-64.5q-10-30-27-47-15-14.51-30.75-14.5T97,74.67q-17,17-27.25,47t-10.25,64.5q0,42,13.5,75,9,22,22.5,35.5a58.77,58.77,0,0,0,17.5,12.5,35.34,35.34,0,0,0,28.5,0,56.8,56.8,0,0,0,18-12.5q13.5-13.5,22.5-35.5Q195.53,228.17,195.53,186.17Z" transform="translate(-1.02 -1.67)" fill="#1d1d1b"/><path d="M200.53,78.17v1a6,6,0,0,1-1,1.5h-1c-.34,0-.84-.33-1.5-1a115.75,115.75,0,0,0-7.5-12,1.41,1.41,0,0,1-.5-1,2,2,0,0,1,3.5-1A138.2,138.2,0,0,1,200.53,78.17Z" transform="translate(-1.02 -1.67)" fill="#5a5a5a"/><path d="M184,310.67a1.59,1.59,0,0,1,2.5-.5,2.5,2.5,0,0,1,0,3,98.5,98.5,0,0,1-10,10.5,1.72,1.72,0,0,1-1.25.5c-.5,0-.92-.33-1.25-1-1-.67-1-1.5,0-2.5Q179.52,315.67,184,310.67Z" transform="translate(-1.02 -1.67)" fill="#5a5a5a"/><path d="M180.53,57.17q-6-6-10.5-10a1.59,1.59,0,0,1-1-1.5l.5-1a2.49,2.49,0,0,1,2.5-.5,137.52,137.52,0,0,1,11,10,2.52,2.52,0,0,1,0,3,1.81,1.81,0,0,1-2.5,0Z" transform="translate(-1.02 -1.67)" fill="#5a5a5a"/><path d="M165,329.67l.5,1c-.34,1-.67,1.5-1,1.5a59.41,59.41,0,0,1-13,6.5h-1a1.59,1.59,0,0,1-1.5-1q-.51-.5,0-1.5c0-.33.33-.67,1-1a48.83,48.83,0,0,0,12.5-6A1.59,1.59,0,0,1,165,329.67Z" transform="translate(-1.02 -1.67)" fill="#5a5a5a"/><path d="M144.53,34.17l-.5,6.5-16.48-10v0l18-7-1,7.5q1-.5,1.5,0a67.86,67.86,0,0,1,13.5,5.5.89.89,0,0,1,1,1v1.5a2.07,2.07,0,0,1-1.5.5h-1a64.57,64.57,0,0,0-13-5Z" transform="translate(-1.02 -1.67)" fill="#5a5a5a"/><path d="M138.53,340.17v.5a1.61,1.61,0,0,1-1,1.5h-1a65.21,65.21,0,0,1-8,.5H122a2,2,0,0,1-1.25-.75c-.5-.5-.59-.92-.25-1.25,0-1,.66-1.5,2-1.5h6a65.21,65.21,0,0,0,8-.5A2,2,0,0,1,138.53,340.17Z" transform="translate(-1.02 -1.67)" fill="#5a5a5a"/><path d="M127.55,30.66v0h0Z" transform="translate(-1.02 -1.67)" fill="#1d1d1b"/><path d="M127.53,30.67h0c.23,3.33-1.45,5.17-5,5.49s-5.67-1.25-6-4.75,1.33-5.42,5-5.75,5.66,1.25,6,4.75a1.94,1.94,0,0,1,0,.24Z" transform="translate(-1.02 -1.67)" fill="#5a5a5a"/><path d="M110,337.67v.5a2,2,0,0,1-2,1.5h-.5a71.57,71.57,0,0,1-13.5-6.5,1.41,1.41,0,0,1-.5-1q-.51-.5,0-1.5a1.59,1.59,0,0,1,2.5-.5,60.22,60.22,0,0,0,12.5,6Q110,336.67,110,337.67Z" transform="translate(-1.02 -1.67)" fill="#5a5a5a"/><path d="M93,41.17v-1a2,2,0,0,1,.5-1.5,69.62,69.62,0,0,1,13.5-6.5c1.33-.33,2.16,0,2.5,1a1.83,1.83,0,0,1-1.5,2.5q-5,2-12.5,5.5v.5h-1A2,2,0,0,1,93,41.17Z" transform="translate(-1.02 -1.67)" fill="#5a5a5a"/><path d="M84,47.17a2,2,0,0,1,.5,1.5,1.45,1.45,0,0,1-.5,1,98.23,98.23,0,0,0-10,9.5l-.5.5a1.81,1.81,0,0,1-2.5,0,2,2,0,0,1-.5-1.5,1.41,1.41,0,0,1,.5-1,94.21,94.21,0,0,1,10.5-10C82.53,46.17,83.36,46.17,84,47.17Z" transform="translate(-1.02 -1.67)" fill="#5a5a5a"/><path d="M74,312.17a70.54,70.54,0,0,0,10,10,1.61,1.61,0,0,1,1,1.5,1.45,1.45,0,0,1-.5,1,1.61,1.61,0,0,1-1.5,1c-.34,0-.67-.33-1-1a56.93,56.93,0,0,1-10.5-10c-1-.67-1-1.5,0-2.5C72.53,311.5,73.36,311.5,74,312.17Z" transform="translate(-1.02 -1.67)" fill="#5a5a5a"/><path d="M65,301.17a1.45,1.45,0,0,1,.5,1,1.61,1.61,0,0,1-1,1.5,1.47,1.47,0,0,1-1,.5,1.59,1.59,0,0,1-1.5-1q-4-6-7.5-12a2,2,0,0,1-.5-1.5c0-.33.33-.67,1-1a1.59,1.59,0,0,1,2.5.5Q62.53,297.67,65,301.17Z" transform="translate(-1.02 -1.67)" fill="#5a5a5a"/><path d="M54.53,83.17a2,2,0,0,1-.5-1.5v-1a124.43,124.43,0,0,1,8-12c.66-1.33,1.5-1.5,2.5-.5a1.6,1.6,0,0,1,.5,2.5,124.43,124.43,0,0,0-8,12l-.5.5a1.47,1.47,0,0,1-1,.5A1.44,1.44,0,0,1,54.53,83.17Z" transform="translate(-1.02 -1.67)" fill="#5a5a5a"/><path d="M51,276.67v.5a2,2,0,0,1-1,2h-.5a2,2,0,0,1-2-1Q45,272.66,42,264.67q-.51-1,0-1.5l1-1a1.83,1.83,0,0,1,2.5,1.5Q48.53,271.17,51,276.67Z" transform="translate(-1.02 -1.67)" fill="#5a5a5a"/><path d="M49.78,92.92q1.74.75.75,2.25-2.51,6-5.5,13.5c0,.67-.5,1-1.5,1H43q-1.5-.49-1.5-1.5a.44.44,0,0,1,.5-.5,125.36,125.36,0,0,1,5.5-13.5C47.86,92.84,48.61,92.42,49.78,92.92Z" transform="translate(-1.02 -1.67)" fill="#5a5a5a"/><path d="M41,249.67v.5a2,2,0,0,1-1.5,2H39a1.59,1.59,0,0,1-1.5-1v-1a86.5,86.5,0,0,1-3.5-13.5c-.34-1.33,0-2,1-2,1.33,0,2.16.33,2.5,1A70,70,0,0,0,41,249.67Z" transform="translate(-1.02 -1.67)" fill="#5a5a5a"/><path d="M39.53,120.17a1.4,1.4,0,0,1,1,2q-1,5-3,14a2,2,0,0,1-2,1.5H35a2,2,0,0,1-1.5-2v-.5q2.49-9.49,4-14C37.53,119.84,38.19,119.5,39.53,120.17Z" transform="translate(-1.02 -1.67)" fill="#5a5a5a"/><path d="M35,221.67c0,1.33-.5,2-1.5,2H33a2,2,0,0,1-2-1.5q-1-8.5-1.5-14.5c-.34-1,.16-1.67,1.5-2a1.77,1.77,0,0,1,2,2A117.18,117.18,0,0,0,35,221.67Z" transform="translate(-1.02 -1.67)" fill="#5a5a5a"/><path d="M33,148.17a1.77,1.77,0,0,1,2,2q-1,6-2,14.5c0,1-.67,1.5-2,1.5a1.33,1.33,0,0,1-1.5-1.5v-.5q1-9.49,1.5-14.5A2,2,0,0,1,33,148.17Z" transform="translate(-1.02 -1.67)" fill="#5a5a5a"/><path d="M32,193.17v.5l-.5,1a1.47,1.47,0,0,1-1,.5,2,2,0,0,1-2-1.5v-15c0-1,.66-1.5,2-1.5a1.47,1.47,0,0,1,1,.5,2,2,0,0,1,.5,1.5v14Z" transform="translate(-1.02 -1.67)" fill="#5a5a5a"/></svg>