<svg id="Layer_1" data-name="Layer 1" xmlns="http://www.w3.org/2000/svg" viewBox="0 0 178.14 365.55"><path d="M83.06,37.17l-17.5,8,13.5,11Zm1.5-3.25a5.13,5.13,0,0,0,5.25,5.25,6,6,0,0,0,4-1.5,4.89,4.89,0,0,0,0-7.5,6,6,0,0,0-4-1.5,5.13,5.13,0,0,0-5.25,5.25Zm82,286.75a23.54,23.54,0,0,1,0,33.5,23.13,23.13,0,0,1-17,7H26.06l-6-2a20.88,20.88,0,0,1-7.5-5.5,21.08,21.08,0,0,1-4-5.5,44.83,44.83,0,0,1-1.5-5.5,24.37,24.37,0,0,1,0-12,35.33,35.33,0,0,1,2.5-5,15.9,15.9,0,0,1,4.5-6,19.41,19.41,0,0,1,7-4.5,26.17,26.17,0,0,1,5.5-1.5h37c1.67,0,2.5-1,2.5-3v-204a2.31,2.31,0,0,0-1.75-2.5,3.16,3.16,0,0,0-3.25,1l-5.5,7a24.62,24.62,0,0,1-8.5,7q-13.5,6.49-25-3a21.74,21.74,0,0,1-9-15.75,24.46,24.46,0,0,1,5-17.75l53-67a24.62,24.62,0,0,1,8.5-7,22.16,22.16,0,0,1,13.25-2,25.22,25.22,0,0,1,12.75,5.5,21.87,21.87,0,0,1,5,6,21.21,21.21,0,0,1,3,9.5,4.48,4.48,0,0,1,.5,2v281c0,2,.83,3,2.5,3h33A23.13,23.13,0,0,1,166.56,320.67Zm-20.5,24,17.5-9-17.5-8.5v7h-4c-1,0-1.5.58-1.5,1.75s.5,1.75,1.5,1.75h4Zm-16.5-8.75c0-1.17-.5-1.75-1.5-1.75h-14.5c-1.33,0-2,.58-2,1.75s.67,1.75,2,1.75h14.5C129.06,337.67,129.56,337.09,129.56,335.92Zm-29,0c0-1.17-.5-1.75-1.5-1.75H84.56c-1.33,0-2,.58-2,1.75s.67,1.75,2,1.75h14.5C100.06,337.67,100.56,337.09,100.56,335.92Zm-10.5-5.25,8.5-17h-7v-2.5c0-1.33-.5-2-1.5-2a1.77,1.77,0,0,0-2,2v2.5h-7Zm1.5-34v-14.5c0-1.33-.5-2-1.5-2a1.77,1.77,0,0,0-2,2v14.5c0,1,.67,1.5,2,1.5A1.33,1.33,0,0,0,91.56,296.67Zm0-29v-14.5a1.33,1.33,0,0,0-1.5-1.5c-1.33,0-2,.5-2,1.5v14.5a1.77,1.77,0,0,0,2,2C91.06,269.67,91.56,269,91.56,267.67Zm0-29v-14c0-1.33-.5-2-1.5-2a1.77,1.77,0,0,0-2,2v14a1.77,1.77,0,0,0,2,2C91.06,240.67,91.56,240,91.56,238.67Zm0-28.5v-14.5c0-1.33-.5-2-1.5-2a1.77,1.77,0,0,0-2,2v14.5c0,1,.67,1.5,2,1.5A1.33,1.33,0,0,0,91.56,210.17Zm0-29v-14.5a1.33,1.33,0,0,0-1.5-1.5c-1.33,0-2,.5-2,1.5v14.5a1.77,1.77,0,0,0,2,2C91.06,183.17,91.56,182.5,91.56,181.17Zm0-28.5v-14.5c0-1.33-.5-2-1.5-2a1.77,1.77,0,0,0-2,2v14.5c0,1,.67,1.5,2,1.5A1.33,1.33,0,0,0,91.56,152.67Zm0-29v-14.5c0-1.33-.5-2-1.5-2a1.77,1.77,0,0,0-2,2v14.5a1.77,1.77,0,0,0,2,2C91.06,125.67,91.56,125,91.56,123.67Zm0-29V80.17a1.33,1.33,0,0,0-1.5-1.5c-1.33,0-2,.5-2,1.5v14.5a1.77,1.77,0,0,0,2,2C91.06,96.67,91.56,96,91.56,94.67Zm0-28.5V51.67c0-1.33-.5-2-1.5-2a1.77,1.77,0,0,0-2,2v14.5c0,1,.67,1.5,2,1.5A1.33,1.33,0,0,0,91.56,66.17Zm-21-10c.67-.67.5-1.5-.5-2.5a1.59,1.59,0,0,0-2.5.5q-3,3.49-9,11a2,2,0,0,0-.5,1.5c0,.33.33.67,1,1,0,.33.33.5,1,.5a2,2,0,0,0,1.5-.5q1.5-2,4.5-5.75T70.56,56.17Zm1.5,279.75c0-1.17-.67-1.75-2-1.75H55.56c-1.33,0-2,.58-2,1.75s.67,1.75,2,1.75h14.5C71.39,337.67,72.06,337.09,72.06,335.92ZM52.56,79.17a2.17,2.17,0,0,0-.5-3,2.27,2.27,0,0,0-2.5.5,98.54,98.54,0,0,0-7.5,10q-4-1.5-6,1.5-3.5,4.5.75,7.75t7.75-.75a5.79,5.79,0,0,0,0-6.5,26.16,26.16,0,0,0,4-5Zm-9.5,256.75c0-1.17-.67-1.75-2-1.75h-6a4.72,4.72,0,0,0-5-4,5.24,5.24,0,0,0-2.75.75,4.08,4.08,0,0,0-1.75,2,7.39,7.39,0,0,0-.5,2.75,5.4,5.4,0,0,0,1.5,4,4.8,4.8,0,0,0,3.5,1.5c2.67,0,4.33-1.17,5-3.5h6C42.39,337.67,43.06,337.09,43.06,335.92Z" transform="translate(-0.92 -1.12)" fill="#fbea23"/><path d="M170.31,316.67a29,29,0,0,1,0,41.5,28.75,28.75,0,0,1-20.75,8.5H30.06a18.72,18.72,0,0,1-4.5-.5,19.92,19.92,0,0,1-7.5-2.5,23.09,23.09,0,0,1-9.5-6.5,35.69,35.69,0,0,1-4.5-7,38,38,0,0,1-2.5-6.5,30.42,30.42,0,0,1,.5-14.5,25.25,25.25,0,0,1,2.5-6,42.38,42.38,0,0,1,6-7.5,33.71,33.71,0,0,1,8.5-5.5,51.45,51.45,0,0,1,7-1.5,16.6,16.6,0,0,1,4-.5h30.5V114.67l-1,1a23.29,23.29,0,0,1-10,8,30.81,30.81,0,0,1-16,2.75,28.13,28.13,0,0,1-15-5.75,27.56,27.56,0,0,1-10.75-19.5,30.31,30.31,0,0,1,6.25-22l26.5-33.5q24-30.5,27-33l-.5-.5a23.29,23.29,0,0,1,10-8,26.46,26.46,0,0,1,16.5-2.75,29.73,29.73,0,0,1,15.5,6.75,27.16,27.16,0,0,1,6,7.5,31.15,31.15,0,0,1,4,11v281.5h30.5A28.75,28.75,0,0,1,170.31,316.67Zm3.25,20.75a22.85,22.85,0,0,0-7-16.75,23.13,23.13,0,0,0-17-7h-33c-1.67,0-2.5-1-2.5-3v-281a4.48,4.48,0,0,0-.5-2,21.21,21.21,0,0,0-3-9.5,21.87,21.87,0,0,0-5-6,25.22,25.22,0,0,0-12.75-5.5,22.16,22.16,0,0,0-13.25,2,24.62,24.62,0,0,0-8.5,7l-53,67a24.46,24.46,0,0,0-5,17.75,21.74,21.74,0,0,0,9,15.75q11.51,9.49,25,3a24.62,24.62,0,0,0,8.5-7l5.5-7a3.16,3.16,0,0,1,3.25-1,2.31,2.31,0,0,1,1.75,2.5v204c0,2-.83,3-2.5,3h-37a26.17,26.17,0,0,0-5.5,1.5,19.41,19.41,0,0,0-7,4.5,15.9,15.9,0,0,0-4.5,6,35.33,35.33,0,0,0-2.5,5,24.37,24.37,0,0,0,0,12,44.83,44.83,0,0,0,1.5,5.5,21.08,21.08,0,0,0,4,5.5,20.88,20.88,0,0,0,7.5,5.5l6,2h123.5a23.13,23.13,0,0,0,17-7A22.85,22.85,0,0,0,173.56,337.42Z" transform="translate(-0.92 -1.12)" fill="#1d1d1b"/><path d="M163.56,335.67l-17.5,9v-7h-4c-1,0-1.5-.58-1.5-1.75s.5-1.75,1.5-1.75h4v-7Z" transform="translate(-0.92 -1.12)" fill="#5a5a5a"/><path d="M128.06,334.17c1,0,1.5.58,1.5,1.75s-.5,1.75-1.5,1.75h-14.5c-1.33,0-2-.58-2-1.75s.67-1.75,2-1.75Z" transform="translate(-0.92 -1.12)" fill="#5a5a5a"/><path d="M99.06,334.17c1,0,1.5.58,1.5,1.75s-.5,1.75-1.5,1.75H84.56c-1.33,0-2-.58-2-1.75s.67-1.75,2-1.75Z" transform="translate(-0.92 -1.12)" fill="#5a5a5a"/><path d="M98.56,313.67l-8.5,17-9-17h7v-2.5a1.77,1.77,0,0,1,2-2c1,0,1.5.67,1.5,2v2.5Z" transform="translate(-0.92 -1.12)" fill="#5a5a5a"/><path d="M93.81,30.17a4.89,4.89,0,0,1,0,7.5,6,6,0,0,1-4,1.5,5.25,5.25,0,1,1,0-10.5A6,6,0,0,1,93.81,30.17Z" transform="translate(-0.92 -1.12)" fill="#5a5a5a"/><path d="M91.56,282.17v14.5a1.33,1.33,0,0,1-1.5,1.5c-1.33,0-2-.5-2-1.5v-14.5a1.77,1.77,0,0,1,2-2C91.06,280.17,91.56,280.84,91.56,282.17Z" transform="translate(-0.92 -1.12)" fill="#5a5a5a"/><path d="M91.56,253.17v14.5c0,1.33-.5,2-1.5,2a1.77,1.77,0,0,1-2-2v-14.5c0-1,.67-1.5,2-1.5A1.33,1.33,0,0,1,91.56,253.17Z" transform="translate(-0.92 -1.12)" fill="#5a5a5a"/><path d="M91.56,224.67v14c0,1.33-.5,2-1.5,2a1.77,1.77,0,0,1-2-2v-14a1.77,1.77,0,0,1,2-2C91.06,222.67,91.56,223.34,91.56,224.67Z" transform="translate(-0.92 -1.12)" fill="#5a5a5a"/><path d="M91.56,195.67v14.5a1.33,1.33,0,0,1-1.5,1.5c-1.33,0-2-.5-2-1.5v-14.5a1.77,1.77,0,0,1,2-2C91.06,193.67,91.56,194.34,91.56,195.67Z" transform="translate(-0.92 -1.12)" fill="#5a5a5a"/><path d="M91.56,166.67v14.5c0,1.33-.5,2-1.5,2a1.77,1.77,0,0,1-2-2v-14.5c0-1,.67-1.5,2-1.5A1.33,1.33,0,0,1,91.56,166.67Z" transform="translate(-0.92 -1.12)" fill="#5a5a5a"/><path d="M91.56,138.17v14.5a1.33,1.33,0,0,1-1.5,1.5c-1.33,0-2-.5-2-1.5v-14.5a1.77,1.77,0,0,1,2-2C91.06,136.17,91.56,136.84,91.56,138.17Z" transform="translate(-0.92 -1.12)" fill="#5a5a5a"/><path d="M91.56,109.17v14.5c0,1.33-.5,2-1.5,2a1.77,1.77,0,0,1-2-2v-14.5a1.77,1.77,0,0,1,2-2C91.06,107.17,91.56,107.84,91.56,109.17Z" transform="translate(-0.92 -1.12)" fill="#5a5a5a"/><path d="M91.56,80.17v14.5c0,1.33-.5,2-1.5,2a1.77,1.77,0,0,1-2-2V80.17c0-1,.67-1.5,2-1.5A1.33,1.33,0,0,1,91.56,80.17Z" transform="translate(-0.92 -1.12)" fill="#5a5a5a"/><path d="M91.56,51.67v14.5a1.33,1.33,0,0,1-1.5,1.5c-1.33,0-2-.5-2-1.5V51.67a1.77,1.77,0,0,1,2-2C91.06,49.67,91.56,50.34,91.56,51.67Z" transform="translate(-0.92 -1.12)" fill="#5a5a5a"/><polygon points="82.14 36.05 78.14 55.05 64.64 44.05 82.14 36.05" fill="#5a5a5a"/><path d="M70.06,53.67c1,1,1.17,1.83.5,2.5q-1.5,2-4.5,5.75t-4.5,5.75a2,2,0,0,1-1.5.5c-.67,0-1-.17-1-.5-.67-.33-1-.67-1-1a2,2,0,0,1,.5-1.5q6-7.5,9-11A1.59,1.59,0,0,1,70.06,53.67Z" transform="translate(-0.92 -1.12)" fill="#5a5a5a"/><path d="M70.06,334.17c1.33,0,2,.58,2,1.75s-.67,1.75-2,1.75H55.56c-1.33,0-2-.58-2-1.75s.67-1.75,2-1.75Z" transform="translate(-0.92 -1.12)" fill="#5a5a5a"/><path d="M52.06,76.17a2.17,2.17,0,0,1,.5,3l-4,4.5a26.16,26.16,0,0,1-4,5,5.79,5.79,0,0,1,0,6.5q-3.5,4-7.75.75t-.75-7.75q2-3,6-1.5a98.54,98.54,0,0,1,7.5-10A2.27,2.27,0,0,1,52.06,76.17Z" transform="translate(-0.92 -1.12)" fill="#5a5a5a"/><path d="M41.06,334.17c1.33,0,2,.58,2,1.75s-.67,1.75-2,1.75h-6c-.67,2.33-2.33,3.5-5,3.5a4.8,4.8,0,0,1-3.5-1.5,5.4,5.4,0,0,1-1.5-4,7.39,7.39,0,0,1,.5-2.75,4.08,4.08,0,0,1,1.75-2,5.24,5.24,0,0,1,2.75-.75,4.72,4.72,0,0,1,5,4Z" transform="translate(-0.92 -1.12)" fill="#5a5a5a"/></svg>