<svg id="Layer_1" data-name="Layer 1" xmlns="http://www.w3.org/2000/svg" viewBox="0 0 218.32 370.58"><path d="M105,176.15l19,4.5-1.5-7q6-2,10.5-4c1-.33,1.33-1.16,1-2.5a2,2,0,0,0-2.5-1q-4.5,2-10,4l-1.5-6.5Zm-1,3.5c-.67-2.66-2.17-4-4.5-4q-5.51-1-6,4.5t4.5,6c2.66.34,4.5-.66,5.5-3q6.49,1,13,2.5h.5q1,0,1.5-1.5v-.5a1.33,1.33,0,0,0-1.5-1.5Q115,181.65,104,179.65Zm109,63.5q6.5,31.5-7.5,62a104.08,104.08,0,0,1-45,48.5,101.72,101.72,0,0,1-50,13q-49.5,0-95-42A23.71,23.71,0,0,1,8.23,307.9a23.21,23.21,0,0,1,6.5-17,23.71,23.71,0,0,1,16.75-7.75H32a23.48,23.48,0,0,1,16.5,6.5q27.5,25.5,54.5,29a56.7,56.7,0,0,0,59-34q7.5-16,4.5-32-3-15-15.5-26-22.5-20.49-68-25.5a24.24,24.24,0,0,1-8.75-2.75A21.56,21.56,0,0,1,67,192.15a18.2,18.2,0,0,1-4-8.5,25.2,25.2,0,0,1-1-7,23.21,23.21,0,0,1,5.5-15.5,24.26,24.26,0,0,1,16.5-8.5q40.5-3.5,60-20.5,10-9,13-20.5a41,41,0,0,0-3-25,52.6,52.6,0,0,0-54.5-31.5q-25.5,2-52.5,26a23.55,23.55,0,0,1-17.25,6,23,23,0,0,1-16.5-8,22.63,22.63,0,0,1-6-17.5,23.36,23.36,0,0,1,8.25-16.5q38.49-34,80-38,33.49-3,61.5,14a94.46,94.46,0,0,1,41,46.5q12,27,5.5,54.5-6,27-28.5,46.5-3.51,3-7.5,6a1.63,1.63,0,0,0-1.25,2,4.39,4.39,0,0,0,1.25,2.5,89.91,89.91,0,0,1,15.5,11.5Q207,213.15,213,243.15Zm-18,15v-.5a102.38,102.38,0,0,0-2-14c-.34-1.66-1-2.16-2-1.5-1.34.34-1.84,1-1.5,2a89.34,89.34,0,0,1,2,14c0,1.34.5,2,1.5,2C194.31,259.82,195,259.15,195,258.15Zm-1.5,15a1.83,1.83,0,0,0-1.5-2.5c-1.34,0-2,.5-2,1.5a62.32,62.32,0,0,1-3.5,13.5,1.43,1.43,0,0,0-.5,1q0,1,1.5,1.5h.5a1.61,1.61,0,0,0,1.5-1A86.42,86.42,0,0,0,193.48,273.15Zm-5.5-42.5v-1l-.5-.5a63.56,63.56,0,0,0-7.5-12,1.6,1.6,0,0,0-2.5-.5c-1,.67-1.17,1.67-.5,3a51.3,51.3,0,0,1,8,11.5.88.88,0,0,0,1,1h1A1.61,1.61,0,0,0,188,230.65Zm-4.5,69.5a2,2,0,0,0-1-2.5,1.6,1.6,0,0,0-2.5.5,58.66,58.66,0,0,1-8,11.5,1.81,1.81,0,0,0,0,2.5,1.4,1.4,0,0,0,1,.5h1.5v-.5Q179,306.66,183.48,300.15Zm-2.5-196q.5-1,0-1.5a2,2,0,0,0-2.25-.5c-.84.34-1.25.84-1.25,1.5a58.08,58.08,0,0,1-1.5,14v.5c0,1,.33,1.5,1,1.5h.5a2,2,0,0,0,2-1A69,69,0,0,0,181,104.15Zm-1-14v-.5a77.21,77.21,0,0,0-4-14c-.34-1.33-1-1.66-2-1a1.15,1.15,0,0,0-1.25.75,2.23,2.23,0,0,0,.25,1.75,62.62,62.62,0,0,1,3.5,13.5q.5,1.5,1.5,1.5h.5A2,2,0,0,0,180,90.15Zm-5.5,41.5a1.6,1.6,0,0,0-.5-2.5c-1.34-.33-2.17,0-2.5,1a55.46,55.46,0,0,1-7.5,12,1.43,1.43,0,0,0-.5,1,1.59,1.59,0,0,0,1,1.5,1.4,1.4,0,0,0,1,.5,1.61,1.61,0,0,0,1.5-1A51.68,51.68,0,0,0,174.48,131.65Zm-4-68-.5-.5a94.58,94.58,0,0,0-9-12c-.67-1-1.5-1-2.5,0-.67.34-.67,1.17,0,2.5a86.77,86.77,0,0,1,8.5,11,1.59,1.59,0,0,0,1.5,1h1A2.89,2.89,0,0,0,170.48,63.65Zm-.5,145.5a2,2,0,0,0,.5-1.5c0-.33-.34-.66-1-1v-.5a114.63,114.63,0,0,0-11.5-8.5,2.28,2.28,0,0,0-2.5.5,2.17,2.17,0,0,0,.5,3,51.3,51.3,0,0,1,11.5,8,1.4,1.4,0,0,0,1,.5A2,2,0,0,0,170,209.15Zm-5.5,112v-1.5c-1-1-1.84-1-2.5,0q-7,5-12,8a1.61,1.61,0,0,0-1,1.5,1.4,1.4,0,0,0,.5,1,1.59,1.59,0,0,0,1.5,1,1.43,1.43,0,0,0,1-.5,124.43,124.43,0,0,0,12-8A3.83,3.83,0,0,0,164.48,321.15ZM157,154.65c1-1,1.16-1.83.5-2.5a1.6,1.6,0,0,0-2.5-.5,79.18,79.18,0,0,1-11.5,8.5,1.61,1.61,0,0,0-1,1.5v1a2.85,2.85,0,0,0,2,1,.44.44,0,0,0,.5-.5A60,60,0,0,0,157,154.65Zm-5.5-110.5a1.7,1.7,0,0,0,.5-1.25,2.78,2.78,0,0,0-1-1.75,103.73,103.73,0,0,0-12.5-7.5,1.6,1.6,0,0,0-2.5.5v1.5c.33.34.66.67,1,1a78.81,78.81,0,0,1,12,7.5c0,.34.33.5,1,.5A2,2,0,0,0,151.48,44.15ZM146,193.65v-1a1.62,1.62,0,0,0-1-1.5q-7-3-13.5-5.5a1.82,1.82,0,0,0-2.5,1.5,1.39,1.39,0,0,0,1,2,75.78,75.78,0,0,1,13.5,5.5h.5A2,2,0,0,0,146,193.65Zm-6.5,142a.63.63,0,0,0,0-1c-.34-1.33-1-1.66-2-1a105.45,105.45,0,0,1-14,3.5,1.33,1.33,0,0,0-1.5,1.5v.5a2,2,0,0,0,2,1.5q9-2,14.5-3.5A6,6,0,0,0,139.48,335.65ZM127,30.65v-.5c0-.66-.5-1.33-1.5-2a60.55,60.55,0,0,0-14.5-2c-1.34-.33-2,.17-2,1.5,0,.67.16,1,.5,1,.33.67.66,1,1,1a78.69,78.69,0,0,1,14,2.5h.5A2,2,0,0,0,127,30.65Zm-15.5,309c0-1-.67-1.5-2-1.5a98.28,98.28,0,0,1-14-1c-1.34,0-2,.34-2,1v.5a2,2,0,0,0,1.5,2,126.19,126.19,0,0,0,14.5,1A1.77,1.77,0,0,0,111.48,339.65ZM99,28.15v-.5a2,2,0,0,0-2-1.5,85.88,85.88,0,0,0-14.5,3c-.34,0-.67.34-1,1a.62.62,0,0,0,0,1,1.33,1.33,0,0,0,1.5,1.5h.5a74,74,0,0,1,13.5-3C98.31,29.65,99,29.15,99,28.15Zm-16,308v-1.5l-1-1a92.7,92.7,0,0,1-13.5-5,2,2,0,0,0-2.5,1v.5a2,2,0,0,0,1,2,100.59,100.59,0,0,0,13.5,5h1A1.61,1.61,0,0,0,83,336.15ZM72,35.65a.44.44,0,0,0-.5-.5c-.34-1.33-1-1.66-2-1a62,62,0,0,0-13,7c-.34,0-.67.34-1,1a2,2,0,0,0,.5,1.5c0,.34.5.5,1.5.5H58a133.43,133.43,0,0,1,13-7A1.61,1.61,0,0,0,72,35.65Zm-15.5,289a1.6,1.6,0,0,0-.5-2.5l-9-6,4-5-19-4,8.5,17.5,4-5.5q6,3.51,9.5,6l1,.5A1.61,1.61,0,0,0,56.48,324.65ZM48,50.4a1.72,1.72,0,0,0-.5-1.25c-1-1-1.84-1-2.5,0h-.5c-2.34,2-4.5,3.84-6.5,5.5-2.34-1.33-4.5-1-6.5,1q-4,3.51-.25,7.5t7.75.5a5,5,0,0,0,1-6q5-4,7-6C47.64,51.32,48,50.9,48,50.4Z" transform="translate(-2.17 -1.57)" fill="#fbea23"/><path d="M218.48,242.15q6.5,33-8,65a111.26,111.26,0,0,1-47.5,51.5,107.13,107.13,0,0,1-52.5,13.5q-52,0-98.5-44a29.27,29.27,0,0,1-1.25-41A28.12,28.12,0,0,1,31,277.65a27.86,27.86,0,0,1,21,8q26,24.51,51.5,27.5a46,46,0,0,0,31-6,53.48,53.48,0,0,0,22.5-24.5q7-14.49,4-29-2.5-13-13.5-23.5-21-19-65-24a28.13,28.13,0,0,1-11-3.5,24.42,24.42,0,0,1-8.5-7,27.79,27.79,0,0,1-5-10.5,24,24,0,0,1-1.5-8.5,27.9,27.9,0,0,1,7-19,27.14,27.14,0,0,1,20-10.5q39-3,57-19,9-8,11-17.5a35.92,35.92,0,0,0-2-22,46.29,46.29,0,0,0-19.5-22,48.75,48.75,0,0,0-30-6.5q-24,2.51-49.5,25a27,27,0,0,1-21,7,26.91,26.91,0,0,1-20-9.75A28.6,28.6,0,0,1,2.23,61.15a28.16,28.16,0,0,1,9.75-20q39.5-35,83-39,35-3.49,64.75,14.25A103.64,103.64,0,0,1,203,65.65q12.5,28.5,5.5,58-6.51,28.5-30,49l-5,4a97.05,97.05,0,0,1,13,10Q212,210.15,218.48,242.15Zm-13,63q14-30.5,7.5-62-6-30-30-52.5a89.91,89.91,0,0,0-15.5-11.5,4.39,4.39,0,0,1-1.25-2.5,1.63,1.63,0,0,1,1.25-2q4-3,7.5-6,22.5-19.5,28.5-46.5,6.5-27.5-5.5-54.5a94.46,94.46,0,0,0-41-46.5q-28-17-61.5-14-41.5,4-80,38a23.36,23.36,0,0,0-8.25,16.5,22.63,22.63,0,0,0,6,17.5,23,23,0,0,0,16.5,8,23.55,23.55,0,0,0,17.25-6q27-24,52.5-26A52.6,52.6,0,0,1,154,86.65a41,41,0,0,1,3,25q-3,11.5-13,20.5-19.5,17-60,20.5a24.26,24.26,0,0,0-16.5,8.5,23.21,23.21,0,0,0-5.5,15.5,25.2,25.2,0,0,0,1,7,18.2,18.2,0,0,0,4,8.5,21.56,21.56,0,0,0,7.25,6.25A24.24,24.24,0,0,0,83,201.15q45.49,5,68,25.5,12.5,11,15.5,26,3,16-4.5,32a56.7,56.7,0,0,1-59,34q-27-3.5-54.5-29a23.48,23.48,0,0,0-16.5-6.5h-.5a23.71,23.71,0,0,0-16.75,7.75,23.21,23.21,0,0,0-6.5,17,23.71,23.71,0,0,0,7.25,16.75q45.5,42,95,42a101.72,101.72,0,0,0,50-13A104.08,104.08,0,0,0,205.48,305.15Z" transform="translate(-2.17 -1.57)" fill="#1d1d1b"/><path d="M195,257.65v.5c0,1-.67,1.67-2,2-1,0-1.5-.66-1.5-2a89.34,89.34,0,0,0-2-14c-.34-1,.16-1.66,1.5-2,1-.66,1.66-.16,2,1.5A102.38,102.38,0,0,1,195,257.65Z" transform="translate(-2.17 -1.57)" fill="#5a5a5a"/><path d="M192,270.65a1.83,1.83,0,0,1,1.5,2.5,86.42,86.42,0,0,1-4,14,1.61,1.61,0,0,1-1.5,1h-.5q-1.5-.5-1.5-1.5a1.43,1.43,0,0,1,.5-1,62.32,62.32,0,0,0,3.5-13.5C190,271.15,190.64,270.65,192,270.65Z" transform="translate(-2.17 -1.57)" fill="#5a5a5a"/><path d="M188,230.65a1.61,1.61,0,0,1-1,1.5h-1a.88.88,0,0,1-1-1,51.3,51.3,0,0,0-8-11.5c-.67-1.33-.5-2.33.5-3a1.6,1.6,0,0,1,2.5.5,63.56,63.56,0,0,1,7.5,12l.5.5Z" transform="translate(-2.17 -1.57)" fill="#5a5a5a"/><path d="M181,102.65q.5.51,0,1.5a69,69,0,0,1-1.5,14.5,2,2,0,0,1-2,1H177c-.67,0-1-.5-1-1.5v-.5a58.08,58.08,0,0,0,1.5-14c0-.66.41-1.16,1.25-1.5A2,2,0,0,1,181,102.65Z" transform="translate(-2.17 -1.57)" fill="#5a5a5a"/><path d="M180,89.65v.5a2,2,0,0,1-1.5,2H178q-1,0-1.5-1.5a62.62,62.62,0,0,0-3.5-13.5,2.23,2.23,0,0,1-.25-1.75,1.15,1.15,0,0,1,1.25-.75c1-.66,1.66-.33,2,1A77.21,77.21,0,0,1,180,89.65Z" transform="translate(-2.17 -1.57)" fill="#5a5a5a"/><path d="M174,129.15a1.6,1.6,0,0,1,.5,2.5,51.68,51.68,0,0,1-7.5,12.5,1.61,1.61,0,0,1-1.5,1,1.4,1.4,0,0,1-1-.5,1.59,1.59,0,0,1-1-1.5,1.43,1.43,0,0,1,.5-1,55.46,55.46,0,0,0,7.5-12C171.81,129.15,172.64,128.82,174,129.15Z" transform="translate(-2.17 -1.57)" fill="#5a5a5a"/><path d="M172,312.15a1.81,1.81,0,0,1,0-2.5,58.66,58.66,0,0,0,8-11.5,1.6,1.6,0,0,1,2.5-.5,2,2,0,0,1,1,2.5q-4.5,6.51-9,12v.5H173A1.4,1.4,0,0,1,172,312.15Z" transform="translate(-2.17 -1.57)" fill="#5a5a5a"/><path d="M170,63.15l.5.5a2.89,2.89,0,0,1-1,2h-1a1.59,1.59,0,0,1-1.5-1,86.77,86.77,0,0,0-8.5-11c-.67-1.33-.67-2.16,0-2.5,1-1,1.83-1,2.5,0A94.58,94.58,0,0,1,170,63.15Z" transform="translate(-2.17 -1.57)" fill="#5a5a5a"/><path d="M170.48,207.65a1.77,1.77,0,0,1-2,2,1.4,1.4,0,0,1-1-.5,51.3,51.3,0,0,0-11.5-8,2.17,2.17,0,0,1-.5-3,2.28,2.28,0,0,1,2.5-.5,114.63,114.63,0,0,1,11.5,8.5v.5C170.14,207,170.48,207.32,170.48,207.65Z" transform="translate(-2.17 -1.57)" fill="#5a5a5a"/><path d="M164.48,319.65v1.5a3.83,3.83,0,0,1-.5,1.5,124.43,124.43,0,0,1-12,8,1.43,1.43,0,0,1-1,.5,1.59,1.59,0,0,1-1.5-1,1.4,1.4,0,0,1-.5-1,1.61,1.61,0,0,1,1-1.5q5-3,12-8C162.64,318.65,163.48,318.65,164.48,319.65Z" transform="translate(-2.17 -1.57)" fill="#5a5a5a"/><path d="M157.48,152.15c.66.67.5,1.5-.5,2.5a60,60,0,0,1-12,8.5.44.44,0,0,1-.5.5,2.85,2.85,0,0,1-2-1v-1a1.61,1.61,0,0,1,1-1.5,79.18,79.18,0,0,0,11.5-8.5A1.6,1.6,0,0,1,157.48,152.15Z" transform="translate(-2.17 -1.57)" fill="#5a5a5a"/><path d="M152,42.9a1.7,1.7,0,0,1-.5,1.25,2,2,0,0,1-1.5.5c-.67,0-1-.16-1-.5a78.81,78.81,0,0,0-12-7.5c-.34-.33-.67-.66-1-1v-1.5a1.6,1.6,0,0,1,2.5-.5,103.73,103.73,0,0,1,12.5,7.5A2.78,2.78,0,0,1,152,42.9Z" transform="translate(-2.17 -1.57)" fill="#5a5a5a"/><path d="M146,192.65v1a2,2,0,0,1-2,1h-.5a75.78,75.78,0,0,0-13.5-5.5,1.39,1.39,0,0,1-1-2,1.82,1.82,0,0,1,2.5-1.5q6.5,2.5,13.5,5.5A1.62,1.62,0,0,1,146,192.65Z" transform="translate(-2.17 -1.57)" fill="#5a5a5a"/><path d="M139.48,334.65a.63.63,0,0,1,0,1,6,6,0,0,1-1,1.5q-5.5,1.5-14.5,3.5a2,2,0,0,1-2-1.5v-.5a1.33,1.33,0,0,1,1.5-1.5,105.45,105.45,0,0,0,14-3.5C138.48,333,139.14,333.32,139.48,334.65Z" transform="translate(-2.17 -1.57)" fill="#5a5a5a"/><path d="M134,167.15c.33,1.34,0,2.17-1,2.5q-4.5,2-10.5,4l1.5,7-19-4.5,15-12.5,1.5,6.5q5.49-2,10-4A2,2,0,0,1,134,167.15Z" transform="translate(-2.17 -1.57)" fill="#5a5a5a"/><path d="M125.48,28.15c1,.67,1.5,1.34,1.5,2v.5a2,2,0,0,1-2,1.5h-.5a78.69,78.69,0,0,0-14-2.5c-.34,0-.67-.33-1-1-.34,0-.5-.33-.5-1,0-1.33.66-1.83,2-1.5A60.55,60.55,0,0,1,125.48,28.15Z" transform="translate(-2.17 -1.57)" fill="#5a5a5a"/><path d="M118.48,183.65v.5q-.51,1.5-1.5,1.5h-.5q-6.51-1.5-13-2.5c-1,2.34-2.84,3.34-5.5,3q-5-.5-4.5-6t6-4.5c2.33,0,3.83,1.34,4.5,4q11,2,13,2.5A1.33,1.33,0,0,1,118.48,183.65Z" transform="translate(-2.17 -1.57)" fill="#5a5a5a"/><path d="M109.48,338.15c1.33,0,2,.5,2,1.5a1.77,1.77,0,0,1-2,2,126.19,126.19,0,0,1-14.5-1,2,2,0,0,1-1.5-2v-.5c0-.66.66-1,2-1A98.28,98.28,0,0,0,109.48,338.15Z" transform="translate(-2.17 -1.57)" fill="#5a5a5a"/><path d="M99,27.65v.5c0,1-.67,1.5-2,1.5a74,74,0,0,0-13.5,3H83a1.33,1.33,0,0,1-1.5-1.5.62.62,0,0,1,0-1c.33-.66.66-1,1-1a85.88,85.88,0,0,1,14.5-3A2,2,0,0,1,99,27.65Z" transform="translate(-2.17 -1.57)" fill="#5a5a5a"/><path d="M83,334.65v1.5a1.61,1.61,0,0,1-1.5,1h-1a100.59,100.59,0,0,1-13.5-5,2,2,0,0,1-1-2v-.5a2,2,0,0,1,2.5-1,92.7,92.7,0,0,0,13.5,5Z" transform="translate(-2.17 -1.57)" fill="#5a5a5a"/><path d="M71.48,35.15a.44.44,0,0,1,.5.5,1.61,1.61,0,0,1-1,1.5,133.43,133.43,0,0,0-13,7h-.5c-1,0-1.5-.16-1.5-.5a2,2,0,0,1-.5-1.5c.33-.66.66-1,1-1a62,62,0,0,1,13-7C70.48,33.49,71.14,33.82,71.48,35.15Z" transform="translate(-2.17 -1.57)" fill="#5a5a5a"/><path d="M56,322.15a2,2,0,0,1-1,3.5l-1-.5q-3.51-2.49-9.5-6l-4,5.5L32,307.15l19,4-4,5Z" transform="translate(-2.17 -1.57)" fill="#5a5a5a"/><path d="M47.48,49.15A1.72,1.72,0,0,1,48,50.4c0,.5-.34.92-1,1.25q-2,2-7,6a5,5,0,0,1-1,6q-4,3.51-7.75-.5t.25-7.5c2-2,4.16-2.33,6.5-1,2-1.66,4.16-3.5,6.5-5.5H45C45.64,48.15,46.48,48.15,47.48,49.15Z" transform="translate(-2.17 -1.57)" fill="#5a5a5a"/></svg>