<svg id="Layer_1" data-name="Layer 1" xmlns="http://www.w3.org/2000/svg" viewBox="0 0 255.1 371"><path d="M244,233.68a23.54,23.54,0,0,1,0,33.5,23.15,23.15,0,0,1-17,7h-33.5a2.65,2.65,0,0,0-3,3v70a16,16,0,0,1-2,6,26.51,26.51,0,0,1-5.5,8,30.61,30.61,0,0,1-5.5,3.5,22.22,22.22,0,0,1-5.5,2,21,21,0,0,1-12-.5,15.55,15.55,0,0,1-5-2,27.67,27.67,0,0,1-6-4.5,24.88,24.88,0,0,1-4.5-7.5,26,26,0,0,1-1.5-5.5v-69.5a2.65,2.65,0,0,0-3-3H29.53a21,21,0,0,1-11.5-3.5,21.63,21.63,0,0,1-6.5-6,24.29,24.29,0,0,1-4.5-13,23.66,23.66,0,0,1,1-9.5,19.6,19.6,0,0,1,2.5-4.5L146,18.68a17.06,17.06,0,0,1,4-4.5l.5-.5a26.79,26.79,0,0,1,7-5,18.81,18.81,0,0,1,7.5-1.5h3.5a20.57,20.57,0,0,1,12.5,4.5,22.22,22.22,0,0,1,9.5,18.5v193.5a2.65,2.65,0,0,0,3,3H227A23.19,23.19,0,0,1,244,233.68Zm-34.5,25.5,17.5-8.5-17.5-9v7H198c-1,0-1.5.59-1.5,1.75s.5,1.75,1.5,1.75h11.5ZM185,250.43c0-1.16-.5-1.75-1.5-1.75h-15v-8c0-1.33-.5-2-1.5-2a1.77,1.77,0,0,0-2,2v14c0,1,.66,1.5,2,1.5a1.33,1.33,0,0,0,1.5-1.5v-2.5h15C184.53,252.18,185,251.6,185,250.43ZM167,350.68l8-17h-6.5v-9c0-1.33-.5-2-1.5-2a1.77,1.77,0,0,0-2,2v9h-6.5Zm4.5-317q2.49-4.5-2-7.25T162,28.18q-2,3,.5,6l-3,5-.5,1a1.59,1.59,0,0,0,1,1.5,1.4,1.4,0,0,0,1,.5,1.61,1.61,0,0,0,1.5-1l3-5A4.9,4.9,0,0,0,171.53,33.68Zm-3,19.5a4.31,4.31,0,0,0,3.5-4.5,5.42,5.42,0,0,0-1.5-4,4.8,4.8,0,0,0-3.5-1.5,5.24,5.24,0,0,0-2.75.75,5.72,5.72,0,0,0-2,2,5.26,5.26,0,0,0-.75,2.75,4.3,4.3,0,0,0,3.5,4.5v6c0,1,.66,1.5,2,1.5a1.33,1.33,0,0,0,1.5-1.5Zm0,257.5v-14c0-1.33-.5-2-1.5-2a1.77,1.77,0,0,0-2,2v14c0,1,.66,1.5,2,1.5A1.33,1.33,0,0,0,168.53,310.68Zm0-28v-14c0-1.33-.5-2-1.5-2a1.77,1.77,0,0,0-2,2v14c0,1,.66,1.5,2,1.5A1.33,1.33,0,0,0,168.53,282.68Zm0-56v-14a1.33,1.33,0,0,0-1.5-1.5c-1.34,0-2,.5-2,1.5v14c0,1,.66,1.5,2,1.5A1.33,1.33,0,0,0,168.53,226.68Zm0-28v-14a1.33,1.33,0,0,0-1.5-1.5c-1.34,0-2,.5-2,1.5v14a1.76,1.76,0,0,0,2,2C168,200.68,168.53,200,168.53,198.68Zm0-28v-14a1.33,1.33,0,0,0-1.5-1.5c-1.34,0-2,.5-2,1.5v14a1.76,1.76,0,0,0,2,2C168,172.68,168.53,172,168.53,170.68Zm0-28v-14a1.33,1.33,0,0,0-1.5-1.5c-1.34,0-2,.5-2,1.5v14a1.76,1.76,0,0,0,2,2C168,144.68,168.53,144,168.53,142.68Zm0-28v-13.5c0-1.33-.5-2-1.5-2a1.77,1.77,0,0,0-2,2v13.5a1.76,1.76,0,0,0,2,2C168,116.68,168.53,116,168.53,114.68Zm0-27.5v-14c0-1.33-.5-2-1.5-2a1.77,1.77,0,0,0-2,2v14c0,1,.66,1.5,2,1.5A1.33,1.33,0,0,0,168.53,87.18ZM155,52.68a1.44,1.44,0,0,0,.5-1,6.35,6.35,0,0,0-1-1.5c-.67-.66-1.5-.5-2.5.5l-7.5,12.5v1a2,2,0,0,0,.5,1.5,1.4,1.4,0,0,0,1,.5c1,0,1.5-.33,1.5-1Zm.5,197.75c0-1.16-.67-1.75-2-1.75H139c-1.34,0-2,.59-2,1.75s.66,1.75,2,1.75h14.5C154.86,252.18,155.53,251.6,155.53,250.43ZM143,223.68v-99.5a2.37,2.37,0,0,0-2-2.5,2.53,2.53,0,0,0-3,1l-62,100a2.74,2.74,0,0,0,.25,2.5,2.4,2.4,0,0,0,2.25,1.5H140A2.65,2.65,0,0,0,143,223.68Zm-2.5-147a1.8,1.8,0,1,0-3-2L130,87.18a.44.44,0,0,0-.5.5c0,1,.33,1.5,1,1.5a1.4,1.4,0,0,0,1,.5,1.61,1.61,0,0,0,1.5-1ZM126,100.18v-1a6.35,6.35,0,0,0-1-1.5,2,2,0,0,0-2.5,1l-7.5,12v1a1.77,1.77,0,0,0,2,2c.33,0,.66-.33,1-1Zm0,150.25c0-1.16-.67-1.75-2-1.75h-14.5c-1.34,0-2,.59-2,1.75s.66,1.75,2,1.75H124C125.36,252.18,126,251.6,126,250.43ZM111,124.18a1.8,1.8,0,0,0-3-2l-7.5,12.5a1.43,1.43,0,0,0-.5,1,1.59,1.59,0,0,0,1,1.5h1a2,2,0,0,0,1.5-.5Zm-14.5,24v-1.5c0-.33-.34-.66-1-1a1.6,1.6,0,0,0-2.5.5l-7.5,12v1c0,1,.33,1.5,1,1.5a.44.44,0,0,0,.5.5c1,0,1.5-.33,1.5-1Zm0,102.25c0-1.16-.67-1.75-2-1.75H80c-1.34,0-2,.59-2,1.75s.66,1.75,2,1.75h14.5C95.86,252.18,96.53,251.6,96.53,250.43Zm-15-78.75a1.6,1.6,0,0,0-.5-2.5c-1.34-.66-2.17-.33-2.5,1l-7.5,12a1.43,1.43,0,0,0-.5,1,1.59,1.59,0,0,0,1,1.5h1a2,2,0,0,0,1.5-.5ZM67,194.18c0-.33-.34-.66-1-1-.67-.66-1.34-.5-2,.5l-8,12v1.5a1.59,1.59,0,0,0,1,1.5h.5a2,2,0,0,0,2-1l7-12A2,2,0,0,0,67,194.18Zm0,56.25c0-1.16-.67-1.75-2-1.75H50c-1,0-1.5.59-1.5,1.75s.5,1.75,1.5,1.75H65C66.36,252.18,67,251.6,67,250.43ZM52,219.68a1.8,1.8,0,0,0-3-2l-5.5,9-6-3.5-2,19.5L52,232.18l-5.5-3.5ZM38.28,253.43a5.24,5.24,0,0,0,.75-2.75,5,5,0,0,0-1.75-4,5.68,5.68,0,0,0-3.75-1.5,6.66,6.66,0,0,0-3,.75,5.32,5.32,0,0,0-2.25,2,5.09,5.09,0,0,0,1,6.5,5.76,5.76,0,0,0,4.25,1.75,5.26,5.26,0,0,0,2.75-.75A5.72,5.72,0,0,0,38.28,253.43Z" transform="translate(-1.43 -1.68)" fill="#fbea23"/><path d="M248,229.68a29.25,29.25,0,0,1-21,50H196v63.5a25.62,25.62,0,0,1-.5,5,27.82,27.82,0,0,1-2,7.5,28.11,28.11,0,0,1-7,9.5,44.66,44.66,0,0,1-6.5,4.5,27.65,27.65,0,0,1-7,2,20.36,20.36,0,0,1-6.5,1,22.61,22.61,0,0,1-8-1.5,24.5,24.5,0,0,1-6-2.5,28.56,28.56,0,0,1-7.5-5.5,30.71,30.71,0,0,1-5.5-9,36.43,36.43,0,0,1-1.5-6.5,18.23,18.23,0,0,1-.5-4.5v-63.5h-108a33.78,33.78,0,0,1-14-4,34,34,0,0,1-8-7.5l-.5-.5a27.18,27.18,0,0,1-5.5-15.5A26.56,26.56,0,0,1,3,240.68l.5-.5c.66-1.66,1.5-3.5,2.5-5.5l135.5-219a35.74,35.74,0,0,1,4.5-5.5l.5-.5a31.14,31.14,0,0,1,9-5.5,30.65,30.65,0,0,1,9-2.5H169a28.6,28.6,0,0,1,15,5.5,60.44,60.44,0,0,1,6.5,6.5,32.57,32.57,0,0,1,5.5,16.5v191h31A28.56,28.56,0,0,1,248,229.68Zm3,20.75a22.89,22.89,0,0,0-7-16.75,23.19,23.19,0,0,0-17-7h-33.5a2.65,2.65,0,0,1-3-3V30.18a22.22,22.22,0,0,0-9.5-18.5,20.57,20.57,0,0,0-12.5-4.5H165a18.81,18.81,0,0,0-7.5,1.5,26.79,26.79,0,0,0-7,5l-.5.5a17.06,17.06,0,0,0-4,4.5l-135.5,219a19.6,19.6,0,0,0-2.5,4.5,23.66,23.66,0,0,0-1,9.5,24.29,24.29,0,0,0,4.5,13,21.63,21.63,0,0,0,6.5,6,21,21,0,0,0,11.5,3.5H140a2.65,2.65,0,0,1,3,3v69.5a26,26,0,0,0,1.5,5.5,24.88,24.88,0,0,0,4.5,7.5,27.67,27.67,0,0,0,6,4.5,15.55,15.55,0,0,0,5,2,21,21,0,0,0,12,.5,22.22,22.22,0,0,0,5.5-2,30.61,30.61,0,0,0,5.5-3.5,26.51,26.51,0,0,0,5.5-8,16,16,0,0,0,2-6v-70a2.65,2.65,0,0,1,3-3H227a23.15,23.15,0,0,0,17-7A22.87,22.87,0,0,0,251,250.43Z" transform="translate(-1.43 -1.68)" fill="#1d1d1b"/><path d="M227,250.68l-17.5,8.5v-7H198c-1,0-1.5-.58-1.5-1.75s.5-1.75,1.5-1.75h11.5v-7Z" transform="translate(-1.43 -1.68)" fill="#5a5a5a"/><path d="M183.53,248.68c1,0,1.5.59,1.5,1.75s-.5,1.75-1.5,1.75h-15v2.5a1.33,1.33,0,0,1-1.5,1.5c-1.34,0-2-.5-2-1.5v-14a1.77,1.77,0,0,1,2-2c1,0,1.5.67,1.5,2v8Z" transform="translate(-1.43 -1.68)" fill="#5a5a5a"/><path d="M175,333.68l-8,17-8.5-17H165v-9a1.77,1.77,0,0,1,2-2c1,0,1.5.67,1.5,2v9Z" transform="translate(-1.43 -1.68)" fill="#5a5a5a"/><path d="M169.53,26.43q4.5,2.76,2,7.25a4.9,4.9,0,0,1-6,2.5l-3,5a1.61,1.61,0,0,1-1.5,1,1.4,1.4,0,0,1-1-.5,1.59,1.59,0,0,1-1-1.5l.5-1,3-5q-2.5-3-.5-6Q165,23.68,169.53,26.43Z" transform="translate(-1.43 -1.68)" fill="#5a5a5a"/><path d="M172,48.68a4.31,4.31,0,0,1-3.5,4.5v6a1.33,1.33,0,0,1-1.5,1.5c-1.34,0-2-.5-2-1.5v-6a4.3,4.3,0,0,1-3.5-4.5,5.26,5.26,0,0,1,.75-2.75,5.72,5.72,0,0,1,2-2,5.24,5.24,0,0,1,2.75-.75,4.8,4.8,0,0,1,3.5,1.5A5.42,5.42,0,0,1,172,48.68Z" transform="translate(-1.43 -1.68)" fill="#5a5a5a"/><path d="M168.53,296.68v14a1.33,1.33,0,0,1-1.5,1.5c-1.34,0-2-.5-2-1.5v-14a1.77,1.77,0,0,1,2-2C168,294.68,168.53,295.35,168.53,296.68Z" transform="translate(-1.43 -1.68)" fill="#5a5a5a"/><path d="M168.53,268.68v14a1.33,1.33,0,0,1-1.5,1.5c-1.34,0-2-.5-2-1.5v-14a1.77,1.77,0,0,1,2-2C168,266.68,168.53,267.35,168.53,268.68Z" transform="translate(-1.43 -1.68)" fill="#5a5a5a"/><path d="M168.53,212.68v14a1.33,1.33,0,0,1-1.5,1.5c-1.34,0-2-.5-2-1.5v-14c0-1,.66-1.5,2-1.5A1.33,1.33,0,0,1,168.53,212.68Z" transform="translate(-1.43 -1.68)" fill="#5a5a5a"/><path d="M168.53,184.68v14c0,1.34-.5,2-1.5,2a1.76,1.76,0,0,1-2-2v-14c0-1,.66-1.5,2-1.5A1.33,1.33,0,0,1,168.53,184.68Z" transform="translate(-1.43 -1.68)" fill="#5a5a5a"/><path d="M168.53,156.68v14c0,1.34-.5,2-1.5,2a1.76,1.76,0,0,1-2-2v-14c0-1,.66-1.5,2-1.5A1.33,1.33,0,0,1,168.53,156.68Z" transform="translate(-1.43 -1.68)" fill="#5a5a5a"/><path d="M168.53,128.68v14c0,1.34-.5,2-1.5,2a1.76,1.76,0,0,1-2-2v-14c0-1,.66-1.5,2-1.5A1.33,1.33,0,0,1,168.53,128.68Z" transform="translate(-1.43 -1.68)" fill="#5a5a5a"/><path d="M168.53,101.18v13.5c0,1.34-.5,2-1.5,2a1.76,1.76,0,0,1-2-2v-13.5a1.77,1.77,0,0,1,2-2C168,99.18,168.53,99.85,168.53,101.18Z" transform="translate(-1.43 -1.68)" fill="#5a5a5a"/><path d="M168.53,73.18v14a1.33,1.33,0,0,1-1.5,1.5c-1.34,0-2-.5-2-1.5v-14a1.77,1.77,0,0,1,2-2C168,71.18,168.53,71.85,168.53,73.18Z" transform="translate(-1.43 -1.68)" fill="#5a5a5a"/><path d="M155.53,51.68a1.44,1.44,0,0,1-.5,1l-7.5,12.5c0,.67-.5,1-1.5,1a1.4,1.4,0,0,1-1-.5,2,2,0,0,1-.5-1.5v-1l7.5-12.5c1-1,1.83-1.16,2.5-.5A6.35,6.35,0,0,1,155.53,51.68Z" transform="translate(-1.43 -1.68)" fill="#5a5a5a"/><path d="M153.53,248.68c1.33,0,2,.59,2,1.75s-.67,1.75-2,1.75H139c-1.34,0-2-.58-2-1.75s.66-1.75,2-1.75Z" transform="translate(-1.43 -1.68)" fill="#5a5a5a"/><path d="M143,124.18v99.5a2.65,2.65,0,0,1-3,3H78.53a2.4,2.4,0,0,1-2.25-1.5,2.74,2.74,0,0,1-.25-2.5l62-100a2.53,2.53,0,0,1,3-1A2.37,2.37,0,0,1,143,124.18Zm-5.5,97v-87.5l-14,22.5-40.5,65Z" transform="translate(-1.43 -1.68)" fill="#1d1d1b"/><path d="M140,74.18a1.6,1.6,0,0,1,.5,2.5l-7.5,12a1.61,1.61,0,0,1-1.5,1,1.4,1.4,0,0,1-1-.5c-.67,0-1-.5-1-1.5a.44.44,0,0,1,.5-.5l7.5-12.5A1.6,1.6,0,0,1,140,74.18Z" transform="translate(-1.43 -1.68)" fill="#5a5a5a"/><path d="M126,99.18v1l-8,12.5c-.34.67-.67,1-1,1a1.77,1.77,0,0,1-2-2v-1l7.5-12a2,2,0,0,1,2.5-1A6.35,6.35,0,0,1,126,99.18Z" transform="translate(-1.43 -1.68)" fill="#5a5a5a"/><path d="M124,248.68c1.33,0,2,.59,2,1.75s-.67,1.75-2,1.75h-14.5c-1.34,0-2-.58-2-1.75s.66-1.75,2-1.75Z" transform="translate(-1.43 -1.68)" fill="#5a5a5a"/><path d="M110.53,121.68a1.6,1.6,0,0,1,.5,2.5l-7.5,12.5a2,2,0,0,1-1.5.5h-1a1.59,1.59,0,0,1-1-1.5,1.43,1.43,0,0,1,.5-1l7.5-12.5A1.6,1.6,0,0,1,110.53,121.68Z" transform="translate(-1.43 -1.68)" fill="#5a5a5a"/><path d="M94.53,248.68c1.33,0,2,.59,2,1.75s-.67,1.75-2,1.75H80c-1.34,0-2-.58-2-1.75s.66-1.75,2-1.75Z" transform="translate(-1.43 -1.68)" fill="#5a5a5a"/><path d="M88.53,160.18c0,.67-.5,1-1.5,1a.44.44,0,0,1-.5-.5c-.67,0-1-.5-1-1.5v-1l7.5-12a1.6,1.6,0,0,1,2.5-.5c.66.34,1,.67,1,1v1.5Z" transform="translate(-1.43 -1.68)" fill="#5a5a5a"/><path d="M81,169.18a1.6,1.6,0,0,1,.5,2.5L74,184.18a2,2,0,0,1-1.5.5h-1a1.59,1.59,0,0,1-1-1.5,1.43,1.43,0,0,1,.5-1l7.5-12C78.86,168.85,79.69,168.52,81,169.18Z" transform="translate(-1.43 -1.68)" fill="#5a5a5a"/><path d="M66,193.18c.66.34,1,.67,1,1a2,2,0,0,1-.5,1.5l-7,12a2,2,0,0,1-2,1H57a1.59,1.59,0,0,1-1-1.5v-1.5l8-12C64.69,192.68,65.36,192.52,66,193.18Z" transform="translate(-1.43 -1.68)" fill="#5a5a5a"/><path d="M65,248.68c1.33,0,2,.59,2,1.75s-.67,1.75-2,1.75H50c-1,0-1.5-.58-1.5-1.75s.5-1.75,1.5-1.75Z" transform="translate(-1.43 -1.68)" fill="#5a5a5a"/><path d="M51.53,217.18a1.6,1.6,0,0,1,.5,2.5l-5.5,9,5.5,3.5-16.5,10.5,2-19.5,6,3.5,5.5-9A1.6,1.6,0,0,1,51.53,217.18Z" transform="translate(-1.43 -1.68)" fill="#5a5a5a"/><path d="M39,250.68a5.24,5.24,0,0,1-.75,2.75,5.72,5.72,0,0,1-2,2,5.26,5.26,0,0,1-2.75.75,5.76,5.76,0,0,1-4.25-1.75,5.09,5.09,0,0,1-1-6.5,5.32,5.32,0,0,1,2.25-2,6.66,6.66,0,0,1,3-.75,5.68,5.68,0,0,1,3.75,1.5A5,5,0,0,1,39,250.68Z" transform="translate(-1.43 -1.68)" fill="#5a5a5a"/></svg>