<svg id="Layer_1" data-name="Layer 1" xmlns="http://www.w3.org/2000/svg" viewBox="0 0 233.68 370.5"><path d="M34.38,169.33q-2-3.5-5.5-2-5.5,1-4,6.25t6.5,3.75c2.66-.67,4-2.17,4-4.5l2-.5a2,2,0,0,0,1.5-2v-.5c-.34-1-1.17-1.33-2.5-1a2.15,2.15,0,0,0-1,.25A2.21,2.21,0,0,1,34.38,169.33Zm177.5,20q19,29,17,65-2,40.5-28.5,72.5-14.5,17.51-37.5,28.5a114.67,114.67,0,0,1-62,10.5,107.75,107.75,0,0,1-49-19.5q-26.51-19.5-43.5-55a25.68,25.68,0,0,1-2.25-9.25,21.94,21.94,0,0,1,1.5-9.25,24.71,24.71,0,0,1,5-8,24.08,24.08,0,0,1,7.5-5.5,20.37,20.37,0,0,1,8.75-2h1.5a32.77,32.77,0,0,1,8,1,32.48,32.48,0,0,1,8,5,21,21,0,0,1,5.5,7.5q11.49,24.5,28,36.5a59.55,59.55,0,0,0,27,11,67.83,67.83,0,0,0,31.75-4.75q15.75-6.25,24.75-17.25,16.5-20,18-44.5,1-20.51-9.5-36.5t-30.5-23.5q-39.51-14.51-104,3.5a20.36,20.36,0,0,1-6.5,1h-2.5a27.42,27.42,0,0,1-7-2l-3-1a22.51,22.51,0,0,1-10-11.5,21.08,21.08,0,0,1-2-6V28.33a20.74,20.74,0,0,1,7-14.5,15.75,15.75,0,0,1,6-4.5.44.44,0,0,0,.5-.5,28.05,28.05,0,0,1,10.5-2l174-.5a23.4,23.4,0,0,1,16.75,7,22.76,22.76,0,0,1,7.25,17,23.17,23.17,0,0,1-7,17,23.15,23.15,0,0,1-17,7H56.88a2.65,2.65,0,0,0-3,3v81.5a2.62,2.62,0,0,0,1,2.25,2.6,2.6,0,0,0,2.5.25q58.5-10,100.5,6Q193.37,160.33,211.88,189.33Zm-5,58.5v-.5c0-1-.67-1.5-2-1.5a1.33,1.33,0,0,0-1.5,1.5v.5a107.5,107.5,0,0,1-1,14,1.77,1.77,0,1,0,3.5.5v-.5A107.5,107.5,0,0,0,206.88,247.83Zm-1-14.5v-.5a86.42,86.42,0,0,0-4-14c-.34-1.33-1-1.83-2-1.5a.88.88,0,0,0-1,1,2,2,0,0,0-.5,1.5,59.71,59.71,0,0,1,4,13.5,1.33,1.33,0,0,0,1.5,1.5h.5A1.33,1.33,0,0,0,205.88,233.33ZM203.63,33.08a5.24,5.24,0,0,0,.75-2.75,4.52,4.52,0,0,0-1.75-3.5,5.68,5.68,0,0,0-3.75-1.5,5.14,5.14,0,0,0-5,3.5c-1.34,0-2,.5-2,1.5a1.77,1.77,0,0,0,2,2,5.14,5.14,0,0,0,5,3.5,5.26,5.26,0,0,0,2.75-.75A5.8,5.8,0,0,0,203.63,33.08Zm-1.25,243.75q.5-1,0-1.5c0-.33-.34-.67-1-1-1.34-.33-2,.17-2,1.5q-3,7.5-5.5,13v.5a2,2,0,0,0,1,2h1a1.61,1.61,0,0,0,1.5-1Q199.87,284.33,202.38,276.83Zm-6-71-.5-1-.5-.5a66.63,66.63,0,0,0-8-11q-1-2-2.5-.5c-.67,1-.67,1.83,0,2.5a89.72,89.72,0,0,1,8,11.5,1.59,1.59,0,0,0,1.5,1h1A2.91,2.91,0,0,0,196.38,205.83Zm-6,97.5a1.6,1.6,0,0,0-.5-2.5c-1-1-1.84-.83-2.5.5q-2,3-7,9.5h-.5a1.45,1.45,0,0,1-.5,1l-.75.75a1,1,0,0,0-.25.75l-.5.5c0,.33.33.83,1,1.5h1a2.07,2.07,0,0,0,1.5-.5,5.71,5.71,0,0,0,2-2Q186.38,308.83,190.38,303.33Zm-9-273c0-1-.67-1.5-2-1.5h-14c-1.34,0-2,.5-2,1.5a1.77,1.77,0,0,0,2,2h14A1.77,1.77,0,0,0,181.38,30.33Zm-4,155v-1a2,2,0,0,0-.5-1.5q-6.51-5-12-8.5c-1.34-.67-2.17-.33-2.5,1-.67,1-.5,1.67.5,2a124.43,124.43,0,0,1,12,8c0,.33.25.5.75.5A4.09,4.09,0,0,0,177.38,185.33Zm-6,138.5a3.93,3.93,0,0,0-.5-1.5c-1-1-1.84-1-2.5,0a104.68,104.68,0,0,1-12,7.5,1.59,1.59,0,0,0-1,1.5,1.45,1.45,0,0,1,.5,1,1.59,1.59,0,0,0,1.5,1l1-.5a75.24,75.24,0,0,0,12-8C171,324.5,171.38,324.16,171.38,323.83Zm-19-153.5v-.5a2.91,2.91,0,0,0-1-2,110.27,110.27,0,0,0-14-4,1.4,1.4,0,0,0-2,1c-.34,1.33,0,2.17,1,2.5a77.21,77.21,0,0,1,14,4l.5.5Q151.87,171.83,152.38,170.33Zm.5-139.75c0-1.17-.5-1.75-1.5-1.75h-14.5a1.33,1.33,0,0,0-1.5,1.5,1.77,1.77,0,0,0,2,2h14C152.38,32.33,152.88,31.75,152.88,30.58Zm-8,308.25a1.4,1.4,0,0,0,1-2c-.34-1.33-1.17-1.67-2.5-1q-7,2-13.5,3.5-1.5.5-1.5,1.5v.5a1.33,1.33,0,0,0,1.5,1.5h.5A83,83,0,0,0,144.88,338.83Zm-20-308.25c0-1.17-.67-1.75-2-1.75h-14c-1,0-1.5.58-1.5,1.75s.5,1.75,1.5,1.75h14C124.21,32.33,124.88,31.75,124.88,30.58Zm0,132.25a1.77,1.77,0,0,0-2-2,136.78,136.78,0,0,0-14.5-1,1.33,1.33,0,0,0-1.5,1.5,2,2,0,0,0,.5,1.5c0,.33.33.5,1,.5q8,.49,14.5,1.5C123.88,164.83,124.54,164.16,124.88,162.83Zm-7.5,179.75c0-1.17-.5-1.75-1.5-1.75h-2a81.78,81.78,0,0,1-12.5-1c-1.34,0-2,.5-2,1.5v.5q0,1,1.5,1.5a91.75,91.75,0,0,0,13,1h2C116.88,344.33,117.38,343.75,117.38,342.58Zm-21-312c0-1.17-.5-1.75-1.5-1.75h-14a3.83,3.83,0,0,0-1.5.5,1.41,1.41,0,0,0-.5,1,1.77,1.77,0,0,0,2,2h14C95.88,32.33,96.38,31.75,96.38,30.58Zm-.5,130.75c0-1-.67-1.5-2-1.5a136.61,136.61,0,0,0-14.5,1l-1,.5a1,1,0,0,0-.5,1.5c0,1,.66,1.5,2,1.5q5-.5,14-1C95.21,163,95.88,162.33,95.88,161.33Zm-7,177c.66-1,.33-1.67-1-2a86.49,86.49,0,0,1-12.5-6,3,3,0,0,0-3,.5v1a2.87,2.87,0,0,0,1,2q7,3.5,13.5,6h.5Q88.37,339.83,88.88,338.33Zm-22-174v-.5a1.4,1.4,0,0,0-2-1q-6,1-14,2.5c-1.34.33-1.84,1-1.5,2a1.33,1.33,0,0,0,1.5,1.5h.5q8.49-1.5,14-2.5A2,2,0,0,0,66.88,164.33Zm1.5-134c0-1-.67-1.5-2-1.5H55.88v-7l-17,8.5,17,8.5v-6.5h10.5A1.77,1.77,0,0,0,68.38,30.33Zm-4.5,295c.66-1.33.5-2.33-.5-3a126.66,126.66,0,0,1-10.5-9.5,1.59,1.59,0,0,0-2.5-.5,2.5,2.5,0,0,0,0,3,146.63,146.63,0,0,0,11,10c0,.33.33.5,1,.5A2.07,2.07,0,0,0,63.88,325.33Zm-20-21a1.6,1.6,0,0,0,.5-2.5q-2.51-3.49-6-9l6-3.5-16-11,1,19.5,6-3.5a60,60,0,0,0,6,9.5,1.59,1.59,0,0,0,1.5,1Zm-13.5-140.5,8.5-17h-7v-7c0-1.33-.59-2-1.75-2s-1.75.67-1.75,2v7h-7Zm1.5-128.5c2.33-.67,3.5-2.33,3.5-5a4.8,4.8,0,0,0-1.5-3.5,5.44,5.44,0,0,0-7.5,0,4.8,4.8,0,0,0-1.5,3.5c0,2.67,1.16,4.33,3.5,5v4c0,1,.58,1.5,1.75,1.5s1.75-.5,1.75-1.5Zm0,90v-14.5c0-1-.59-1.5-1.75-1.5s-1.75.5-1.75,1.5v14.5c0,1.33.58,2,1.75,2S31.88,126.66,31.88,125.33Zm0-28.5V82.33c0-1.33-.59-2-1.75-2s-1.75.67-1.75,2v14.5c0,1,.58,1.5,1.75,1.5S31.88,97.83,31.88,96.83Zm0-29V53.33c0-1-.59-1.5-1.75-1.5s-1.75.5-1.75,1.5v14.5c0,1.33.58,2,1.75,2S31.88,69.16,31.88,67.83Z" transform="translate(-0.88 -1.33)" fill="#fbea23"/><path d="M216.38,186.33q20,30.49,18,68.5-2.5,42-30,75.5a117.87,117.87,0,0,1-90,41.5,91.74,91.74,0,0,1-14-1,109.86,109.86,0,0,1-51.5-20.5q-27.51-20-45-57a26.16,26.16,0,0,1-2.75-10.75,32.07,32.07,0,0,1,1.5-11.25,25,25,0,0,1,5.75-9.75,30.79,30.79,0,0,1,9.25-6.75,32,32,0,0,1,11.25-3,41.7,41.7,0,0,1,11,1.5,28.1,28.1,0,0,1,9.75,6,32.11,32.11,0,0,1,6.75,9q11,23.51,27,35a50,50,0,0,0,24,9.5,60.81,60.81,0,0,0,29-4.25q14.49-5.74,23-15.25,15-19,16.5-42,1-18.5-8.5-33t-27.5-21.5q-38-14-101,3.5a32.77,32.77,0,0,1-8,1h-3a18.78,18.78,0,0,1-8.5-2,10.9,10.9,0,0,1-3.5-1.5,29.94,29.94,0,0,1-12.5-14,27.46,27.46,0,0,1-2-7.5,18.23,18.23,0,0,1-.5-4.5v-144a32.43,32.43,0,0,1,8.5-18,28.79,28.79,0,0,1,7.5-5.5h.5a27.59,27.59,0,0,1,12.5-3h174.5a27.93,27.93,0,0,1,20.5,8.5,28,28,0,0,1,8.5,20.5,28.79,28.79,0,0,1-8.5,20.75,27.56,27.56,0,0,1-20.5,8.75h-145v76q58-9.5,100,6.5Q196.88,156.32,216.38,186.33Zm12.5,68q2-36-17-65-18.51-29-54-42-42-16-100.5-6a2.6,2.6,0,0,1-2.5-.25,2.62,2.62,0,0,1-1-2.25V57.33a2.65,2.65,0,0,1,3-3h147.5a23.15,23.15,0,0,0,17-7,23.17,23.17,0,0,0,7-17,22.76,22.76,0,0,0-7.25-17,23.4,23.4,0,0,0-16.75-7l-174,.5a28.05,28.05,0,0,0-10.5,2,.44.44,0,0,1-.5.5,15.75,15.75,0,0,0-6,4.5,20.74,20.74,0,0,0-7,14.5v147.5a21.08,21.08,0,0,0,2,6,22.51,22.51,0,0,0,10,11.5l3,1a27.42,27.42,0,0,0,7,2h2.5a20.36,20.36,0,0,0,6.5-1q64.5-18,104-3.5,20,7.5,30.5,23.5t9.5,36.5q-1.5,24.5-18,44.5-9,11-24.75,17.25a67.83,67.83,0,0,1-31.75,4.75,59.55,59.55,0,0,1-27-11q-16.5-12-28-36.5a21,21,0,0,0-5.5-7.5,32.48,32.48,0,0,0-8-5,32.77,32.77,0,0,0-8-1h-1.5a20.37,20.37,0,0,0-8.75,2,24.08,24.08,0,0,0-7.5,5.5,24.71,24.71,0,0,0-5,8,21.94,21.94,0,0,0-1.5,9.25,25.68,25.68,0,0,0,2.25,9.25q17,35.51,43.5,55a107.75,107.75,0,0,0,49,19.5,114.67,114.67,0,0,0,62-10.5q23-11,37.5-28.5Q226.87,294.84,228.88,254.33Z" transform="translate(-0.88 -1.33)" fill="#1d1d1b"/><path d="M206.88,247.33v.5a107.5,107.5,0,0,1-1,14v.5a1.77,1.77,0,1,1-3.5-.5,107.5,107.5,0,0,0,1-14v-.5a1.33,1.33,0,0,1,1.5-1.5C206.21,245.83,206.88,246.33,206.88,247.33Z" transform="translate(-0.88 -1.33)" fill="#5a5a5a"/><path d="M205.88,232.83v.5a1.33,1.33,0,0,1-1.5,1.5h-.5a1.33,1.33,0,0,1-1.5-1.5,59.71,59.71,0,0,0-4-13.5,2,2,0,0,1,.5-1.5.88.88,0,0,1,1-1c1-.33,1.66.17,2,1.5A86.42,86.42,0,0,1,205.88,232.83Z" transform="translate(-0.88 -1.33)" fill="#5a5a5a"/><path d="M204.38,30.33a5.24,5.24,0,0,1-.75,2.75,5.8,5.8,0,0,1-2,2,5.26,5.26,0,0,1-2.75.75,5.14,5.14,0,0,1-5-3.5,1.77,1.77,0,0,1-2-2c0-1,.66-1.5,2-1.5a5.14,5.14,0,0,1,5-3.5,5.68,5.68,0,0,1,3.75,1.5A4.52,4.52,0,0,1,204.38,30.33Z" transform="translate(-0.88 -1.33)" fill="#5a5a5a"/><path d="M202.38,275.33q.5.5,0,1.5-2.5,7.5-5,13.5a1.61,1.61,0,0,1-1.5,1h-1a2,2,0,0,1-1-2v-.5q2.49-5.5,5.5-13c0-1.33.66-1.83,2-1.5C202,274.66,202.38,275,202.38,275.33Z" transform="translate(-0.88 -1.33)" fill="#5a5a5a"/><path d="M195.88,204.83l.5,1a2.91,2.91,0,0,1-1,2h-1a1.59,1.59,0,0,1-1.5-1,89.72,89.72,0,0,0-8-11.5c-.67-.67-.67-1.5,0-2.5q1.5-1.5,2.5.5a66.63,66.63,0,0,1,8,11Z" transform="translate(-0.88 -1.33)" fill="#5a5a5a"/><path d="M189.88,300.83a1.6,1.6,0,0,1,.5,2.5q-4,5.51-7,9.5a5.71,5.71,0,0,1-2,2,2.07,2.07,0,0,1-1.5.5h-1c-.67-.67-1-1.17-1-1.5l.5-.5a1,1,0,0,1,.25-.75l.75-.75a1.45,1.45,0,0,0,.5-1h.5q5-6.49,7-9.5C188,300,188.88,299.83,189.88,300.83Z" transform="translate(-0.88 -1.33)" fill="#5a5a5a"/><path d="M179.38,28.83c1.33,0,2,.5,2,1.5a1.77,1.77,0,0,1-2,2h-14a1.77,1.77,0,0,1-2-2c0-1,.66-1.5,2-1.5Z" transform="translate(-0.88 -1.33)" fill="#5a5a5a"/><path d="M177.38,184.33v1a4.09,4.09,0,0,1-1.75.5c-.5,0-.75-.17-.75-.5a124.43,124.43,0,0,0-12-8c-1-.33-1.17-1-.5-2,.33-1.33,1.16-1.67,2.5-1q5.49,3.49,12,8.5A2,2,0,0,1,177.38,184.33Z" transform="translate(-0.88 -1.33)" fill="#5a5a5a"/><path d="M170.88,322.33a3.93,3.93,0,0,1,.5,1.5c0,.33-.34.67-1,1a75.24,75.24,0,0,1-12,8l-1,.5a1.59,1.59,0,0,1-1.5-1,1.45,1.45,0,0,0-.5-1,1.59,1.59,0,0,1,1-1.5,104.68,104.68,0,0,0,12-7.5C169,321.33,169.88,321.33,170.88,322.33Z" transform="translate(-0.88 -1.33)" fill="#5a5a5a"/><path d="M152.38,169.83v.5q-.51,1.5-1.5,1.5l-.5-.5a77.21,77.21,0,0,0-14-4c-1-.33-1.34-1.17-1-2.5a1.4,1.4,0,0,1,2-1,110.27,110.27,0,0,1,14,4A2.91,2.91,0,0,1,152.38,169.83Z" transform="translate(-0.88 -1.33)" fill="#5a5a5a"/><path d="M151.38,28.83c1,0,1.5.58,1.5,1.75s-.5,1.75-1.5,1.75h-14a1.77,1.77,0,0,1-2-2,1.33,1.33,0,0,1,1.5-1.5h14.5Z" transform="translate(-0.88 -1.33)" fill="#5a5a5a"/><path d="M145.88,336.83a1.4,1.4,0,0,1-1,2,83,83,0,0,1-14.5,4h-.5a1.33,1.33,0,0,1-1.5-1.5v-.5q0-1,1.5-1.5,6.5-1.5,13.5-3.5C144.71,335.16,145.54,335.5,145.88,336.83Z" transform="translate(-0.88 -1.33)" fill="#5a5a5a"/><path d="M122.88,28.83c1.33,0,2,.58,2,1.75s-.67,1.75-2,1.75h-14c-1,0-1.5-.58-1.5-1.75s.5-1.75,1.5-1.75Z" transform="translate(-0.88 -1.33)" fill="#5a5a5a"/><path d="M122.88,160.83a1.77,1.77,0,0,1,2,2c-.34,1.33-1,2-2,2q-6.51-1-14.5-1.5c-.67,0-1-.17-1-.5a2,2,0,0,1-.5-1.5,1.33,1.33,0,0,1,1.5-1.5A136.78,136.78,0,0,1,122.88,160.83Z" transform="translate(-0.88 -1.33)" fill="#5a5a5a"/><path d="M115.88,340.83c1,0,1.5.58,1.5,1.75s-.5,1.75-1.5,1.75h-2a91.75,91.75,0,0,1-13-1q-1.5-.49-1.5-1.5v-.5c0-1,.66-1.5,2-1.5a81.78,81.78,0,0,0,12.5,1Z" transform="translate(-0.88 -1.33)" fill="#5a5a5a"/><path d="M94.88,28.83c1,0,1.5.58,1.5,1.75s-.5,1.75-1.5,1.75h-14a1.77,1.77,0,0,1-2-2,1.41,1.41,0,0,1,.5-1,3.83,3.83,0,0,1,1.5-.5Z" transform="translate(-0.88 -1.33)" fill="#5a5a5a"/><path d="M93.88,159.83c1.33,0,2,.5,2,1.5s-.67,1.67-2,2q-9,.49-14,1c-1.34,0-2-.5-2-1.5a1,1,0,0,1,.5-1.5l1-.5A136.61,136.61,0,0,1,93.88,159.83Z" transform="translate(-0.88 -1.33)" fill="#5a5a5a"/><path d="M87.88,336.33c1.33.33,1.66,1,1,2q-.51,1.5-1.5,1.5h-.5q-6.51-2.5-13.5-6a2.87,2.87,0,0,1-1-2v-1a3,3,0,0,1,3-.5A86.49,86.49,0,0,0,87.88,336.33Z" transform="translate(-0.88 -1.33)" fill="#5a5a5a"/><path d="M66.88,163.83v.5a2,2,0,0,1-1.5,2q-5.5,1-14,2.5h-.5a1.33,1.33,0,0,1-1.5-1.5c-.34-1,.16-1.67,1.5-2q8-1.5,14-2.5A1.4,1.4,0,0,1,66.88,163.83Z" transform="translate(-0.88 -1.33)" fill="#5a5a5a"/><path d="M66.38,28.83c1.33,0,2,.5,2,1.5a1.77,1.77,0,0,1-2,2H55.88v6.5l-17-8.5,17-8.5v7Z" transform="translate(-0.88 -1.33)" fill="#5a5a5a"/><path d="M52.88,312.83a126.66,126.66,0,0,0,10.5,9.5c1,.67,1.16,1.67.5,3a2.07,2.07,0,0,1-1.5.5c-.67,0-1-.17-1-.5a146.63,146.63,0,0,1-11-10,2.5,2.5,0,0,1,0-3A1.59,1.59,0,0,1,52.88,312.83Z" transform="translate(-0.88 -1.33)" fill="#5a5a5a"/><path d="M44.38,301.83a1.6,1.6,0,0,1-.5,2.5l-1,.5a1.59,1.59,0,0,1-1.5-1,60,60,0,0,1-6-9.5l-6,3.5-1-19.5,16,11-6,3.5Q41.88,298.34,44.38,301.83Z" transform="translate(-0.88 -1.33)" fill="#5a5a5a"/><path d="M38.88,169.83v.5a2,2,0,0,1-1.5,2l-2,.5c0,2.33-1.34,3.83-4,4.5q-5,1.5-6.5-3.75t4-6.25q3.5-1.5,5.5,2a2.21,2.21,0,0,0,1-.25,2.15,2.15,0,0,1,1-.25C37.71,168.5,38.54,168.83,38.88,169.83Z" transform="translate(-0.88 -1.33)" fill="#5a5a5a"/><path d="M38.88,146.83l-8.5,17-9-17h7v-7c0-1.33.58-2,1.75-2s1.75.67,1.75,2v7Z" transform="translate(-0.88 -1.33)" fill="#5a5a5a"/><path d="M35.38,30.33c0,2.67-1.17,4.33-3.5,5v4c0,1-.59,1.5-1.75,1.5s-1.75-.5-1.75-1.5v-4c-2.34-.67-3.5-2.33-3.5-5a4.8,4.8,0,0,1,1.5-3.5,5.44,5.44,0,0,1,7.5,0A4.8,4.8,0,0,1,35.38,30.33Z" transform="translate(-0.88 -1.33)" fill="#5a5a5a"/><path d="M31.88,110.83v14.5c0,1.33-.59,2-1.75,2s-1.75-.67-1.75-2v-14.5c0-1,.58-1.5,1.75-1.5S31.88,109.83,31.88,110.83Z" transform="translate(-0.88 -1.33)" fill="#5a5a5a"/><path d="M31.88,82.33v14.5c0,1-.59,1.5-1.75,1.5s-1.75-.5-1.75-1.5V82.33c0-1.33.58-2,1.75-2S31.88,81,31.88,82.33Z" transform="translate(-0.88 -1.33)" fill="#5a5a5a"/><path d="M31.88,53.33v14.5c0,1.33-.59,2-1.75,2s-1.75-.67-1.75-2V53.33c0-1,.58-1.5,1.75-1.5S31.88,52.33,31.88,53.33Z" transform="translate(-0.88 -1.33)" fill="#5a5a5a"/></svg>