<svg id="Layer_1" data-name="Layer 1" xmlns="http://www.w3.org/2000/svg" viewBox="0 0 239.65 370.72"><path d="M155.67,167.11q7,3,13,6c0,.34.32.5,1,.5a1.59,1.59,0,0,0,1.5-1c.66-1,.32-1.82-1-2.5a103.61,103.61,0,0,0-13.5-6.5c-1-.32-1.84.18-2.5,1.5v.5a3.67,3.67,0,0,0,.5,1.5Zm68.5,27.5q19,36.51,8.5,83.5-9.51,43-40,67-27,21.51-62.5,21.5a103.26,103.26,0,0,1-10.5-.5q-44-4.5-75.5-37.5-34.5-37.5-36.5-95.5-.51-13.5-.5-26,1.5-93.48,34.5-145.5,19.5-31,48-44.5a97.48,97.48,0,0,1,57.5-9.5q33.48,4,62,27.5a23.36,23.36,0,0,1,8.25,16.5,23.59,23.59,0,0,1-5.5,17.5,22.52,22.52,0,0,1-16.25,8.25,24.11,24.11,0,0,1-17.5-5.25q-17-14.49-37-17a52.73,52.73,0,0,0-30.5,5q-15.51,7.5-27.5,25-15,22.5-22.5,59.5a3.05,3.05,0,0,0,1.25,2.5,2.71,2.71,0,0,0,2.75.5,126.34,126.34,0,0,1,30-9.5q39.48-7.5,74.5,7Q206.16,160.62,224.17,194.61Zm-10.5,50.5a2.05,2.05,0,0,0,.5-1.5,79.52,79.52,0,0,0-1.5-14.5c-.34-1.32-1-1.91-2-1.75a1.61,1.61,0,0,0-1.5,1.75v.5a143.91,143.91,0,0,1,1.5,14.5,1.33,1.33,0,0,0,1.5,1.5A3.85,3.85,0,0,0,213.67,245.11Zm-.5,13.5a1.61,1.61,0,0,0-1.5-1.75,1.63,1.63,0,0,0-2,1.25,122,122,0,0,1-2.5,14v.5a3.67,3.67,0,0,0,.5,1.5c0,.34.32.5,1,.5l.5.5a2,2,0,0,0,2-1.5v-.5Q212.67,264.62,213.17,258.61Zm-5.5-42c1.32-.32,1.66-1,1-2a64.34,64.34,0,0,0-6-14c-.68-1-1.68-1.16-3-.5a2.87,2.87,0,0,0-.5,2v.5a79.81,79.81,0,0,1,6,13c.66,1,1.32,1.5,2,1.5A.44.44,0,0,0,207.67,216.61Zm-1,71v-.5c0-1-.34-1.5-1-1.5-1-.66-1.84-.32-2.5,1a121.3,121.3,0,0,1-6,13v1.5c.32.68.66,1,1,1h1a2,2,0,0,0,1.5-.5A90.46,90.46,0,0,0,206.67,287.61Zm-13-234c2.32-3,2-5.66-1-8a5.82,5.82,0,0,0-6.5,0,84.24,84.24,0,0,0-10-6c-1.34-.66-2.18-.5-2.5.5a1.46,1.46,0,0,1-.5,1,1.38,1.38,0,0,0,.5,1v.5h.5c4,2.34,7.32,4.34,10,6a4.72,4.72,0,0,0,1.5,6Q190.17,58.12,193.67,53.61Zm.5,136.5a2.12,2.12,0,0,0-.5-1.5,112.28,112.28,0,0,0-11-10.5c-.68-.66-1.5-.5-2.5.5v1a2,2,0,0,0,.5,1.5,98.82,98.82,0,0,1,10.5,10,1.38,1.38,0,0,0,1,.5h1.5A4,4,0,0,0,194.17,190.11Zm-1.5,124v-1.5a1.54,1.54,0,0,0-.5-1c-1-1-1.84-1-2.5,0a60.23,60.23,0,0,1-10,10.5c-.68,1-.68,1.84,0,2.5a1.56,1.56,0,0,0,1.5,1,1.45,1.45,0,0,0,1-.5A115.65,115.65,0,0,0,192.67,314.11Zm-7-46.5q7-30-4-51.5-9.51-18-31-27-26.52-11-55.5-2-24.51,7.5-39.5,27a2,2,0,0,0-.5,1.5q0,8,.5,15.5,1,40.5,24,65,18.48,20,44,22.5h5a56.7,56.7,0,0,0,33-10Q179.67,295.11,185.67,267.61Zm-15,64.5v-1a1.6,1.6,0,0,0-2.5-.5,76.58,76.58,0,0,1-13,6c-1,.34-1.34,1.18-1,2.5a1.56,1.56,0,0,0,1.5,1h.5a66.23,66.23,0,0,0,14-6.5A2.05,2.05,0,0,0,170.67,332.11Zm-7.5-296a1.85,1.85,0,0,0,.25-1.5,3,3,0,0,0-1.25-1,124.72,124.72,0,0,0-14.5-4,1.77,1.77,0,0,0-2,2,2,2,0,0,0,1.5,2,110.35,110.35,0,0,1,14,3.5h.5C162.67,37.11,163.17,36.79,163.17,36.11Zm-19.5,126c.32-1.32,0-2-1-2a118.66,118.66,0,0,0-15-2.5h-.5c-1,0-1.5.68-1.5,2,0,1,.32,1.5,1,1.5v.5h.5a80.75,80.75,0,0,1,14.5,2h.5A1.33,1.33,0,0,0,143.67,162.11Zm-.5,179.5c0-1.32-.68-1.82-2-1.5a59.17,59.17,0,0,1-13.5.5h-1c-1,0-1.5.68-1.5,2a3.67,3.67,0,0,0,.5,1.5,1.38,1.38,0,0,0,1,.5h3a71.45,71.45,0,0,0,12-1C142.67,343.61,143.17,343,143.17,341.61Zm-8.5-311a1.78,1.78,0,0,0-2-2,116.8,116.8,0,0,0-15,2,1.33,1.33,0,0,0-1.5,1.5v.5a2,2,0,0,0,2,1.5h.5a58.08,58.08,0,0,1,14-1.5A1.77,1.77,0,0,0,134.67,30.61Zm-20,129a1.78,1.78,0,0,0-2-2,116.8,116.8,0,0,0-15,2,2,2,0,0,0-1.5,2v.5a2,2,0,0,0,2,1.5h.5a70.45,70.45,0,0,1,14-2C114,161.29,114.67,160.61,114.67,159.61Zm-.5,181.5a2,2,0,0,0-1.5-2,93.76,93.76,0,0,1-14-4,1.4,1.4,0,0,0-2,1c-.68,1.34-.34,2.18,1,2.5a73,73,0,0,0,14.5,4A2,2,0,0,0,114.17,341.11Zm-9.5-303c1.32-.32,1.75-1.07,1.25-2.25s-1.25-1.57-2.25-1.25q-7.5,3.51-13.5,7a2,2,0,0,0-.5,1.5q-.51.51,0,1.5a2,2,0,0,0,1.5.5h1A63.83,63.83,0,0,1,104.67,38.11Zm-18,293.5v-1c0-1-.34-1.5-1-1.5a77.57,77.57,0,0,1-11.5-8.5,3.37,3.37,0,0,0-3,.5,1.59,1.59,0,0,0,.5,2.5,111.45,111.45,0,0,0,12.5,8.5,1.38,1.38,0,0,0,1,.5A1.59,1.59,0,0,0,86.67,331.61Zm-1-165.5a.64.64,0,0,0,0-1c-.34-1.32-1-1.82-2-1.5a81.05,81.05,0,0,0-14,6,1.59,1.59,0,0,0-1,1.5,1.38,1.38,0,0,0,.5,1c0,.68.5,1,1.5,1h.5a73.52,73.52,0,0,1,13.5-6C85,167.11,85.33,166.79,85.67,166.11Zm-4-113.5a2.12,2.12,0,0,0-.5-1.5,1.76,1.76,0,0,0-1.25-.5,1.73,1.73,0,0,0-1.25.5,113.11,113.11,0,0,0-10.5,11c-.34,0-.5.34-.5,1a1.56,1.56,0,0,0,1,1.5,4,4,0,0,0,2.5-.5,99.53,99.53,0,0,1,10-10.5A1.46,1.46,0,0,0,81.67,52.61Zm-18.25,261a1.45,1.45,0,0,0,.75-1.25c0-.5-.34-.91-1-1.25q-3.51-4-9-11.5a2.31,2.31,0,0,0-2.5-.5,3.25,3.25,0,0,0-.5,3q4.5,6,9.5,11.5a2,2,0,0,0,1.5.5A2.41,2.41,0,0,0,63.42,313.61Zm-.75-237.5a1.8,1.8,0,1,0-3-2q-3.51,6-7,13c-.34,0-.5.34-.5,1a1.56,1.56,0,0,0,1,1.5c.32,0,.5.09.5.25s.16.25.5.25q1,0,1.5-1.5Q59.66,81.11,62.67,76.11Zm-3.5,104c1-.32,1.16-1.16.5-2.5a2.52,2.52,0,0,0-3,0,55.83,55.83,0,0,0-8.5,7l-5.5-5-5.5,19,18.5-7-5-4.5Q54.66,183.63,59.17,180.11Zm-9-78c.32-1.32,0-2.16-1-2.5-1.34-.32-2.18,0-2.5,1q-2,5-5,14.5v.5q0,1,1.5,1.5h.5a1.33,1.33,0,0,0,1.5-1.5A103.33,103.33,0,0,1,50.17,102.11Zm-3,186.5c0-.66-.18-1-.5-1q-3.51-8-5.5-13.5a2,2,0,0,0-2.5-1l-1,1v1.5q2.49,6.51,6,13.5l.5.5a1.38,1.38,0,0,0,1,.5h1A1.59,1.59,0,0,0,47.17,288.61Zm-5.5-158.5q.48-2-1.5-2.25c-1.34-.16-2,.25-2,1.25q-2,8-3.5,14.5v.5c0,1,.66,1.5,2,1.5a2,2,0,0,0,2-1.5C39.33,140.79,40.33,136.11,41.67,130.11Zm-5.5,28.5v-1.5a4.24,4.24,0,0,0-1.5-.5c-1-.32-1.68.18-2,1.5q-1,8-1.5,14.5v.5a1.33,1.33,0,0,0,1.5,1.5c1.32,0,2-.5,2-1.5Q35.15,166.63,36.17,158.61Zm-.5,104a2,2,0,0,0,1.5-2q-1.5-7-3-14.5c0-1.32-.68-1.82-2-1.5a1.46,1.46,0,0,0-1,.5,3.85,3.85,0,0,0-.5,1.5q1.5,9,3,14.5a1.33,1.33,0,0,0,1.5,1.5Zm-2-75c.32-1.32-.18-2-1.5-2h-.5c-1,0-1.5.68-1.5,2q-.51,5-.5,14.5c0,1.34.57,2,1.75,2s1.75-.66,1.75-2Q33.17,198.63,33.67,187.61Zm-.5,44v-14.5a1.78,1.78,0,0,0-2-2,1.77,1.77,0,0,0-2,2c0,1.34.07,3.68.25,7s.25,5.84.25,7.5a1.76,1.76,0,0,0,2,2c.66,0,1-.16,1-.5A2.05,2.05,0,0,0,33.17,231.61Z" transform="translate(-1.91 -1.39)" fill="#fbea23"/><path d="M228.67,192.11q20,38,9,87-10,45-41.5,70-28.5,23-66,23c-3.68,0-7.34-.16-11-.5q-46-5-78.5-39.5-36.51-38.49-38.5-99-.51-13,0-26,1-95,35-148.5,20.49-32,50-46.5a110.68,110.68,0,0,1,60.5-10q35.49,4.5,64.5,29a28.47,28.47,0,0,1,10.5,20,28.29,28.29,0,0,1-6.75,21.25,27.79,27.79,0,0,1-19.75,10.25,29.5,29.5,0,0,1-21.5-6.5q-16-13.5-34-16a53,53,0,0,0-28,4.5q-14,7-25,23.5-13.5,20-20.5,52.5a187.79,187.79,0,0,1,26.5-8q41-7.5,77.5,7.5Q210.17,156.13,228.67,192.11Zm4,86q10.5-47-8.5-83.5-18-34-55-49.5-35-14.49-74.5-7a126.34,126.34,0,0,0-30,9.5,2.71,2.71,0,0,1-2.75-.5,3.05,3.05,0,0,1-1.25-2.5q7.5-37,22.5-59.5,12-17.49,27.5-25a52.73,52.73,0,0,1,30.5-5q20,2.52,37,17a24.11,24.11,0,0,0,17.5,5.25,22.52,22.52,0,0,0,16.25-8.25,23.59,23.59,0,0,0,5.5-17.5,23.36,23.36,0,0,0-8.25-16.5q-28.5-23.49-62-27.5a97.48,97.48,0,0,0-57.5,9.5q-28.5,13.5-48,44.5-33,52-34.5,145.5,0,12.51.5,26,2,58,36.5,95.5,31.5,33,75.5,37.5a103.26,103.26,0,0,0,10.5.5q35.49,0,62.5-21.5Q223.15,321.11,232.67,278.11Z" transform="translate(-1.91 -1.39)" fill="#1d1d1b"/><path d="M214.17,243.61a2.05,2.05,0,0,1-.5,1.5,3.85,3.85,0,0,1-1.5.5,1.33,1.33,0,0,1-1.5-1.5,143.91,143.91,0,0,0-1.5-14.5v-.5a1.61,1.61,0,0,1,1.5-1.75c1-.16,1.66.43,2,1.75A79.52,79.52,0,0,1,214.17,243.61Z" transform="translate(-1.91 -1.39)" fill="#5a5a5a"/><path d="M211.67,256.86a1.61,1.61,0,0,1,1.5,1.75q-.51,6-2,14.5v.5a2,2,0,0,1-2,1.5l-.5-.5c-.68,0-1-.16-1-.5a3.67,3.67,0,0,1-.5-1.5v-.5a122,122,0,0,0,2.5-14A1.63,1.63,0,0,1,211.67,256.86Z" transform="translate(-1.91 -1.39)" fill="#5a5a5a"/><path d="M208.67,214.61c.66,1,.32,1.68-1,2a.44.44,0,0,1-.5.5c-.68,0-1.34-.5-2-1.5a79.81,79.81,0,0,0-6-13v-.5a2.87,2.87,0,0,1,.5-2c1.32-.66,2.32-.5,3,.5A64.34,64.34,0,0,1,208.67,214.61Z" transform="translate(-1.91 -1.39)" fill="#5a5a5a"/><path d="M206.67,287.11v.5a90.46,90.46,0,0,1-6,14,2,2,0,0,1-1.5.5h-1c-.34,0-.68-.32-1-1v-1.5a121.3,121.3,0,0,0,6-13c.66-1.32,1.5-1.66,2.5-1C206.33,285.61,206.67,286.11,206.67,287.11Z" transform="translate(-1.91 -1.39)" fill="#5a5a5a"/><path d="M193.67,188.61a2.12,2.12,0,0,1,.5,1.5,4,4,0,0,1-.5,1.5h-1.5a1.38,1.38,0,0,1-1-.5,98.82,98.82,0,0,0-10.5-10,2,2,0,0,1-.5-1.5v-1c1-1,1.82-1.16,2.5-.5A112.28,112.28,0,0,1,193.67,188.61Z" transform="translate(-1.91 -1.39)" fill="#5a5a5a"/><path d="M189.67,311.61c.66-1,1.5-1,2.5,0a1.54,1.54,0,0,1,.5,1v1.5a115.65,115.65,0,0,1-10.5,11,1.45,1.45,0,0,1-1,.5,1.56,1.56,0,0,1-1.5-1c-.68-.66-.68-1.5,0-2.5A60.23,60.23,0,0,0,189.67,311.61Z" transform="translate(-1.91 -1.39)" fill="#5a5a5a"/><path d="M181.67,216.11q11,21.51,4,51.5-6,27.51-24,41a56.7,56.7,0,0,1-33,10h-5q-25.5-2.49-44-22.5-23-24.48-24-65-.51-7.5-.5-15.5a2,2,0,0,1,.5-1.5q15-19.5,39.5-27,29-9,55.5,2Q172.15,198.11,181.67,216.11Zm-1,50q6.48-28-4-47.5-8.52-16.5-28-24.5-24.51-10.5-52-2a69.37,69.37,0,0,0-36,24.5v14.5q1.5,38.52,22.5,61.5,17.49,18.51,41,20.5,19.5,2,34-9Q175.15,292.11,180.67,266.11Z" transform="translate(-1.91 -1.39)" fill="#1d1d1b"/><path d="M174.17,42.61h-.5v-.5a1.38,1.38,0,0,1-.5-1,1.46,1.46,0,0,0,.5-1c.32-1,1.16-1.16,2.5-.5a84.24,84.24,0,0,1,10,6,5.82,5.82,0,0,1,6.5,0c3,2.34,3.32,5,1,8s-5,3.34-8,1a4.72,4.72,0,0,1-1.5-6C181.49,47,178.17,45,174.17,42.61Z" transform="translate(-1.91 -1.39)" fill="#5a5a5a"/><path d="M170.67,331.11v1a2.05,2.05,0,0,1-.5,1.5,66.23,66.23,0,0,1-14,6.5h-.5a1.56,1.56,0,0,1-1.5-1c-.34-1.32,0-2.16,1-2.5a76.58,76.58,0,0,0,13-6A1.6,1.6,0,0,1,170.67,331.11Z" transform="translate(-1.91 -1.39)" fill="#5a5a5a"/><path d="M163.42,34.61a1.85,1.85,0,0,1-.25,1.5c0,.68-.5,1-1.5,1h-.5a110.35,110.35,0,0,0-14-3.5,2,2,0,0,1-1.5-2,1.77,1.77,0,0,1,2-2,124.72,124.72,0,0,1,14.5,4A3,3,0,0,1,163.42,34.61Z" transform="translate(-1.91 -1.39)" fill="#5a5a5a"/><path d="M154.17,165.11c.66-1.32,1.5-1.82,2.5-1.5a103.61,103.61,0,0,1,13.5,6.5c1.32.68,1.66,1.5,1,2.5a1.59,1.59,0,0,1-1.5,1c-.68,0-1-.16-1-.5q-6-3-13-6h-1a3.67,3.67,0,0,1-.5-1.5Z" transform="translate(-1.91 -1.39)" fill="#5a5a5a"/><path d="M142.67,160.11c1,0,1.32.68,1,2a1.33,1.33,0,0,1-1.5,1.5h-.5a80.75,80.75,0,0,0-14.5-2h-.5v-.5c-.68,0-1-.5-1-1.5,0-1.32.5-2,1.5-2h.5A118.66,118.66,0,0,1,142.67,160.11Z" transform="translate(-1.91 -1.39)" fill="#5a5a5a"/><path d="M141.17,340.11c1.32-.32,2,.18,2,1.5s-.5,2-1.5,2a71.45,71.45,0,0,1-12,1h-3a1.38,1.38,0,0,1-1-.5,3.67,3.67,0,0,1-.5-1.5c0-1.32.5-2,1.5-2h1A59.17,59.17,0,0,0,141.17,340.11Z" transform="translate(-1.91 -1.39)" fill="#5a5a5a"/><path d="M132.67,28.61a1.78,1.78,0,0,1,2,2,1.77,1.77,0,0,1-2,2,58.08,58.08,0,0,0-14,1.5h-.5a2,2,0,0,1-2-1.5v-.5a1.33,1.33,0,0,1,1.5-1.5A116.8,116.8,0,0,1,132.67,28.61Z" transform="translate(-1.91 -1.39)" fill="#5a5a5a"/><path d="M112.67,157.61a1.78,1.78,0,0,1,2,2c0,1-.68,1.68-2,2a70.45,70.45,0,0,0-14,2h-.5a2,2,0,0,1-2-1.5v-.5a2,2,0,0,1,1.5-2A116.8,116.8,0,0,1,112.67,157.61Z" transform="translate(-1.91 -1.39)" fill="#5a5a5a"/><path d="M112.67,339.11a1.77,1.77,0,0,1-.5,3.5,73,73,0,0,1-14.5-4c-1.34-.32-1.68-1.16-1-2.5a1.4,1.4,0,0,1,2-1A93.76,93.76,0,0,0,112.67,339.11Z" transform="translate(-1.91 -1.39)" fill="#5a5a5a"/><path d="M105.92,35.86c.5,1.18.07,1.93-1.25,2.25a63.83,63.83,0,0,0-12.5,7h-1a2,2,0,0,1-1.5-.5q-.51-1,0-1.5a2,2,0,0,1,.5-1.5q6-3.48,13.5-7C104.67,34.29,105.42,34.7,105.92,35.86Z" transform="translate(-1.91 -1.39)" fill="#5a5a5a"/><path d="M86.67,330.61v1a1.59,1.59,0,0,1-1.5,1,1.38,1.38,0,0,1-1-.5,111.45,111.45,0,0,1-12.5-8.5,1.59,1.59,0,0,1-.5-2.5,3.37,3.37,0,0,1,3-.5,77.57,77.57,0,0,0,11.5,8.5C86.33,329.11,86.67,329.61,86.67,330.61Z" transform="translate(-1.91 -1.39)" fill="#5a5a5a"/><path d="M85.67,165.11a.64.64,0,0,1,0,1c-.34.68-.68,1-1,1a73.52,73.52,0,0,0-13.5,6h-.5c-1,0-1.5-.32-1.5-1a1.38,1.38,0,0,1-.5-1,1.59,1.59,0,0,1,1-1.5,81.05,81.05,0,0,1,14-6C84.67,163.29,85.33,163.79,85.67,165.11Z" transform="translate(-1.91 -1.39)" fill="#5a5a5a"/><path d="M81.17,51.11a2.12,2.12,0,0,1,.5,1.5,1.46,1.46,0,0,1-.5,1,99.53,99.53,0,0,0-10,10.5,4,4,0,0,1-2.5.5,1.56,1.56,0,0,1-1-1.5c0-.66.16-1,.5-1a113.11,113.11,0,0,1,10.5-11,1.73,1.73,0,0,1,1.25-.5A1.76,1.76,0,0,1,81.17,51.11Z" transform="translate(-1.91 -1.39)" fill="#5a5a5a"/><path d="M59.67,177.61c.66,1.34.5,2.18-.5,2.5q-4.5,3.51-8.5,7l5,4.5-18.5,7,5.5-19,5.5,5a55.83,55.83,0,0,1,8.5-7A2.52,2.52,0,0,1,59.67,177.61Z" transform="translate(-1.91 -1.39)" fill="#5a5a5a"/><path d="M55.67,88.61q-.51,1.5-1.5,1.5c-.34,0-.5-.07-.5-.25s-.18-.25-.5-.25a1.56,1.56,0,0,1-1-1.5c0-.66.16-1,.5-1q3.48-7,7-13a1.8,1.8,0,1,1,3,2Q59.67,81.12,55.67,88.61Z" transform="translate(-1.91 -1.39)" fill="#5a5a5a"/><path d="M54.17,299.61q5.49,7.5,9,11.5c.66.34,1,.75,1,1.25a1.45,1.45,0,0,1-.75,1.25,2.41,2.41,0,0,1-1.25.5,2,2,0,0,1-1.5-.5q-5-5.49-9.5-11.5a3.25,3.25,0,0,1,.5-3A2.31,2.31,0,0,1,54.17,299.61Z" transform="translate(-1.91 -1.39)" fill="#5a5a5a"/><path d="M49.17,99.61c1,.34,1.32,1.18,1,2.5a103.33,103.33,0,0,0-5,13.5,1.33,1.33,0,0,1-1.5,1.5h-.5q-1.5-.48-1.5-1.5v-.5q3-9.48,5-14.5C47,99.61,47.83,99.29,49.17,99.61Z" transform="translate(-1.91 -1.39)" fill="#5a5a5a"/><path d="M46.67,287.61c.32,0,.5.34.5,1a1.59,1.59,0,0,1-1,1.5h-1a1.38,1.38,0,0,1-1-.5l-.5-.5q-3.51-7-6-13.5v-1.5l1-1a2,2,0,0,1,2.5,1Q43.15,279.63,46.67,287.61Z" transform="translate(-1.91 -1.39)" fill="#5a5a5a"/><path d="M40.17,127.86q2,.27,1.5,2.25c-1.34,6-2.34,10.68-3,14a2,2,0,0,1-2,1.5c-1.34,0-2-.5-2-1.5v-.5q1.5-6.48,3.5-14.5C38.17,128.11,38.83,127.7,40.17,127.86Z" transform="translate(-1.91 -1.39)" fill="#5a5a5a"/><path d="M36.17,157.11v1.5q-1,8-1.5,14.5c0,1-.68,1.5-2,1.5a1.33,1.33,0,0,1-1.5-1.5v-.5q.48-6.48,1.5-14.5c.32-1.32,1-1.82,2-1.5A4.24,4.24,0,0,1,36.17,157.11Z" transform="translate(-1.91 -1.39)" fill="#5a5a5a"/><path d="M37.17,260.61a2,2,0,0,1-1.5,2h-.5a1.33,1.33,0,0,1-1.5-1.5q-1.5-5.49-3-14.5a3.85,3.85,0,0,1,.5-1.5,1.46,1.46,0,0,1,1-.5c1.32-.32,2,.18,2,1.5Q35.67,253.61,37.17,260.61Z" transform="translate(-1.91 -1.39)" fill="#5a5a5a"/><path d="M32.17,185.61c1.32,0,1.82.68,1.5,2q-.51,11-.5,14.5c0,1.34-.59,2-1.75,2s-1.75-.66-1.75-2q0-9.48.5-14.5c0-1.32.5-2,1.5-2Z" transform="translate(-1.91 -1.39)" fill="#5a5a5a"/><path d="M33.17,217.11v14.5a2.05,2.05,0,0,1-.5,1.5c0,.34-.34.5-1,.5a1.76,1.76,0,0,1-2-2c0-1.66-.09-4.16-.25-7.5s-.25-5.66-.25-7a1.77,1.77,0,0,1,2-2A1.78,1.78,0,0,1,33.17,217.11Z" transform="translate(-1.91 -1.39)" fill="#5a5a5a"/></svg>