<svg id="Layer_1" data-name="Layer 1" xmlns="http://www.w3.org/2000/svg" viewBox="0 0 256.3 370.67"><path d="M252.23,29.11a51.49,51.49,0,0,1-.5,7,15.87,15.87,0,0,1-2,5l-137,312a21.89,21.89,0,0,1-9,10q-11,7.5-22.5,2a23.37,23.37,0,0,1-7.75-5.5,25.34,25.34,0,0,1-5-7.75,23.14,23.14,0,0,1-1.75-9,22.44,22.44,0,0,1,2-9.25l121-275a2.28,2.28,0,0,0-.25-2.25,2.46,2.46,0,0,0-2.25-1.25h-157a14.77,14.77,0,0,1-3.5-.5,12.4,12.4,0,0,1-5.5-1.5,19.32,19.32,0,0,1-7-4.5,34.61,34.61,0,0,1-4.5-5.5,15.41,15.41,0,0,1-2-5,21,21,0,0,1-.5-12,15.32,15.32,0,0,1,2-5.5,30.61,30.61,0,0,1,3.5-5.5,28.46,28.46,0,0,1,7.5-5.5,21.08,21.08,0,0,1,6-2,16.48,16.48,0,0,1,4-.5h197.5a23.66,23.66,0,0,1,4.5.5h1a35.79,35.79,0,0,1,4.5,1.5l.5.5h.5a48,48,0,0,1,5,3.5,5.38,5.38,0,0,0,1.5,1A26.21,26.21,0,0,1,252.23,29.11Zm-18,4q2-5-3-7.25t-7,2.75a5.85,5.85,0,0,0,1,6.5q-2.52,6-5,11.5a2.19,2.19,0,0,0-.25,1.75,1.14,1.14,0,0,0,1.25.75l.5.5a2,2,0,0,0,2-1.5q4-9,5-11.5A5.49,5.49,0,0,0,234.23,33.11Zm-16.5,28c.32-1,0-1.5-1-1.5a1.59,1.59,0,0,0-2.5.5,38.07,38.07,0,0,1-2.75,6.5c-1.5,3-2.59,5.33-3.25,7v1.5c.32.33.66.67,1,1h.5a2,2,0,0,0,2-1,3.45,3.45,0,0,0,.75-1.25c.16-.5.32-1,.5-1.5s.32-1,.5-1.5a3,3,0,0,1,.75-1.25,62.16,62.16,0,0,1,3.5-8Zm-17.5-21,17.5-9-17.5-8.5v6.5h-14a1.77,1.77,0,0,0-2,2,1.77,1.77,0,0,0,2,2h14Zm5.5,48a1.4,1.4,0,0,0-1-2,2,2,0,0,0-2.5,1l-.5,2a16.57,16.57,0,0,0-1.75,3.5c-.5,1.33-1.09,2.75-1.75,4.25a36.18,36.18,0,0,0-1.5,3.75,2,2,0,0,0-.5,1.5c.32.33.66.67,1,1h1a1.61,1.61,0,0,0,1.5-1q1-2,3-6.5t3-7Zm-12,27.5a.45.45,0,0,0,.5-.5,2,2,0,0,0-1.5-2,1.4,1.4,0,0,0-2,1,41.74,41.74,0,0,0-3,6.25c-1.34,3.17-2.34,5.58-3,7.25-.34,1.33,0,2.17,1,2.5h.5a2.9,2.9,0,0,0,2-1l1-3Zm-11.5,27v-.5a2.91,2.91,0,0,0-1-2c-1-.67-1.84-.33-2.5,1q-2.52,6-6,13.5-.51,1,0,1.5c0,.33.32.67,1,1h.5a2,2,0,0,0,2-1q2-4.5,3-7.5A49.6,49.6,0,0,0,182.23,142.61Zm-9-111.5c0-1.33-.5-2-1.5-2h-15c-1,0-1.5.67-1.5,2s.5,2,1.5,2h15C172.73,33.11,173.23,32.44,173.23,31.11Zm-3,138a1.4,1.4,0,0,0-1-2c-1-.67-1.84-.33-2.5,1-1.34,3-2.5,5.67-3.5,8s-1.84,4.17-2.5,5.5a2,2,0,0,0,1,2.5h.5a2,2,0,0,0,2-1,35,35,0,0,0,2.5-6c.32-.67.66-1.42,1-2.25s.75-1.75,1.25-2.75.91-1.83,1.25-2.5Zm-12,27.5.5-.5a2,2,0,0,0-1.5-2c-1-.67-1.68-.33-2,1q-4,9-6,13.5c-.68,1-.34,1.83,1,2.5h.5c1,0,1.5-.33,1.5-1l2-4q1-2,2.25-5.25C157.3,198.69,157.89,197.28,158.23,196.61Zm-11.5,27v-1a1.61,1.61,0,0,0-1-1.5,2,2,0,0,0-2.5,1c-.34.67-.93,1.83-1.75,3.5a9.6,9.6,0,0,0-1.25,3.5c-.34.67-.84,1.75-1.5,3.25s-1.18,2.58-1.5,3.25a1.1,1.1,0,0,0-.25,1.25,2.2,2.2,0,0,0,1.25,1.25h.5a2,2,0,0,0,2-1l1-3C144.05,229.11,145.73,225.61,146.73,223.61Zm-2.5-192.5a1.77,1.77,0,0,0-2-2h-14.5a1.77,1.77,0,0,0-2,2,1.77,1.77,0,0,0,2,2h14.5A1.77,1.77,0,0,0,144.23,31.11Zm-9.5,218.5c.32-.67,0-1.17-1-1.5-1.34-.67-2.18-.33-2.5,1q-1.5,3.49-4,9.5l-1.5,4c-.68,1-.5,1.67.5,2l.5.5a2,2,0,0,0,2-1,126.64,126.64,0,0,1,6-13.5v-1Zm-12,27c.32-.67,0-1.17-1-1.5-1-.67-1.84-.33-2.5,1q-2.52,6-3,7.5c-1,2-1.84,3.83-2.5,5.5q-.51,1,0,1.5a.88.88,0,0,0,1,1,.44.44,0,0,0,.5.5,1.61,1.61,0,0,0,1.5-1q0-.5,4.5-10l1.5-3.5v-1Zm-8-245.5a1.77,1.77,0,0,0-2-2h-15c-1,0-1.5.67-1.5,2s.5,2,1.5,2h15A1.77,1.77,0,0,0,114.73,31.11Zm-3.5,273.5v-1c0-1-.34-1.5-1-1.5-1.34-.67-2.18-.5-2.5.5-.34.67-1,2.25-2,4.75a32.17,32.17,0,0,1-2.5,5.25l-1.5,3.5a2,2,0,0,0,1,2.5h.5a2,2,0,0,0,2-1c.32-.67.75-1.67,1.25-3a8.05,8.05,0,0,1,1.25-2.5A31.23,31.23,0,0,1,111.23,304.61Zm-23.5,48,15.5-12.5-7-3,1.5-2.5a31.23,31.23,0,0,1,3.5-7.5v-1c0-1-.34-1.5-1-1.5-1.34-.67-2.18-.5-2.5.5-.34.67-1,2.25-2,4.75a32.17,32.17,0,0,1-2.5,5.25v.5l-6.5-2.5Zm-2.5-321.5a1.77,1.77,0,0,0-2-2H68.73a1.77,1.77,0,0,0-2,2,1.77,1.77,0,0,0,2,2h14.5A1.77,1.77,0,0,0,85.23,31.11Zm-29.5,0a1.77,1.77,0,0,0-2-2H41.23a5.15,5.15,0,0,0-5-3.5A5.74,5.74,0,0,0,32,27.36a5.46,5.46,0,0,0-1.75,4A4.7,4.7,0,0,0,32,35.11a6.27,6.27,0,0,0,4.25,1.5,5.15,5.15,0,0,0,5-3.5h12.5A1.77,1.77,0,0,0,55.73,31.11Z" transform="translate(-1.09 -1.94)" fill="#fbea23"/><path d="M257.23,28.61a24.4,24.4,0,0,1-.5,8.5,21.31,21.31,0,0,1-2,6.5l-137.5,311.5a28.81,28.81,0,0,1-10.75,12.75,28.18,28.18,0,0,1-15.75,4.75,30.93,30.93,0,0,1-12-2.5,32.91,32.91,0,0,1-15.25-16.25,25.31,25.31,0,0,1-2-11.25,32.78,32.78,0,0,1,2.25-11l119.5-271h-153a16.48,16.48,0,0,1-4-.5,27.31,27.31,0,0,1-7-2,33.54,33.54,0,0,1-8.5-5.5,22,22,0,0,1-5.5-7,24.75,24.75,0,0,1-3-6,32.54,32.54,0,0,1-.5-15,37.16,37.16,0,0,1,2.5-6.5,43.15,43.15,0,0,1,4.5-6.5,28,28,0,0,1,9.5-7,48.86,48.86,0,0,1,7.5-2.5h202a12.31,12.31,0,0,1,6,.5h.5a26.34,26.34,0,0,1,5.5,1.5,1.42,1.42,0,0,0,1,.5l.5.5a31.15,31.15,0,0,1,6,4q1,1,1.5,1.5A28.64,28.64,0,0,1,257.23,28.61Zm-5.5,7.5a51.49,51.49,0,0,0,.5-7,26.21,26.21,0,0,0-7-15,5.38,5.38,0,0,1-1.5-1,48,48,0,0,0-5-3.5h-.5l-.5-.5a35.79,35.79,0,0,0-4.5-1.5h-1a23.66,23.66,0,0,0-4.5-.5H30.23a16.48,16.48,0,0,0-4,.5,21.08,21.08,0,0,0-6,2,28.46,28.46,0,0,0-7.5,5.5,30.61,30.61,0,0,0-3.5,5.5,15.32,15.32,0,0,0-2,5.5,21,21,0,0,0,.5,12,15.41,15.41,0,0,0,2,5,34.61,34.61,0,0,0,4.5,5.5,19.32,19.32,0,0,0,7,4.5,12.4,12.4,0,0,0,5.5,1.5,14.77,14.77,0,0,0,3.5.5h157a2.46,2.46,0,0,1,2.25,1.25,2.28,2.28,0,0,1,.25,2.25l-121,275a22.44,22.44,0,0,0-2,9.25,23.14,23.14,0,0,0,1.75,9,25.34,25.34,0,0,0,5,7.75,23.37,23.37,0,0,0,7.75,5.5q11.49,5.5,22.5-2a21.89,21.89,0,0,0,9-10l137-312A15.87,15.87,0,0,0,251.73,36.11Z" transform="translate(-1.09 -1.94)" fill="#1d1d1b"/><path d="M231.23,25.86q5,2.25,3,7.25a5.49,5.49,0,0,1-5.5,3.5q-1,2.51-5,11.5a2,2,0,0,1-2,1.5l-.5-.5a1.14,1.14,0,0,1-1.25-.75,2.19,2.19,0,0,1,.25-1.75q2.49-5.51,5-11.5a5.85,5.85,0,0,1-1-6.5Q226.21,23.62,231.23,25.86Z" transform="translate(-1.09 -1.94)" fill="#5a5a5a"/><path d="M216.73,59.61c1,0,1.32.5,1,1.5v.5a62.16,62.16,0,0,0-3.5,8,3,3,0,0,0-.75,1.25c-.18.5-.34,1-.5,1.5s-.34,1-.5,1.5a3.45,3.45,0,0,1-.75,1.25,2,2,0,0,1-2,1h-.5c-.34-.33-.68-.67-1-1v-1.5c.66-1.67,1.75-4,3.25-7a38.07,38.07,0,0,0,2.75-6.5A1.59,1.59,0,0,1,216.73,59.61Z" transform="translate(-1.09 -1.94)" fill="#5a5a5a"/><path d="M217.73,31.11l-17.5,9v-7h-14a1.77,1.77,0,0,1-2-2,1.77,1.77,0,0,1,2-2h14v-6.5Z" transform="translate(-1.09 -1.94)" fill="#5a5a5a"/><path d="M204.73,86.11a1.4,1.4,0,0,1,1,2v.5q-1,2.51-3,7t-3,6.5a1.61,1.61,0,0,1-1.5,1h-1c-.34-.33-.68-.67-1-1a2,2,0,0,1,.5-1.5,36.18,36.18,0,0,1,1.5-3.75c.66-1.5,1.25-2.92,1.75-4.25a16.57,16.57,0,0,1,1.75-3.5l.5-2A2,2,0,0,1,204.73,86.11Z" transform="translate(-1.09 -1.94)" fill="#5a5a5a"/><path d="M194.23,115.11a.45.45,0,0,1-.5.5l-4.5,10.5-1,3a2.9,2.9,0,0,1-2,1h-.5c-1-.33-1.34-1.17-1-2.5.66-1.67,1.66-4.08,3-7.25a41.74,41.74,0,0,1,3-6.25,1.4,1.4,0,0,1,2-1A2,2,0,0,1,194.23,115.11Z" transform="translate(-1.09 -1.94)" fill="#5a5a5a"/><path d="M182.23,142.11v.5a49.6,49.6,0,0,1-3,6q-1,3-3,7.5a2,2,0,0,1-2,1h-.5c-.68-.33-1-.67-1-1q-.51-.5,0-1.5,3.48-7.5,6-13.5c.66-1.33,1.5-1.67,2.5-1A2.91,2.91,0,0,1,182.23,142.11Z" transform="translate(-1.09 -1.94)" fill="#5a5a5a"/><path d="M171.73,29.11c1,0,1.5.67,1.5,2s-.5,2-1.5,2h-15c-1,0-1.5-.67-1.5-2s.5-2,1.5-2Z" transform="translate(-1.09 -1.94)" fill="#5a5a5a"/><path d="M169.23,167.11a1.4,1.4,0,0,1,1,2v.5c-.34.67-.75,1.5-1.25,2.5s-.93,1.92-1.25,2.75-.68,1.58-1,2.25a35,35,0,0,1-2.5,6,2,2,0,0,1-2,1h-.5a2,2,0,0,1-1-2.5c.66-1.33,1.5-3.17,2.5-5.5s2.16-5,3.5-8C167.39,166.78,168.23,166.44,169.23,167.11Z" transform="translate(-1.09 -1.94)" fill="#5a5a5a"/><path d="M158.73,196.11l-.5.5c-.34.67-.93,2.08-1.75,4.25s-1.59,3.92-2.25,5.25l-2,4c0,.67-.5,1-1.5,1h-.5c-1.34-.67-1.68-1.5-1-2.5q2-4.5,6-13.5c.32-1.33,1-1.67,2-1A2,2,0,0,1,158.73,196.11Z" transform="translate(-1.09 -1.94)" fill="#5a5a5a"/><path d="M146.73,222.61v1c-1,2-2.68,5.5-5,10.5l-1,3a2,2,0,0,1-2,1h-.5a2.2,2.2,0,0,1-1.25-1.25,1.1,1.1,0,0,1,.25-1.25c.32-.67.82-1.75,1.5-3.25s1.16-2.58,1.5-3.25a9.6,9.6,0,0,1,1.25-3.5c.82-1.67,1.41-2.83,1.75-3.5a2,2,0,0,1,2.5-1A1.61,1.61,0,0,1,146.73,222.61Z" transform="translate(-1.09 -1.94)" fill="#5a5a5a"/><path d="M142.23,29.11a1.77,1.77,0,0,1,2,2,1.77,1.77,0,0,1-2,2h-14.5a1.77,1.77,0,0,1-2-2,1.77,1.77,0,0,1,2-2Z" transform="translate(-1.09 -1.94)" fill="#5a5a5a"/><path d="M133.73,248.11c1,.33,1.32.83,1,1.5v1a126.64,126.64,0,0,0-6,13.5,2,2,0,0,1-2,1l-.5-.5c-1-.33-1.18-1-.5-2l1.5-4q2.49-6,4-9.5C131.55,247.78,132.39,247.44,133.73,248.11Z" transform="translate(-1.09 -1.94)" fill="#5a5a5a"/><path d="M121.73,275.11c1,.33,1.32.83,1,1.5v1l-1.5,3.5q-4.5,9.5-4.5,10a1.61,1.61,0,0,1-1.5,1,.44.44,0,0,1-.5-.5.88.88,0,0,1-1-1q-.51-.5,0-1.5c.66-1.67,1.5-3.5,2.5-5.5q.48-1.5,3-7.5C119.89,274.78,120.73,274.44,121.73,275.11Z" transform="translate(-1.09 -1.94)" fill="#5a5a5a"/><path d="M112.73,29.11a1.77,1.77,0,0,1,2,2,1.77,1.77,0,0,1-2,2h-15c-1,0-1.5-.67-1.5-2s.5-2,1.5-2Z" transform="translate(-1.09 -1.94)" fill="#5a5a5a"/><path d="M111.23,303.61v1a31.23,31.23,0,0,0-3.5,7.5,8.05,8.05,0,0,0-1.25,2.5c-.5,1.33-.93,2.33-1.25,3a2,2,0,0,1-2,1h-.5a2,2,0,0,1-1-2.5l1.5-3.5a32.17,32.17,0,0,0,2.5-5.25c1-2.5,1.66-4.08,2-4.75.32-1,1.16-1.17,2.5-.5C110.89,302.11,111.23,302.61,111.23,303.61Z" transform="translate(-1.09 -1.94)" fill="#5a5a5a"/><path d="M103.23,340.11l-15.5,12.5-1-19.5,6.5,2.5v-.5a32.17,32.17,0,0,0,2.5-5.25c1-2.5,1.66-4.08,2-4.75.32-1,1.16-1.17,2.5-.5.66,0,1,.5,1,1.5v1a31.23,31.23,0,0,0-3.5,7.5l-1.5,2.5Z" transform="translate(-1.09 -1.94)" fill="#5a5a5a"/><path d="M83.23,29.11a1.77,1.77,0,0,1,2,2,1.77,1.77,0,0,1-2,2H68.73a1.77,1.77,0,0,1-2-2,1.77,1.77,0,0,1,2-2Z" transform="translate(-1.09 -1.94)" fill="#5a5a5a"/><path d="M53.73,29.11a1.77,1.77,0,0,1,2,2,1.77,1.77,0,0,1-2,2H41.23a5.15,5.15,0,0,1-5,3.5A6.27,6.27,0,0,1,32,35.11a4.7,4.7,0,0,1-1.75-3.75,5.46,5.46,0,0,1,1.75-4,5.74,5.74,0,0,1,4.25-1.75,5.15,5.15,0,0,1,5,3.5Z" transform="translate(-1.09 -1.94)" fill="#5a5a5a"/></svg>