<svg id="Layer_1" data-name="Layer 1" xmlns="http://www.w3.org/2000/svg" viewBox="0 0 221 370"><path d="M180.64,76.45c.33.67.66,1,1,1a.44.44,0,0,0,.5-.5,1.33,1.33,0,0,0,1.5-1.5V75a68.46,68.46,0,0,0-6-14,1.8,1.8,0,1,0-3,2,64.57,64.57,0,0,1,5,13h.5l.5,1Zm-145.75,18a5.52,5.52,0,0,0-4,1.75A5.25,5.25,0,0,0,29.14,100a5.49,5.49,0,0,0,4,5.5q.49,5.51,1,9.5a2,2,0,0,0,2,1.5h.5a2,2,0,0,0,1.5-2,62,62,0,0,1-1.5-9,5.48,5.48,0,0,0,3.5-5.5,5.68,5.68,0,0,0-1.5-3.75A4.76,4.76,0,0,0,34.89,94.45Zm-2.25-2,11.5-16-7-1a49,49,0,0,1,3.5-10v-1a1.62,1.62,0,0,0-1-1.5,1.6,1.6,0,0,0-2.5.5A78.4,78.4,0,0,0,33.64,75l-7-1ZM217.14,268a100.16,100.16,0,0,1-9,42.5,98.77,98.77,0,0,1-25,31.5q-29.5,23.51-71,23.5-47.51,0-78.5-30.5Q7.13,308,7.14,268q0-37,18-63a107,107,0,0,1,25.5-25,2.93,2.93,0,0,0,1.5-2.5,2,2,0,0,0-1.5-2,94,94,0,0,1-22.5-22q-16-22-16-53,0-39,26-65.5,29.49-29,74-29t73.5,29q26,26.5,26,65.5,0,31-16,53a83.29,83.29,0,0,1-22.5,22,2,2,0,0,0-1,2,3.37,3.37,0,0,0,1,2.5,103.94,103.94,0,0,1,26,25Q217.14,231,217.14,268Zm-25,1.5q0-7.5-.5-15a2,2,0,0,0-2-1.5,1.77,1.77,0,0,0-2,2,96.83,96.83,0,0,1,1,14.5,1.4,1.4,0,0,0,.5,1l1,1h.5C191.64,271.45,192.14,270.79,192.14,269.45Zm-1,15V284a2,2,0,0,0-1.5-2,2.3,2.3,0,0,0-2.5,1.5,48.43,48.43,0,0,1-4,13.5c-.67,1.34-.5,2.17.5,2.5h1c1,0,1.5-.33,1.5-1a53,53,0,0,0,4.5-14Zm-4-42.5c1.33-.33,1.83-1,1.5-2a65.07,65.07,0,0,0-5.5-14,1.4,1.4,0,0,0-2-1q-1.5.51-1.5,1.5a1.4,1.4,0,0,0,.5,1,121.11,121.11,0,0,1,5,13.5A2,2,0,0,0,187.14,242Zm0-137.5v-4q0-5.49-.5-11c-.34-1.33-1-1.83-2-1.5a1.77,1.77,0,0,0-2,2q.5,5,.5,10.5v4a1.4,1.4,0,0,0,.5,1,1.59,1.59,0,0,0,1.5,1A1.77,1.77,0,0,0,187.14,104.45Zm-2.5,15c.33-1.33,0-2.16-1-2.5a1.82,1.82,0,0,0-2.5,1.5,59,59,0,0,1-5,13,.44.44,0,0,0-.5.5,2.85,2.85,0,0,0,1,2h1a1.61,1.61,0,0,0,1.5-1A42.83,42.83,0,0,0,184.64,119.45Zm-6,190.5a1.47,1.47,0,0,0-.5-1,2.52,2.52,0,0,0-3,0,70.88,70.88,0,0,1-10,10c-.34,0-.67.34-1,1a3.67,3.67,0,0,0,.5,1.5,2,2,0,0,0,1.5.5h1a63.81,63.81,0,0,0,11-10.5A3.83,3.83,0,0,0,178.64,310Zm-3.5-94c1-1,1.16-1.83.5-2.5a65.59,65.59,0,0,0-10.5-11V202a1.6,1.6,0,0,0-2.5.5,1.43,1.43,0,0,0-.5,1,2,2,0,0,0,.5,1.5,96,96,0,0,1,10,10.5c0,.34.5.5,1.5.5Zm-4.5-72a2.07,2.07,0,0,0-.5-1.5,1.72,1.72,0,0,0-1.25-.5,4.05,4.05,0,0,0-1.75.5,58.94,58.94,0,0,1-10.5,9h-.5v.5a1.43,1.43,0,0,0-.5,1,1.77,1.77,0,0,0,2,2l1-.5a116.43,116.43,0,0,0,11.5-9A3.83,3.83,0,0,0,170.64,144Zm-1.5-93.75a1.72,1.72,0,0,0-.5-1.25,72.51,72.51,0,0,0-12-9.5c-1-1-1.84-.91-2.5.25a1.82,1.82,0,0,0,.5,2.75,63.1,63.1,0,0,1,11.5,9,1.4,1.4,0,0,0,1,.5,2.38,2.38,0,0,0,1.25-.5A1.47,1.47,0,0,0,169.14,50.2ZM164.64,290a53,53,0,0,0,4.5-22q0-22-9-35-11.5-16.5-47-30a2.14,2.14,0,0,0-2,0q-36,13.5-47,30-9.51,13-9.5,35,0,20.51,13,33.5,16.5,16,44.5,16,24.49,0,41-13A40.41,40.41,0,0,0,164.64,290Zm-7.5-164q7-10,7-25.5,0-19.5-12-31.5-15-15-40-15t-40,15q-12,12-12,31.5,0,15.51,7,25.5,10,13.5,44,25.5h2Q147.13,139.45,157.14,126Zm-1.5,202a1.47,1.47,0,0,0-.5-1c-.34-1-1.17-1.33-2.5-1a87.8,87.8,0,0,1-13.5,5.5c-.34,0-.67.34-1,1q-.51.51,0,1.5a2,2,0,0,0,2,1,93.81,93.81,0,0,0,14-5.5Q155.64,329,155.64,328Zm-1.5-132.5a1.6,1.6,0,0,0-.5-2.5q-7-4-13-7.5c-1.34-.33-2.17,0-2.5,1v2l1,.5q5,2.51,12.5,7a1.4,1.4,0,0,0,1,.5C153,196.45,153.47,196.12,154.14,195.45Zm-7.5-34.5c0-.66-.17-1-.5-1-.34-1.33-1.17-1.66-2.5-1a137.5,137.5,0,0,1-13,6,1.61,1.61,0,0,0-1,1.5v.5q.5,1.5,1.5,1.5h1q8-3.49,13.5-6.5C146,162,146.3,161.62,146.64,161Zm-2-126V34a1.62,1.62,0,0,0-1-1.5,96,96,0,0,0-14.5-4.5,1.4,1.4,0,0,0-2,1q-.51.51,0,1.5l1,1q7.5,2,14,4c0,.34.33.5,1,.5A1.61,1.61,0,0,0,144.64,35Zm-16.5,146.5a1.4,1.4,0,0,0-1-2q-9.51-4-11.5-5a6.07,6.07,0,0,0,2.5-1c1.33-.66,1.66-1.33,1-2-.34-1.33-1-1.66-2-1a44.74,44.74,0,0,0-6.5,2c-.67.34-1.84.84-3.5,1.5s-3,1.17-4,1.5c-.67,0-1,.5-1,1.5v.5a1.81,1.81,0,0,0,2.5,1.5,5.44,5.44,0,0,1,1.75-1l2.5-1a6.18,6.18,0,0,1,2.25-.5,1.4,1.4,0,0,0,1,.5l.5.5V177q8,3.51,13,6h.5A2,2,0,0,0,128.14,181.45Zm-.5,155a1.83,1.83,0,0,0-2.5-1.5q-3.51.51-14.5,1.5c-1,0-1.5.67-1.5,2,0,1,.66,1.5,2,1.5q8-.49,14.5-1.5C127,338.12,127.64,337.45,127.64,336.45ZM116.14,27a2,2,0,0,0-1.5-2h-5.5a97,97,0,0,0-10,1c-.34,0-.67.34-1,1a.62.62,0,0,0,0,1c0,1.34.5,2,1.5,2h.5a58,58,0,0,1,9-1.5h1.5c.33,0,1.5.17,3.5.5C115.47,28.62,116.14,28,116.14,27Zm-15.5,143.5c.66-1,.5-1.66-.5-2q-9.51-4-14-6a2,2,0,0,0-2.5,1v1a1.59,1.59,0,0,0,1,1.5q7.5,3,14,5.5a.44.44,0,0,0,.5.5Q100.13,172,100.64,170.45Zm-2.5,167V337a2,2,0,0,0-1.5-2q-5.51-1-14-3c-1.34-.66-2.17-.33-2.5,1q-.51,1,0,1.5a5.47,5.47,0,0,0,1.5,1,74.38,74.38,0,0,0,14.5,3A2,2,0,0,0,98.14,337.45ZM91.64,183q.49-.49,0-1.5c-.34-1.33-1-1.5-2-.5a72.33,72.33,0,0,0-14,6c-.34,0-.67.5-1,1.5a1.4,1.4,0,0,0,.5,1c0,.67.5,1,1.5,1a1.44,1.44,0,0,1,1-.5q2-1,13-6A.89.89,0,0,0,91.64,183ZM87.14,31v-.5c-.34-1-1.17-1.33-2.5-1a87.11,87.11,0,0,0-14,5l-1,1V37a2,2,0,0,0,2,1,.44.44,0,0,0,.5-.5q7-2.49,13.5-4.5A2,2,0,0,0,87.14,31ZM73.64,159a2,2,0,0,0,.5-1.5c-.34-.66-.67-1-1-1a66.87,66.87,0,0,1-12-7.5c-1-.66-1.84-.66-2.5,0a2,2,0,0,0-.5,1.5,3.67,3.67,0,0,0,.5,1.5,109.06,109.06,0,0,0,13,8h.5C73.14,160,73.64,159.62,73.64,159Zm-4,170,.5-.5a2.07,2.07,0,0,0-.5-1.5l-.5-.5a82.64,82.64,0,0,1-12.5-7c-1-1-1.92-1-2.75,0s-.59,2,.75,3a86.3,86.3,0,0,0,13,7.5h.5A1.61,1.61,0,0,0,69.64,329Zm-4.5-131.5c1-.66,1.16-1.58.5-2.75s-1.5-1.41-2.5-.75a79.68,79.68,0,0,0-12,9.5,1.43,1.43,0,0,0-.5,1,2,2,0,0,0,.5,1.5,1.81,1.81,0,0,0,2.5,0A78.82,78.82,0,0,1,65.14,197.45ZM60.64,43.2a1.72,1.72,0,0,0-.5-1.25,1.6,1.6,0,0,0-2.5-.5A75.85,75.85,0,0,0,46.14,51a4,4,0,0,0-.5,1.75,1.67,1.67,0,0,0,.5,1.25h1a2,2,0,0,0,1.5-.5,72.18,72.18,0,0,1,11-9C60.3,44.12,60.64,43.7,60.64,43.2ZM50.14,142c1-1,1-1.83,0-2.5a47,47,0,0,1-7.5-12,1.6,1.6,0,0,0-2.5-.5q-1.5.51-1.5,1.5c0,.34.08.5.25.5s.25.17.25.5a54.54,54.54,0,0,0,8.5,12.5,1.81,1.81,0,0,0,2.5,0Zm-3.5,169a1.47,1.47,0,0,0-.5-1,59.4,59.4,0,0,1-8.5-11.5c-.34-1.33-1.17-1.66-2.5-1l-1,1a2,2,0,0,0,.5,1.5,63.71,63.71,0,0,0,8.5,12.5,2,2,0,0,0,1.5.5,1.43,1.43,0,0,0,1-.5A1.61,1.61,0,0,0,46.64,311Zm-3-94.5a1,1,0,0,0,.5-1.5,1.47,1.47,0,0,0-.5-1,1.6,1.6,0,0,0-2.5.5,66.89,66.89,0,0,0-7.5,13,.44.44,0,0,0-.5.5,2,2,0,0,0,1.5,2h.5a1.61,1.61,0,0,0,1.5-1A91.87,91.87,0,0,1,43.64,216.45Zm-11,69v-1a53.59,53.59,0,0,1-2.5-13.5c0-1-.59-1.5-1.75-1.5s-1.75.67-1.75,2a77,77,0,0,0,2.5,14.5,1.33,1.33,0,0,0,1.5,1.5l.5-.5Q32.13,287,32.64,285.45Zm-.5-43c.33-1.33,0-2-1-2-1.34-.66-2.17-.33-2.5,1a100.87,100.87,0,0,0-2,14.5v.5a1.33,1.33,0,0,0,1.5,1.5h.5a1.33,1.33,0,0,0,1.5-1.5A100.85,100.85,0,0,1,32.14,242.45Z" transform="translate(-1.64 -0.95)" fill="#fbea23"/><path d="M222.64,268a101.3,101.3,0,0,1-10,45,93,93,0,0,1-26.5,33q-30.51,25-74,25-50,0-82-32.5-28.5-28-28.5-70.5,0-38.49,19-66a111.12,111.12,0,0,1,24-24.5A85.23,85.23,0,0,1,24.14,157q-17-24-17-56.5,0-41.49,27.5-69Q65.13,1,112.14,1t77.5,30.5q27.5,27.51,27.5,69,0,32.51-17,56.5a94.57,94.57,0,0,1-21,20.5,111.56,111.56,0,0,1,24,24.5Q222.64,229.46,222.64,268Zm-14.5,42.5a100.16,100.16,0,0,0,9-42.5q0-37-18-63a103.94,103.94,0,0,0-26-25,3.37,3.37,0,0,1-1-2.5,2,2,0,0,1,1-2,83.29,83.29,0,0,0,22.5-22q16-22,16-53,0-39-26-65.5-29-29-73.5-29t-74,29q-26,26.5-26,65.5,0,31,16,53a94,94,0,0,0,22.5,22,2,2,0,0,1,1.5,2,2.93,2.93,0,0,1-1.5,2.5,107,107,0,0,0-25.5,25q-18,26-18,63,0,40,26.5,67,31,30.51,78.5,30.5,41.49,0,71-23.5A98.77,98.77,0,0,0,208.14,310.45Z" transform="translate(-1.64 -0.95)" fill="#1d1d1b"/><path d="M191.64,254.45q.5,7.5.5,15c0,1.34-.5,2-1.5,2h-.5l-1-1a1.4,1.4,0,0,1-.5-1,96.83,96.83,0,0,0-1-14.5,1.77,1.77,0,0,1,2-2A2,2,0,0,1,191.64,254.45Z" transform="translate(-1.64 -0.95)" fill="#5a5a5a"/><path d="M191.14,284v.5h-.5a53,53,0,0,1-4.5,14c0,.67-.5,1-1.5,1h-1c-1-.33-1.17-1.16-.5-2.5a48.43,48.43,0,0,0,4-13.5,2.3,2.3,0,0,1,2.5-1.5A2,2,0,0,1,191.14,284Z" transform="translate(-1.64 -0.95)" fill="#5a5a5a"/><path d="M188.64,240c.33,1-.17,1.67-1.5,2a2,2,0,0,1-2-1,121.11,121.11,0,0,0-5-13.5,1.4,1.4,0,0,1-.5-1q0-1,1.5-1.5a1.4,1.4,0,0,1,2,1A65.07,65.07,0,0,1,188.64,240Z" transform="translate(-1.64 -0.95)" fill="#5a5a5a"/><path d="M187.14,102.45v2a1.77,1.77,0,0,1-2,2,1.59,1.59,0,0,1-1.5-1,1.4,1.4,0,0,1-.5-1v-4q0-5.49-.5-10.5a1.77,1.77,0,0,1,2-2c1-.33,1.66.17,2,1.5q.5,5.51.5,11Z" transform="translate(-1.64 -0.95)" fill="#5a5a5a"/><path d="M183.64,117c1,.34,1.33,1.17,1,2.5a42.83,42.83,0,0,1-5.5,13.5,1.61,1.61,0,0,1-1.5,1h-1a2.85,2.85,0,0,1-1-2,.44.44,0,0,1,.5-.5,59,59,0,0,0,5-13A1.82,1.82,0,0,1,183.64,117Z" transform="translate(-1.64 -0.95)" fill="#5a5a5a"/><path d="M181.64,77.45c-.34,0-.67-.33-1-1V77l-.5-1h-.5a64.57,64.57,0,0,0-5-13,1.8,1.8,0,1,1,3-2,68.46,68.46,0,0,1,6,14v.5a1.33,1.33,0,0,1-1.5,1.5A.44.44,0,0,1,181.64,77.45Z" transform="translate(-1.64 -0.95)" fill="#5a5a5a"/><path d="M178.14,309a1.47,1.47,0,0,1,.5,1,3.83,3.83,0,0,1-.5,1.5,63.81,63.81,0,0,1-11,10.5h-1a2,2,0,0,1-1.5-.5,3.67,3.67,0,0,1-.5-1.5c.33-.66.66-1,1-1a70.88,70.88,0,0,0,10-10A2.52,2.52,0,0,1,178.14,309Z" transform="translate(-1.64 -0.95)" fill="#5a5a5a"/><path d="M170.14,142.45a2.07,2.07,0,0,1,.5,1.5,3.83,3.83,0,0,1-.5,1.5,116.43,116.43,0,0,1-11.5,9l-1,.5a1.77,1.77,0,0,1-2-2,1.43,1.43,0,0,1,.5-1v-.5h.5a58.94,58.94,0,0,0,10.5-9,4.05,4.05,0,0,1,1.75-.5A1.72,1.72,0,0,1,170.14,142.45Z" transform="translate(-1.64 -0.95)" fill="#5a5a5a"/><path d="M166.14,51.45a63.1,63.1,0,0,0-11.5-9,1.82,1.82,0,0,1-.5-2.75c.66-1.16,1.5-1.25,2.5-.25a72.51,72.51,0,0,1,12,9.5,1.72,1.72,0,0,1,.5,1.25,1.47,1.47,0,0,1-.75,1.25,2.38,2.38,0,0,1-1.25.5A1.4,1.4,0,0,1,166.14,51.45Z" transform="translate(-1.64 -0.95)" fill="#5a5a5a"/><path d="M169.14,268a53,53,0,0,1-4.5,22,40.41,40.41,0,0,1-11.5,14.5q-16.5,13-41,13-28,0-44.5-16-13-13-13-33.5,0-22,9.5-35,11-16.5,47-30a2.14,2.14,0,0,1,2,0q35.49,13.5,47,30Q169.14,246,169.14,268Zm-9,19.5a45.35,45.35,0,0,0,4-19.5q0-20-8.5-32-10.5-15-43.5-27.5Q78.63,221,68.64,236q-8.51,12-8.5,32,0,18,11,29.5,15,15,41,15,22.5,0,37.5-12A44,44,0,0,0,160.14,287.45Z" transform="translate(-1.64 -0.95)" fill="#1d1d1b"/><path d="M162.64,202.45a1.6,1.6,0,0,1,2.5-.5v.5a65.59,65.59,0,0,1,10.5,11c.66.67.5,1.5-.5,2.5h-1c-1,0-1.5-.16-1.5-.5a96,96,0,0,0-10-10.5,2,2,0,0,1-.5-1.5A1.43,1.43,0,0,1,162.64,202.45Z" transform="translate(-1.64 -0.95)" fill="#5a5a5a"/><path d="M164.14,100.45q0,15.51-7,25.5-10,13.5-44,25.5h-2q-34-12-44-25.5-7-10-7-25.5,0-19.5,12-31.5,15-15,40-15t40,15Q164.14,81,164.14,100.45Zm-11.5,22q6-8,6-22,0-17.49-10.5-28-13.5-13-36.25-13t-35.75,13q-11,10.5-11,28,0,14,6,22,9,12.51,41,23.5Q144.14,135,152.64,122.45Z" transform="translate(-1.64 -0.95)" fill="#1d1d1b"/><path d="M155.14,327a1.47,1.47,0,0,1,.5,1q0,1-1.5,1.5a93.81,93.81,0,0,1-14,5.5,2,2,0,0,1-2-1q-.51-1,0-1.5c.33-.66.66-1,1-1a87.8,87.8,0,0,0,13.5-5.5C154,325.62,154.8,326,155.14,327Z" transform="translate(-1.64 -0.95)" fill="#5a5a5a"/><path d="M153.64,193a1.6,1.6,0,0,1,.5,2.5c-.67.67-1.17,1-1.5,1a1.4,1.4,0,0,1-1-.5q-7.5-4.5-12.5-7l-1-.5v-2c.33-1,1.16-1.33,2.5-1Q146.64,189,153.64,193Z" transform="translate(-1.64 -0.95)" fill="#5a5a5a"/><path d="M146.14,160c.33,0,.5.34.5,1-.34.67-.67,1-1,1q-5.5,3-13.5,6.5h-1q-1,0-1.5-1.5v-.5a1.61,1.61,0,0,1,1-1.5,137.5,137.5,0,0,0,13-6C145,158.29,145.8,158.62,146.14,160Z" transform="translate(-1.64 -0.95)" fill="#5a5a5a"/><path d="M144.64,34v1a1.61,1.61,0,0,1-1.5,1c-.67,0-1-.16-1-.5q-6.51-2-14-4l-1-1q-.51-1,0-1.5a1.4,1.4,0,0,1,2-1,96,96,0,0,1,14.5,4.5A1.62,1.62,0,0,1,144.64,34Z" transform="translate(-1.64 -0.95)" fill="#5a5a5a"/><path d="M127.14,179.45a1.4,1.4,0,0,1,1,2,2,2,0,0,1-2,1.5h-.5q-5-2.49-13-6v.5l-.5-.5a1.4,1.4,0,0,1-1-.5,6.18,6.18,0,0,0-2.25.5l-2.5,1a5.44,5.44,0,0,0-1.75,1,1.81,1.81,0,0,1-2.5-1.5V177c0-1,.33-1.5,1-1.5,1-.33,2.33-.83,4-1.5s2.83-1.16,3.5-1.5a44.74,44.74,0,0,1,6.5-2c1-.66,1.66-.33,2,1,.66.67.33,1.34-1,2a6.07,6.07,0,0,1-2.5,1Q117.64,175.46,127.14,179.45Z" transform="translate(-1.64 -0.95)" fill="#5a5a5a"/><path d="M125.14,335a1.83,1.83,0,0,1,2.5,1.5c0,1-.67,1.67-2,2q-6.51,1-14.5,1.5c-1.34,0-2-.5-2-1.5,0-1.33.5-2,1.5-2Q121.64,335.46,125.14,335Z" transform="translate(-1.64 -0.95)" fill="#5a5a5a"/><path d="M114.64,25a2,2,0,0,1,1.5,2c0,1-.67,1.67-2,2-2-.33-3.17-.5-3.5-.5h-1.5a58,58,0,0,0-9,1.5h-.5c-1,0-1.5-.66-1.5-2a.62.62,0,0,1,0-1c.33-.66.66-1,1-1a97,97,0,0,1,10-1h5.5Z" transform="translate(-1.64 -0.95)" fill="#5a5a5a"/><path d="M100.14,168.45c1,.34,1.16,1,.5,2q-.51,1.5-1.5,1.5a.44.44,0,0,1-.5-.5q-6.51-2.49-14-5.5a1.59,1.59,0,0,1-1-1.5v-1a2,2,0,0,1,2.5-1Q90.64,164.46,100.14,168.45Z" transform="translate(-1.64 -0.95)" fill="#5a5a5a"/><path d="M98.14,337v.5a2,2,0,0,1-2,1,74.38,74.38,0,0,1-14.5-3,5.47,5.47,0,0,1-1.5-1q-.51-.49,0-1.5c.33-1.33,1.16-1.66,2.5-1q8.49,2,14,3A2,2,0,0,1,98.14,337Z" transform="translate(-1.64 -0.95)" fill="#5a5a5a"/><path d="M91.64,181.45q.49,1,0,1.5a.89.89,0,0,1-1,1q-11,5-13,6a1.44,1.44,0,0,0-1,.5c-1,0-1.5-.33-1.5-1a1.4,1.4,0,0,1-.5-1c.33-1,.66-1.5,1-1.5a72.33,72.33,0,0,1,14-6C90.64,180,91.3,180.12,91.64,181.45Z" transform="translate(-1.64 -0.95)" fill="#5a5a5a"/><path d="M87.14,30.45V31a2,2,0,0,1-1.5,2q-6.51,2-13.5,4.5a.44.44,0,0,1-.5.5,2,2,0,0,1-2-1v-1.5l1-1a87.11,87.11,0,0,1,14-5C86,29.12,86.8,29.45,87.14,30.45Z" transform="translate(-1.64 -0.95)" fill="#5a5a5a"/><path d="M74.14,157.45a2,2,0,0,1-.5,1.5c0,.67-.5,1-1.5,1h-.5a109.06,109.06,0,0,1-13-8,3.67,3.67,0,0,1-.5-1.5,2,2,0,0,1,.5-1.5c.66-.66,1.5-.66,2.5,0a66.87,66.87,0,0,0,12,7.5C73.47,156.45,73.8,156.79,74.14,157.45Z" transform="translate(-1.64 -0.95)" fill="#5a5a5a"/><path d="M69.64,327a2.07,2.07,0,0,1,.5,1.5l-.5.5a1.61,1.61,0,0,1-1.5,1h-.5a86.3,86.3,0,0,1-13-7.5q-2-1.5-.75-3c.83-1,1.75-1,2.75,0a82.64,82.64,0,0,0,12.5,7Z" transform="translate(-1.64 -0.95)" fill="#5a5a5a"/><path d="M65.64,194.7c.66,1.17.5,2.09-.5,2.75a78.82,78.82,0,0,0-11.5,8.5,1.81,1.81,0,0,1-2.5,0,2,2,0,0,1-.5-1.5,1.43,1.43,0,0,1,.5-1,79.68,79.68,0,0,1,12-9.5C64.14,193.29,65,193.54,65.64,194.7Z" transform="translate(-1.64 -0.95)" fill="#5a5a5a"/><path d="M60.14,42a1.72,1.72,0,0,1,.5,1.25c0,.5-.34.92-1,1.25a72.18,72.18,0,0,0-11,9,2,2,0,0,1-1.5.5h-1a1.67,1.67,0,0,1-.5-1.25,4,4,0,0,1,.5-1.75,75.85,75.85,0,0,1,11.5-9.5A1.6,1.6,0,0,1,60.14,42Z" transform="translate(-1.64 -0.95)" fill="#5a5a5a"/><path d="M50.14,139.45c1,.67,1,1.5,0,2.5a1.81,1.81,0,0,1-2.5,0,54.54,54.54,0,0,1-8.5-12.5c0-.33-.09-.5-.25-.5s-.25-.16-.25-.5q0-1,1.5-1.5a1.6,1.6,0,0,1,2.5.5A47,47,0,0,0,50.14,139.45Z" transform="translate(-1.64 -0.95)" fill="#5a5a5a"/><path d="M46.14,310a1.47,1.47,0,0,1,.5,1,1.61,1.61,0,0,1-1,1.5,1.43,1.43,0,0,1-1,.5,2,2,0,0,1-1.5-.5,63.71,63.71,0,0,1-8.5-12.5,2,2,0,0,1-.5-1.5l1-1c1.33-.66,2.16-.33,2.5,1A59.4,59.4,0,0,0,46.14,310Z" transform="translate(-1.64 -0.95)" fill="#5a5a5a"/><path d="M44.14,215a1,1,0,0,1-.5,1.5,91.87,91.87,0,0,0-7,12.5,1.61,1.61,0,0,1-1.5,1h-.5a2,2,0,0,1-1.5-2,.44.44,0,0,1,.5-.5,66.89,66.89,0,0,1,7.5-13,1.6,1.6,0,0,1,2.5-.5A1.47,1.47,0,0,1,44.14,215Z" transform="translate(-1.64 -0.95)" fill="#5a5a5a"/><path d="M44.14,76.45l-11.5,16-6-18.5,7,1a78.4,78.4,0,0,1,3.5-11.5,1.6,1.6,0,0,1,2.5-.5,1.62,1.62,0,0,1,1,1.5v1a49,49,0,0,0-3.5,10Z" transform="translate(-1.64 -0.95)" fill="#5a5a5a"/><path d="M40.14,100a5.48,5.48,0,0,1-3.5,5.5,62,62,0,0,0,1.5,9,2,2,0,0,1-1.5,2h-.5a2,2,0,0,1-2-1.5q-.51-4-1-9.5a5.49,5.49,0,0,1-4-5.5,5.25,5.25,0,0,1,1.75-3.75,5.52,5.52,0,0,1,4-1.75,4.76,4.76,0,0,1,3.75,1.75A5.68,5.68,0,0,1,40.14,100Z" transform="translate(-1.64 -0.95)" fill="#5a5a5a"/><path d="M32.64,285.45q-.51,1.5-1.5,1.5l-.5.5a1.33,1.33,0,0,1-1.5-1.5,77,77,0,0,1-2.5-14.5c0-1.33.58-2,1.75-2s1.75.5,1.75,1.5a53.59,53.59,0,0,0,2.5,13.5v1Z" transform="translate(-1.64 -0.95)" fill="#5a5a5a"/><path d="M31.14,240.45c1,0,1.33.67,1,2a100.85,100.85,0,0,0-2,14,1.33,1.33,0,0,1-1.5,1.5h-.5a1.33,1.33,0,0,1-1.5-1.5V256a100.87,100.87,0,0,1,2-14.5C29,240.12,29.8,239.79,31.14,240.45Z" transform="translate(-1.64 -0.95)" fill="#5a5a5a"/></svg>