<svg id="Layer_1" data-name="Layer 1" xmlns="http://www.w3.org/2000/svg" viewBox="0 0 221 370"><path d="M186.18,34.86q30.48,30.51,30.5,82,0,95-105,239a24.7,24.7,0,0,1-8.5,7q-13,6.51-25-2a23.46,23.46,0,0,1-9.5-15.75,22.74,22.74,0,0,1,4.5-17.75q42.48-58,66.5-108a2.3,2.3,0,0,0-.5-2.5,3,3,0,0,0-2-1h-.5q-30.51,8-57,2.5a87.06,87.06,0,0,1-45-24q-28.5-28.5-28.5-75.5,0-50.49,28-80,28.5-30,75-32.5a25.54,25.54,0,0,1,5-.5Q157.17,5.86,186.18,34.86Zm7.75,79.5c.5-.33.57-.66.25-1a114.52,114.52,0,0,0-1-15,2,2,0,0,0-2-1.5,1.33,1.33,0,0,0-1.5,1.5v.5q1,9.51,1,14.5a2,2,0,0,0,2,1.5A2.41,2.41,0,0,0,193.93,114.36Zm.25,14v-.5a2.08,2.08,0,0,0-4,0q-.51,7.5-1.5,14.5a2,2,0,0,0,.5,1.5,1.38,1.38,0,0,0,1,.5h.5a1.33,1.33,0,0,0,1.5-1.5Q193.68,132.87,194.18,128.36Zm-4.5-43a4,4,0,0,0,.5-1.5,139.89,139.89,0,0,0-5.5-14,2,2,0,0,0-2.5-1,3.15,3.15,0,0,0-1.5,2l.5.5v.5q2.49,5,5.5,13a1.33,1.33,0,0,0,1.5,1.5.44.44,0,0,0,.5-.5A1.45,1.45,0,0,0,189.68,85.36Zm0,72a2,2,0,0,0-1.5-2c-1.34,0-2,.34-2,1q-1.5,6-4,14.5a3.67,3.67,0,0,0,.5,1.5c0,.34.32.5,1,.5h.5c1,0,1.5-.33,1.5-1C186.68,168.86,188,164,189.68,157.36Zm-8,28.5v-.5a1.33,1.33,0,0,0-1.5-1.5c-1-.66-1.68-.33-2,1-1.68,4.34-3.5,8.84-5.5,13.5v1.5c.66.67,1.16,1,1.5,1h.5c1,0,1.5-.33,1.5-1Q180.17,190.37,181.68,185.86Zm-5-127.5v-1a69,69,0,0,0-10.5-11c-1-.66-1.84-.66-2.5,0a2,2,0,0,0-.5,1.5,1.4,1.4,0,0,0,.5,1,100.43,100.43,0,0,1,10,10.5,1.57,1.57,0,0,0,1.5,1,1.45,1.45,0,0,0,1-.5A2.08,2.08,0,0,0,176.68,58.36Zm-3.5,122q5-3,2.25-7.75t-7.75-1.75c-2,1-2.84,2.84-2.5,5.5q-4.5,2.5-11.5,6a1.42,1.42,0,0,0-1,.5v1.5a2,2,0,0,0,2,1h.5a100.71,100.71,0,0,0,12-6C169.18,181.36,171.18,181.7,173.18,180.36Zm-2.5,33a.44.44,0,0,0,.5-.5,2,2,0,0,0-1.5-2c-1-.66-1.84-.33-2.5,1v.5c-.68,1.67-1.75,4.09-3.25,7.25s-2.43,5.09-2.75,5.75v1a1.58,1.58,0,0,0,1,1.5h1a1.61,1.61,0,0,0,1.5-1Q167.68,220.37,170.68,213.36Zm-6-63.5a153.51,153.51,0,0,0,4-33q0-31.5-16.5-48-15-15-38-15a46.51,46.51,0,0,0-6.5.5q-25,2.51-39,17.5-14.52,16.5-14.5,47,0,27.51,14,41.5,12,12.51,33.5,12.5,28,0,62-21A2,2,0,0,0,164.68,149.86Zm-6.5,90v-1a.89.89,0,0,0-1-1c-1-.66-1.68-.5-2,.5q-3,5.5-7,13c-1,1-.84,1.84.5,2.5a1.38,1.38,0,0,0,1,.5q1,0,1.5-1.5a8.69,8.69,0,0,0,1.75-2.75,26.12,26.12,0,0,1,1.5-3c.5-.83,1.07-1.91,1.75-3.25S157.5,241.2,158.18,239.86Zm-3.5-199.5c.66-1.33.32-2.16-1-2.5a89.37,89.37,0,0,0-14-6c-1-.33-1.68.17-2,1.5v.5a1.58,1.58,0,0,0,1,1.5,57.34,57.34,0,0,1,13.5,6h.5A2.9,2.9,0,0,0,154.68,40.36Zm-10.5,225.5v-1a1.62,1.62,0,0,0-1-1.5c-1-.66-1.84-.33-2.5,1q-2.52,4-7.5,12.5a2,2,0,0,0,1,2.5h1a2,2,0,0,0,1.5-.5Q140.16,272.86,144.18,265.86Zm-1.5-76.5v-.5a1.83,1.83,0,0,0-2.5-1.5,105.58,105.58,0,0,1-13.5,4.5c-1.34.34-1.84,1-1.5,2a1.33,1.33,0,0,0,1.5,1.5h.5a61.86,61.86,0,0,0,14.5-4.5C142.34,190.86,142.68,190.36,142.68,189.36Zm-14,102,.5-1a1.83,1.83,0,0,0-3.5-1c-.68,1-1.84,2.92-3.5,5.75a61.13,61.13,0,0,1-4.5,6.75v1a3.67,3.67,0,0,0,.5,1.5h1a2,2,0,0,0,1.5-.5,56,56,0,0,1,4-6.25A57.19,57.19,0,0,0,128.68,291.36Zm-2-260.5c0-1.33-.5-2-1.5-2a56.76,56.76,0,0,0-11-1,13.05,13.05,0,0,0-4,.5,2.44,2.44,0,0,0-1.25.5c-.5.34-.59.67-.25,1,0,1.34.5,2,1.5,2a76.22,76.22,0,0,1,14.5.5h.5A1.33,1.33,0,0,0,126.68,30.86Zm-12.5,165.5v-.5c0-1.33-.68-1.83-2-1.5-3.68.34-7.18.5-10.5.5h-4c-1.34,0-2,.59-2,1.75s.66,1.75,2,1.75h1a6.82,6.82,0,0,0,3,.5,61.24,61.24,0,0,0,11-1A1.33,1.33,0,0,0,114.18,196.36Zm-1.5,119.5.5-1a6.68,6.68,0,0,0-1-1.5,1.6,1.6,0,0,0-2.5.5c-3.68,5.34-6.5,9.34-8.5,12v.5l-5.5-4.5-3.5,19.5,17.5-9-5.5-4v-.5C109.18,320.53,112,316.53,112.68,315.86Zm-16.5-282a2.3,2.3,0,0,0,1.5-2.5,2.32,2.32,0,0,0-2.5-1.5,100.63,100.63,0,0,0-14,4.5,1.33,1.33,0,0,0-1.5,1.5v.5a2,2,0,0,0,2,1.5h.5A70.43,70.43,0,0,1,96.18,33.86Zm-11,161.5v-.5c0-1.33-.5-2-1.5-2a78.73,78.73,0,0,1-13.5-4.5c-1-.66-1.84-.33-2.5,1a1.1,1.1,0,0,0-.25,1.25,1.14,1.14,0,0,0,1.25.75c3.32,2,8,3.67,14,5h.5A2,2,0,0,0,85.18,195.36Zm-16-151.5a2,2,0,0,0,1-2.5c-1-1.33-2-1.66-3-1a91.8,91.8,0,0,0-12,9,2,2,0,0,0-.5,1.5,1.4,1.4,0,0,0,.5,1,1.65,1.65,0,0,0,1.25.5,1.68,1.68,0,0,0,1.25-.5A58.36,58.36,0,0,1,69.18,43.86Zm-11,137.5h.5l-.5-.5a47.14,47.14,0,0,1-10-10,2.18,2.18,0,0,0-3-.5,3.76,3.76,0,0,0-.5,1.5,1.4,1.4,0,0,0,.5,1,47.06,47.06,0,0,0,10.5,11,1.38,1.38,0,0,0,1,.5,1.61,1.61,0,0,0,1.5-1,1.48,1.48,0,0,0,.5-1A1.52,1.52,0,0,0,58.18,181.36Zm-10-119c.66-.66.5-1.5-.5-2.5a1.6,1.6,0,0,0-2.5.5,68.5,68.5,0,0,0-8,13v.5a2,2,0,0,0,1,2h1a1.61,1.61,0,0,0,1.5-1A69.14,69.14,0,0,1,48.18,62.36Zm-7.5,97-.5-.5a70.23,70.23,0,0,1-5-13.5,2,2,0,0,0-2-1.5,5.61,5.61,0,0,0-1.5,1v1.5a79.29,79.29,0,0,0,5.5,14,1.57,1.57,0,0,0,1.5,1h1A2,2,0,0,0,40.68,159.36Zm-5-71a1.84,1.84,0,0,0-1.5-2.5c-1-.33-1.68.17-2,1.5a84.36,84.36,0,0,0-3,14.5v.5q.48,1.5,1.5,1.5h.5a1.33,1.33,0,0,0,1.5-1.5Q34.18,94.37,35.68,88.36Zm-3,43-.5-.5q-.51-5.49-.5-12v-2a2,2,0,0,0-1.5-2,1.77,1.77,0,0,0-2,2v2q0,4,.5,13a2,2,0,0,0,2,1.5h.5A2,2,0,0,0,32.68,131.36Z" transform="translate(-0.68 -0.86)" fill="#fbea23"/><path d="M189.68,30.86q32,32.51,32,86,0,97-106,242a29.1,29.1,0,0,1-10.25,8.75,28.34,28.34,0,0,1-13.25,3.25,28,28,0,0,1-17-5.5,28.7,28.7,0,0,1-11.75-19.5,28,28,0,0,1,5.25-21.5q40-55,63.5-102-30,7-56.5.75a90.24,90.24,0,0,1-45-25.25q-30-30-30-79,0-52.5,29.5-83.5,30-32,78.5-34.5h5.5Q159.66.86,189.68,30.86Zm27,86q0-51.49-30.5-82-29-29-72-29a25.54,25.54,0,0,0-5,.5q-46.5,2.5-75,32.5-28,29.51-28,80,0,47,28.5,75.5a87.06,87.06,0,0,0,45,24q26.49,5.5,57-2.5h.5a3,3,0,0,1,2,1,2.3,2.3,0,0,1,.5,2.5q-24,50-66.5,108a22.74,22.74,0,0,0-4.5,17.75,23.46,23.46,0,0,0,9.5,15.75q12,8.5,25,2a24.7,24.7,0,0,0,8.5-7Q216.68,211.86,216.68,116.86Z" transform="translate(-0.68 -0.86)" fill="#1d1d1b"/><path d="M194.18,113.36c.32.34.25.67-.25,1a2.41,2.41,0,0,1-1.25.5,2,2,0,0,1-2-1.5q0-5-1-14.5v-.5a1.33,1.33,0,0,1,1.5-1.5,2,2,0,0,1,2,1.5A114.52,114.52,0,0,1,194.18,113.36Z" transform="translate(-0.68 -0.86)" fill="#5a5a5a"/><path d="M194.18,127.86v.5q-.51,4.5-2,14.5a1.33,1.33,0,0,1-1.5,1.5h-.5a1.38,1.38,0,0,1-1-.5,2,2,0,0,1-.5-1.5q1-7,1.5-14.5a2.08,2.08,0,0,1,4,0Z" transform="translate(-0.68 -0.86)" fill="#5a5a5a"/><path d="M190.18,83.86a4,4,0,0,1-.5,1.5,1.45,1.45,0,0,1-1,.5.44.44,0,0,1-.5.5,1.33,1.33,0,0,1-1.5-1.5q-3-8-5.5-13v-.5l-.5-.5a3.15,3.15,0,0,1,1.5-2,2,2,0,0,1,2.5,1A139.89,139.89,0,0,1,190.18,83.86Z" transform="translate(-0.68 -0.86)" fill="#5a5a5a"/><path d="M188.18,155.36a2,2,0,0,1,1.5,2c-1.68,6.67-3,11.5-4,14.5,0,.67-.5,1-1.5,1h-.5c-.68,0-1-.16-1-.5a3.67,3.67,0,0,1-.5-1.5q2.49-8.49,4-14.5C186.18,155.7,186.84,155.36,188.18,155.36Z" transform="translate(-0.68 -0.86)" fill="#5a5a5a"/><path d="M181.68,185.36v.5q-1.5,4.5-5.5,14c0,.67-.5,1-1.5,1h-.5c-.34,0-.84-.33-1.5-1v-1.5c2-4.66,3.82-9.16,5.5-13.5.32-1.33,1-1.66,2-1A1.33,1.33,0,0,1,181.68,185.36Z" transform="translate(-0.68 -0.86)" fill="#5a5a5a"/><path d="M176.68,58.36a2.08,2.08,0,0,1-.5,1.5,1.45,1.45,0,0,1-1,.5,1.57,1.57,0,0,1-1.5-1,100.43,100.43,0,0,0-10-10.5,1.4,1.4,0,0,1-.5-1,2,2,0,0,1,.5-1.5c.66-.66,1.5-.66,2.5,0a69,69,0,0,1,10.5,11Z" transform="translate(-0.68 -0.86)" fill="#5a5a5a"/><path d="M175.43,172.61q2.73,4.75-2.25,7.75c-2,1.34-4,1-6-1a100.71,100.71,0,0,1-12,6h-.5a2,2,0,0,1-2-1v-1.5a1.42,1.42,0,0,1,1-.5q7-3.5,11.5-6c-.34-2.66.5-4.5,2.5-5.5Q172.66,167.86,175.43,172.61Z" transform="translate(-0.68 -0.86)" fill="#5a5a5a"/><path d="M171.18,212.86a.44.44,0,0,1-.5.5q-3,7-6,13.5a1.61,1.61,0,0,1-1.5,1h-1a1.58,1.58,0,0,1-1-1.5v-1c.32-.66,1.25-2.58,2.75-5.75s2.57-5.58,3.25-7.25v-.5c.66-1.33,1.5-1.66,2.5-1A2,2,0,0,1,171.18,212.86Z" transform="translate(-0.68 -0.86)" fill="#5a5a5a"/><path d="M168.68,116.86a153.51,153.51,0,0,1-4,33,2,2,0,0,1-1,2q-34,21-62,21-21.51,0-33.5-12.5-14-14-14-41.5,0-30.49,14.5-47,14-15,39-17.5a46.51,46.51,0,0,1,6.5-.5q23,0,38,15Q168.68,85.36,168.68,116.86Zm-9,31a136.66,136.66,0,0,0,4-31q0-29.49-15-44.5-13.5-13-34.5-13h-6q-23,2.51-35.5,16.5-13.5,14.51-13.5,43,0,25.5,12.5,38,11,10.5,30,10.5Q127.66,167.36,159.68,147.86Z" transform="translate(-0.68 -0.86)" fill="#1d1d1b"/><path d="M155.18,238.36c.32-1,1-1.16,2-.5a.89.89,0,0,1,1,1v1c-.68,1.34-1.34,2.67-2,4s-1.25,2.42-1.75,3.25a26.12,26.12,0,0,0-1.5,3,8.69,8.69,0,0,1-1.75,2.75q-.51,1.5-1.5,1.5a1.38,1.38,0,0,1-1-.5c-1.34-.66-1.5-1.5-.5-2.5Q152.17,243.86,155.18,238.36Z" transform="translate(-0.68 -0.86)" fill="#5a5a5a"/><path d="M153.68,37.86c1.32.34,1.66,1.17,1,2.5a2.9,2.9,0,0,1-2,1h-.5a57.34,57.34,0,0,0-13.5-6,1.58,1.58,0,0,1-1-1.5v-.5c.32-1.33,1-1.83,2-1.5A89.37,89.37,0,0,1,153.68,37.86Z" transform="translate(-0.68 -0.86)" fill="#5a5a5a"/><path d="M144.18,264.86v1q-4,7-7.5,13a2,2,0,0,1-1.5.5h-1a2,2,0,0,1-1-2.5q5-8.49,7.5-12.5c.66-1.33,1.5-1.66,2.5-1A1.62,1.62,0,0,1,144.18,264.86Z" transform="translate(-0.68 -0.86)" fill="#5a5a5a"/><path d="M142.68,188.86v.5c0,1-.34,1.5-1,1.5a61.86,61.86,0,0,1-14.5,4.5h-.5a1.33,1.33,0,0,1-1.5-1.5c-.34-1,.16-1.66,1.5-2a105.58,105.58,0,0,0,13.5-4.5A1.83,1.83,0,0,1,142.68,188.86Z" transform="translate(-0.68 -0.86)" fill="#5a5a5a"/><path d="M129.18,290.36l-.5,1a57.19,57.19,0,0,1-4,6.25,56,56,0,0,0-4,6.25,2,2,0,0,1-1.5.5h-1a3.67,3.67,0,0,1-.5-1.5v-1a61.13,61.13,0,0,0,4.5-6.75c1.66-2.83,2.82-4.75,3.5-5.75a1.83,1.83,0,0,1,3.5,1Z" transform="translate(-0.68 -0.86)" fill="#5a5a5a"/><path d="M125.18,28.86c1,0,1.5.67,1.5,2a1.33,1.33,0,0,1-1.5,1.5h-.5a76.22,76.22,0,0,0-14.5-.5c-1,0-1.5-.66-1.5-2-.34-.33-.25-.66.25-1a2.44,2.44,0,0,1,1.25-.5,13.05,13.05,0,0,1,4-.5A56.76,56.76,0,0,1,125.18,28.86Z" transform="translate(-0.68 -0.86)" fill="#5a5a5a"/><path d="M114.18,195.86v.5a1.33,1.33,0,0,1-1.5,1.5,61.24,61.24,0,0,1-11,1,6.82,6.82,0,0,1-3-.5h-1c-1.34,0-2-.58-2-1.75s.66-1.75,2-1.75h4c3.32,0,6.82-.16,10.5-.5C113.5,194,114.18,194.53,114.18,195.86Z" transform="translate(-0.68 -0.86)" fill="#5a5a5a"/><path d="M109.68,313.86a1.6,1.6,0,0,1,2.5-.5,6.68,6.68,0,0,1,1,1.5l-.5,1c-.68.67-3.5,4.67-8.5,12v.5l5.5,4-17.5,9,3.5-19.5,5.5,4.5v-.5C103.18,323.2,106,319.2,109.68,313.86Z" transform="translate(-0.68 -0.86)" fill="#5a5a5a"/><path d="M97.68,31.36a2.3,2.3,0,0,1-1.5,2.5,70.43,70.43,0,0,0-14,4h-.5a2,2,0,0,1-2-1.5v-.5a1.33,1.33,0,0,1,1.5-1.5,100.63,100.63,0,0,1,14-4.5A2.32,2.32,0,0,1,97.68,31.36Z" transform="translate(-0.68 -0.86)" fill="#5a5a5a"/><path d="M85.18,194.86v.5a2,2,0,0,1-2,1h-.5c-6-1.33-10.68-3-14-5a1.14,1.14,0,0,1-1.25-.75,1.1,1.1,0,0,1,.25-1.25c.66-1.33,1.5-1.66,2.5-1a78.73,78.73,0,0,0,13.5,4.5C84.68,192.86,85.18,193.53,85.18,194.86Z" transform="translate(-0.68 -0.86)" fill="#5a5a5a"/><path d="M70.18,41.36a2,2,0,0,1-1,2.5,58.36,58.36,0,0,0-11.5,8,1.68,1.68,0,0,1-1.25.5,1.65,1.65,0,0,1-1.25-.5,1.4,1.4,0,0,1-.5-1,2,2,0,0,1,.5-1.5,91.8,91.8,0,0,1,12-9C68.18,39.7,69.18,40,70.18,41.36Z" transform="translate(-0.68 -0.86)" fill="#5a5a5a"/><path d="M58.18,183.36a1.61,1.61,0,0,1-1.5,1,1.38,1.38,0,0,1-1-.5,47.06,47.06,0,0,1-10.5-11,1.4,1.4,0,0,1-.5-1,3.76,3.76,0,0,1,.5-1.5,2.18,2.18,0,0,1,3,.5,47.14,47.14,0,0,0,10,10l.5.5h-.5a1.52,1.52,0,0,1,.5,1A1.48,1.48,0,0,1,58.18,183.36Z" transform="translate(-0.68 -0.86)" fill="#5a5a5a"/><path d="M47.68,59.86c1,1,1.16,1.84.5,2.5a69.14,69.14,0,0,0-7.5,12.5,1.61,1.61,0,0,1-1.5,1h-1a2,2,0,0,1-1-2v-.5a68.5,68.5,0,0,1,8-13A1.6,1.6,0,0,1,47.68,59.86Z" transform="translate(-0.68 -0.86)" fill="#5a5a5a"/><path d="M40.18,158.86l.5.5a2,2,0,0,1-1,2h-1a1.57,1.57,0,0,1-1.5-1,79.29,79.29,0,0,1-5.5-14v-1.5a5.61,5.61,0,0,1,1.5-1,2,2,0,0,1,2,1.5A70.23,70.23,0,0,0,40.18,158.86Z" transform="translate(-0.68 -0.86)" fill="#5a5a5a"/><path d="M34.18,85.86a1.84,1.84,0,0,1,1.5,2.5q-1.5,6-3,14a1.33,1.33,0,0,1-1.5,1.5h-.5q-1,0-1.5-1.5v-.5a84.36,84.36,0,0,1,3-14.5C32.5,86,33.18,85.53,34.18,85.86Z" transform="translate(-0.68 -0.86)" fill="#5a5a5a"/><path d="M32.18,130.86l.5.5a2,2,0,0,1-1.5,2h-.5a2,2,0,0,1-2-1.5q-.51-9-.5-13v-2a1.77,1.77,0,0,1,2-2,2,2,0,0,1,1.5,2v2Q31.68,125.37,32.18,130.86Z" transform="translate(-0.68 -0.86)" fill="#5a5a5a"/></svg>